<svg width="147" height="100" viewBox="0 0 147 100" fill="none" xmlns="http://www.w3.org/2000/svg">
<path d="M17.3008 20.7234C15.9548 21.6925 16.6009 23.0385 18.7545 23.6307C21.0157 24.223 20.8003 25.0844 18.3776 25.0306C16.1702 24.9767 15.901 25.6228 17.893 26.1073C19.562 26.538 21.1234 26.1073 21.5002 25.1382C21.8771 24.1153 21.2849 23.4154 19.4544 22.8232C17.5162 22.1771 17.7853 21.2618 19.8851 21.3695C21.6618 21.4772 21.8233 20.7773 20.1543 20.2927C18.4853 19.862 18.4314 19.862 17.3008 20.7234Z" fill="white"/>
<path d="M39.8058 20.5077C37.7061 21.3691 37.5446 24.761 39.6443 25.8916C40.1827 26.1608 41.3672 26.2685 42.2824 26.107C43.5746 25.8378 43.9514 25.4609 43.9514 24.4918C43.9514 23.415 43.6823 23.1997 42.4978 23.2535C41.5287 23.3073 41.3133 23.415 41.9594 23.5765C42.4978 23.7381 42.8208 24.1149 42.7131 24.438C42.3901 25.4071 40.4519 25.5147 39.6982 24.5995C38.1907 22.769 40.3442 20.1847 42.3363 21.423C42.9823 21.8537 43.4669 21.9075 43.6823 21.5845C43.9514 21.1538 41.6902 19.8078 41.098 20.0232C41.0441 20.0232 40.4519 20.2385 39.8058 20.5077Z" fill="white"/>
<path d="M52.0271 20.6692C50.0889 21.6383 50.0889 24.7072 52.0809 25.8378C53.3731 26.5377 53.6422 26.5377 54.9344 25.7301C56.7649 24.5456 56.8726 22.0152 55.1497 20.8308C53.6961 19.8078 53.7499 19.8078 52.0271 20.6692ZM54.396 21.3691C55.5805 21.7999 55.5266 24.761 54.396 25.1917C52.4578 25.8916 50.7349 23.415 52.0271 21.8537C52.7808 20.9384 53.1577 20.8846 54.396 21.3691Z" fill="white"/>
<path d="M1.90323 23.0384C3.08769 26.161 3.94912 26.5379 4.70286 24.3305C5.45661 22.2308 5.88733 22.2308 6.64107 24.2767C6.96411 25.1381 7.5025 25.8918 7.7717 25.8918C8.04089 25.8918 8.79464 24.6535 9.38687 23.1999C10.3021 20.9925 10.356 20.5079 9.70991 20.5079C9.33303 20.5079 8.95616 20.7233 8.95616 20.9925C8.95616 21.2617 8.68696 22.177 8.36393 23.0384L7.7717 24.5459L6.96411 22.5C5.995 20.0772 5.24126 20.1311 4.32599 22.7153L3.67992 24.5459L2.81849 22.5C1.52635 19.5927 0.718766 20.0234 1.90323 23.0384Z" fill="white"/>
<path d="M11.1091 23.0385C10.5169 24.3845 10.1939 25.6766 10.3554 25.8381C10.5708 25.9997 10.84 25.8381 10.9476 25.4613C11.2707 24.7075 14.1241 24.5998 14.6087 25.3536C14.7702 25.6228 15.1471 25.892 15.4701 25.892C15.7393 25.892 15.3624 24.6537 14.6087 23.2C13.8549 21.6925 12.9935 20.5081 12.7243 20.5081C12.4551 20.5081 11.7552 21.6387 11.1091 23.0385ZM13.4781 22.9308C13.6396 23.4154 13.4781 23.7384 12.9935 23.7384C12.5628 23.7384 12.1859 23.3616 12.1859 22.9308C12.1859 22.5001 12.4013 22.1233 12.6705 22.1233C12.9397 22.1233 13.2627 22.5001 13.4781 22.9308Z" fill="white"/>
<path d="M22.4155 23.1999C22.4155 24.6535 22.6847 25.8918 22.9539 25.8918C23.277 25.8918 23.4923 25.4073 23.4923 24.8151C23.4923 23.9536 23.8692 23.7383 25.1075 23.7383C26.3458 23.7383 26.7227 23.9536 26.7227 24.8151C26.7227 25.4073 26.9919 25.8918 27.2611 25.8918C27.5841 25.8918 27.7994 24.6535 27.7994 23.1999C27.7994 21.6924 27.5841 20.5079 27.2611 20.5079C26.9919 20.5079 26.7227 20.9925 26.7227 21.5847C26.7227 22.4461 26.3458 22.6615 25.1075 22.6615C23.8692 22.6615 23.4923 22.4461 23.4923 21.5847C23.4923 20.9925 23.277 20.5079 22.9539 20.5079C22.6847 20.5079 22.4155 21.6924 22.4155 23.1999Z" fill="white"/>
<path d="M29.4146 23.1999C29.4146 24.6535 29.6837 25.8918 29.9529 25.8918C30.276 25.8918 30.4913 24.6535 30.4913 23.1999C30.4913 21.6924 30.276 20.5079 29.9529 20.5079C29.6837 20.5079 29.4146 21.6924 29.4146 23.1999Z" fill="white"/>
<path d="M31.5684 23.2C31.5684 24.6536 31.8376 25.8919 32.1068 25.8919C32.4298 25.8919 32.6451 25.1382 32.6451 24.2768C32.6451 23.3615 32.8605 22.6616 33.1297 22.6616C33.3989 22.6616 34.1526 23.3615 34.7987 24.2768C36.5754 26.7534 37.4907 26.3765 37.4907 23.2C37.4907 21.6925 37.2753 20.508 36.9523 20.508C36.6831 20.508 36.4139 21.4233 36.4139 22.5001L36.36 24.546L34.6372 22.5001C32.2683 19.7543 31.5684 19.9158 31.5684 23.2Z" fill="white"/>
<path d="M45.4588 20.8848C46.4818 21.1002 46.6433 21.477 46.6433 23.5229C46.6433 24.8151 46.9125 25.8918 47.1817 25.8918C47.5047 25.8918 47.7201 24.9227 47.7201 23.7383C47.7201 21.9616 47.9354 21.477 48.9584 21.0463C49.8736 20.6695 49.4429 20.5618 47.1817 20.6156C45.5665 20.6156 44.7589 20.7771 45.4588 20.8848Z" fill="white"/>
<path d="M57.4111 23.1999C57.4111 24.6535 57.6803 25.8918 57.9495 25.8918C58.2726 25.8918 58.4879 25.0843 58.4879 24.1152L58.5418 22.3923L60.1031 24.1152C60.9645 25.0843 61.9336 25.8918 62.2567 25.8918C62.5259 25.8918 62.795 24.6535 62.795 23.1999C62.795 21.6924 62.5797 20.5079 62.2567 20.5079C61.9875 20.5079 61.7183 21.4232 61.7183 22.5V24.5459L60.0493 22.5C59.134 21.4232 58.1649 20.5079 57.8957 20.5079C57.6265 20.5079 57.4111 21.6924 57.4111 23.1999Z" fill="white"/>
<path d="M5.99462 28.7456C3.89489 29.7686 2.54891 31.2761 1.63365 33.8065C0.71838 36.3908 0.610702 55.2883 1.47213 58.4648C2.65659 62.7719 5.88694 64.8716 10.6248 64.5486C15.7933 64.1717 18.1084 61.1567 18.1084 54.696V51.1965H15.1473H12.1861V54.1038C12.1861 57.2265 11.1093 59.057 9.65568 58.5186C9.22497 58.3571 8.74042 58.1956 8.63274 58.1956C8.52506 58.1956 8.41738 52.8655 8.41738 46.4048C8.41738 36.1754 8.52506 34.5602 9.27881 34.291C10.4094 33.8603 10.3556 33.8603 11.3247 34.8294C11.9169 35.3678 12.1861 36.66 12.1861 38.5982V41.5055H15.1473H18.1084V38.3828C18.1084 34.1834 17.3547 31.7606 15.4165 29.9301C14.0705 28.6379 13.2629 28.3687 10.7325 28.2072C8.84809 28.0995 6.96372 28.3149 5.99462 28.7456Z" fill="white"/>
<path d="M18.647 46.3504V64.1173H22.1465H25.6461V46.3504V28.5836H22.1465H18.647V46.3504Z" fill="white"/>
<path d="M26.1841 31.8138V35.0441H28.6068H31.0296V49.5807V64.1172H34.5292H38.0287V49.5807V35.0441H40.4515H42.8742V31.8138V28.5834H34.5292H26.1841V31.8138Z" fill="white"/>
<path d="M43.6819 29.2296C43.8434 29.6065 45.1356 34.2367 46.6431 39.5129C49.2812 48.8809 49.335 49.2039 49.335 56.5798V64.1173H52.8346H56.3341V57.0106C56.3341 49.9576 56.3341 49.85 59.2953 39.9436C60.9643 34.452 62.4179 29.6065 62.5256 29.2296C62.6871 28.7451 61.8257 28.5836 59.3491 28.5836H55.9572L54.7189 34.775C54.0729 38.1669 53.4268 40.9665 53.373 40.9665C53.2653 40.9665 52.7807 39.0822 52.2962 36.7671C51.8116 34.5058 51.1656 31.7062 50.8964 30.5756L50.358 28.5836H46.9123C44.3818 28.5836 43.5204 28.7451 43.6819 29.2296Z" fill="white"/>
<path d="M63.333 46.3503V64.1172H66.8326H70.3321V57.4411V50.7651L73.4009 50.5498C75.9852 50.3344 76.6851 50.0114 77.9773 48.5577C79.4848 46.8887 79.4848 46.8349 79.4848 39.7281C79.4848 34.1289 79.3232 32.3522 78.6233 31.3831C77.062 29.1757 75.0699 28.5834 68.9861 28.5834H63.333V46.3503ZM73.0241 39.8896V45.2735H71.6781H70.3321V39.8896V34.5057H71.6781H73.0241V39.8896Z" fill="white"/>
<path d="M82.4462 29.768C82.3385 30.4679 81.2079 37.8977 80.0234 46.3504C78.839 54.8032 77.7084 62.2329 77.5468 62.879C77.3315 64.0635 77.493 64.1173 80.5618 64.1173C83.6307 64.1173 83.7922 64.0635 83.7922 62.8252C83.7922 62.1253 83.9537 60.7793 84.1152 59.864C84.4383 58.4104 84.7074 58.195 86.2149 58.195C88.1532 58.195 88.6377 59.0026 88.6377 62.3406V64.1173H92.1911H95.7983L95.4753 62.6098C95.3676 61.8022 94.1831 53.8341 92.891 44.8429L90.5759 28.5836H86.6457C83.0384 28.5836 82.7154 28.6912 82.4462 29.768ZM87.0225 44.143C87.0225 45.2737 87.1841 47.6964 87.3456 49.5269L87.7224 52.8111H86.2688C85.1382 52.8111 84.869 52.5958 85.0843 51.842C85.2458 51.3575 85.515 48.9347 85.7304 46.4581C86.1073 41.9895 87.0225 40.3205 87.0225 44.143Z" fill="white"/>
<path d="M96.7139 46.3504V64.1173H100.213H103.713V57.3874V50.6576H105.867C107.105 50.6576 108.774 50.2807 109.635 49.85C112.273 48.504 112.866 46.6196 112.866 39.6206C112.866 29.8219 111.681 28.5836 102.098 28.5836H96.7139V46.3504ZM106.136 39.8897C106.136 44.7891 106.082 45.0045 104.951 45.166C103.713 45.3275 103.713 45.2198 103.713 39.8897C103.713 34.5597 103.713 34.452 104.951 34.6135C106.082 34.775 106.136 34.9904 106.136 39.8897Z" fill="white"/>
<path d="M113.404 46.3503V64.1172H120.672H127.94V60.8868V57.6565H124.172H120.403V53.0802V48.5039H122.826H125.248V45.8119V43.12H122.826H120.403V38.8128V34.5057H124.172H127.94V31.5446V28.5834H120.672H113.404V46.3503Z" fill="white"/>
<path d="M129.017 46.3503V64.1172H132.517H136.016V56.7951C136.016 49.5268 136.016 49.5268 137.254 49.6883C138.385 49.8498 138.439 50.119 138.762 56.0413C138.923 59.4332 139.247 62.6635 139.516 63.1481C139.839 63.9018 140.593 64.1172 143.123 64.1172C145.976 64.1172 146.299 64.0095 145.976 63.1481C145.761 62.6635 145.492 59.4332 145.33 56.0413C145.115 51.0343 144.846 49.5807 144.038 48.3424C142.961 46.8887 142.961 46.8349 144.038 45.435C145.007 44.2506 145.169 43.2815 145.169 38.7052C145.169 30.0371 143.608 28.5834 134.455 28.5834H129.017V46.3503ZM138.439 39.3512C138.439 43.7122 138.385 43.9276 137.254 44.0891C136.07 44.2506 136.016 44.1429 136.016 39.3512C136.016 34.5596 136.07 34.4519 137.254 34.6134C138.385 34.7749 138.439 34.9903 138.439 39.3512Z" fill="white"/>
<path d="M66.1333 69.8241C64.8411 70.7394 64.5719 72.8391 65.6487 73.7544C66.0794 74.0774 67.3177 74.5081 68.4484 74.7773C70.7096 75.208 71.7864 76.3925 71.248 77.7923C70.7096 79.1383 67.4254 78.9229 65.9718 77.4154C64.9488 76.3387 64.8411 76.2848 65.0565 77.3078C65.5411 80.1612 71.571 80.5381 72.2709 77.7385C72.7555 75.9618 72.0017 74.7235 70.0097 74.1313C66.7255 73.1622 66.0256 72.7314 66.0256 71.7085C66.0256 69.7703 69.7943 69.3934 71.0865 71.2239C72.0017 72.5161 72.7017 72.3007 72.1633 70.9009C71.4634 69.0704 68.0715 68.4243 66.1333 69.8241Z" fill="white"/>
<path d="M104.413 69.5013C102.798 70.1473 102.098 71.7087 102.098 74.616C102.098 80.7536 109.366 81.7227 110.443 75.7466C110.927 73.2162 109.904 70.3627 108.235 69.5551C106.674 68.8552 106.028 68.8552 104.413 69.5013ZM108.343 70.7934C109.097 71.3856 109.366 72.1932 109.366 74.2391C109.366 77.3079 108.451 78.6539 106.351 78.6539C104.144 78.6539 103.174 77.3618 103.174 74.5083C103.174 70.6319 105.651 68.8552 108.343 70.7934Z" fill="white"/>
<path d="M1.41846 74.6699C1.41846 77.9541 1.63381 79.677 1.95685 79.4616C2.27988 79.3001 2.49524 77.3619 2.54908 75.2622V71.3858L4.00274 75.4237C4.81032 77.6311 5.67175 79.4616 5.99479 79.4616C6.4255 79.4616 7.6638 76.8235 9.27897 72.4625C9.54817 71.7626 9.81737 72.8932 10.0327 75.6929L10.3558 80L10.4634 74.7238C10.5711 68.2631 9.76353 67.7785 7.87916 73.324C7.12541 75.4237 6.37166 77.2542 6.21014 77.3619C5.99479 77.4696 5.1872 75.7467 4.37961 73.5393C2.27988 67.7785 1.41846 68.1016 1.41846 74.6699Z" fill="white"/>
<path d="M13.2627 74.6164V79.7311H16.493C18.2697 79.7311 19.7234 79.5157 19.7234 79.1927C19.7234 78.8697 18.5389 78.6543 17.0314 78.6543H14.3395V76.7699V74.8856H17.0314C18.5389 74.8856 19.7234 74.6164 19.7234 74.3472C19.7234 74.0241 18.5389 73.8088 17.0314 73.8088H14.3395V71.9783C14.3395 70.0939 14.3395 70.0939 17.193 69.8785L19.9926 69.717L16.6546 69.6093L13.2627 69.5017V74.6164Z" fill="white"/>
<path d="M21.8774 74.5625C21.8774 77.6314 22.0928 79.7311 22.4158 79.7311C22.7389 79.7311 22.9542 77.9544 23.0081 75.5316V71.386L24.5156 75.424C25.377 77.6314 26.2923 79.5157 26.5614 79.5696C26.8845 79.6772 27.7997 77.9006 28.6612 75.5855L30.2225 71.386L30.384 75.5855C30.5994 81.4001 31.5685 80.3233 31.5685 74.2933C31.5685 69.9324 31.4608 69.4478 30.6532 69.6093C30.0072 69.717 29.2534 71.0092 28.4458 73.2704C27.7459 75.2086 26.9922 76.9853 26.7768 77.2006C26.5076 77.4698 25.7 75.9085 25.0001 73.7011C24.1387 71.1707 23.3311 69.717 22.7927 69.6093C21.9851 69.4478 21.8774 70.0401 21.8774 74.5625Z" fill="white"/>
<path d="M33.7217 74.6164V79.7311H36.5752C40.6131 79.7311 42.2283 78.1697 41.0976 75.424C40.7746 74.6702 40.5054 73.1089 40.5054 71.9244L40.4516 69.7709L37.1135 69.6093L33.7217 69.4478V74.6164ZM39.3748 71.9244C39.3748 73.4319 39.2133 73.5396 37.1135 73.7011L34.7985 73.8626V71.9244V69.9862L37.1135 70.1477C39.2133 70.3093 39.3748 70.4169 39.3748 71.9244ZM40.1285 75.6393C40.6131 76.2315 40.6669 76.7161 40.1824 77.5237C39.7517 78.3851 39.1056 78.6543 37.2212 78.6543C34.7985 78.6543 34.7985 78.6543 34.7985 76.7699C34.7985 74.8856 34.7985 74.8856 37.1674 74.8856C38.5672 74.8856 39.7517 75.2086 40.1285 75.6393Z" fill="white"/>
<path d="M43.4131 74.6164V79.7311H46.6434C48.4201 79.7311 49.8738 79.5157 49.8738 79.1927C49.8738 78.8697 48.6893 78.6543 47.1818 78.6543H44.4899V76.7699V74.8856H47.1818C48.6893 74.8856 49.8738 74.6164 49.8738 74.3472C49.8738 74.0241 48.6893 73.8088 47.1818 73.8088H44.4899V71.9783C44.4899 70.0939 44.4899 70.0939 47.3433 69.8785L50.143 69.717L46.805 69.6093L43.4131 69.5017V74.6164Z" fill="white"/>
<path d="M52.0269 74.6164C52.0269 77.6852 52.2422 79.7311 52.5652 79.7311C52.8883 79.7311 53.1036 78.6543 53.1036 77.3083C53.1036 74.9394 53.1575 74.8856 54.8803 74.8856C56.4417 74.8856 56.8185 75.1548 57.8415 77.3622C59.349 80.431 60.1027 80.0541 58.7568 76.9853C57.9492 75.2624 57.8953 74.7241 58.4337 74.401C58.8106 74.1318 59.0259 73.1627 58.9183 71.8706L58.7568 69.7709L55.4187 69.6093L52.0269 69.4478V74.6164ZM57.0877 70.3631C57.6261 70.5784 57.9492 71.3322 57.9492 72.2475C57.9492 73.7549 57.8415 73.8088 55.5264 73.8088C53.1036 73.8088 53.1036 73.8088 53.1036 71.9244C53.1036 70.2016 53.2113 70.0401 54.665 70.0401C55.5264 70.0401 56.6032 70.2016 57.0877 70.3631Z" fill="white"/>
<path d="M74.6396 73.7545C74.6396 77.5771 74.7473 78.1693 75.8241 78.8692C77.3316 79.946 79.4852 79.946 80.8312 78.9769C81.6926 78.3308 81.9079 77.4156 82.0695 73.8622C82.231 70.901 82.1233 69.5012 81.6926 69.5012C81.3157 69.5012 81.1003 70.8472 81.1003 73.1623C81.1003 77.6848 80.4004 78.8154 77.87 78.5462L75.9856 78.3847L75.8241 73.916C75.6088 68.2629 74.6396 68.1014 74.6396 73.7545Z" fill="white"/>
<path d="M84.3306 74.6698C84.3306 77.954 84.5459 79.6768 84.869 79.4615C85.192 79.3 85.4073 78.277 85.4073 77.2541C85.4073 75.4774 85.4612 75.4236 87.7224 75.4236C90.4682 75.4236 91.3297 74.7236 91.3297 72.4624C91.3297 70.0935 90.4682 69.5013 87.184 69.5013H84.3306V74.6698ZM89.3914 70.3627C89.9298 70.578 90.2529 71.3318 90.2529 72.4624C90.2529 74.4006 89.553 74.8852 86.9687 74.8852C85.4612 74.8852 85.4073 74.7775 85.4073 72.4624C85.4073 70.1473 85.4612 70.0397 86.9687 70.0397C87.8301 70.0397 88.9069 70.2012 89.3914 70.3627Z" fill="white"/>
<path d="M93.4834 74.6698C93.4834 77.954 93.6988 79.6768 94.0218 79.4615C94.3448 79.3 94.5602 78.277 94.5602 77.2541C94.5602 75.4774 94.614 75.4236 96.8753 75.4236C99.6211 75.4236 100.482 74.7236 100.482 72.4624C100.482 70.0935 99.6211 69.5013 96.3369 69.5013H93.4834V74.6698ZM98.5443 70.3627C99.0827 70.578 99.4057 71.3318 99.4057 72.4624C99.4057 74.4006 98.7058 74.8852 96.1215 74.8852C94.614 74.8852 94.5602 74.7775 94.5602 72.4624C94.5602 70.1473 94.614 70.0397 96.1215 70.0397C96.9829 70.0397 98.0597 70.2012 98.5443 70.3627Z" fill="white"/>
<path d="M112.327 74.2932C112.327 76.9851 112.596 79.3002 112.866 79.4617C113.189 79.6771 113.404 78.8156 113.404 77.362C113.404 74.9392 113.404 74.8854 115.181 74.8854C116.742 74.8854 117.119 75.1546 118.142 77.362C119.649 80.4308 120.403 80.0539 119.057 76.9851C118.411 75.5853 118.249 74.67 118.572 74.4547C119.542 73.8086 119.865 72.2473 119.326 70.8475C118.842 69.6092 118.519 69.5015 115.557 69.5015H112.327V74.2932ZM117.926 70.9013C118.896 71.8704 118.896 71.8166 118.465 72.9472C118.249 73.5394 117.442 73.8086 115.773 73.8086C113.404 73.8086 113.404 73.8086 113.404 71.9242C113.404 70.1476 113.512 70.0399 115.234 70.0399C116.257 70.0399 117.496 70.4167 117.926 70.9013Z" fill="white"/>
<path d="M122.018 69.9863L123.902 70.3093L124.064 75.0472C124.279 81.0771 125.248 80.7541 125.248 74.6165V70.094L127.025 69.8786C127.94 69.7709 126.809 69.6633 124.441 69.6633C121.695 69.6633 120.833 69.7709 122.018 69.9863Z" fill="white"/>
<path d="M129.663 74.4544L129.825 79.4614L133.217 79.6229C135.155 79.7306 136.555 79.5691 136.555 79.246C136.555 78.9768 135.263 78.6538 133.755 78.5461C130.956 78.3846 130.902 78.3308 130.74 76.6079L130.579 74.8851H133.271C134.778 74.8851 136.016 74.6159 136.016 74.3467C136.016 74.0236 134.778 73.8083 133.271 73.8083H130.579L130.74 72.0316C130.902 70.3626 131.009 70.3088 133.863 69.9857L136.824 69.6627L133.163 69.6088L129.502 69.5012L129.663 74.4544Z" fill="white"/>
<path d="M138.708 74.6698V79.8384L141.723 79.623C145.546 79.3 146.245 78.4386 146.245 74.293C146.245 70.255 145.492 69.5013 141.615 69.5013H138.708V74.6698ZM144.684 71.2241C144.953 71.601 145.169 73.1623 145.169 74.7237C145.169 77.8463 144.415 78.6539 141.454 78.6539H139.785V74.293V69.8782L141.992 70.2012C143.23 70.3627 144.469 70.7934 144.684 71.2241Z" fill="white"/>
</svg>
