<svg width="156" height="100" viewBox="0 0 156 100" fill="none" xmlns="http://www.w3.org/2000/svg">
<path d="M29.3488 20.774C21.4366 21.5481 16.1044 23.7841 11.0303 28.4282C6.30012 32.8143 2.34401 38.4045 3.11803 39.6085C3.46204 40.2105 9.39621 40.5545 19.9745 40.5545C36.143 40.5545 36.315 40.5545 38.3791 42.7046C40.8731 45.1126 41.2171 49.4987 39.2391 52.3368C38.4651 53.4548 36.315 54.6589 34.4229 55.1749C31.9289 55.8629 31.1548 56.4649 31.7569 57.1529C32.1869 57.7549 35.713 62.3131 39.5831 67.4732L46.7213 76.6754L49.3014 75.2134C55.6655 71.5153 61.5137 61.797 62.5457 53.4548C63.4058 45.8007 58.8476 31.6103 55.7515 32.2123C55.1495 32.2983 54.8055 31.7823 54.9775 31.0083C55.2355 29.4603 53.4295 27.6542 51.3654 27.3102C50.6774 27.2242 49.0434 26.0202 47.8393 24.7301C46.5493 23.3541 45.0872 22.5801 44.3992 22.8381C43.7112 23.0961 43.1092 22.9241 43.1092 22.4941C43.1092 22.0641 42.5072 21.8921 41.8191 22.1501C41.1311 22.4941 40.5291 22.2361 40.5291 21.7201C40.5291 21.204 40.0131 21.032 39.3251 21.2901C38.6371 21.5481 37.863 21.3761 37.519 20.86C37.261 20.344 36.745 20 36.401 20C36.057 20.086 32.8749 20.43 29.3488 20.774ZM29.0908 25.5902C28.8328 25.8482 28.0588 25.9342 27.4567 25.6762C26.7687 25.4182 27.0267 25.1601 27.9727 25.1601C28.9188 25.0741 29.4348 25.3321 29.0908 25.5902ZM35.111 25.5902C34.8529 25.8482 34.0789 25.9342 33.4769 25.6762C32.7889 25.4182 33.0469 25.1601 33.9929 25.1601C34.939 25.0741 35.455 25.3321 35.111 25.5902ZM40.1851 27.9122C39.6691 28.3422 40.0131 28.5142 41.2171 28.2562C42.2492 27.9982 42.9372 28.0842 42.7652 28.4282C42.5072 28.7722 43.1092 29.5463 44.1412 30.1483C45.5173 31.0083 45.7753 31.0083 45.2593 30.0623C44.2272 28.2562 49.0434 33.8464 51.1934 37.1144C54.0315 41.2425 54.8055 43.9946 53.1715 43.9946C52.4835 43.9946 50.8494 42.2746 49.6454 40.2105C47.2373 36.0824 43.3672 32.5563 42.1632 33.3303C41.7331 33.5884 41.3891 33.3303 41.3891 32.8143C41.3891 32.2983 41.0451 32.0403 40.6151 32.2983C40.1851 32.6423 39.6691 32.3843 39.4971 31.7823C39.2391 31.0943 36.831 30.6643 32.7029 30.5783C25.5647 30.3203 21.6086 31.6963 17.3944 35.7384C15.6744 37.3724 14.2984 37.9745 13.3523 37.6305C12.0623 37.1144 12.0623 36.8564 13.9543 34.8784C16.4484 32.2123 20.8345 29.4603 24.9627 27.9982C28.3168 26.7082 41.9052 26.7082 40.1851 27.9122ZM16.4484 30.5783C16.4484 30.7503 15.7604 31.4383 14.9864 32.0403C13.6103 33.1583 13.5243 33.0723 14.6424 31.6963C15.7604 30.3203 16.4484 29.8903 16.4484 30.5783ZM52.0534 62.1411C49.8174 66.2692 46.3773 69.7952 44.7432 69.7952C43.4532 69.7952 43.8832 67.2152 45.2593 66.6992C45.9473 66.3552 47.7533 64.2911 49.3014 61.9691C52.9995 56.1209 55.2355 56.2929 52.0534 62.1411Z" fill="white"/>
<path d="M68.0498 24.9881C68.0498 25.4181 68.9098 25.9341 70.0279 26.1061C71.7479 26.3641 71.9199 26.8802 72.1779 32.1263C72.3499 35.3944 72.7799 37.9744 73.21 37.9744C73.64 37.9744 74.07 35.3944 74.242 32.1263C74.5 26.8802 74.672 26.3641 76.478 26.1061C80.4342 25.5041 78.1981 24.2141 73.21 24.2141C70.3719 24.2141 68.0498 24.5581 68.0498 24.9881Z" fill="white"/>
<path d="M80.2624 30.8363C80.4344 35.1364 80.8644 37.5444 81.6384 37.8024C82.3264 37.9744 82.6704 37.1144 82.6704 35.0504C82.6704 32.1263 82.8424 31.9543 85.6805 31.9543C88.5186 31.9543 88.6906 32.1263 88.6906 34.9644C88.6906 37.0284 89.1206 37.9744 89.9806 37.9744C91.0127 37.9744 91.2707 36.5984 91.2707 31.0943C91.2707 25.5901 91.0127 24.2141 89.9806 24.2141C89.1206 24.2141 88.6906 25.1601 88.6906 27.2242C88.6906 30.0622 88.5186 30.2342 85.6805 30.2342C82.8424 30.2342 82.6704 30.0622 82.6704 27.2242C82.6704 25.0741 82.3264 24.2141 81.3804 24.2141C80.2624 24.2141 80.0904 25.3321 80.2624 30.8363Z" fill="white"/>
<path d="M94.8825 30.8371L95.1405 37.5453L98.8386 37.8033C102.795 38.0613 103.913 36.5132 100.129 36.0832C98.4086 35.9112 97.6346 35.3092 97.4626 33.8472C97.2046 32.2991 97.5486 31.9551 99.3546 31.9551C100.559 31.9551 101.763 31.5251 102.021 31.0951C102.365 30.5791 101.419 30.2351 99.8707 30.2351C97.5486 30.2351 97.2046 29.9771 97.4626 28.257C97.6346 26.881 98.4086 26.279 100.129 26.107C103.913 25.677 102.795 24.2149 98.5806 24.2149H94.6245L94.8825 30.8371Z" fill="white"/>
<path d="M1.13991 50.617C1.39792 57.1532 1.91393 58.9592 4.408 63.6033C9.65415 73.4076 18.6844 79.2557 29.9507 79.9437C35.7989 80.2877 43.9691 78.9977 43.9691 77.6217C43.9691 77.3637 39.841 71.8595 34.9389 65.4954L25.9086 53.8851L30.6388 53.3691C36.2289 52.7671 37.949 51.477 37.949 48.2089C37.949 43.3928 36.9169 43.1348 17.9964 43.1348H0.795898L1.13991 50.617ZM10.9442 50.703C11.0302 58.9592 16.4483 66.8714 23.9306 69.8815C25.2206 70.3975 28.6607 71.0855 31.4128 71.4295C38.465 72.1175 38.981 74.0956 32.1008 74.0956C23.4145 74.0956 16.6204 70.6555 12.2342 64.0333C9.31014 59.6472 7.41809 52.079 8.27811 48.2949C9.22414 43.8228 10.8582 45.2849 10.9442 50.703Z" fill="white"/>
<path d="M71.06 45.2849C66.0719 50.187 70.372 58.0992 77.1662 56.3792C80.0043 55.6052 79.7463 54.2291 76.9082 54.8311C73.6401 55.4332 71.232 53.4551 71.232 50.187C71.232 46.5749 72.8661 44.8549 76.3922 44.8549C78.1122 44.8549 79.1443 44.5109 78.8003 43.9949C77.7682 42.3608 73.2101 43.0489 71.06 45.2849Z" fill="white"/>
<path d="M82.5841 44.941C78.456 49.0691 82.6701 57.9274 88.0883 56.5513C91.6144 55.6913 92.9904 53.7133 92.9904 49.5852C92.9904 46.6611 92.5604 45.5431 91.0984 44.511C88.4323 42.619 84.7342 42.791 82.5841 44.941ZM89.8943 46.2311C92.5604 48.8971 90.4964 55.1753 86.9703 55.1753C85.1642 55.1753 82.6701 52.1652 82.6701 50.0152C82.6701 47.8651 85.1642 44.855 86.9703 44.855C87.8303 44.855 89.2063 45.4571 89.8943 46.2311Z" fill="white"/>
<path d="M96.4307 49.4988C96.4307 54.1429 96.7747 56.0349 97.5487 56.0349C98.9247 56.0349 98.7527 43.7366 97.3767 43.3066C96.7747 43.1346 96.4307 45.1986 96.4307 49.4988Z" fill="white"/>
<path d="M102.451 49.5854C102.451 54.1435 102.795 56.0356 103.569 56.0356C104.257 56.0356 104.515 54.7455 104.343 51.7355C104.171 49.4134 104.343 47.4354 104.859 47.4354C105.289 47.4354 106.837 49.3274 108.299 51.7355C112.255 58.0996 113.631 57.4976 113.631 49.5854C113.631 42.0172 112.083 40.8132 111.739 48.0374L111.481 53.0255L108.299 48.0374C103.741 41.1572 102.451 41.5012 102.451 49.5854Z" fill="white"/>
<path d="M69.77 68.5056C69.77 73.8377 70.028 74.9557 71.1461 74.9557C72.1781 74.9557 72.4361 74.3537 72.1781 72.8057C71.4901 69.6236 72.8661 69.3656 75.0162 72.3757C76.1342 73.7517 77.5102 74.9557 78.1123 74.9557C79.6603 74.9557 79.4883 74.3537 77.5102 71.5157C76.0482 69.4516 75.9622 69.0216 77.0802 68.5916C78.6283 67.9896 78.8003 64.5495 77.3382 63.0875C76.7362 62.4854 74.8442 62.0554 73.0381 62.0554H69.77V68.5056ZM75.3602 65.9255C75.3602 68.2476 72.6941 68.6776 72.0921 66.4415C71.5761 64.3775 72.1781 63.6035 74.0701 63.9475C74.7582 64.1195 75.3602 64.9795 75.3602 65.9255Z" fill="white"/>
<path d="M81.8101 68.5056V74.9557H85.6802C87.8302 74.9557 89.5503 74.5257 89.5503 74.0957C89.5503 73.5797 88.4322 73.2357 86.9702 73.2357C84.9922 73.2357 84.3901 72.8917 84.3901 71.5157C84.3901 70.2256 84.9922 69.7956 86.5402 69.7956C87.7442 69.7956 88.6903 69.3656 88.6903 68.9356C88.6903 68.4196 87.7442 68.0756 86.5402 68.0756C84.8201 68.0756 84.3901 67.6456 84.3901 65.9255C84.3901 64.1195 84.8201 63.7755 87.0562 63.7755C88.5183 63.7755 89.4643 63.4315 89.1203 62.9155C88.8623 62.3994 87.0562 62.0554 85.1642 62.0554H81.8101V68.5056Z" fill="white"/>
<path d="M92.1304 68.5056C92.1304 73.6657 92.3884 74.9557 93.4204 74.9557C94.1944 74.9557 94.7104 74.1817 94.7104 72.9777C94.7104 71.5157 95.3985 70.8276 97.5485 70.2256C99.6986 69.5376 100.387 68.8496 100.559 66.9576C100.989 63.6035 99.3546 62.0554 95.4845 62.0554H92.1304V68.5056ZM97.7205 66.3555C97.7205 67.7316 97.2045 68.5916 96.2585 68.7636C95.0545 69.0216 94.7104 68.5056 94.7104 66.3555C94.7104 64.2055 95.0545 63.6895 96.2585 63.9475C97.2045 64.1195 97.7205 64.9795 97.7205 66.3555Z" fill="white"/>
<path d="M103.311 67.216C103.311 72.9782 105.117 75.8162 108.729 75.8162C112.599 75.8162 113.975 73.9242 114.319 67.732C114.663 62.9159 114.491 62.0559 113.287 62.0559C112.169 62.0559 111.911 63.0019 111.911 66.7C111.911 69.7961 111.481 71.8601 110.535 72.7201C108.901 74.4402 108.901 74.4402 107.267 72.7201C106.321 71.8601 105.891 69.7961 105.891 66.7C105.891 63.1739 105.547 62.0559 104.601 62.0559C103.569 62.0559 103.311 63.1739 103.311 67.216Z" fill="white"/>
<path d="M117.759 68.5056L117.501 74.9557H120.684C122.404 74.9557 124.382 74.6977 125.156 74.4397C126.704 73.8377 126.962 70.5696 125.586 69.1936C124.898 68.5056 124.898 67.7316 125.586 66.5275C126.876 64.1195 124.726 62.0554 120.942 62.0554H118.103L117.759 68.5056ZM123.006 64.9795C123.866 66.0115 123.694 66.4415 122.318 67.1296C120.426 68.1616 119.136 67.1296 119.996 65.0655C120.598 63.4315 121.716 63.4315 123.006 64.9795ZM123.952 71.5157C123.952 72.8057 123.35 73.2357 121.802 73.2357C120.254 73.2357 119.652 72.8057 119.652 71.5157C119.652 70.2256 120.254 69.7956 121.802 69.7956C123.35 69.7956 123.952 70.2256 123.952 71.5157Z" fill="white"/>
<path d="M129.112 68.5056V74.9557H132.982C135.132 74.9557 136.852 74.5257 136.852 74.0957C136.852 73.5797 135.734 73.2357 134.272 73.2357H131.692V67.6456C131.692 63.2595 131.434 62.0554 130.402 62.0554C129.37 62.0554 129.112 63.3455 129.112 68.5056Z" fill="white"/>
<path d="M139.432 68.5056C139.432 73.6657 139.69 74.9557 140.722 74.9557C141.754 74.9557 142.012 73.6657 142.012 68.5056C142.012 63.3455 141.754 62.0554 140.722 62.0554C139.69 62.0554 139.432 63.3455 139.432 68.5056Z" fill="white"/>
<path d="M146.398 64.2913C143.99 67.3874 144.076 71.0855 146.742 73.6656C149.15 76.1596 152.16 76.4176 154.569 74.4396C156.117 73.1496 156.117 73.1496 153.536 73.5796C151.902 73.8376 150.182 73.4936 148.978 72.7196C145.108 69.9675 148.032 63.0873 152.762 63.9473C154.225 64.2913 154.913 64.0333 154.913 63.2593C154.913 62.3993 153.794 62.0553 151.558 62.0553C148.892 62.0553 147.774 62.5713 146.398 64.2913Z" fill="white"/>
</svg>
