<svg width="612" height="100" viewBox="0 0 612 100" fill="none" xmlns="http://www.w3.org/2000/svg">
<g clip-path="url(#clip0_238_97)">
<path d="M588.817 29.7105C586.238 32.6918 585.674 33.8198 586.319 34.7867C586.883 35.7536 585.997 39.3794 582.613 49.0484C577.375 64.0352 575.603 67.7416 572.783 69.9977C571.09 71.2869 570.204 71.5286 568.19 70.9646C566.82 70.5617 565.531 69.9977 565.209 69.6754C564.564 69.0308 564.08 34.1421 564.725 31.7249C564.967 30.6774 566.256 29.3882 567.787 28.7436C570.204 27.6962 569.64 27.6156 559.891 27.535C549.416 27.535 549.416 27.535 552.236 28.9048L555.056 30.2745V50.0153V69.756L552.397 70.6423C550.947 71.0452 550.061 71.6898 550.302 72.0121C550.625 72.3344 558.199 72.5761 567.223 72.5761H583.499L581.162 70.2394C578.503 67.4999 578.342 66.3719 580.034 60.7316C581.162 57.0252 581.485 56.6224 583.902 56.3806C585.272 56.2195 588.414 56.2195 590.831 56.4612L595.182 56.8641L597.197 62.6654C599.291 68.7085 599.13 70.884 596.552 71.5286C592.765 72.4955 595.504 72.979 603.965 72.7372C612.264 72.4955 612.909 72.3344 610.975 71.3675C608.558 70.0783 609.041 71.2063 600.661 48.4038C597.197 38.896 593.812 29.9522 593.248 28.5019L592.12 26.0041L588.817 29.7105ZM591.637 46.6311C593.007 50.3376 594.135 53.7217 594.135 54.1246C594.135 54.5274 591.637 54.8497 588.495 54.8497C585.433 54.8497 582.854 54.608 582.854 54.2051C582.854 52.5131 588.011 38.8154 588.495 39.2989C588.817 39.7017 590.187 43.0053 591.637 46.6311Z" fill="white"/>
<path d="M305.275 27.8552C298.909 30.1113 294.881 37.5241 296.734 43.6477C298.023 47.9182 302.132 51.1412 309.465 53.5584C312.929 54.6864 316.636 56.2979 317.683 56.9425C322.759 60.4878 322.357 68.4646 316.958 71.1236C313.655 72.8157 309.304 72.9768 306.483 71.5265C303.18 69.8344 299.473 64.1136 298.345 59.118C296.653 51.2217 296.009 52.4303 296.009 63.3079C296.009 73.5408 296.009 73.6214 297.62 72.1711C299.151 70.8013 299.393 70.8013 304.872 72.5739C310.109 74.266 310.996 74.3466 315.105 73.3797C325.741 71.043 331.139 59.0374 325.499 50.416C323.968 48.0793 319.537 45.6621 311.801 43.0837C305.275 40.8276 302.455 38.5716 302.455 35.4292C302.455 32.1256 303.18 30.7558 305.758 29.4667C312.688 25.8408 320.584 30.7558 323.565 40.5053C324.774 44.6146 325.982 44.3729 325.499 40.1025C325.257 38.2493 324.854 34.6234 324.613 32.1256C324.129 27.9357 323.968 27.6134 322.679 28.4192C321.551 29.1444 320.101 28.9832 316.394 28.0163C310.673 26.4048 309.465 26.4048 305.275 27.8552Z" fill="white"/>
<path d="M361.031 27.5334C350.153 30.1924 343.305 38.975 343.224 50.4165C343.143 64.6782 354.746 75.314 368.686 73.8637C376.985 73.0579 383.189 68.6263 387.54 60.4883C389.796 56.2179 389.715 44.3735 387.298 39.9419C382.383 30.7564 370.619 25.1968 361.031 27.5334ZM372.473 30.5147C373.601 31.3204 375.454 33.8182 376.582 35.9937C378.435 39.6196 378.596 40.8282 378.596 50.4165C378.596 60.0855 378.435 61.2135 376.501 64.9199C371.264 75.2334 361.031 75.1529 355.874 64.6782C353.779 60.4078 353.618 59.3603 353.618 50.4165C353.618 42.2785 353.86 40.1836 355.31 37.0412C357.083 33.1736 359.742 30.1924 362.481 28.9838C364.818 27.9363 370.136 28.742 372.473 30.5147Z" fill="white"/>
<path d="M2.71774 27.9369C2.71774 28.0175 2.15372 31.2405 1.50913 35.108C0.783958 38.9756 0.46166 42.3597 0.703383 42.6015C1.18683 43.1655 1.10626 43.246 3.84578 38.4922C5.94072 34.7857 12.0644 29.8707 14.5622 29.8707C15.3679 29.8707 15.6096 33.8189 15.6096 49.2086C15.6096 67.4989 15.5291 68.627 13.9982 70.1579C13.1118 71.0442 11.6615 71.7694 10.7752 71.7694C9.88886 71.7694 9.16369 72.0917 9.16369 72.5751C9.16369 73.0586 13.3536 73.3809 20.0412 73.3809C26.7289 73.3809 30.9188 73.0586 30.9188 72.5751C30.9188 72.0917 30.0325 71.7694 28.985 71.7694C24.8757 71.7694 24.4728 69.9162 24.4728 49.0474C24.4728 33.8189 24.7145 29.8707 25.5203 29.8707C28.0987 29.8707 34.2223 34.7857 36.3173 38.7339C38.8151 43.1655 40.1848 43.9712 39.4597 40.5065C39.2179 39.2979 38.6539 35.9944 38.1705 33.0937L37.2841 27.8563H19.9607C10.4529 27.8563 2.71774 27.9369 2.71774 27.9369Z" fill="white"/>
<path d="M86.2733 27.9341C85.951 28.3369 86.8373 29.1427 88.2877 29.8679L90.9466 31.0765L91.1884 50.1726C91.3495 66.6904 91.1884 69.3493 90.0603 70.4773C89.4157 71.2025 88.046 71.7665 87.0791 71.7665C85.951 71.7665 85.6287 72.0083 86.1927 72.5723C86.7568 73.1363 93.2833 73.2974 104.241 73.2169L121.484 72.9752L122.854 65.7235C123.66 61.6947 124.304 57.7466 124.304 56.8603C124.385 54.6848 123.176 56.2157 122.048 59.6804C119.953 66.4486 112.863 71.686 106.095 71.7665C100.857 71.7665 100.132 69.9939 100.374 59.1969L100.616 50.4143L102.952 50.5755C106.175 50.8172 108.995 53.7179 109.559 57.4243C110.607 63.7897 111.493 60.0833 111.493 49.6086C111.493 39.0533 110.607 35.5081 109.559 41.8734C108.995 45.6604 105.933 48.4 102.469 48.4H100.132L100.374 38.8922L100.616 29.465L104.241 29.5456C111.735 29.6261 115.844 32.1239 119.228 38.8922C120.356 41.1483 121.404 42.7598 121.645 42.518C121.887 42.3569 121.243 39.0533 120.276 35.1858L118.584 28.2564H105.531C98.44 28.2564 91.2689 28.0146 89.738 27.7729C88.2071 27.5312 86.5956 27.6118 86.2733 27.9341Z" fill="white"/>
<path d="M140.257 35.5109C139.532 39.6202 139.049 43.246 139.21 43.3266C139.371 43.4878 140.418 42.0374 141.546 40.1036C143.641 36.639 149.523 30.6764 150.893 30.6764C151.296 30.6764 152.182 30.4347 152.907 30.193C154.035 29.7096 154.197 31.7239 154.197 48.9668C154.197 69.9162 153.794 71.7694 149.684 71.7694C148.637 71.7694 147.751 72.0917 147.751 72.5751C147.751 73.0586 151.941 73.3809 158.628 73.3809C165.316 73.3809 169.506 73.0586 169.506 72.5751C169.506 72.0917 168.619 71.7694 167.572 71.7694C163.463 71.7694 163.06 69.9162 163.06 49.0474C163.06 33.2548 163.221 29.8707 164.188 29.8707C166.686 29.8707 173.212 35.1886 175.146 38.895C176.274 40.99 177.563 43.0043 177.885 43.3266C178.611 44.0518 177.966 37.4447 176.677 31.4822L175.871 27.8563H158.709H141.546L140.257 35.5109Z" fill="white"/>
<path d="M200.125 28.018C200.125 28.3403 201.334 29.2266 202.784 29.8712L205.363 31.0798L205.604 49.0479C205.846 68.5469 205.524 70.2389 201.253 71.2864C200.125 71.6087 199.481 72.1727 199.722 72.5756C200.286 73.4619 213.259 73.7036 214.065 72.8979C214.387 72.5756 213.42 71.7699 211.97 71.0447C210.278 70.2389 209.069 68.7886 208.424 66.9354C207.296 63.6318 206.974 34.7862 208.102 35.9143C208.424 36.3977 211.889 44.7774 215.757 54.6075C219.624 64.5182 223.089 72.5756 223.411 72.5756C223.734 72.5756 227.198 64.0347 231.146 53.6406C235.095 43.2465 238.559 34.7057 238.801 34.7057C239.043 34.7057 239.123 42.6825 238.962 52.5126L238.72 70.3195L236.384 71.2058C235.014 71.6893 233.966 72.4145 233.966 72.7367C233.966 73.7036 253.143 73.5425 253.707 72.5756C253.949 72.1727 253.465 71.7699 252.579 71.7699C251.693 71.7699 250.404 71.2058 249.759 70.4807C248.631 69.3526 248.47 66.6937 248.631 50.1759L248.873 31.0798L251.693 29.71L254.513 28.3403L247.1 28.2597H239.768L237.189 34.8668C230.26 53.2378 228.004 58.878 227.521 58.878C227.198 58.878 224.298 52.1097 221.075 43.8911C217.771 35.6725 214.951 28.8237 214.709 28.7432C213.501 28.018 200.125 27.3734 200.125 28.018Z" fill="white"/>
<path d="M391.892 28.1791C389.877 28.7431 389.877 28.7431 392.536 29.71L395.115 30.5963V50.4176V70.2389L392.697 71.2864C391.328 71.8504 390.522 72.495 390.844 72.8173C391.569 73.623 409.618 73.5425 409.618 72.7367C409.618 72.4144 408.571 71.6892 407.201 71.2058L404.784 70.3195V60.0865V49.773L407.443 50.337C410.424 50.9011 413.647 54.124 413.647 56.7024C413.647 57.6693 414.05 59.0391 414.453 59.6837C415.017 60.4894 415.258 57.1859 415.258 49.6119C415.258 42.0379 415.017 38.7343 414.453 39.5401C414.05 40.1847 413.647 41.5544 413.647 42.5213C413.647 44.6968 409.296 48.4032 406.717 48.4032H404.784V38.6538V28.8237L409.376 29.3877C415.178 30.0323 419.368 32.4495 421.785 36.4782C424.121 40.3458 426.78 43.5688 426.297 41.9573C426.136 41.3127 425.33 37.9286 424.524 34.4639L422.993 28.2597H410.101C402.93 28.2597 396.404 28.0985 395.518 27.9374C394.631 27.6956 393.02 27.8568 391.892 28.1791Z" fill="white"/>
<path d="M444.103 28.7398L446.681 29.8679V49.6891V69.5104L444.264 70.3968C442.975 70.8802 441.847 71.6054 441.847 71.9277C441.847 72.25 446.198 72.5723 451.516 72.5723C457.398 72.5723 461.185 72.25 461.185 71.7665C461.185 71.2831 460.54 70.9608 459.734 70.9608C456.592 70.9608 456.35 69.6716 456.35 50.3337C456.35 40.0202 456.592 31.0765 456.834 30.3513C457.075 29.6261 458.203 29.0621 459.251 29.0621C460.298 29.0621 461.185 28.6592 461.185 28.2564C461.185 27.7729 457.398 27.4506 451.354 27.5312C442.088 27.6118 441.605 27.6923 444.103 28.7398Z" fill="white"/>
<path d="M463.603 27.8563C463.603 28.0981 464.811 28.7427 466.342 29.3873C470.774 31.2405 470.935 32.2879 470.693 50.0143C470.451 64.7594 470.29 66.2097 468.759 68.3047C467.792 69.5133 466.261 70.6413 465.295 70.8025C464.408 70.9636 463.603 71.4471 463.603 71.8499C463.603 72.2528 467.067 72.5751 471.257 72.5751C475.85 72.5751 478.912 72.2528 478.912 71.7694C478.912 71.2859 478.267 70.9636 477.461 70.9636C476.575 70.9636 475.286 70.2385 474.4 69.2716C473.03 67.7407 472.788 65.8069 472.466 51.5452C472.224 42.7626 472.143 35.5109 472.305 35.5109C472.385 35.5109 478.831 44.0518 486.566 54.4459C494.301 64.84 501.07 73.3809 501.472 73.3809C501.956 73.3809 502.278 66.0486 502.278 53.3178C502.278 34.1411 502.359 33.2548 503.97 31.1599C505.179 29.5484 506.307 29.065 507.838 29.2261L509.933 29.4678L510.175 49.128C510.336 69.5133 510.175 70.9636 507.032 70.9636C506.146 70.9636 505.501 71.3665 505.501 71.8499C505.501 72.414 510.175 72.6557 520.649 72.414C534.266 72.1722 536.039 72.0111 538.94 70.3996C546.03 66.6126 549.414 60.1667 549.414 50.4172C549.414 44.9381 549.092 43.246 547.158 39.3785C545.869 36.8001 543.532 33.7383 541.921 32.4491C536.281 27.9369 533.219 27.4535 512.108 27.4535C493.576 27.534 493.093 27.534 495.832 28.9038C500.103 30.9987 500.667 32.852 500.667 45.5021C500.667 55.1711 500.506 56.5408 499.539 55.6545C498.894 55.1711 493.737 48.564 488.097 41.0705L477.945 27.4535H470.774C466.826 27.4535 463.603 27.6146 463.603 27.8563ZM532.171 30.9182C537.731 34.6246 540.148 40.9094 540.148 51.6258C540.148 63.4702 534.991 70.9636 526.853 70.9636C524.839 70.9636 523.389 70.319 522.019 68.9493L520.005 67.0155V47.9999V29.065H524.758C528.304 29.065 530.076 29.5484 532.171 30.9182Z" fill="white"/>
<path d="M39.3795 29.065C39.6212 29.4678 40.5075 29.8707 41.3132 29.8707C44.3751 29.8707 44.6168 31.1599 44.6168 51.0618V70.319L42.1996 71.2054C40.9104 71.6888 39.7823 72.414 39.7823 72.7363C39.7823 73.0586 44.1334 73.3809 49.4513 73.3809C58.6367 73.3809 61.9403 72.4945 56.7835 71.5276C53.8023 70.8831 53.3188 68.7881 53.6411 58.0717L53.8828 50.4172H61.9403H69.9977L70.2394 59.7638C70.4812 69.8356 69.8366 71.7694 66.2913 71.7694C65.4856 71.7694 64.7604 72.0917 64.7604 72.5751C64.7604 73.6226 83.8565 73.6226 84.5011 72.5751C84.7428 72.0917 84.2594 71.7694 83.3731 71.7694C82.4868 71.7694 81.1976 71.2054 80.553 70.4802C79.4249 69.3521 79.2638 66.6932 79.4249 50.256C79.6666 30.0318 79.5055 31.0793 83.6954 29.3067C84.8234 28.9038 83.6148 28.5815 79.8278 28.4204C71.5286 28.0175 64.0352 28.5815 65.969 29.3067C70.0783 30.9987 69.9977 30.8376 69.9977 40.0231V48.8057L62.1014 49.0474L54.2051 49.2891L54.4469 39.7813L54.6886 30.2736L56.9447 30.0318C58.1533 29.8707 59.1202 29.3872 59.1202 28.9844C59.1202 28.5815 54.7692 28.2592 48.9678 28.2592C42.4413 28.2592 39.0572 28.5815 39.3795 29.065Z" fill="white"/>
<path d="M179.177 29.065C179.821 29.4678 180.949 29.8707 181.674 29.8707C182.4 29.8707 183.286 30.4347 183.528 31.1599C183.769 31.8851 184.011 40.9094 184.011 51.3841V70.319L181.594 71.2054C180.305 71.6888 179.177 72.414 179.177 72.7363C179.177 73.0586 183.528 73.3809 188.846 73.3809C197.95 73.3809 201.335 72.4945 196.178 71.5276C194.727 71.2054 193.68 70.3996 193.358 69.191C192.633 66.2903 192.794 32.852 193.599 31.5628C194.002 30.9182 195.372 29.9513 196.661 29.3873C198.595 28.5009 197.548 28.4204 188.443 28.3398C181.433 28.3398 178.371 28.5009 179.177 29.065Z" fill="white"/>
<path d="M256.205 28.9844C256.608 29.3872 257.655 29.8707 258.542 30.0318C260.072 30.2736 260.153 30.9987 260.395 50.6589L260.556 70.9636L258.139 71.4471C251.934 72.7363 257.172 73.3809 273.448 73.3809C283.197 73.3809 291.174 73.2197 291.174 73.0586C291.174 72.3334 293.672 59.1998 294.075 57.83C294.881 55.2516 292.947 56.4602 292.061 59.1192C289.804 65.8069 283.842 70.8025 277.154 71.5276C270.789 72.1722 270.225 71.2859 270.225 60.0861C270.225 54.6876 270.547 50.7395 271.031 50.4172C271.514 50.0949 273.206 50.5783 274.898 51.3841C277.315 52.5927 278.121 53.5596 279.007 56.6214C279.652 58.7969 280.377 60.489 280.7 60.489C281.505 60.489 281.666 42.5209 280.861 40.3454C280.136 38.4922 280.136 38.4922 279.571 41.3123C278.927 45.0187 275.543 48.4028 272.562 48.4028H270.225V38.6533V28.9844L274.898 29.4678C281.586 30.2736 285.615 32.9325 288.435 38.331C289.724 40.7482 291.013 42.7626 291.255 42.7626C291.496 42.7626 291.013 39.459 290.127 35.5109L288.515 28.2592H271.917C262.087 28.2592 255.721 28.5815 256.205 28.9844Z" fill="white"/>
</g>
<defs>
<clipPath id="clip0_238_97">
<rect width="611.258" height="48" fill="white" transform="translate(0.625 26)"/>
</clipPath>
</defs>
</svg>
