<?xml version="1.0" encoding="utf-8"?>
<!-- Generator: Adobe Illustrator 26.0.1, SVG Export Plug-In . SVG Version: 6.00 Build 0)  -->
<svg version="1.1" id="Layer_1" xmlns="http://www.w3.org/2000/svg" xmlns:xlink="http://www.w3.org/1999/xlink" x="0px" y="0px"
	 viewBox="0 0 293 100" style="enable-background:new 0 0 293 100;" xml:space="preserve">
<style type="text/css">
	
		.st0{clip-path:url(#SVGID_00000121273728363337817470000007835802295087518611_);fill-rule:evenodd;clip-rule:evenodd;fill:#FFFFFF;}
	.st1{clip-path:url(#SVGID_00000121273728363337817470000007835802295087518611_);fill:#FFFFFF;}
	.st2{fill:#FFFFFF;}
</style>
<g>
	<g>
		<defs>
			<rect id="SVGID_1_" x="4.2" y="18" width="64" height="64"/>
		</defs>
		<clipPath id="SVGID_00000049206974529392341240000014783351603146793884_">
			<use xlink:href="#SVGID_1_"  style="overflow:visible;"/>
		</clipPath>
		
			<path style="clip-path:url(#SVGID_00000049206974529392341240000014783351603146793884_);fill-rule:evenodd;clip-rule:evenodd;fill:#FFFFFF;" d="
			M36.2,18c-17.7,0-32,14.3-32,32c0,17.7,14.3,32,32,32s32-14.3,32-32C68.2,32.3,53.9,18,36.2,18z M54.8,49.8c0,0.1,0,0.2,0,0.3
			c-0.3,10.2-8.5,18.4-18.5,18.4c-2,0-3.9-0.3-5.8-0.9c-0.3-0.1-0.6-0.2-0.8-0.3l-6,4.2c-1.8-2.7-2-6-0.8-8.8
			c-3.2-3.4-5.1-8-5.1-13.1h0c0-0.2,0-0.4,0-0.7c0-4.3,2.1-8.1,5.3-10.3c-2.1-3-1.8-7.1,0.8-9.8l10.5,10.8c-2.5,2.6-6.5,2.9-9.3,1
			c0,0.3-0.1,0.6-0.1,0.9v0.1c0,3.1,3.2,5.2,6,4c2.5-1.1,6-1.7,9.8-1.7c7.5,0,13.6,2.6,14,5.8h0c0,0.1,0,0.2,0,0.2
			C54.8,49.7,54.8,49.7,54.8,49.8z"/>
		<path style="clip-path:url(#SVGID_00000049206974529392341240000014783351603146793884_);fill:#FFFFFF;" d="M37.3,50.3
			c0.6,0,1.2,0.2,1.6,0.6c0.2-0.3,0.2-0.6,0.2-0.9c0-1-0.8-1.9-1.8-1.9c-1,0-1.8,0.8-1.8,1.9c0,0.3,0.1,0.6,0.2,0.9
			C36.1,50.5,36.7,50.3,37.3,50.3z"/>
		<path style="clip-path:url(#SVGID_00000049206974529392341240000014783351603146793884_);fill:#FFFFFF;" d="M47.6,51.4
			c-2.2,0-4.1,1.5-4.7,3.6c-0.2,0.5-0.3,1.1-0.5,1.6h0c-0.8,2-2.2,3.7-4,4.8l0,0L31.8,66c1.6,0.4,3.3,0.4,4.8,0.4c0.1,0,0.2,0,0.4,0
			c0.2,0,0.3,0,0.5,0c7.6,0,15.4-7.2,15.4-15H47.6z"/>
	</g>
	<path class="st2" d="M81.5,60l-6.4-19.6h4.7l5.6,17.4H83l5.8-17.4H93l5.6,17.4h-2.3l5.7-17.4h4.3L100,60h-4.9l-5-15.2h1.3L86.4,60
		H81.5z M117.6,60v-2.9l-0.3-0.6v-5.3c0-0.9-0.3-1.7-0.9-2.2c-0.6-0.5-1.4-0.8-2.6-0.8c-0.8,0-1.6,0.1-2.4,0.4c-0.8,0.2-1.4,0.6-2,1
		l-1.6-3.1c0.8-0.6,1.8-1,3-1.3c1.2-0.3,2.3-0.5,3.5-0.5c2.3,0,4.1,0.5,5.3,1.6c1.3,1.1,1.9,2.8,1.9,5.1V60H117.6z M113,60.2
		c-1.2,0-2.2-0.2-3-0.6c-0.8-0.4-1.5-1-1.9-1.7c-0.4-0.7-0.7-1.5-0.7-2.3c0-0.9,0.2-1.7,0.6-2.4c0.4-0.7,1.1-1.2,2.1-1.6
		c1-0.4,2.2-0.6,3.7-0.6h4v2.5h-3.5c-1,0-1.7,0.2-2.1,0.5c-0.4,0.3-0.6,0.8-0.6,1.3c0,0.6,0.2,1,0.6,1.3c0.4,0.3,1.1,0.5,1.8,0.5
		c0.7,0,1.4-0.2,2-0.5c0.6-0.4,1-0.9,1.3-1.5l0.7,2c-0.3,1-0.9,1.7-1.7,2.2C115.4,60,114.3,60.2,113,60.2z M132.7,60.2
		c-1.8,0-3.2-0.4-4.1-1.3c-1-0.9-1.5-2.3-1.5-4.1V41.6h4.4v13.2c0,0.6,0.2,1.1,0.5,1.5c0.3,0.3,0.8,0.5,1.4,0.5
		c0.7,0,1.3-0.2,1.8-0.6l1.2,3.1c-0.4,0.3-1,0.6-1.6,0.7C134,60.1,133.3,60.2,132.7,60.2z M124.7,48.6v-3.4h10.4v3.4H124.7z
		 M146.3,60.2c-1.6,0-3.1-0.3-4.3-1c-1.3-0.7-2.3-1.6-3-2.8c-0.7-1.2-1.1-2.5-1.1-4c0-1.5,0.4-2.8,1.1-4c0.7-1.2,1.7-2.1,3-2.7
		c1.3-0.7,2.7-1,4.3-1c1.6,0,3,0.3,4.1,1c1.2,0.7,2,1.6,2.6,2.8l-3.4,1.8c-0.4-0.7-0.9-1.2-1.5-1.6c-0.6-0.3-1.2-0.5-1.9-0.5
		c-0.7,0-1.4,0.2-2,0.5c-0.6,0.3-1.1,0.8-1.4,1.4c-0.3,0.6-0.5,1.4-0.5,2.2s0.2,1.6,0.5,2.2c0.4,0.6,0.8,1.1,1.4,1.4
		c0.6,0.3,1.3,0.5,2,0.5c0.7,0,1.3-0.2,1.9-0.5c0.6-0.3,1.1-0.9,1.5-1.6l3.4,1.8c-0.6,1.2-1.4,2.2-2.6,2.8
		C149.3,59.9,147.9,60.2,146.3,60.2z M165.5,44.7c1.2,0,2.3,0.2,3.2,0.7c1,0.5,1.7,1.2,2.2,2.2c0.5,1,0.8,2.2,0.8,3.8V60h-4.4v-8
		c0-1.2-0.3-2.1-0.8-2.7c-0.5-0.6-1.3-0.9-2.2-0.9c-0.7,0-1.3,0.1-1.9,0.4c-0.5,0.3-1,0.7-1.3,1.3c-0.3,0.6-0.4,1.4-0.4,2.3V60h-4.4
		V39.2h4.4v9.9l-1-1.3c0.5-1,1.3-1.8,2.3-2.3C163.1,45,164.2,44.7,165.5,44.7z M184.1,60.2c-1.7,0-3.2-0.3-4.5-1
		c-1.3-0.7-2.3-1.6-3-2.7c-0.7-1.2-1.1-2.5-1.1-4c0-1.5,0.3-2.8,1-4c0.7-1.2,1.7-2.1,2.9-2.7c1.2-0.7,2.6-1,4.1-1c1.5,0,2.8,0.3,4,1
		c1.2,0.6,2.1,1.5,2.8,2.7c0.7,1.2,1,2.5,1,4.2c0,0.2,0,0.4,0,0.6c0,0.2,0,0.4-0.1,0.6h-12.2v-2.5h9.9l-1.7,0.8c0-0.8-0.2-1.5-0.5-2
		c-0.3-0.6-0.8-1-1.3-1.3c-0.6-0.3-1.2-0.5-2-0.5c-0.7,0-1.4,0.2-2,0.5c-0.6,0.3-1,0.8-1.3,1.4c-0.3,0.6-0.5,1.3-0.5,2.1v0.7
		c0,0.8,0.2,1.5,0.5,2.2c0.4,0.6,0.9,1.1,1.5,1.4c0.7,0.3,1.5,0.5,2.4,0.5c0.8,0,1.5-0.1,2.1-0.4c0.6-0.2,1.2-0.6,1.7-1.1l2.3,2.5
		c-0.7,0.8-1.6,1.4-2.6,1.8C186.7,60,185.5,60.2,184.1,60.2z M195.2,60V44.9h4.2v4.3l-0.6-1.2c0.4-1.1,1.2-1.9,2.2-2.4
		c1-0.6,2.2-0.8,3.6-0.8v4c-0.2,0-0.4,0-0.5,0c-0.1,0-0.3,0-0.5,0c-1.2,0-2.2,0.3-2.9,1c-0.7,0.7-1.1,1.7-1.1,3.2V60H195.2z
		 M209.4,60.2c-0.7,0-1.4-0.3-1.9-0.8c-0.5-0.5-0.8-1.2-0.8-2s0.3-1.4,0.8-1.9c0.5-0.5,1.2-0.8,1.9-0.8c0.8,0,1.4,0.3,1.9,0.8
		c0.5,0.5,0.8,1.1,0.8,1.9s-0.3,1.5-0.8,2C210.8,60,210.2,60.2,209.4,60.2z M225.2,60.3c-1.5,0-3-0.2-4.3-0.7
		c-1.3-0.5-2.4-1.2-3.4-2.1c-1-0.9-1.7-2-2.2-3.2c-0.5-1.2-0.8-2.6-0.8-4.1s0.3-2.8,0.8-4.1c0.5-1.2,1.3-2.3,2.3-3.2
		c1-0.9,2.1-1.6,3.4-2.1c1.3-0.5,2.7-0.8,4.3-0.8c1.7,0,3.3,0.3,4.7,0.9c1.4,0.6,2.6,1.4,3.5,2.5l-2.9,2.7c-0.7-0.7-1.5-1.3-2.3-1.7
		c-0.8-0.4-1.8-0.6-2.7-0.6c-1,0-1.8,0.1-2.6,0.4c-0.8,0.3-1.5,0.7-2,1.3c-0.6,0.6-1,1.2-1.3,2c-0.3,0.8-0.4,1.6-0.4,2.5
		c0,0.9,0.2,1.8,0.4,2.5c0.3,0.8,0.8,1.4,1.3,2c0.6,0.6,1.3,1,2,1.3c0.8,0.3,1.6,0.4,2.6,0.4c0.9,0,1.8-0.1,2.6-0.4
		c0.9-0.3,1.7-0.8,2.5-1.5l2.6,3.3c-1.1,0.8-2.3,1.4-3.7,1.8C228,60.1,226.6,60.3,225.2,60.3z M228.9,57.3v-7.4h4.1v8L228.9,57.3z
		 M244.2,60.2c-1.3,0-2.4-0.2-3.4-0.7c-1-0.5-1.7-1.2-2.3-2.2c-0.5-1-0.8-2.3-0.8-3.8v-8.5h4.4v7.9c0,1.3,0.3,2.2,0.8,2.8
		c0.5,0.6,1.3,0.9,2.3,0.9c0.7,0,1.3-0.1,1.8-0.4c0.5-0.3,0.9-0.7,1.2-1.3c0.3-0.6,0.4-1.4,0.4-2.3v-7.4h4.4V60h-4.1v-4.1l0.8,1.2
		c-0.5,1-1.3,1.8-2.2,2.4C246.4,60,245.4,60.2,244.2,60.2z M257.9,60V44.9h4.2v4.3l-0.6-1.2c0.4-1.1,1.2-1.9,2.2-2.4
		c1-0.6,2.2-0.8,3.6-0.8v4c-0.2,0-0.4,0-0.5,0c-0.1,0-0.3,0-0.5,0c-1.2,0-2.2,0.3-2.9,1c-0.7,0.7-1.1,1.7-1.1,3.2V60H257.9z
		 M277.2,60.2c-1.3,0-2.4-0.2-3.4-0.7c-1-0.5-1.7-1.2-2.3-2.2c-0.5-1-0.8-2.3-0.8-3.8v-8.5h4.4v7.9c0,1.3,0.3,2.2,0.8,2.8
		c0.5,0.6,1.3,0.9,2.3,0.9c0.7,0,1.3-0.1,1.8-0.4c0.5-0.3,0.9-0.7,1.2-1.3c0.3-0.6,0.4-1.4,0.4-2.3v-7.4h4.4V60h-4.1v-4.1l0.8,1.2
		c-0.5,1-1.3,1.8-2.2,2.4C279.4,60,278.3,60.2,277.2,60.2z"/>
</g>
</svg>
