<svg xmlns="http://www.w3.org/2000/svg" viewBox="0 0 378.34 7.27"><defs><style>.cls-1{isolation:isolate;}.cls-2{opacity:0.4;}.cls-3{mix-blend-mode:multiply;}.cls-4{fill:#fba530;}</style></defs><g class="cls-1"><g id="Layer_2" data-name="Layer 2"><g id="Layer_1-2" data-name="Layer 1"><g class="cls-2"><g class="cls-3"><path class="cls-4" d="M203,7.27h-5.07a.52.52,0,0,1-.53-.52V2.68a.52.52,0,0,1,.53-.52h3.36a.52.52,0,0,1,.52.52V5.25a.52.52,0,0,1-.52.52h-1.83a.52.52,0,0,1-.52-.52V4.62a.52.52,0,0,1,.52-.53.53.53,0,0,1,.53.53v.1h.77V3.21h-2.3v3h4V1.05H197v5.7a.52.52,0,0,1-.53.52h-6.54a.52.52,0,0,1-.52-.52V.53a.52.52,0,0,1,.52-.53H195a.53.53,0,0,1,.53.53V4.59a.53.53,0,0,1-.53.53H191.6a.53.53,0,0,1-.53-.53V2a.53.53,0,0,1,.53-.53h1.82A.53.53,0,0,1,194,2v.62a.53.53,0,0,1-1.06,0v-.1h-.76V4.06h2.3v-3h-4V6.22h5.49V.53a.52.52,0,0,1,.52-.53H203a.53.53,0,0,1,.53.53V6.75A.52.52,0,0,1,203,7.27Z"/><path class="cls-4" d="M217.47,7.27H212.4a.52.52,0,0,1-.52-.52V2.68a.52.52,0,0,1,.52-.52h3.35a.52.52,0,0,1,.53.52V5.25a.52.52,0,0,1-.53.52h-1.82a.52.52,0,0,1-.52-.52V4.62a.52.52,0,0,1,.52-.53.53.53,0,0,1,.53.53v.1h.77V3.21h-2.3v3h4V1.05h-5.48v5.7a.52.52,0,0,1-.53.52H204.4a.52.52,0,0,1-.53-.52V.53A.53.53,0,0,1,204.4,0h5.06a.53.53,0,0,1,.53.53V4.59a.53.53,0,0,1-.53.53h-3.35a.53.53,0,0,1-.53-.53V2a.53.53,0,0,1,.53-.53h1.82a.53.53,0,0,1,.53.53v.62a.53.53,0,0,1-.53.53.52.52,0,0,1-.52-.53v-.1h-.77V4.06h2.3v-3h-4V6.22h5.49V.53a.52.52,0,0,1,.52-.53h6.54a.53.53,0,0,1,.53.53V6.75A.52.52,0,0,1,217.47,7.27Z"/><path class="cls-4" d="M232,7.27h-5.07a.52.52,0,0,1-.53-.52V2.68a.52.52,0,0,1,.53-.52h3.36a.52.52,0,0,1,.52.52V5.25a.52.52,0,0,1-.52.52h-1.83a.52.52,0,0,1-.52-.52V4.62a.52.52,0,0,1,.52-.53.53.53,0,0,1,.53.53v.1h.77V3.21h-2.3v3h4V1.05H226v5.7a.52.52,0,0,1-.53.52h-6.53a.52.52,0,0,1-.53-.52V.53a.53.53,0,0,1,.53-.53H224a.53.53,0,0,1,.53.53V4.59a.53.53,0,0,1-.53.53h-3.35a.53.53,0,0,1-.53-.53V2a.53.53,0,0,1,.53-.53h1.82A.53.53,0,0,1,223,2v.62a.53.53,0,1,1-1.06,0v-.1h-.76V4.06h2.3v-3h-4V6.22h5.49V.53a.52.52,0,0,1,.52-.53H232a.53.53,0,0,1,.53.53V6.75A.52.52,0,0,1,232,7.27Z"/><path class="cls-4" d="M246.49,7.27h-5.07a.52.52,0,0,1-.52-.52V2.68a.52.52,0,0,1,.52-.52h3.36a.52.52,0,0,1,.52.52V5.25a.52.52,0,0,1-.52.52H243a.52.52,0,0,1-.52-.52V4.62a.52.52,0,0,1,.52-.53.53.53,0,0,1,.53.53v.1h.77V3.21H242v3h4V1.05h-5.48v5.7a.52.52,0,0,1-.53.52h-6.53a.52.52,0,0,1-.53-.52V.53a.53.53,0,0,1,.53-.53h5.06a.53.53,0,0,1,.53.53V4.59a.53.53,0,0,1-.53.53h-3.35a.53.53,0,0,1-.53-.53V2a.53.53,0,0,1,.53-.53H237a.53.53,0,0,1,.53.53v.62a.53.53,0,0,1-.53.53.52.52,0,0,1-.52-.53v-.1h-.77V4.06H238v-3h-4V6.22h5.49V.53A.52.52,0,0,1,240,0h6.54a.53.53,0,0,1,.53.53V6.75A.52.52,0,0,1,246.49,7.27Z"/><path class="cls-4" d="M261.16,7.27H256.1a.52.52,0,0,1-.53-.52V2.68a.52.52,0,0,1,.53-.52h3.35a.52.52,0,0,1,.53.52V5.25a.52.52,0,0,1-.53.52h-1.82a.52.52,0,0,1-.53-.52V4.62a.53.53,0,0,1,.53-.53.52.52,0,0,1,.52.53v.1h.77V3.21h-2.3v3h4V1.05h-5.49v5.7a.52.52,0,0,1-.52.52h-6.54a.52.52,0,0,1-.53-.52V.53a.53.53,0,0,1,.53-.53h5.07a.52.52,0,0,1,.52.53V4.59a.52.52,0,0,1-.52.53H249.8a.52.52,0,0,1-.52-.53V2a.52.52,0,0,1,.52-.53h1.83a.52.52,0,0,1,.52.53v.62a.52.52,0,0,1-.52.53.53.53,0,0,1-.53-.53v-.1h-.77V4.06h2.3v-3h-4V6.22h5.48V.53a.53.53,0,0,1,.53-.53h6.53a.53.53,0,0,1,.53.53V6.75A.52.52,0,0,1,261.16,7.27Z"/><path class="cls-4" d="M275.68,7.27h-5.07a.52.52,0,0,1-.53-.52V2.68a.52.52,0,0,1,.53-.52H274a.52.52,0,0,1,.53.52V5.25a.52.52,0,0,1-.53.52h-1.82a.52.52,0,0,1-.53-.52V4.62a.53.53,0,1,1,1.06,0v.1h.76V3.21h-2.3v3h4V1.05h-5.48v5.7a.52.52,0,0,1-.53.52H262.6a.52.52,0,0,1-.53-.52V.53A.53.53,0,0,1,262.6,0h5.07a.53.53,0,0,1,.53.53V4.59a.53.53,0,0,1-.53.53h-3.36a.52.52,0,0,1-.52-.53V2a.52.52,0,0,1,.52-.53h1.83a.52.52,0,0,1,.52.53v.62a.52.52,0,0,1-.52.53.53.53,0,0,1-.53-.53v-.1h-.77V4.06h2.3v-3h-4V6.22h5.48V.53a.53.53,0,0,1,.53-.53h6.54a.52.52,0,0,1,.52.53V6.75A.52.52,0,0,1,275.68,7.27Z"/><path class="cls-4" d="M290.29,7.27h-5.07a.52.52,0,0,1-.53-.52V2.68a.52.52,0,0,1,.53-.52h3.35a.52.52,0,0,1,.53.52V5.25a.52.52,0,0,1-.53.52h-1.82a.52.52,0,0,1-.53-.52V4.62a.53.53,0,0,1,1.06,0v.1h.77V3.21h-2.31v3h4V1.05h-5.49v5.7a.52.52,0,0,1-.52.52h-6.54a.52.52,0,0,1-.52-.52V.53a.52.52,0,0,1,.52-.53h5.07a.52.52,0,0,1,.52.53V4.59a.52.52,0,0,1-.52.53h-3.36a.52.52,0,0,1-.52-.53V2a.52.52,0,0,1,.52-.53h1.83a.52.52,0,0,1,.52.53v.62a.52.52,0,0,1-.52.53.53.53,0,0,1-.53-.53v-.1h-.77V4.06h2.3v-3h-4V6.22h5.48V.53a.53.53,0,0,1,.53-.53h6.54a.52.52,0,0,1,.52.53V6.75A.52.52,0,0,1,290.29,7.27Z"/></g></g><g class="cls-2"><g class="cls-3"><path class="cls-4" d="M305.1,7.27H300a.52.52,0,0,1-.53-.52V2.68a.52.52,0,0,1,.53-.52h3.35a.52.52,0,0,1,.53.52V5.25a.52.52,0,0,1-.53.52h-1.82a.52.52,0,0,1-.52-.52V4.62a.52.52,0,0,1,.52-.53.53.53,0,0,1,.53.53v.1h.77V3.21h-2.3v3h4V1.05h-5.48v5.7a.52.52,0,0,1-.53.52H292a.52.52,0,0,1-.53-.52V.53A.53.53,0,0,1,292,0h5.06a.53.53,0,0,1,.53.53V4.59a.53.53,0,0,1-.53.53h-3.35a.53.53,0,0,1-.53-.53V2a.53.53,0,0,1,.53-.53h1.82a.53.53,0,0,1,.53.53v.62a.53.53,0,0,1-1.06,0v-.1h-.77V4.06h2.31v-3h-4V6.22H298V.53a.52.52,0,0,1,.52-.53h6.54a.53.53,0,0,1,.53.53V6.75A.52.52,0,0,1,305.1,7.27Z"/><path class="cls-4" d="M319.61,7.27h-5.07a.52.52,0,0,1-.53-.52V2.68a.52.52,0,0,1,.53-.52h3.36a.52.52,0,0,1,.52.52V5.25a.52.52,0,0,1-.52.52h-1.83a.52.52,0,0,1-.52-.52V4.62a.52.52,0,0,1,.52-.53.53.53,0,0,1,.53.53v.1h.77V3.21h-2.3v3h4V1.05H313.6v5.7a.52.52,0,0,1-.53.52h-6.53a.52.52,0,0,1-.53-.52V.53a.53.53,0,0,1,.53-.53h5.06a.53.53,0,0,1,.53.53V4.59a.53.53,0,0,1-.53.53h-3.35a.53.53,0,0,1-.53-.53V2a.53.53,0,0,1,.53-.53h1.82a.53.53,0,0,1,.53.53v.62a.53.53,0,1,1-1.06,0v-.1h-.76V4.06h2.3v-3h-4V6.22h5.49V.53a.52.52,0,0,1,.52-.53h6.54a.53.53,0,0,1,.53.53V6.75A.52.52,0,0,1,319.61,7.27Z"/><path class="cls-4" d="M334.12,7.27h-5.07a.52.52,0,0,1-.53-.52V2.68a.52.52,0,0,1,.53-.52h3.36a.52.52,0,0,1,.52.52V5.25a.52.52,0,0,1-.52.52h-1.83a.52.52,0,0,1-.52-.52V4.62a.52.52,0,0,1,.52-.53.53.53,0,0,1,.53.53v.1h.77V3.21h-2.3v3h4V1.05h-5.48v5.7a.52.52,0,0,1-.53.52h-6.53a.52.52,0,0,1-.53-.52V.53a.53.53,0,0,1,.53-.53h5.06a.53.53,0,0,1,.53.53V4.59a.53.53,0,0,1-.53.53h-3.35a.53.53,0,0,1-.53-.53V2a.53.53,0,0,1,.53-.53h1.82a.53.53,0,0,1,.53.53v.62a.53.53,0,1,1-1.06,0v-.1h-.76V4.06h2.3v-3h-4V6.22h5.49V.53a.52.52,0,0,1,.52-.53h6.54a.53.53,0,0,1,.53.53V6.75A.52.52,0,0,1,334.12,7.27Z"/><path class="cls-4" d="M348.63,7.27h-5.07a.52.52,0,0,1-.52-.52V2.68a.52.52,0,0,1,.52-.52h3.36a.52.52,0,0,1,.52.52V5.25a.52.52,0,0,1-.52.52h-1.83a.52.52,0,0,1-.52-.52V4.62a.52.52,0,0,1,.52-.53.53.53,0,0,1,.53.53v.1h.77V3.21h-2.3v3h4V1.05h-5.48v5.7a.52.52,0,0,1-.53.52h-6.53a.52.52,0,0,1-.53-.52V.53a.53.53,0,0,1,.53-.53h5.06a.53.53,0,0,1,.53.53V4.59a.53.53,0,0,1-.53.53h-3.35a.53.53,0,0,1-.53-.53V2a.53.53,0,0,1,.53-.53h1.82a.53.53,0,0,1,.53.53v.62a.53.53,0,1,1-1.06,0v-.1h-.76V4.06h2.3v-3h-4V6.22h5.49V.53a.52.52,0,0,1,.52-.53h6.54a.53.53,0,0,1,.53.53V6.75A.52.52,0,0,1,348.63,7.27Z"/><path class="cls-4" d="M363.3,7.27h-5.06a.52.52,0,0,1-.53-.52V2.68a.52.52,0,0,1,.53-.52h3.35a.52.52,0,0,1,.53.52V5.25a.52.52,0,0,1-.53.52h-1.82a.52.52,0,0,1-.53-.52V4.62a.53.53,0,1,1,1.06,0v.1h.76V3.21h-2.3v3h4V1.05h-5.49v5.7a.52.52,0,0,1-.52.52h-6.54a.52.52,0,0,1-.53-.52V.53a.53.53,0,0,1,.53-.53h5.07a.53.53,0,0,1,.53.53V4.59a.53.53,0,0,1-.53.53H352a.53.53,0,0,1-.53-.53V2A.53.53,0,0,1,352,1.5h1.82a.52.52,0,0,1,.52.53v.62a.52.52,0,0,1-.52.53.53.53,0,0,1-.53-.53v-.1h-.77V4.06h2.3v-3h-4V6.22h5.48V.53a.53.53,0,0,1,.53-.53h6.53a.53.53,0,0,1,.53.53V6.75A.52.52,0,0,1,363.3,7.27Z"/><path class="cls-4" d="M377.81,7.27h-5.06a.52.52,0,0,1-.53-.52V2.68a.52.52,0,0,1,.53-.52h3.35a.52.52,0,0,1,.53.52V5.25a.52.52,0,0,1-.53.52h-1.82a.52.52,0,0,1-.53-.52V4.62a.53.53,0,0,1,.53-.53.52.52,0,0,1,.52.53v.1h.77V3.21h-2.3v3h4V1.05H371.8v5.7a.52.52,0,0,1-.52.52h-6.54a.52.52,0,0,1-.53-.52V.53a.53.53,0,0,1,.53-.53h5.07a.52.52,0,0,1,.52.53V4.59a.52.52,0,0,1-.52.53h-3.35a.53.53,0,0,1-.53-.53V2a.53.53,0,0,1,.53-.53h1.82a.52.52,0,0,1,.52.53v.62a.52.52,0,0,1-.52.53.53.53,0,0,1-.53-.53v-.1H367V4.06h2.3v-3h-4V6.22h5.48V.53a.53.53,0,0,1,.53-.53h6.53a.53.53,0,0,1,.53.53V6.75A.52.52,0,0,1,377.81,7.27Z"/></g></g><g class="cls-2"><g class="cls-3"><path class="cls-4" d="M13.6,7.27H8.53A.52.52,0,0,1,8,6.75V2.68a.52.52,0,0,1,.53-.52h3.36a.52.52,0,0,1,.52.52V5.25a.52.52,0,0,1-.52.52H10.07a.52.52,0,0,1-.53-.52V4.62a.53.53,0,1,1,1.05,0v.1h.77V3.21H9.06v3h4V1.05H7.59v5.7a.52.52,0,0,1-.53.52H.53A.52.52,0,0,1,0,6.75V.53A.53.53,0,0,1,.53,0H5.59a.53.53,0,0,1,.53.53V4.59a.53.53,0,0,1-.53.53H2.24a.53.53,0,0,1-.53-.53V2a.53.53,0,0,1,.53-.53H4.06A.53.53,0,0,1,4.59,2v.62a.53.53,0,0,1-.53.53.52.52,0,0,1-.52-.53v-.1H2.77V4.06h2.3v-3h-4V6.22H6.54V.53A.52.52,0,0,1,7.06,0H13.6a.53.53,0,0,1,.53.53V6.75A.52.52,0,0,1,13.6,7.27Z"/><path class="cls-4" d="M28.11,7.27H23a.52.52,0,0,1-.52-.52V2.68A.52.52,0,0,1,23,2.16H26.4a.52.52,0,0,1,.52.52V5.25a.52.52,0,0,1-.52.52H24.58a.52.52,0,0,1-.53-.52V4.62a.53.53,0,1,1,1.05,0v.1h.77V3.21h-2.3v3h4V1.05H22.1v5.7a.52.52,0,0,1-.52.52H15a.52.52,0,0,1-.53-.52V.53A.53.53,0,0,1,15,0h5.07a.52.52,0,0,1,.52.53V4.59a.52.52,0,0,1-.52.53H16.75a.53.53,0,0,1-.53-.53V2a.53.53,0,0,1,.53-.53h1.82A.53.53,0,0,1,19.1,2v.62a.53.53,0,0,1-.53.53.52.52,0,0,1-.52-.53v-.1h-.77V4.06h2.3v-3h-4V6.22h5.49V.53A.53.53,0,0,1,21.58,0h6.53a.53.53,0,0,1,.53.53V6.75A.52.52,0,0,1,28.11,7.27Z"/><path class="cls-4" d="M42.62,7.27H37.55A.52.52,0,0,1,37,6.75V2.68a.52.52,0,0,1,.52-.52h3.36a.52.52,0,0,1,.52.52V5.25a.52.52,0,0,1-.52.52H39.09a.52.52,0,0,1-.53-.52V4.62a.53.53,0,1,1,1,0v.1h.77V3.21h-2.3v3h4V1.05H36.61v5.7a.52.52,0,0,1-.52.52H29.55A.52.52,0,0,1,29,6.75V.53A.53.53,0,0,1,29.55,0h5.06a.53.53,0,0,1,.53.53V4.59a.53.53,0,0,1-.53.53H31.26a.53.53,0,0,1-.53-.53V2a.53.53,0,0,1,.53-.53h1.82a.53.53,0,0,1,.53.53v.62a.53.53,0,0,1-.53.53.52.52,0,0,1-.52-.53v-.1h-.77V4.06h2.3v-3h-4V6.22h5.48V.53A.53.53,0,0,1,36.09,0h6.53a.53.53,0,0,1,.53.53V6.75A.52.52,0,0,1,42.62,7.27Z"/><path class="cls-4" d="M57.13,7.27H52.06a.52.52,0,0,1-.52-.52V2.68a.52.52,0,0,1,.52-.52h3.36a.52.52,0,0,1,.53.52V5.25a.52.52,0,0,1-.53.52H53.59a.52.52,0,0,1-.52-.52V4.62a.53.53,0,1,1,1,0v.1h.77V3.21h-2.3v3h4V1.05H51.12v5.7a.52.52,0,0,1-.53.52H44.06a.52.52,0,0,1-.53-.52V.53A.53.53,0,0,1,44.06,0h5.07a.52.52,0,0,1,.52.53V4.59a.52.52,0,0,1-.52.53H45.77a.53.53,0,0,1-.53-.53V2a.53.53,0,0,1,.53-.53h1.82a.53.53,0,0,1,.53.53v.62a.53.53,0,0,1-.53.53.52.52,0,0,1-.52-.53v-.1H46.3V4.06h2.3v-3h-4V6.22h5.48V.53A.52.52,0,0,1,50.59,0h6.54a.53.53,0,0,1,.53.53V6.75A.52.52,0,0,1,57.13,7.27Z"/><path class="cls-4" d="M71.81,7.27H66.74a.52.52,0,0,1-.53-.52V2.68a.52.52,0,0,1,.53-.52h3.35a.52.52,0,0,1,.53.52V5.25a.52.52,0,0,1-.53.52H68.27a.52.52,0,0,1-.53-.52V4.62a.53.53,0,0,1,1.06,0v.1h.77V3.21H67.26v3h4V1.05H65.8v5.7a.52.52,0,0,1-.53.52H58.73a.52.52,0,0,1-.52-.52V.53A.52.52,0,0,1,58.73,0H63.8a.53.53,0,0,1,.53.53V4.59a.53.53,0,0,1-.53.53H60.45a.53.53,0,0,1-.53-.53V2a.53.53,0,0,1,.53-.53h1.82A.53.53,0,0,1,62.8,2v.62a.53.53,0,0,1-1.06,0v-.1H61V4.06h2.3v-3h-4V6.22h5.48V.53A.53.53,0,0,1,65.27,0h6.54a.52.52,0,0,1,.52.53V6.75A.52.52,0,0,1,71.81,7.27Z"/><path class="cls-4" d="M86.32,7.27H81.25a.52.52,0,0,1-.53-.52V2.68a.52.52,0,0,1,.53-.52H84.6a.52.52,0,0,1,.53.52V5.25a.52.52,0,0,1-.53.52H82.78a.52.52,0,0,1-.53-.52V4.62a.53.53,0,0,1,1.06,0v.1h.77V3.21h-2.3v3h4V1.05H80.31v5.7a.52.52,0,0,1-.53.52H73.24a.52.52,0,0,1-.52-.52V.53A.52.52,0,0,1,73.24,0h5.07a.53.53,0,0,1,.53.53V4.59a.53.53,0,0,1-.53.53H75a.53.53,0,0,1-.53-.53V2A.53.53,0,0,1,75,1.5h1.82a.53.53,0,0,1,.53.53v.62a.53.53,0,1,1-1.06,0v-.1h-.77V4.06h2.3v-3h-4V6.22h5.48V.53A.53.53,0,0,1,79.78,0h6.54a.52.52,0,0,1,.52.53V6.75A.52.52,0,0,1,86.32,7.27Z"/><path class="cls-4" d="M100.93,7.27H95.86a.52.52,0,0,1-.53-.52V2.68a.52.52,0,0,1,.53-.52h3.35a.52.52,0,0,1,.53.52V5.25a.52.52,0,0,1-.53.52H97.39a.52.52,0,0,1-.53-.52V4.62a.53.53,0,0,1,1.06,0v.1h.77V3.21h-2.3v3h4V1.05H94.92v5.7a.52.52,0,0,1-.53.52H87.85a.52.52,0,0,1-.52-.52V.53A.52.52,0,0,1,87.85,0h5.07a.53.53,0,0,1,.53.53V4.59a.53.53,0,0,1-.53.53H89.57A.53.53,0,0,1,89,4.59V2a.53.53,0,0,1,.53-.53h1.82a.53.53,0,0,1,.53.53v.62a.53.53,0,1,1-1.06,0v-.1h-.77V4.06h2.3v-3h-4V6.22h5.48V.53A.53.53,0,0,1,94.39,0h6.54a.52.52,0,0,1,.52.53V6.75A.52.52,0,0,1,100.93,7.27Z"/></g></g><g class="cls-2"><g class="cls-3"><path class="cls-4" d="M115.74,7.27h-5.07a.52.52,0,0,1-.52-.52V2.68a.52.52,0,0,1,.52-.52H114a.52.52,0,0,1,.52.52V5.25a.52.52,0,0,1-.52.52H112.2a.52.52,0,0,1-.52-.52V4.62a.53.53,0,1,1,1,0v.1h.77V3.21h-2.3v3h4V1.05h-5.48v5.7a.52.52,0,0,1-.53.52h-6.53a.52.52,0,0,1-.53-.52V.53a.53.53,0,0,1,.53-.53h5.06a.53.53,0,0,1,.53.53V4.59a.53.53,0,0,1-.53.53h-3.35a.53.53,0,0,1-.53-.53V2a.53.53,0,0,1,.53-.53h1.82a.53.53,0,0,1,.53.53v.62a.53.53,0,0,1-.53.53.52.52,0,0,1-.52-.53v-.1h-.77V4.06h2.3v-3h-4V6.22h5.49V.53A.52.52,0,0,1,109.2,0h6.54a.53.53,0,0,1,.53.53V6.75A.52.52,0,0,1,115.74,7.27Z"/><path class="cls-4" d="M130.25,7.27h-5.07a.52.52,0,0,1-.52-.52V2.68a.52.52,0,0,1,.52-.52h3.36a.52.52,0,0,1,.52.52V5.25a.52.52,0,0,1-.52.52h-1.83a.52.52,0,0,1-.52-.52V4.62a.53.53,0,1,1,1,0v.1H128V3.21h-2.3v3h4V1.05h-5.48v5.7a.52.52,0,0,1-.53.52h-6.53a.52.52,0,0,1-.53-.52V.53a.53.53,0,0,1,.53-.53h5.07a.52.52,0,0,1,.52.53V4.59a.52.52,0,0,1-.52.53h-3.36a.53.53,0,0,1-.53-.53V2a.53.53,0,0,1,.53-.53h1.82a.53.53,0,0,1,.53.53v.62a.53.53,0,0,1-.53.53.52.52,0,0,1-.52-.53v-.1h-.77V4.06h2.3v-3h-4V6.22h5.49V.53a.52.52,0,0,1,.52-.53h6.54a.53.53,0,0,1,.53.53V6.75A.52.52,0,0,1,130.25,7.27Z"/><path class="cls-4" d="M144.76,7.27h-5.07a.52.52,0,0,1-.52-.52V2.68a.52.52,0,0,1,.52-.52h3.36a.52.52,0,0,1,.52.52V5.25a.52.52,0,0,1-.52.52h-1.82a.52.52,0,0,1-.53-.52V4.62a.53.53,0,1,1,1.05,0v.1h.77V3.21h-2.3v3h4V1.05h-5.48v5.7a.52.52,0,0,1-.53.52h-6.53a.52.52,0,0,1-.53-.52V.53a.53.53,0,0,1,.53-.53h5.06a.53.53,0,0,1,.53.53V4.59a.53.53,0,0,1-.53.53H133.4a.52.52,0,0,1-.52-.53V2a.52.52,0,0,1,.52-.53h1.82a.53.53,0,0,1,.53.53v.62a.53.53,0,0,1-.53.53.52.52,0,0,1-.52-.53v-.1h-.77V4.06h2.3v-3h-4V6.22h5.49V.53a.52.52,0,0,1,.52-.53h6.54a.53.53,0,0,1,.53.53V6.75A.52.52,0,0,1,144.76,7.27Z"/><path class="cls-4" d="M159.27,7.27H154.2a.52.52,0,0,1-.52-.52V2.68a.52.52,0,0,1,.52-.52h3.36a.52.52,0,0,1,.52.52V5.25a.52.52,0,0,1-.52.52h-1.82a.52.52,0,0,1-.53-.52V4.62a.53.53,0,1,1,1,0v.1H157V3.21h-2.3v3h4V1.05h-5.49v5.7a.52.52,0,0,1-.53.52H146.2a.52.52,0,0,1-.53-.52V.53A.53.53,0,0,1,146.2,0h5.07a.52.52,0,0,1,.52.53V4.59a.52.52,0,0,1-.52.53h-3.36a.53.53,0,0,1-.53-.53V2a.53.53,0,0,1,.53-.53h1.82a.53.53,0,0,1,.53.53v.62a.53.53,0,0,1-.53.53.52.52,0,0,1-.52-.53v-.1h-.77V4.06h2.3v-3h-4V6.22h5.49V.53a.52.52,0,0,1,.52-.53h6.54a.53.53,0,0,1,.53.53V6.75A.52.52,0,0,1,159.27,7.27Z"/><path class="cls-4" d="M174,7.27h-5.07a.52.52,0,0,1-.53-.52V2.68a.52.52,0,0,1,.53-.52h3.35a.52.52,0,0,1,.53.52V5.25a.52.52,0,0,1-.53.52h-1.82a.52.52,0,0,1-.53-.52V4.62a.53.53,0,0,1,1.06,0v.1h.76V3.21h-2.29v3h4V1.05h-5.49v5.7a.52.52,0,0,1-.52.52h-6.54a.52.52,0,0,1-.52-.52V.53a.52.52,0,0,1,.52-.53h5.07a.53.53,0,0,1,.53.53V4.59a.53.53,0,0,1-.53.53h-3.35a.53.53,0,0,1-.53-.53V2a.53.53,0,0,1,.53-.53h1.82a.52.52,0,0,1,.52.53v.62a.52.52,0,0,1-.52.53.53.53,0,0,1-.53-.53v-.1h-.77V4.06h2.3v-3h-4V6.22h5.48V.53a.53.53,0,0,1,.53-.53H174a.52.52,0,0,1,.52.53V6.75A.52.52,0,0,1,174,7.27Z"/><path class="cls-4" d="M188.46,7.27h-5.07a.52.52,0,0,1-.53-.52V2.68a.52.52,0,0,1,.53-.52h3.35a.52.52,0,0,1,.53.52V5.25a.52.52,0,0,1-.53.52h-1.82a.52.52,0,0,1-.53-.52V4.62a.53.53,0,0,1,1.06,0v.1h.77V3.21h-2.3v3h4V1.05h-5.48v5.7a.52.52,0,0,1-.53.52h-6.54a.52.52,0,0,1-.52-.52V.53a.52.52,0,0,1,.52-.53h5.07a.53.53,0,0,1,.53.53V4.59a.53.53,0,0,1-.53.53H177.1a.53.53,0,0,1-.53-.53V2a.53.53,0,0,1,.53-.53h1.82a.52.52,0,0,1,.52.53v.62a.52.52,0,0,1-.52.53.53.53,0,0,1-.53-.53v-.1h-.77V4.06h2.3v-3h-4V6.22h5.48V.53a.53.53,0,0,1,.53-.53h6.54a.52.52,0,0,1,.52.53V6.75A.52.52,0,0,1,188.46,7.27Z"/></g></g></g></g></g></svg>