<svg xmlns="http://www.w3.org/2000/svg" viewBox="0 0 245.97 297.91"><defs><style>.cls-1{fill:#f7931e;}.cls-2{fill:#fbd83b;}.cls-3{fill:#bf6306;}.cls-4{fill:#ff0;}.cls-5{fill:#d77006;}.cls-6{fill:#310339;}</style></defs><g id="Layer_2" data-name="Layer 2"><g id="Layer_1-2" data-name="Layer 1"><path class="cls-1" d="M228.08,196.73c-.19,9.92-10.68,30.42-33.25,52a158.67,158.67,0,0,1-29.1,22.35,89.15,89.15,0,0,1-10.51,5.29c-10,4.18-16.59,4.15-18.85,1.82-2.7-2.8-1.41-10.7,3.3-20.15,5.79-11.61,15.94-24.67,28.59-36.75a169,169,0,0,1,18.62-15.52l0,0c3.51-2.51,7-4.78,10.43-6.78,10.72-6.24,19-8.69,24.11-8.69,2.5,0,4.27.57,5.24,1.58S228.12,194.5,228.08,196.73Z"/><path class="cls-2" d="M198.79,253c21.68-20.73,36.42-44.12,36.69-58.22.07-3.58-.82-6.35-2.65-8.23s-4.88-3-8.55-3c-13.71,0-37.74,13.31-59.59,34.2C143,238.48,128.27,261.88,128,276c-.07,3.58.82,6.35,2.65,8.24C139.89,293.76,171.1,279.45,198.79,253Zm-60.9,4.19c5.89-11.81,16.18-25.06,29-37.3a161.27,161.27,0,0,1,29.48-22.63c18.11-10.53,28.44-10.23,31.78-6.77,1.34,1.38,2,3.51,1.94,6.32-.21,10.66-10.76,31.31-33.87,53.4a160.88,160.88,0,0,1-29.47,22.63c-11.3,6.57-19.57,8.93-25,8.93-3.27,0-5.52-.85-6.77-2.15C131.54,276.07,132.64,267.68,137.89,257.16Z"/><path class="cls-3" d="M200.63,254.89c-22.79,21.8-46.68,34.93-61.36,34.93a20.22,20.22,0,0,1-3.47-.29l2.67,2.76c9.24,9.55,40.45-4.75,68.15-31.23,21.67-20.73,36.42-44.13,36.69-58.22.07-3.58-.82-6.35-2.65-8.24L238,191.84a18.83,18.83,0,0,1,.16,3C237.86,209.56,222.78,233.71,200.63,254.89Z"/><path class="cls-4" d="M217.07,194.32s9.82-3.53,1.72,16.05c-5.41,13.08-17.58,25.26-17.32,24.88S217.07,194.32,217.07,194.32Z"/><path class="cls-4" d="M208.85,198l-17,46.42s-9.35,11.58-19,16.68l22.78-55.08S201.66,199,208.85,198Z"/><path class="cls-5" d="M155.22,276.38c-10,4.18-16.59,4.15-18.85,1.82-2.7-2.8-1.41-10.7,3.3-20.15,5.79-11.61,15.94-24.67,28.59-36.75a169,169,0,0,1,18.62-15.52c-1.5,1.51-43.62,44.07-43.82,62.42C143,274.83,148.31,276.72,155.22,276.38Z"/><path class="cls-1" d="M20.27,59.49c.21,11.23,12.09,34.45,37.65,58.9a180,180,0,0,0,33,25.31,99.2,99.2,0,0,0,11.91,6c11.34,4.73,18.78,4.7,21.34,2.06,3.06-3.17,1.59-12.12-3.74-22.82-6.56-13.16-18-27.94-32.37-41.63a190.87,190.87,0,0,0-21.1-17.57l0,0c-4-2.84-7.93-5.41-11.81-7.67-12.15-7.08-21.48-9.85-27.31-9.85-2.83,0-4.84.64-5.93,1.79S20.22,57,20.27,59.49Z"/><path class="cls-2" d="M130.61,158.56c2.07-2.14,3.09-5.27,3-9.32-.31-16-17-42.47-41.56-65.94-24.75-23.67-52-38.74-67.5-38.74-4.15,0-7.47,1.08-9.68,3.36s-3.08,5.28-3,9.32c.31,16,17,42.47,41.55,65.94C84.8,153.18,120.14,169.38,130.61,158.56Zm-4.86-5.23c-1.43,1.47-4,2.44-7.68,2.44-6.16,0-15.53-2.67-28.33-10.12A182.15,182.15,0,0,1,56.37,120C30.19,95,18.24,71.61,18,59.54c-.06-3.18.67-5.59,2.19-7.16,3.79-3.92,15.49-4.26,36,7.68A181.86,181.86,0,0,1,89.58,85.68c14.5,13.87,26.16,28.87,32.83,42.25C128.36,139.85,129.6,149.34,125.75,153.33Z"/><path class="cls-3" d="M51.35,125.36c25.82,24.69,52.87,39.56,69.49,39.56a23.52,23.52,0,0,0,3.94-.33l-3,3.13c-10.47,10.82-45.81-5.38-77.18-35.38C20,108.87,3.32,82.37,3,66.4c-.07-4.05.94-7.18,3-9.32l3-3.13a22.59,22.59,0,0,0-.18,3.35C9.19,74,26.26,101.37,51.35,125.36Z"/><path class="cls-4" d="M32.73,56.76s-11.11-4-1.94,18.18c6.13,14.81,19.9,28.61,19.61,28.17S32.73,56.76,32.73,56.76Z"/><path class="cls-4" d="M42.05,61l19.23,52.57s10.58,13.12,21.53,18.9L57,70.05S50.18,62,42.05,61Z"/><path class="cls-5" d="M102.79,149.7c11.34,4.73,18.78,4.7,21.34,2.06,3.06-3.17,1.59-12.12-3.74-22.82-6.56-13.16-18-27.94-32.37-41.63a190.87,190.87,0,0,0-21.1-17.57c1.7,1.71,49.4,49.91,49.64,70.69C116.64,147.94,110.61,150.08,102.79,149.7Z"/><path class="cls-1" d="M231.21,11.32c-1.27,6.61-10.65,19.12-28.25,31a108.08,108.08,0,0,1-22.05,11.6,60.5,60.5,0,0,1-7.64,2.32c-7.19,1.64-11.58.86-12.82-1-1.48-2.18.29-7.32,4.53-13.1,5.22-7.1,13.52-14.66,23.37-21.29a115.28,115.28,0,0,1,14.26-8.23l0,0c2.64-1.27,5.23-2.39,7.76-3.33,7.89-2.94,13.69-3.63,17.13-3a4.86,4.86,0,0,1,3.32,1.66A4.53,4.53,0,0,1,231.21,11.32Z"/><path class="cls-2" d="M205.12,45.56C222,34.2,234.59,20.25,236.4,10.85A7.52,7.52,0,0,0,235.57,5a7.77,7.77,0,0,0-5.37-3c-9.18-1.59-26.79,4.55-43.82,16S156.91,43.38,155.1,52.78a7.5,7.5,0,0,0,.83,5.81C161,66.05,183.54,60.08,205.12,45.56Zm-41.23-4.23c5.31-7.22,13.73-14.9,23.71-21.61A109.19,109.19,0,0,1,209.93,8c13.33-5,20.21-3.57,22-.86a5.83,5.83,0,0,1,.56,4.45c-1.37,7.11-10.81,19.7-28.82,31.82a109.51,109.51,0,0,1-22.34,11.73c-8.32,3.1-14.12,3.72-17.76,3.09C161.43,57.84,160,57,159.33,56,157.46,53.25,159.17,47.76,163.89,41.33Z"/><path class="cls-3" d="M206.13,47.06C188.37,59,170.87,65,161.05,63.34a13.93,13.93,0,0,1-2.29-.59l1.47,2.15c5.08,7.46,27.61,1.5,49.2-13,16.89-11.36,29.46-25.31,31.27-34.71a7.54,7.54,0,0,0-.82-5.81l-1.47-2.16a14.69,14.69,0,0,1-.24,2C236.27,21,223.4,35.44,206.13,47.06Z"/><path class="cls-4" d="M224.13,8.43s7-1.23-.71,10.94C218.29,27.49,208.75,34.24,209,34S224.13,8.43,224.13,8.43Z"/><path class="cls-4" d="M218.2,10l-16.72,29.1s-7.59,6.67-14.65,9l21.6-34.22S213.28,9.77,218.2,10Z"/><path class="cls-5" d="M173.27,56.19c-7.19,1.64-11.58.86-12.82-1-1.48-2.18.29-7.32,4.53-13.1,5.22-7.1,13.52-14.66,23.37-21.29a115.28,115.28,0,0,1,14.26-8.23c-1.18.84-34.28,24.45-36.53,36.7C165.26,53.74,168.61,55.62,173.27,56.19Z"/><path class="cls-6" d="M162.85,215.83c-22.15,21.19-37.23,45.33-37.51,60.09-.09,4.31,1.06,7.72,3.4,10.14l7.82,8.08c2.47,2.55,6.08,3.77,10.54,3.77,14.68,0,38.56-13.14,61.36-34.93,22.15-21.19,37.22-45.33,37.51-60.09.08-4.31-1.06-7.72-3.4-10.14l-7.83-8.08C224.15,173.73,192.57,187.41,162.85,215.83ZM128,276c.27-14.09,15-37.49,36.69-58.22,21.85-20.89,45.88-34.2,59.59-34.2,3.67,0,6.6.95,8.55,3s2.72,4.65,2.65,8.23c-.27,14.1-15,37.49-36.69,58.22-27.69,26.48-58.9,40.79-68.14,31.24C128.82,282.32,127.93,279.55,128,276ZM240.66,194.6c1.83,1.89,2.72,4.66,2.65,8.24-.27,14.09-15,37.49-36.69,58.22-27.7,26.48-58.91,40.78-68.15,31.23l-2.67-2.76a20.22,20.22,0,0,0,3.47.29c14.68,0,38.57-13.13,61.36-34.93,22.15-21.18,37.23-45.33,37.51-60.09a18.83,18.83,0,0,0-.16-3Z"/><path class="cls-6" d="M166.73,272.81a160.88,160.88,0,0,0,29.47-22.63c23.11-22.09,33.66-42.74,33.87-53.4.06-2.81-.6-4.94-1.94-6.32-3.34-3.46-13.67-3.76-31.78,6.77a161.27,161.27,0,0,0-29.48,22.63c-12.8,12.24-23.09,25.49-29,37.3-5.25,10.52-6.35,18.91-2.94,22.43,1.25,1.3,3.5,2.15,6.77,2.15C147.16,281.74,155.43,279.38,166.73,272.81Zm-30.35,5.39c-2.71-2.8-1.42-10.71,3.29-20.15,5.79-11.61,15.94-24.66,28.58-36.75A159,159,0,0,1,197.35,199c10.72-6.24,19-8.7,24.11-8.7,2.5,0,4.27.58,5.24,1.58s1.42,2.67,1.38,4.9c-.19,9.91-10.68,30.42-33.25,52a159,159,0,0,1-29.1,22.34C149.8,280.35,139.35,281.27,136.38,278.2Z"/><path class="cls-6" d="M12.72,45.83,3.85,55C1.21,57.72-.09,61.58,0,66.46c.33,16.72,17.4,44.07,42.49,68.06C68.3,159.2,95.36,174.08,112,174.08c5,0,9.14-1.37,11.93-4.26l8.87-9.16c2.65-2.74,3.94-6.6,3.85-11.48-.33-16.72-17.4-44.07-42.49-68.06C60.48,48.93,24.71,33.43,12.72,45.83ZM130.61,158.56c-10.47,10.82-45.81-5.38-77.18-35.38-24.54-23.47-41.24-50-41.55-65.94-.08-4,.93-7.18,3-9.32s5.53-3.36,9.68-3.36c15.53,0,42.75,15.07,67.5,38.74,24.55,23.47,41.25,50,41.56,65.94C133.7,153.29,132.68,156.42,130.61,158.56ZM9.05,54a22.59,22.59,0,0,0-.18,3.35C9.19,74,26.26,101.37,51.35,125.36c25.82,24.69,52.87,39.56,69.49,39.56a23.52,23.52,0,0,0,3.94-.33l-3,3.13c-10.47,10.82-45.81-5.38-77.18-35.38C20,108.87,3.32,82.37,3,66.4c-.07-4.05.94-7.18,3-9.32Z"/><path class="cls-6" d="M118.07,155.77c3.71,0,6.25-1,7.68-2.44,3.85-4,2.61-13.48-3.34-25.4-6.67-13.38-18.33-28.38-32.83-42.25A181.86,181.86,0,0,0,56.2,60.06C35.69,48.12,24,48.46,20.2,52.38,18.68,54,18,56.36,18,59.54,18.24,71.61,30.19,95,56.37,120a182.15,182.15,0,0,0,33.37,25.62C102.54,153.1,111.91,155.77,118.07,155.77ZM90.88,143.7a179.57,179.57,0,0,1-32.95-25.31C32.36,94,20.48,70.73,20.27,59.5c-.05-2.53.49-4.44,1.55-5.55s3.11-1.79,5.94-1.79c5.83,0,15.16,2.78,27.31,9.85A180.12,180.12,0,0,1,88,87.32c14.32,13.68,25.82,28.46,32.37,41.62,5.34,10.69,6.8,19.65,3.73,22.82C120.76,155.24,108.92,154.2,90.88,143.7Z"/><path class="cls-6" d="M185.37,16.56c-17.27,11.62-30.14,26-32,35.87a9.3,9.3,0,0,0,1.1,7.18l4.31,6.31c1.35,2,3.63,3.22,6.61,3.74,9.82,1.69,27.32-4.34,45.08-16.29,17.27-11.61,30.15-26,32-35.87a9.24,9.24,0,0,0-1.1-7.17L237.07,4C231.24-4.53,208.53,1,185.37,16.56ZM155.1,52.78c1.81-9.4,14.38-23.36,31.28-34.72S221,.47,230.2,2.06a7.77,7.77,0,0,1,5.37,3,7.52,7.52,0,0,1,.83,5.82c-1.81,9.4-14.38,23.35-31.28,34.71-21.58,14.52-44.11,20.49-49.19,13A7.5,7.5,0,0,1,155.1,52.78Zm84.78-41.44a7.57,7.57,0,0,1,.82,5.82c-1.81,9.4-14.38,23.35-31.27,34.71-21.59,14.53-44.12,20.49-49.2,13l-1.47-2.15a13.93,13.93,0,0,0,2.29.59c9.82,1.7,27.32-4.33,45.08-16.28,17.27-11.62,30.14-26,32-35.87a14.69,14.69,0,0,0,.24-2Z"/><path class="cls-6" d="M181.38,55.13A109.51,109.51,0,0,0,203.72,43.4c18-12.12,27.45-24.71,28.82-31.82A5.83,5.83,0,0,0,232,7.13c-1.84-2.71-8.72-4.1-22,.86A109.19,109.19,0,0,0,187.6,19.72c-10,6.71-18.4,14.39-23.71,21.61-4.72,6.43-6.43,11.92-4.56,14.66.7,1,2.1,1.85,4.29,2.23C167.26,58.85,173.06,58.23,181.38,55.13Zm-20.93.1c-1.49-2.18.29-7.33,4.53-13.1,5.22-7.1,13.52-14.66,23.37-21.28A107.52,107.52,0,0,1,210.4,9.26c7.89-2.94,13.69-3.63,17.14-3a4.85,4.85,0,0,1,3.32,1.66,4.59,4.59,0,0,1,.35,3.43c-1.27,6.61-10.65,19.12-28.25,31a107.52,107.52,0,0,1-22.05,11.59C169.18,58.22,162.09,57.63,160.45,55.23Z"/></g></g></svg>