<svg xmlns="http://www.w3.org/2000/svg" xmlns:xlink="http://www.w3.org/1999/xlink" width="1366" height="768" viewBox="0 0 1366 768"><defs><style>.cls-1{isolation:isolate;}.cls-2{fill:#ffffd6;}.cls-3{fill:url(#linear-gradient);}.cls-4{fill:#aeffff;}.cls-5{fill:#98eeff;}.cls-6{fill:#8dfaff;opacity:0.49;}.cls-7{mix-blend-mode:multiply;opacity:0.66;}.cls-8{fill:url(#linear-gradient-2);}.cls-9{fill:url(#linear-gradient-3);}.cls-10{fill:url(#linear-gradient-4);}.cls-11{fill:url(#linear-gradient-5);}</style><linearGradient id="linear-gradient" x1="774.6" y1="490.18" x2="774.6" y2="-258.82" gradientUnits="userSpaceOnUse"><stop offset="0.08" stop-color="#ffffd6"/><stop offset="0.57" stop-color="#5fe4cc"/><stop offset="1" stop-color="#0098db"/></linearGradient><linearGradient id="linear-gradient-2" x1="354.68" y1="365.52" x2="354.68" y2="365.65" gradientUnits="userSpaceOnUse"><stop offset="0" stop-color="#0277bd"/><stop offset="0.41" stop-color="#3f9ecd"/><stop offset="0.99" stop-color="#9cdae6"/></linearGradient><linearGradient id="linear-gradient-3" x1="564.68" y1="365.52" x2="564.68" y2="365.65" xlink:href="#linear-gradient-2"/><linearGradient id="linear-gradient-4" x1="776.68" y1="365.52" x2="776.68" y2="365.65" xlink:href="#linear-gradient-2"/><linearGradient id="linear-gradient-5" x1="986.68" y1="365.52" x2="986.68" y2="365.65" xlink:href="#linear-gradient-2"/></defs><g class="cls-1"><g id="Layer_1" data-name="Layer 1"><rect class="cls-2" x="-99" y="-104" width="1595" height="940"/><rect class="cls-3" x="-2.81" y="-258.82" width="1554.81" height="749"/><polygon class="cls-4" points="1375.97 61.89 1167.16 105.33 1044.02 147.35 942.16 163.55 889.37 193.16 1038.65 155.76 1018.16 166.51 1174.95 142.23 1200.1 139.76 1173.56 152.55 1274.32 142.63 1313.65 135.71 1289.97 145.27 1376 133.6 1375.97 61.89"/><polygon class="cls-5" points="880.56 195.16 950.53 167.43 1067.86 147.13 1034.17 157.36 1018.16 166.51 1186.12 116.83 1144.9 142.49 1183.53 135.73 1220.69 127.53 1200.1 139.76 1183.53 142.49 880.56 195.16"/><polygon class="cls-5" points="1173.56 152.55 1293.18 130.56 1349.97 123.27 1313.65 135.71 1274.32 142.63 1173.56 152.55"/><polygon class="cls-5" points="1289.97 145.27 1345.69 130.56 1375.97 130.56 1376 133.6 1289.97 145.27"/><polygon class="cls-4" points="-27.84 149.02 -26.8 209.31 132.99 192.12 59.19 183.63 141.89 184.57 414.41 169.21 529.2 157.24 433.98 146.94 279.26 154.59 196.44 132.42 218.36 124.7 349.84 122.28 266.49 116.09 319.74 117.52 422.13 113.15 453.18 107.29 383.86 101.77 485.24 101.23 696.28 61.4 371.51 73.3 196.44 108.3 -27.84 149.02"/><polygon class="cls-5" points="-26.8 199.76 -26.8 209.31 132.99 192.12 59.19 183.63 141.89 184.57 414.41 169.21 529.2 157.24 475.02 151.4 271.3 159.51 300.34 170.52 81.3 154.6 154.63 178.16 59.19 183.63 87.23 186.85 -26.8 199.76"/><polygon class="cls-5" points="218.36 124.7 349.84 122.28 329.06 117.14 414.42 117.37 453.18 107.29 383.86 101.77 485.24 101.23 696.28 61.4 508.17 91.76 318 96.1 450.82 107.15 412.93 110.72 313.75 114.02 329.06 117.14 266.49 116.09 306.16 121 218.36 124.7"/><polygon class="cls-4" points="120.79 82 272.86 60.38 338.49 38.22 511.19 11.2 344.82 25.75 330.15 33.66 120.79 82"/><polygon class="cls-5" points="120.79 82 272.86 60.38 338.49 38.22 511.19 11.2 335.02 35.49 270.7 58.07 233.81 57.85 247.41 61.66 120.79 82"/><path class="cls-6" d="M470.73,557.35a7.33,7.33,0,0,1,4.42-1.68c1.77,0,2.36.75,5.58,1.31,1.78.31,3.74.45,3.76,0s-1.09-.72-1.08-1c0-.91,9.87,1,9.93-.28,0-.36-.81-.64-.82-1.09,0-.73,2.13-1.56,10.59-2.2l4.16.79a14.28,14.28,0,0,0-7.14,2.12,16.18,16.18,0,0,1-3.49,2.06c-2.13.76-2.6,0-5.33.43-3,.42-5.48,1.71-5.52,1.46s.86-.51.83-.8c-.06-.56-3.21.34-7.38-.6-1.87-.42-2.21-.83-3.89-1A11.85,11.85,0,0,0,470.73,557.35Z"/><g class="cls-7"><polygon class="cls-8" points="354.8 365.53 354.57 365.62 354.57 365.53 354.8 365.53"/></g><g class="cls-7"><polygon class="cls-9" points="564.8 365.53 564.57 365.62 564.57 365.53 564.8 365.53"/></g><g class="cls-7"><polygon class="cls-10" points="776.8 365.53 776.57 365.62 776.57 365.53 776.8 365.53"/></g><g class="cls-7"><polygon class="cls-11" points="986.8 365.53 986.57 365.62 986.57 365.53 986.8 365.53"/></g></g></g></svg>