<svg xmlns="http://www.w3.org/2000/svg" width="213.31" height="47.6" viewBox="0 0 213.31 47.6"><defs><style>.cls-1{fill:#d6effe;}.cls-2{fill:#0d2e4f;}.cls-3{fill:#466989;}.cls-4{fill:#153049;}.cls-5{fill:#8698a8;}.cls-6{fill:#005089;}.cls-7{fill:#878daa;}.cls-8{fill:#107ec1;}.cls-9{fill:#f3fbff;}.cls-10{fill:#af3541;}.cls-11{fill:#e9f8ff;}.cls-12{fill:#0f2230;}.cls-13{fill:#c8e9ff;}.cls-14{fill:#191c37;}.cls-15{fill:#597d99;}.cls-16{fill:#0b1921;}.cls-17{fill:#9fb9cc;}.cls-18{fill:#d13f58;}.cls-19{fill:#e3fcff;}</style></defs><g id="Layer_2" data-name="Layer 2"><g id="Layer_1-2" data-name="Layer 1"><path class="cls-1" d="M95.47,8.68a7.62,7.62,0,0,0-4.85,1c-1.16.71-1.12,1.22-2.33,1.81-1.45.71-2.86.64-4.85.54a22,22,0,0,1-3.12-.39,4.05,4.05,0,0,1,2.88,1.53,3.23,3.23,0,0,1,.37.71c3.31,1.32,5.26.94,6.44.35s1.66-1.52,3.26-2.26a8.51,8.51,0,0,1,4.38-.68Z"/><path class="cls-2" d="M101.45,14.83l-6-6.15a.22.22,0,0,0-.25-.1.14.14,0,0,0-.09.07l6.2,6.36Z"/><rect class="cls-1" x="159.34" width="0.16" height="13.78" transform="translate(-0.15 7.41) rotate(-2.66)"/><rect class="cls-1" x="161.64" y="3.18" width="0.16" height="13.78" transform="translate(-0.29 7.52) rotate(-2.66)"/><path class="cls-3" d="M90.3,18.65l-.24-.11,1-2.39a2.22,2.22,0,0,1,1.75-1.32l9.64-1.21,0,.25-9.64,1.22a2,2,0,0,0-1.54,1.17Z"/><rect class="cls-3" x="92.41" y="16.12" width="3.55" height="0.26" transform="translate(34.83 91.16) rotate(-61.4)"/><rect class="cls-3" x="96.07" y="15.79" width="3.86" height="0.26" transform="translate(38.95 95.73) rotate(-62.73)"/><path class="cls-1" d="M90.22,18.62l-.23-.1,1-2.39a2.23,2.23,0,0,1,1.76-1.32l9.64-1.22,0,.26L92.8,15.07a2,2,0,0,0-1.55,1.16Z"/><rect class="cls-1" x="92.33" y="16.09" width="3.55" height="0.26" transform="translate(34.82 91.08) rotate(-61.4)"/><rect class="cls-1" x="96" y="15.76" width="3.86" height="0.26" transform="translate(38.93 95.65) rotate(-62.73)"/><polygon class="cls-4" points="85.39 21.57 103.75 22.61 105.1 20.07 85.39 21.57"/><path class="cls-1" d="M118.4,10.45l15.47-2.79-3.72-1.49a78,78,0,0,0-23.43.34.18.18,0,0,0,0,.35Z"/><path class="cls-5" d="M102.42,15.71,104,12.94a6.85,6.85,0,0,1,1.17-.67,6.71,6.71,0,0,1,1-.35L117,11.24l-1.21-.53-11.16.82L102.89,13,101,17Z"/><path class="cls-6" d="M133.3,7.52l-3.15-1.35a98.94,98.94,0,0,0-22.38.64l10.89,3.36Z"/><path class="cls-1" d="M98.77,28.4l4.87-7.53-18.25.71,4.94-3.92L110,15.71a27.52,27.52,0,0,1,5.48-4c5.35-3,10.59-3.51,16.9-4.08,3-.27,5.61-.32,7.46-.31l11.79,5.5,22.34,2,10.89,5.37-40.95,8.2L101,31Z"/><path class="cls-5" d="M103.64,20.87l-2.19,3.38c1.86-.66,3.84-1.29,6-1.86a78.81,78.81,0,0,1,15.43-2.56Z"/><path class="cls-5" d="M124.22,18.08l40.06-1.86-20.85,3.44q-3.17-.51-6.58-.87C132.37,18.31,128.14,18.11,124.22,18.08Z"/><path class="cls-7" d="M124.22,18.08,91,19.93l39.53-1.81-5-.05Z"/><path class="cls-6" d="M143.43,19.66c.71-.29,1.84-.72,3.25-1.16,5.74-1.8,9.94-1.77,17.22-2.13,2.65-.13,6.72-.37,11.81-.79L183,19.16q-11.56.59-24,.66Q151,19.85,143.43,19.66Z"/><path class="cls-2" d="M143.43,19.66c.53-.22,1.34-.53,2.33-.86a45.16,45.16,0,0,1,12.84-2.18c5.17-.28,10.69-.64,17.11-1l.55.31c-5.7.51-10.21.74-13.33.87-4.59.17-8.76.21-13.9,2.24-.73.29-1.33.55-1.73.74Z"/><path class="cls-2" d="M143.43,19.66q9.78.24,20.24.12,10-.13,19.32-.62-9.31.33-19.27.29-8.62,0-16.78-.37Z"/><polygon class="cls-2" points="175.71 15.58 182.99 19.16 182.04 19.19 175.36 15.88 175.71 15.58"/><path class="cls-6" d="M117.14,12.33a33,33,0,0,1,5.24-2.12c3.8-1.17,6.85-1.35,11.27-1.58,2.29-.12,5.35-.2,9-.06l8.08,3.78c-4.86-.37-10-.6-15.5-.63C128.8,11.68,122.75,11.91,117.14,12.33Z"/><path class="cls-2" d="M117.14,12.33a32.58,32.58,0,0,1,3.78-1.63c4.85-1.74,9-1.93,14.21-2.13,1.88-.07,4.44-.12,7.52,0l.49.25a93.35,93.35,0,0,0-10.31.27,58.77,58.77,0,0,0-10,1.49A51.44,51.44,0,0,0,117.14,12.33Z"/><path class="cls-2" d="M117.14,12.33c6.86-.51,14.27-.74,22.16-.55q5.92.15,11.43.57l-.79-.37c-3.27-.33-6.69-.57-10.26-.7a165.51,165.51,0,0,0-21.17.56Z"/><polygon class="cls-8" points="176.39 15.91 170.11 16.37 176.95 19.33 182.99 19.16 176.39 15.91"/><polygon class="cls-8" points="143.13 8.82 149.94 11.98 141.6 11.36 138.36 8.8 143.13 8.82"/><polygon class="cls-2" points="130.32 9.18 131.41 11.48 131.79 11.46 130.63 8.97 130.32 9.18"/><polygon class="cls-2" points="161.42 16.74 163.98 19.61 164.31 19.59 161.64 16.65 161.42 16.74"/><polygon class="cls-2" points="170.11 16.37 176.95 19.33 176.46 19.41 169.46 16.31 170.11 16.37"/><path class="cls-6" d="M104.14,27.73l1.43-3.39a57.15,57.15,0,0,1,10.31-2.61,54.88,54.88,0,0,1,7-.65c3.62,0,7.61.14,11.88.55a119.31,119.31,0,0,1,13.14,2L134.49,31Z"/><polygon class="cls-1" points="103.86 27.2 146.01 25.24 139.3 29.06 102.54 30.16 103.86 27.2"/><path class="cls-2" d="M104.37,27.18l1.82-.09.68-2.05a50.54,50.54,0,0,1,7.94-2.23c1.79-.35,6.23-1.11,16.05-.64a154.46,154.46,0,0,1,16.61,1.73l.44-.24a119.85,119.85,0,0,0-12.94-2c-3.78-.37-7.33-.54-10.61-.56a54.3,54.3,0,0,0-9.2.75,56.24,56.24,0,0,0-9.59,2.5Z"/><polygon class="cls-1" points="120.76 21.2 120.28 26.44 123.13 26.3 123.59 21.04 120.76 21.2"/><path class="cls-5" d="M120.68,22.13l1.49-.07,1.33,0,.09-1c-.31,0-.63,0-1,0a17.11,17.11,0,0,0-1.86.12Z"/><polygon class="cls-5" points="123.13 26.3 120.28 26.44 120.3 26.2 123.13 26.06 123.13 26.3"/><polygon class="cls-5" points="123.5 22.04 123.13 26.3 123.33 26.3 123.81 21.09 123.59 21.04 123.5 22.04"/><path class="cls-7" d="M122.83,19.83c8.48.18,17.33.73,26.52,1.75q2.7.3,5.37.64l-.57.28q-2.62-.39-5.33-.74A239.22,239.22,0,0,0,122.83,19.83Z"/><path class="cls-9" d="M175.71,15.58,174,14.73c-1.69-.21-3.39-.41-5.12-.6q-8.88-1-17.22-1.35l-16.9-.1L163,15.2l-21.75,1Z"/><path class="cls-5" d="M175.71,15.58l-.38-.19L140,17l-2,.15c-1.12.11-2.2.25-3.23.4q14.53-.45,29.55-1.3Q170.06,16,175.71,15.58Z"/><polygon class="cls-5" points="105.58 24.34 105.98 24.62 105.04 27.14 104.37 27.18 105.58 24.34"/><path class="cls-5" d="M106,24.62a52.94,52.94,0,0,1,8.76-2.49,51.71,51.71,0,0,1,6-.79l0-.17a54.55,54.55,0,0,0-6.21.78,58.1,58.1,0,0,0-9,2.39Z"/><path class="cls-1" d="M106.74,10.73a5.87,5.87,0,0,0-4.29,2.17l-3.13,3.87L110,15.71l8.63-5.54Zm-4.84,5,1.83-2.92a5.12,5.12,0,0,1,1.5-.85,7.15,7.15,0,0,1,.85-.22l10.18-.67Z"/><path class="cls-8" d="M130.15,6.17c-2-.16-4-.28-6.17-.33-1.35,0-2.67,0-4,0a29.45,29.45,0,0,1,8,1c.48.13.95.27,1.4.42l-1,.35a29.54,29.54,0,0,1-4.23,1l9.14-1.09Z"/><path class="cls-2" d="M107.77,6.81l10.89,3.36.46-.17-10-3c1.54-.24,3.14-.46,4.81-.64,2.29-.25,4.48-.41,6.55-.5q-2.94,0-6.19.27C112,6.27,109.81,6.52,107.77,6.81Z"/><polygon class="cls-10" points="115 17.13 115.48 16.61 117.98 16.53 115 17.13"/><polygon class="cls-10" points="126.97 16.57 127.45 16.05 129.95 15.97 126.97 16.57"/><polygon class="cls-5" points="163.01 15.2 141.27 16.21 161.4 15.06 163.01 15.2"/><polygon class="cls-9" points="134.76 12.68 117.07 12.83 102.64 16.58 117.45 13.43 134.76 12.68"/><path class="cls-9" d="M139.87,7.28l2.78,1.29c-1.74-.06-3.55-.08-5.44-.06-2.2,0-4.32.12-6.33.25L132,7.64c1.33-.16,2.77-.29,4.32-.35C137.59,7.24,138.77,7.24,139.87,7.28Z"/><path class="cls-1" d="M182.53,20.29l1.24-1.21a3.4,3.4,0,0,1,2.12-1l22.83-1.86a1.65,1.65,0,0,1,1.67,1.07l.21.56Z"/><path class="cls-3" d="M67,36.82l-.24-.11a17.08,17.08,0,0,1,3.72-5.35,18.3,18.3,0,0,1,11.73-4.93l58.9-2.73a2,2,0,0,0,1.13-.43L145,21.15a4.27,4.27,0,0,1,2.29-.91l64.94-5.46a.73.73,0,0,1,.66.32.71.71,0,0,1,0,.73L211.23,19l-.23-.12,1.64-3.13a.47.47,0,0,0,0-.47.44.44,0,0,0-.42-.2L147.26,20.5a4,4,0,0,0-2.15.85l-2.67,2.12a2.23,2.23,0,0,1-1.28.49L82.27,26.69A18,18,0,0,0,70.7,31.54,16.72,16.72,0,0,0,67,36.82Z"/><rect class="cls-3" x="71.19" y="30.88" width="0.26" height="4.16" transform="translate(-1.45 3.35) rotate(-2.66)"/><rect class="cls-3" x="75.53" y="28.12" width="0.26" height="3.27" transform="translate(-1.3 3.55) rotate(-2.66)"/><rect class="cls-3" x="81.77" y="26.59" width="0.26" height="3.41" transform="translate(-1.23 3.83) rotate(-2.66)"/><rect class="cls-3" x="92.42" y="26.09" width="0.26" height="2.56" transform="translate(-1.17 4.33) rotate(-2.66)"/><rect class="cls-3" x="102.51" y="25.62" width="0.26" height="2.57" transform="translate(-1.14 4.8) rotate(-2.66)"/><rect class="cls-3" x="113.09" y="25.13" width="0.26" height="2.26" transform="translate(-1.1 5.29) rotate(-2.66)"/><rect class="cls-3" x="125.14" y="24.57" width="0.26" height="2.77" transform="translate(-1.07 5.85) rotate(-2.66)"/><rect class="cls-3" x="135.51" y="24.08" width="0.26" height="2.92" transform="translate(-1.04 6.33) rotate(-2.66)"/><rect class="cls-3" x="146.45" y="20.5" width="0.26" height="2.91" transform="translate(-0.86 6.83) rotate(-2.66)"/><rect class="cls-3" x="160.83" y="19.22" width="0.26" height="2.74" transform="translate(-0.78 7.5) rotate(-2.66)"/><rect class="cls-3" x="172.13" y="18.27" width="0.26" height="2.73" transform="translate(-0.73 8.02) rotate(-2.66)"/><rect class="cls-3" x="186.08" y="17.1" width="0.26" height="2.5" transform="translate(-0.65 8.67) rotate(-2.66)"/><rect class="cls-3" x="199.07" y="16.01" width="0.26" height="2.99" transform="translate(-0.6 9.27) rotate(-2.66)"/><path class="cls-11" d="M67,36.79l-.24-.11a17.08,17.08,0,0,1,3.72-5.35,18.22,18.22,0,0,1,11.73-4.92l58.89-2.74a2,2,0,0,0,1.14-.43l2.67-2.12a4.25,4.25,0,0,1,2.29-.9l64.93-5.47a.71.71,0,0,1,.66.32.69.69,0,0,1,0,.73l-1.64,3.14-.23-.12,1.64-3.14a.45.45,0,0,0,0-.46.45.45,0,0,0-.42-.21l-64.94,5.46a4,4,0,0,0-2.15.86l-2.67,2.12a2.22,2.22,0,0,1-1.28.48l-58.9,2.74a18,18,0,0,0-11.56,4.85A16.68,16.68,0,0,0,67,36.79Z"/><rect class="cls-11" x="71.11" y="30.86" width="0.26" height="4.16" transform="translate(-1.45 3.35) rotate(-2.66)"/><rect class="cls-11" x="75.46" y="28.1" width="0.26" height="3.27" transform="translate(-1.3 3.54) rotate(-2.66)"/><rect class="cls-11" x="81.69" y="26.56" width="0.26" height="3.41" transform="translate(-1.22 3.83) rotate(-2.66)"/><rect class="cls-11" x="92.34" y="26.07" width="0.26" height="2.56" transform="translate(-1.17 4.33) rotate(-2.66)"/><rect class="cls-11" x="102.44" y="25.59" width="0.26" height="2.57" transform="translate(-1.14 4.79) rotate(-2.66)"/><rect class="cls-11" x="113.02" y="25.1" width="0.26" height="2.26" transform="translate(-1.1 5.28) rotate(-2.66)"/><rect class="cls-11" x="125.06" y="24.54" width="0.26" height="2.77" transform="translate(-1.07 5.84) rotate(-2.66)"/><rect class="cls-11" x="135.44" y="24.06" width="0.26" height="2.92" transform="translate(-1.04 6.33) rotate(-2.66)"/><rect class="cls-11" x="146.37" y="20.47" width="0.26" height="2.91" transform="translate(-0.86 6.83) rotate(-2.66)"/><rect class="cls-11" x="160.75" y="19.2" width="0.26" height="2.74" transform="translate(-0.78 7.5) rotate(-2.66)"/><rect class="cls-11" x="172.06" y="18.25" width="0.26" height="2.73" transform="translate(-0.73 8.02) rotate(-2.66)"/><rect class="cls-11" x="186" y="17.07" width="0.26" height="2.5" transform="translate(-0.65 8.67) rotate(-2.66)"/><rect class="cls-11" x="198.99" y="15.98" width="0.26" height="2.99" transform="translate(-0.6 9.27) rotate(-2.66)"/><path class="cls-1" d="M81.85,28.82l-4.23,1a10.67,10.67,0,0,0-5.88,3.68L66.8,39.62l9.13-.82Z"/><path class="cls-1" d="M66.26,40.49l-.14-3a1.19,1.19,0,0,1,1.14-1.24l4.31-.21Z"/><path class="cls-4" d="M73.62,38.59l8.31-9.87,60.82-2.65,3.79-3.28Q162.83,21,180,19.69t33.36-2.17c-1.3.86-3.21,2.2-5.4,4-2,1.67-3.44,3-6.47,5.92s-5.55,5.38-7.73,7.51L73.14,40.53Z"/><polygon class="cls-12" points="160.92 21.34 209.55 20.21 213.31 17.52 160.92 21.34"/><path class="cls-12" d="M193.71,34.93l-67.2,3.12a79,79,0,0,0,26.62-4.36,78.48,78.48,0,0,0,18.48-9.32l34.21-4.27,3.73.11q-4.5,3.86-9.16,8.23Q196.9,31.71,193.71,34.93Z"/><path class="cls-3" d="M73.62,38.59l1.9-.08a50.22,50.22,0,0,1,3.74-5.08,51.33,51.33,0,0,1,3.6-3.86l60-3.19-.13-.31L81.93,28.72c-1.17,1.12-2.38,2.37-3.61,3.76A58.24,58.24,0,0,0,73.62,38.59Z"/><polygon class="cls-3" points="73.62 38.59 93.22 37.68 74.5 38.24 73.62 38.59"/><path class="cls-3" d="M146.54,22.79l-.62.54q15.21-1.77,31.16-3.19,18.57-1.63,36.23-2.62-17.69.9-36.24,2.4Q161.47,21.18,146.54,22.79Z"/><polygon class="cls-3" points="142.88 26.38 146.55 23.14 146.54 22.79 142.75 26.07 142.7 26.24 142.88 26.38"/><polygon class="cls-12" points="171.61 24.37 152.21 26.52 172.44 24.96 171.61 24.37"/><path class="cls-13" d="M80.5,32l85.21-4,.38-.21-85.23,4Z"/><polygon class="cls-3" points="166.09 27.82 202.73 26.11 202.39 26.39 165.71 28.03 166.09 27.82"/><path class="cls-14" d="M90.06,32.79h6a.45.45,0,0,1,.45.45v1.54a0,0,0,0,1,0,0H89.6a0,0,0,0,1,0,0V33.25A.45.45,0,0,1,90.06,32.79Z" transform="translate(-1.47 4.36) rotate(-2.66)"/><rect class="cls-3" x="89.65" y="34.79" width="6.87" height="0.08" transform="translate(-1.52 4.36) rotate(-2.66)"/><path class="cls-14" d="M109.19,31.86h6a.45.45,0,0,1,.45.45v1.54a0,0,0,0,1,0,0h-6.87a0,0,0,0,1,0,0V32.32A.45.45,0,0,1,109.19,31.86Z" transform="translate(-1.41 5.25) rotate(-2.66)"/><rect class="cls-3" x="108.79" y="33.85" width="6.87" height="0.08" transform="translate(-1.45 5.25) rotate(-2.66)"/><path class="cls-14" d="M133.41,30.7h6a.45.45,0,0,1,.45.45v1.54a0,0,0,0,1,0,0H133a0,0,0,0,1,0,0V31.15A.45.45,0,0,1,133.41,30.7Z" transform="translate(-1.32 6.37) rotate(-2.66)"/><rect class="cls-3" x="133" y="32.69" width="6.87" height="0.08" transform="translate(-1.37 6.37) rotate(-2.66)"/><polygon class="cls-12" points="80.5 32.01 165.71 28.03 165.72 28.11 165.65 28.14 80.41 32.11 80.5 32.01"/><polygon class="cls-13" points="193.71 34.93 193 35.42 73.17 41.15 73.14 40.53 193.71 34.93"/><polygon class="cls-15" points="135.98 37.61 135.29 38.18 193.37 35.4 193.71 34.93 135.98 37.61"/><polygon class="cls-4" points="193.37 35.4 193.14 36.43 73.21 42 73.17 41.15 193.37 35.4"/><polygon class="cls-16" points="135.29 38.18 134.59 39.15 193.14 36.43 193.37 35.4 135.29 38.18"/><polygon class="cls-16" points="135.29 38.18 73.17 41.15 73.18 41.31 135.71 38.44 135.29 38.18"/><polygon class="cls-12" points="135.98 37.61 73.14 40.53 73.21 40.25 140.28 37.05 135.98 37.61"/><path class="cls-4" d="M73.62,38.59l-5.78.27A2.08,2.08,0,0,0,66,40.09l-.6,1.36a.63.63,0,0,0,.6.89L73.21,42Z"/><path class="cls-17" d="M73.62,38.59l-3.22.15a17,17,0,0,1,9.92-8.33Z"/><path class="cls-4" d="M73.62,38.59l-2.17.1c.44-.6,1.08-1.45,1.9-2.41A17.09,17.09,0,0,1,76,33.54a11.89,11.89,0,0,1,3.16-1.73Z"/><path class="cls-1" d="M97.64,27a3,3,0,1,0,3.12,2.84A3,3,0,0,0,97.64,27Zm.23,5A1.87,1.87,0,1,1,99.65,30,1.87,1.87,0,0,1,97.87,32Z"/><path class="cls-18" d="M98.68,28.47a1.9,1.9,0,0,1,.68.64l1.25-.06a3,3,0,0,0-2-1.92Z"/><path class="cls-18" d="M96.12,29.26a1.86,1.86,0,0,1,.94-.87L97,27.12a3,3,0,0,0-2.13,2.2Z"/><path class="cls-18" d="M99.55,30.72a1.9,1.9,0,0,1-.72.93l0,1.11a3,3,0,0,0,1.8-2.09Z"/><path class="cls-18" d="M97.22,31.89a1.85,1.85,0,0,1-1.13-1L95,30.94a3,3,0,0,0,2.32,2Z"/><path class="cls-1" d="M104.67,26.68a3,3,0,1,0,3.12,2.84A3,3,0,0,0,104.67,26.68Zm.23,5a1.87,1.87,0,1,1,1.78-1.95A1.87,1.87,0,0,1,104.9,31.64Z"/><path class="cls-18" d="M105.72,28.15a1.92,1.92,0,0,1,.67.63l1.25-.06a3,3,0,0,0-2-1.91Z"/><path class="cls-18" d="M103.15,28.93a1.86,1.86,0,0,1,.94-.87L104,26.79a3,3,0,0,0-2.12,2.2Z"/><path class="cls-18" d="M106.58,30.4a1.89,1.89,0,0,1-.72.93l0,1.11a3,3,0,0,0,1.81-2.1Z"/><path class="cls-18" d="M104.25,31.56a1.86,1.86,0,0,1-1.13-1l-1.14.05a3,3,0,0,0,2.32,2Z"/><path class="cls-19" d="M65.6,41.85l.77-1.14A13.55,13.55,0,0,1,60.55,39c-1.36-.78-1.61-1.26-2.65-1.52-2.34-.59-4,1.21-6.46,2.12-2,.71-2.24,0-9.45-.67s-11.24-.49-13,1.09a15.88,15.88,0,0,1-1.84,1.46A16.44,16.44,0,0,1,24,43.17a20.41,20.41,0,0,1-5.13,1.17,52,52,0,0,1-7.94.81A38.67,38.67,0,0,1,6,44.89a38.2,38.2,0,0,1-6-1.18,31.38,31.38,0,0,0,7.46,2.14c5.09.79,9.28.14,9.31.43s-5.49,1.07-5.47,1.25,5,.09,11.23-1c9.33-1.64,10.54-3.93,15.36-2.84,1.84.42,3.87,1.29,6.75.75,2-.38,3.3-1.24,5.67-1,1.76.19,1.51.7,3.27.93,3.35.44,4.27-1.42,7.5-1a6,6,0,0,0,2.52-.09,5.39,5.39,0,0,0,1.81-.91Z"/><path class="cls-19" d="M44.68,45.51a12.34,12.34,0,0,1,4.45-1c1.77-.05,2.35.35,5.55.57,1.77.13,3.72.15,3.75-.07s-1.07-.36-1-.52c0-.48,9.84.29,9.92-.36,0-.19-.79-.32-.79-.56s2.16-.87,10.63-1.4l4.13.33a24.57,24.57,0,0,0-7.17,1.28A23.67,23.67,0,0,1,70.56,45c-2.15.45-2.6.09-5.34.35-3,.29-5.51,1-5.54.89s.87-.29.85-.44-3.21.25-7.36-.16c-1.86-.18-2.19-.38-3.87-.43A21.43,21.43,0,0,0,44.68,45.51Z"/></g></g></svg>