<svg xmlns="http://www.w3.org/2000/svg" width="350.48" height="609.97" viewBox="0 0 350.48 609.97"><defs><style>.cls-1,.cls-10,.cls-11,.cls-12,.cls-13,.cls-14,.cls-15,.cls-16,.cls-17,.cls-18,.cls-19,.cls-2,.cls-20,.cls-21,.cls-22,.cls-23,.cls-24,.cls-25,.cls-26,.cls-27,.cls-28,.cls-29,.cls-3,.cls-30,.cls-4,.cls-5,.cls-6,.cls-7,.cls-8,.cls-9{fill-rule:evenodd;}.cls-2,.cls-31{fill:#e78c19;}.cls-3{fill:#eecfb6;}.cls-4{fill:#e9c5d9;}.cls-5{fill:#842b4b;}.cls-6{fill:#8891a9;}.cls-7{fill:#798095;}.cls-8{fill:#5d6373;}.cls-9{fill:#696f81;}.cls-10{fill:#522436;}.cls-11{fill:#64273a;}.cls-12{fill:#e9c0a0;}.cls-13{fill:#f5e4d4;}.cls-14{fill:#9ca3b5;}.cls-15{fill:#969fb9;}.cls-16{fill:#63697b;}.cls-17{fill:#dea3c2;}.cls-18{fill:#ab4867;}.cls-19{fill:#6f1d3d;}.cls-20{fill:#a4aabf;}.cls-21{fill:#535867;}.cls-22{fill:#4c5061;}.cls-23{fill:#73788b;}.cls-24{fill:#7e859b;}.cls-25{fill:#5b6171;}.cls-26{fill:#4e5362;}.cls-27{fill:#824250;}.cls-28{fill:#51152d;}.cls-29{fill:#682d44;}.cls-30{fill:#411c2b;}.cls-31{stroke:#000;stroke-miterlimit:10;stroke-width:2.15px;}.cls-32{fill:#efb99d;}.cls-33{fill:#fbfbfb;}.cls-34{fill:#e72d36;}</style></defs><g id="Layer_2" data-name="Layer 2"><g id="Layer_1-2" data-name="Layer 1"><path class="cls-1" d="M180.19,141.87c2.12,1.9,3.78,3.53,4.58,5.55,12.75,7.36,36.95,27.49,43.32,34.14,2.75-.9,6-2.67,19.18.4s39.35,12.56,48.37,15.11c.06-10-5.42-43.32-8-49,1.36-1.12,4.16-1.36,5.21-1.58A33.32,33.32,0,0,1,294.15,135c-4.49-4.07-5.28-14.61-7-19.52-.66-1.9-2.54-5-3.55-5.52-3.05-1.5-6.69,1.12-8.79,2.61-3.27,2.33-10.31,5.62-9.68-1.7.52-6,4.39-9.67,8.86-12.8,3.37-2.35,8.27-4.64,12.08-4.62,4.74,0,5.45,6.58,5.32,10.83-.08,2.74,5.22-.08,8.24.42,2-4.22,4.55-15,8.37-19,1.47-13.36,6.42-27.52,11.06-37.44,1.43-3.06,4.16-7.4,7.47-7.64a3.67,3.67,0,0,1,3.93,4.25c-.91,9.72-10.73,35-14.93,41.69a41.61,41.61,0,0,0,3.85,2.11c1.78-3.39,6.78-11,12.55-9.18,1.36.43,3.6,3.19,3.18,5.24-.39,1.87-2.07,4.25-3,5.84,3.17-2.43,7.56-5.45,11.06-3.28,4,2.47,5,7.68.49,12.44,3.91-.82,7.2.82,6.79,5-.21,2.13-6.25,7.82-12.89,10.79-5.51,8.2-21.28,27.62-34,26.39-1,.9-1,3.63-.83,5.38,1.72.62,4.2.49,5.76,1.27C314,190.39,313,215.72,312,216.26s-29.69-11.92-79.28-22.78c-2.55,10.37-4.33,29.57-5.35,39.79-.88,8.93-1.58,33.31-1.34,52.64s1.23,37.93.88,59.12c-.23,13.41-1.63,36-1.8,37.45-7.28,3.51-19.3,3.91-26.28,4.18,2.76,13.79,8,39.13,8.86,45.13,1.9,12.63,2.45,28.41,3.83,35.4s5.72,17.67,4.73,19.74a61.73,61.73,0,0,1,17.74,21c3.67,7,8.59,15.3,12.22,24.21s13.12,33.16,14.24,36a63.31,63.31,0,0,1,3.16,9.43c.24,1.14.48,3.05,1.09,3.79a10.35,10.35,0,0,1,2.38,6,7.14,7.14,0,0,1,1.59,5.55c-10,5.64-25.39,2.68-27.68,3-12.36,5.36-24.65,9.51-40,11.6a280.56,280.56,0,0,1-78-.44c-1.5-1.42-.84-6.22,0-7.49-17.21,0-37-1.56-38.66-3-.75-.62-1.56-5.51.71-7.25,1.19-.92,6.1-1,14.12-2,7.18-.83,16.89-2.52,27.91-4.57,13.57-2.53,28.82-5.9,39.81-12.36-1.05-1.94-.7-5.33,1-6.89.94-7.42-2.89-16.25-7.65-25-2.72-5-22.06-45.07-23.51-47.4-2.59-2.57-5.89-6.65-7-11.4-2-8.8-6-42.54-8.89-53.49a365.81,365.81,0,0,1-9.5-55.34c-4.41.48-22.63,3.52-25.4,1.84-.92-9.59-1.32-22.36-1.4-33-.09-12.1.37-31.22.81-41.86.17-4.24.27-15.27,1.06-28.29,1.25-20.43,3.14-45.81,1.41-57.9-2.44,5.82-4.54,12.65-6.91,20.4s-5.85,24.08-7.2,32.24-1.9,11.74-2.78,12.38-5.73,1.27-6.63-.44c-.54-1-1.18-12.75-2.2-20.87-2.07-16.61-3-29.36-4.56-47.84-1.66-19.15-2-37.37-3.15-44.4-3.35.25-7.66.62-12.3-1.9-3.71,3-4.94,21.53-11.46,20.76-4.64-.55-1.42-9.28.77-13.94,1.7-3.62,6.1-11.39,6.1-11.39s-.86-2.23-1.11-2.64c-4.45,4.58-22.11,23.71-26.21,17.89-4.22-6,5.27-13.15,11.64-16.88s12.76-7.54,12.76-7.54.51-2.4-.19-3.4c-4,2.23-21.17,10.61-23.2,11.66-1.86.95-8.69,3.17-10.57-.34a7,7,0,0,1,2.63-8.82c7-4.89,26.75-8.43,32.65-9.63-.12-.63.06-1.92,0-2.92C34,134.2,10,136.89,7.39,136.48s-3.76-2.41-2.85-4.83,2.72-4.48,7.63-5.26S27.83,125.13,36,128.1c3.27-1.09,7.6.24,9.25,1,3.69-3,9-1.94,9.57-4.82.63-3.14-1.27-6.53-1.66-9.26-1.41-9.87,4.9-13.64,11.13-15.24s13.49-.57,16.16,2.83,1.72,7.32-1.76,10c-4.07,3.18-14.34.94-15.59,4.6a13.84,13.84,0,0,0-.17,7.58c.68,2.28,3,3.62,4.54,5.5a10,10,0,0,1,2,9.22c2.59,5.93.41,12.56-2,14.86,2.18-.93,4.45-1.42,5.73-1-3.79,23.37-5.31,53.82-1.67,76.52a26.69,26.69,0,0,0,2.42-7.08c1.87-8.39,4-18.27,6.88-28.4,2.87-10,5.73-26.79,8.54-30.75,1.52-2.12,5.79.09,8.32,1.2,12-9.73,31.38-17.06,37.09-17.93,2.48-3.35,8.72-7,11.75-8.38m.8,242.08c8.36,47.77,7.46,87.09,7.3,88.14s35.3,66,41.77,75.73a96.75,96.75,0,0,1,8.5,16.17,60.65,60.65,0,0,1,5,19.89c2.72-1,5.49-2,8.1-3.11a2.91,2.91,0,0,1-.83-2.48,3.89,3.89,0,0,1,1.84-3.32c-.64-4.21-5.6-23.06-8.7-30-3.3-7.34-7.92-14.28-12.56-21.23-3.42-5.1-6.31-9.5-8.29-14.63a57.92,57.92,0,0,1-3.78-20.39c.07-7.69-9.73-35.59-15.48-51S154,387.81,152.26,382.09A27.46,27.46,0,0,0,147.32,380.65Z"/><path class="cls-2" d="M313.34,87.36c2.15-3.28,6.72-13.63,9.45-21.46s8.3-22.11,4.7-23c-4.19-1-7.72,8.09-9.67,12.3-3.26,7-8,25.19-7.93,31.13-3.47,5.3-7.31,14.4-7.92,18.31,7.9,1,13.21,7.63,12.07,16.88-.08.64-.11,1.88-1,2.26-.1-9.17-3-15.59-11.94-16.74-3-.38-5.76,1.07-8.66.65-2.3-.33-3.13-2.4-3-5.14s-.84-9.47-8.52-6.07S266.29,107.26,267.44,112s10.81-6,16.42-4.17c3.59,1.19,5.63,5.82,6.83,13.33.6,3.78,2.93,12.13,8.75,16.44a9,9,0,0,1-3.89-1.2c-.89,2.44-1,6.93-.53,10,1.16.74,4,.52,5.4.58a21.38,21.38,0,0,1,1.73-7.76c6.05,1.53,11.72-2.39,14.8-4.65,6.61-4.84,12.95-12.25,17.37-18.18-.73.28-2.94,1-4.33-.91s-.4-4.66,1.71-7.56c-2.81,2.26-4.59,7.4-9.68,6.16-1.45-.35-2.19-1.91-2.72-3.47-3.15,2.37-6.16-.77-6.18-4.12,0-5.8,3.22-12.65,5.2-15.77C316.57,89.24,314.77,88.53,313.34,87.36Z"/><path class="cls-3" d="M328.81,81c-2.92.73-6.14,5.65-8.31,9.69-1.16,2.16-4.34,7.41-5.19,11.71-.74,3.73-.37,6.53,1.85,6.71,1.75.13,3.13-4.17,4.07-5.94a58.36,58.36,0,0,1,7.52-11.29c1.22-1.53,4.38-5,4.44-7.08S331.73,80.23,328.81,81Z"/><path class="cls-3" d="M330.27,94.18c-.9.88-5.29,6.07-6.55,8.92s-3.89,11,1.15,8.87c1.34-.56,4.5-4,5.7-5.14s9-6.07,12.52-9.72c2.46-2.57,2.3-6.58-.87-8C338.21,87.29,331.17,93.29,330.27,94.18Z"/><path class="cls-3" d="M345.29,108.26c.91-.7,3.11-2.85,3.1-4,0-1.55-1.88-3.08-4-2.8a17.61,17.61,0,0,0-7.83,3.69c-3.28,2.48-6.78,6.94-4.82,9.13S341.72,111,345.29,108.26Z"/><path class="cls-2" d="M68.76,112.46c2.51-.55,8.07-.36,9.64-2.2C81.07,107.12,80,104,76,102s-12.92-.65-16.33,2c-2.17,1.71-4.86,4-4.72,8.2.12,3.7,1.45,6.07,2,9.69a5.69,5.69,0,0,1-2.41,5.52c-1.51,1.1-4.22,1.38-6.1,2-4.68,1.57-7.71,14.33-1.41,26.84-3.68-.75-8.64-15.27-3.14-25.81a10.36,10.36,0,0,0-7.88-.74c-4.14-2.12-17.18-3.11-24.07-1.55-3.82.87-5.93,3.37-6,4.77-.06,3.95,25.87-.6,31.43-.49a11.89,11.89,0,0,0,0,5.44c-4,.86-14.7,3.43-18.37,4.43-5.82,1.6-18.89,5.51-16.45,11.51,1.94,4.8,25.3-8.06,32.63-11.28,1.1.9.72,4.08.48,6.09a197.36,197.36,0,0,0-19.16,12.21c-3.64,2.8-7.09,7.25-5,9.42,3,3.13,17.09-9.41,25.08-18.6a34.26,34.26,0,0,0,2.6,5c-3.47,5.13-11.94,22-8.67,23.18s4.87-4.82,6.46-10.51c1.37-4.92,3.38-9,4.7-9.94a21.05,21.05,0,0,0,13.89.93C61,158.82,72,151,67.7,140.37a24.43,24.43,0,0,0,.3-5.12c-.53-4.55-5.41-5.75-6.78-9.27-1.11-2.87-.3-7,.57-9.73S66.25,113,68.76,112.46Z"/><path class="cls-4" d="M149,138.79a58,58,0,0,0-2.4,15.13c3-4.64,6.23-9.91,10.14-14.38A19.19,19.19,0,0,0,149,138.79Z"/><path class="cls-5" d="M154.14,145.85c-.42,2.6.94,6.78,2.15,9a22.91,22.91,0,0,0,8-8.27,14.41,14.41,0,0,0-1.4-6,17.85,17.85,0,0,0-3.9-.86A34,34,0,0,0,154.14,145.85Z"/><path class="cls-4" d="M165.26,141c.8,3.75,3.11,15.27,3.94,19.12,1.67-5.41,3.61-11.36,4.4-17.76C171.28,141.46,167.66,140.57,165.26,141Z"/><path class="cls-6" d="M182.17,147.7c0-2.67-5-6.19-6.64-5.32-1,4.7-3.62,13.74-5.91,21.42-2.82,9.41-6.26,25.87-8.89,35.35-2.35,8.45-4,16.42-5.72,22.62-5,18.6-18,57.17-18,57.17s-.3,5.27-.67,7.28c2.82-7.21,10.72-25.15,14.77-34S178,204.15,184.6,190.77c-2.51-1.71-10.25-2.26-17.84-2.49,1-1.31,3.9-1.58,7.13-2C174.66,180.4,178.05,157.57,182.17,147.7Z"/><path class="cls-6" d="M146.48,140.43c-2.51,1.15-8.52,4.43-10.51,8.86,2.32,8.06-.84,25.69-.52,34.83,2.6-.47,4.51.15,4.36,1.27-5.92.59-12,2.3-13.52,3.26,2.7,12.3,4,27.26,4.29,41.4.22,12.59,1.3,28.26,4.11,34.09.1-12.48,2.53-36.79,4.27-54.11C140.78,192,146.52,140.43,146.48,140.43Z"/><path class="cls-7" d="M290.93,149.24c1.8,4.83,6.74,35.36,6.87,48.71,2.41,1.55,5.68,3,4.6,5.16-8.58-5.14-44.56-15.92-52.72-18.26s-15-3.74-22.19-.55c-12.85-11.88-28.5-25.54-44.08-34.9-2.81,7.08-6.38,28-7.36,36.73,4.45.52,9.36.86,11.71,2.72-4,12.54-36.13,57.8-51.41,102.53-.34,20.2-2.75,68.05-3.79,83.11,8,1.27,16.27,4.45,24.93,6.47,6.56,1.53,25,2.34,33.5,2.88,10.6.68,26.43-.22,32-3.3,1-12.35,1.46-39.39,1.16-56.35s-.26-19.5-.56-29.6c-.22-7.8-.8-27,.44-46.07.76-11.66,2.88-48.49,6.93-57.81,10.19,1.36,59.16,14.64,79.17,22.52,1.55-22.16-1.95-44.41-3.95-62.67A32.73,32.73,0,0,0,290.93,149.24Z"/><path class="cls-4" d="M146,159.07c-1.06,10.32-3.18,30.92-3.65,38.33,1.26-3.9,7.81-37.51,12-41.69a40.17,40.17,0,0,1-1.93-7.62A39.38,39.38,0,0,0,146,159.07Z"/><path class="cls-4" d="M157.42,156.42c2.7,13.42-.19,40.6-1.92,56.93,3.44-12.86,10.29-42.22,12.49-49.15,0-3.9-2.05-12.44-3-15A38.73,38.73,0,0,1,157.42,156.42Z"/><path class="cls-7" d="M134.19,269.51c-5.48-9.29-5.67-41.78-6.42-52.7-.54-8-1.76-20-4-29.48,2-1.29,6.4-2.15,9.75-2.82.22-6.31,2.65-34,.55-35.39-9.24,1.37-28.3,12-35.83,18.48-3.25-1.7-6.3-3.6-8-2.09S85,187.37,82.15,196.16c-3.25,10-6.88,32.36-10.13,36.52.88,5.38,1.29,13.15-.29,13.85A145.84,145.84,0,0,0,70.11,232a249.51,249.51,0,0,1-2.29-41.6c.53-12.53,1.45-23.73,2.84-34.75-4,.53-10.14,4.42-14,6.82.41,4.9,3.27,53.89,4.55,67.82,1.53,16.59,4.84,43.39,4.7,44.28s4.26.93,4.53-.86,2.45-14.14,3.49-19.23c1.23-6,2.72-12.63,4.46-19.17,2.57-9.62,6.28-20.92,9.3-27.68.77-7.35,1.31-26,2.77-34.43,1.76-1.28.54,6.1.34,12S90,201,89.41,210c1.48,10.28,1.07,19.15.56,30.66-.19,4.38-.46,8.79-.7,13.21-1,17.79-1.82,35.94-2.32,53.67-.14,4.6,0,9.21-.21,13.77s-.21,22.64,0,27c.35,7.56.52,15.2,1.25,22.16,1.91.64,10,.11,16.35-.69,5.65-.71,18.2-3.33,26.75-2.28C133.29,345.26,134.29,279.41,134.19,269.51Z"/><path class="cls-5" d="M150.52,169.23c-3.6,13.77-6.53,25.86-9.43,38.58-1.27,9.28-3.6,33.71-4.19,41.67s-1.13,21-.85,27.71c4.68-14,13.71-43.24,17.63-60.76,3.06-24.06,4.67-55.93,2-59.05C153.52,157.3,152,163.44,150.52,169.23Z"/><path class="cls-8" d="M113.31,370.69c1,17.82,6.45,40.7,8.39,49.58s2.92,13.09,3.91,19.45c1.73,11,4.16,32.65,6.44,40.81,1.74,6.25,10.61,8.37,12.59,13.62-2.12-1.45-4.52-3.09-6.07-3.28,3.2,6,5.82,11.45,8.77,17.78,3.87,8.29,19.23,35.33,21.61,45.63a27.09,27.09,0,0,1,.7,9.33c1.5.49,11.6,1.76,11.89,4.36-3.22-.59-10.57-2.46-11.89-2.1s-1.41,2.71-.9,3.77a18.61,18.61,0,0,1,7.06,1.21A166.14,166.14,0,0,1,191.58,577,71.28,71.28,0,0,0,206,581.74c.87-1.23.69-5.51.38-8.18-1.29-11.1-6.66-19.73-11.77-27.8-4.25-6.73-8.2-13.26-12.33-21.08S162.62,489.48,160.1,485c-1.13-2-7.1-13-7.48-14.93,1.15-28.66-4.4-74.92-8.37-90.06a79.65,79.65,0,0,0-13.58-2.72,53.54,53.54,0,0,1-.07-7C125.58,369.16,118.65,369.9,113.31,370.69Z"/><path class="cls-9" d="M170.43,427.54c3.65,10.95,16.12,42.37,18,56.69.55,4.27-.35,10.49,2.07,18.26s8,14.9,10,18.07,3.89,6.35,5.87,9.52c6.47,10.41,11.56,27.65,14.48,41.19,2.45-.16,11.85.45,13.79,3.52-3.19-.93-9.94-2-12.71-1.66s-3.51,3.08-1.61,3.5c2.58-.7,9.28,1,14.58,2.53s26.53,7.59,30.3,8.12c.2-2.46-1.95-3.81-2.68-5.88-.92-2.6-1.18-5.35-2-7.9-1.76-5.15-13.66-34.64-15.93-40.11-5-12.18-17.08-34.27-24.28-40.79-3-2.71-7-5.85-12.51-7.16.51-1.62,3.8-1.18,6.63-.34,0-2.62-3.22-9.16-5.24-19.68-1.74-9-2.2-25-4.28-37.85-1.17-7.22-6.36-29.9-8.65-40.81-13.61-1-29.14-1.35-41.05-4C157.52,390.71,167.62,419.11,170.43,427.54Z"/><path class="cls-10" d="M169.57,572.06c-2.39-.31-10.1,6.3-31.56,10.82s-45.11,7.59-51.15,8c-1.54.12-1.2,4.35-.62,4.44,14.45,2.1,48.68,2.11,61.39.56a282.82,282.82,0,0,0,54.18-12.61C197.94,581.32,178.43,573.2,169.57,572.06Z"/><path class="cls-11" d="M265.78,589.42s-39.56-11-44.25-10.93c-3.73,0-11.54,4.68-21.5,7.83-9.53,3-19.11,5.64-28.76,8.08-16.63,4.22-34.73,4.91-45,4.89-1.78,0-2.2,5.43-.5,5.72,12.75,2.13,35.21,4.16,62.63,1.33,18.35-1.9,36.18-5.72,51.6-12.61,1-.45,5.18-4.92,6-6.4,1,.81-.19,5-1.24,6.48,4.84.73,16.28.46,21.86-2.34C266.82,590.67,265.78,589.42,265.78,589.42Z"/><path class="cls-12" d="M311.7,130.6c5-2.64,15.63-7.53,13.66-4.45s-13,12.92-19.2,12.91S305.78,133.74,311.7,130.6Z"/><path class="cls-12" d="M58.17,150.17c4.25-3.11,9.25-7.35,9.13-3.82s-4.51,11.45-11.49,12.78S49.71,156.37,58.17,150.17Z"/><path class="cls-13" d="M278.91,98.4c1.47-.73,6.44-2.82,7.61.07s-8,6-10.92,6.85S272.83,101.43,278.91,98.4Z"/><path class="cls-13" d="M321,49.86c1.14-2.72,3.85-6.71,6-6.06s.35,5.71-.65,8.71S321.2,59.37,320,59,319,54.55,321,49.86Z"/><path class="cls-13" d="M326.55,83.48c1.34-1.63,3.8-2.13,4.92-.78,1.72,2.06-1.29,6.22-3,7.68S325,85.33,326.55,83.48Z"/><path class="cls-13" d="M336.82,91c1-.77,5-3.25,6.5.6s-6.46,8.9-7.76,9.81S334.77,92.68,336.82,91Z"/><path class="cls-13" d="M342,102.81c1-.55,4.75-1.17,5.22,1.12s-4.36,5.55-6.21,6.63S340.38,103.7,342,102.81Z"/><path class="cls-13" d="M301.07,108.08c3.09.3,8.94,3.53,10.68,11.18s-8.25,2.76-9.65,1.39S295.28,107.5,301.07,108.08Z"/><path class="cls-12" d="M304.28,104.38a13.49,13.49,0,0,1,7.61,5.39,16,16,0,0,1,3,8.84s1.61-4.7-2.17-10.9S304.28,104.38,304.28,104.38Z"/><path class="cls-13" d="M61.88,103.82c2.3-1.62,8.62-2.75,12.19-1.11s-1.83,5.83-6.2,6.25S58.54,106.18,61.88,103.82Z"/><path class="cls-13" d="M45.18,136.88c.57-3.45,2.16-5,5.79-4.93s1.18,7.83-.06,12.34-2.63,8.08-4,6.51S44,143.68,45.18,136.88Z"/><path class="cls-13" d="M13.73,128.41c2.23-.25,5.62.19,6.66,1.37s-6.43,2.63-9.15,2.54S8.63,129,13.73,128.41Z"/><path class="cls-13" d="M10.06,146.15c2.06-.77,6-.75,6.85,1s-6.31,4.34-9.41,5S4.91,148.06,10.06,146.15Z"/><path class="cls-13" d="M16,162.11c1.76-1.41,5.7-2.27,6.58-1.48s-5.82,5.88-7.84,6.76S12.88,164.67,16,162.11Z"/><path class="cls-14" d="M100.51,168.37a83.41,83.41,0,0,1,15-10.32c6.46-3.39,11.95-5.1,13-4.69s-11.13,12.74-14.82,14.7S98.25,170.58,100.51,168.37Z"/><path class="cls-14" d="M191.92,156.45c10.83,6.82,25.44,20,29.83,24.18s-16.1-1.31-19.64-3.7S188.52,154.3,191.92,156.45Z"/><path class="cls-14" d="M244.11,184.23c2.7.52,23.53,6.68,31.07,9s-13.28,1.26-18.32.14S236.91,182.84,244.11,184.23Z"/><path class="cls-1" d="M144.63,294.5c6.33-.37,4.27,9.9-.81,8.61C139.75,302.07,141,294.7,144.63,294.5Z"/><path class="cls-15" d="M144.4,301.11c2.11.85,4.09-3.69,1.12-4.8C143.17,295.43,141.92,300.1,144.4,301.11Z"/><path class="cls-1" d="M141.86,322.15a3.58,3.58,0,0,1,4.62,3c1,5.88-5.38,7.67-7,3.37C138.51,325.91,139.66,322.77,141.86,322.15Z"/><path class="cls-15" d="M140.94,327.18c1,2.34,4.9,1.18,3.82-2S139.91,324.84,140.94,327.18Z"/><path class="cls-14" d="M146.49,332c3.83-1.65,20-3.31,23.46-2.06s-3.27,5.59-6.17,5.3S141.16,334.24,146.49,332Z"/><path class="cls-14" d="M149.43,303.75c3.08-.79,9.43-.07,11.58,1s1.86,3.86-1,2.81S146.14,304.59,149.43,303.75Z"/><path class="cls-14" d="M149,306.2c1.93.65,8.63,2.19,10,3s-1.89,2.21-3.52,2.16S145.22,304.93,149,306.2Z"/><path class="cls-14" d="M143.93,364.72c5.51-1,27-4.6,44.88-2.85s26,4.29,28.07,6.64-20.33.64-33.19.21S134.27,366.49,143.93,364.72Z"/><path class="cls-14" d="M144.37,368c2.53.41,27.64,3,41.77,3.3s26.28.32,28.46.2-4.36,5.74-29.34,4.33S138.42,367,144.37,368Z"/><path class="cls-14" d="M159.47,285.66c3.81-2,44.86-18.62,51.39-18.4s-3.66,11.65-11,13.68S149.13,291.2,159.47,285.66Z"/><path class="cls-14" d="M128.16,273.4c-1.78.4-24,8.69-28.5,11.77s1.06,6.11,4.35,5.27S133.27,272.24,128.16,273.4Z"/><path class="cls-14" d="M57.89,163.33a27.78,27.78,0,0,1,5.56-3.61c2.76-1.24,5.31-1.72,5.48-1.14s-1.08,10.22-1.18,13.25-2.58-4.07-4.16-5.65S57.49,164.27,57.89,163.33Z"/><path class="cls-14" d="M91.24,166c.69-.62,3,.22,4.31,1s2,1.37,2.09,1.72-7.67,1.4-7.65.63A5.77,5.77,0,0,1,91.24,166Z"/><path class="cls-14" d="M227.68,185.16a25.66,25.66,0,0,1,9.42-1.52c3,.28-2,2.83-5.25,3.31S225.32,186.32,227.68,185.16Z"/><path class="cls-16" d="M164.48,289.52c4.92-.82,27.77-4.25,32.47-5.61s10.71,1.57,9.46,4S149.28,292.05,164.48,289.52Z"/><path class="cls-16" d="M163.81,292.23c3.2.28,21.49.73,28.5,0s-8.05,5.82-16.18,5.55S158,291.74,163.81,292.23Z"/><path class="cls-16" d="M149.54,361.82c5.05-.58,21.63-3.23,34.12-2.81s20.28,2.21,23.74,3.24S203.35,353,183,353.2,143.41,362.53,149.54,361.82Z"/><path class="cls-16" d="M143.69,276.63s11-25.22,17.85-37.79,21.94-38.56,21.94-38.56-9.9,35-11.21,39.23S143.69,276.63,143.69,276.63Z"/><path class="cls-16" d="M133,293.33s-.48,22.83-.73,30.44-1.77,35.28-1.77,35.28-8.89-21-8.72-26.19S133,293.33,133,293.33Z"/><path class="cls-16" d="M127.35,278.21c-1.58,1.72-20.49,12.72-22,13.58s6.56,3.57,9.83,1.55S130.07,275.26,127.35,278.21Z"/><path class="cls-16" d="M129.4,364.19s-13.69.76-21,2.65-13.17,2.29-14.61,1.94,18.76-12.68,25.48-14.07C123.06,353.92,131.74,363.66,129.4,364.19Z"/><path class="cls-17" d="M165.73,141.38a9.72,9.72,0,0,1,3.75,0,23.11,23.11,0,0,1,3.63,1l-.26,3a24.61,24.61,0,0,0-3.36-1.77,9.93,9.93,0,0,0-3.24-.54Z"/><path class="cls-17" d="M149.21,139.08a24.63,24.63,0,0,1,3.59-.05,27.59,27.59,0,0,1,3.4.63l-1.91,2.3a8.49,8.49,0,0,0-3.25-.2c-1.34.31-2.69.7-2.69.7Z"/><path class="cls-17" d="M157.8,156.49s1.88-1.34,3.43-2.68a41.47,41.47,0,0,0,3.72-4.07,46.88,46.88,0,0,1,1.42,4.94c.5,2.38,1.35,9.22,1.35,9.22s-1.49-5.12-4.53-6.53A9.11,9.11,0,0,0,157.8,156.49Z"/><path class="cls-17" d="M152.22,149s.2,1.32.64,3.08,1.13,3.71,1.13,3.71-1.76-2.16-3.38-1.16-4.41,4.74-4.41,4.74a34.94,34.94,0,0,1,2.7-6A20.37,20.37,0,0,1,152.22,149Z"/><path class="cls-18" d="M158.37,147c.67-.88,5.81-1.55,5.44-.52s-5.47,6.46-6.75,7.29S157.06,148.69,158.37,147Z"/><path class="cls-18" d="M156,164.29c.31,1.58.23,20.19-.66,29.33s-1.94,20.55-2.64,21.66-4.56-20.59-4.33-22.68S154.83,158.14,156,164.29Z"/><path class="cls-19" d="M139.86,225.63c-.21,1.58-2.24,21.74-2.67,29.2s-.85,19.62-.85,19.62,3.8-12.45,5.91-19.45,4.63-15,4.69-16.75S140.36,221.72,139.86,225.63Z"/><path class="cls-20" d="M165.65,189.56c2-.36,8.06.07,12.54.62,2.27.27,5,1.15,5,1.93s-10.52,6.13-11.64,6.09S163.76,189.89,165.65,189.56Z"/><path class="cls-20" d="M127.58,189.06a24.43,24.43,0,0,1,5.89-2c2.44-.31,4.53-.83,5.27-.61s-3.92,4.78-5.06,5.13S127.58,189.06,127.58,189.06Z"/><path class="cls-16" d="M90.25,211.39s1.63,12.83.71,23.41-2.1,34.52-2.25,39.23,9.44-40.95,9.73-49.59S90.25,211.39,90.25,211.39Z"/><path class="cls-16" d="M72.28,232.88a14.14,14.14,0,0,0,1.9-4.19c.94-3,1.65-5.45,1.65-5.45s1.41,2,.41,10.88-3.8,12.8-3.8,12.8a38.28,38.28,0,0,0,.61-5.49A63.3,63.3,0,0,0,72.28,232.88Z"/><path class="cls-16" d="M298.17,197.71a22.15,22.15,0,0,1,3.71,2.58,3.18,3.18,0,0,1,1.07,3,31.83,31.83,0,0,0,.54-13.5c-1.4-6.76-7.17-12-7.17-12s1,6.27,1.37,10.35S298.17,197.71,298.17,197.71Z"/><path class="cls-21" d="M156.25,383.53s9.29,1.64,20.2,2.5,19.14,1.48,19.14,1.48l2.46,11.54s-10.08-2-19.08-3a76,76,0,0,0-18.09.55Z"/><path class="cls-22" d="M113.7,371.3s4.61-.67,8.28-1.05a29.89,29.89,0,0,1,8.06.6l.08,7s5.21.67,8,1.1a31,31,0,0,1,6,1.7s1,4.18,1.63,8.19.65,4.34.65,4.34a55.9,55.9,0,0,0-14.18-2.8,75.27,75.27,0,0,0-15.73,1.13,113,113,0,0,1-2-11.86C113.93,373.8,113.7,371.3,113.7,371.3Z"/><path class="cls-23" d="M133.12,476c.8.9,5.95-2.65,8.65-2.13s-5-20.56-8.38-18.26S131.7,474.37,133.12,476Z"/><path class="cls-24" d="M194.21,483.28c1.58-1.5,10.55,3.64,11.75,5.43S192.36,501,192.42,499,187.93,489.21,194.21,483.28Z"/><path class="cls-25" d="M194.08,505.64c.89,0,21.16,11.9,26.59,18.44s.94,40.61-.55,35.07S213.75,537,207.35,528,191.78,505.56,194.08,505.64Z"/><path class="cls-26" d="M140.49,493.31s12.69,8.54,17,15.71,12.91,45.61,10,38.71S155,521,151.12,513.41,140.49,493.31,140.49,493.31Z"/><path class="cls-27" d="M150.11,599.34c4.39-.18,17.26-2.94,31-6.19,9.71-2.31,26.43-7.89,30.26-9.73s-5,11.46-26.28,15.78S144.24,599.58,150.11,599.34Z"/><path class="cls-27" d="M139.39,600.52c3.16.22,16.27,1.86,18.52,3.25s-13,1.1-20.73.18S121.43,599.26,139.39,600.52Z"/><path class="cls-27" d="M204.22,596.12c4.4-2.86,23.36-9.74,28.18-10s-8,7.85-10.75,8.41S200.37,598.62,204.22,596.12Z"/><path class="cls-28" d="M222.38,579.18c1.25.14,15.77,4,23.67,5.85s15.57,3.81,17,4.3-19-2.18-24.17-3.45S219.46,578.87,222.38,579.18Z"/><path class="cls-29" d="M117,588.36c5.3-.68,25.51-5.29,34.18-7.85s-3.77,6.24-13.9,8.75S102.06,590.27,117,588.36Z"/><path class="cls-29" d="M97.63,591c3.77.12,19.85,1.1,24,2.56s-15.74,1.22-23.47.74S85.09,590.57,97.63,591Z"/><path class="cls-30" d="M169.62,573a96.33,96.33,0,0,1,15.76,4.47,144.27,144.27,0,0,1,13.41,5.94s-19.62-1.76-23.13-3S169.62,573,169.62,573Z"/><path class="cls-24" d="M235.46,575.34c2.93.23,12.91.44,19.62,3.37s8.19,4.46,8.38,5.82-9.46-1.55-15.17-3.1S227.14,574.69,235.46,575.34Z"/><path class="cls-23" d="M180.37,568.44c3.23.79,11.55,2.12,16.74,5.12s6.77,4.78,3.14,4.53-20.67-7.33-22.86-8.51S176.87,567.59,180.37,568.44Z"/><path class="cls-25" d="M233.7,571.84c2.08.39,11.44,2.23,16.09,3.62a56.8,56.8,0,0,1,9,3.74c1.85.81-.92-7.65-7.8-8.87S224,570,233.7,571.84Z"/><path class="cls-26" d="M174.06,563.92s9.21,2,14,3.67,10.19,4.41,11.67,5.69-2-5.86-9.23-8.31S169.73,563.28,174.06,563.92Z"/><path class="cls-31" d="M202.73,96.49l2,21.57-1,14.49s.88,33.06-35,23.49c0,0-34.45,18-48.48-3.5L116.77,146l-5.15-15.35-3.4-45.48S120,57.55,151.29,52.85c0,0,2.66-.66,6.48,2.11,0,0,18.42-23.4,25-18.31,0,0,5.52,5-6.59,29.59l8.84,7s16.2-18,25.25-11.23C218.74,68.19,202.73,96.49,202.73,96.49Z"/><path class="cls-32" d="M176.17,48.73,172.38,60s-2.33,6.43-8.72,2.31c-1.83-1.16-3.21-3-2.46-5.2.56-1.66,2.12-2.92,3.27-4.16,2.13-2.36,4-5,6.4-7.19,1.21-1.12,3.75-3.67,5.61-2.82C176.48,43,178.07,42.89,176.17,48.73Z"/><path class="cls-32" d="M203.6,69.47c-.11-.12-2.06-4.45-10.23,2.8s-7.28,6.28-7.28,6.28-4.1,2.7,1.3,8.87a24.23,24.23,0,0,0,4,3.79,9.69,9.69,0,0,0,3.06,1.42,2.14,2.14,0,0,0,2.6-1.32,108.36,108.36,0,0,0,5.62-10.86C203.86,77.52,206.14,72.19,203.6,69.47Z"/><path class="cls-33" d="M130.05,69.57c-.53,2.08,2.07,4.55,5.85,5.51s7.24,0,7.77-2-1.81-6-5.55-6.9S130.57,67.49,130.05,69.57Z"/><ellipse class="cls-33" cx="169.93" cy="94.55" rx="4.92" ry="7.65" transform="translate(-18.88 48.01) rotate(-15.25)"/><path class="cls-33" d="M151.15,110.63,135,96.23s-20.09-18-28.1-10.1-6,23.6-6,23.6-1.81,17.32,14.86,23.13l8.84,3.58,11.63,3.28s18.55,5.87,35-.85l5.74-4.22s11.88-9.86,7.94-20.15-28.46-2.15-28.46-2.15S153.09,113.2,151.15,110.63Z"/><circle class="cls-34" cx="122.34" cy="47.2" r="4.61"/><circle class="cls-34" cx="135.02" cy="38.74" r="4.61"/><circle class="cls-34" cx="151.75" cy="39.25" r="4.61"/><path class="cls-34" d="M156.28,6.69c-4.31,12.94-5.43,25.36-2.22,26.17s10.74-11,13.85-23.22c1.27-5-1.16-6.53-4.37-7.34S157.91,1.74,156.28,6.69Z"/><path class="cls-34" d="M124.61,7.37c1.74,13.51,6.11,25.19,9.33,24.53S138.84,17.35,136.3,5C135.25-.14,132.4-.4,129.19.26S123.94,2.21,124.61,7.37Z"/><path class="cls-34" d="M97.35,25.93c8.75,10.49,18.66,18,21.05,15.69s-3.7-14.88-12.43-24c-3.62-3.74-6.16-2.45-8.54-.19S94,21.9,97.35,25.93Z"/><path d="M155.32,97.88l1.13.43a1.42,1.42,0,0,0-.19.41c-.34,1.35,1.49,3,4.12,3.78a.82.82,0,0,1-.09.34c-.55,1.62-3.7,2-7,.91s-5.57-3.36-5-5S152,96.76,155.32,97.88Z"/><path d="M133.28,86.1l1.14.42a1.42,1.42,0,0,0-.2.41c-.34,1.35,1.5,3,4.12,3.78a1,1,0,0,1-.08.34c-.55,1.62-3.7,2-7,.91s-5.56-3.35-5-5S130,85,133.28,86.1Z"/><path d="M123.81,91s8.63,5.1,6.73,10.21-13.83,5-13.83,5a4,4,0,0,1-4.34-2.9c-1-3.31-2.57-7.86-.46-13.28C111.91,90,113.19,85.93,123.81,91Z"/></g></g></svg>