<svg xmlns="http://www.w3.org/2000/svg" xmlns:xlink="http://www.w3.org/1999/xlink" width="1745.05" height="242.16" viewBox="0 0 1745.05 242.16"><defs><style>.cls-1{isolation:isolate;}.cls-2{fill:url(#_24);}.cls-3{fill:#fff1e5;}.cls-10,.cls-11,.cls-13,.cls-14,.cls-18,.cls-20,.cls-4,.cls-6,.cls-7,.cls-9{mix-blend-mode:multiply;}.cls-4{opacity:0.3;fill:url(#_282);}.cls-5{fill:url(#_20);}.cls-6{opacity:0.8;fill:url(#_44);}.cls-13,.cls-7{fill:#8e37e2;}.cls-7{opacity:0.4;}.cls-8{fill:#7c56b8;}.cls-9{fill:#9b9be6;opacity:0.73;}.cls-10{fill:#9c0360;}.cls-10,.cls-13,.cls-20{opacity:0.6;}.cls-11,.cls-14,.cls-16,.cls-17,.cls-18{opacity:0.5;}.cls-11{fill:url(#_25);}.cls-12{fill:url(#_43);}.cls-14{fill:url(#_16);}.cls-15{fill:url(#_3);}.cls-16,.cls-17{mix-blend-mode:screen;}.cls-16{fill:url(#_154);}.cls-17{fill:url(#_154-2);}.cls-18{fill:#bc478f;}.cls-19{fill:url(#_6);}.cls-20{fill:url(#_16-2);}</style><linearGradient id="_24" x1="1745.05" y1="213.52" x2="0" y2="213.52" gradientUnits="userSpaceOnUse"><stop offset="0" stop-color="#cc572d"/><stop offset="1" stop-color="#b63522"/></linearGradient><linearGradient id="_282" x1="872.53" y1="124.16" x2="872.53" y2="233.08" gradientUnits="userSpaceOnUse"><stop offset="0" stop-color="#fd916a"/><stop offset="1" stop-color="#880050"/></linearGradient><linearGradient id="_20" y1="120.86" x2="1745.05" y2="120.86" gradientUnits="userSpaceOnUse"><stop offset="0" stop-color="#ffa450"/><stop offset="1" stop-color="#f1773a"/></linearGradient><radialGradient id="_44" cx="872.53" cy="123" r="617.17" gradientUnits="userSpaceOnUse"><stop offset="0" stop-color="#880050"/><stop offset="1" stop-color="#fd916a"/></radialGradient><linearGradient id="_25" y1="213.51" x2="1745.05" y2="213.51" gradientUnits="userSpaceOnUse"><stop offset="0" stop-color="#69006a"/><stop offset="0.09" stop-color="#84256f"/><stop offset="0.22" stop-color="#a75575"/><stop offset="0.34" stop-color="#c0787a"/><stop offset="0.43" stop-color="#cf8d7d"/><stop offset="0.5" stop-color="#d5957e"/><stop offset="0.56" stop-color="#d18f7e"/><stop offset="0.65" stop-color="#c67e7d"/><stop offset="0.75" stop-color="#b3637c"/><stop offset="0.86" stop-color="#993c7b"/><stop offset="0.97" stop-color="#780b79"/><stop offset="0.99" stop-color="#700079"/></linearGradient><radialGradient id="_43" cx="880.6" cy="211.23" r="392.33" gradientUnits="userSpaceOnUse"><stop offset="0" stop-color="#9d311e"/><stop offset="0.99" stop-color="#77091f"/></radialGradient><linearGradient id="_16" x1="872.53" y1="242.16" x2="872.53" y2="124.18" gradientUnits="userSpaceOnUse"><stop offset="0" stop-color="#f69b7b"/><stop offset="1" stop-color="#9c0360"/></linearGradient><radialGradient id="_3" cx="572.04" cy="124.57" r="41.23" gradientUnits="userSpaceOnUse"><stop offset="0" stop-color="#ff7b3e"/><stop offset="0.52" stop-color="#e73824"/><stop offset="0.81" stop-color="#db1918"/><stop offset="0.96" stop-color="#e65b8c"/></radialGradient><linearGradient id="_154" x1="578.12" y1="95.29" x2="578.12" y2="130.22" gradientUnits="userSpaceOnUse"><stop offset="0.01" stop-color="#f1a640"/><stop offset="1"/></linearGradient><linearGradient id="_154-2" x1="555.56" y1="123.1" x2="555.56" y2="149.59" xlink:href="#_154"/><linearGradient id="_6" x1="528.3" y1="139.17" x2="600.56" y2="139.17" gradientUnits="userSpaceOnUse"><stop offset="0" stop-color="#eebfd7"/><stop offset="1" stop-color="#d1b4ef"/></linearGradient><linearGradient id="_16-2" x1="568.13" y1="101.54" x2="557.33" y2="185.25" xlink:href="#_16"/></defs><g class="cls-1"><g id="Layer_2" data-name="Layer 2"><g id="Layer_1-2" data-name="Layer 1"><path class="cls-2" d="M1745.05,233v9.18L0,229V219.5c128.25-16.65,521.47-25.09,650.58-30.26q107.34-4.31,214.89-4.36c194.45-.08,389.5,6.69,582.5,30.79C1458.34,217,1734.7,231.47,1745.05,233Z"/><path class="cls-3" d="M1745.05,172.26v60.82c-12.42-1.5-290.83-16.48-303.27-17.82a5323.7,5323.7,0,0,0-570.2-30.35q-104.91,0-209.88,4.27C528.9,194.47,132,203.41,0,219.5V160.06s714.39-39.41,872.57-39.41C1012.36,122.28,1745.05,172.26,1745.05,172.26Z"/><path class="cls-4" d="M1745.05,189v44c-12.42-1.5-290.83-16.48-303.27-17.82a5323.84,5323.84,0,0,0-570.2-30.35q-104.91,0-209.88,4.27-41.38,1.65-82.76,3.8l-1.12.06-8,.43-1,.05C467,199,101.24,207.17,0,219.5V174.42s387-13.85,525.28-27l22.47-2.12,25.86-2.39,22.88-2.06c103.23-9.2,204.86-16.69,262.08-16.69,156.16,0,385.91,28.16,578.29,47.92C1450.94,173.53,1731,187.44,1745.05,189Z"/><path class="cls-3" d="M862.18,100.75l3.15,19.45-6.05,2.35,16.5.08-5.32-2.5q-1.25-9.67-2.5-19.35Z"/><path class="cls-3" d="M1178.93,113.65l3.54,25.06-6,3.07,16.51,0-5.37-3.2-2.88-24.95Z"/><polygon class="cls-3" points="1282.87 103.71 1284.26 146.31 1279.82 149.46 1294.74 151.74 1289.41 147.06 1288.44 104.95 1282.87 103.71"/><path class="cls-3" d="M559.73,111q1.75,12.64,3.53,25.3l-6,3.38,16.47-.7-5.36-3q-1.44-12.6-2.87-25.21Z"/><path class="cls-3" d="M470.19,106.23s1.93,23,2.94,39.46l-6,3.77c7.22,1.08,16.4-1.5,16.4-1.5l-5.24-2.27c-.79-16.38-2.52-40.24-2.52-40.24Z"/><path class="cls-5" d="M1745.05,127.57v17.65c-12.45-1-290.89-15.09-303.35-16q-284.46-20.88-570.12-20.76-104.77,0-209.59,2.91C529.25,115,132.4,121.2,0,132.1V114.45c122.09-9.36,508.6-12.94,631-15.5q120.27-2.52,240.62-2.46c193.12,0,386.48,3.43,579.17,16C1460.19,113.08,1735.61,126.86,1745.05,127.57Z"/><path class="cls-6" d="M1745.05,135.53v9.69c-12.45-1-290.89-15.09-303.35-16q-284.46-20.88-570.12-20.76-104.77,0-209.59,2.91C529.25,115,132.4,121.2,0,132.1v-9.69s507.3-21.64,862.17-21.64S1745.05,135.53,1745.05,135.53Z"/><polygon class="cls-3" points="477.88 145.01 475.04 145.41 473.13 145.69 464.89 34.82 464.78 33.39 471.83 33.44 477.88 145.01"/><polygon class="cls-7" points="475.04 145.41 473.13 145.69 464.89 34.82 471.83 33.44 471.33 38.16 468.2 38.86 475.04 145.41"/><path class="cls-8" d="M488.75,17.82c0,.49,0,1-.09,1.45-1,8.83-9.74,15.72-20.37,15.64-11.2-.08-20.21-7.87-20.11-17.39a15.42,15.42,0,0,1,3.41-9.42h0A21.46,21.46,0,0,1,468.64.43C479.84.51,488.85,8.3,488.75,17.82Z"/><path class="cls-9" d="M488.66,19.27c-1,8.83-9.74,15.72-20.37,15.64-11.2-.08-20.21-7.87-20.11-17.39a15.42,15.42,0,0,1,3.41-9.42h0S481.8,32.19,488,20.32A12.13,12.13,0,0,1,488.66,19.27Z"/><path class="cls-3" d="M488,29.35l-.07,0c-.79.32-10.5,4.39-16.25,6.73a20.78,20.78,0,0,1-6.86,0c-5.67-2.41-15.19-6.59-16-7l-.08,0h0l3.92-.6c10.74,2.14,15.69,1.71,15.69,1.71s4.93.51,15.71-1.48Z"/><path class="cls-7" d="M488,29.38c-.79.32-10.5,4.39-16.25,6.73a20.78,20.78,0,0,1-6.86,0c-5.67-2.41-15.19-6.59-16-7a59.55,59.55,0,0,0,19.5,3.59A62.71,62.71,0,0,0,488,29.38Z"/><polygon class="cls-3" points="1284.33 147.26 1287.16 147.66 1289.06 147.93 1287.44 35.01 1287.43 33.54 1280.51 33.62 1284.33 147.26"/><polygon class="cls-7" points="1287.16 147.66 1289.06 147.93 1287.44 35.01 1280.51 33.62 1281.41 38.43 1284.55 39.13 1287.16 147.66"/><path class="cls-8" d="M1262.54,17.79a12.1,12.1,0,0,0,.21,1.47c1.71,9,10.94,16,21.36,15.85,11-.13,19.15-8.09,18.22-17.78a17.44,17.44,0,0,0-4.17-9.59h0A22.65,22.65,0,0,0,1280.75,0C1269.76.13,1261.61,8.09,1262.54,17.79Z"/><path class="cls-9" d="M1262.75,19.26c1.71,9,10.94,16,21.36,15.85,11-.13,19.15-8.09,18.22-17.78a17.44,17.44,0,0,0-4.17-9.59h0s-27.55,24.66-34.7,12.59C1263.22,19.93,1263,19.57,1262.75,19.26Z"/><path class="cls-3" d="M1264.25,29.52l.07,0c.8.33,10.69,4.43,16.54,6.79a12,12,0,0,0,3.4.26,11.56,11.56,0,0,0,3.33-.33c5.36-2.48,14.33-6.77,15.14-7.15l.07,0h0l-3.91-.6c-10.36,2.22-15.25,1.8-15.25,1.8s-4.79.54-15.56-1.44Z"/><path class="cls-7" d="M1264.32,29.55c.8.33,10.69,4.43,16.54,6.79a12,12,0,0,0,3.4.26,11.56,11.56,0,0,0,3.33-.33c5.36-2.48,14.33-6.77,15.14-7.15a53.71,53.71,0,0,1-18.83,3.74A62,62,0,0,1,1264.32,29.55Z"/><path class="cls-8" d="M1745.05,189v10.65c-68.71-10.65-838-64.08-873.47-64.08-25.27,0-646.15,17.62-871.58,50.47V174.42s779.94-50.24,867.53-50.24C943.87,124.18,1745.05,189,1745.05,189Z"/><path class="cls-10" d="M573.61,142.91a13.57,13.57,0,0,1-25.86,2.39l-22.47,2.12a35.79,35.79,0,0,0,3,8.68l-.41.09c.23,1,5.79,23.87,18.69,30.82,3.09,1.67,5.88,2.09,8.31,1.26,4.3-1.47,6.48-6.38,7.91-9.63a13.23,13.23,0,0,1,1.23-2.42,18.16,18.16,0,0,1,.76,3.91c.55,4.05,1.37,10,4.06,13.39a6.53,6.53,0,0,0,5,2.68H574a5.73,5.73,0,0,0,3.86-2,13.24,13.24,0,0,0,1.09-1.22c8.45-10.34,17.3-43.16,17.55-52.13ZM562,178.31c-1.38,3.11-3.47,7.83-7.42,9.18-2.21.76-4.78.35-7.66-1.2-10.58-5.7-16.25-23.08-17.82-28.59A35.77,35.77,0,0,0,560.31,176c1,0,2-.05,3-.13A14,14,0,0,0,562,178.31ZM577.82,193c-.19.21-.37.39-.55.57a4.86,4.86,0,0,1-3.37,1.77,5.61,5.61,0,0,1-4-1.91c-2.88-3.11-3.73-9.31-4.3-13.45-.31-2.31-.51-3.73-.93-4.33a35.77,35.77,0,0,0,28.87-22.18C590.27,167.19,583.88,186.31,577.82,193Z"/><path class="cls-11" d="M1745.05,233v9.18l-310-13.13S1152,194.71,856.79,194.71c-239,0-472.14,27.2-530.66,34.32H0V219.5c128.25-16.65,746.13-35.21,867.53-34.62,110.88.54,387.44,6.69,580.44,30.79C1458.34,217,1734.7,231.47,1745.05,233Z"/><polygon class="cls-7" points="846.32 194.81 814.96 229.03 814.11 229.03 846.32 194.81"/><polygon class="cls-7" points="783.99 194.81 725.93 229.03 724.68 229.03 783.99 194.81"/><polygon class="cls-7" points="710.34 196.88 610.52 229.03 607.72 229.03 710.34 196.88"/><polygon class="cls-7" points="604.28 200.55 474.5 229.03 469.49 229.03 604.28 200.55"/><polygon class="cls-7" points="952.42 229.03 951.57 229.03 920.25 194.81 952.42 229.03"/><polygon class="cls-7" points="1041.84 229.03 1040.61 229.03 984.78 196.09 1041.84 229.03"/><polygon class="cls-7" points="1158.77 229.03 1156.05 229.03 1063.73 199.27 1158.77 229.03"/><polygon class="cls-7" points="1296.93 229.03 1292.13 229.03 1176.46 203.61 1296.93 229.03"/><polygon class="cls-7" points="877.81 229.03 877.17 229.03 875.34 194.88 877.81 229.03"/><path class="cls-12" d="M1435,229c-.73-.08-74.8-8.66-180-17.13-97.14-7.81-241.46-17.13-377.37-17.13S599,204.09,503.23,211.9c-103.76,8.47-176.3,17-177,17.13l-.16-1.34c.72-.08,73.28-8.66,177.06-17.13,95.79-7.82,238.51-17.14,374.46-17.14s280.32,9.32,377.49,17.14c105.27,8.47,179.35,17.05,180.09,17.13Z"/><polygon class="cls-13" points="863.95 111.69 869.25 110.78 868.95 108.45 863.43 108.46 863.95 111.69"/><polygon class="cls-13" points="1179.02 114.29 1179.65 118.72 1185.3 118.72 1184.84 114.68 1179.02 114.29"/><polygon class="cls-13" points="566.79 122.06 561.53 123.89 560.22 114.68 565.92 114.46 566.79 122.06"/><path class="cls-14" d="M0,174.42s779-50.24,867.53-50.24c69.53,0,877.52,64.86,877.52,64.86v53.12S988.4,190.85,863.84,190.85C761.35,190.85,31,229,31,229H0Z"/><path class="cls-15" d="M564.37,93.73a35.78,35.78,0,1,0,35.77,35.77A35.77,35.77,0,0,0,564.37,93.73ZM550.8,129.5a13.49,13.49,0,0,1,3.71-9.31h0a13.59,13.59,0,1,1-3.71,9.32Z"/><path class="cls-16" d="M558.2,96.19c-.22.35.55,8,3.15,10.15s22.41,3.73,25.77,22.2c.55,3,9.84,2,10.83-3.15s-4.31-18.34-13.84-24.26S559.43,94.28,558.2,96.19Z"/><path class="cls-17" d="M549.79,123.15s-8.31,13.61-1.46,22.66c5.67,7.5,19.56,1.83,16.82,0s-7.12-2-11.52-6C547.05,133.75,552.17,122.24,549.79,123.15Z"/><path class="cls-18" d="M562.61,109.59a18.66,18.66,0,0,0-2.86,7.15,9.21,9.21,0,0,1,4.62-.81,22.28,22.28,0,0,1,5.41,1.13s-1.39-5.27-2.69-7S562.61,109.59,562.61,109.59Z"/><path class="cls-3" d="M564.75,108s-3.14-.72-3.31,8.28v2.42h6.63v-2.42C567.89,107.25,564.75,108,564.75,108Z"/><path class="cls-3" d="M542,103.46a15.14,15.14,0,0,0-6.35,7.71s3.86,5.9,15,10.89l4.76-4.87S549.68,107.09,542,103.46Z"/><path class="cls-18" d="M542,103.46a13.91,13.91,0,0,1,7.6,3.82c3.86,3.55,6.7,9.91,6.7,9.91l-5.67,4.87,4.31-4.65s-4-10.58-13.47-13.63Z"/><path class="cls-3" d="M583.21,102.42a14.22,14.22,0,0,1,6.72,6.54s-3,5.91-12.86,11.71l-4.94-4.07S576.38,106.6,583.21,102.42Z"/><path class="cls-18" d="M583.21,102.42a13,13,0,0,0-6.7,4.35c-3.24,3.71-5.23,9.93-5.23,9.93l5.79,4-4.5-3.9s2.67-10.28,11.17-14.1Z"/><path class="cls-3" d="M540.86,154.42a14.46,14.46,0,0,0,7.87,5.37s5.27-4.17,9.06-15.16l-5-4.11S543.64,146.78,540.86,154.42Z"/><path class="cls-18" d="M540.86,154.42a13.24,13.24,0,0,1,3-7.55c3-4,8.83-7.21,8.83-7.21l5.12,5-4.79-3.7s-9.7,4.73-11.78,14Z"/><path class="cls-3" d="M594.26,146.1a15.21,15.21,0,0,1-6.15,7.9s-6.61-2.48-13.92-12.26l3.73-5.72S589,139.36,594.26,146.1Z"/><path class="cls-18" d="M594.26,146.1a14,14,0,0,0-5.4-6.59c-4.31-3-11.14-4.38-11.14-4.38l-3.53,6.61,3.6-5.23s11.22,1.62,16.27,10.19Z"/><path class="cls-19" d="M578.05,185.52h-.13c-6.94-.27-8.3-10.17-9.11-16.08a17.71,17.71,0,0,0-.75-3.9,13.41,13.41,0,0,0-1.23,2.41c-1.44,3.25-3.61,8.16-7.91,9.63-2.43.84-5.23.41-8.32-1.25-12.9-7-18.45-29.85-18.68-30.82l.8-.19c.06.23,5.7,23.51,18.27,30.29,2.88,1.55,5.46,1.95,7.66,1.2,4-1.36,6.05-6.07,7.43-9.19.81-1.84,1.26-2.85,1.94-2.94,1-.12,1.16,1.37,1.61,4.65.77,5.66,2.07,15.12,8.32,15.36a4.84,4.84,0,0,0,3.38-1.76c8.82-8.74,18.56-45,18.4-53.32a5.8,5.8,0,0,0-3.24-2.49c-2.46-.78-5.55-.18-9.17,1.78a6.57,6.57,0,0,1-6,.38c-7.64-3.26-13.29-20.6-17.37-35.36a60.78,60.78,0,0,0-1.83,6.42c-3,11.55-8.48,33-19.27,35.88-4.46,1.17-9.37-1-14.59-6.43l.59-.57c5,5.21,9.64,7.3,13.79,6.21,10.32-2.71,15.76-23.91,18.68-35.29,1.57-6.12,1.94-7.32,2.69-7.32h0c.49,0,.65.58.71.8,3.71,13.47,9.51,31.74,16.93,34.9a5.72,5.72,0,0,0,5.24-.34c3.83-2.08,7.14-2.69,9.83-1.84a6.41,6.41,0,0,1,3.75,3l0,.08v.09c.24,8.19-9.67,45.13-18.64,54A5.75,5.75,0,0,1,578.05,185.52Z"/><path class="cls-20" d="M600.55,129.49v-.09l0-.08a4.16,4.16,0,0,0-.39-.61,35.76,35.76,0,0,0-35.32-35l0-.12c-.06-.22-.22-.8-.71-.8h0c-.32,0-.57.22-.87.94a35.77,35.77,0,0,0-34.59,35.74h0l-.29.29c.1.11.2.2.31.31a35.56,35.56,0,0,0,3.72,15.31l-.41.1c.23,1,5.78,23.87,18.68,30.82,3.09,1.66,5.89,2.09,8.32,1.25,4.3-1.47,6.47-6.38,7.91-9.63a13.41,13.41,0,0,1,1.23-2.41,17.71,17.71,0,0,1,.75,3.9c.81,5.91,2.17,15.81,9.11,16.08h.13a5.75,5.75,0,0,0,3.86-2C590.88,174.62,600.79,137.68,600.55,129.49Zm-36.18,13.58a13.58,13.58,0,0,1-12.78-9,13.29,13.29,0,0,1-.78-4.05,51.58,51.58,0,0,0,6-11.78,13.42,13.42,0,0,1,4.65-2v2.42h6.63v-2.12c1,.25,1.64.48,1.7.5a13.14,13.14,0,0,1,2.89,1.72,33.38,33.38,0,0,0,4.92,7.64,13.56,13.56,0,0,1-13.21,16.66Zm12.51-18.82a32.91,32.91,0,0,1-2.37-3.76A13.45,13.45,0,0,1,576.88,124.25Zm-21.33-5.06a51.15,51.15,0,0,1-4.72,9.39,13.52,13.52,0,0,1,3.68-8.39h0A13.85,13.85,0,0,1,555.55,119.19Zm10.53,48.43c-1.38,3.12-3.47,7.83-7.43,9.19-2.2.75-4.78.35-7.66-1.2-10.57-5.71-16.25-23.08-17.82-28.6a35.77,35.77,0,0,0,31.2,18.27c1,0,2-.06,3-.14A14,14,0,0,0,566.08,167.62Zm15.25,15.31a4.84,4.84,0,0,1-3.38,1.76c-6.25-.24-7.55-9.7-8.32-15.36-.32-2.3-.52-3.72-.94-4.32a35.79,35.79,0,0,0,28.88-22.18C594.23,156.92,587.55,176.77,581.33,182.93Z"/></g></g></g></svg>