<svg xmlns="http://www.w3.org/2000/svg" width="285.98" height="480.5" viewBox="0 0 285.98 480.5"><defs><style>.cls-1{fill:#a3d1ef;}.cls-1,.cls-10,.cls-11,.cls-12,.cls-13,.cls-14,.cls-15,.cls-16,.cls-17,.cls-18,.cls-19,.cls-2,.cls-20,.cls-21,.cls-22,.cls-23,.cls-24,.cls-25,.cls-26,.cls-3,.cls-4,.cls-5,.cls-6,.cls-7,.cls-8,.cls-9{fill-rule:evenodd;}.cls-2{fill:#c9c4b7;}.cls-4{fill:#f2eccf;}.cls-5{fill:#ede3c3;}.cls-6{fill:#e7ebee;}.cls-7{fill:#e1c213;}.cls-28,.cls-8{fill:#e2cc85;}.cls-9{fill:#e3dab6;}.cls-10{fill:#ece5c0;}.cls-11{fill:#c1a049;}.cls-12{fill:#84431d;}.cls-13{fill:#d9b84e;}.cls-14{fill:#523c2a;}.cls-15{fill:#0069ae;}.cls-16{fill:#eac39c;}.cls-17{fill:#7e9dcd;}.cls-18{fill:#e4d8b0;}.cls-19{fill:#f8e170;}.cls-20{fill:#d2af1e;}.cls-21{fill:#ded2a5;}.cls-22{fill:#cfc6a2;}.cls-23{fill:#cc976b;}.cls-24{fill:#ebd784;}.cls-25{fill:#e0d7b3;}.cls-26{fill:#fffce7;}.cls-27{fill:#cfb66c;}.cls-29{fill:#f1d789;}.cls-30{fill:#f4ecb4;}.cls-31{fill:#f3e19d;}.cls-32{fill:#f2e8b0;}.cls-33{fill:#f5eec0;}.cls-34{fill:#e6db9d;}.cls-35{fill:#e5cb7a;}.cls-36{fill:#d8c173;}.cls-37{fill:#dfc57c;}.cls-38{fill:#e5cc7c;}.cls-39{fill:#d2c281;}.cls-40{fill:#e2c270;}.cls-41{fill:#ccb360;}.cls-42{fill:#d5b457;}.cls-43{fill:#d2b257;}.cls-44{fill:#d2b159;}.cls-45{fill:#c2a44d;}.cls-46{fill:#caa13e;}.cls-47{fill:#b59544;}.cls-48{fill:#c89d3a;}.cls-49{fill:#cca847;}.cls-50{fill:#c0993a;}.cls-51{fill:#a88f33;}.cls-52{fill:#e3c571;}.cls-53{fill:#d8b65b;}.cls-54{fill:#d3ae4d;}.cls-55{fill:#f4efc8;}.cls-56{fill:#ebcc73;}.cls-57{fill:#e5c66b;}.cls-58{fill:#e6bd62;}.cls-59{fill:#b6933f;}.cls-60{fill:#c49937;}.cls-61{fill:#dfc068;}.cls-62{fill:#c99e3d;}.cls-63{fill:#b58634;}.cls-64{fill:#e6c367;}.cls-65{fill:#dcba5a;}.cls-66{fill:#e9ce77;}.cls-67{fill:#cdae50;}.cls-68{fill:#d2a83e;}.cls-69{fill:#c29637;}.cls-70{fill:#ac8132;}.cls-71{fill:#a67a2e;}.cls-72{fill:#8c6228;}.cls-73{fill:#cba94c;}.cls-74{fill:#be9c44;}.cls-75{fill:#a17c34;}.cls-76{fill:#92723a;}.cls-77{fill:#b18e3e;}.cls-78{fill:#543e26;}.cls-79{fill:#806031;}.cls-80{fill:#b6903c;}.cls-81{fill:#685026;}.cls-82{fill:#d4b968;}.cls-83{fill:#cca849;}.cls-84{fill:#585136;}.cls-85{fill:#252211;}.cls-86{fill:#c3b378;}.cls-87{fill:#e6d89c;}.cls-88{fill:#6f674d;}.cls-89{fill:#ac924c;}.cls-90{fill:#9f8e57;}.cls-91{fill:#eac970;}.cls-92{fill:#d7bc6b;}.cls-93{fill:#453a25;}.cls-94{fill:#84754b;}.cls-95{fill:#f7f7e7;}.cls-96{fill:#f8f6de;}.cls-97{fill:#d4c38b;}.cls-98{fill:#e2d59d;}.cls-99{fill:#cbac5a;}.cls-100{fill:#d6bc6f;}.cls-101{fill:#dfc677;}.cls-102{fill:#c4a859;}.cls-103{fill:#927d49;}.cls-104{fill:#6e6342;}.cls-105{fill:#39331f;}.cls-106{fill:#292311;}.cls-107{fill:#3f3824;}.cls-108{fill:#2d2815;}.cls-109{fill:#82764f;}.cls-110{fill:#2d2816;}.cls-111{fill:#574f35;}.cls-112{fill:none;}.cls-113{fill:#dec270;}.cls-114{fill:#cbaf59;}.cls-115{fill:#e3c677;}.cls-116{fill:#ecd592;}</style></defs><g id="Layer_2" data-name="Layer 2"><g id="Layer_1-2" data-name="Layer 1"><path class="cls-1" d="M106.1,279.13q21.09,2.63,42.19,5.14c30.34,3.6,60.64,7.27,90.74,12.78q8.68,1.59,17.27,3.4c-11-1.35-22-2.61-33-3.91q-52.57-6.26-105.22-12l-11.94-1.27C106.17,281.89,106.14,280.51,106.1,279.13Z"/><path class="cls-2" d="M0,456.79c0,13.1,56.72,23.71,126.67,23.71s126.67-10.61,126.67-23.71-56.71-23.71-126.67-23.71S0,443.69,0,456.79Z"/><path class="cls-3" d="M68.05,225.15s-.17-26.77.48-36.07C69.84,170.38,72,152,76,133.69c1.58-7.17,2.6-15.81,5.43-22.58,2-4.69,9.2-7.79,37.05-11.57,6.67-.91,24.84-2.92,24.84-2.92l72.76,5.29s11.19,7.34,20.23,14.65A256.68,256.68,0,0,1,270.9,150c4.66,5.56,9.72,11.43,12.67,16.14,3.61,5.78,2.53,7.1.9,13.18-4.67,17.41-9.11,35.72-14.38,53-2.72,8.91-6.11,17.54-9,26.37-2.38,7.29-11,21.93-11,21.93s4.77,7.4,5.2,21.89a36.52,36.52,0,0,1-4.71,19.12,57.44,57.44,0,0,1-5.49,7.41s-1.36,26.23-3.84,44.52-8.42,54.53-10.78,66.1a24.64,24.64,0,0,1-8,2.45s.52,5.22-.82,9c-1.69,4.72-5.06,7.91-7.75,8.62s-19.54-1.89-24.66-3.11c-11.84,6.18-25.64,9.13-43.72,9.72s-46.49.12-46-8.85c-4.5,1.08-15.53,1.71-19.09-1.3-6.18,3.07-13.34,6.9-21.9,7.9-9,1.07-19.62,1.16-26.72-.7-3.14-.83-4.16-3.31-3.36-4.76-1.81-1.14-5.51-3.5-2.25-7.16,1.64-1.85,8.55-6.5,16.17-10.27A142.13,142.13,0,0,1,62,433.41,121.86,121.86,0,0,0,77.2,428c-1.47-5.66,11.79-90.29,18-118.38-15.72-20.56-13-43.74-11.24-52.76-3.76-.81-9.49-4.67-11.74-6.66-6-5.32-3.79-15.55-4.08-22.75"/><path class="cls-4" d="M116.52,212.48c-1-12.78-6.11-33.27-7-34.75s-18.92,24.05-26.08,31.1a9,9,0,0,1-2.31-2,54,54,0,0,0,4.16-4.62c.59-14.23,1.48-29.59,2.32-43.78.11-1.82.19-7.29,1.09-9.09,1.27,1.48.63,7.23.53,8.84-.87,13.4-1.76,28.79-2.08,43.06,7.91-12.4,22.24-29.08,23.27-28.68s3,9.45,3,9.45a59.57,59.57,0,0,1,8.79-1.57,11.17,11.17,0,0,0,1.47-8.15c-.75-4-5.39-5.94-5.32-8.75.07-3.09,3.29-5.1,7.52-4.16-3-5.11-7-9.53-9.84-14.57,2.92-6.28,14.19-7.76,19.82-8.7-1.28-4.83-2.34-9-2-13.59a44.29,44.29,0,0,1,10.8,1.05c.22-4.72,2.81-14.16,2.81-14.16L143.62,99S97.81,105,91.53,107.4c-3,1.12-6.38,2.12-7.63,3.89-1.53,2.14-2.41,7.82-3.47,11.92a305.83,305.83,0,0,0-7.64,38.67c-1.31,10.49-2.67,25.92-3,41.33-.26,14.23.48,28.84.42,30.4-.16,4.42-.1,8.78,1.38,11.46,1.11,2,11.28,7.86,13.42,7.3,3.38-14.06,12.6-25.5,21.06-32.35A99.34,99.34,0,0,1,116.52,212.48Z"/><path class="cls-4" d="M195.59,160.67c1.76,1.37,12.71,8.51,12.71,8.51s-19.54,33.63-34.16,46c16.19,6.31,32.36,20.83,37.26,25.3,1.34-.12,14.75-22.41,19.92-34.8,4.85-11.66,15-39.31,16.39-43,1.57,1.88-2.25,13.8-6.29,24s-11.23,28.91-21,45-21.91,31.54-32.4,46.05c-1.7,2.35-3.71,4.55-5.56,6.81s-9.95,10.95-9.95,10.95,5.36,5.26,6.95,6.57a136.49,136.49,0,0,0,15.27,11.19c3.73,2.34,13.87,10,16.2,10,1.76,0,5.87-3.64,8.1-5.6,12.32-10.83,20.93-24.36,29.61-38.67,2.66-4.37,4.74-8.71,7.18-13.62a90.71,90.71,0,0,0,5.32-12.16c2.59-7.7,5.31-15.71,8.1-23.84a161.65,161.65,0,0,0,4.5-16.39c.7-3.06,3.63-14.7,4.29-17.42.92-3.73,6.31-22.16,6.25-23.35-.08-1.71-4.13-7-6-9.73-10.22-15-28.87-32.53-39.11-41a269.6,269.6,0,0,0-23.52-16.87s-3.41,10.87-9.79,14.34C204.58,121.62,198.14,150.91,195.59,160.67Z"/><path class="cls-5" d="M149.38,112.75c-1.61,3.55-2,6.87-2.84,11.22,1,.71,2.58,1.29,2.84,2.89-3.85-.76-11.91-2.6-13.42-2.19a35.8,35.8,0,0,0,1.71,11.49c2.12.08,5-.85,6.39.67a20.84,20.84,0,0,1,.26,4.71s6.15,1.53,9.69,2.59a130.29,130.29,0,0,0,3.11-23.71C152.13,117.73,149.46,112.75,149.38,112.75Z"/><path class="cls-5" d="M170.34,213c2.68,1.44,4.28-1.11,5.66-2.68,4.62-5.25,8.2-10.66,13.19-16.78s15.71-24.29,15.71-24.29-12.6-7.26-14.79-8.65c.56-1.53,2.13-1.77,3.93-1.84,2.74-12.28,8.43-36.09,8.42-36.4-4.38,3-9.21,4.13-14.2,4.78C187,135.77,175.54,190.17,170.34,213Z"/><path class="cls-6" d="M159.8,122c-.88,6-2.29,15.43-4.09,22.65,1.55,1.39,2.69,2.42,2,6.3-.46,2.57-1.86,4.46-3.7,6.57-1.11,5.42-2.39,12.28-3.47,16.78a8.31,8.31,0,0,1,2.78,4.14c5-16.84,14.42-42.14,15.71-44.56-1.41-2.42-3.16-5.52-3.22-9.2A19.53,19.53,0,0,1,159.8,122Z"/><path class="cls-6" d="M176.46,173.56c3.35-14.47,6.88-30.06,8.56-45.49a26.85,26.85,0,0,1-5.79-.48,16.68,16.68,0,0,1-5.78,6.57C175.29,143.7,175.93,163.41,176.46,173.56Z"/><path class="cls-7" d="M137.81,179.15c1.61.66,3.39-.45,4.17-1.45a35.49,35.49,0,0,1,7.63-18.49c2.9-3.5,10.09-9.63,4.17-13.14a23.78,23.78,0,0,0-9.26-2.91c-.83,5,.8,12.5-2.54,14.83-.26-2.29.64-6.42.46-10.7-.12-2.9-.07-7.16-.23-8.76-2.93-.64-8.34.53-13.19,1.22-2.7.38-10.1,3-10.41,5.35C127.3,157.55,136.66,173.45,137.81,179.15Z"/><path class="cls-5" d="M151.93,159.45c-3.08,3.34-6.09,8-6.94,12.89,1.13.14,3.14.43,3.93,1.46C150.12,169.23,151,164.29,151.93,159.45Z"/><path class="cls-8" d="M123,182.07c-3.6.19-6.92.67-9.25,2.19.77,8.52,3.15,17.43,4.63,26,5.23,3.13,11.49,4.74,19.51,4.14,5.31-.4,12.07-3.33,14.75-4.68s3.43-3.41,3.92-5.53c.71-3.15-2.13-4.28-2.38-5.9s1.88-3.06,1.68-5.29c-.29-3.41-6.35-3.79-6.71-6.57-.19-1.51,2.2-3.57,2.31-5.11.23-3-2.3-6.28-5.08-6.32-1.6,3-3.19,5.3-7.18,6.32-1.85.48-5.32,2-6.65.43,0-1.75,2.43-4.18,1.79-6.6s-5.74-13-9.6-13.58c-1.91-.29-4.35-.14-4.28,2,0,1.36,2,3.46,2.77,4.62C125.69,171.84,126.61,177.79,123,182.07Z"/><path class="cls-7" d="M156.87,209.21a217.72,217.72,0,0,1,22.46,11c13.58,7.55,27.57,18.85,30.91,23-5.56,8.76-12.05,17.5-18.74,26.51-3,4.09-6.31,8.23-9.95,12.65-2.48,3-10.64,11.83-10.64,11.83s-8-1.39-13.43.09c-2.2.61-4.74,1.64-5.32,3.65,0,1.19,2.29,2.66,2.29,2.66s-14.71,2.72-11.68,9.44c1.29,2.88,3.7,3.31,8.08,3.31-2.64.78-5.62,2.79-4.49,5.43,2.55,5.95,13.25,3.18,15.5,2.71-2.81,2.6-9.66,6.38-4.16,9s16.44-3.09,16.44-3.09-5.21,3-4.08,5.1,5.16,2.48,11.56,2,16.84-3.08,23.07-11.49c2,1.22,4.47,2.92,7.63,3.17C230.91,313,242.59,293,248.89,283.25c3,5.12,3.94,12,4.16,19,.31,10-2.71,16.46-7.65,22.48S223.62,343,209.31,343.82c-8.6,6.94-26.95,8.78-39.08,7.13s-24.95-6.56-36-12c-9.67-4.76-28.25-20.13-37.57-35.24-15.11-24.5-11.29-44.17-6.44-56.92,3-7.81,8.51-15.79,14.7-22a108.43,108.43,0,0,1,13.14-11C127.12,218,149.57,217.68,156.87,209.21Z"/><path class="cls-8" d="M154.71,297.61c-.08,3.24,4.06,2.05,6.48,2.67-.31,1.76-14.5,2.91-16.06,7.67s8,3.3,12.81,3.28c-2.15,3.56-11.24,3.33-9.44,7.46s13.25.12,18,1.05c-.52,2-4.12,3.7-6.45,5.32-1.45,1-2.74,1.92-1.46,3.19,1.87,1.85,6.27.58,10.78-.95,3.57-1.2,7-2.59,10.09-2.69-1.56,3.52-9.18,4.44-6.72,7.05s11.45.48,15.83-.93,11.23-6.49,13.33-9.53c-9.84-4.28-25.23-16.32-33.32-25.78C163.41,295.56,158.08,295.56,154.71,297.61Z"/><path class="cls-9" d="M98,312.83c12.58,15.83,32.84,33.3,53.05,37.63C149,363.25,139.71,420,138.39,426.4c-22.68,9.1-57.74-1.09-58-1.09C81.73,408.4,96,328.3,98,312.83Z"/><path class="cls-10" d="M140.41,433.06c24.37,9.2,59.4,11.68,87.65,4.65.36-4.84,6.22-40.79,8.79-55,3-16.68,4.89-42.67,5.63-51.31-9.54,12.51-32.63,16-32.68,15.94s-16.66,15.84-54.39,4.4C149.58,379.44,143.92,403.74,140.41,433.06Z"/><path class="cls-11" d="M77.65,430.9a55.13,55.13,0,0,0-11.34,3.65c4.49,3,8.86,11.61,11.34,18.73,4.1-1.76,15.83-2.28,24.06-2.19,6.25-4.7,10.63-6.82,19.16-9.89,5.13-1.84,9.66-3.07,15.79-4.71a9.46,9.46,0,0,1-.74-5.32C119.42,435.77,86,433.77,77.65,430.9Z"/><path class="cls-12" d="M62.15,436.24c5.28,4,8.76,9.33,11.34,17.59a4.18,4.18,0,0,0,1.91-.59c-1.69-6.3-6.28-14.27-10.67-17.94C64.67,435.25,62.6,434.83,62.15,436.24Z"/><path class="cls-12" d="M38,446c-4.88,2.86-9.62,6.63-10.22,7.43-1.57,2.13,1.17,3.11,3.37,3.9s20,.82,26.5,0,12.42-1.51,14.67-3.12c-1-5.16-8.27-15.06-14.12-17.76C55.88,436.9,46.07,441.31,38,446Z"/><path class="cls-13" d="M137.15,438.2a80.62,80.62,0,0,1,10.73,11.05c1.91,2.46,4.73,7.18,6.59,9.86,14-.21,32.25.48,38.65-9.24,7.59,1.71,16.77,2.08,24.88,2.31,1.72-1.7,2.16-6.68.79-9.33-16.62,5-50.87,4.72-75.19-4.9A8.49,8.49,0,0,0,137.15,438.2Z"/><path class="cls-12" d="M132.3,440.16c2.38.94,7.83,5.6,10.59,8.46,2.18,2.28,5.38,7.1,7.18,9.69.39-3.78-3-7.59-5.08-10.39-3-3-7.25-7.84-9.11-8.54A3.63,3.63,0,0,0,132.3,440.16Z"/><path class="cls-12" d="M147.71,458.67c-3.82-6.49-9.88-13.7-15.68-17.31-10.48.55-31.9,11.13-29.39,13.86S136,461,147.71,458.67Z"/><path class="cls-14" d="M193.64,451.47s-.64,2-1,3.1c4.8,1.78,18.36,2.56,19.82,2.33s3.18-2,4.38-3.54C210.93,453.71,193.64,451.47,193.64,451.47Z"/><path class="cls-14" d="M81.8,454.66c.81.92,3.59,1.41,6.17,1.41a38.74,38.74,0,0,0,11.23-1.18,3.41,3.41,0,0,1-.11-1.77S83.27,452.91,81.8,454.66Z"/><path class="cls-14" d="M29.7,459.37c-.56,2.95,10.44,3.92,22,3.31s17.84-2.9,20.88-6a94.15,94.15,0,0,1-22.12,3.19C40.35,460.22,33,460,29.7,459.37Z"/><path class="cls-14" d="M119.53,461a93.27,93.27,0,0,1-17.63-2.95c-.11,2.12,3.34,4.21,15,5.55,14.49,1.65,32,.32,35.15.11,5.28-.35,11.32-1.25,13.81-2.71-7,.23-14.94.15-22.79.47A216.21,216.21,0,0,1,119.53,461Z"/><path class="cls-15" d="M170.81,136.16c2.18,8.34,3.29,37.29,3.08,42.37-.43,10.17-2.91,26.12-5.57,33.37-2.53-1.1-9.92-4.58-9.92-4.58a7.92,7.92,0,0,0,.77-4c-.25-2-2.94-4-2.94-5.12s3.45-5.38.25-8.47c-1.67-1.62-4.35-2.15-3.84-4.31S166.21,144.77,170.81,136.16Z"/><path class="cls-15" d="M176.45,127.41s-2.36-.53-4.1-.94a24.82,24.82,0,0,1-4.73-1.75s.89,7.67,3.58,8.07S177.86,127.68,176.45,127.41Z"/><path class="cls-3" d="M117.12,244.84s5.62-13.82,16.34-13.59c14,.29,20.26,8.75,17.53,18.22-2.87,9.94-13.14,9.73-15.11,19.33-1,4.69,5.58,12.26,15.45,10s11-12.62,11-12.62l8.47,1.6s-3.5,19.57-22.69,18.1-21.66-12.95-18.82-21.11c3.53-10.16,24-15.93,10.77-25.84-10.89-8.18-16.25,8.59-16.25,8.59Z"/><path class="cls-3" d="M124.14,227.46l-5.2,2.92A112.91,112.91,0,0,1,139,256.24a267.06,267.06,0,0,1,15.25,33.51l5.89-1.09s-9.22-23.49-16.64-35.33A217.74,217.74,0,0,0,124.14,227.46Z"/><path class="cls-16" d="M116.16,184.07s-1.8,0-1.8.87a98.25,98.25,0,0,0,1.8,11.53c1.14,5.5,2.62,11.34,2.62,11.34s0-8.94-.17-13.41S118.28,183.91,116.16,184.07Z"/><path class="cls-17" d="M167.21,149.68c-1.06,4.27-4.91,13.59-6.54,20.29s-2.3,13.59-1.15,16.17c.63,1.42,2.72,7.7,4.25,5.85,1.27-1.52,2-10.41,2.46-16C167.21,163.61,169,142.46,167.21,149.68Z"/><path class="cls-18" d="M240,180.81s-7.86,21.67-13.59,33-15.05,25.62-15.05,25.62a89.24,89.24,0,0,0-7-6.19c-2.62-1.9-3.77-2.75-4.1-3.61s13.91-17.55,19.48-25.46S245.59,168.25,240,180.81Z"/><path class="cls-18" d="M197.65,187.69s-12,15.65-14.89,19.44a70,70,0,0,1-7.69,7.91s2.12.86,4.74,2.24,3.6,1.89,4.25,1.37S197.65,187.69,197.65,187.69Z"/><path class="cls-18" d="M95.21,188.72s-3.6,4.47-5.07,6.71-2.46,4.13-2.46,4.13.5-14.28.82-19.95S96.85,186.31,95.21,188.72Z"/><path class="cls-19" d="M134.32,140.05c-2.47.4-11.62,2.58-12.27,4.64s1.47,5.33,3.11,5.68,9-3.79,10.63-5.33S138.58,139.36,134.32,140.05Z"/><path class="cls-19" d="M172.28,220.89c-3.69-1.25-11.45-3.44-17-1.38s4.26,14.62,19.81,17.72S196.17,229,172.28,220.89Z"/><path class="cls-19" d="M95.7,241.36c-2.18,3.73-6.54,16.51-6.7,23.39s5.89,4.81,8.67-5.33S102.25,230.18,95.7,241.36Z"/><path class="cls-20" d="M105.52,311.19c8,8.86,25.86,16.33,29.29,13.93s-1-10.84-13.74-21S101.43,289,96.85,289C92.63,289,97.34,302.07,105.52,311.19Z"/><path class="cls-20" d="M205.34,344.21c-3.22,2-12,5.67-23.24,5.85s-19.47-2.07-24.22-4.47-5.23-6.2,8.68-7.06S217.77,336.47,205.34,344.21Z"/><path class="cls-20" d="M220.72,339.74c4.74-1.89,19.47-10,24.22-16.17s5.88-10.84,5.23-14.62-11.95,1.89-18,7.23S207.3,345.07,220.72,339.74Z"/><path class="cls-21" d="M241.5,333.54s-6.71,8.26-16.86,11.35-14.23,2.93-14.23,2.93-7.36,8.09-25,9.12-29.12-4.13-29.12-4.13l-1.8,10.66s14.89,5.85,43.85,1,39.11-8.08,40.91-12.9S241.5,333.54,241.5,333.54Z"/><path class="cls-22" d="M149.7,351.26s-15-3.95-26.83-13.07-24.22-23.91-24.22-23.91l-1.8,14.62s5.23,12.9,23.4,23.05,27.81,11,28.14,9.63S149.7,351.26,149.7,351.26Z"/><path class="cls-23" d="M118,447.06c-5.4,1.55-9.33,5.33-9.49,6.19s8.34,1,12.92-2.06S123.36,445.51,118,447.06Z"/><path class="cls-23" d="M40.23,446.37c-4.56,2.12-7.52,5.51-7.69,7.22s7.2.18,12.6-3.26C49.3,447.68,49.89,441.9,40.23,446.37Z"/><path class="cls-23" d="M64.94,444.83a25.9,25.9,0,0,0-6.71-5.68c-1.47-.69-3.93,1.2-3.27,2.58s6.38,4.13,8.67,6.36S69.36,451,64.94,444.83Z"/><path class="cls-24" d="M146.27,444c1.16,1.35,5.4,6.36,7.52,8.25s7.37,2.75,9.65,2.75-4.08-6.53-8.34-8.6S143.32,440.52,146.27,444Z"/><path class="cls-25" d="M205.34,430.38c-7.37.79-36.17.34-45.17-1.21s-12.6-4.64-12.44-6,31.1,2.41,46,1.72,28.8-.18,28.8-.18S221.37,428.66,205.34,430.38Z"/><path class="cls-26" d="M125.9,102.78c-4.51.71-23.89,4-29.41,5.2s-9.33,2.38-10.61,4-2.11,8,10.75,5.8a105.12,105.12,0,0,0,29.13-9.66C132,105,132.55,101.74,125.9,102.78Z"/><path class="cls-26" d="M244.67,128.49c-5.56-5.33-18.38-13.52-22.2-14.27s7.77,15.91,23.47,29.58,24.6,18,25.87,16.64S259.23,142.46,244.67,128.49Z"/><path class="cls-27" d="M117.2,68.17c-.51-.5-1.06-1-1.56-1.49l-1.52-1.49-1.53-1.54c-.24-.26-.51-.5-.76-.77l-.8-.73c-2-2-4.06-4.08-6.06-6.11,2.07,2,4.1,4,6.18,6l.72.76c.24.26.51.5.76.76l1.53,1.5c.51.5,1,1,1.52,1.54s1,1,1.52,1.53ZM89.54,67.08s7.56,1,11.25,1.64c3.41.58,14.09,2.53,14.09,2.53L89.54,67.08Zm0,0c2.12.24,4.24.53,6.37.82l3.17.42,1.59.23,1.56.26L108.55,70l3.16.63c1,.21,2.07.44,3.16.65-1-.14-2.12-.32-3.16-.5l-3.16-.55-6.33-1.12-1.56-.3-1.59-.23c-1-.13-2.12-.31-3.16-.47q-3.19-.45-6.37-1Zm24.53,6.13s-8.16,1.82-10.91,2.53-10.93,2.91-10.93,2.91l21.84-5.44Z"/><path class="cls-27" d="M114.07,73.21c-1.82.48-3.62,1-5.45,1.37l-5.45,1.3-5.43,1.41L95,78c-.89.23-1.81.44-2.74.66.9-.27,1.82-.55,2.72-.78l2.71-.78c1.82-.51,3.62-1,5.43-1.5s3.65-.83,5.49-1.21,3.59-.78,5.43-1.13ZM93.22,83.66c.9-.3,11.31-4.8,13.73-5.84,1.21-.53,4.72-1.66,4.72-1.66Z"/><path class="cls-27" d="M93.22,83.66c.79-.27,1.54-.62,2.31-.94l2.26-1,4.55-2c1.51-.67,3-1.41,4.55-2,.79-.31,1.59-.56,2.39-.79l1.2-.35c.42-.09.79-.2,1.21-.29-1.52.66-3.11,1.22-4.63,1.88s-3,1.25-4.62,1.87l-4.62,1.88c-1.55.58-3.06,1.19-4.6,1.78Zm.87,4.22s9.47-5.19,12.72-6.85c1.71-.89,7.21-3.42,7.21-3.42L94.09,87.88Z"/><path class="cls-27" d="M94.09,87.88,99,85.08l2.43-1.38c.83-.47,1.63-.89,2.48-1.35s1.62-.92,2.47-1.35a8.55,8.55,0,0,1,1.26-.6l1.29-.6c1.7-.77,3.4-1.56,5.19-2.21-1.63,1-3.3,1.78-5,2.62-.83.43-1.68.81-2.5,1.24s-1.63.9-2.48,1.31-1.62.89-2.47,1.3l-2.51,1.28-5,2.54Zm32.05-16-7.83,5.64c-1.92,1.37-7.54,5.2-7.54,5.2l3.13-4Z"/><path class="cls-28" d="M197.82,130.29a4.54,4.54,0,0,1,2.81-2.86L204.86,115l9.91-31.77-4-25.55-23.73-2.48L175.78,65.4l-15.05,1.93-5.13,9.56-2.89,10.76,4.92,10.88-12.42,4.39-1.92,7,2.8,5.69,11.79,4.07,11.15,5,9.46,7,17.53-.17c.57-.36,1.16-.7,1.76-1A.83.83,0,0,1,197.82,130.29Z"/><path class="cls-29" d="M182.5,116.43a17.46,17.46,0,0,1-7.8.8c-1.36-2-11.26-3.12-11.26-3.12a5.47,5.47,0,0,0-3.44.43c-2.23.84-4.31.66-6.28,1.09s-3.82-2.16-5.3-2.73a21.36,21.36,0,0,1-3.42-2l-4.17-.53-8.3-3.79-13-13.67-3.79,5.57-1.32,7,3.8,8.44,10.57,10.21,21,6,12.66-3.34,15.92-6.2,4.06-4.13Z"/><polygon class="cls-30" points="108.59 67.29 111.52 59.23 114.87 54.06 125.22 53.5 121.86 62.44 112.79 77.54 115.98 91.35 109.55 94.34 107.68 91.29 106.31 84.39 106.43 76.68 108.59 67.29"/><path class="cls-31" d="M118.84,114.05l-1.9-2.82a4.52,4.52,0,0,1-.15-2.47c.33-1.16.29-1.23.15-1.68s-1.36-2-1.25-3.28,0-1.76.94-2.77a3.53,3.53,0,0,0,.79-2.75l1.29.86.31-.45a1.36,1.36,0,0,1,.46,1c.13-.82-.21-4.61.82-5.44S123,98.34,123,98.34l-.88-7.13-2.59-7.36-4.77-6.79-.09-7.34v-.63a24.6,24.6,0,0,0-3.09,6.19c-.51,1.89.52,4.23.21,7s-.48,2.49.16,3.59,2.18,3.36,1.51,4.94c-.6,1.36-2.48.34-2.48.34a4.15,4.15,0,0,1-.93,1.5,3.41,3.41,0,0,0-.7-1.52c0,.26-.12.6-.12.6s-.3-1-.6-2.38c-.4-1.76-.82-4.09-1.22-5.34-.2.71-.72,2.85-.72,2.85l.16,3.33,1.11,4.6,1.11,3,1.06,3.69L111,104l.76,1.89.59,4.24,3.32,3.72,1.81.86,1.33-.61Z"/><path class="cls-32" d="M110.58,60.7A28.73,28.73,0,0,0,107.17,69a55.69,55.69,0,0,0-1.31,14.39,60.08,60.08,0,0,0,1.67,11.93,65.78,65.78,0,0,0,4,10.2l.11-.22a15.14,15.14,0,0,1-1.15-3.14c-.37-1.61-.46-3.51-.82-4.38a23.29,23.29,0,0,1-1.09-2.7c-.22-1-.22-2.62-1-3.84a7.77,7.77,0,0,1-.77-3c-.1-1.91.19-4,.06-5.79-.25-2.92-.42-4.91-.07-6.43s2-5.81,3.1-9.23c.7-2.18.37-4.05,1.59-5.94a16.83,16.83,0,0,0,2.27-4.68c.34-1-3.2,4.56-3.2,4.56Z"/><path class="cls-33" d="M122.31,59.36a4.89,4.89,0,0,0-1.91,1c-.62.62-.89,1.14-1.74,2.18s-.92,1.93-1.62,3.25-2.22,3.24-2.42,3.94-.61,4-1,5.58a7.47,7.47,0,0,0,.28,3.51l.86-.15a2.72,2.72,0,0,0,.81,1.9c.83.76,1.08-2.48,1.08-2.48l3.53-10.77,4.94-3.16.61-2.64-3.4-2.15Z"/><path class="cls-34" d="M124.53,64.35a8.14,8.14,0,0,0-3.43.86c-.47.32-.65.59-1.15,1a7.26,7.26,0,0,0-2.3,2.32,15.61,15.61,0,0,0-1.53,5.16c-.18,1.16-.21,2.23-.34,3.17a12.55,12.55,0,0,0-.34,3c.11,1.45,1.59,2.25,1.68,3.91l3.15-1.48,3.24-11.42,6.3-3.7-3.39-4-1.89,1.24Z"/><path class="cls-35" d="M133.83,135.22c.41.08.82.19,1.23.3V134l-4.63-5.33L123,123.36l-5-5.15-3.79-7.58-1-1.3-1.4-4.38-.18-.08a26.49,26.49,0,0,1-.55,5,9.85,9.85,0,0,1,2,6.15c.09.13.17.26.3.42.58.76,1,1.68,1.56,2.48a19.45,19.45,0,0,0,2.64,3.31,44.87,44.87,0,0,0,10.5,9.05A42.49,42.49,0,0,1,133.83,135.22Z"/><path class="cls-36" d="M222.2,117.62s-20,5.49-21.91,6.81c-.8.54-2.22,1.33-3.2,2-1.65,1.07-2.74,2.46-5,2.39-1.76,0-3.23-2.11-5-2.34-1.07-.14-2.44.94-3.62,1.17,0-1-.07-2.52-.77-3.2-.47-.52-1.38-.39-2.36,0a27.37,27.37,0,0,1-5.8,1.28,3.13,3.13,0,0,0,.15-1.31l-5.65,1.22-12.12,3.87-10.13,8.8-1.1.94a88.68,88.68,0,0,0,13.77,2.11c2.38.21,4.78.39,7.17.49l2.82-.33c1.77-.21,3.82-.34,6-.5.33-.12.65-.24,1-.33,4.11-1,8.52-1.91,12.16-4.13,3.3-2,5.95-4.3,9.17-6.07,0,0,0-.09,0-.13a4.27,4.27,0,0,1,5.09-2.94,3.21,3.21,0,0,1,1.07.48,3.66,3.66,0,0,1,1.32,0,10.87,10.87,0,0,1,4-.6l.23,0c.89-.18,1.77-.38,2.63-.63l.18-.09c1.79-1,3.45-2.2,5.15-3.35a39.57,39.57,0,0,1,9.61-5.1Z"/><path class="cls-37" d="M124.91,64a5.53,5.53,0,0,0-1.57.13c-.26.17,1.3.6,1.78.79a4.15,4.15,0,0,1,1.75,1.73c.23.64,9.32,4.6,9.32,4.6l6.5-.14L145,68l-4.15-3.86,3.24-8.72-4,.52-9.67,5.41-4.83,1.69-.72.88Z"/><path class="cls-38" d="M139.09,67.28a1,1,0,0,0,.86.51h0a4,4,0,0,1,3.06,1.1c.83,1.12,3.12,4.66,3.12,4.66l5.65,2.21.56-6.71-6.11-4.51L139.08,67v.34Z"/><path class="cls-39" d="M137.9,69.73a6.37,6.37,0,0,0,2.37-.34c1.33-.45,3.52-1.43,4.45-1,1.3.6,1,2.34,2.35,4,.84,1,2.41,1,3.27,2.07s3.94.68,3.94.68l1,6.3-4.84,5.85-1.74,7.39-6.31-.18L136.67,92l-2.65-7,1.62-6.9,2.26-8.43Z"/><path class="cls-40" d="M150.11,70.39a1.51,1.51,0,0,0,.48.08,1.25,1.25,0,0,0-.45,1.34c.12.86.58,2,.15,2.62a3.34,3.34,0,0,1,.67,1.26c.24.74.29,1.43,2,1.58a3.36,3.36,0,0,0-.68.51c-.21.2,1.13,1,1.7,2a13.57,13.57,0,0,0,2.22-.46l.32.23.72-.27s-.66-.28-.13-1.88c.5-1.41.9-1.32.94-1.43a15,15,0,0,0,.39-2.19,26.33,26.33,0,0,0,.5-3.16l-.33-5.29-2.67-1.73-2.15-2.19-2.19,3.87-1.42,1.32L150,70l.16.39Z"/><path class="cls-41" d="M156.77,66.16a18.63,18.63,0,0,1,.59,2.45,2.2,2.2,0,0,0,.12-.63,25.56,25.56,0,0,1,.38,3c.15,0,.3-.07.33.08a12.28,12.28,0,0,1,.22,2.77A7.5,7.5,0,0,1,161,71.33a4.38,4.38,0,0,1,2.08-.76c1.17,0,2,.8,3.38.84,3.35.09,6.46-2.28,8.72-3a11.3,11.3,0,0,0,4.11-1.75,10.68,10.68,0,0,0,2.21-2.6c1.09-1.76,2.22-3.29,3.32-3.46a6.31,6.31,0,0,1-1.22.08l-.28,0c-.09,0,.34-.32.92-.75a3.47,3.47,0,0,1,2.23-1c1.73.05,2.58.33,3.54.36a5.13,5.13,0,0,0,1.53-.21,6.21,6.21,0,0,0,3.28.8,49.75,49.75,0,0,1,5,.48c1.19.14,5.21-.19,6.35-.12a5.56,5.56,0,0,1,2.15.59L204.93,50,192,38l-8.08,5.37L171.37,55.22l-11.91,4L156.92,62l-.12,4.21Z"/><path class="cls-42" d="M183.38,60.75s.35-.32.92-.76a3.42,3.42,0,0,1,2.23-1c1.72.05,2.58.33,3.54.36a5.13,5.13,0,0,0,1.53-.21,6.19,6.19,0,0,0,3.27.8c2.29.1,3.81.33,5,.47s5.21-.18,6.36-.12a5.71,5.71,0,0,1,2.14.6L206.84,56,205,52.29,199.61,46,193,41.89s-2.29-.7-2.29-.7l-6.15,3.49-5.89,14-.19,3,3.5,1.78c.94-1.47,2-2.63,2.88-2.76-.84.06-1.48,0-1.48,0Z"/><path class="cls-43" d="M183.28,61.77c-.53,0-1-.11-1.08-.49-.42-1.28-.77-1.47-1.15-1.48s-.91.79-1.22.85-.64-.95-.64-.95l-.33-.16a19.79,19.79,0,0,0-3.4,2.67c-1.42,1.45-3.75,3.93-4.77,4.35s-4.51.48-5.7.7a7.34,7.34,0,0,0-2.73,1.24c-.18.19.52.42.62.62s-1.17.07-1.28.26a4.7,4.7,0,0,0,.45,1.47,2.32,2.32,0,0,1,1-.23c1.17,0,2,.8,3.38.84,3.35.1,6.46-2.28,8.72-3a11.48,11.48,0,0,0,4.11-1.76,10.46,10.46,0,0,0,2.21-2.6,20.65,20.65,0,0,1,1.77-2.36Z"/><path class="cls-44" d="M128.34,129c.52.5,1,1.19,1.74,2a23.07,23.07,0,0,1,2.43,3.06c.47.35.92.72,1.36,1.1a13.89,13.89,0,0,1,3,1A52.1,52.1,0,0,0,145,139l1.38-2-2.29-5.4-4.79-3.8s-10.21-3.54-10.94-4.42a54.88,54.88,0,0,1-2.85-5c-.63-1.13-1.55-1.76-3.78-3.58s-4.82-3.57-4.82-3.57a14.93,14.93,0,0,1,.45,2.63,9.77,9.77,0,0,0-2.14-3.31,6.81,6.81,0,0,1-.78-1.07c-.12-.23-.1-1.17-.57-1.28s-.88.58-.88.68.34,1.28,1.61,5a31.23,31.23,0,0,0,4.87,9.26c1.67,1.93,3.9,2,5.91,3.57A25.31,25.31,0,0,1,128.34,129Z"/><path class="cls-45" d="M123.62,120.86a5.76,5.76,0,0,0,1,.52A23,23,0,0,0,130,126c4.38,2.85,6.4,2.73,6.4,2.73a1.34,1.34,0,0,0,.85.4c.43,0,1.15-.26,1.53-.18a4.91,4.91,0,0,1,1.49,1.21c.62.62,1.43.55,1.17.67a2.77,2.77,0,0,1-.82.23c-.59.06-.6.28-.57.39a3.34,3.34,0,0,0-.41,0,4.4,4.4,0,0,1-1,0c.26.31.92.41,1.3.57a10.35,10.35,0,0,1,1.35,1c.4.29,1.89.53,1.66.65a4.6,4.6,0,0,1-.72.31c.26.08.8.86,1,1.05-.27.09-.5.44-.65.54a1.83,1.83,0,0,0,.79.58c0,.31-.24.42-.42.6.79.8.6,1.21.6,1.21s-.31,0-.56-.05c.16.25.29.51.43.77q2.85.82,5.76,1.36c.9-.13,1.57-.33,2.12-.45.73-.16,1.13-.22,1.13-.22s-.14-.08-.39-.54c-.09-.23-.12-.71-.22-1.05a2.11,2.11,0,0,0-.24-.53s3.48-2.48,3.71-2.62c-.26-.6-.82-1.64-.89-1.82.23,0,.38,0,.56-.06a3.26,3.26,0,0,0,.95-.38.76.76,0,0,1,.3-.1s0,0-.07-.07c.6-.05,2.39,0,2.39,0l-.21-.46a3.22,3.22,0,0,0,1.83-.17c1-.25,1.93-.74,2.65-.94a4.59,4.59,0,0,1,1.73-.1,11.64,11.64,0,0,1,3.42-.92,2.16,2.16,0,0,0-.6,0,17.37,17.37,0,0,1,5-3.44c1-.49,2.52-1.08,3.91-1.9,2.18-1.28,4.32-3.25,5.92-4.4a48.31,48.31,0,0,1,4.09-2.68s-1.5,0-2.59,0a5.38,5.38,0,0,0,2.68-3.22c-2.11.42-3.95,2-6.45,3.37-1.78,1-4,1.74-6.35,2.76a44.37,44.37,0,0,1-9.78,3.31,64.36,64.36,0,0,1-8.66,1c-4.56.37-8.27,1.79-13.6,1.56a30,30,0,0,1-6.36-1.14,40.7,40.7,0,0,1-10.75-4.35,14,14,0,0,1-4.15-4l0,0C120.23,118.44,122.19,120.07,123.62,120.86Z"/><path class="cls-46" d="M178.55,27.32a1.92,1.92,0,0,1,.88.63c.68.83,1.09,2.39-.57,4a2.65,2.65,0,0,0,1.44.27c-.58.64-1.89,2-2,3.26a1.3,1.3,0,0,0,.52,1.34,5.05,5.05,0,0,0-1.09,2.95,11.7,11.7,0,0,1,1.53-1.37A41.83,41.83,0,0,1,183,36v.12a1.94,1.94,0,0,0,.09.67c.07.22,2-1.54,3.61-.78.73.35.36,1.38.36,1.38a1.75,1.75,0,0,1,1.72.39A31.74,31.74,0,0,1,191,41a23.7,23.7,0,0,1,1.37,2,25.22,25.22,0,0,1,1.93,4.39c.05-.78.28-2,2.5-1.17a13.74,13.74,0,0,1,6.74,5.88c2,3.3,2.46,7,3.49,8.4a11.84,11.84,0,0,1,2.15,4.58c.05,1-.44,4,1.56,12.19.71-2.52,1.83-8.13,1.83-8.13l.67-5,1.05-15.36-15.68-13.8-12.29-9.47-8.2.55.48,1.19Z"/><path class="cls-47" d="M207.73,51.07s-.18-1.5-3.89-4.15-6.65-2.7-9.3-4.91c-2-1.74-4.1-5.65-5.49-7s-1.46-4.92-1.46-4.92l4.75-3.75,7.18-9.79,6-6.25,2.68,4L212,19l1.89,9.21.4,13.43-6.54,9.45Z"/><path class="cls-48" d="M211.94,67.26c0-.31.05-.64.06-1a16.79,16.79,0,0,0-.63-5.08,110.07,110.07,0,0,0-3.87-10.77c-.35-2.29,0-2.47.41-2.71S210,46.6,211,43.33a4.26,4.26,0,0,1,3.8-3.29l1.76-1.22L219,45.44l2.11,6,.58,4.54.42,3.87-1.48,8.11-6.27,5.35-2.44-6Z"/><path class="cls-49" d="M205.29,127.7h0a24.77,24.77,0,0,0,3.83-1.89,14,14,0,0,1,4.35-2.11,32.11,32.11,0,0,0,4.46-.78c.83-.55,1.68-1.1,2.54-1.63.58-.53,1.08-1,1.37-1.28a6.16,6.16,0,0,1,2.26-.69,23.23,23.23,0,0,1,5.3-1.82,15.29,15.29,0,0,0,1.41-1c.69-.92,1.4-1.83,2.12-2.75l.08-.09c0-.34-.05-.59-.05-.64a7.18,7.18,0,0,0,.14-1.37,9.82,9.82,0,0,0-.28-1.68l-.5-7.2-.78-4-1.39-4.86-.47-2.07-.51-1.92-.63-1.11-1-4.56-1.76-6.59-1.58-6.25L223,65.51s-1.1-8.69-1.64-9.57a55.13,55.13,0,0,1-1.48,11c-.6-1.08-3.46-3.19-4.35-4.9a67.28,67.28,0,0,0-1.4,9.61l0,7.29-7.46,22.18s2.82,20.41,2,22A52.5,52.5,0,0,1,205.29,127.7Z"/><path class="cls-50" d="M227.14,107.5a9.28,9.28,0,0,1,.32-5,3.06,3.06,0,0,1-3.24,2.19,42.29,42.29,0,0,1,0-9.09,10.88,10.88,0,0,1-1.29,1.91c-.07-.36-.56-.75-.94-1s-.31-.87-.52-1.43a6.94,6.94,0,0,1-2.23.87s1.83-.86,3.31-4.6c1.66-4.14.73-6.18.47-8.47a31.74,31.74,0,0,1-5.4,9.37,6.3,6.3,0,0,0,0-1.17c-.91,1.7-.92,2.86-3.42,6.93s-4.82,3.71-5.7,3.43c3.82-5.23,7.56-15,7.67-22.36a16.61,16.61,0,0,0-4.23-11.9c.19,1.69-.24,4.19-.42,7a65.29,65.29,0,0,1-.64,8.08c-.91,4.29-2.31,6.31-6.12,14.23a122,122,0,0,1-11,17.56c1.54-.6,3.62-1.7,5.52-2.43a16,16,0,0,1,2.9-.81,19.27,19.27,0,0,0-5.24,5.19s1.35-.19,2.14-.2a31.94,31.94,0,0,0-1.68,5.34,3.83,3.83,0,0,1,1.34-.82c.64-.16,1.58-.18,2-.27a4,4,0,0,1-.06,3c-.39,1.18-2.82,3.67-3.63,4.39a7.12,7.12,0,0,0-1.67,2.38c1-.36,2.33-.74,3.55-1.17a4,4,0,0,1,3.31-1.36l.49-.23,8.42-6.43a95.77,95.77,0,0,1,9-7.48,46.92,46.92,0,0,1-1.71,4.77,15.54,15.54,0,0,1,2.27-2.22A46.18,46.18,0,0,1,225.2,113a7.74,7.74,0,0,0-.22,1.52s1-2.26,1.91-3.88a18.66,18.66,0,0,0,1.46-4.21A6,6,0,0,1,227.14,107.5Z"/><path class="cls-51" d="M191.48,22a8.89,8.89,0,0,1-3.16.39c-1.73-.05-1.22-.7-3.91-.77-4.14-.12-18.67,1.85-21.21,1.74-1.65-.07,5.54.87,5.54.87l18.41.78,3.71-.19L192.31,22l-.83-.06Z"/><path class="cls-52" d="M142.69,56.61a21.24,21.24,0,0,0-3.44,3.08A22.21,22.21,0,0,1,136.49,63h.09a2.69,2.69,0,0,0,.7-.09c.23-.06,0,.3-.19.38h.12a1.1,1.1,0,0,1,.74.33,1.54,1.54,0,0,0-.59,2.15,2.34,2.34,0,0,0,1.62.93s-.28.73.8.69c2.31,0,4.92-1,6.11-.69a3.34,3.34,0,0,1,2.66,2c.86,1.47,1.63,1.73,1.63,1.73a8.6,8.6,0,0,0,.51-3.35,10.07,10.07,0,0,0,.8-3.37l-.62-5.82-3.3-4.43-4.51,2.34-.37.84Z"/><path class="cls-53" d="M146.93,55.87s.31.79,1.7.91a.77.77,0,0,0-.12.63l.06.63a1.62,1.62,0,0,0,.42-.28c.06.34-.1.85,0,1.24a2.61,2.61,0,0,0,.21.67,1,1,0,0,1,.07-.15,6.34,6.34,0,0,0,1,1.53h0a.61.61,0,0,1,.08-.3,1,1,0,0,0,.16.53.71.71,0,0,1-.14-.1,14.57,14.57,0,0,0,.38,3.63,2.35,2.35,0,0,0,.19-.25c0-.07,0,.67-.14,1.2A5.29,5.29,0,0,0,150.7,67a4,4,0,0,1,.91-.5,3.24,3.24,0,0,0,1.7-1.93,13.89,13.89,0,0,0,.66-2.14,3.14,3.14,0,0,1,.28.9c0,.38.73.2.73.2l.2-1.65,1-3.7.88-2.29,4.1-6,7.26-5.27,6.15,1.6,5.43-7-8.85-5.65-8.54.64-8,10.49L148.1,54.3l-1.17,1.57Z"/><path class="cls-54" d="M192,41.65a9.21,9.21,0,0,0-2.08.83c-1.54.75-2.61,1-3.23,2.12a5.59,5.59,0,0,0-.7,2.06,15.72,15.72,0,0,1,1.67-.56c.64-.13,1.35-.06,1.27.19a2.11,2.11,0,0,1-.32.48c-.13.13,1.2,0,1.15.59a3,3,0,0,1-.5,1.51c-.23.29-1.18.71-1.3,1.05-.27.71.09.75-.06,1.32s-.66,1.63-2.34,3.48a19.22,19.22,0,0,0-2.48,3.18A20.77,20.77,0,0,1,181.92,55c-.3.14-1.94,1-1.94,1L176.63,43l.1-.86a2.31,2.31,0,0,0,.45-1.15c-.56-.2-.63-.35-1.35-1.09a9.32,9.32,0,0,0-2.52-2.23,1.67,1.67,0,0,0-1.29-1c-.89-.2-1.44-.37-1.44-.37a1.48,1.48,0,0,0,.73-.54,9.1,9.1,0,0,1-2.24.16,10.21,10.21,0,0,0-2,0c-.69.09-1.51.37-1.79-.68-.32-.26-1-.06-1.66.81s-.86,1.58-2,1.89a4.1,4.1,0,0,1-.57,1.44,16.21,16.21,0,0,1-1.63,1.9c-1.15,1.28-1,3.45-2.86,5s.43-4.56.43-4.56L160,34.91l8.4-7.76,12.72-.49,1,6.61,6.13,2.3L192,41.65Z"/><path class="cls-46" d="M194,43.15l-5.11-7.84-3.65-3s-2.52-5-2.7-5.12a36.51,36.51,0,0,0-4.24-.61l.28.75a2,2,0,0,1,.88.63c.68.83,1.09,2.39-.57,4a2.65,2.65,0,0,0,1.44.27c-.58.64-1.89,2-2,3.26a1.28,1.28,0,0,0,.52,1.34,5.05,5.05,0,0,0-1.09,2.95,11.7,11.7,0,0,1,1.53-1.37A39.76,39.76,0,0,1,183,36v.12a1.94,1.94,0,0,0,.09.67c.07.22,2-1.54,3.61-.78.73.35.36,1.38.36,1.38a1.73,1.73,0,0,1,1.72.39A33.61,33.61,0,0,1,191,41.07c.21.34.79,1,1.36,2a23.8,23.8,0,0,1,1.93,4.39c.05-.6.19-1.44,1.24-1.41L194,43.15Z"/><path class="cls-55" d="M113.4,62.71a5.07,5.07,0,0,1,.08-2.76c.43-1.82,1-2.66,1.31-5.35a19.26,19.26,0,0,1,2.13-6l4.91-2.07,3.4,1,.88,4.63-4.41,2.26a3.36,3.36,0,0,1-1.5,1.79c-1.25.79-3,1.37-3.39,2.18a6.6,6.6,0,0,0-.58,1.59c-.12.55-1.23-.29-2,.5a2.92,2.92,0,0,0-.84,2.18Z"/><path class="cls-56" d="M123.22,61.77a2.18,2.18,0,0,0-.73.87,18.08,18.08,0,0,1-.88-6c0-2.59-.09-3.24.53-4.11s3-1.74,2.71-3.36-1.67-2.21-3.38-1.82c-1.21.27-2.17,2.78-3.44,4-1,.94-2.08.75-2.4,1.27-.43.7-.07,1.42-.2,1.88a9.12,9.12,0,0,1-1.15,1.91c-1.43,1.94-3.83,4.67-4.21,7.17a12.35,12.35,0,0,1,.5-3l-.21-.38L112,55.4l1.09-4,2.35-6.69,4-6.79,3.82-4,3.85.36.29,5.8L129.29,51l4.47,5.84-7.57,4.8-3,.16Z"/><path class="cls-57" d="M125.48,63.89a1.85,1.85,0,0,1-.86,0c-.22-.12-.45-.26-.37-.42s.5-.4.5-.51v0a.41.41,0,0,0-.37-.43.4.4,0,0,0-.46.16,1.79,1.79,0,0,0-.59-.31,3.77,3.77,0,0,1,.48,0,4.94,4.94,0,0,0-1.3-.42c.39-.21,1.14-.85,1.62-.84s.79,0,.72-.31A1.56,1.56,0,0,0,124,60c.15-.17.26-.45-.08-1.2a1.47,1.47,0,0,1-.06-1.42,9.32,9.32,0,0,1,.69-.87,2.39,2.39,0,0,1,.66-.76,7.5,7.5,0,0,1,1.13-.46c.54-.16,1-.38,1.28-.14a.41.41,0,0,1,.16.53,2.71,2.71,0,0,1,2,.17,15.62,15.62,0,0,0,3.2.83l.76,1.66-5.54,4.49-2.26,1-.46.06Z"/><path class="cls-58" d="M133.2,56.52A19.56,19.56,0,0,0,131.11,58c.22,0,.6.19.43.42a23.41,23.41,0,0,0-1.92,1.7,11.31,11.31,0,0,0-1.51,2.09,7.84,7.84,0,0,1-2.59,1.68c1.24,0,3.78-1.42,4.71-1.39a.93.93,0,0,0,.75,1,5.88,5.88,0,0,0,4.14-.82c2.09-1.18,1.44-2.12,2.31-2.7,1.68-1,2.37-2,3.3-2.56a5.67,5.67,0,0,1,1.39-.7s0-.46.31-.41a.38.38,0,0,1,.32.27,13.48,13.48,0,0,1,3.63-1.32.22.22,0,0,1-.1-.11s.15-.07.18-.14.11-.15.18-.07.16.64.32.87c.34-.14,1-1.54,1-1.54L149.61,50l.12-4-1.2.19-9.08,3.55-5.6,5.48-.65,1.33Z"/><path class="cls-59" d="M159.56,37.7a5.36,5.36,0,0,0,1.4-.52,6.06,6.06,0,0,1-1,2.13,19.3,19.3,0,0,0-1.52,2.47c-.67,1.22-.79,3-1.42,3.77a2.61,2.61,0,0,1,.87-.23c.3,0-.62.51-.89,1.06a5.17,5.17,0,0,1-1.9,2.39,14.53,14.53,0,0,0-4.15,2.72c-1.57,1.6-3.2,3.65-4,4.37a11.49,11.49,0,0,0,1.21-3c.17-.93,0-2,.32-3.29a10.7,10.7,0,0,1,1.61-4.25c1.3-2.12,3.63-9.57,3.63-9.57l4.61-1.32,1.27,3.31Z"/><path class="cls-60" d="M156.35,34.83a12.76,12.76,0,0,0-1.86,3.69c-.43,1.74-.07,1.59-.32,2.45a3.11,3.11,0,0,0-.13.8,3.06,3.06,0,0,0,.08.8,5.76,5.76,0,0,1,1.95-1.82,14.93,14.93,0,0,0,3.05-1.92,11,11,0,0,1,2.62-2.69c-.56-.09-1.34-.38-1.49-.34a34,34,0,0,1,4-2.66c1.71-1.14,1.62-1.63,4.38-2.74a18.92,18.92,0,0,1-2.06-.06c.32-.63,1.37-.89,2.45-1.91s-.59-2.6-.59-2.6l-8.11,4.59-4,4.41Z"/><polygon class="cls-61" points="134.83 30.62 135.06 29.18 137.44 25.58 140.01 19.23 140.26 10.46 140.23 5.37 140.7 2.06 141.02 1.02 141.33 0.61 143.25 1.68 145.84 5.42 145.89 12.47 142.96 23.54 135.27 31.46 134.83 30.62"/><path class="cls-51" d="M141.65.21s-1.2,0-1.6,5-.59,7.58-.84,10a54.33,54.33,0,0,1-1,5.39,15.22,15.22,0,0,1-1.14,4.61,10.8,10.8,0,0,1-2.54,3.55,14.89,14.89,0,0,1-4.64,2.41c-.67.13-4,.37-5.44,1.09a8.29,8.29,0,0,0-2.28,1.35,28.69,28.69,0,0,0-6.24,8c-2.84,5.23-6,20.12-6,20.12l.64-1A9.62,9.62,0,0,1,112.16,57c1.38-2.31,1.08-5,3-9.43a51.35,51.35,0,0,1,2.85-5.79,21.9,21.9,0,0,1,6.12-7,18.76,18.76,0,0,1,7.29-2.66l4.14-2.57s.75-1.36,1.73-2.9c1.38-2.16,3.12-4.58,3.59-8.15.71-5.29-.53-8.8-.37-11.94s.26-5.45.91-6,.19-.35.19-.35Z"/><path class="cls-62" d="M141,23.93a57.42,57.42,0,0,0,2.85-8.25c.17-.78.5-1.55.59-2.19.48-3.69.64-5.21.21-7.25-.34-1.51-1.75-2.89-2.47-4S141.1.76,141.26.53A1.67,1.67,0,0,1,142.59,0a4.48,4.48,0,0,1,3.18,1.58c1.13,1.38,1.92,6,1.92,6l.79,6.05,2.25,7.65L141,23.93Z"/><path class="cls-63" d="M157.94,19.82a1.54,1.54,0,0,1-.93,0,.65.65,0,0,1,0,.14,1.34,1.34,0,0,1-.64,1.11c-.63-.27-6.58.06-6.58.06s-2.75-.56-3.51-4.24c-.53-2.45.62-5.77.34-8C146.18,5.62,145.46,5,145.41,4s-.11-1.27-.09-1.91a4,4,0,0,0-.86-.2,2.08,2.08,0,0,0-.22-1.1,6,6,0,0,1,2.82,1.68,5.44,5.44,0,0,1,1.33,1.8,14.24,14.24,0,0,1,2.74,3.43c.74,1.59,2.13,6.61,2.45,7.44a5.6,5.6,0,0,0,.85,1.44c.85,1.12,2.08,2.95,3.51,3.29Z"/><path class="cls-51" d="M148.59,4.3A42.26,42.26,0,0,1,150.93,9c.83,2,1.31,3.7,2.39,5.08-.55-1.77-1.53-5.25-2.12-6.49a15.31,15.31,0,0,0-2.61-3.25Z"/><path class="cls-64" d="M137.61,28.84a22.48,22.48,0,0,0-4.42,1.75c-.95.46-1.86.84-2.72,1.19a46.72,46.72,0,0,1-6.62,2.28l.22.26a1.92,1.92,0,0,0,.38,1.18c-.23.21-3.32,2.18-2.62,9.09a15.17,15.17,0,0,1,1.44-.49c.17,0,.2.53.44.54a3,3,0,0,0,1.79-1.26c0,.41-.62,4.5,1.74,7.33.47-.51,1.66-2.23,1.66-2.23l0-.56a15.09,15.09,0,0,1,.85-3.71,9.8,9.8,0,0,1,2-3.05l6.72-9-.87-3.28Z"/><path class="cls-65" d="M131.18,42.22a3.8,3.8,0,0,1-1,.46,3.71,3.71,0,0,1,.72-2.93c1.09-1.5,3.42-3.41,4.1-5,.44-1,.33-3.54,4-6.68s5.17-4.23,5.17-4.23l5.94-2.77,7.13,3-4,13.93-3,6.5-11-2.4-8.18,0Z"/><path class="cls-66" d="M135.5,38.53l1.43-1.68,0-1.23a7.81,7.81,0,0,0,3.24-2c1.69-1.63,4.07-4.78,6.07-4.53s2.08,4.43,2.12,5.59a32.19,32.19,0,0,0,.59,5.25c.41,1.44-5.09,6.66-5.09,6.66l-3.71,2.66L135.5,38.53Z"/><path class="cls-67" d="M139.35,53s1.17-1.72.36-2.12a12.79,12.79,0,0,1,1.44-2.19,11.36,11.36,0,0,1,2.79-3.43c2.11-1.88,3.42-3.12,3.79-4.42a11.68,11.68,0,0,0,.41-2.57,4.92,4.92,0,0,0,.69.51,4.18,4.18,0,0,1,1.56,4.11,6.83,6.83,0,0,1-1.3,3.67,18.56,18.56,0,0,1-1.64,1.37c-.72.47-1,1-2.19,1a1.5,1.5,0,0,1,.42-.21,2.55,2.55,0,0,0-1.92.4c-.68.58-2.15,2.4-2.88,2.94s-1.53.92-1.53.91Z"/><path class="cls-68" d="M190.42,25a18.06,18.06,0,0,0-5.52-1.24c-3.17-.2-7.82-.15-12.37-.25-4.89-.11-9.29-1.95-15.44-2.42-1-.64-3.49-3.35-11.68,2,.48,0,5.87-1.07,7.65,1.31s1.17,6.27.89,7.21c-.55,2.07-2.2,5.06-2.9,7.17s-.58,3.24-1.07,4.72-1.51,2.19-1,3.93c.8-.46,1.21-.45,2.61-3.35s1.19-5,3.43-7.45a48.75,48.75,0,0,1,7.23-6.59c1.37-.82,12.24-6.08,23.3-.46,2.69-.21,4.84-4.6,4.84-4.6Z"/><path class="cls-69" d="M150,21.83a2,2,0,0,0-.06-.34,2.53,2.53,0,0,0-.4-.62,12.25,12.25,0,0,0-4-.45c-2.37.19-4.58,3-5.62,4.51s-2.34,3.75-3.72,4.91a.35.35,0,0,1,0-.06.5.5,0,0,0-.07-.27c-.05-.09.07.1-.09.25s-.15.22-.08.29l.22.24a18.82,18.82,0,0,0,5.1-3.45,25.24,25.24,0,0,1,6.68-4.48,9.39,9.39,0,0,1,2-.53Z"/><path class="cls-70" d="M201.87,11.94s-.5.59-1.13,1.24c-1.38,1.38-3.18,2.93-4.72,4.54s-3.1,2.71-5,4.71-4,4.22-4.56,4.87a4.87,4.87,0,0,0-.92,2.29l-.55-.4a3.4,3.4,0,0,0,.43.68c.37.54.93,1.22,1.23,1.64a4.78,4.78,0,0,1,.73,1.74c.18,0,1.34.3,2.86-2s3.49-4.91,3.49-4.91l3.16-4.41,2-3.75L201.45,14l.42-2Z"/><path class="cls-51" d="M205.05,9a24.15,24.15,0,0,0-2.61,2.32c-.73.88-2.48,3.18-2.48,3.18l.6-.05,3.15-2.64L205,9.7l.08-.72Z"/><path class="cls-71" d="M217.14,108.8l-2.1.84a4.47,4.47,0,0,1,1-2.44c1.2-1.8,3.48-4.6,3.48-4.6a2.88,2.88,0,0,0-.38-.8c-.6,1.22-5.11,5.35-7.39,7.12s-5.21,3.74-6.82,4.89c-1.25,1-1.62,2.42-2.24,3,.1.12,1.18.41,1.43.64-.25.48-.52,1.13-1,2.06,2-.58,5.17-3.18,5.17-3.18a38,38,0,0,1-2.09,4.94,14.32,14.32,0,0,1-4.43,5.79,2.14,2.14,0,0,0-.13.19,4.57,4.57,0,0,1,1.26.09,3.21,3.21,0,0,1,.33.12c.78-.53,1.76-1.16,2.92-1.87,3.32-1.83,5.34-4.88,6.84-7.49a10.58,10.58,0,0,1,4.23-4.23c-.69.37-1.17.08-2.38.5C217.69,111.05,217.14,108.8,217.14,108.8Z"/><path class="cls-72" d="M195.79,26.77a16.41,16.41,0,0,0-1.55,4.56,13.4,13.4,0,0,0-.19,1.41c-.09,1.8,0,3.81-.44,4.74a2.23,2.23,0,0,0-.36-.8c-.24.63-.71,2.6-1.06,3.33a16.05,16.05,0,0,1-.33-4.15c.08-2,.14-2.36.15-2.77a12.23,12.23,0,0,1-.69,1.89c-.21-.42-.46-.95-.74-1.4a8,8,0,0,1-.64,1c0-.18-.08-.67-.11-1.35a18.72,18.72,0,0,1,0-2A9.2,9.2,0,0,1,192,27.76a29.32,29.32,0,0,0,3.91-6.05l2.7-5.31,1.57.05-2.43,5.13s-1.46,2.8-2.2,3.83-2.31,4-3,5.11c.5-.62.91-.94,1.42-1.53a27.53,27.53,0,0,0,1.82-2.22Z"/><path class="cls-73" d="M205.08,8.78a6.27,6.27,0,0,1-1.25,2.13c-1,1.09-3,2.53-4,3.7a10.31,10.31,0,0,0-2.11,8,13.5,13.5,0,0,1,2.49-4.19,32.12,32.12,0,0,0,4-5.45,9.36,9.36,0,0,0,1-2.92l.31-.36-.15-.86-.26-.09Z"/><path class="cls-51" d="M232.81,109.87a16,16,0,0,1-.69-3.16c-.14-1.5.35-1.79-.16-3.51-.3-1.06-.9-.93-1.06-1.08a9.37,9.37,0,0,1-.15-2.59,9.35,9.35,0,0,0-.11-2.47c-.21-.19-.37-.35-.66-1.47a16.85,16.85,0,0,0-.69-2c-.17-.33-.69-.66-.68-1,0-.67.64-1,.64-1.18,0-.38-.48-.09-.6-.2s.42-1.26.22-1.41-.62.54-.75.36-.28-2-.51-3.19-.48-2-.5-2.38-1.9-6.25-2.36-7.69c-.36-1.2-.67-2.44-.91-3.68a19.83,19.83,0,0,0-.27-2c-.08.15-.06.89-.18.86s-.41-2.63-.52-3a20.53,20.53,0,0,1-.81-2.82c-.12-1-.38-3.67-.56-5.47s-.26-2.55-.25-3c0-.2,0-.41,0-.62a19.81,19.81,0,0,0-.12-2.67,30.7,30.7,0,0,0-1.26-5.6c-.94-2.57-3.45-9.15-3.88-10.77,0-.41.54-.17.54-.17s1.22,3.33,2.11,5.9a38.09,38.09,0,0,0,1.91,5.06,19,19,0,0,1,2,6.87c.52,4.09.63,7.86.94,10.38a27.5,27.5,0,0,0,.6,3.75c.38,1.39,1,2.82,1.74,5a34.14,34.14,0,0,1,1.39,4.71c.28,1.69.24,3,.42,3.8s.39,2.14,1,4.21,1.43,4.74,2,6.41a35.25,35.25,0,0,1,1.77,7.56,69.47,69.47,0,0,1,.34,8.31Z"/><path class="cls-74" d="M205.16,8.61l-.08.17a.32.32,0,0,1,.17.39v.07a8.93,8.93,0,0,1-.11,1.16c-.09.53-.25.93-.29,1.26a6.39,6.39,0,0,1-1,3.53c-.31.55-.51,1-.67,1.35a4.2,4.2,0,0,1-.82,1.29c.54-.28,2.48-1.42,3.43-1.21a7,7,0,0,0-2.36,2,5,5,0,0,0,1.79.06c1.68-.21,3.57-.76,5.22-.6,1.8.16,1.15-2.12,1.15-2.12l-1.94-4.63L205.8,8.47l-.64.14Z"/><path class="cls-75" d="M214.43,43.07s-1.7-1.8-2.24-7.84a141.76,141.76,0,0,1-.13-14.95l-1.32-3.52a8,8,0,0,0-1-3.2c-.72-.88-2.13-2.38-2.78-3.11s-1.37-1.72-1.82-1.88c.24-.37,1.31-2.47,5.2-2.39s5,2.27,5.4,3.07A28.51,28.51,0,0,1,218.38,20c.45,6.49.47,7,.3,9.2a51.72,51.72,0,0,1-1.4,7.15c-.72,2.58-1.51,5.46-2.85,6.73Z"/><path class="cls-72" d="M208.79,48.07H209a2.89,2.89,0,0,0,1.47-.34,4.76,4.76,0,0,0,4.19-1.64,3.51,3.51,0,0,1-.42,2.75,5.72,5.72,0,0,1,1-.6c0,.56.49,2.29-1.87,6.42a2.67,2.67,0,0,1,2-.66c0,.79.36,3.44-.8,4.83a2,2,0,0,1-2,.61c0-.1,0-.21,0-.32s0-.21,0-.32c0-.41-.16-.82,0-1.09a5.23,5.23,0,0,1-1.54-1.14c-1.28-1.28-2.93-3.44-3-5a2,2,0,0,1,1.48-2.09,1.43,1.43,0,0,1-.31-.42,2.39,2.39,0,0,0-.43-1Z"/><path class="cls-76" d="M197.68,28.73s-.07-.11-.49.36c.08-.48.17-.93.21-1.37a5.23,5.23,0,0,1,.78-1.1c-.24.45-.41.85-.41.85a6.1,6.1,0,0,1,1.42-1.64c.58-.44,1.29-.63,1.6-1a3.67,3.67,0,0,0,.35-.6,9.51,9.51,0,0,0,1.93-1.85c.15-.18.38-.36.54-.55a17.16,17.16,0,0,0,1.59-.69c.75-.39,1.6-.92,2.12-1.14,1-.42,2.1-.35,2.62-1,.38-.1.82-1.22.77-2.19a9.19,9.19,0,0,1,4.25,6c.63,2.78-.77,7-1.35,9.05s-.71,3.56-1.48,4.48c-1,1.21-4,2.88-4.81,3.72-.65.69-2.61,2.44-2.57,3.74.05,1,1.23,1.53,1.48,1.72s.24.42.73.32.67-.31.86-.31.23.08.33.09a.85.85,0,0,0,.23,0c.07,0-.12,1.37-3.35,1.7-.22,0-.46.09-.74.13a1.81,1.81,0,0,0,1-.71c-.45-.09-1.75-.2-2.07-.32a4.05,4.05,0,0,1,.76-.87c.26-.22,0-.3-.25-.19a12.71,12.71,0,0,0-1.14.83,10.83,10.83,0,0,1-1.35,1.16,3,3,0,0,1,.63-2.57c-.18,0-.54.54-.87.43a3,3,0,0,1,0-.52,4.81,4.81,0,0,1,.16-1.13,7.61,7.61,0,0,1,1.22-1.84l5-8.34,1.19-6.4-10.9,1.82Z"/><path class="cls-77" d="M197.42,29.08s-.26.18.24.54a5.66,5.66,0,0,1-.51.73c-.26.29-.54.47-.66.72a4.25,4.25,0,0,0-.44,1.11,5.53,5.53,0,0,1-.78,2.59,12.64,12.64,0,0,0-.71,1.25,9.11,9.11,0,0,0-.82,1.47,14.93,14.93,0,0,0-.31,2s.34-.41.47-.55a4.2,4.2,0,0,1-.7,1.07c.19-.14.73-.51,1.64-1.27a40.14,40.14,0,0,1,5.65-4,9.13,9.13,0,0,1-1.81.28c.39-.37,3.9-4.26,5.69-4.58a.72.72,0,0,0,.16-.44v0l-1.52-.2-3.12.58-.38-2.4-2.09,1.18Z"/><path class="cls-78" d="M202,42.83a4.21,4.21,0,0,0-.82,1.39,4.3,4.3,0,0,1-.71-1c-.54-.95-1.36-2.17-3.39-1.55a6.35,6.35,0,0,1,0-1.42,7.8,7.8,0,0,0,2.42-2,9.69,9.69,0,0,0,1.91-2.89c.31-.21.83-.58,1.53-1,1-.64,2.17-1.51,2.38-2.52a6.11,6.11,0,0,1-2.89.48c.57-.24,1.44-.49,1.37-1.61.22-.14.41-.24.41-.24a1.79,1.79,0,0,0-.46-.09h-.06c0-.1-.07-.25-.33-.19s-.3.07-.33.17a1.71,1.71,0,0,0-.72.16,11.24,11.24,0,0,1-1.26.86l.27-.45a5.1,5.1,0,0,0-1.28.26,27,27,0,0,0-3.27,1.43c.11-.17.16-.29.24-.33s.25-.07.25-.1-.06-.3,0-.41a14.1,14.1,0,0,1,1.25-2,3.93,3.93,0,0,0,.68-1.7l2.35-1.1,6.54-1.31,4.2.37-.61,2.9-2.63,5-2.27,4.58-2.51,2.77L202,42.83Z"/><path class="cls-79" d="M212.84,30.51A36.69,36.69,0,0,1,209.49,34c.48-1,3.44-6.62,4.5-8.2-.22-.19-.53-.2.26-3-.64,1.4-.88,2.13-1.39,2.5a.93.93,0,0,1-.9.23.59.59,0,0,0,.09-.31V25.2a29.07,29.07,0,0,0-3.58-.36,21.39,21.39,0,0,0-6,1.25,22.78,22.78,0,0,0-2.46.79c-.47.36-.73.76-1,.86s-1.05.35-1.26.63-.5.62-.5.7-.08.17.14.11.65-.32,1.29-.68c.88-.46,1.94-1,2.7-1.3a12.82,12.82,0,0,1,3.84-.78,23.79,23.79,0,0,1,3.44-.5,29,29,0,0,1,3.22.16c-.18.15-.34.33-.28,1a5,5,0,0,1-.32.8c-.49,1.23-1.41,3.26-1.92,4.29-.71,1.4-1.49,2.57-1.89,3.3a24.24,24.24,0,0,1-2.11,3.68c-.85,1-1.29,1.65-1.55,1.86s-2.13,1.51-2,2a10.07,10.07,0,0,0,4-2.5c1.58-1.67,1.91-2.71,3.13-3.62a10,10,0,0,0,2.79-3.73,19.59,19.59,0,0,1,1-2.62Z"/><path class="cls-80" d="M157.47,52.39a4.73,4.73,0,0,1-1.15,2c-.76.64-2.09,1.18-2.27,2.29s1.26,1.72,1.26,1.72a5.84,5.84,0,0,0-.88,2.33,16.7,16.7,0,0,0,0,2.24.83.83,0,0,0-.3.29,2,2,0,0,0,.76,1.59c.73.63,1.35,1,1.73.86a2.24,2.24,0,0,1,.14.39,16.05,16.05,0,0,0,1-2.63c.42-1.26.75-1.07.94-2.77a16.45,16.45,0,0,1,1.93-4.59l1.19-2.47-1.79-1.47-2.58.19Z"/><path class="cls-81" d="M160.8,55a11.25,11.25,0,0,0-1.08,1.21,3.62,3.62,0,0,1-1.61,1.48c-.72.24-1.17.22-1.15.94s.68,1,1,1.4a1.77,1.77,0,0,1,.51,1.74,1.67,1.67,0,0,0,1-1c.41-.81,3.18-5.71,3.18-5.71l-1.94,0Z"/><path class="cls-82" d="M171.54,43.78a1.51,1.51,0,0,0,0-1c-.22-.46-1.59-.65-2.26-1.18a2.69,2.69,0,0,0-2.26-.73c.11-.25.56-.8.21-.93a4.18,4.18,0,0,0-1.93.65c-.34.25-1.1.53-1.26.71s-.42.52-.57.36-.21-.38-.48-.24a6.2,6.2,0,0,0-1.77,1.7,9,9,0,0,1-2.38,3.34c-1.58,1.45-2.27,2.4-1.84,3s.66.17.72.66a4.1,4.1,0,0,1,0,.5,4.74,4.74,0,0,1-.13.92c-.21.78-.53,1.51-.13,1.68,1,.37,2.07-.24,2.28,0,.45.42-.3,1.87.76,2.18a3.32,3.32,0,0,0,2.16-.19l4-2,3.87-1.91,2.06-3.79-1-3.25-.16-.36Z"/><path class="cls-83" d="M167.54,52.88a1.59,1.59,0,0,1,.2-1.9c.84-.88,2-1.22,2.49-1.76a.71.71,0,0,0-.33-.24,3,3,0,0,1,1.35-1.2,1.29,1.29,0,0,0-.85-.44c-.74,0-1.21.43-1.89.41s-.73-.36-.73-.36,1.13-.07,1-.58-.29-.54-.29-.54a11.2,11.2,0,0,0,2.58-1.3,2.62,2.62,0,0,0,.45-1.26c.25,0,1.77-.73,2.37-.38s.14,1.24.14,1.24a14.68,14.68,0,0,0,2.84-2.65c.81.1,1.21-.52,1.81-.51s1.88,1.07,2,3.24a13.72,13.72,0,0,1,0,4.14,19.06,19.06,0,0,0,.15,5.21c.22,1,.83,1,.83,1a1.65,1.65,0,0,1-.55.8,2.48,2.48,0,0,0-.46,1.74,7.54,7.54,0,0,0,.2.82c.08.27-.5.55-.63.92a1.06,1.06,0,0,1-1,.6,4.45,4.45,0,0,0-.66,0c-.49,0-.64.08-.94,0s-.53-.24-.37-1.21-3.64-3.32-3.64-3.32l-6.21-2.42h0l0,0Z"/><path class="cls-84" d="M160.06,62.22s1.32,1.87,7,2a14.33,14.33,0,0,0,4.2-.29,11.46,11.46,0,0,0,5.26-3.59C178.61,58,178.18,57,178.18,57L177,56.77l-3.89.42-11.64,4.57-1.4.46Z"/><path class="cls-85" d="M164.26,62.79s-4.93,1-4.84-2.15,3.2-6.1,4-6.64a14,14,0,0,1,2.7-1.12l4.52.13.79,2.3-.52,4.91-6.62,2.57Z"/><path class="cls-86" d="M169,53.88s-.91-.88-3.07.21a7.68,7.68,0,0,0-4.13,5.68c-.16,1.95,1.5,3.44,4.16,3.59a12.87,12.87,0,0,0,3.79-.19c-.15-.18-.91-1.19-.91-1.19l.16-8.1Z"/><path class="cls-87" d="M168.1,54.34s-.22-.18-.9.16a15,15,0,0,0-2.06,1.58,8,8,0,0,0-.91.72c-1,1.09-1.81,2.9-1.38,3.81s1.89,2,5.72,1.41l-.48-7.68h0Z"/><path class="cls-85" d="M166.81,56.18a4.87,4.87,0,0,0-.68,2.42,4,4,0,0,0,3.92,4.25c2.43.22,4.16-3.38,6-4.75A4.28,4.28,0,0,1,178.21,57a20.1,20.1,0,0,0-4.94-3.57c-3.57-2.06-7.63-2.43-9.92.5,1.05,0,4.44-.81,4.44-.81l1.64.58-2.62,2.44Z"/><path class="cls-88" d="M171.49,58.3c-.09-.23-.16-.54.28-.6s.63,0,.77.32.28.61.05.74a1,1,0,0,1-1.1-.46Zm-.64-2.15s-.16.1-.08-.11.25-.7.73-.58.36.64.28.79a.79.79,0,0,1-.8.28.27.27,0,0,1-.18-.26.15.15,0,0,1,0-.12Z"/><path class="cls-89" d="M129.92,55.94a4.65,4.65,0,0,0,2.56.93c1.38,0,3.19-1.35,4-2.24.5-.52.93-1.07,1.39-1.49a7.4,7.4,0,0,0,.83-.79,10,10,0,0,0,.7-1,13.44,13.44,0,0,1-1.34,1,15.44,15.44,0,0,1-2,1c-.42.13-4.71,2.25-4.71,2.25l-1.48.43Z"/><path class="cls-90" d="M132.07,44.83a5.89,5.89,0,0,1,2-.69,37,37,0,0,1,3.75-.42l2,1,.73,3.12L139,51,137,52.12l-2-3.54-2.89-3.75Z"/><path class="cls-91" d="M129.3,47.52l-.73.51A4.87,4.87,0,0,0,129,46.7a12.44,12.44,0,0,1,2.22-4.84,16.64,16.64,0,0,1,1.16-1.31l-.13,0a.81.81,0,0,0-.48.15,7.18,7.18,0,0,1,2.15-2.07c1-.57,1.36-.74,2.36-.23s1.25.78,2,.77a2.26,2.26,0,0,0,1.39-.77s.14.48-.45,1.58a22.72,22.72,0,0,1-2.86,3.32l-4.68,3-2.32,1.23Z"/><path class="cls-92" d="M132.79,44.47s3.31.55,4.35-.36c0,.11.15.11.14.19a.22.22,0,0,1-.08.14l.34,0a1.87,1.87,0,0,0,.41.09l.34,0a.59.59,0,0,1-.24.37c.15,0,.3,0,.3.16s0,.49-.17.56l-.18,0a1.18,1.18,0,0,1-.27-.06,2,2,0,0,0,.21.82,1.71,1.71,0,0,0,1.77,1.06s.42,1.1-1.55,3.46c-.27.33-.56.77-.9,1.14a4.4,4.4,0,0,0-.32.88c-.08.3,3.25-1.15,4.25-3.95a21,21,0,0,0,1.17-8.22,4.14,4.14,0,0,0-.28-1.66,1.43,1.43,0,0,0-2.23-.31A27.27,27.27,0,0,1,136,42.5a12.48,12.48,0,0,1-3.24,2Z"/><path class="cls-84" d="M128.69,48.44a2.73,2.73,0,0,0-1,1.76,5.84,5.84,0,0,0,.55,3.8c.35.57,1.14,2.12,2.85,2.24a3.13,3.13,0,0,0,1.25-.21A8.14,8.14,0,0,0,134,55c.76-.54,1.38-1,1.3-1.06s-4.46-3.83-4.46-3.83l-1.59-1.89-.59.19Z"/><path class="cls-93" d="M132.65,54.57a3.82,3.82,0,0,0,1.43-.37c.54-.32-3-4-3-4l.14,3.89,1.41.5Z"/><path class="cls-94" d="M129,48.18a5.12,5.12,0,0,0-.49,1.08,18.85,18.85,0,0,0,.23,3.81,2.76,2.76,0,0,0,2.38,2,3.39,3.39,0,0,0,1.89-.55c0-.15-1.11-.33-1.39-.9a4.89,4.89,0,0,1-.25-1.8,2,2,0,0,1,.18-1.19,3.81,3.81,0,0,0,.54-1.74l1.52-2.66-1.9-.05-2.33,1.35Z"/><path class="cls-85" d="M128.4,49a8.25,8.25,0,0,1,2.9-2.35,2.92,2.92,0,0,1,2-.13l-.84,2-1.16,1.21.06.64a3.87,3.87,0,0,0,.85,2.86,2.91,2.91,0,0,0,2.4,1.19,3.19,3.19,0,0,0,2.65-2,5.85,5.85,0,0,0,.05-5.6,4.55,4.55,0,0,0-3.79-2.2c-.42,0-3.75,0-5.08,4.4Z"/><path class="cls-95" d="M166.57,56.81c-.56-.27,0-1.83.59-2.3a3.94,3.94,0,0,1,2.54-1c.46,0,.89.28.8.59a4.53,4.53,0,0,1-1.65,1.85C167.84,56.65,167.19,57.11,166.57,56.81Z"/><path class="cls-96" d="M136.59,47.38a1.06,1.06,0,0,1,1,.77c.09.49-.29,1.44-1.08,1.42s-.94-.81-.94-1a1.18,1.18,0,0,1,.17-.52.85.85,0,0,1,.83-.63Z"/><path class="cls-97" d="M130.69,47.56A3.5,3.5,0,0,0,129.13,49a4,4,0,0,0-.42,1.66,4.36,4.36,0,0,0,0,.72,5.94,5.94,0,0,0,.66,1.67,1.15,1.15,0,0,0,.85.55,1.53,1.53,0,0,0,.81-1.1,7.86,7.86,0,0,1,.62-3c.46-.92-1-1.9-1-1.9Z"/><path class="cls-98" d="M130.85,47.48c-.19.1-.5.24-.43.45s.7.32.91.76a1.57,1.57,0,0,1,.15,1.17,2,2,0,0,0,.54-.36c.35-.37.77-.87,1.12-.86s.45.12.66.12.67-.08.72-.43-.61-.88-1-.82a1,1,0,0,0-.12-1c-.33-.3-1.38.19-1.61.34s-.92.69-.92.68Z"/><path class="cls-99" d="M153.94,79.91l2.26-.59.62.48s.43,1,1.13,1.12c-.24.48-.84.87-.82,1.22a1,1,0,0,0,.31.61s-2.1,3.27,1.76,6.73c-.94.35-2.15.83-2.8,1.11a4.89,4.89,0,0,1,1.82.72c.4.38.39.5.76.73s.59.55.51.68c-.25-.15-1.1-.64-1.26-.21s-3.75.14-3.75.14l-6.07,1a1.1,1.1,0,0,0-.38-1.18c-.72-.69-1.64,0-2.59-.79-1.25-1-1.26-2.12-1.65-2.55a8,8,0,0,1,3.25-.81,1.31,1.31,0,0,1-.15-1c.19-.52,1-.83.75-1.47.33-.07.49-.06,1.34-1.09s1.31-1.23,1.92-1.29,1,0,2.11-1c.81-.72.57-1.36.57-1.36s.51-.15.36-1.2Z"/><path class="cls-100" d="M147.33,80.06c0-.15.16-.22,1-.12s6-.31,7.4-.35a47,47,0,0,1,8.84.74c2.42.59,4.86,1.26,6.05,1.59s1.55.5,1.5.65a.42.42,0,0,1-.46.24c-.15,0-4.07-1.35-5.29-1.64a48.9,48.9,0,0,0-7.74-1.12,40.81,40.81,0,0,0-4.86,0,39,39,0,0,1-5.77.24c-.87-.13-.7-.12-.64-.27Z"/><path class="cls-101" d="M159.15,92.25s3,1.77,4.11,3.85a1.64,1.64,0,0,1-.55,2.28s1.75.05,1.49,1c-.12.6-3.08,2.15-5.06,3a7.85,7.85,0,0,1-2.89.88c-.94.13-3.5-.39-4.05.34a1.5,1.5,0,0,0-.2,1.65,8.48,8.48,0,0,0,1.37.29s-.27.71-2.82.71-3.18.16-3.34.43.49.12,1.64.35,2.78.38,2.78.38a5.07,5.07,0,0,1-1.92.76c-1.58.36-4.06.67-4.81,1.1a4.36,4.36,0,0,0,1.17.7,7.22,7.22,0,0,0-1.69.56l.52.34a10.63,10.63,0,0,1-2.07,1.85c-.75.36-5.06,2.21-6.52,1.79-3.63-1.07-4-5.09-4.85-5.41-1.33-.5-2,.4-3.17-.27a6.48,6.48,0,0,1,1.4-.82c-.59-.32-3.67-2.39-3.67-2.39a20.56,20.56,0,0,0-1-2.11c-.57-1.07-1.42-2.48-2-3.73-1.37-2.73-1.41-4-2.69-5.53.24-.29,1-.22,1-.22l10.91,3.93L151.7,99,157,91.93l2.16.32Z"/><path class="cls-102" d="M129.91,102.48a1.19,1.19,0,0,0,.4.34,5.75,5.75,0,0,1,1.28,1.06c.16-.22.55-.62,1.2,0s1.49.22,2,.39.55.27.55.27a4,4,0,0,1,1-.51c.42-.13.9-.22,1.43-.36a8.31,8.31,0,0,1,1.38-.21c.33.23,1.48,1.53,6.33-.2,4.57-1.63,5.61-1.79,6.36-1.5.08-.18.17-.53,1.33-.45a8.68,8.68,0,0,0-.9-2.16l-5.28-2-2.92-.08-8.79,1.36-4.93,2.62-.42,1.38Z"/><path class="cls-103" d="M127.08,99.33a2.83,2.83,0,0,0,1.26,1.72,7.37,7.37,0,0,1,1.53,1.42s.23-.3.43-.6.36-.7.66-.79c.61-.24,2,.28,2.27.21s.2-.6.47-.59c.64,0,1,.43,1.26.44s.79,0,.87-.12a3.1,3.1,0,0,1,1-2,2.56,2.56,0,0,1,2.39-.15c0,.22,0,.78.61.83a3.1,3.1,0,0,1,1.2.14c.52.19,1.16,0,1.42.9.26-.07.86-.13.74-1a4.34,4.34,0,0,0,1.23-1.23c.16-.22.43-.48.63-.8a2.49,2.49,0,0,1,2,.69c-.26.18-.42.29-.5.48a5.14,5.14,0,0,1,.59.72c.21.31.36.68.64.76a25.09,25.09,0,0,0,2.84.08,5.84,5.84,0,0,1,2.44.81c.15-.07.15-.1.53,0s.66.12.27-.38c.22.11.47.35.7.13a1.5,1.5,0,0,1,1.06-.61c.64,0,.86.06,1.14-.6S156,99,156,99s.54-.47,1.15-1.09a5.1,5.1,0,0,0,1.8-2.53,1.83,1.83,0,0,0-1.51-2.25l-9.31,2.58-11.27-.89-9.76,4.53Z"/><path class="cls-104" d="M119.55,72.43a3.25,3.25,0,0,0-.52,1.25c-.22.89-.13.78-.3,1.42s-2.21,6.88-1.57,9,1.82,3,2.52,4.71a9.85,9.85,0,0,1,.36,1c.22,1.13,0,2,.24,3.11A3.61,3.61,0,0,0,121,94.2c.87,1,2.31,1.9,2.92,2.55.86,1,2.08,2.9,3.69,3.13a5.53,5.53,0,0,0,3.13-.77,23.54,23.54,0,0,1,2.44-1.73,9.54,9.54,0,0,1,2-.55,9.27,9.27,0,0,1,3.23,0,31.62,31.62,0,0,0,5,1.16,13.71,13.71,0,0,0,3.31-.36c2.17-.58,4.82-1.59,6.56-2,1-.27,1.84-.33,2.67-.48a5.66,5.66,0,0,0,3.34-1.56c-.44-.54-1-1.37-4-1.43-3.43,0-7.45,1.77-9.4,2s-2.81.48-5-.37-2.17-1.38-2.17-1.38a9.6,9.6,0,0,1-3-5.65,10,10,0,0,1,2.71-9.6,1.61,1.61,0,0,0,.52-1.33s1.66-2.11,1.29-4.15-3.54-1.7-3.54-1.7l-17.28,2.5Z"/><path class="cls-105" d="M121.94,79.23a1.55,1.55,0,0,0-.21.73V80c0,.41.12.94,1.31,2.17a2.56,2.56,0,0,1,.75,2.22,3.86,3.86,0,0,0,2-.5c1.13-.5,1.48.45,1.48.45a3.23,3.23,0,0,1,1.06-.3,2.37,2.37,0,0,0,.94-.27c.29-.16,1.27,1.38,2.41,2s1.62,1,2.14.62a1.44,1.44,0,0,0,.49-1.3,4.38,4.38,0,0,0-.43-.8c-.32-.5-.83-1.07-.85-1.52-.05-1,.85-2.26.67-2.57s-.84-.4-2.54.15-9.2-1.21-9.19-1.21Z"/><path class="cls-106" d="M125.7,86.1s-.83-.84-.42-4.79h.08a5.82,5.82,0,0,1,1,.13C126.7,81.52,126.74,84.52,125.7,86.1Z"/><path class="cls-85" d="M120,69.42a1.93,1.93,0,0,0,.35-.29,7.5,7.5,0,0,0-.74,6.31c1,3.53,3.75,6.23,7.21,6.44s5.32-1.41,7.47-3.89c.84-1,1.82-2.24,2.68-3.07,1.27-1.31,2.25-1.67,2.29-3,.07-2.66-2.61-3.93-6.58-5.24s-7.59-1.26-9.48-.5a5.15,5.15,0,0,0-3.2,3.2Z"/><path class="cls-107" d="M132.39,87.48l.31-.14s.1-1.2.59-1.15a.94.94,0,0,1,.64,1,.57.57,0,0,1-.65.54,1.45,1.45,0,0,1-.89-.21Z"/><path class="cls-108" d="M131.19,82.37a.68.68,0,0,1,.66.27,5.67,5.67,0,0,1,2,.16,1.49,1.49,0,0,1,.51.5,5.22,5.22,0,0,1-2.36-.07c-.83-.31-.82-.86-.82-.86Z"/><path class="cls-109" d="M137.91,82.78a3.77,3.77,0,0,0-1.66-.86c-.15,0-.18.07-.3.07s-.1-.26-.1-.26l-.5.24s-.07.1.17.3.6.36.7.66a3.79,3.79,0,0,0,.13.46,1.68,1.68,0,0,0,.82-.13c.27-.15.77-.38.74-.48Z"/><path class="cls-110" d="M130.19,85.63a1.27,1.27,0,0,1,1.19-1,1.18,1.18,0,0,1,1.22,1l-.62.58s-.43-.66-1.79-.5Z"/><path class="cls-111" d="M136.89,81.33a3.19,3.19,0,0,1-1.82.74.71.71,0,0,1,0-.94c.35-.47.73-.61,1.11-.45a.87.87,0,0,1,.69.65Z"/><path class="cls-109" d="M139.15,82.14c0-.15-.07-.18,0-.26s.49-.21.57-.13a1.71,1.71,0,0,1,0,.3.72.72,0,0,1-.09.4.6.6,0,0,1-.56.16c-.15,0-.18-.26-.18-.3s.26-.1.26-.17Zm2.63-1.56c0-.07.26-.21.41-.21s.22.19.25.23.08,0,.15.11.17.39.09.53a.56.56,0,0,1-.46.22,3.81,3.81,0,0,1-.44-.88Z"/><path class="cls-104" d="M136.53,82.41a2.18,2.18,0,0,1,.77.48c-.15.1-.39.22-.39.22a1.14,1.14,0,0,0-.38-.7Z"/><path class="cls-84" d="M135.89,79.07c-.08-.08.23-.25.41-.21s.25.15.45.19.23-.07.31-.14.33,0,.38,0a.41.41,0,0,1,.07.11.39.39,0,0,1,.16-.3.46.46,0,0,1,.28-.08l.13,0a2.14,2.14,0,0,1,.13.56c0,.08-.49.17-.56.09a5.17,5.17,0,0,0,.44.65c0,.08-.34.24-.49.21a6,6,0,0,1-1.71-1.11Zm3.82-2.79a.4.4,0,0,0-.14-.19c-.11,0-.46,0-.46.17a5.48,5.48,0,0,0,.58,1.74,4,4,0,0,0,.86,1.12.32.32,0,0,0,.14,0A.33.33,0,0,0,141,79a9.5,9.5,0,0,0,.13-1.94,18.62,18.62,0,0,0-.07-2.67.44.44,0,0,0-.49.06,15,15,0,0,0-.86,1.85Z"/><path class="cls-111" d="M136.37,84.31a1.23,1.23,0,0,0-1-.14c-.49.21-.49,1.11-.49,1.11a.76.76,0,0,0,.26.06.74.74,0,0,0,.41-.11,2.09,2.09,0,0,0,.86-.92Z"/><path class="cls-109" d="M137.33,85.53c0-.3-.29-.31-.29-.46a.35.35,0,0,1,.34-.25h0c.15,0,.29.19.48.32s.44.31.47.54-.33.85-.69.84-.24-.69-.31-1Zm2.64-.78s-.61.16-.56,0,.18-.22.39-.21a.53.53,0,0,1,.37-.17h0a.34.34,0,0,1,.21.08c0,.06.41-.17.53-.06s0,.11.1.23a.94.94,0,0,1,.16.46c0,.12-.46.37-.82.3s-.33-.54-.4-.61Zm4.6-.73s.18.11,0,.22a2.28,2.28,0,0,1-1.1.3c-.46,0-.87,0-.86-.1s.39-.44.62-.51a.5.5,0,0,1,.38-.17h0c.18,0,.89-.05,1.09-.07s.33.08.22.23-.38.1-.38.1Zm.4-4s-.24.48-.5.48-.25-.12-.25-.19.27-.37.24-.45-.25,0-.22-.19.26-.32.5-.28a.94.94,0,0,1,.61-.21c.25,0,.48.09.48.24a1.29,1.29,0,0,1-.43.55c-.12.11-.28.19-.43,0ZM141,88.19s-.3,0-.31.17.08.07.18,0l.18,0s0,.18.25.18a1.3,1.3,0,0,0,.54-.16c.18-.07.34-.14.34-.29s-.21-.39-.44-.39h0a.62.62,0,0,0-.3.06c-.09,0-.07-.15-.33,0s-.23.15-.16.22.09.21.09.21Zm-1,1c0-.07.38-.21.49-.16a2,2,0,0,1,.39.68c0,.07-.38.24-.54.23a.66.66,0,0,1-.4-.31s.18-.07.18-.1-.12-.26-.12-.34ZM138.9,87c.07,0,.07-.1.18-.17a.27.27,0,0,1,.14,0l.08,0a.38.38,0,0,1,.26-.17c.18,0,.34,0,.3.08,0,.23.14.39.13.57s-.11.41-.5.54a2.62,2.62,0,0,1-1,0c-.08,0-.14-.33-.06-.49a1.59,1.59,0,0,1,.44-.38Z"/><path class="cls-104" d="M138.87,88.22s-.26.14-.26.22a.48.48,0,0,0,0,.2v0s.34,0,.38-.06-.08-.3-.08-.38Z"/><path class="cls-84" d="M136.64,87.45a2.82,2.82,0,0,1,.6.09c.15.08.25.23.1.41s-.32.45-.65.39-.73-.25-.73-.4v0a.76.76,0,0,1,.19-.47c.16-.12.24,0,.49,0Z"/><path class="cls-111" d="M136.46,87.59a4,4,0,0,0-.62.55c-.16.17-.93,1.09-1.16,1.28.08-.13.17-.26.26-.38a1.67,1.67,0,0,0-.66.8c-.19.56,1,.89,1.77,1.14s1.08.33,1.08.33a9,9,0,0,1-.7-1.39c-.27-.72-.43-.8-.22-1.13s.4-.55.41-.8-.16-.4-.16-.4Z"/><path class="cls-85" d="M119.2,88.3h.16a.49.49,0,0,0,.17,0,15.45,15.45,0,0,1,5.07-.59A27.05,27.05,0,0,1,130,88.76c3.08.9,6.88,2.64,9.35,3.63.66.27,1.29.74,1.77.94a12,12,0,0,0,3.07,1,12.13,12.13,0,0,0,4.08-.45c1.73-.33,4.68-.43,7.28-.73a15.88,15.88,0,0,0,2.47-.49c.81-.23-2.11,2-7.06,2.59a21.26,21.26,0,0,1-3.29.15,20.83,20.83,0,0,1-2.73-.25,17.86,17.86,0,0,1-3.38-.7c-.88-.28-2.69-1-4.92-1.63-1.56-.46-3.31-.81-5.3-1.25-4.93-1-10.28-2.23-12.16-3.3Z"/><line class="cls-112" x1="117.18" y1="69.06" x2="104.93" y2="56.95"/><path class="cls-27" d="M113.91,78.8c-1.23,1-2.52,1.91-3.78,2.81l-3.82,2.76c-1.3.9-2.56,1.83-3.86,2.73s-2.59,1.76-4,2.58c1.22-1,2.52-1.88,3.82-2.77s2.63-1.74,3.88-2.64L110,81.51c1.3-.91,2.57-1.84,3.9-2.71ZM107,89.19s1.38-1.08,3.1-2.61a62.24,62.24,0,0,1,5.59-4.73L107,89.19Z"/><path class="cls-27" d="M107,89.19c.69-.65,1.41-1.28,2.14-1.89l1.12-.91c.34-.28.73-.61,1.07-.93.69-.64,1.36-1.34,2-2a13.44,13.44,0,0,1,1.07-.93,2.69,2.69,0,0,1,.62-.39,1.8,1.8,0,0,1,.65-.32,6.29,6.29,0,0,1-.51.52,5.5,5.5,0,0,0-.49.47c-.35.32-.73.61-1.08.91-.72.58-1.48,1.15-2.21,1.77s-1.41,1.27-2.14,1.89-1.52,1.22-2.28,1.81Zm16.64-12.45s-5.06,4.67-6.1,5.43Z"/><path class="cls-27" d="M116.21,83.4a14,14,0,0,1-1.47,1.41l-1.53,1.38c-.5.47-1,.93-1.49,1.41s-1,.86-1.61,1.27l1.49-1.38c.5-.47,1-.86,1.57-1.33l1.49-1.38a19.89,19.89,0,0,1,1.55-1.38Zm.15,2.62a31.19,31.19,0,0,1-1.71,3.66c-1.34,2.51-3.34,5.63-4.21,7.22L116.36,86Z"/><path class="cls-27" d="M116.36,86a4,4,0,0,1-.38,1.52c-.19.47-.41.95-.64,1.4s-.52.92-.78,1.35-.59.88-.82,1.32l-1.61,2.65c-.55.88-1.09,1.77-1.67,2.61a25.18,25.18,0,0,1,1.45-2.72c.56-.88,1.06-1.76,1.58-2.68.24-.45.47-.92.67-1.4s.48-.93.68-1.35.43-.93.67-1.36a9.13,9.13,0,0,1,.85-1.34Z"/><path class="cls-113" d="M121.39,98.56a7.54,7.54,0,0,0-1.48,4.45C120.35,101.71,120.93,99.71,121.39,98.56Zm1.36,2s-.69,5.36-1.19,8A32.93,32.93,0,0,0,122.75,100.59Zm9.66,8.63s-2.42,6.5-2.52,8.33c.53-1.87,1.57-5.68,2.52-8.33Z"/><path class="cls-114" d="M137.94,98.63s3.45,6.09,6,11.27A25.14,25.14,0,0,0,137.94,98.63Z"/><path class="cls-115" d="M147.43,107.72a108.63,108.63,0,0,1,5.07,11,16.62,16.62,0,0,0-5.07-11Z"/><path class="cls-116" d="M175.82,117.36c.62-.37,1.87-2.39,2.92-2.86a7.39,7.39,0,0,0,2.82-1.6,6.61,6.61,0,0,1,3.32-2.52c2.9-1.16,1-2.81,1-2.81a8.13,8.13,0,0,1,1-.83,2.87,2.87,0,0,0,1.59-2.39c0-2-.34-4.94-1.94-6.68,1.61-.29,4.69-.43,6.61-.85a9.45,9.45,0,0,0,3.26-1.26,3.67,3.67,0,0,1,.9-4.31c2.12-2.11,3.84-3.36,5.14-5.76-1.41-.22-3.56-1-9.15.9a9.26,9.26,0,0,1,.86.51c.27.19-3.43.84-4.7,1.85-2.21,1.77-2.53,3.25-4.9,4.31s-4.72.68-6.7,1.53-2.28,1.61-3,1.93c.14.18-.05.48.23.74-.19.25-1.3,1.95-2.37,1.92.1.41,1,.74,1,.74a4.91,4.91,0,0,1-2.37.53,17,17,0,0,0,3.84,3.41c-.19.38-1,.91-.69,1.63s1.15,1.72,4.57,2.6a30.45,30.45,0,0,1-6.57-.08c-2.76-.41-3.21-.63-4.92-.25.17.19.66.2,1.07.7-.46,0-3.29-.43-4.29.82a8.24,8.24,0,0,0-1.51,4.88,1.28,1.28,0,0,0-.83,1.63c.23.94,1.56,1.28,2.41,1.9s.91.88,1.74.76,2.15-1,2.89-1a2,2,0,0,1,1.26.6s2-.91,2.22-.72,0,1.34.18,1.53a17.21,17.21,0,0,0,3.11-1.54Z"/></g></g></svg>