<svg xmlns="http://www.w3.org/2000/svg" width="344.44" height="402.08" viewBox="0 0 344.44 402.08"><defs><style>.cls-1{fill:#a6754f;}.cls-2{fill:#bf8f68;}.cls-3{fill:#9b6129;}.cls-4{fill:#ad7742;}.cls-5{fill:#874200;}.cls-6{fill:#733300;}.cls-7{fill:#a15c26;}.cls-8{fill:#572b0f;}.cls-9{fill:#858277;}.cls-10{fill:#6e6e63;}.cls-11{fill:#9e9d8f;}.cls-12{fill:#475a6e;}.cls-13{fill:#637c8f;}.cls-14{fill:#2f455b;}.cls-15{fill:#4b66a6;}.cls-16{fill:#314d8a;}.cls-17{fill:#6e91cc;}.cls-18{fill:#dbf0fa;}.cls-19{fill:#adcfeb;}.cls-20{fill:#599ed6;}.cls-21{fill:#75b8e1;}.cls-22{fill:#3880c2;}.cls-23{fill:#525245;}.cls-24{fill:#ffd9b5;}.cls-25{fill:#dbb087;}.cls-26{fill:#9c6f54;}.cls-27{fill:#ffe9cf;}.cls-28{fill:#1e61a1;}.cls-29{fill:#0b253f;}.cls-30{fill:#1c3360;}.cls-31{fill:#f4a427;}.cls-32{fill:#fff;}.cls-33{fill:#f79422;}.cls-34,.cls-37,.cls-38,.cls-39{fill:none;stroke-width:2.24px;}.cls-34,.cls-37,.cls-38{stroke:#221f1f;}.cls-34,.cls-37,.cls-39{stroke-linejoin:round;}.cls-35{fill:#5a595c;}.cls-36{fill:#929497;}.cls-37,.cls-39{stroke-linecap:round;}.cls-38{stroke-miterlimit:10;}.cls-39{stroke:#171717;}.cls-40{fill:#171717;}.cls-41{fill:#221f1f;}</style></defs><g id="Layer_2" data-name="Layer 2"><g id="Layer_1-2" data-name="Layer 1"><path class="cls-1" d="M295.93,304.82c-24.55,5.92-60.32,14.59-60.92,17.7l25.38,13.06s81.69-19.36,82.22-20.95-21-14.86-24.14-15.65C317.46,298.73,307.67,302,295.93,304.82Z"/><path class="cls-2" d="M306.35,304.14a138.55,138.55,0,0,0,15.06,4.9c6.89,1.8,13.86,3.28,20.81,4.86-2.93-3.23-20.89-14.21-23.75-14.92-.8-.2-7.06,1.79-15.44,4C304.35,303.46,305.59,303.84,306.35,304.14Z"/><path class="cls-2" d="M278.64,324.56c3.7,1,25.8-6.33,24.53-7.4s-4.67-3-8.26-5.42c-.92-.61-.61-1.91.45-1.65l.35.11c.19-1.82.36-3.64.53-5.46l-.31.08c-9.75,2.35-21.25,5.13-31.63,7.83C268.92,317.52,276.75,324.06,278.64,324.56Z"/><path class="cls-2" d="M250.16,318.66c.79-.93,1.57-1.88,2.35-2.84-10,2.85-17.23,5.32-17.5,6.7l7.77,4C245.22,323.89,247.8,321.4,250.16,318.66Z"/><path class="cls-3" d="M235,322.52c1.26-.61,3.1-.2,5.75,1.4s19.63,11.66,19.63,11.66l1.59,43.5s-22.66-10-24.46-12.55S233.51,323.24,235,322.52Z"/><path class="cls-4" d="M260.48,338.07l-.09-2.49s-17-10.07-19.63-11.66-4.49-2-5.75-1.4c-.12.05-.21.36-.29.87C243.47,328,252,333,260.48,338.07Z"/><polygon class="cls-5" points="260.38 335.58 261.98 379.08 343.67 358.93 342.61 314.63 260.38 335.58"/><path class="cls-6" d="M288.35,372.57l55.32-13.64-.52-21.74C335.16,343.4,306.21,362.7,288.35,372.57Z"/><path class="cls-7" d="M342.7,318l-.09-3.33-82.22,20.95.09,2.49C267.76,337,330.07,322.1,342.7,318Z"/><path class="cls-8" d="M343.76,313.86c-.31-2.49-23.86-14.82-24.53-15.16a4.15,4.15,0,0,0-2.21-.11c-1.06.28-9.83,2.53-15,4a7,7,0,0,0,.17,1.4c1.56-.43,14.26-4.09,15.67-4.06s6.7,3.34,10,5.06c-2.52.59-20.49,5.82-27,7.64-13.37,3.72-26.77,7.38-40.35,10.28-4.93,1.05-9.83,2.17-14.81,3-2.45-1.32-6.05-3.26-8.59-4.39,8.12-2.89,17.2-5.44,25.55-7.59-.14-.7.06-.73,0-1.45-5,1.28-9.92,2.63-14.82,4.11-4.22,1.29-11.92,3.95-12.55,4.21s-1.71,1.23-1.71,1.8,2.16,42.66,2.28,43.56.26,1.94,1.27,2.28,21.59,11,22.46,11.53a3.94,3.94,0,0,0,3.06.41c1.19-.24,54.64-15.49,81.78-20.45C344.56,359.87,344.08,316.35,343.76,313.86ZM248,371.37c-.71-2.18-1.72-31-1.52-42.92,4,2.19,8.93,4.83,13,6.9.14,11,1.43,28.5,1.05,42.7C256.43,375.83,252,373.45,248,371.37Zm13.37-35.72c1.7-.48,25.94-5.23,33.13-7.23s11.8-3.08,18.58-5,26-6.91,29.08-7.8c.46,13.81.46,28.93.32,42.6C315.33,363.29,289,371.92,263,378,262.67,371.82,261.42,348.06,261.33,335.65Zm23-16.32c13.2-3.49,43.42-12.88,45.78-13.34a123.86,123.86,0,0,1,11.22,7.46c-12.57,3.72-24.53,6.39-37.1,10.11-11.56,3.42-42.59,10.53-43.43,10.37s-8.93-4.62-13-6.84C259.81,325,272.51,322.43,284.29,319.33ZM235,322.52c.26-.54,7,3.27,9.75,4.75,0,8.35-.24,37.83,1.29,43.43-2.38-1.17-6.1-3.12-8.53-4.17C237.37,364.51,234.53,323.52,235,322.52Z"/><path class="cls-8" d="M292.62,305.05c-1.77,2.09-10.94,3-12.43,3.07-3.85.93-7.69,1.85-11.52,2.8a10.85,10.85,0,0,0,0,1.64c1.11-.28,18.46-4.21,26.12-6.18,0-.74.12-1.18.12-1.91Z"/><path class="cls-9" d="M263.53,319.84s-.29-6-.43-8.24-.66-4.2,2.52-5.93a45.14,45.14,0,0,1,11.22-4.35c5-1.3,16.78-2.67,20.11-3.4s4.13.51,4.42,2.46.43,8.47.43,8.47-6.58,2.1-6.58,1.88.36-6.29-.29-6.58-23.22,4.48-25.11,5.2-1.66,3.55-1.44,5,.94,4.78.94,4.78Z"/><path class="cls-10" d="M294.78,298.32c-4.74.77-13.75,1.91-17.94,3a45.54,45.54,0,0,0-10.37,3.9,7.88,7.88,0,0,1,3.75,4c3.5-1,24.08-5.36,24.71-5.08.23.1.33.93.37,2A17.48,17.48,0,0,0,294.78,298.32Z"/><path class="cls-11" d="M299.32,302c.72,2.55.29,5.09.09,7.63l2.39-.75s-.15-6.51-.43-8.47-1.09-3.18-4.42-2.46c-.37.09-.85.18-1.41.27A6.46,6.46,0,0,1,299.32,302Z"/><path class="cls-12" d="M189.29,369.21c-3.06,6.31-18.14,21.87-22,24.71a43.07,43.07,0,0,0-6.4,5.69A21.57,21.57,0,0,0,179,397.47,56.53,56.53,0,0,0,192.82,385l.71,9.24s11-1.77,11.36-3.55-2.61-20.06-2.61-20.06Z"/><path class="cls-13" d="M183,377.94c-5.65,6.65-13.12,14.1-15.7,16a43.07,43.07,0,0,0-6.4,5.69,19.9,19.9,0,0,0,4.84,1C174.64,396.09,179.74,387.55,183,377.94Z"/><path class="cls-12" d="M70.72,367A60.69,60.69,0,0,0,66,379.36c-1.42,5-1.06,13.85-1.06,13.85l7.45-.36s.7-10,1.78-9.94,6,9,20.6,13.86c16,5.32,36.94-1.78,34.1-3.2s-13.5-3.91-20.6-7.11-25.86-18-25.86-18Z"/><path class="cls-13" d="M83.92,369.77c.34,6,6,10.56,10.67,13.65a51.91,51.91,0,0,0,14.75,7.19,50.31,50.31,0,0,0,16.29,1.75c-4.51-1.45-11.95-3.47-17.34-5.9-5.92-2.66-19.9-13.37-24.42-16.88A.67.67,0,0,1,83.92,369.77Z"/><path class="cls-14" d="M203.33,377.37c-.56-3.69-1.05-6.7-1.05-6.7l-13-1.46a34.33,34.33,0,0,1-3.57,5.35C191.43,376.92,197.54,378.4,203.33,377.37Z"/><path class="cls-14" d="M85.55,370.88c-1.91-1.47-3.12-2.42-3.12-2.42L70.72,367a44.72,44.72,0,0,0-2,4.23C73.73,372.78,79.88,372,85.55,370.88Z"/><path class="cls-15" d="M197.39,141.69c13.51,3.92,30.79,11.24,43.37,20.3S270.6,185.46,273,189.84s3.2,6.2,3.58,8.44,4.13,33.55,5.39,43.43,5.8,40.32,5.8,40.32-12.55,2.19-12.86.47-.31-15.38-.78-21.18-1.26-14.12-1.58-18.35-1.88-18.52-1.88-18.52l-2-9.09L263,237.63l-13.48,67.92a152.41,152.41,0,0,1-20.7,5.34c-10.2,1.72-20.09,3-20.09,3l-6.27,55.69a14.37,14.37,0,0,1-7.06,1.26c-3.45-.48-6,.74-6.08-1.6s2.64-25.69,3.11-30.56,3-23.53,3-23.53a349,349,0,0,1-56,4.08c-30.28-.31-54.11-2.19-54.11-2.19l-2.83,51.45s-10.35.15-10.82-2-.63-16.15.47-25.72,3.61-24,3.61-24-29.34-3.45-31.06-4.7S40.39,294.42,39,282s-2.51-45.66-1.88-54,.78-16.15.78-16.15-8,16.94-11.13,31.06-6.41,44.35-6.41,44.35l-9.91-8.12s2.67-8.78,4.71-14.27,6.59-29.49,8.47-37.65a182.78,182.78,0,0,1,7.53-24.16c3.29-8.78,6.59-17.88,15.21-26.35s21.81-18.67,32.32-23.21,33.72-12.71,43.14-13.81,17.09-2.2,22.89-2.2S187.34,138.78,197.39,141.69Z"/><path class="cls-16" d="M90.37,317.36l4.56.29-1.06-.14C92.7,317.47,91.53,317.41,90.37,317.36Z"/><path class="cls-16" d="M73.89,316.14l-.12.32,1.92.23s-.79,4.49-1.66,10.13a55.79,55.79,0,0,0,10.67.34l.55-10.06C81.45,316.89,77.66,316.59,73.89,316.14Z"/><path class="cls-16" d="M124.81,268.89c-1.25-1.85-2.5-3.71-3.73-5.57-4.31,17.47-6.24,41.49-5.34,55.32l5.93.2C121.28,302.09,121.85,285.3,124.81,268.89Z"/><path class="cls-16" d="M103.27,185.37c-3.34,3.4-6.67,6.83-9.93,10.32,5.53-.43,11.06-.79,16.61-.88,2.4-3.05,4.84-6.06,7.48-8.91C112.71,186,108,185.57,103.27,185.37Z"/><path class="cls-16" d="M136.42,148.52c3.14,7.68,13.94,9.8,21.28,10.2,15,.82,33.53-.9,39-17.21-11-2.78-46.28-4-52-4-2.49,0-5.35.21-8.52.53C135.38,141.66,135.11,145.32,136.42,148.52Z"/><path class="cls-16" d="M184.34,163.37c1.95-.6,3.83-1.39,5.83-1.84a.87.87,0,0,1,1.05.6c.11.58.25,1.14.39,1.71,4-4.67,5.63-12.28,5.57-19.09-7.07,15.15-26.87,17.42-42.22,15.43-7.2-.94-16.26-3.16-19.79-10.25-1.75-3.52-1.57-7.65-.74-11.67l-2.46.28c-2.49,4-4,8.4-2.18,12.76.51-.42,1-.84,1.56-1.23s1.27.15,1.29.74c.25,9.16,9.76,14,17.56,16,7.44,1.91,16.56,2.94,23.85-.2l.11,0a42.45,42.45,0,0,1,9.7-3.26A.79.79,0,0,1,184.34,163.37Z"/><path class="cls-16" d="M193.26,177.07c-3.28,3.88-7.5,6.83-10.6,10.87,4.12,2.37,9.48,2.73,12.88,6.1,1.87-1.15,3.75-2.28,5.58-3.49A152.27,152.27,0,0,0,193.26,177.07Z"/><path class="cls-16" d="M133.32,296.36a.78.78,0,0,1,.13,1.27c-3.28,3-4.8,8.6-1.28,11.91,1.3,1.22,3.14,2.87,5.09,2.71,3.16-.26,3.89-5.08,4-7.49.17-3.05,0-7.44-2.3-9.8C137.12,293.06,135,294.49,133.32,296.36Z"/><path class="cls-16" d="M195.34,315.35c-.16,1.18-1,7.16-1.7,12.91a44.64,44.64,0,0,0,13.65-1.82l1.26-11.2C204.15,315.34,199.74,315.29,195.34,315.35Z"/><path class="cls-16" d="M140.72,276.31c-2.56-.22-5.7.12-6.6,2.78a6.87,6.87,0,0,0,1.24,6.27c1.46,1.9,3.79,2.65,5.85,1.18,1.68-1.21,3.35-3.44,3.37-5.57C144.6,278.45,142.88,277,140.72,276.31Z"/><path class="cls-16" d="M141.73,257.52c2.34-1.71,4.87-3.24,7.23-4.71,5.5-3.44,11.14-6.66,16.62-10.12,14.93-9.4,29.33-19.58,43.62-29.9a63.08,63.08,0,0,0-10.58-4.58C178.65,223.26,157.79,238.24,141.73,257.52Z"/><path class="cls-16" d="M118.42,258.72c.18-.37-3.87-9-3.5-9-4-10.78-12.28-22.9-17.87-33a90.31,90.31,0,0,1-5.74,7.33C98.23,232.1,111.24,249.79,118.42,258.72Z"/><path class="cls-17" d="M129.82,138.79l-8,1c-9.42,1.1-29,6.59-43.14,13.81a148.74,148.74,0,0,0-32.32,23.21c-8.62,8.47-11.92,17.57-15.21,26.35-2.5,6.68-4.46,12.45-6.09,18.42a181.26,181.26,0,0,1,11.16-22.87c8.15-14.16,18.38-26.21,32.59-34.53C93.77,149.52,119.63,141.75,129.82,138.79Z"/><path class="cls-17" d="M258.8,184.92c5.54,6,11.87,11.9,16.09,19a54.51,54.51,0,0,1,3.16,6.12c-.75-6.16-1.34-10.92-1.48-11.73-.38-2.24-1.2-4.07-3.58-8.44S253.34,171,240.76,162s-29.86-16.38-43.37-20.3a77.28,77.28,0,0,0-11.75-1.88C213.45,147.36,239.37,163.85,258.8,184.92Z"/><path class="cls-17" d="M204.39,203.77a40.32,40.32,0,0,1,3.14-4c-7.84-4-15.64-8-23.66-11.6C184.39,196.72,197.78,200.65,204.39,203.77Z"/><path class="cls-17" d="M96.92,186.73c2.25-.13,4.54-.47,6.8-.47,1.53-7,6-13.8,10-19.28,1.18-1.6,2.41-3.22,3.7-4.83C108.55,168.85,99.83,175.89,96.92,186.73Z"/><path class="cls-17" d="M94.51,213.22a30.55,30.55,0,0,0,3.32,6.93A88.51,88.51,0,0,0,117,186.9C107.4,193.23,101,203.76,94.51,213.22Z"/><path class="cls-17" d="M127.65,252.35c-2.81,22.09-4.69,44.28-6.49,66.47.38,0,.75,0,1.13,0a87.29,87.29,0,0,0,5.49-27C128.43,278.67,127.49,265.52,127.65,252.35Z"/><path class="cls-17" d="M188.63,158.71c-.19,7,2.11,14.56,4.67,21.13,1.59-1.14,3.14-2.33,4.68-3.53C196,169.89,193.32,163.62,188.63,158.71Z"/><path class="cls-18" d="M136.75,151c-3.11,7.37-12.28,30.12-14.71,46.91s-1.38,26-.35,33.57,5.2,19.22,6.93,18.88,19.07-12.45,26-23.19a316.73,316.73,0,0,0,22.31-43.63c4.84-12.29,7.45-23.37,8-27.52S140.56,142,136.75,151Z"/><path class="cls-19" d="M167.52,170a53.21,53.21,0,0,0,14.93-3.09A86,86,0,0,0,184.87,156c.52-4.15-44.31-14-48.12-5-.66,1.58-1.62,3.88-2.72,6.67C142,166.79,155.8,170.74,167.52,170Z"/><path class="cls-19" d="M154.69,204.84c-2.4-3.6-10.8-12.87-11.91-14.13a184,184,0,0,0-12.39,23.39c-.87,2-6.34,15.07-3.85,17.35a28.67,28.67,0,0,0,10.65,5.93c-2.32,4.6-6.06,8.44-9.73,12.06.44.64.84,1,1.16.92,1.73-.35,19.07-12.45,26-23.19,1.65-2.58,3.53-5.73,5.48-9.2A39.74,39.74,0,0,0,154.69,204.84Z"/><path class="cls-20" d="M147.83,160.35c-1.21,4.33-1.56,7.78-.69,11.42a20,20,0,0,0,3.29,6.75A154.54,154.54,0,0,0,138.14,197c-6.06,10.74-11.94,26.66-11.6,28.21s5.89,4.67,13.15,4.67,13.16-1.55,13.51-3.45,3.26-20.53,3.1-26S152,179.22,152,179.22a75.24,75.24,0,0,0,6.57-5.89c3.64-3.64,7.1-10.9,7.1-10.9Z"/><path class="cls-21" d="M145.6,186.8c-1.3,0-3.55,3.31-7.46,10.24-6.06,10.74-11.94,26.66-11.6,28.21.16.72,3.58,2.4,5.57,3.31C134.23,220.27,143.81,194,145.6,186.8Z"/><path class="cls-22" d="M156.13,167.16a20.19,20.19,0,0,1,5.49,2.31,63.26,63.26,0,0,0,4-7l-17.83-2.08a28.28,28.28,0,0,0-1.15,6.61A20.4,20.4,0,0,1,156.13,167.16Z"/><path class="cls-22" d="M147.06,183.71c-1.95,3.71,6,6.66,7.45,5.95-1.19-5.39-2.52-10.44-2.52-10.44l.5-.41c-.76-.15-1.52-.34-2.27-.56l.21.27A46,46,0,0,0,147.06,183.71Z"/><path class="cls-22" d="M142.19,229.86c6.08-.31,10.7-1.71,11-3.39.17-1,1-6.26,1.78-12A109.51,109.51,0,0,1,142.19,229.86Z"/><path class="cls-23" d="M274.71,309.41c0-.26,0-1.8,0-2.06-.15,0-6.44.4-7.09,2.21-.56,1.57-.17,6.12.36,8.9-.25.05-.51.11-.78.14-.87.11-1.75.19-2.63.25a32.9,32.9,0,0,0-.46-4.85.86.86,0,0,0,0,.17,17.54,17.54,0,0,1-.18-4.28,9.21,9.21,0,0,1,.49-1.89,5.81,5.81,0,0,1,.62-1.08,6,6,0,0,1,.8-.79,8.73,8.73,0,0,1,1.46-.83c2.44-1,5.06-1.43,7.44-2.57,0-.8,0-1.59,0-2.39a15.13,15.13,0,0,1-1.65.85c-2.83,1.16-6.15,1.43-8.62,3.35-3.4,2.66-2.77,7.42-2.25,11.18a21.19,21.19,0,0,1,.22,3.28c-1.24.2-1.21,2.2.12,2.11a37.15,37.15,0,0,0,8.33-1.14,1.06,1.06,0,0,0-.57-2.05L270,318c-.4-2.2-1-6.49-.62-7.45C269.8,309.37,273.72,309.61,274.71,309.41Z"/><path class="cls-23" d="M302.23,308.6c0-1.91.46-8.53-.73-10.91-.78-1.58-4.95-1.18-10.15.32a14.82,14.82,0,0,1,.33,1.49c1.3-.24,7.51-2.11,8.22-.68s.54,6.24.5,9.87a18.86,18.86,0,0,0-4.51,1.12c0-1.84.35-4.52.35-5.61s-.45-1.72-1.12-1.7a10.72,10.72,0,0,0-2.47.41,17.91,17.91,0,0,1,.27,1.91c.29-.08,1-.36,1.3.05s0,3.63,0,5.64c-1.58.61-2.16,2.32-.83,2,1-.21,8.95-2.17,10.23-2.43S303.52,308.44,302.23,308.6Z"/><path class="cls-24" d="M11.74,281.35l7.77,6.45a79.58,79.58,0,0,0,3.22,9.53,30.23,30.23,0,0,1,2.78,8.79c.3,2.49.59,6.75.59,6.75s5-3.23,6.89.29-.15,3.66-1.46,4.25-11.73,4.54-13.64,5a3.56,3.56,0,0,1-3.07-.6s-2.5.3-3.52-.29a3.74,3.74,0,0,1-1.47-1.61s-2,.88-4.4-2S.66,307.91,1,299.67A22.77,22.77,0,0,1,11.74,281.35Z"/><path class="cls-25" d="M22.09,295.83c-1.29-3.3-2.58-8-2.58-8l-7.77-6.45a16,16,0,0,0-2.17,1.52A164.77,164.77,0,0,1,22.09,295.83Z"/><path class="cls-25" d="M24.33,315.88c-2.56,1.33-4.19-1.64-4.57-3.72-.66-3.62-.37-7.68-3.09-10.1,1.29,3,.68,6.35.71,9.71.07,7.74,5.92,9.63,9.1,4.27A11.19,11.19,0,0,0,27.89,312l-.5.2A7.07,7.07,0,0,1,24.33,315.88Z"/><path class="cls-26" d="M33.31,311.88a5,5,0,0,0-6.3,0,23.15,23.15,0,0,0-.15-3.26A65.2,65.2,0,0,0,23.54,296c-.9-2.62-2.8-5.91-3.2-8.66-.19-1.36-1.82-.3-1.63,1,.38,2.65,1.8,5.36,2.67,7.88,1.41,4.08,2.94,7.59,3.59,11.65a12.05,12.05,0,0,1,0,5.16c-.39,1.74-1.92,3.05-2.89,2.27s-1-2.8-1.43-6-.48-5.8-3.28-8.12c-1.06-.88-2.95-.72-1.83,0a4.46,4.46,0,0,1,.56.41,8.19,8.19,0,0,1,1,1,8.34,8.34,0,0,1,.83,1.49,16.1,16.1,0,0,1,.84,3.5c.33,2.62.51,5.23,1.58,7.69.88,2,2.46,2.6,4.27,1.49A4.47,4.47,0,0,0,26.75,314c1-1.16,2.12-2,3.75-1.87a3.08,3.08,0,0,1,2.6,3c-.17,1.09-4.73,2.4-6.12,2.84-2.53.79-4.88,2-7.45,2.69-1.15.25-1.67.75-3.47.43s-2.47-5.1-2.15-7.61c.08-.56-1.32-.37-1.42,1.21s-.12,4.5,1,6.37c-2.83.24-5.1-7.34-5.17-8.1-.13-1.37-.88.67-.72,2.13a15.45,15.45,0,0,0,1.4,4.5c-2.3-.43-4.16-5.13-5-7.14a30.78,30.78,0,0,1-1.58-7,31.16,31.16,0,0,1,0-7.72A28.92,28.92,0,0,1,4.2,291a24.32,24.32,0,0,1,2.66-4.61A20.46,20.46,0,0,1,10,283.18a20.16,20.16,0,0,1,2.08-1.37,5.73,5.73,0,0,1-1.29-.87C4,285.28.21,293.06,0,301a29.71,29.71,0,0,0,2.78,13.31c1.36,2.91,3.76,6.87,6.73,6.47a4.64,4.64,0,0,0,4.77,1.73,7.06,7.06,0,0,0,3.3.63c2,0,6.17-1.69,9.86-3.05,2.08-.77,5.44-1.75,7.11-3.33C35.34,316,35.12,313.47,33.31,311.88Z"/><path class="cls-24" d="M276.45,283c-2.85.81-6.77,4.61-7.59,6.77s-.41,5.69-.67,6.91-1.63,2-3.11,2.3-4.74,1.36-4.2,2.85A4.71,4.71,0,0,0,266.7,304c2.44-1.08,6.77-7,6.77-7s1.74,3.11,1.27,5.75-1,5.76-1.54,6.44,2.84.67,4.88.14a50.78,50.78,0,0,1,8.26-1.49c2.3-.14,6.09-1.77,6.36-3.52s-1.22-5.42-1.76-7.18-1.49-5.28-1.9-7.32-3.11-6.36-3.11-6.36Z"/><path class="cls-25" d="M287.71,286.58c-.85-1.65-1.78-3.14-1.78-3.14l-9.48-.41a11.78,11.78,0,0,0-3.9,2.31A30.57,30.57,0,0,0,287.71,286.58Z"/><path class="cls-27" d="M164.67,148.48a2.17,2.17,0,0,1-1.1,2c-1.69,1.11-4.07,1-6,.77s-4.15-.7-5.4-2.16a2,2,0,0,1-.18-.25,5.42,5.42,0,0,0-.71,1.1c-1.51,3.25,1.42,4.67,3.72,4.81a29.88,29.88,0,0,0,6.61-.42c3.2-.48,6.71-2.52,3.21-5.67Z"/><path class="cls-25" d="M165.34,147.62a11.24,11.24,0,0,1,2,2.15c1.76,2.54.11,4.53-2.6,5.21a20.19,20.19,0,0,1-5.38.44,17.79,17.79,0,0,1-5.63-.63c-1.34-.49-2.81-1.84-2.67-3.41a6.9,6.9,0,0,1,.73-2.36c-2.47,3.27-3.36,7.74,1.92,9.11a25,25,0,0,0,11.83-.21C172.66,155.32,169.81,150.23,165.34,147.62Z"/><path class="cls-26" d="M163.26,145.67a1.06,1.06,0,0,0-.41-.16c-1.1-.18-1.77,1.63-.6,2.33l.54.32a14.56,14.56,0,0,1,2.28,1.78,6,6,0,0,1,.6.8,4.7,4.7,0,0,1,.17.45.75.75,0,0,1,0,.22,1.77,1.77,0,0,1,0,.21l-.11.24c-.1.13-.2.24-.31.36a5.25,5.25,0,0,1-.83.56,10.79,10.79,0,0,1-2.37.85,21,21,0,0,1-4.87.47,16.17,16.17,0,0,1-3.73-.56,8.58,8.58,0,0,1-1.46-.63,6.33,6.33,0,0,1-.56-.47,3.46,3.46,0,0,1-.22-.31l-.12-.29c0-.09,0-.2,0-.31a3.06,3.06,0,0,1,.1-.51,6.46,6.46,0,0,1,.44-.92,12.57,12.57,0,0,1,1.7-1.94c.55-.49,1.12-1,1.7-1.4,1.23-.94-.16-2.89-1.39-2-2.44,1.88-6.62,5.47-4.23,8.9,1.81,2.61,6.11,2.82,9,2.78s6.92-.57,9-3C170.2,150.33,165.63,147.08,163.26,145.67Z"/><path class="cls-28" d="M165.87,160.35a1.37,1.37,0,0,0-1.68,1.15,18.42,18.42,0,0,1-.41,1.9,19.24,19.24,0,0,1-1.83,3.9,28.37,28.37,0,0,1-3.91,4.57,44.75,44.75,0,0,1-7,5.11c-.34-.53-.67-1.08-1-1.64a22.13,22.13,0,0,1-1.75-4.45,19.09,19.09,0,0,1-.38-3.62,19.34,19.34,0,0,1,.63-3.85c0-.14.08-.27.13-.4.55-1.78-2.09-3-2.66-1.24-2,6.26-.56,12,2.94,17.35a147,147,0,0,0-24.13,45.66,1.53,1.53,0,0,0,.71,1.94,24.07,24.07,0,0,0,13.09,4.12c4.95,0,9.9-1.55,14.73-2.47a1.5,1.5,0,0,0,1.29-1.21c2.73-15.46,6.12-33.92-1.49-48.07,6.46-3.9,12.66-9.39,14-17.12A1.38,1.38,0,0,0,165.87,160.35Zm-11,42.1a169.74,169.74,0,0,1-3,23.24c-4.77,1-9.59,2.32-14.47,2.24a21,21,0,0,1-4.6-.82,28.09,28.09,0,0,1-5-2.35,143.89,143.89,0,0,1,15.43-32.56q3.74-5.82,8-11.31l0,.07a43.7,43.7,0,0,1,2.28,6.7A60.19,60.19,0,0,1,154.85,202.45Z"/><path class="cls-28" d="M164.1,164.49a.22.22,0,0,0-.08,0,61.06,61.06,0,0,0-12.73,2.15l.1,0c-1.58.37-3.16.72-4.75,1-.5.09-.42.89.08.79,2.42-.43,4.81-1,7.2-1.58l-.1,0a49.64,49.64,0,0,1,10.28-1.58C164.58,165.27,164.54,164.56,164.1,164.49Z"/><path class="cls-28" d="M160.36,170.32h0c-3.82-.28-7.33,1.26-11,2.15-.47.11-.94.2-1.4.27s-.43.88.08.79c2.71-.45,5.29-1.42,8-2.06a16.66,16.66,0,0,1,3.52-.4l.66,0C160.67,171.14,160.82,170.4,160.36,170.32Z"/><path class="cls-28" d="M154.57,186.48h-.19c-2.08.61-4.16,1.25-6.28,1.76-1.07.23-2.14.42-3.22.56a.4.4,0,0,0,.08.79,63.22,63.22,0,0,0,9.7-2.36C155.09,187.12,154.94,186.54,154.57,186.48Z"/><path class="cls-28" d="M155.61,193.21a.38.38,0,0,0-.15,0c-3.09.68-6.09,1.63-9.16,2.37a31.65,31.65,0,0,1-6.13.86c-.51,0-.43.81.09.79,4.77-.14,9.29-1.75,13.88-2.9l-.1,0c.5-.12,1-.24,1.5-.34S156,193.27,155.61,193.21Z"/><path class="cls-28" d="M156.32,199.67h-.1c-3.85.25-7.49,1.53-11.21,2.46a26.06,26.06,0,0,1-6.15.8,16.74,16.74,0,0,1-2-.21.4.4,0,0,0-.14.79c5.1.81,10-1.09,14.86-2.3a28.8,28.8,0,0,1,4.72-.74C156.78,200.43,156.74,199.74,156.32,199.67Z"/><path class="cls-28" d="M155.47,207.78h-.15a114,114,0,0,1-22.2,3.09c-.51,0-.43.8.08.8a114.68,114.68,0,0,0,22.2-3.09C155.84,208.49,155.83,207.84,155.47,207.78Z"/><path d="M131,219h0Z"/><path class="cls-28" d="M154.62,216.33h-.12c-7.84.91-15.59,2.88-23.53,2.68h-.05c-.5,0-1-.05-1.51-.09s-.65.75-.14.79c8.54.6,16.89-1.61,25.32-2.58A.4.4,0,0,0,154.62,216.33Z"/><path class="cls-28" d="M153,222.51a.37.37,0,0,0-.18,0c-3.59.93-7.12,2.08-10.72,3h0l-.07,0h0a35.93,35.93,0,0,1-8.25,1.11,17.55,17.55,0,0,1-3.67-.52c-.5-.13-.63.66-.13.78,7.65,2,15.79-1.71,23.1-3.61C153.54,223.15,153.39,222.58,153,222.51Z"/><path d="M142.11,225.49h0Z"/><path class="cls-29" d="M132.42,392.23c-2.06.13-17.75-3.74-22.71-5.83a58.26,58.26,0,0,1-13.27-7.22c-4.93-3.83-9.43-8.32-15.13-11.06-1.53-.74-3.46.61-1.92,1.36a55.62,55.62,0,0,1,8.25,5.17c4.3,3.35,10.1,8.58,16.94,11.61,5.54,2.45,15.86,6.08,22.81,6.71-10.15,6.27-25.39,5.28-32.93,2.54S79.12,388.67,75.27,383c0-2,.16-5.15-.68-4-2.32,3.14-3.31,9-3.25,12.64-1.79,0-3.59,0-5.38.05-.54-7.07,1.78-16.93,6.85-23.24A3.24,3.24,0,0,0,70.72,367c-5.25,7.31-7.93,18.12-7.5,27,3.42.69,7.74.15,10.56.15a33,33,0,0,1,.66-8.56c6,6.75,14.45,11.18,23.22,13.23a46.81,46.81,0,0,0,28.46-2C128.16,396,131.87,393.6,132.42,392.23Z"/><path class="cls-29" d="M202.28,370.67a16.07,16.07,0,0,1-2.66.45c1.18,6.31,2.72,12.59,3.76,19a41.48,41.48,0,0,1-8.88,2.9c.06-3.2.08-7.69,0-8.7s-2-2.33-2.39-1.58a55.39,55.39,0,0,1-10.21,11.17c-5.62,4.65-14,5.61-19.19,5.48,8.86-7.64,22.49-21,28.5-29.05a4.62,4.62,0,0,1-1.91-1.09c-8.78,11.09-24.95,26.44-32.07,31.78-1,.73,1.37,1.08,2.44,1.08,9.31.07,22.91-.94,32.22-14.06a68.37,68.37,0,0,0,.42,7.64c3.84-.16,11.92-2.19,13.9-4.36C206.14,389.35,202.27,371.89,202.28,370.67Z"/><path class="cls-26" d="M292.07,297c-1.86-4.49-1.38-9.6-5.51-13.45-1-.94-2.2-.28-1.57.23,3.92,3.13,4.16,11.62,5.39,14.28a16.22,16.22,0,0,1,1.81,5.65c0,1-.91,1.75-2.07,2.08s-4.15,1.23-5.59,1.1-6.87,1.69-9.75,1.58c1.56-3.4-.07-10.56-.17-12.81,0-.83-1.3-1.17-1.45-.67-1.68,5.53-4.72,7.94-6.86,8.2s-3.37-.13-4-.71-1.3-1.56-.07-2,4.28-.9,5.26-1.49,1.68-2.14,1.56-4.68a8.29,8.29,0,0,1,2-6.23c1.49-1.74,5.06-3.63,7.27-4.34,1.3-.42.2-1.29-1.11-.86-3,1-6.16,2.23-8,4.95a9.71,9.71,0,0,0-1.49,4.12,14,14,0,0,0-.07,2.66c0,.74.35,2.64-.56,3.21-2.47,1.56-6.17,1.2-6.85,3.15s1.42,3.72,3,4.06a9.64,9.64,0,0,0,5.33-.61c2.28-.89,3.37-2.64,4.55-4.69a34,34,0,0,1,.21,6.46,3,3,0,0,1-1.75,2.41c-.65.26-1.44,1.36-.12,1.69,4.22,1.06,8.34-.69,12.49-1.28,3-.37,6.75-.35,9.13-2.36a3.5,3.5,0,0,0,1.24-2.83C294.36,301.51,292.85,298.79,292.07,297Z"/><path class="cls-30" d="M135.32,147.4c1-.85,0-1.72-.72-1.26-3.65,2.41-16.63,13.58-23.13,19.93-6.14,6-12,12.9-15.56,20.72-.55,1.21,13.66.12,18.76.12-7.3,8.43-14.38,17.1-21.48,25.73a1.56,1.56,0,0,0-.06,1.8c5.06,7.15,17.57,31,20.75,37.63s7.92,12.07,7.16,10.35c-5.16-11.71-17.81-38.38-25-48.76,7.55-9.19,14.94-19.19,22.76-28.11.89-1-8.51-.65-19.56-.26,3-6.14,9.1-13.33,13.34-17.62C120,160.3,128,153.87,135.32,147.4Z"/><path class="cls-30" d="M288.29,279c-4.91-28.48-9.07-79.18-11.87-84.78-4.08-8.19-15-19-31.43-30.94-11.63-8.44-28.37-17.88-46.6-22.66l-1.06,2.28c8.42,1.44,21.71,6.31,40,18,17.5,11.16,32.38,26,37.07,34,1.59,2.67,2.62,10.71,3.84,21,2.64,22.5,3.9,43.89,8.15,66-.87.47-8.17.36-10.4,0-1.14-23.45-3.32-50.94-7.44-73.9-.13-.74-1.62,1-1,6.4-2,6.78-7.25,28.61-8.65,35.21-3.92,18.38-8.17,36.8-10.44,55.48C207.22,314.76,164.4,318,122,317.29c1.36-22.09,4.54-44,6.94-66,6.16-1.38,17.12-12,22.75-19,6.33-8,27.17-41.23,34.62-73.94,2.84,2.19,8,13.26,9.11,17-2.31,1.63-13.56,9.88-13.53,12.1,0,3.35,17.88,10.42,23.65,13.66-19.86,16.87-62.15,47.55-69,62.68-.76,1.66,6.09-5.3,10.35-9.82,8.75-9.28,45.81-37.77,61.8-51.84.59-.53.88-1.92.08-2.33-8.86-4.48-24.49-10.78-23.18-12.9.78-1.28,8.46-7.41,12.7-10.36-1.82-7.27-6.86-17.16-11.2-20.53-.16-.12-2.66.3-2.83,1-1,4.08-2.15,8.11-3.37,12.12-8.05,25.85-25.89,54.86-32,62.33-4.77,5.87-14.59,15.56-19.77,17.25-2.89-1.44-7.54-17.63-7.47-33.58s5.48-35.22,11.73-52.08c1.39-3.69,2.87-7.37,4.47-11,.41-.94-1.73-3-2-2.35-7.19,16.38-13.35,34.74-16,52-2.42,15.85.44,40.05,6.79,48.59-2.42,22.33-5.67,44.6-7,67q-4.34-.09-8.67-.22a568.29,568.29,0,0,1-64.87-5.75,1.11,1.11,0,0,0-.41,0,7.66,7.66,0,0,1-.94-.25c-4.55-25.94-7.65-52.26-6.89-78.64a219.55,219.55,0,0,1,4.3-37.4c.32-1.51-2.59-.93-4.6,12.69a204.29,204.29,0,0,0-8,20.87,211.64,211.64,0,0,0-7.66,33.34c-1.19,7.92-2,15.89-2.63,23.87-.44-.33-5.62-4.29-7.64-5.9,3.1-10.15,6-19.24,8.24-30.71,2.52-12.73,4.49-23.75,8.33-35.09,3.37-9.92,6.38-19.49,11.17-27.29,3.14-5.11,8.33-10.65,12.58-14.53,7-6.27,15.58-11.51,24-15.92a156.34,156.34,0,0,1,36.37-13.47,113.73,113.73,0,0,1,22.13-3,15.4,15.4,0,0,0,.23-2.42c-18,1-39.38,7-56.8,15.66-16.59,8.25-35,21.73-42.09,37A176.12,176.12,0,0,0,23,226.84c-2.52,10.87-3.68,18.23-6.46,29.84a148.72,148.72,0,0,1-6.75,21.68c-1-1.12-2.46.78-1.39,1.65,4.3,3.48,8,6.31,12.43,9.67.77.58,2-1.07.8-2.05.13-2.2,1.34-14.37,2.26-21.25a221.91,221.91,0,0,1,7-33.35c1.61-5.39,3.47-10.7,5.54-15.93-3,31.63.58,63.83,6.08,95a1.24,1.24,0,0,0,1,1.06,11.73,11.73,0,0,0,2.17.56,2.17,2.17,0,0,0,.36,0q14.27,2.12,28.66,3.5c-4.77,19-4.58,47.15-4.36,51.32,0,.6,10.33,1.74,13.42,1,0-9.46.69-35.63,2.25-51.31a594.05,594.05,0,0,0,107.69-1.62c-1.33,11.42-5.18,41-6.07,54.3,2.74,1.64,10,2.42,15.9.13.68-13.48,5.73-51.2,5.86-56.31,13.53-1.87,27-4.3,40.28-7.47a1.22,1.22,0,0,0,1-1c2.13-17.93,6.16-35.61,9.91-53.26,1.36-6.41,5.73-25.32,7.79-33.33,3.11,20.36,4.14,41.09,5.15,61.78-2-.49-2.61,2-.95,2.4,5,1.26,16.76.86,16.49-.51S288.51,280.28,288.29,279ZM80.92,367.4a24.33,24.33,0,0,1-8.31-1c-.6-12.62,1.49-38.25,4.47-49,2,.19,4.3.41,6.31.57C81.39,331.37,81,364.5,80.92,367.4Zm120.32,1.74a18.37,18.37,0,0,1-10.72-.08c-.26-12.78,5.3-47.9,5.87-52.79,3.45-.38,6.91-.81,10.35-1.25C206.42,326.23,201.65,362.23,201.24,369.14Z"/><path class="cls-30" d="M137.64,274.26a5.36,5.36,0,1,0,5.36,5.36A5.36,5.36,0,0,0,137.64,274.26Z"/><path class="cls-17" d="M137.64,275.9a3.72,3.72,0,1,0,3.73,3.72A3.73,3.73,0,0,0,137.64,275.9Z"/><path class="cls-30" d="M134.92,295.15a5.36,5.36,0,1,0,5.36,5.35A5.36,5.36,0,0,0,134.92,295.15Z"/><path class="cls-17" d="M134.92,296.78a3.73,3.73,0,1,0,3.72,3.72A3.72,3.72,0,0,0,134.92,296.78Z"/><path class="cls-29" d="M188.11,376.32a2.8,2.8,0,0,0-1.88-.8c-.53,0-1.45.14-1.65.6,0,.05,0,.15.09.14a2.37,2.37,0,0,1,2.62.87,5.78,5.78,0,0,1,1.27,3.09c0,.19,1.05.8,1.09-.26A5.83,5.83,0,0,0,188.11,376.32Z"/><path class="cls-29" d="M185.79,379.94c-.76-.85-2.69-1.76-3.76-1-.1.07-.13.28,0,.29a4.6,4.6,0,0,1,2.55.95,3.65,3.65,0,0,1,1.06,3.09c0,.75.93.83,1.07,0A4.63,4.63,0,0,0,185.79,379.94Z"/><path class="cls-29" d="M182,382.72c-.78-.93-2.56-1.21-3.18-.25-.06.07,0,.26.09.24,2.36-.53,3.28,1.84,2.7,3.87-.17.6.91.91,1.26,0A4.35,4.35,0,0,0,182,382.72Z"/><path class="cls-29" d="M90,375.26c-1.22-1.22-3,0-3.88,1.1a8.19,8.19,0,0,0-1.66,4.91.75.75,0,0,0,1.49,0,8.72,8.72,0,0,1,.89-3.87c.74-1.27,1.74-2,3.08-1.52C90.19,376,90.19,375.43,90,375.26Z"/><path class="cls-29" d="M92.78,377.52c-1.61-.44-3.16,1.22-3.8,2.34s-1.27,3.58-.34,4.67c.17.21,1.11.06,1-.41-.68-3.53,1.4-5.7,3.24-6.11C93.12,378,93,377.58,92.78,377.52Z"/><path class="cls-29" d="M95.57,380.05c-3-.84-3.76,3.78-2.88,5.77.33.75,1.62.2,1.31-.55-.72-1.8-.23-5,1.66-4.55C96,380.8,95.87,380.14,95.57,380.05Z"/><g id="Layer_2-2" data-name="Layer 2"><g id="Layer_4" data-name="Layer 4"><path class="cls-31" d="M223.35,133.35c-4.06,20.94-30.9,36.05-68.18,31.14h0c-35.06-4.68-58.17-22-57.67-43.36a50.46,50.46,0,0,1,1.11-8.2,61.85,61.85,0,0,1,10.72-22.26l2.55,1.4a118,118,0,0,1,22-3.7,140.16,140.16,0,0,1,29,2.23h0a140.88,140.88,0,0,1,28.83,4,118.49,118.49,0,0,1,20.71,8.31l2.79-.82,1.87-.7a71.33,71.33,0,0,1,6.19,24.07,29.3,29.3,0,0,1-.37,7.61"/><path class="cls-32" d="M223.35,133.35c-4,20.72-30.58,35.19-68.15,30.91h0c-35.06-4.67-58.18-22-57.68-43.35a53,53,0,0,1,1.11-8.21,28.15,28.15,0,0,1,11.37,1c7,1.88,10.53,6.77,15.4,9.54,2.75,1.65,5.89-.27,8.82-2.42a39.83,39.83,0,0,1,27.67-8.28c10,.86,17.84,5.75,25.65,14.7a8.67,8.67,0,0,0,6.39,3.39,17,17,0,0,0,6.59-2.67,32.49,32.49,0,0,1,23-2.7,25,25,0,0,1-.19,8.09"/><path class="cls-33" d="M125.5,70.13a17.74,17.74,0,0,1-9.43,3.94l-1.36.08a13,13,0,0,1-4.3.21l-.89-.1c-.64-.29-1.5-.61-2.15-.9a26.19,26.19,0,0,1-6.22-5,53.27,53.27,0,0,1-9.43-12.72,41,41,0,0,1,14.4-54.27,2.47,2.47,0,0,1,3.29.81,2.3,2.3,0,0,1,.23,2.05c-2.33,7-4.86,17.93.78,28.22,4.93,8.63,16.1,17.71,23.44,18.5.6,9.07-2.49,14.81-8.36,19.13"/><path class="cls-34" d="M125.5,70.13a17.74,17.74,0,0,1-9.43,3.94l-1.36.08a13,13,0,0,1-4.3.21l-.89-.1c-.64-.29-1.5-.61-2.15-.9a26.19,26.19,0,0,1-6.22-5,53.27,53.27,0,0,1-9.43-12.72,41,41,0,0,1,14.4-54.27,2.47,2.47,0,0,1,3.29.81,2.3,2.3,0,0,1,.23,2.05c-2.33,7-4.86,17.93.78,28.22,4.93,8.63,16.1,17.71,23.44,18.5C134.46,60.07,131.37,65.81,125.5,70.13Z"/><path class="cls-35" d="M160.85,42.88l-6,28.17-.23,0c-4.52.18-10.62.43-19,.87-7.68.3-18.49,4.54-24.88,7.45l-.17-4.74c1.36-.08,2.94-.14,4.3-.21l1.36-.08a17.82,17.82,0,0,0,9.43-3.94c5.67-4.57,9-10.06,8.16-19.38l.87.32a32.21,32.21,0,0,1,10.09-5.89,34.29,34.29,0,0,1,16-2.55"/><path class="cls-34" d="M160.85,42.88l-6,28.17-.23,0c-4.52.18-10.62.43-19,.87-7.68.3-18.49,4.54-24.88,7.45l-.17-4.74c1.36-.08,2.94-.14,4.3-.21l1.36-.08a17.82,17.82,0,0,0,9.43-3.94c5.67-4.57,9-10.06,8.16-19.38l.87.32a32.21,32.21,0,0,1,10.09-5.89A34.29,34.29,0,0,1,160.85,42.88Z"/><path class="cls-36" d="M220.3,101.06l-1.88.69h0l-1.87.7-2.79.83A116.65,116.65,0,0,0,193.05,95a158.75,158.75,0,0,0-28.64-5.79h0a140.54,140.54,0,0,0-29.21-.44,117.16,117.16,0,0,0-22,3.7,13.64,13.64,0,0,0-2.55-1.4l-3.59-2.19c.56-3.09.53-4.89.87-8,.71-.37,1.9-.92,3.08-1.46l.25-.2c6.16-2.94,16.95-7,24.66-7.47,8.38-.45,14.26-.72,19-.88,2.92.09,6,.42,9.15.76,4.67.5,8.9,1,13.1,1.63,4.38,1.15,10.29,2.69,18.6,4.94,7.67,2,17.33,8.39,23,12.6l.22,0a14.22,14.22,0,0,1,2.48,2.07,51.71,51.71,0,0,0-1.11,8.21"/><path class="cls-37" d="M220.3,101.06l-1.88.69h0l-1.87.7-2.79.83A116.65,116.65,0,0,0,193.05,95a180.55,180.55,0,0,0-28.66-5.57h0a158.31,158.31,0,0,0-29.19-.66,117.16,117.16,0,0,0-22,3.7,13.64,13.64,0,0,0-2.55-1.4l-3.59-2.19c.56-3.09.53-4.89.87-8,.71-.37,1.9-.92,3.08-1.46l.25-.2c6.16-2.94,16.95-7,24.66-7.47,8.38-.45,14.26-.72,19-.88,2.92.09,6,.42,9.15.76,4.67.5,8.9,1,13.1,1.63,4.38,1.15,10.29,2.69,18.6,4.94,7.67,2,17.33,8.39,23,12.6l.22,0a14.22,14.22,0,0,1,2.48,2.07A51.71,51.71,0,0,0,220.3,101.06Z"/><path class="cls-36" d="M176.91,73.42a127.27,127.27,0,0,0-13.1-1.63c-3.12-.34-6.25-.45-9.15-.76l.23,0,6-28.17,1.29-5.71A14.56,14.56,0,0,1,169.7,36l.44,0a14.06,14.06,0,0,1,7.13,2.79l0,5.86,0,.22Z"/><path class="cls-37" d="M176.91,73.42a127.27,127.27,0,0,0-13.1-1.63c-3.12-.34-6.25-.45-9.15-.76l.23,0,6-28.17,1.29-5.71A14.56,14.56,0,0,1,169.7,36l.44,0a14.06,14.06,0,0,1,7.13,2.79l0,5.86,0,.22Z"/><line class="cls-37" x1="218.42" y1="101.75" x2="218.42" y2="101.75"/><path class="cls-37" d="M223.32,133.57c-4,20.94-32.8,35-68.17,31.14h0C120.09,160,97,142.69,97.7,121.38a50.73,50.73,0,0,1,1.11-8.21,61.73,61.73,0,0,1,10.72-22.25l2.55,1.4a117.16,117.16,0,0,1,22-3.7,180.45,180.45,0,0,1,29.21.44h0a158.47,158.47,0,0,1,28.63,5.79,116.75,116.75,0,0,1,20.72,8.31l3-.8,1.87-.7a71.33,71.33,0,0,1,6.19,24.07A23.37,23.37,0,0,1,223.32,133.57Z"/><path class="cls-33" d="M241,71.78a59.82,59.82,0,0,1-12.15,10.39,26,26,0,0,1-7.13,3.51l-1.16.33-.69.15c-1.61.27-2.45-.27-5.29-1l-1.31-.37a17.74,17.74,0,0,1-8.37-5.85c-4.57-5.67-6.62-11.75-3.85-20.68,7.09,1,20.17-5.47,26.84-13.08,7.48-8.88,7.35-20.14,6.56-27.43a2.48,2.48,0,0,1,2.09-2.7,2.14,2.14,0,0,1,1.95.66A41,41,0,0,1,241,71.78"/><path class="cls-34" d="M241,71.78a59.82,59.82,0,0,1-12.15,10.39,26,26,0,0,1-7.13,3.51l-1.16.33-.69.15c-1.61.27-2.45-.27-5.29-1l-1.31-.37a17.74,17.74,0,0,1-8.37-5.85c-4.57-5.67-6.62-11.75-3.85-20.68,7.09,1,20.17-5.47,26.84-13.08,7.48-8.88,7.35-20.14,6.56-27.43a2.48,2.48,0,0,1,2.09-2.7,2.14,2.14,0,0,1,1.95.66A41,41,0,0,1,241,71.78Z"/><path class="cls-35" d="M219.88,86.16,218.46,91c-5.62-4.2-15.28-10.64-23-12.6-8.31-2.24-14-3.76-18.6-4.93l.18-28.79a38.2,38.2,0,0,1,23,13.74l.92-.13c-2.74,8.71-.72,15,3.85,20.68a17.74,17.74,0,0,0,8.37,5.85c.22,0,1.06.56,1.28.59a8.86,8.86,0,0,0,5.32.8"/><path class="cls-34" d="M219.88,86.16,218.46,91c-5.62-4.2-15.28-10.64-23-12.6-8.31-2.24-14-3.76-18.6-4.93l.18-28.79a38.2,38.2,0,0,1,23,13.74l.92-.13c-2.74,8.71-.72,15,3.85,20.68a17.74,17.74,0,0,0,8.37,5.85l1.31.37C217.43,85.89,218.27,86.43,219.88,86.16Z"/><path class="cls-34" d="M177.09,44.63l-.89-.09"/><path class="cls-33" d="M220.22,85.07A4.28,4.28,0,0,1,218.91,91l-.49.4"/><path class="cls-38" d="M220.22,85.07A4.28,4.28,0,0,1,218.91,91l-.49.4"/><path class="cls-33" d="M110.53,73.25a4.31,4.31,0,0,0,0,6.08l.4.49"/><path class="cls-38" d="M110.53,73.25a4.31,4.31,0,0,0,0,6.08l.4.49"/><path class="cls-39" d="M151,134.33a6.46,6.46,0,0,0,5-.14,5.89,5.89,0,0,0,4.43-5.6,5.86,5.86,0,0,0,3.14,6.41,8.52,8.52,0,0,0,4.6,1.17"/><path class="cls-40" d="M169.88,122c-.29,2.67-4.67,5.8-9.57,5.27s-8.51-4.52-8.23-7.19,4.39-3.13,9.29-2.6,8.78,2.07,8.51,4.52"/><path class="cls-32" d="M164.64,120.49c-.07.67-1.95,1.37-3.95,1.15s-3.69-1.3-3.64-1.74,1.83-.25,3.83,0,3.83,0,3.76.63"/><path class="cls-39" d="M146.15,127.05a6.09,6.09,0,0,0,4.2,7l.67.07"/><path class="cls-39" d="M160.73,125.47l-.34,3.12"/><path class="cls-39" d="M168.35,136.2l.67.07a5.92,5.92,0,0,0,5.59-5.93"/><path class="cls-34" d="M238.5,15.69a40.7,40.7,0,0,1,2.31,55.84"/><path class="cls-34" d="M125.5,70.13a17.74,17.74,0,0,1-9.43,3.94l-1.36.08a13,13,0,0,1-4.3.21l-.89-.1c-.64-.29-1.5-.61-2.15-.9a26.19,26.19,0,0,1-6.22-5,53.27,53.27,0,0,1-9.43-12.72,41,41,0,0,1,14.4-54.27,2.47,2.47,0,0,1,3.29.81,2.3,2.3,0,0,1,.23,2.05c-2.33,7-4.86,17.93.78,28.22,4.93,8.63,16.1,17.71,23.44,18.5C134.46,60.07,131.37,65.81,125.5,70.13Z"/><path class="cls-41" d="M146.3,104.79c-.53,4.89-3.83,8.36-7.39,8s-6-4.7-5.52-9.37c.46-4.23,3.07-7.55,6.06-8.13l6.54,6.11A8.87,8.87,0,0,1,146.3,104.79Z"/><path class="cls-32" d="M144,103.41c-.19,1.78-1.45,3-2.56,2.88s-2.08-1.58-1.89-3.36,1.45-3,2.56-2.87,2.08,1.57,1.89,3.35"/><path class="cls-41" d="M137.79,110.62a48.09,48.09,0,0,0-7.39,6,17.42,17.42,0,0,0-2.88,3.74,14.84,14.84,0,0,0-1.81,4.3,7.8,7.8,0,0,0-.47,2.21l-.12,1.11-.12,1.11-.52,4.9c0,1.58.08,3.38.14,5,.12.92,0,1.58.18,2.5a9.1,9.1,0,0,0,.65,2.32c-.38-.72-.5-1.63-.88-2.35-.15-.69-.49-1.63-.65-2.32-.27-1.6-.55-3.21-.8-5-.06-1.58-.09-3.38-.14-5l.12-1.12.14-1.33.26-2.45a19.35,19.35,0,0,1,1.67-5,43.78,43.78,0,0,1,2.73-4.43,44.67,44.67,0,0,1,7.29-7.09,2.36,2.36,0,0,1,2.89.31,1.81,1.81,0,0,1-.29,2.67Z"/><path class="cls-41" d="M136.31,109.79l-.45-.05-.22,0-.45,0-1.08-.35a6.28,6.28,0,0,0-2-.43,13.36,13.36,0,0,0-4.28,0l-2.07.45a11.35,11.35,0,0,0-5.35,3.7,11.9,11.9,0,0,1,2.88-3.74,5.94,5.94,0,0,1,1.94-1.37l2.15-1.12a15,15,0,0,1,4.87-1.28,9.27,9.27,0,0,1,2.47,0l1.33.14.89.1h0a2.37,2.37,0,0,1,2,2.24c.1,1.13-1.33,1.88-2.66,1.74h0"/><path class="cls-41" d="M191.91,109.7c-.53,4.9-3.83,8.37-7.16,8s-6-4.7-5.52-9.38A17.53,17.53,0,0,1,180,105l7.7-4.57C190.52,101.67,192.37,105.47,191.91,109.7Z"/><path class="cls-32" d="M181.57,107.46c-.19,1.78.78,3.24,1.89,3.36s2.37-1.1,2.56-2.88-.77-3.23-1.89-3.35-2.37,1.09-2.56,2.87"/><path class="cls-41" d="M189.3,113a41.76,41.76,0,0,1,5.39,8.46,28.28,28.28,0,0,1,2,4.71,20.44,20.44,0,0,1,.81,5,20,20,0,0,1-.55,5.12c-.39,1.53-.81,3.29-1.2,4.82a35.75,35.75,0,0,1-1.61,4.55,9.74,9.74,0,0,1-1.13,2.13,10.47,10.47,0,0,1-1.36,2.11c.3-.65.84-1.49,1.13-2.13s.62-1.51.91-2.15a34.86,34.86,0,0,0,1.17-4.6,34.8,34.8,0,0,0,.75-4.87,33.89,33.89,0,0,0,.06-4.73,24.51,24.51,0,0,0-1.1-4.39,14.85,14.85,0,0,0-2.26-4.07,47.62,47.62,0,0,0-6-7.39h0a1.93,1.93,0,0,1,.31-2.9,2.06,2.06,0,0,1,2.7.07l0,.22"/><path class="cls-41" d="M188.13,111.32h0l1.12.12,1.33.14a11.6,11.6,0,0,1,2.65.51,15.51,15.51,0,0,1,8.66,5.21,15.63,15.63,0,0,1,2.24,4.3,11.87,11.87,0,0,0-3-3.7,10.18,10.18,0,0,0-4-2.24,33.29,33.29,0,0,0-4.65-.72c-.67-.07-1.58,0-2.25,0l-1.13.1-.45,0-.22,0-.22,0-.23,0a2,2,0,1,1,0-4.05l.44.05"/></g></g></g></g></svg>