<svg xmlns="http://www.w3.org/2000/svg" width="297.47" height="471.48" viewBox="0 0 297.47 471.48"><defs><style>.cls-1{fill:#696969;}.cls-2{fill:#c2ebfc;}.cls-3{fill:#8c8c8c;}.cls-4{fill:#ac2b49;}.cls-5{fill:#9dcfeb;}.cls-6{fill:#8b1338;}.cls-17,.cls-7{fill:#39933c;}.cls-8{fill:#525252;}.cls-9{fill:gray;}.cls-10{fill:#425585;}.cls-11{fill:#3e3e3e;}.cls-12{fill:#627cb3;}.cls-13{fill:#2d4267;}.cls-14{fill:#555;}.cls-15,.cls-18{fill:#166815;}.cls-16{fill:#474747;}.cls-17,.cls-18,.cls-19,.cls-20{fill-rule:evenodd;}.cls-19{fill:#fff;}.cls-20{fill:#000100;}</style></defs><g id="Layer_2" data-name="Layer 2"><g id="Layer_1-2" data-name="Layer 1"><path d="M132.89,160.49l0,0s0,0,.06-.09A.08.08,0,0,0,132.89,160.49Z"/><path d="M54.34,109.54c-12.3,4.88-33.1,17.63-42.55,28C8.55,144.26,4.06,163,2.47,175A340.42,340.42,0,0,0,0,219.07c0,18.59.31,54.81,1.54,57.26s9.21,6.77,14.08,9.37c-5.91,26.92-3.55,55.32-2,82.58.3,5.12.58,10.23.78,15.34,0,.57.52,1.22,1.15,1.15a146.31,146.31,0,0,1,27.52-.39c-4.43,19.09-5.39,39.2-10.08,58.23-.19.76,1.2,1,2,1.12-.45,6.61-2.71,19-3.84,21.53,5.66,1.87,12.77,1.69,18.9,1.13a1.19,1.19,0,0,0,1.16-1.15c0-4.19,0-8.36.37-12.51C62,459.65,72.66,466,84.88,469c6.94,1.7,14,2.09,21.16,2.34a210.57,210.57,0,0,0,21.32-.16c9.28-.59,18.73-2,27.26-5.86,1.12-.49.46-2.08-.57-2.12q-8.62-.5-17.18-1.65c-27.78-3.79-54.6-12.22-81.28-20.63.63-.25,2.45-1.43,2.42-1.8-1-14.38-2.83-29.06-.95-43.45a37.29,37.29,0,0,1,2.59-9.78c4,.51,23.58,2.32,35.27,1.86a1.16,1.16,0,0,0,1.14-1.14,131.62,131.62,0,0,0-.69-20.64,265.88,265.88,0,0,1,29.91-5.47c3-.38,5.95-.76,8.93-1.1-4.85,24.7-3.43,50.25-3.62,75.27a1.2,1.2,0,0,0,.64,1,75,75,0,0,0-1.88,22.84,1.15,1.15,0,0,0,.84,1.1,28.51,28.51,0,0,0,12.3,0,1.13,1.13,0,0,0,.84-1.1c0-1.71.1-5.83.11-6.19,22,14.62,49.19,19,75.2,16a146.19,146.19,0,0,0,33-7.87c1.16-.43,1-2.28-.31-2.23a250.63,250.63,0,0,1-39.21-1.84A154,154,0,0,1,173,446.09a116.53,116.53,0,0,1-22.37-12.57c4.38-.74,8.72-1.65,13-2.8a1.18,1.18,0,0,0,.83-1.11c1.23-15.68-1.68-31.28-3.76-46.76a.61.61,0,0,1,0,.14,181.47,181.47,0,0,1-2-25.82c11-.7,22.12-1,33.18-1a1.16,1.16,0,0,0,1.14-1.14c3.14-29.1-13.82-70.26-13.94-93.63,4.67-5.41,15.18-14.66,18.51-17.26a82,82,0,0,1,14.86-8.68c1.2,4.62,5.71,8.31,11.33,10.3a29.92,29.92,0,0,0,11.86,1.43c4.45-.3,9.2-1.06,11-1.26s2.88-.85,3.62.2,1.94,8.33,4.27,12.06c2.55,4.08,6.13,5.74,10.19,5.33a2.87,2.87,0,0,0,2.67-3.93c-1.86-5.55-5-7.9-7.64-13.11,6.74,5.52,15.7,9.78,23.15,6.91,6.44-2.46-12.18-16.25-20.29-22.54a98.34,98.34,0,0,0,17.1,4.5c5.33.72,14,1.34,16.85-3.08,1.27-1.93,1.27-3.92-.8-5.05a122.05,122.05,0,0,0-22.1-7.53c14.31-.73,22.23-5,21.33-12.64a1.24,1.24,0,0,0-1.18-1.2c-2-.12-4.06-.17-6.09-.17-4.15,0-8.29.2-12.44.39-4.49.22-8.8.4-13.29.36a8.94,8.94,0,0,0,.25-5.42c-.16-.77-.46-2.63-1.41-2.8q-2.49-.45-5-.78a53.88,53.88,0,0,0-10.7-.4c-5.53.45-12.27,1.71-18,6.24-5,3.89-8.7,9.11-11.88,14.55a237.27,237.27,0,0,0-27.68,13.35c.3-26.44,3.44-53.15-1.68-79.32-1.49-7.62-5.63-19.48-7.76-25.15-10.29-9.82-22.88-19-34.6-27"/><path class="cls-1" d="M134.88,135c-4.32.65-6.28,2.92-4.82,2.74a80.4,80.4,0,0,1,14.05-.37c-3.68,6.42-36.88,56.44-41.72,63.83,2.86-7.92,12.17-39.88,14.24-47.81,1.91-7.31,9.37-38.55,11.28-43.3,2.57-1.21,5.07-2.53,7.57-3.89A206.33,206.33,0,0,0,134.88,135Z"/><path class="cls-2" d="M99.29,139a94.41,94.41,0,0,0,9.14-16.73c3.48,4.09,7.23,8,10.72,12.08-3.55,16.91-13.32,49.36-16.8,60.11C103.15,173.81,103.15,158.85,99.29,139Z"/><path class="cls-1" d="M53.93,141.42C53.84,131.9,55.26,118,57,111c1.88.27,5.76.59,7.63.87C71.06,142.15,83.94,190,85.86,202.6c-6-7.83-12.92-15-18.58-23.11-7.63-10.91-15-23.58-22.91-31.5,4.12-3.33,12.19-5.67,15.62-7C61.22,140.58,58.42,139.61,53.93,141.42Z"/><path class="cls-3" d="M118.51,154.56a226.56,226.56,0,0,0,5.88-22.78c1.39-6.28,2.7-12.75,2.72-19.21-2.67,8.82-8.79,34.34-10.48,40.86-.93,3.54-3.31,11.91-5.91,20.8A208.81,208.81,0,0,0,118.51,154.56Z"/><path class="cls-3" d="M112.07,186.57c11.66-17.65,29.4-44.56,32-49.16-.23,0-.44,0-.67,0C131.79,153,120.76,169.2,112.07,186.57Z"/><path class="cls-3" d="M70.49,179.56c-4-5.91-7.58-12.18-11.73-18-3.27-4.6-7.47-9.88-12.92-12.06,7.38,8,14.28,19.74,21.44,30,4.39,6.27,9.52,12,14.43,17.94A187.08,187.08,0,0,0,70.49,179.56Z"/><path class="cls-4" d="M107,120.5c-3.32,8.25-7.62,15.21-10.09,17.7-6.15-6.76-9.62-13.39-11-19.57,1.15-1.13,2.33-2.22,3.53-3.3a122.51,122.51,0,0,0,14.09.63Q105.14,118.3,107,120.5Z"/><path class="cls-2" d="M106.24,115.87c4.15.28,13.47-2.09,19.13-4.45-1.88,4.43-4.58,15-5.63,20.14C115.54,126.74,109.77,120.72,106.24,115.87Z"/><path class="cls-2" d="M71.81,133.14c-1-4.13-2-8.26-2.89-12.41-.64-2.84-1.26-5.69-1.86-8.53,6.43,1,12.87,2.07,19.32,2.81C80.62,120.33,75.42,126.21,71.81,133.14Z"/><path class="cls-2" d="M72.65,136.61a51.17,51.17,0,0,1,6-10,77.52,77.52,0,0,1,5.41-6.17A54.13,54.13,0,0,0,88.31,130a49.7,49.7,0,0,0,4.16,6.2c.73.93,1.47,1.81,2.26,2.68a8.57,8.57,0,0,0,.92,1c-5.45,7.61-7.2,17.72-8.21,26.76-1,8.73-1,17.51-1.23,26.28C82.08,174.07,77.19,155.38,72.65,136.61Z"/><path class="cls-5" d="M118.34,138c.3-1.29.57-2.5.81-3.65-3.49-4.07-7.24-8-10.72-12.08-.77,1.87-1.89,4.29-3.2,6.82A37.71,37.71,0,0,1,118.34,138Z"/><path class="cls-5" d="M114.56,117.15a30.53,30.53,0,0,1,8.8.13,61.18,61.18,0,0,1,2-5.86c-5.66,2.36-15,4.73-19.13,4.45.66.9,1.4,1.85,2.19,2.83A30.77,30.77,0,0,1,114.56,117.15Z"/><path class="cls-5" d="M73.5,116.69A36.3,36.3,0,0,1,82,119.25c1.4-1.45,2.85-2.87,4.34-4.24-6.45-.74-12.89-1.79-19.32-2.81.29,1.41.6,2.81.9,4.22A30.22,30.22,0,0,1,73.5,116.69Z"/><path class="cls-5" d="M81.56,129.44A28.39,28.39,0,0,1,87,127.6a55.73,55.73,0,0,1-2.59-6.06.28.28,0,0,1-.13,0l-.84-.41a72.43,72.43,0,0,0-4.81,5.53,51.17,51.17,0,0,0-6,10h0A20.7,20.7,0,0,1,81.56,129.44Z"/><path class="cls-5" d="M94.32,141.94c.42-.7.87-1.38,1.33-2.05a8.57,8.57,0,0,1-.92-1c-.79-.87-1.53-1.75-2.26-2.68-.19-.23-.37-.48-.55-.72A28.07,28.07,0,0,0,94.32,141.94Z"/><path class="cls-5" d="M85.76,155.47a56,56,0,0,0-4.34,16.21c0,.13,0,.26,0,.38,1.68,6.94,3.32,13.89,4.84,20.87.2-8.77.25-17.55,1.23-26.28.77-6.84,2-14.28,4.84-20.78C89.35,148.36,87.26,152.17,85.76,155.47Z"/><path class="cls-4" d="M90.06,163.94a67.86,67.86,0,0,1,4.18-16.72,41.62,41.62,0,0,1,3.24-6c3.31,13.87,3.2,41.49,2,63a166.74,166.74,0,0,0-8,15c-1-6.29-2.06-10.72-3.33-17C88.91,189.43,88.37,176.64,90.06,163.94Z"/><path class="cls-6" d="M105.37,124.16c.54-1.18,1.07-2.4,1.58-3.66q-1.82-2.2-3.45-4.54a122.51,122.51,0,0,1-14.09-.63c-1.2,1.08-2.38,2.17-3.53,3.3.18.83.41,1.68.67,2.53C92.86,118.74,99.92,120.24,105.37,124.16Z"/><path class="cls-6" d="M96.18,204.36a53.62,53.62,0,0,1-7.68-10.45c-.07,2.76-.17,5.52-.33,8.28,1.27,6.25,2.3,10.68,3.33,17,2.1-4.2,4.43-9,6.7-12.81C97.51,205.71,96.82,205,96.18,204.36Z"/><path class="cls-6" d="M99.16,151.76a83.7,83.7,0,0,0-1.68-10.57,41.62,41.62,0,0,0-3.24,6c-.29.71-.56,1.42-.83,2.14A18.66,18.66,0,0,1,99.16,151.76Z"/><path class="cls-1" d="M4,274.8c-.93-2.77-2.83-57.06-.62-86q.54-7.32,1.51-14.57a154.71,154.71,0,0,1,8.7-35.5c9-9.7,27.06-21.19,41.4-27.34a160.34,160.34,0,0,0-3.48,30.78,35.58,35.58,0,0,0-10.53,6.08,71.45,71.45,0,0,1,7.73,8.21c5.67,7.38,10.23,15.51,15.76,23,6.11,8.25,13,15.93,19.28,24,1.1,1.45,2.2,2.89,3.27,4.37.71,2.85,2.07,11.22,2.74,15a167.72,167.72,0,0,0-2.27,28.48c0,4.64.09,9.29.27,13.92-3.44.51-6.86,1.17-10.24,1.91a147.88,147.88,0,0,0-21.89,6.6,35.07,35.07,0,0,1-1.9-12.16c4.69-1.69,6.77-5.35,7.72-12.44,1.12-8.42-.08-12.36-1.42-13.55s-4.3,1.67-7.56,5.2a64.61,64.61,0,0,0-9.45,14,100.08,100.08,0,0,0-5,14.94c-7.48-4.51-15.72-7.78-22.7-13.11-.42-.32-.82-.64-1.22-1a11.57,11.57,0,0,0,1.05-.94,3.31,3.31,0,0,0,.57-2.76,38,38,0,0,0-1.23-4.19,26,26,0,0,1-.71-3.51c-1.1-8.54,0-17.38,1.14-25.85,1.11-8.22,2.63-16.38,3.85-24.58.68-4.49.92-9,1.3-13.52.58-6.84,2-22.45,3.27-27.63.62-2.58-2.28,1.5-3.06,5.37s-1.32,10.25-1.85,15.4c-.61,6-.81,12-1.6,17.93-1.39,10.32-3.45,20.51-4.68,30.86a121.44,121.44,0,0,0-1,16.5,47.19,47.19,0,0,0,.6,7c.37,2.29,1.77,7.32,1.76,7.37a13.47,13.47,0,0,0-2,2.07,1.11,1.11,0,0,0,.18,1.37c7.77,6.81,16.81,10.15,25.47,15.56a92.5,92.5,0,0,0-2.68,20.64C23.78,287.42,4.82,277.42,4,274.8Z"/><path class="cls-1" d="M62.35,286.9c.52-1.94,18.75-7.56,26.15-8.5.41,7,.67,13.07,1,20.07,0,.63,0,1.28.09,1.93l0,0c-6.78-3.58-17.26-7.16-20.72-8.9S61.83,288.85,62.35,286.9Z"/><path class="cls-7" d="M74.19,279.38c-3.21,1-9,3.11-12.31,5.16s-3,4.57-.94,5.83,3.49,1.56,6.37,2.79c3.83,1.63,12.52,4.3,20.25,8.71s11.53,6.9,10.56,9c-.75,1.58-4.58,2.35-9.93,1.1s-17.8-6.47-24.89-11.51c-.79,1.8-2.84,6.3-2,7.87s6.64,4.22,10.13,6.07a95.77,95.77,0,0,1,13.28,7.95c1.43,1.12,7.63,6,5.66,8s-8.32-.84-10.15-1.58c-6.41-2.76-14.27-9.45-20.18-13-1.15-.7-.63,1.85.32,2.68a116.85,116.85,0,0,1,13.21,13.43c.93,1.26,3.24,4.17,2.07,6.74s-21.3-13.35-25.3-18.48c-3.7-4.84-11.73-16.27-13-24.05s.79-15.76,2.21-22.22a120.41,120.41,0,0,1,6.23-19.07c1.66-3.84,12.07-18.06,13-16.53,2.37,3.93-.47,15.59-2.83,18.44s-4.89,3-7.41,2.82c-1.47-.08,1.58,1.9,2.7,2-.19,5.78,1.11,9.72,3.44,15,1.27,2.84,3.79,3.3,3,2.05-.3-.47-.86-2.11-1.12-2.61a148,148,0,0,1,33.61-8.63c3.83-.52,9.83-1.26,11.46-.26s-.32,5.84-6.78,7.57C88.05,276.43,80.84,277.28,74.19,279.38Z"/><path class="cls-8" d="M148.86,465.07a75.23,75.23,0,0,1-13.44,3,152.82,152.82,0,0,1-21.5,1.12,175.21,175.21,0,0,1-21-1A75.3,75.3,0,0,1,74.19,463C66.27,459.61,59,455,51.88,450.14c-.15-1.13-1.64-3.57-1.81-2.12A148,148,0,0,0,49,464.19c-4.44.32-12.9.08-15.31-.8,2.16-4.9,3.42-18.31,3.72-19.55A47.92,47.92,0,0,0,52,442.13C83.65,452.1,115.6,462.38,148.86,465.07Z"/><path class="cls-9" d="M105.66,460.43A167.07,167.07,0,0,0,137,463.79c-18-2.39-35.75-6.8-53.25-11.89C78.82,450.46,101.36,459.54,105.66,460.43Z"/><path class="cls-10" d="M54.81,395.41A102.92,102.92,0,0,0,54.06,410c.08,9.48,1,18.93,1.61,28.39l-.86.38a38.75,38.75,0,0,1-9.17,2.41,57.18,57.18,0,0,1-9.88.32c4.44-18.75,5.23-38.18,9.66-56.94,3.94.29,7.88.67,11.84,1.05A37.54,37.54,0,0,0,54.81,395.41Z"/><path class="cls-1" d="M93.82,385.46c-11.32.35-22.62-.76-33.92-1.89-14.4-1.41-28.8-2.83-43.23-1.21-1.22-28.32-4.46-56.83-.73-85.09q.72-5.25,1.82-10.42c5.43,2.91,14.36,7.69,16.71,9,2.68,10.07,6.14,15.91,11.5,23,6.39,8.45,14.51,15,23.64,20.65,3.3,2,7.08,2.92,8,1.25,2.05-3.63-.47-8.83-5.48-13.92,5.23,3.39,11.07,6.48,17.46,6.19C90.91,350.66,94.61,367.73,93.82,385.46Z"/><path class="cls-8" d="M156.29,440c21.92,13.46,47.86,18.9,73.41,20.23,4.77.26,9.55.36,14.32.34a146.74,146.74,0,0,1-23.36,5.18,129.57,129.57,0,0,1-33.79.15,107.32,107.32,0,0,1-26.64-7.14,95.54,95.54,0,0,1-19.81-11.39c-1.18-.89-.49,2.17.74,3.34a60.28,60.28,0,0,1-.09,6.85,31,31,0,0,1-9.48,0A80.38,80.38,0,0,1,132.1,443a63,63,0,0,1,1.48-7.38c4.7-.4,9.4-.9,14.06-1.59A63.86,63.86,0,0,0,156.29,440Z"/><path class="cls-9" d="M185.77,454.86c9,3.27,20,5,29.51,5.95a83.51,83.51,0,0,0,16.79-.47l-2.37-.11c-18.11-.94-36.42-4-53.35-10.42C174.53,449.12,181,453.14,185.77,454.86Z"/><path class="cls-11" d="M61.39,445.08,52,442.13a47.92,47.92,0,0,1-14.61,1.71c-.13.57-.48,3.7-1,7.42A75.92,75.92,0,0,1,61.39,445.08Z"/><path class="cls-11" d="M134.24,467.32c-3.89-.22-7.78-.64-11.69-.79-5.06-.2-10.13-.38-15.2-.74a161.76,161.76,0,0,1-47.71-10.57A107.49,107.49,0,0,0,74.19,463a75.3,75.3,0,0,0,18.74,5.14,175.21,175.21,0,0,0,21,1,152.82,152.82,0,0,0,21.5-1.12c1.18-.16,2.37-.35,3.54-.56C137.38,467.48,135.8,467.41,134.24,467.32Z"/><path class="cls-11" d="M133.9,444.69a46.13,46.13,0,0,1,7.25-3.42,67.65,67.65,0,0,1,11.67-3.44,43.31,43.31,0,0,1-5.18-3.81c-4.66.69-9.36,1.19-14.06,1.59A63,63,0,0,0,132.1,443c-.13,1-.24,2-.33,3.07C132.47,445.59,133.18,445.13,133.9,444.69Z"/><path class="cls-11" d="M196.86,463.64a202.54,202.54,0,0,1-29.06-5.51c-8.62-2.28-17-6-25.12-9.7l-.19,0a.42.42,0,0,1-.37.21,95.51,95.51,0,0,0,18.11,10.16,107.32,107.32,0,0,0,26.64,7.14,129.57,129.57,0,0,0,33.79-.15q3.72-.51,7.41-1.22C221.36,464.76,201.84,464.18,196.86,463.64Z"/><path class="cls-10" d="M160.53,397.75c1.37,10.26,2.46,20.61,1.75,31a150.55,150.55,0,0,1-17.74,3.44q-5.82.75-11.65,1.23c.12-21.59-.74-43.28,2.1-64.74q.66-4.81,1.6-9.56,9.93-1.09,19.91-1.76C156.39,370.9,158.71,384.35,160.53,397.75Z"/><path class="cls-12" d="M160.53,397.75c-.88-6.45-1.87-12.91-2.65-19.38-.13,1.3-.24,2.6-.33,3.91a94,94,0,0,0,1,17.89,145.17,145.17,0,0,1,1.51,18,85.86,85.86,0,0,1-.54,11.22c.94-.22,1.88-.45,2.8-.7C163,418.36,161.9,408,160.53,397.75Z"/><path class="cls-13" d="M54.72,396.1l.09-.69a37.54,37.54,0,0,1,2.45-9.81c-4-.38-7.9-.76-11.84-1.05-.68,2.84-1.27,5.7-1.79,8.57A43.27,43.27,0,0,1,54.72,396.1Z"/><path class="cls-13" d="M153.92,364.85c.94.21,1.87.47,2.78.75-.15-2.75-.23-5.51-.2-8.27q-10,.68-19.91,1.76c-.48,2.44-.91,4.88-1.28,7.35A31,31,0,0,1,153.92,364.85Z"/><path class="cls-1" d="M190.13,333.22a101.13,101.13,0,0,1,.78,20.72,456.61,456.61,0,0,0-78.85,6.24c-5.66,1-11.33,2.09-16.93,3.49C94,353.27,92,339,91.7,332.46c2.63-1.3.53-4.95-.55-6.71,0-1.95-.5-6-.44-8,0-1.48-1.73,0-1.87,5.09a40.75,40.75,0,0,0-7.37-5.45c-3.31-2.06-6.8-3.86-10.25-5.7-2.68-1.42-7.54-3.83-7.89-4.63s.51-2.19.89-3.21c5.86,3,11.09,6.18,17,8.39,6.34,2.35,17.33,3.78,19.22.47,2.34-4.11-4.47-8.81-8.56-11.09-.32-8.31-.89-15.42-1.37-23.72,8.51-.79,17-6.88,12.76-12.14-1.83-2.26-9.15-1.32-13.34-.77a215.16,215.16,0,0,1,1.18-36.5c.24-1.72.51-3.43.82-5.14,1.41-4.37,17.39-28.32,22.87-36.59s30.84-47,32.89-51.1c-2.83-.79-9.69-.76-10.58-.73-.29-5.58-.14-22.91.93-30.12,1.88-1,3.11-1.78,5-2.74,5.52,3.81,27.69,20.19,32.65,25-2.67,13.55-2.63,27.53-1.83,41.28.9,15.76,2.86,31.47,3.72,47.23a209.06,209.06,0,0,1-.39,29.4c-1,11.07-2.55,22.08-3.16,33.18-.08,1.48,2.28-1.72,3.07-10.35C178.84,289.9,187.09,311.24,190.13,333.22Z"/><path class="cls-3" d="M162.22,120.76a118.37,118.37,0,0,0,13.26,7.72l.27-1.43c-4.76-4.57-25.35-19.83-31.9-24.43C148.13,110.12,155.17,116,162.22,120.76Z"/><path class="cls-3" d="M190.13,333.22c-1.86-13.48-5.7-26.74-8.77-40.06.52,2.33,1.07,4.66,1.61,7a179.7,179.7,0,0,1,4,26,124,124,0,0,1-.28,25c-.12.92-.25,1.85-.39,2.77,1.56,0,3.1,0,4.65,0A101.13,101.13,0,0,0,190.13,333.22Z"/><path class="cls-3" d="M174.11,138.54a74.58,74.58,0,0,0-1.78,8c-3.17,18.76-.8,37.71,1.14,56.46.51,4.82.95,9.67,1.64,14.48.6,4.11,1.46,8.18,2.22,12.24.2,1.07.4,2.14.58,3.21q.21-8.67-.27-17.37c-.86-15.76-2.82-31.47-3.72-47.23A196.19,196.19,0,0,1,174.11,138.54Z"/><path class="cls-1" d="M212.34,233.05c-14.4,5.87-26.91,18.06-33.16,25,0-1.66,1.14-22,1.12-30.08,0-15.67-1.87-31.28-3.18-46.88s-2.15-38.29.11-50.29A137.11,137.11,0,0,1,185,160c3.21,24.33.48,48.84.35,73.26a1.15,1.15,0,0,0,1.71,1,209.54,209.54,0,0,1,26.43-13.11C213,224.94,212.47,229.17,212.34,233.05Z"/><path class="cls-14" d="M58,267.29a5.6,5.6,0,0,1,1.66-3.77,10.83,10.83,0,0,0,3.12-4,20.33,20.33,0,0,0,.59-10,20.74,20.74,0,0,0-1.51-5.47,50.89,50.89,0,0,1-.43,5.21c-.95,7.09-3,10.75-7.72,12.44a35.07,35.07,0,0,0,1.9,12.16c1-.39,2-.78,3-1.15A14.48,14.48,0,0,1,58,267.29Z"/><path class="cls-14" d="M45,152.24a33.32,33.32,0,0,0-4.85,5.21c6.73,4.65,11.64,11.36,16.93,17.48,3,3.45,6.27,6.67,9.32,10.07a112,112,0,0,1,7.48,9.34,114.74,114.74,0,0,1,11.65,18.9A44.5,44.5,0,0,1,89.38,225c.11-.69.23-1.38.34-2.07-.67-3.83-2-12.2-2.74-15-1.07-1.48-2.17-2.92-3.27-4.37-6.29-8.11-13.17-15.79-19.28-24-5.53-7.49-10.09-15.62-15.76-23C47.61,155.15,46.32,153.67,45,152.24Z"/><path class="cls-14" d="M55,111.42c-1.37.59-2.78,1.23-4.21,1.91-2.28,9.76-2.12,20-2,30a23.82,23.82,0,0,1,2.77-1.13A160.34,160.34,0,0,1,55,111.42Z"/><path class="cls-14" d="M64.08,289.25A111.13,111.13,0,0,1,80,283.37c2.88-.83,5.79-1.41,8.7-2.1,0-.94-.1-1.89-.16-2.87-7.4.94-25.63,6.56-26.15,8.5C62.1,287.87,62.84,288.58,64.08,289.25Z"/><path class="cls-14" d="M60.88,338.18c4.39,4.2,9.6,9.31,15.8,10.49,2.07.39,6.32.65,6.42-2.45.07-2.18-1.1-4.22-2.31-6a.54.54,0,0,1,.74-.73,44.83,44.83,0,0,0,9.18,4.8c-.44-3.74-.83-7.49-1.1-11.28-6.39.29-12.23-2.8-17.46-6.19,5,5.09,7.53,10.29,5.48,13.92-.94,1.67-4.72.78-8-1.25-9.13-5.65-17.25-12.2-23.64-20.65-.41-.54-.81-1.09-1.2-1.62A84.52,84.52,0,0,0,60.88,338.18Z"/><path class="cls-14" d="M36.73,302.94a68.29,68.29,0,0,1-2.26-7.05c-2.35-1.35-11.28-6.13-16.71-9-.57,2.67-1.05,5.36-1.48,8C22.12,299.37,29.72,300.53,36.73,302.94Z"/><path class="cls-14" d="M138.85,135c1.77-10.33,2.75-21,1.54-31.4-.72.41-1.45.82-2.31,1.29-1.07,7.21-1.22,24.54-.93,30.12Z"/><path class="cls-14" d="M91.33,229.57a66.88,66.88,0,0,1,6-11c2.58-4.13,5.28-8.19,8-12.21s5.76-8.25,8.75-12.31c2.76-3.71,5.65-7.33,8.22-11.19,9.13-13.75,15.69-29.51,27.61-41.24a13.19,13.19,0,0,0-4.81-1.66c-7,11.3-25.74,39.87-30.35,46.84C109.36,195.06,93.38,219,92,223.38c-.31,1.71-.58,3.42-.82,5.14q-.16,1.2-.3,2.37C91,230.45,91.15,230,91.33,229.57Z"/><path class="cls-14" d="M100.9,264.61a4.47,4.47,0,0,0,.55-1.95,4.21,4.21,0,0,0-5.32-4.06c-2.19.75-4.59,3.66-3.81,6.13C95.17,264.4,98.56,264.12,100.9,264.61Z"/><path class="cls-14" d="M103.54,301.17a5.86,5.86,0,0,0-3.43-4.45,3.27,3.27,0,0,0-4.14.85,0,0,0,0,0,0,0c-.87,2.24-1.16,6.67,2.11,7.11C100.15,305,103.76,303.81,103.54,301.17Z"/><path class="cls-14" d="M101.19,335.94c-2.44-.37-3.83,1.33-4.28,3.56a.49.49,0,0,1-.11.23A4.12,4.12,0,0,0,98,343.34a5.15,5.15,0,0,0,5.44.75c2-.82,3.66-2.53,2.47-4.74A6.83,6.83,0,0,0,101.19,335.94Z"/><path class="cls-14" d="M92.27,339.48c.75,7.18,2,16.69,2.86,24.19,1.42-.37,2.85-.69,4.28-1C97.54,354.79,94.77,347.17,92.27,339.48Z"/><path class="cls-14" d="M102.55,272.73c-2.53,2.66-7.26,4.76-12,5.2.06,1,.12,1.92.17,2.86C95.16,279.71,103.87,277.25,102.55,272.73Z"/><path class="cls-14" d="M89,319.26a1.52,1.52,0,0,1,.28.09c.57-2.17,1.46-2.62,1.43-1.57,0,.54,0,1.25.05,2,3.39,1,8,1.82,10.4-.81,2-2.15.37-4.17-1.67-5.32-3.35,2-12.61.67-18.23-1.41-6-2.21-11.18-5.36-17-8.39-.24.65-.67,1.43-.86,2.14A101.1,101.1,0,0,0,89,319.26Z"/><path class="cls-14" d="M95.81,236.28c1.57.26,2.82-1,3.42-2.29a4.69,4.69,0,0,0,0-4.37c-1.08-1.59-3.16-1.34-4.83-.86a7.51,7.51,0,0,0-.36.7v.26a.51.51,0,0,1-.27.47C93,232.59,93,235.8,95.81,236.28Z"/><path class="cls-14" d="M184.12,249.83c-4.1-19.33-2.87-39.41-4-59-.59-10.24-2.43-20.36-2.5-30.63-.06-8.95.73-17.89.59-26.83-.31-.86-.63-1.71-1-2.56-2.26,12-1.42,34.59-.11,50.29s3.14,31.21,3.18,46.88c0,8.07-1.08,28.42-1.12,30.08,1.5-1.66,3.36-3.64,5.53-5.75C184.49,251.48,184.3,250.66,184.12,249.83Z"/><path class="cls-14" d="M210.93,222.18a112.91,112.91,0,0,0-1.25,12c.87-.42,1.76-.81,2.66-1.17.13-3.88.61-8.11,1.1-11.94Z"/><path class="cls-7" d="M259.76,230.37c2.6,3.14,17.19,15.14,19.33,17.21s2.12,3.72,1,3.92a14,14,0,0,1-4.58-.07,27,27,0,0,1-6.25-1.74,35.05,35.05,0,0,1-7.13-4.22,63.07,63.07,0,0,1-7.26-6.89c-1-1.11-1.27,1.54,1,4.31,1.91,6.09,6.94,11.34,9.21,16.53.56,1.3,0,2.28-3,1.61s-4.8-2.6-6.27-5.33a57.16,57.16,0,0,1-3.39-9.86,2.81,2.81,0,0,0-3.2-2.19c-4.19.53-9.93,1.65-14.33,1.65a36.36,36.36,0,0,1-11.15-1.75,23.94,23.94,0,0,1-4.49-2.35c-1.24-.9-4.47-4.08-4.74-6.08s.82-9.78,1.38-14.64c1.94-3.52,5.76-9.73,9.5-13a36,36,0,0,1,9.18-6,30.81,30.81,0,0,1,7.56-2,54.83,54.83,0,0,1,13.9.29c1.23.16,2.44.37,3.66.58a15.57,15.57,0,0,1,.5,2,9,9,0,0,1,0,1.8,6.91,6.91,0,0,1-.35,1.3,5.38,5.38,0,0,1-.65,1.11,7.1,7.1,0,0,1-1.13,1.13,11.67,11.67,0,0,1-2.31,1.31,26.33,26.33,0,0,1-6.45,1.57c-2.38.31-4.76.48-7.14.6-2.61.13-4.87,3.12-3.07,2.93s15.85.45,21.24-5.4c3.9-.08,32.05-1,32.37-.21.54,1.3-1,3.94-5.25,5.61a71.39,71.39,0,0,1-13.17,3.1,51.52,51.52,0,0,1-13,.55c-1.51-.18-2.24,2.18-.75,2.34,8,.8,34.91,7.73,34.6,9.84-.25,1.75-2.69,3.54-7.15,3.68a55.49,55.49,0,0,1-14.86-1.72c-5.26-1.35-12.64-3.56-13.38-3.74S259.12,229.58,259.76,230.37Z"/><path class="cls-15" d="M73.55,336.92a167.17,167.17,0,0,1-15.14-12.1,128.42,128.42,0,0,1-14.17-14.95c-.86-1-1.78-2-2.68-3a110.38,110.38,0,0,0,8.73,13.24c4,5.13,24.13,21,25.3,18.48a2,2,0,0,1,.1-.26Z"/><path class="cls-15" d="M68.93,320.8a45.78,45.78,0,0,0-6.13-3.25c5.46,3.71,11.94,8.9,17.37,11.23a34,34,0,0,0,6.29,2.14c-2.48-1.68-5-3.26-7.61-4.77C75.59,324.27,72.21,322.63,68.93,320.8Z"/><path class="cls-15" d="M91.29,312.47A83.27,83.27,0,0,0,65.58,302c7.23,4.53,17.79,8.85,22.61,10A22.43,22.43,0,0,0,91.29,312.47Z"/><path class="cls-15" d="M260,218.13a2.66,2.66,0,0,1,1.35-.34c.84.11,1.68.17,2.54.2,0-.65,0-1.3,0-2a37.37,37.37,0,0,0-.74-7.37l-2.75.08a10.94,10.94,0,0,1-.92.87A20.38,20.38,0,0,1,260,218.13Z"/><path class="cls-15" d="M260,220a45.94,45.94,0,0,1-3.11,8.49c-1.67,3.41-4.25,8.4-7.83,12.13a9.76,9.76,0,0,0,5.34-.11c-.6-1.63-.26-2.66.41-1.89.31.37.69.78,1.1,1.2a8.49,8.49,0,0,0,1.82-1.41,17.43,17.43,0,0,0,3.73-6.22,23.65,23.65,0,0,1-1.73-1.78c-.64-.79-.74-2.37,0-2.18l2.69.77c.05-.2.1-.39.14-.59a48.46,48.46,0,0,0,1.15-7.79c-1.25-.21-2.32-.36-3.19-.45a1,1,0,0,1-.52-.21S260,220,260,220Z"/><path class="cls-15" d="M246.68,213.76c-3.52.34-6.49.29-7.43.36-.26.82-.06,1.33.26,2.59,1.1,4.38.27,10-7.87,14.94C236.58,231.87,248.93,226.55,246.68,213.76Z"/><path d="M260,199.12a.37.37,0,0,0-.61-.15c-.72.57-.91,1.74-1.24,2.55a6.46,6.46,0,0,1-2.11,3.13c-1.47,1-2.91-.27-3.36-1.67a8.46,8.46,0,0,1,.15-4.49c.06-.23-.27-.31-.37-.12-1.24,2.39-1,7.41,2.61,7.35,1.37,0,2.46-1.4,3.19-2.39S260.32,200.48,260,199.12Z"/><path d="M273.85,211.61c-.15-.11-.32.14-.18.27,1.42,1.31,3.72,4.28,1.46,5.84-.43.3,0,1,.43.67C278.17,216.43,276.06,212.93,273.85,211.61Z"/><path d="M276.32,212c-.08-.07-.19,0-.14.13a10.26,10.26,0,0,1,1.19,2.09c.52,1.27,0,2.34-.44,3.53a.19.19,0,0,0,.3.2C279.39,216.37,278.06,213.38,276.32,212Z"/><path d="M274.79,225.4c-.05-.11-.21-.05-.17,0a8.91,8.91,0,0,1-.89,5.89c-.39.7-.9.65-1.48,1a.2.2,0,0,0,0,.31c1.07.92,2.21-1.27,2.46-2A7.76,7.76,0,0,0,274.79,225.4Z"/><path d="M267.23,241.29a16.22,16.22,0,0,1-1.89,3,4.8,4.8,0,0,1-1.52,1.25,3.61,3.61,0,0,1-2.32,0,.16.16,0,0,0-.14.28c1,1.19,2.68.63,3.72-.23a8,8,0,0,0,2.38-4.17C267.49,241.26,267.3,241.15,267.23,241.29Z"/><path d="M257.58,251.09c-.75,1.31-2.2,1.45-3.55,1.54a.13.13,0,0,0,0,.25,3.18,3.18,0,0,0,3.71-1.72C257.73,251.07,257.62,251,257.58,251.09Z"/><path class="cls-15" d="M260.24,213.43a.13.13,0,0,0-.25,0,39.66,39.66,0,0,1-.87,8.35,54.2,54.2,0,0,1-3.69,9.28.17.17,0,0,0,.3.16C258.69,226.14,261.69,219.47,260.24,213.43Z"/><path d="M241.51,198.44c-1.54,1.46-1.77,4.47-.86,6.31a.2.2,0,0,0,.36-.15,7.58,7.58,0,0,1,.73-6A.14.14,0,0,0,241.51,198.44Z"/><path d="M244,198.07a5.67,5.67,0,0,0-1.42,6.49c0,.1.23.06.2-.06a7.75,7.75,0,0,1,1.45-6.17C244.38,198.18,244.2,198,244,198.07Z"/><path d="M60.33,237c-1.51,2-2.33,4.5-3.54,6.72a12.42,12.42,0,0,1-2.55,3.31c-1.52,1.35-4.5,2.66-4.87-.64a.09.09,0,0,0-.18,0c-.52,3.81,3.69,2.66,5.58,1.2,3.07-2.35,4.51-7,5.85-10.41C60.7,237,60.45,236.85,60.33,237Z"/><path d="M101.59,271.51c-3.09,1-6.5,2.39-9.49,1.45a2.54,2.54,0,0,1-1.55-2.74c0-1.5,1.58-2.24,2.79-2.65,2.1-.73,4.39-.67,6.39-1.67.11-.07,0-.24-.08-.19-2.56.94-5.43.6-7.9,1.93a3.51,3.51,0,0,0-1.13,5.22c1.41,1.79,4.63,1.21,6.52.84a25.5,25.5,0,0,0,3.91-1.14C101.22,272.2,101.39,271.85,101.59,271.51Z"/><path d="M96.11,305.77c-2.77-2.74-8.43-1.2-8.77,2.9-.27,3.44,5.67,5.24,8.24,5.35a.19.19,0,0,0,.13-.34c-2.28-1.42-5.45-1.49-7.19-3.76-1.33-1.75.57-3.92,2.13-4.62a5.73,5.73,0,0,1,5.38.56A.06.06,0,0,0,96.11,305.77Z"/><path d="M88.93,325a8.77,8.77,0,0,0-5.73-2,3.28,3.28,0,0,0-3,3c0,3.16,4.32,5.39,7,6,.2,0,.4-.21.18-.34-2.07-1.26-5-2.5-6.14-4.79-.9-1.83,1.17-3.17,2.78-3.14s3.25,1,4.76,1.66C89,325.46,89.09,325.16,88.93,325Z"/><path d="M76.65,336.47c-1-1.39-2.45-3.09-4.17-3.46-1.13-.24-2.67-.37-3.2.91-1,2.33,1.74,5.66,3.37,7,.13.12.38-.07.24-.22A13.18,13.18,0,0,1,70,335.37c-.38-1.49.71-1.87,2-1.7,2,.28,2.74,2.25,4.45,3C76.59,336.68,76.71,336.56,76.65,336.47Z"/><path d="M54.15,285.56c-3.69.43-5,5.92-1,7.07a.23.23,0,0,0,.23-.37c-1.09-1.09-2.09-2.21-1.63-3.86A4,4,0,0,1,54.24,286C54.49,285.94,54.43,285.53,54.15,285.56Z"/><path d="M54,293.88c.22-.16.06-.54-.21-.43a6.79,6.79,0,0,0-4.1,5c-.45,2.07.68,4.53,2.86,4.95a.24.24,0,0,0,.22-.4,8.42,8.42,0,0,1-2-2.68,4.22,4.22,0,0,1,.18-2.58A8.3,8.3,0,0,1,54,293.88Z"/><path d="M51,306.71a1.71,1.71,0,0,0-1.2.27,2.16,2.16,0,0,0-.68,1,3.2,3.2,0,0,0,.46,2.82c.12.17.34,0,.34-.13a17,17,0,0,1,0-2,2.13,2.13,0,0,1,1.17-1.56A.2.2,0,0,0,51,306.71Z"/><path d="M236.74,210.68a.22.22,0,0,0-.36.25c2,3.62,3.74,6.93,2.74,11.17s-4.82,7.28-8.34,9.64c-.2.13-.07.51.19.42,4.13-1.66,7.91-5.11,9.08-9.52A12.41,12.41,0,0,0,236.74,210.68Z"/><path d="M96.26,225.42a4.17,4.17,0,1,0,4.16,4.16A4.16,4.16,0,0,0,96.26,225.42Z"/><path d="M95.42,257.15a4.27,4.27,0,1,0,4.27,4.27A4.27,4.27,0,0,0,95.42,257.15Z"/><path class="cls-16" d="M95.52,258.5a2.81,2.81,0,1,0,2.82,2.82A2.81,2.81,0,0,0,95.52,258.5Z"/><path class="cls-16" d="M96.4,226.39a2.82,2.82,0,1,0,2.83,2.82A2.81,2.81,0,0,0,96.4,226.39Z"/><path d="M97.94,294.33a4.17,4.17,0,1,0,4.17,4.16A4.16,4.16,0,0,0,97.94,294.33Z"/><path class="cls-16" d="M98.1,295.31a2.82,2.82,0,1,0,2.81,2.81A2.81,2.81,0,0,0,98.1,295.31Z"/><path d="M100,334.87a4.17,4.17,0,1,0,4.17,4.17A4.15,4.15,0,0,0,100,334.87Z"/><path class="cls-16" d="M100.12,335.85a2.82,2.82,0,1,0,2.82,2.81A2.81,2.81,0,0,0,100.12,335.85Z"/><path d="M68.91,445.64c-2.45-.42-6.39,1-6.2,3.8a1.09,1.09,0,1,0,.93.12c-.15-2.35,3.28-2.85,5.12-3C69.23,446.51,69.46,445.75,68.91,445.64Z"/><path d="M77.71,448.6a9.67,9.67,0,0,0-6.56.27,3.12,3.12,0,0,0-1.89,2.8,1.1,1.1,0,0,0,.17,2.17,1.11,1.11,0,0,0,.54-2.06,3.39,3.39,0,0,1,2.53-2.23,18.47,18.47,0,0,1,5-.1A.44.44,0,0,0,77.71,448.6Z"/><path d="M87,451.17c-3.23-1-10.79-2-10.52,3a1.09,1.09,0,0,0,.06,2.18,1.11,1.11,0,0,0,.77-1.88c-.09-4.35,6.59-3,9.29-2.3C87.21,452.38,87.64,451.39,87,451.17Z"/><path d="M162.2,441.75c-2.77-2.65-7.67-1.2-8.47,2.32h-.12a1.1,1.1,0,0,0,0,2.19,1.12,1.12,0,0,0,.72-1.93c.92-2.91,4.86-3.42,7.3-1.81C162.08,442.81,162.58,442.12,162.2,441.75Z"/><path d="M168.37,444.64c-2.94-2.11-8.09-.92-8.73,2.67a1.1,1.1,0,1,0,.9.09c.77-3,4.83-2.89,7.45-1.95C168.49,445.63,168.77,444.94,168.37,444.64Z"/><path d="M174,447.91c-2.18-3.06-6.81-.85-7.64,2.3a1.1,1.1,0,0,0,.21,2.17,1.11,1.11,0,0,0,.52-2.07c1-1.88,3.1-3.19,5-2.5C172.68,447.86,173.32,447.88,174,447.91Z"/><path class="cls-17" d="M138.67,119.64c-.54.14-1,2.2-3.17,3.28a2.15,2.15,0,0,1-.45.2,2,2,0,0,0-.52.23c-.33.2-2.08.69-2.89,1.17a5.55,5.55,0,0,1-1.1.29,22.29,22.29,0,0,1-3.33.72c-1.3,0-4.4-.09-5.46,0a7.71,7.71,0,0,1-1.19.2h-8.17a10,10,0,0,0-2.65.09c-.9.31-2.18,0-3.19.22a2.17,2.17,0,0,1-.49.16c-.43,0-.92,0-1.37,0a7.33,7.33,0,0,1-1.22.18c-.6,0-.78.2-1.19.2H94.56a11.6,11.6,0,0,0-1.93-.2c-.72,0-1.49,0-2.2,0a3.62,3.62,0,0,1-.88-.18c-.67-.11-1.48.09-2.16,0-.49-.11-.09-.14-.94-.18l-1-.07c-.36,0-.54-.18-.88-.2a4.3,4.3,0,0,1-1-.07l-.41-.11c-.2,0-.38,0-.58,0-.5,0-2.94-.68-3.73-.68-1.21,0-2.22-.67-3.37-.94a4.27,4.27,0,0,1-.9-.16c-.83-.33-1.68-.47-2.54-.78l-1.57-.61c-.29-.09-.54-.14-.81-.25a6.44,6.44,0,0,1-1.41-.78,2.41,2.41,0,0,0-.81-.34,11.76,11.76,0,0,1-1.46-.74,19.76,19.76,0,0,1-2.2-1c-.65-.45-1.42-.81-2.07-1.26-.22-.16-.38-.27-.63-.43s-.51-.15-.76-.38c-.79-.72-1.44-1.39-2.2-2.13a11.56,11.56,0,0,1-1.19-1.55,8.9,8.9,0,0,1-1.53-2.25c-.13-.29-.24-.4-.38-.69a4.11,4.11,0,0,1-.29-.83,12.55,12.55,0,0,0-.63-1.55,21.11,21.11,0,0,1-.85-2.41,17.23,17.23,0,0,1-.61-2.71,3.56,3.56,0,0,1-.18-.88,3.74,3.74,0,0,0-.18-.94L52.07,98c0-.45.11-.6.13-1a4.4,4.4,0,0,1,.07-1.12c.13-.47.16-1.1.27-1.53a5.74,5.74,0,0,0,.13-1.66c0-.4.18-.63.2-1a2.59,2.59,0,0,1,.18-1,5.57,5.57,0,0,0,.09-1.1,7.65,7.65,0,0,1,.16-2.18c.05-.27,0-.76.07-1.14l.16-1a10,10,0,0,1,.09-2,4.66,4.66,0,0,0,.15-1.06A3.82,3.82,0,0,0,53.89,81c0-.7.74-3,.74-4A2.28,2.28,0,0,1,54.76,76c.11-.36,0-.69.14-1A4.4,4.4,0,0,0,55,73.87c.09-.65.34-1.28.38-1.93a9,9,0,0,1,.14-1.06,9.88,9.88,0,0,0,.13-1.66l.16-1a4.72,4.72,0,0,1,.16-.45c.11-.36,0-.72.13-1.06l.14-.47A42,42,0,0,1,57.39,62a5.89,5.89,0,0,1,.36-.84l.83-2.76a2.88,2.88,0,0,1,.11-.49l.16-.43c.2-.58.52-1.08.67-1.66a15.12,15.12,0,0,1,.79-1.62l.34-.87c.74-1.78,1.05-2.36,1.88-4a8.08,8.08,0,0,1,.43-.77A13.2,13.2,0,0,1,63.77,47c.15-.23.31-.54.45-.76l1.61-3.17c.27-.56.5-1.06.81-1.57.18-.3.2-.57.36-.83l2.11-3.82c.77-1.28,1.28-2.68,2.07-3.93,1-1.57,1.26-2.38,2.06-3.84.16-.27.32-.47.5-.72l1.89-2.83c.17-.27.24-.52.42-.77s.32-.47.47-.71a9.4,9.4,0,0,1,1-1.42c.43-.4.68-.87,1.1-1.3l.61-.61c.52-.51.94-1.08,1.46-1.52a7.07,7.07,0,0,0,1.23-1.76,16.46,16.46,0,0,1,1.64-1.95c.36-.49.77-.74,1.13-1.21A13.85,13.85,0,0,1,85.75,13a6.84,6.84,0,0,0,1.08-1.9,25.94,25.94,0,0,1,2.56-4,13,13,0,0,1,2.18-2.61A8.89,8.89,0,0,1,92.81,3.4,7.81,7.81,0,0,1,93.59,3l2.32-1.28A8.28,8.28,0,0,1,100.53.34c.41,0,.72-.11,1.06-.13.76-.07,1.55,0,2.29-.11a16.9,16.9,0,0,1,3.41,0c1.82.21,3.66.23,5.46.54a4.21,4.21,0,0,0,.49.09,7,7,0,0,1,1.53.34,14.4,14.4,0,0,1,4.58,2.6c.25.21.41.32.68.52a9.33,9.33,0,0,1,1.77,1.89c.13.22.27.58.61.58a12.7,12.7,0,0,0,2.17-1.39c.45-.38,1-.61,1.44-1a9.91,9.91,0,0,1,1.87-1.73,7.83,7.83,0,0,1,1.52-.86,7.07,7.07,0,0,1,3-.69H135c.76,0,1.32.13,2,.13a12.4,12.4,0,0,1,4,.38L145.4,3.6a9.66,9.66,0,0,1,2.54,1.84,14.82,14.82,0,0,1,1.93,2.4c.16.23.27.41.43.63a13.48,13.48,0,0,1,1.37,2l1.66,2.71a7.73,7.73,0,0,1,.38.68,15.2,15.2,0,0,1,2.18,4.33c.07.32,0,.72.2.92a6,6,0,0,0,.72.36c.23.14.45.29.68.45.63.43,3.3,2.27,3.81,2.76a26.74,26.74,0,0,1,2.12,2.29,4.51,4.51,0,0,0,.44.61,11.7,11.7,0,0,1,1.64,2.67c.23.45.9.65,1.33.86l3.32,2.18c.7.51,1.84,1.61,1.84,2.67a2,2,0,0,1-.26,1c-.34.42-.59.15-1,.33-.07.07,0,2.25,0,2.47,0,.92-.21,1.6-.21,2.54a11.37,11.37,0,0,0,.21,1.46,6.37,6.37,0,0,0,0,.76,11.89,11.89,0,0,1-.2,3.78,3.33,3.33,0,0,1-.38,1.28,10.4,10.4,0,0,1-1.94,3.12,11.11,11.11,0,0,1-.78.88c-.92.92-1.33.87.36,2.26.36.3.83,1,1.17,1.35a8.49,8.49,0,0,1,.51.7,10.14,10.14,0,0,1,1.37,2.42c.11.32.16.63.27,1s.59.63.9,1a9.17,9.17,0,0,1,.88,1.06,14.47,14.47,0,0,1,1.5,3.48c0,1.93-.52,2.47-1.46,3.86a6.5,6.5,0,0,1-1.19,1.21L170.62,71c-1.68,2.22-1.32,1.91-.85,2.51a4.36,4.36,0,0,1-.25,5.42,13.15,13.15,0,0,1-1,1.32A7,7,0,0,0,167,82.38a5.89,5.89,0,0,0,.32,1,8.52,8.52,0,0,1,0,3.52l-.36,1a11.07,11.07,0,0,1-2.22,3.43"/><path class="cls-18" d="M149.11,77.46h-1.53c-.42,0-.85-.08-1.12-.08a20.84,20.84,0,0,0-2.38.13,18.91,18.91,0,0,1-4.45-.2L136.76,77a13.31,13.31,0,0,1-2.88-.31c-.4-.11-1-.14-1.39-.23-.85-.15-1.73-.47-2.56-.62-.56-.12-.74-.18-1.26-.32L126,75c-1-.07-2-.11-3-.2a26.36,26.36,0,0,0-3.32,0l-2.59-.29c-.29-.07-.49-.16-.76-.22a13.58,13.58,0,0,0-1.66-.25c-.47-.07-1.1-.2-1.64-.32a2.74,2.74,0,0,1-.7-.24c-.27-.09-.51-.14-.76-.23s-.41-.18-.67-.27-.43-.22-.68-.31c-.52-.18-.92-.27-1.48-.45l-2.13-.79a12.43,12.43,0,0,0-2.18-.74,23.8,23.8,0,0,1-3.06-.81c-1.55-.49-3.5-2.51-4.24-2.53-.32,0-.54.15-.54.47,0,.87,3.5,3.12,4.42,3.3l4.52,1.28c.38.16,1,.47,1.39.61a28,28,0,0,1,2.92.94,13.23,13.23,0,0,0,2.92,1c.52.07,1.1.27,1.55.36a6.26,6.26,0,0,1,1.64.29,24.82,24.82,0,0,0,3.39.52c2.16,0,4.13-.09,6.29.11a12.19,12.19,0,0,1,1.37.25,6.92,6.92,0,0,1,1.41.24l4,1a36.89,36.89,0,0,0,4.38.56c.58,0,.85.14,1.41.16a11.2,11.2,0,0,1,1.55.11c4,.58,7.08,0,11,.34a42.59,42.59,0,0,0,5,0c1.11,0,2.07-.24,3.19-.22a16,16,0,0,0,3.37-.25,5.47,5.47,0,0,0,.7-.18,6.49,6.49,0,0,0,1.77-.94l.92-.88a8.57,8.57,0,0,1,1.44-1.23,1.36,1.36,0,0,0,.56-.36c.16-.14.32-.25.5-.38.49-.43.54-.7.87.09s.65.4.45,2.15a4.22,4.22,0,0,1-.6,1.53l-.23.25c-.16.15-.11,0-.25.22l-.54.81c-.13.18-.26.22-.47.4s-.15.21-.36.52a9,9,0,0,1-1.5,1.95c-.16.12-.38.25-.56.36-.36.25-.63.52-1,.74s-.72.41-1.1.63a8,8,0,0,1-1.28.47c-2,.61-2.11.59-4.63.36l-3.77-.18c-.79,0-1.48.18-2.27.21-3.19.11-6.33.45-9.52.4l-1.93-.07c-.65,0-1.08-.13-1.73-.15-2.47-.16-5-.09-7.46-.14a7,7,0,0,1-1.59-.29,6.49,6.49,0,0,0-1.51-.43A12.81,12.81,0,0,0,125.6,84c-.59,0-1.19,0-1.76-.09a11.41,11.41,0,0,0-1.64-.29,8.31,8.31,0,0,1-1.64-.23,21.27,21.27,0,0,1-3.09-.69c-.45-.21-.93-.36-1.37-.57a9.59,9.59,0,0,1-1.28-.65c-.7-.4-2.45-1-3.19-1.52l-1.91-1a14,14,0,0,1-1.4-.54l-2.49-1.3c-.2-.11-.45-.18-.65-.29s-.45-.2-.67-.32c-.79-.42-3-2-3.55-2.15a3.51,3.51,0,0,1-1.39-.54,10.8,10.8,0,0,0-1.26-.67l-.92-.5a3.16,3.16,0,0,0-.27-.18,3.5,3.5,0,0,1-1.19-.74,17.5,17.5,0,0,0-2.23-1.64,3.65,3.65,0,0,1-1.32-1.46c-.47-1.12-.49-.67-.25-2.31a2.84,2.84,0,0,1,.65-1.28c.65-.9,3.57.29,4.65.38a1.78,1.78,0,0,1,.72.2l2.88.92c.27.07.56.11.8.18a14.3,14.3,0,0,1,1.44.45,12,12,0,0,0,1.39.54,27,27,0,0,0,3,.76,11.76,11.76,0,0,1,1.61.32c.5.11,1.17.11,1.71.2.31.07.4.14.74.2s.56,0,.85.09c.57.07,1,.25,1.6.34s.9.31,1.48.38l3.1.7c.47.13,2.72.42,3.23.63a3.24,3.24,0,0,0,.75.2l.85.13c1.1.14,2.22.36,3.39.43l3.35.49c1.07.21,2.31.14,3.37.43a19.07,19.07,0,0,0,4.44.18c.59,0,1.1.07,1.66.09s1,.18,1.6.18a40,40,0,0,1,4.78.34c.54.06,1,.06,1.53.09,1,0,2,.24,3,.24h1.59c1.1,0,3.12-.27,4.65-.27a15.35,15.35,0,0,0,1.8,0l4.15-.9,1.17-.47a10,10,0,0,0,2.45-1.82c.22-.2.2-.09.45-.4.47-.63,1.7-2.21,2.13-2.88a19.25,19.25,0,0,0,1.66-3.46,15.34,15.34,0,0,0,.52-2l.13-.65s0,0,0,0c.27.06.44.49.6.74a5.89,5.89,0,0,1,.47.85c.36,1,.61.9.81,1.86.25,1.26-.72,2.83-1.55,3.73-.13.14-.2.23-.31.36s-.16.14-.36.32l-.68.67c-.87.83-1.54,2.22-2.38,2.94-.27.23-.4.43-.67.68a9.82,9.82,0,0,1-.79.62l-.4.25-1.1.9c-.27.22-.4.45-.65.67s-.47.41-.7.63a2.67,2.67,0,0,1-.87.45,6.25,6.25,0,0,1-1,.32c-1.84.31-5.34.13-7.59.49C152.5,77.94,150.23,77.46,149.11,77.46Z"/><path class="cls-17" d="M154.57,17.93c-.3-.07,0-.07-.34-.25s-.25,0-.45-.16l-.79-.4c-.35-.2-.53-.2-.85-.36-.63-.31,0-.11-.87-.31-1.22-.27-1.11-.34-1.87-.52a22.6,22.6,0,0,0-6.2-1c-.81,0-1.52-.09-2.33-.09-.36,0-.7.09-1.06.11s-.81,0-1.19.07c-.63.09-1.35.27-2.06.31l-2,.43c-.23.07-.57.22-.88.31a1.35,1.35,0,0,0-.4.21,2,2,0,0,1-.5.11c-.63.11-2.45.9-2.92.42a23.9,23.9,0,0,0-5.05-3.43,11.64,11.64,0,0,0-.54-3.21,9,9,0,0,1-.56-1.28c-.23-.59-.59-.88-.63-1.31.2-.24,1.89-1.28,2-1.34.25-.25.07-.21.43-.36,1.37-.65,1.51-1.26,2.31-1.89a2.63,2.63,0,0,0,.45-.36,4.36,4.36,0,0,1,.43-.43,11.74,11.74,0,0,1,2.34-1c.56-.07.26-.09.65-.16a5.14,5.14,0,0,1,.78-.07l3.33,0c1.07.11,4.2.15,4.62.33.92.39,2.43,1.19,2.83,1.35s.23.09.52.34l1.14.51a8.49,8.49,0,0,1,2,1.33,6.34,6.34,0,0,1,1.53,1.8L150,9.84c.2.16,0-.11.18.2.43.81,1.13,1.78,1.6,2.61.22.4.45.63.63,1a6.62,6.62,0,0,0,.58,1.08,6.52,6.52,0,0,1,.67,1,6.68,6.68,0,0,1,.61,1.05,2,2,0,0,0,.27.61c.18.23.31.18.07.52ZM88.09,66c.63.23,1-.49,1.19-.87a6,6,0,0,1,3.77-2.61A19.29,19.29,0,0,1,96.76,62c.38,0,.69-.07,1-.07a10,10,0,0,0,1.06,0c.56-.14.54-.92,0-1.26a21.65,21.65,0,0,0-4,.14A8.14,8.14,0,0,0,94,61a9.11,9.11,0,0,0-3.93,1.41,6.39,6.39,0,0,1-.59.47c-.53.45-2.67,2.67-1.41,3.1Zm8.31-8.42c1-.14,1-.18,1-.63.07-.92-.92-.67-1.84-.63a16.84,16.84,0,0,0-1.89.25,5.92,5.92,0,0,0-1.64.49c-.49.25-1.08.45-.76,1.28.43.56,1,.16,1.53-.11a11.29,11.29,0,0,1,3.59-.65Zm56-4.11a6.47,6.47,0,0,1-1.89-.32c-.2,0-.38,0-.58-.08a40,40,0,0,1-4.2-1.44c-1-.56-1.69.31-.95.94a8.06,8.06,0,0,0,1.89,1c.83.4,1.48,1,1.73,1.07.56.27.16.05.85.54,1.55,1.1,1.6,1.67,2.74,2.9L153,59.14c.6.58.2.18.63.76.13.18.2.18.31.34.38.49.79,1.5,1.08,1.73s1.55.38.74-1.26a4.52,4.52,0,0,0-.25-.49,35.47,35.47,0,0,0-2.89-3.42l-.95-1.19c-.31-.4-1-.92-1-1a17.62,17.62,0,0,0,5.08-.09,2.88,2.88,0,0,0,.7-.31.61.61,0,0,0,.27-.74c-.16-.68-1-.32-1.4-.21a11.92,11.92,0,0,1-3,.23Zm9.86,37.77c.85.81.71.5,1.43-.24l.36-.36.34-.45a8.89,8.89,0,0,0,1.32-1.8,10.36,10.36,0,0,0,.83-2.22,6.82,6.82,0,0,0-.11-2.83c-.31,0-.33.09-.51.27s-.32.22-.5.38a6.38,6.38,0,0,1-1,.67c-.2.12-.27.18-.49.32a8.74,8.74,0,0,1-1.82.72c-1.75.4-.43.4-2.87.47-2,0-4.47-.36-6.38-.2-1,.06-2.07.2-3.12.22-2.16,0-4.18.32-6.38.32-1.08,0-2.23,0-3.3,0a11.2,11.2,0,0,1-1.55-.11,10.8,10.8,0,0,0-1.53-.11c-1.06,0-2.13-.11-3.26-.11s-3.68.18-4.83-.21l-1.23-.42c-1.44-.52-3.44-.34-4.43-.63l-4.35-.7a17.79,17.79,0,0,1-4.22-1.57c-.21-.09-.34-.22-.54-.31-.81-.39-1.46-.59-2.29-1a23.45,23.45,0,0,0-3.44-1.61,3.88,3.88,0,0,1-.54-.27,18.19,18.19,0,0,1-1.71-.81,5.28,5.28,0,0,0-1.12-.54,12.42,12.42,0,0,1-2.11-1.21c-.31-.21-.7-.43-1-.63a11.85,11.85,0,0,0-2.32-1.08l-1.1-.56c-.24-.11-.24-.2-.49-.29a14.16,14.16,0,0,1-2.65-1.55c-.79-.81-2.74-1.78-3.48-2.79-.07-.09-.09-.16-.18-.27a3.55,3.55,0,0,1-.79-2.54c.05-.27.16-1.28.23-1.5a3.7,3.7,0,0,1,1.41-1.91,2.29,2.29,0,0,1,1.37-.27,11.93,11.93,0,0,1,2.92.45c.43.09.83.27,1.33.34s4.4,1.3,5.14,1.5c1,.27,1.37.56,2.51.88.88.22,1.76.47,2.65.67l2.88.45c.49.05.85.23,1.39.29a13.7,13.7,0,0,1,1.39.27c.45.09,1,.16,1.4.27,1.75.52,5,1.12,6.87,1.51.43.09.87.2,1.37.29s1,.09,1.48.18.94.13,1.46.2,1.19,0,1.6.13c1.84.48,4,.5,5.86.86s4.38,0,6.44.27l3,.31a25.17,25.17,0,0,1,3.21.16,29.43,29.43,0,0,0,6.31.29l3.15-.18c.54,0,1.1,0,1.64,0a7.34,7.34,0,0,0,.81,0l2.06-.42c1.22-.43,1.55.06,3.75-1.33a8.63,8.63,0,0,0,1.35-1.1A8,8,0,0,0,167,68.28c.45-.63,1-1.28,1.4-1.93.13-.23.11-.36.24-.54s.14-.16.3-.56l1-2.38a6.69,6.69,0,0,0-.5-5.51c-.16-.24-.11-.31-.25-.53s-.44-.36-.74-.93c-.2-.35-1.23-1.3-1.61-1.79-.14-.18-.21-.32-.52-.32a5.18,5.18,0,0,1-.74,1.06c-.14.16-.14.18-.27.34a5.3,5.3,0,0,1-1.35,1.05,11.11,11.11,0,0,1-4.29.43.64.64,0,0,1,0-1.28,9.26,9.26,0,0,1,1.17,0c1,0,2.65-.13,3.32-.9a7.12,7.12,0,0,1,.54-.65c.16-.13.23-.11.23-.38a9.06,9.06,0,0,0-1.31.13c-.54,0-.87-.06-1.39-.06a13,13,0,0,1-1.41,0c-.32,0-.36,0-.57-.2-.36-.45-.11-1.1.9-1,2.47.11,3.87.31,5.75-1.49a8.29,8.29,0,0,0,.7-.76l.47-.67a4.79,4.79,0,0,0,.76-1.08,6.38,6.38,0,0,0,.83-2.18c0-.31.27-1,.12-1.26,0,0-.07-.24-.32.12a2.55,2.55,0,0,1-.27.4,7.69,7.69,0,0,0-.6.65A11,11,0,0,1,167,47.57a9.26,9.26,0,0,1-2.86,1.62,12.51,12.51,0,0,1-2.11.43c-.76.09-1.5.22-2.2.33-.51.07-4.4,0-5,0-.79-.07-1.46-.18-2.32-.18a23.29,23.29,0,0,1-6.91-.74c-.81-.29-2.18-.29-2.65-1.17a1.77,1.77,0,0,1-.32-1c.11-2.22.76-2.53,1.44-3.72.22-.39.54-.68.78-1.08.16-.25.12-.14.32-.36l.27-.34A14.58,14.58,0,0,0,147.58,39a7.35,7.35,0,0,1,1.15-1.44c.22-.23.4-.47.6-.65a40.33,40.33,0,0,1,3.78-2.54,3.81,3.81,0,0,1,1.95-.65l2.25-.27a28.85,28.85,0,0,1,4.83.09l2.26.31a11.46,11.46,0,0,1,1.87.68,2.09,2.09,0,0,1,.72.54c.13.15.18.18.29.31a24.43,24.43,0,0,1,1.55,2.25c.18.38.07.13.29.38s.2.67.63.69a12,12,0,0,0,0-3.16c-.36-1.37.13-1.37-1.24-2.14a8,8,0,0,0-4.4-1.21,5,5,0,0,1-.94-.16,42.16,42.16,0,0,0-8.61-.06,12.8,12.8,0,0,0-4.82,1.95l-1.31.94c-.13.12-.18.09-.31.23a7.69,7.69,0,0,0-.9.83c-.25.34-.79,1-1.21,1.05-.72.07-.9-.67-.45-1.16s.72-.79,1.1-1.17.79-.63,1.21-1a11,11,0,0,1,1.35-.92,14.72,14.72,0,0,1,2.18-1.15c2.45-.9,2-.63,4.65-1a31.28,31.28,0,0,1,4.33,0c.36,0,.54.11,1,.11l2.2.14a3.68,3.68,0,0,0,.94.13,10.1,10.1,0,0,1,3.75.81,6.17,6.17,0,0,1,2,1.35c.22.27.24.47.65.45,0-.76-2.25-2-2.7-2.31a9,9,0,0,0-3.32-1.8c-.45-.11-3.91-.45-4.67-.45-1.64,0-6.4.25-7.68.83a4.35,4.35,0,0,1-.63.25c-.5.18-1.42.92-1.93.65a.68.68,0,0,1-.21-.81c.18-.45.3-.31.61-.54a10.1,10.1,0,0,1,1.91-.87,22.05,22.05,0,0,1,3.48-.54,34,34,0,0,1,6.31-.18c.43,0,1.68.24,2,.22.18-.38-.13-.63-.31-.92-.32-.54-.74-.94-1.1-1.44a8.72,8.72,0,0,0-.83-1,14.78,14.78,0,0,0-1.51-1.44l-.43-.29a1.48,1.48,0,0,0-.42-.31c-.38-.21-.52-.43-.83-.63l-2.16-1.51c-.45-.27-1-.45-1.44-.76A15.93,15.93,0,0,0,151.69,18c-.24-.09-.22-.16-.49-.25s-.79-.13-1.19-.27a27,27,0,0,0-8.87-1.34,16.64,16.64,0,0,0-2.65.27,22,22,0,0,0-3.71.67,16.11,16.11,0,0,1-2.22.72,5.51,5.51,0,0,1-1.17.29c0,.2.25.4.38.54a19.07,19.07,0,0,1,2.36,2.76c.09.16.11.11.2.25a2.21,2.21,0,0,1,.18.34l1.17,1.88c.16.29.54.83.76,1.3a7.94,7.94,0,0,0,.79,1.28c.38.63.65,1.46,1,2.09a4.31,4.31,0,0,1,.25,1.71c-.07.61-.56,1,0,1.48.36.34.63.74,1,1.1A11.51,11.51,0,0,1,141.25,35a14.39,14.39,0,0,1,.63,2.49c.07.54.11,1.39.13,1.93a8.34,8.34,0,0,1-.06,2,.64.64,0,0,1-1.2-.25c-.24-.67,0-2.85-.26-3.89h0c-.57-2.4-.93-2.15-2.34-3.77l-.94-1.1a13.33,13.33,0,0,1-1.31-1.14,8.82,8.82,0,0,0-3.19-2.54,13.09,13.09,0,0,0-3.75-.34,18.72,18.72,0,0,1-2,.07c-.45,0-1.58-.29-1.8.11.11.25,1.12.54,1.41.65.52.18,1,.41,1.53.61a6.78,6.78,0,0,1,2,1.12c.29.25.34.2.61.45a25.61,25.61,0,0,1,2.08,2.09,3.09,3.09,0,0,0,.52.56c.23.18.36.34.56.49.38.3.83.61,1.19.93.79.69,1.35,1.34,2.11,2.06l1,1a7.74,7.74,0,0,1,1.53,1.6,4.78,4.78,0,0,1,.45.63l.36.69a6.17,6.17,0,0,1,.74,2.43c.07.56.32,1.5-.16,1.82a.83.83,0,0,1-.69,0c-.2-.14-.11,0-.2-.36a1.9,1.9,0,0,1-.07-.54,14.91,14.91,0,0,0-.36-1.89,2.65,2.65,0,0,0-.36-.76,12.74,12.74,0,0,0-.83-1.44A18.82,18.82,0,0,0,136.87,39l-.58-.56a20.16,20.16,0,0,0-2.32-2.2,22.15,22.15,0,0,1-3.52-3.32,10.35,10.35,0,0,0-4.32-2.54l-1.61-.63c-1-.34-3.42-1.37-4.36-1.3-1.86.13-3.77-.14-5.61.07-.63.06-1.37.22-2.07.22h-2.27c-1,0-3.5-.34-4.36-.09l-.85.27c-.34.09-.7.11-1,.2a17.31,17.31,0,0,0-3.25,1.26,5.85,5.85,0,0,0-1.19,1.06,15.58,15.58,0,0,0-1.17,1.14,22.68,22.68,0,0,0-1.66,1.73,11.81,11.81,0,0,0-1.58,1.89,2.59,2.59,0,0,0,0,1.88c1.51.12,1.82-.69,2.54-1.64a10.68,10.68,0,0,1,2-2.29,11.51,11.51,0,0,1,1.88-1.32l2.32-.9c.54-.14,1.19-.32,1.7-.49a7.89,7.89,0,0,1,1.73-.41c.59-.11,1.13-.22,1.8-.31s1.39-.09,2-.21,1.33-.22,1.85-.27l2-.13c.67,0,1.33-.07,2.07-.07l1.86.18a7.05,7.05,0,0,1,1.86.36c.27.09.59.14.86.2a4.84,4.84,0,0,1,.72.36A11,11,0,0,1,124,32a2.13,2.13,0,0,0,.32.22c.74.41,2.49,1.73,2.87,1.91.14.09.23.09.36.18a13.14,13.14,0,0,0,2.18,1c.31.14.43.25.7.36a12.1,12.1,0,0,1,2.83,1.48c.24.21.36.3.58.48a7.37,7.37,0,0,1,.58.47c.36.4.75.67,1.06,1.08l.81,1.37c.22.51.38,1,.63,1.52l.45,1.15c.42.85.62,1.84,1.1,2.63.2.33.06.65.2.92s.74.36.92.49a3.11,3.11,0,0,1,.72.67c.13.18.18.16.25.43a3.61,3.61,0,0,1,.06,1.87c-.33.92-1.55,1.59-2.15,2-1.15.87-2.07.92-3,1.82l-1,1.1c-.47.56-.9.87-1.39,1.41-.25.25-.41.52-.63.77a10.84,10.84,0,0,1-1.77,1.68c-.18.14-.3.18-.43.29a9.09,9.09,0,0,1-2.47,1.73l-2,.83c-.38.12-.6.12-1.12.3s-.65.27-1,.38a10.26,10.26,0,0,0-1.1.31c-1.39.59-2.56,1.12-4,1.6a9.19,9.19,0,0,1-2.6.2c-.36-.59-.3-.63,0-1.24.47,0,1.16,0,1.61-.06a5.12,5.12,0,0,0,1.55-.5l.29-.11,1.17-.47c.32-.11.34-.16.61-.27s.4-.11.6-.2.18-.18.59-.27a6.36,6.36,0,0,0,1.3-.38,7.43,7.43,0,0,1,1.26-.41,12.73,12.73,0,0,0,1.28-.45c.7-.22,1.14-.58,1.66-.78a4.9,4.9,0,0,0,1-.7c.31-.23.58-.56.9-.76A6.55,6.55,0,0,0,131.1,57a9.18,9.18,0,0,1,.74-.92l.81-.85c.24-.25.74-.65.78-.9-.09,0-1.75-.09-2.2-.18a12.88,12.88,0,0,0-2.49-.09c-.85,0-1.68-.07-2.45-.07a6.89,6.89,0,0,1-1.19-.09,9.71,9.71,0,0,1-1.1-.22,18.46,18.46,0,0,0-2.36-.18c-1,0-3.77-.27-4.76-.43l-2.27-.33a4.94,4.94,0,0,1-1.14-.14c-.32-.09-.68-.2-1-.27-.68-.16-1.22-.52-1.91-.67a6.62,6.62,0,0,1-2.09-1.1,4.76,4.76,0,0,1-1.1-.9c-.9-.92-1.73-1.64-2.67-2.45a9.46,9.46,0,0,0-1.4-1.19,2,2,0,0,1-.74-.54.64.64,0,0,1,.29-.87c.68-.36,1.64.76,2,1s2.62,2.29,2.94,2.65c.18.2.2.22.38.4a3,3,0,0,0,.9.7,16.09,16.09,0,0,0,3.23,1.48c1.33.63,2.67.47,4.07.72a37,37,0,0,0,5.72.58c.52,0,1,.09,1.46.12,1.13,0,1.76.36,2.88.38s2,.07,3.08,0a20.1,20.1,0,0,1,2.94.25,9.64,9.64,0,0,0,1.52,0,6,6,0,0,0,1.24-.39c.38-.15.74-.31,1.1-.49a10.77,10.77,0,0,0,2.88-1.93c.2-.2.2-.11.24-.52a1.26,1.26,0,0,0-1-1.39c-.23.13-.18.22-.5.4-.67.41-1.46.14-2.13.45l-3.12,1.19a8.74,8.74,0,0,1-2.23.36,14.39,14.39,0,0,1-3.28,0l-2.35-.22c-.3,0-.34-.09-.72-.14-1-.09-2-.36-2.94-.54a6.86,6.86,0,0,1-1.42-.31,7.15,7.15,0,0,1-.7-.18l-.58-.27a32,32,0,0,0-4-1.17,8,8,0,0,1-1.3-.45,3.61,3.61,0,0,1-.59-.29l-3-1.28-.88-.85c-.31-.29-.62-.5-.94-.79a6.61,6.61,0,0,0-.9-.83c-1.46-1-3.1-1.32-4.89-2a21.68,21.68,0,0,1-2.34-1.12c-.36-.18-.9-.34-1.23-.5a5.13,5.13,0,0,1-1.1-.67c-.9.27-2.34.76-3-.16s-.65-1.82-.27-3a3.77,3.77,0,0,1,1.32-1.69,3.07,3.07,0,0,0,.43-.56l2-2a23.22,23.22,0,0,1,2.07-1.93,6.59,6.59,0,0,1,2.74-1.26,10.87,10.87,0,0,1,2.31-.68,4,4,0,0,0,.74-.24,22.19,22.19,0,0,1,3.91,0,22.35,22.35,0,0,0,3.84-.05c1.24,0,2.61-.22,3.8-.2a20.3,20.3,0,0,0,2.92,0c.27,0,.58-.11.81-.13a30.59,30.59,0,0,1,3.79.16,32.29,32.29,0,0,0,3.93-.07c1-.05.45-.25,1.75,0,.48.09,1.33.09,1.85.13a5,5,0,0,1,2.8,1.19l1.06.95c.22.24.69.89,1,.92.38-.65-.31-1.89-.6-2.5l-.59-1.07a4.31,4.31,0,0,1-.65-1.08c-.18-.65-.49-.7-.9-1.69l-1-1.41a12,12,0,0,0-1.44-2c-.29-.3-.59-.59-.88-.86a31.46,31.46,0,0,0-2.56-2.49l-2-1.42a17.09,17.09,0,0,0-2.18-1.21,2.3,2.3,0,0,0-1.37-.36c-.49,0-1.12,0-1.59-.09s-.27-.18-.61-.22c-2.43-.29-4.83-.32-7.25-.5a27.27,27.27,0,0,0-3.26.16c-.54,0-1,.16-1.53.2a17.4,17.4,0,0,0-3.48.74l-1.3.43a6.37,6.37,0,0,0-1.69.9c-.31.22-.67.47-1,.7a4.83,4.83,0,0,1-1,.78c-.51.29-1.19,1.08-1.81,1.57-.32.25-.66.47-1,.68s-1.1.29-1.19-.25c-.14-.74,1-1.1,1.77-1.71.56-.45.85-1,1.3-1.23a6,6,0,0,0,.52-.36,20.67,20.67,0,0,1,1.91-1.48,5.38,5.38,0,0,1,1-.61,26.11,26.11,0,0,1,6.94-1.64l3.24-.18a75.57,75.57,0,0,1,7.93.61,12,12,0,0,0,2.33.27c.65,0,.18-.83,0-1.82a9.21,9.21,0,0,0-1-2.36A15.65,15.65,0,0,0,121,6.61l-.74-.92a22.9,22.9,0,0,0-2.85-2.27,12.3,12.3,0,0,0-5-1.84c-1-.16-2.11-.14-3.1-.32a28.73,28.73,0,0,0-6.49-.11,22,22,0,0,0-4.51.58,2.39,2.39,0,0,0-1.19.54c-.68.43-1.37.66-2.18,1.22-1.24.83-1.26.29-3,2.13a6.06,6.06,0,0,0-.83.9,8.71,8.71,0,0,1-.65,1,20.3,20.3,0,0,0-2.11,3.08c-.16.42-.36.69-.56,1.1s-.43.74-.61,1.12a10.85,10.85,0,0,1-2.27,2.85l-1.59,1.8a5.53,5.53,0,0,0-.72,1,5.78,5.78,0,0,1-.7,1c-.83.68-.09-.15-.83.88a9,9,0,0,1-.83.9l-.43.43a2.86,2.86,0,0,0-.45.4c-.31.4-.13.4-.69,1a3.11,3.11,0,0,0-.72,1,5.38,5.38,0,0,1-.68,1,7.84,7.84,0,0,1-.62,1.1,6.41,6.41,0,0,0-.68,1c-.29.61-1,1.48-1.39,2.09l-.9,1.64c-.13.34-.18.29-.34.54-.22.4-.33.78-.56,1.17-.11.18-.2.31-.29.49a4.65,4.65,0,0,1-.34.52A16.14,16.14,0,0,0,71,35.83,24.71,24.71,0,0,1,69.76,38a10.89,10.89,0,0,0-.67,1.05c-.13.27,0,.29-.22.56L68,41.35c-.31.86-.87,1.44-1.12,2.34a3.91,3.91,0,0,1-.61,1.08,6.36,6.36,0,0,0-.56,1.14,11.8,11.8,0,0,1-.94,1.66A17.71,17.71,0,0,1,64,49.26l-1.13,2.27a5,5,0,0,0-.54,1.19c-.11.62-.33.6-.51,1.14a16.4,16.4,0,0,1-.81,1.8L60.2,57.5c-.05.16-.18.45-.23.56a2.84,2.84,0,0,1-.16.72,4.64,4.64,0,0,0-.4,1.32A6.11,6.11,0,0,1,58.74,62a14,14,0,0,0-.57,2c-.08.41-.33.81-.4,1.33s-.11.33-.2.65a5.73,5.73,0,0,0-.11.74c-.05.25-.05.52-.09.79a6.28,6.28,0,0,1-.21.65c-.06.27,0,.42-.06.74a9.72,9.72,0,0,0-.18,1.55,7,7,0,0,1-.18.69c-.11.48,0,1.08-.14,1.55a10,10,0,0,0-.36,2.16c-.11.38-.18,0-.18.67s-.18.9-.2,1.53c0,1.33-.09.72-.22,1.53l-.45,2.06c-.07.52-.07,1.1-.18,1.55-.07.3,0,.52-.07.81-.27,1,0,2.18-.27,3.19-.11.52,0,1.06-.16,1.51-.33,1.12,0,2.4-.2,3.25-.09.34-.18.14-.18.68a2.17,2.17,0,0,1-.09.78,9.34,9.34,0,0,0-.11,1.55c0,.29-.13.41-.18.7a7.59,7.59,0,0,1-.07.81c-.33,1.34-.11.33-.18,1.34,0,.86-.54,2-.09,3l.3,2.31c0,.49.09.34.18.7a3.92,3.92,0,0,1,.06.78,11,11,0,0,0,.56,2c.12.27.3,1.26.36,1.37s.16.16.27.51a1.93,1.93,0,0,0,.25.61,9.47,9.47,0,0,1,.67,1.87l.9,1.7a8.64,8.64,0,0,0,.77,1,10.18,10.18,0,0,1,.71,1c.3.38.52.54.79.87s.52.52.85.88A6.46,6.46,0,0,0,62,116.7L64.13,118a7,7,0,0,0,1.1.63,13.26,13.26,0,0,1,2.33,1.08l.63.22c.65.2,1,.72,2.29,1.17.23.09.45.09.68.18.8.36,1.57.61,2.47.92.45.16.89.18,1.37.36.33.13.89.11,1.41.31a12.71,12.71,0,0,0,2.58.83c.27,0,.54,0,.81,0s.36.14.68.18.42,0,.74.14.24.09.72.11a2.58,2.58,0,0,1,.65.16,7.57,7.57,0,0,0,.81,0c.33,0,.31.16.67.21s.58,0,.85,0,.36.13.7.18a5.75,5.75,0,0,0,.83,0,12.74,12.74,0,0,1,1.48.24,18,18,0,0,1,2.43.14c1,.22,3-.27,4,.22.11.05,7.61.25,8.36,0a13.61,13.61,0,0,1,3.07-.31c.63,0,.74-.27,1.46-.27a8.69,8.69,0,0,0,2.4-.11c.66-.21,10.07-.07,11.12-.09.54,0,.45-.21,1.39-.23,1.53,0,5.48.18,6.65-.25.38-.13,1-.22,1.39-.33a5.11,5.11,0,0,0,1.22-.43,9.22,9.22,0,0,1,1.28-.47c.85-.34.51-.34,1.21-.45.34,0,.36-.14.58-.27s.41-.09.66-.22c1.21-.59.74-.16,1.79-1.64l.68-1m.8-7a12.68,12.68,0,0,0-1.37-2.09c-.27-.34-.33-.68-.6-1.08a12.81,12.81,0,0,0-2.43-2.7,7.33,7.33,0,0,1-.81-.85c-.2-.29-.42-.76-.63-1.1a3.76,3.76,0,0,1-.65-2.69,3,3,0,0,1,1.15-2.27,5.09,5.09,0,0,1,5-1.4,3.55,3.55,0,0,1,1.17.57c.54.51.54.42.79.94.49,0,.33-.16.58-.5a8.4,8.4,0,0,1,2.13-1.34,8.44,8.44,0,0,0,1.35-1c.2-.18.41-.31.63-.49L146,95.18c.56-.65,1.17-1,1.78-1.68a15.89,15.89,0,0,1,1.25-1.06,18.69,18.69,0,0,1,2.07-1.39c.29-.2.38-.33.61-.51a7.2,7.2,0,0,1,1.61-.72M129.21,36.66c-.27.22-.4,0-.78.07s-.61.11-1,.11l-4.06.24L113,36.9c-1.21,0-2.33.25-3.45.27a29,29,0,0,0-3.46.34,28.38,28.38,0,0,0-4.85.81,5,5,0,0,0-.66.27,1.18,1.18,0,0,1-.71.29l-1.33-.56c-.47-.27-.25-.4.29-1.08a10.79,10.79,0,0,1,1-1.3l.72-.74a11.12,11.12,0,0,1,1.64-1.15,37.07,37.07,0,0,1,3.53-1.25,26,26,0,0,1,4.71-.88,7.66,7.66,0,0,0,.88-.07l3.37-.38a22.59,22.59,0,0,1,4.47.16,13.1,13.1,0,0,1,4.13,1.52L126.09,35a4.05,4.05,0,0,0,.61.41l.6.33c.18.09.45.18.65.29a4.08,4.08,0,0,1,1.26.59Zm22.19.49c0-.25.13-.18.36-.31a4.62,4.62,0,0,0,.47-.34c.2-.13.34-.2.5-.31A5,5,0,0,1,155.47,35a25.12,25.12,0,0,1,5.81-.16,15.28,15.28,0,0,1,3.93.72c1.13.54.83.54,1.24,1.1a3.82,3.82,0,0,1,.31.47l1.64,2.36c.14.18.2.2.38.43.52.65.56.38.72.81s.29,1.3-.4.67a18.42,18.42,0,0,0-2.16-1c-.72-.38-1.41-.6-2.13-1-.36-.2-.83-.56-1.44-.9a7.38,7.38,0,0,0-3.08-.85c-.47,0-.87-.13-1.39-.13s-1-.05-1.48-.09C156.68,37.4,151.53,37.24,151.4,37.15Z"/><path class="cls-19" d="M124.61,48.92c.06-.36,0-.09.15-.31a9.07,9.07,0,0,0,1.76-4.77c.29-5.09-1.24-4.71-1.51-5.54,1.51,0,2.83-.23,4.38-.23.36,0,.63-.06,1.06-.06s.74.06,1.12.09c.9,0,.7-.05,1.59.69a7.8,7.8,0,0,1,2.05,2.54l2,5c.63,1.55-.58,1.22-.85,1.24a9.43,9.43,0,0,0-1.77.56c-.5.16-1.08.47-1.64.67a17.56,17.56,0,0,1-6.31.47Z"/><path class="cls-19" d="M160.54,48.43a4.89,4.89,0,0,1,.63-.92c.2-.34.34-.72.52-1.08a6.82,6.82,0,0,0-.12-5.35l-1.07-1.73c-.16-.18-.09,0-.18-.24.4-.27,2.11.49,2.47.67s.69.43,1,.63a35.91,35.91,0,0,0,3.3,1.62c.83.31,2.16.51,1.78,1.48-.12.29-.59.58-.79.81a12.46,12.46,0,0,1-2.47,2.51,8.55,8.55,0,0,1-2.2,1.1A13.15,13.15,0,0,1,160.54,48.43Z"/><path class="cls-19" d="M111,38.45c-.08.39-.2.16-.78.93a8,8,0,0,0-1.57,2.76c-.07.22-.05.51-.18.69h-.12c-.29-.09-.42-.62-1.34-1L105.2,41c-.65-.27-1.21-.36-1.88-.65L102,39.85c-.29-.09-.32,0-.38-.25a24.68,24.68,0,0,1,4.51-.74l4.61-.45h.06C111,38.41,110.86,38.36,111,38.45Z"/><path class="cls-19" d="M121.82,41c.52.22.88.09,1.39.76a2.3,2.3,0,0,1-1,2.94,3.53,3.53,0,0,1-1.91.27c-1.28,0-2.41-2.56-.14-3.61C120.52,41.22,121.37,40.84,121.82,41Z"/><path class="cls-19" d="M147,48a5.09,5.09,0,0,1-1.43-.36c-2-.49-1.73-.31-1.55-1.84a12.35,12.35,0,0,1,2.15-3.37A19,19,0,0,1,148,40.66c.05.18-.18.44-.29.67a5.58,5.58,0,0,0-.27.88,5.26,5.26,0,0,0-.54,1.75,11.38,11.38,0,0,0-.25,2C146.75,46.72,147.07,47.57,147,48Z"/><path class="cls-19" d="M157.55,42c.5.18,1.19-.14,1.8.67a1.24,1.24,0,0,1,.16.72c0,.58.07,1.08-.27,1.44a1.29,1.29,0,0,1-1.15.58c-.58,0-1.32.09-1.68-.79C155.78,43.17,156.81,41.76,157.55,42Z"/><path class="cls-19" d="M114.25,39.35c.52.21,1,.54.81,1.26a1.3,1.3,0,0,1-1.41.74,1,1,0,0,1-.7-1.21,1.05,1.05,0,0,1,.45-.61A.86.86,0,0,1,114.25,39.35Z"/><path class="cls-19" d="M115.06,43.08c1.08.45.25,2.47-1,1.78S114.1,42.7,115.06,43.08Z"/><path class="cls-19" d="M151.6,40.45a1,1,0,0,1-.36,2,.92.92,0,0,1-.63-1.21C150.73,40.81,151.13,40.32,151.6,40.45Z"/><path class="cls-19" d="M152.21,44.86a.89.89,0,0,1,.2,1.21.86.86,0,0,1-1.48-.88.51.51,0,0,1,.43-.38A1.83,1.83,0,0,1,152.21,44.86Z"/><path class="cls-20" d="M91.28,58.35c-.32-.81.29-1,.76-1.28a5.72,5.72,0,0,1,1.64-.49c.63-.07,1.24-.2,1.89-.25.92,0,1.91-.29,1.84.63,0,.45,0,.49-1,.63a11.29,11.29,0,0,0-3.59.65c-.52.25-1.08.67-1.53.11Zm28,17.86a21.88,21.88,0,0,1-3.39-.52,5.53,5.53,0,0,0-1.64-.29c-.45-.09-1-.29-1.55-.36a13.23,13.23,0,0,1-2.92-1,29.61,29.61,0,0,0-2.92-.94c-.41-.14-1-.45-1.39-.61L101,71.2c-.92-.18-4.45-2.43-4.42-3.3,0-.32.2-.47.54-.47.74,0,2.69,2,4.24,2.53a23.66,23.66,0,0,0,3,.81,12.16,12.16,0,0,1,2.18.74l2.14.79c.56.18,1,.25,1.48.45.25.09.38.22.67.31s.43.21.68.27.51.14.76.23a7,7,0,0,0,.7.24c.54.12,1.14.23,1.64.32s1.19.13,1.66.25c.29.06.47.15.76.22l2.58.29c1.15,0,2.2-.15,3.33,0,.94.11,2,.13,3,.2l2.72.47a11.59,11.59,0,0,0,1.26.32c.83.15,1.7.47,2.56.62.42.07,1,.12,1.39.23a14.59,14.59,0,0,0,2.87.31l2.88.32a19,19,0,0,0,4.45.2,21.09,21.09,0,0,1,2.38-.13c.27,0,.69.08,1.12.08h1.53c1.14,0,3.39.48,5.16.21,2.27-.36,5.75-.18,7.59-.5a5.86,5.86,0,0,0,1-.31,3.76,3.76,0,0,0,.87-.45c.23-.23.47-.4.7-.63s.4-.45.65-.67l1.1-.9a4.66,4.66,0,0,0,.4-.25,5.9,5.9,0,0,0,.79-.63c.25-.24.4-.42.67-.67.84-.72,1.51-2.11,2.38-2.94l.68-.68c.2-.18.13,0,.36-.31a3.47,3.47,0,0,1,.31-.36c.83-.9,1.8-2.47,1.55-3.73-.18-.94-.45-.85-.81-1.86a4,4,0,0,0-.47-.86c-.16-.24-.33-.67-.6-.74,0,0,0,0,0,0l-.13.65a15.76,15.76,0,0,1-.52,2,24.34,24.34,0,0,1-1.66,3.46c-.4.65-1.64,2.22-2.13,2.87-.25.32-.23.21-.45.41a10.14,10.14,0,0,1-2.45,1.82l-1.17.47-4.15.9a17.89,17.89,0,0,1-1.8,0c-1.53,0-3.55.27-4.65.27h-1.59c-1,0-2-.2-3-.25-.56,0-1,0-1.53-.09-1.64-.18-3.16-.29-4.78-.33-.59,0-1-.14-1.6-.18s-1.07-.09-1.66-.09a19,19,0,0,1-4.44-.18c-1.06-.29-2.3-.2-3.37-.43L127,72.1c-1.15-.07-2.27-.29-3.39-.43l-.85-.13a2.79,2.79,0,0,1-.75-.21c-.51-.18-2.76-.47-3.23-.63l-3.1-.69c-.58-.07-.94-.29-1.48-.38s-1-.27-1.6-.34c-.29,0-.56,0-.85-.09s-.4-.13-.74-.2c-.54-.09-1.21-.09-1.71-.2a11.76,11.76,0,0,0-1.61-.32,29.34,29.34,0,0,1-3-.76,12,12,0,0,1-1.39-.54c-.36-.16-1-.32-1.44-.45a4.92,4.92,0,0,0-.8-.18l-2.88-.92a1.88,1.88,0,0,0-.72-.2c-1.05-.12-4-1.31-4.65-.38a2.65,2.65,0,0,0-.65,1.28c-.24,1.64-.22,1.16.25,2.31A3.87,3.87,0,0,0,93.7,70.1a14.05,14.05,0,0,1,2.23,1.64,4.32,4.32,0,0,0,1.19.74,3.16,3.16,0,0,1,.27.18l.92.49a10.86,10.86,0,0,1,1.26.68,3.67,3.67,0,0,0,1.39.54c.6.18,2.76,1.73,3.55,2.15.22.11.42.18.67.32s.45.18.65.29l2.49,1.3c.39.2,1,.38,1.4.54l1.91.94c.71.5,2.49,1.15,3.19,1.53a11.82,11.82,0,0,0,1.28.65c.44.2.92.36,1.37.56a18,18,0,0,0,3.09.7,12.92,12.92,0,0,0,1.64.22c.72.05,1,.21,1.64.3s1.17,0,1.76.09a12.81,12.81,0,0,1,1.61.31,6.81,6.81,0,0,1,1.51.43,5.47,5.47,0,0,0,1.59.29c2.47,0,5,0,7.46.13a14.08,14.08,0,0,0,1.73.16l1.93.07c3.17,0,6.33-.27,9.52-.41.79,0,1.46-.2,2.27-.2l3.77.18c2.52.23,2.59.27,4.63-.36a5.91,5.91,0,0,0,1.28-.47c.38-.22.74-.4,1.1-.63s.61-.52,1-.74l.56-.36a9.28,9.28,0,0,0,1.5-2c.21-.32.07-.25.36-.52s.32-.2.47-.4l.54-.81c.14-.18.09-.07.25-.23l.23-.24a4.22,4.22,0,0,0,.6-1.53c.2-1.75-.16-1.46-.45-2.16s-.38-.51-.87-.09c-.16.14-.32.25-.5.38a1.64,1.64,0,0,1-.56.36,7.79,7.79,0,0,0-1.44,1.24l-.92.88a7.13,7.13,0,0,1-1.77.94,6.49,6.49,0,0,1-.7.18,15.28,15.28,0,0,1-3.37.25c-1.14,0-2.08.2-3.19.22a42.49,42.49,0,0,1-5,0c-3.88-.38-6.94.25-11-.33-.49-.07-1-.07-1.55-.11s-.83-.14-1.41-.16a33.14,33.14,0,0,1-4.38-.56l-4-1a8.62,8.62,0,0,0-1.41-.25c-.47-.06-.77-.2-1.37-.24-2.18-.18-4.16-.09-6.31-.09Zm32.9-31.35a1.77,1.77,0,0,0-.83,0,.51.51,0,0,0-.43.38.86.86,0,0,0,1.48.88c.18-.36.16-1-.22-1.21Zm-37.15-1.78c-.94-.38-2.2,1-1,1.78s2-1.33,1-1.78Zm42.49-1c-.74-.27-1.77,1.14-1.14,2.6.38.88,1.1.79,1.68.79a1.24,1.24,0,0,0,1.15-.59c.34-.36.27-.83.27-1.43,0-.34,0-.54-.16-.72-.61-.79-1.3-.45-1.8-.65Zm-35.73-1c-.42-.18-1.3.18-1.64.33-2.29,1.06-1.16,3.62.14,3.62a3.53,3.53,0,0,0,1.91-.27,2.31,2.31,0,0,0,1-2.94c-.51-.68-.87-.54-1.39-.74Zm29.78-.59c-.47-.13-.87.39-1,.77a.93.93,0,0,0,.63,1.21,1,1,0,0,0,.36-2Zm-6,7.21A5.88,5.88,0,0,0,147,48c0-.45-.31-1.3-.33-2a10.66,10.66,0,0,1,.24-2,4.39,4.39,0,0,1,.54-1.75,4.23,4.23,0,0,1,.27-.88c.11-.22.34-.49.29-.67a20.28,20.28,0,0,0-1.82,1.79,12.35,12.35,0,0,0-2.15,3.37c-.2,1.51-.5,1.33,1.53,1.82Zm-31.36-8.31a.81.81,0,0,0-.85.16,1.05,1.05,0,0,0-.45.61,1,1,0,0,0,.7,1.21,1.28,1.28,0,0,0,1.41-.74c.16-.7-.29-1-.81-1.24Zm46.29,9.08a19,19,0,0,0,2.9-.45,9.24,9.24,0,0,0,2.2-1.1,12.77,12.77,0,0,0,2.47-2.52c.2-.25.67-.52.79-.81.38-1-1-1.17-1.78-1.48a31.46,31.46,0,0,1-3.3-1.62c-.34-.2-.63-.42-1-.63s-2-.94-2.47-.67c.09.23,0,.07.18.25l1.07,1.73a6.79,6.79,0,0,1,.12,5.34c-.18.36-.32.74-.52,1.08s-.58.61-.63.88Zm-50.35-9c.58-.79.7-.54.78-.93-.11-.06,0,0-.17-.06h-.07l-4.61.45a23.2,23.2,0,0,0-4.51.74c0,.24.09.15.38.24l1.35.54c.67.3,1.23.39,1.89.65s1.16.48,1.77.77c.94.43,1.06.94,1.35,1h.11a3.48,3.48,0,0,0,.18-.69,8.15,8.15,0,0,1,1.55-2.74Zm16.39,9.85a17.53,17.53,0,0,0,6.31-.47c.59-.2,1.15-.54,1.64-.67a8.43,8.43,0,0,1,1.78-.56c.25,0,1.48.31.85-1.24l-2-5a7.93,7.93,0,0,0-2.05-2.54c-.9-.74-.69-.67-1.59-.69-.41,0-.68-.09-1.13-.09s-.69.06-1,.06c-1.53,0-2.85.23-4.38.23.25.83,1.8.45,1.5,5.54a8.66,8.66,0,0,1-1.75,4.77c-.18.24-.09,0-.16.31l2,.31ZM151.4,37.15c0-.25.13-.18.36-.31a4.62,4.62,0,0,0,.47-.34c.2-.13.34-.2.5-.31A5,5,0,0,1,155.47,35a25.12,25.12,0,0,1,5.81-.16,15.28,15.28,0,0,1,3.93.72c1.13.54.83.54,1.24,1.1a3.82,3.82,0,0,1,.31.47l1.64,2.36c.14.18.2.2.38.43.52.65.56.38.72.81s.29,1.3-.4.67a18.42,18.42,0,0,0-2.16-1c-.72-.38-1.41-.6-2.13-1-.36-.2-.83-.56-1.44-.9a7.38,7.38,0,0,0-3.08-.85c-.47,0-.87-.13-1.39-.13s-1-.05-1.48-.09c-.74-.07-5.89-.23-6-.32Zm-22.19-.49c-.27.22-.4,0-.78.07s-.61.11-1,.11l-4.06.24L113,36.9c-1.21,0-2.33.25-3.45.27a29,29,0,0,0-3.46.34,28.38,28.38,0,0,0-4.85.81,5,5,0,0,0-.66.27,1.18,1.18,0,0,1-.71.29l-1.33-.56c-.47-.27-.25-.4.29-1.08a10.79,10.79,0,0,1,1-1.3l.72-.74a11.12,11.12,0,0,1,1.64-1.15,37.07,37.07,0,0,1,3.53-1.25,26,26,0,0,1,4.71-.88,7.66,7.66,0,0,0,.88-.07l3.37-.38a22.59,22.59,0,0,1,4.47.16,13.1,13.1,0,0,1,4.13,1.52L126.09,35a4.05,4.05,0,0,0,.61.41l.6.33c.18.09.45.18.65.29a4.08,4.08,0,0,1,1.26.59Zm34.27,54.48.36-.36.34-.45a9.1,9.1,0,0,0,1.32-1.79,11,11,0,0,0,.84-2.23,7,7,0,0,0-.12-2.83.61.61,0,0,0-.51.27c-.18.16-.32.23-.5.39a7.17,7.17,0,0,1-1,.67c-.2.11-.27.18-.49.31a8.22,8.22,0,0,1-1.82.72c-1.75.41-.43.41-2.87.47-2,0-4.47-.36-6.38-.2-1,.07-2.07.2-3.12.23-2.16,0-4.18.31-6.38.31-1.08,0-2.23,0-3.3,0a13,13,0,0,1-1.55-.11,10.78,10.78,0,0,0-1.53-.12c-1.06,0-2.13-.11-3.26-.11-1.28,0-3.68.18-4.83-.2l-1.23-.43C126,85.15,124,85.33,123,85l-4.36-.69a18.23,18.23,0,0,1-4.22-1.57c-.21-.09-.34-.23-.54-.32-.81-.38-1.46-.58-2.29-1a22.07,22.07,0,0,0-3.44-1.62,3,3,0,0,1-.54-.27,14.21,14.21,0,0,1-1.71-.81,5.82,5.82,0,0,0-1.12-.54A11.78,11.78,0,0,1,102.71,77c-.31-.2-.7-.43-1-.63a11.85,11.85,0,0,0-2.32-1.08l-1.1-.56c-.24-.11-.24-.2-.49-.29a13.64,13.64,0,0,1-2.65-1.55c-.79-.81-2.74-1.77-3.48-2.78-.07-.09-.09-.16-.18-.27a3.57,3.57,0,0,1-.79-2.54c0-.27.16-1.28.23-1.51a3.71,3.71,0,0,1,1.41-1.9,2.29,2.29,0,0,1,1.37-.27A11.46,11.46,0,0,1,96.6,64c.43.09.83.27,1.33.34s4.4,1.3,5.14,1.51c1,.27,1.37.56,2.51.87.88.23,1.76.47,2.65.68l2.88.45c.49,0,.85.22,1.39.29a9.78,9.78,0,0,1,1.39.27c.45.09,1,.15,1.4.27,1.75.51,5,1.12,6.87,1.5.43.09.88.2,1.37.29s1,.09,1.48.18.94.14,1.46.2,1.19,0,1.6.14c1.84.47,4,.49,5.86.85s4.38,0,6.44.27l3,.32a23.52,23.52,0,0,1,3.21.15,29.43,29.43,0,0,0,6.31.3l3.15-.18c.54,0,1.1,0,1.64,0,.27,0,.54,0,.81,0l2.06-.43c1.22-.42,1.55.07,3.75-1.32a9.23,9.23,0,0,0,1.35-1.1,8.49,8.49,0,0,0,1.12-1.4c.45-.62,1-1.28,1.4-1.93.13-.22.11-.36.24-.54s.14-.15.3-.56l1-2.38a6.67,6.67,0,0,0-.5-5.5c-.15-.25-.11-.32-.24-.54s-.45-.36-.75-.92c-.2-.36-1.23-1.3-1.61-1.8-.14-.18-.21-.31-.52-.31a5.16,5.16,0,0,1-.74,1c-.14.16-.14.18-.27.34a5.33,5.33,0,0,1-1.35,1.06,11.12,11.12,0,0,1-4.29.42.64.64,0,0,1,0-1.28c.25,0,.88,0,1.17,0,1,0,2.65-.14,3.32-.9a7.12,7.12,0,0,1,.54-.65c.16-.14.23-.12.23-.39a10.85,10.85,0,0,0-1.31.14c-.54,0-.87-.07-1.39-.07s-.92,0-1.41,0c-.32,0-.36,0-.57-.21-.36-.44-.11-1.1.9-1,2.47.11,3.87.32,5.75-1.48a8.29,8.29,0,0,0,.7-.76l.47-.68a4.79,4.79,0,0,0,.76-1.08,6.33,6.33,0,0,0,.83-2.17c0-.32.27-1,.12-1.26,0,0-.07-.25-.32.11a1.87,1.87,0,0,1-.27.4c-.2.23-.4.39-.6.66a11.54,11.54,0,0,1-1.55,1.57A9.23,9.23,0,0,1,164,49.32a12.51,12.51,0,0,1-2.11.43c-.76.09-1.5.23-2.2.34-.51.07-4.4,0-5,0-.79-.07-1.46-.18-2.32-.18a23,23,0,0,1-6.91-.75c-.81-.29-2.18-.29-2.65-1.16a1.8,1.8,0,0,1-.32-1c.11-2.22.77-2.54,1.44-3.73.22-.38.54-.67.79-1.08.15-.24.11-.13.31-.36l.27-.33a14.24,14.24,0,0,0,2.13-2.34,7.35,7.35,0,0,1,1.15-1.44c.22-.22.4-.47.6-.65a40.33,40.33,0,0,1,3.78-2.54,3.91,3.91,0,0,1,1.95-.65l2.25-.27a30,30,0,0,1,4.83.09l2.26.32a11.45,11.45,0,0,1,1.87.67,2.09,2.09,0,0,1,.72.54c.13.16.18.18.29.31a24.43,24.43,0,0,1,1.55,2.25c.18.38.07.14.29.38s.2.68.63.7a12,12,0,0,0,0-3.17c-.36-1.37.13-1.37-1.24-2.13a7.81,7.81,0,0,0-4.4-1.21,5.92,5.92,0,0,1-.94-.16,42.93,42.93,0,0,0-8.61-.07,12.66,12.66,0,0,0-4.82,2l-1.31.94c-.13.11-.18.09-.31.22a8.67,8.67,0,0,0-.9.83c-.25.34-.79,1-1.21,1.06-.72.07-.9-.67-.45-1.17s.72-.78,1.1-1.17.79-.63,1.21-1a11,11,0,0,1,1.35-.92,15.72,15.72,0,0,1,2.18-1.15c2.45-.89,2-.62,4.65-1a29.8,29.8,0,0,1,4.33,0c.36,0,.54.11,1,.11l2.2.13a3.59,3.59,0,0,0,.94.14,9.72,9.72,0,0,1,3.75.81,6.3,6.3,0,0,1,2,1.34c.22.27.24.48.65.45-.05-.76-2.25-2-2.7-2.31a9.32,9.32,0,0,0-3.32-1.8c-.45-.11-3.91-.45-4.67-.45-1.64,0-6.4.25-7.68.84a5.87,5.87,0,0,1-.63.24c-.5.18-1.42.92-1.93.65a.66.66,0,0,1-.21-.8c.18-.45.3-.32.61-.54a9.54,9.54,0,0,1,1.91-.88,23.27,23.27,0,0,1,3.48-.54,34.86,34.86,0,0,1,6.31-.18c.43,0,1.69.25,2,.23.18-.39-.13-.63-.31-.92a17.63,17.63,0,0,0-1.1-1.44,8,8,0,0,0-.83-1,15.87,15.87,0,0,0-1.51-1.43l-.43-.29a1.7,1.7,0,0,0-.42-.32,8.55,8.55,0,0,1-.83-.63l-2.16-1.5a14.13,14.13,0,0,1-1.44-.77,16.41,16.41,0,0,0-3.39-1.73c-.24-.09-.22-.15-.49-.24s-.79-.14-1.19-.27A26.79,26.79,0,0,0,141,16.22a17.89,17.89,0,0,0-2.65.27,23.07,23.07,0,0,0-3.71.67,13.79,13.79,0,0,1-2.22.72,5,5,0,0,1-1.17.29c0,.21.25.41.38.54A18.55,18.55,0,0,1,134,21.48c.09.15.11.11.2.24a3.79,3.79,0,0,1,.18.34L135.5,24c.16.29.54.83.76,1.3a8.41,8.41,0,0,0,.79,1.28c.38.63.65,1.46,1,2.09a4.26,4.26,0,0,1,.25,1.7c-.07.61-.56,1,0,1.49.36.33.63.74,1,1.1a11.44,11.44,0,0,1,1.89,2.24,14.51,14.51,0,0,1,.63,2.5c.07.54.11,1.39.13,1.93a8.25,8.25,0,0,1-.06,2,.64.64,0,0,1-1.19-.25c-.18-.74,0-2.89-.18-3.93-.57-2.4-.93-2.15-2.34-3.77l-.94-1.1a13.33,13.33,0,0,1-1.31-1.14,8.82,8.82,0,0,0-3.19-2.54,13.05,13.05,0,0,0-3.75-.34,18.72,18.72,0,0,1-2,.07c-.45,0-1.58-.29-1.8.11.11.25,1.12.54,1.41.65.52.18,1,.41,1.53.61A6.56,6.56,0,0,1,130,31c.29.25.34.2.61.45a25.61,25.61,0,0,1,2.08,2.09,3.09,3.09,0,0,0,.52.56c.23.18.36.34.56.49.38.3.83.61,1.19.92.79.7,1.35,1.35,2.11,2.07l1,1a7.74,7.74,0,0,1,1.53,1.6,4.78,4.78,0,0,1,.45.63l.36.69a6.17,6.17,0,0,1,.74,2.43c.07.56.32,1.5-.16,1.82a.83.83,0,0,1-.69,0c-.2-.14-.11,0-.2-.36a1.9,1.9,0,0,1-.07-.54A14.59,14.59,0,0,0,139.7,43a2.65,2.65,0,0,0-.36-.76,12.74,12.74,0,0,0-.83-1.44,18.82,18.82,0,0,0-1.73-1.73l-.58-.56a20.16,20.16,0,0,0-2.32-2.2A22.15,22.15,0,0,1,130.36,33,10.35,10.35,0,0,0,126,30.46l-1.61-.63c-1-.34-3.42-1.37-4.36-1.3-1.86.13-3.77-.14-5.61.07-.63.06-1.37.22-2.07.22h-2.27c-1,0-3.5-.34-4.36-.09l-.85.27c-.34.09-.7.11-1,.2a17.31,17.31,0,0,0-3.25,1.26,6.12,6.12,0,0,0-1.19,1.05c-.41.39-.77.7-1.17,1.15a22.68,22.68,0,0,0-1.66,1.73,11.81,11.81,0,0,0-1.58,1.89,2.59,2.59,0,0,0,0,1.88c1.51.11,1.82-.69,2.54-1.64a10.68,10.68,0,0,1,2-2.29,11.51,11.51,0,0,1,1.88-1.32l2.32-.9c.54-.14,1.19-.32,1.71-.5a8.23,8.23,0,0,1,1.72-.4c.59-.11,1.13-.22,1.8-.31s1.39-.09,2-.21,1.33-.22,1.85-.27l2-.13c.67,0,1.33-.07,2.07-.07l1.86.18a7.05,7.05,0,0,1,1.86.36c.27.09.59.14.86.2a4.84,4.84,0,0,1,.72.36,11,11,0,0,1,1.79.88,2.13,2.13,0,0,0,.32.22c.74.41,2.49,1.73,2.87,1.91.14.09.23.09.36.18a13.14,13.14,0,0,0,2.18,1c.31.14.43.25.7.36a12.1,12.1,0,0,1,2.83,1.48c.24.21.36.3.58.48a5.9,5.9,0,0,1,.58.47c.36.4.75.67,1.06,1.08l.81,1.37c.22.51.38,1,.63,1.52l.45,1.15c.42.85.63,1.84,1.1,2.63.2.33.06.65.2.92s.74.36.92.49a3.11,3.11,0,0,1,.72.67c.13.18.18.16.25.43a3.61,3.61,0,0,1,.06,1.87c-.33.92-1.55,1.59-2.15,2-1.15.87-2.07.92-3,1.82l-1,1.1c-.47.56-.9.87-1.39,1.41-.25.25-.4.52-.63.77a10.84,10.84,0,0,1-1.77,1.68c-.18.14-.3.18-.43.29a9.09,9.09,0,0,1-2.47,1.73l-2,.83c-.38.12-.6.12-1.12.3s-.65.27-1,.38a10.26,10.26,0,0,0-1.1.31c-1.39.59-2.56,1.12-4,1.6a9.19,9.19,0,0,1-2.6.2c-.36-.59-.3-.63,0-1.24.47,0,1.16,0,1.61-.06A5.12,5.12,0,0,0,119,63l.29-.11,1.17-.47c.32-.11.34-.16.61-.27s.4-.11.61-.2.17-.18.58-.27a5.79,5.79,0,0,0,1.3-.39,8.42,8.42,0,0,1,1.26-.4,12.73,12.73,0,0,0,1.28-.45c.7-.22,1.14-.58,1.66-.78a4.9,4.9,0,0,0,1-.7c.31-.23.58-.56.9-.76A6.55,6.55,0,0,0,131,57.07a9.18,9.18,0,0,1,.74-.92l.81-.85c.24-.25.74-.65.78-.9-.09,0-1.75-.09-2.2-.18a12.88,12.88,0,0,0-2.49-.09c-.85,0-1.68-.07-2.45-.07A6.89,6.89,0,0,1,125,54a9.71,9.71,0,0,1-1.1-.22,18.46,18.46,0,0,0-2.36-.18c-1,0-3.77-.27-4.76-.43l-2.27-.33a4.94,4.94,0,0,1-1.14-.14c-.32-.09-.68-.2-1-.27-.68-.16-1.22-.52-1.91-.67a6.62,6.62,0,0,1-2.09-1.1,4.76,4.76,0,0,1-1.1-.9c-.9-.92-1.73-1.64-2.67-2.45a8.46,8.46,0,0,0-1.4-1.19,2,2,0,0,1-.74-.54.64.64,0,0,1,.3-.87c.67-.36,1.63.76,2,1s2.62,2.29,2.94,2.65c.18.2.2.22.38.4a3.15,3.15,0,0,0,.9.7,16.09,16.09,0,0,0,3.23,1.48c1.33.63,2.68.47,4.07.72a37,37,0,0,0,5.72.58c.52,0,1,.09,1.46.12,1.13,0,1.76.36,2.88.38s2,.07,3.08,0a20.1,20.1,0,0,1,2.94.25,9.77,9.77,0,0,0,1.53,0,6.12,6.12,0,0,0,1.23-.39c.38-.15.74-.31,1.1-.49a10.77,10.77,0,0,0,2.88-1.93c.2-.2.2-.11.24-.52a1.26,1.26,0,0,0-1-1.39c-.23.13-.18.22-.5.4-.67.41-1.46.14-2.13.45l-3.12,1.19a8.74,8.74,0,0,1-2.23.36,14.3,14.3,0,0,1-3.27,0l-2.36-.22c-.3-.05-.34-.09-.72-.14-.95-.09-2-.36-2.94-.54a6.86,6.86,0,0,1-1.42-.31,6.3,6.3,0,0,1-.69-.18l-.59-.27a32,32,0,0,0-4-1.17,8,8,0,0,1-1.3-.45,3.61,3.61,0,0,1-.59-.29l-3-1.28-.88-.85c-.31-.29-.62-.5-.94-.79a6,6,0,0,0-.9-.83c-1.46-1.05-3.1-1.32-4.89-2a21.68,21.68,0,0,1-2.34-1.12c-.36-.18-.9-.34-1.23-.5a5.13,5.13,0,0,1-1.1-.67c-.9.27-2.34.76-3-.16s-.65-1.82-.27-3.05a3.77,3.77,0,0,1,1.32-1.69,3.07,3.07,0,0,0,.43-.56l1.95-2a23.22,23.22,0,0,1,2.07-1.93,6.59,6.59,0,0,1,2.74-1.26,10.87,10.87,0,0,1,2.31-.68,4.43,4.43,0,0,0,.75-.24,22.07,22.07,0,0,1,3.9,0,22.35,22.35,0,0,0,3.84-.05c1.24,0,2.61-.22,3.8-.2a20.3,20.3,0,0,0,2.92,0c.27,0,.58-.11.81-.13a30.59,30.59,0,0,1,3.79.16,32.29,32.29,0,0,0,3.93-.07c1-.05.45-.25,1.75,0,.48.09,1.33.09,1.85.13a5,5,0,0,1,2.8,1.19l1.06.95c.22.24.69.89,1,.92.38-.65-.31-1.89-.6-2.5l-.59-1.07a4.84,4.84,0,0,1-.65-1.08c-.18-.65-.49-.7-.9-1.69l-1-1.41a12,12,0,0,0-1.44-2c-.29-.3-.59-.59-.88-.86a31.46,31.46,0,0,0-2.56-2.49l-2-1.42a17.09,17.09,0,0,0-2.18-1.21,2.3,2.3,0,0,0-1.37-.36c-.49,0-1.12,0-1.59-.09S121,14,120.61,14c-2.43-.29-4.83-.32-7.25-.5a27.27,27.27,0,0,0-3.26.16c-.54,0-1,.16-1.53.2a17.4,17.4,0,0,0-3.48.74l-1.3.43a6.37,6.37,0,0,0-1.69.9c-.31.22-.67.47-1,.69a4.53,4.53,0,0,1-1,.79c-.51.29-1.19,1.08-1.81,1.57-.32.25-.66.47-1,.68s-1.1.29-1.19-.25c-.14-.74,1-1.1,1.77-1.71.56-.45.85-1,1.3-1.23a6,6,0,0,0,.52-.36,20.67,20.67,0,0,1,1.91-1.48,5.2,5.2,0,0,1,1.06-.61,26,26,0,0,1,6.93-1.64l3.24-.18a75.57,75.57,0,0,1,7.93.61,12,12,0,0,0,2.33.27c.65,0,.18-.83,0-1.82a9.21,9.21,0,0,0-1-2.36,15.65,15.65,0,0,0-1.28-2.2l-.74-.92a22.9,22.9,0,0,0-2.85-2.27,12.3,12.3,0,0,0-5-1.84c-1-.16-2.11-.14-3.1-.32a28.73,28.73,0,0,0-6.49-.11,22,22,0,0,0-4.51.58A2.39,2.39,0,0,0,97,2.36c-.68.43-1.37.66-2.18,1.22-1.24.83-1.26.29-3,2.13a6.06,6.06,0,0,0-.83.9,7.56,7.56,0,0,1-.65,1,20.3,20.3,0,0,0-2.11,3.08c-.16.42-.36.69-.56,1.1s-.43.74-.61,1.12a10.85,10.85,0,0,1-2.27,2.85l-1.59,1.8a5.2,5.2,0,0,0-.72,1,5.78,5.78,0,0,1-.7,1c-.83.68-.09-.15-.83.88a9,9,0,0,1-.83.9l-.43.43a2.86,2.86,0,0,0-.45.4c-.31.4-.13.4-.69,1a3,3,0,0,0-.72,1,5.38,5.38,0,0,1-.68,1,7.84,7.84,0,0,1-.62,1.1,6.41,6.41,0,0,0-.68,1c-.29.61-1,1.48-1.39,2.09l-.9,1.64c-.13.34-.18.29-.34.54-.22.4-.33.78-.56,1.17-.11.18-.2.31-.29.49a4.65,4.65,0,0,1-.34.52A16.14,16.14,0,0,0,71,35.92a24.71,24.71,0,0,1-1.28,2.18,10.89,10.89,0,0,0-.67,1c-.13.27,0,.29-.22.56l-.86,1.73c-.31.86-.87,1.44-1.12,2.34a3.91,3.91,0,0,1-.61,1.08A6.36,6.36,0,0,0,65.63,46a11.8,11.8,0,0,1-.94,1.66,17.71,17.71,0,0,1-.83,1.69l-1.13,2.27a4.59,4.59,0,0,0-.53,1.19c-.12.62-.34.6-.52,1.14a16.4,16.4,0,0,1-.81,1.8l-.76,1.84c0,.16-.18.45-.23.56a2.84,2.84,0,0,1-.16.72,5,5,0,0,0-.4,1.32,6.11,6.11,0,0,1-.67,1.87,12.8,12.8,0,0,0-.56,2,12.51,12.51,0,0,0-.41,1.33c-.07.51-.11.33-.2.65a5.73,5.73,0,0,0-.11.74c0,.25,0,.52-.09.79a6.28,6.28,0,0,1-.21.65c-.06.27,0,.42-.06.74a9.72,9.72,0,0,0-.18,1.55,7,7,0,0,1-.18.69c-.11.48,0,1.08-.14,1.55a10,10,0,0,0-.36,2.16c-.11.38-.18,0-.18.67s-.18.9-.2,1.53c0,1.33-.09.72-.22,1.53l-.45,2.06c-.07.52-.07,1.1-.18,1.55-.07.3,0,.52-.07.81-.27,1,0,2.18-.27,3.19-.11.52,0,1.06-.16,1.51-.33,1.12,0,2.4-.2,3.25-.09.34-.18.14-.18.68a2.17,2.17,0,0,1-.09.78A9.34,9.34,0,0,0,53.84,94c0,.29-.13.41-.18.7a7.59,7.59,0,0,1-.07.81c-.33,1.34-.11.33-.18,1.34s-.54,2-.09,3l.3,2.31c0,.49.09.34.18.7a3.92,3.92,0,0,1,.06.78,11,11,0,0,0,.56,2c.12.27.3,1.26.36,1.37s.16.16.27.51a1.93,1.93,0,0,0,.25.61A9.47,9.47,0,0,1,56,109.9l.9,1.7a8.64,8.64,0,0,0,.77,1,8.75,8.75,0,0,1,.71,1c.3.38.52.54.79.87s.52.52.85.88a6.46,6.46,0,0,0,1.94,1.46L64,118.07a7,7,0,0,0,1.1.63,12.58,12.58,0,0,1,2.33,1.08l.63.22c.65.2,1,.72,2.29,1.17.23.09.45.09.68.18.8.36,1.57.61,2.47.92.45.16.89.18,1.37.36s.89.11,1.41.31a12.71,12.71,0,0,0,2.58.83c.27,0,.54,0,.81,0s.36.14.68.18.42,0,.74.14.24.09.72.11a2.58,2.58,0,0,1,.65.16,7.57,7.57,0,0,0,.81,0c.33,0,.31.16.67.21s.58,0,.85,0,.36.13.7.18a5.75,5.75,0,0,0,.83,0,12.74,12.74,0,0,1,1.48.24,18,18,0,0,1,2.43.14c1,.22,3-.27,4,.22.11,0,7.61.25,8.36,0a13.61,13.61,0,0,1,3.07-.31c.63,0,.74-.27,1.46-.27a8.69,8.69,0,0,0,2.4-.11c.66-.21,10.07-.07,11.12-.09.54,0,.45-.21,1.39-.23,1.53,0,5.48.18,6.65-.25.38-.13,1-.22,1.39-.33a5,5,0,0,0,1.22-.43,9.22,9.22,0,0,1,1.28-.47c.85-.34.51-.34,1.21-.45.34,0,.36-.14.58-.27s.41-.09.66-.22c1.21-.59.74-.16,1.79-1.64l.68-1m17-101.4c-.3-.07,0-.07-.34-.25s-.25,0-.45-.16l-.79-.4c-.35-.2-.53-.2-.85-.36-.63-.31,0-.11-.87-.31-1.22-.27-1.11-.34-1.87-.52a22.6,22.6,0,0,0-6.2-1c-.81,0-1.52-.09-2.33-.09-.36,0-.7.09-1.06.11s-.81,0-1.19.07c-.63.09-1.35.27-2.06.31l-2,.43c-.23.07-.57.22-.88.31a1.35,1.35,0,0,0-.4.21,2,2,0,0,1-.5.11c-.63.11-2.45.9-2.92.42a23.9,23.9,0,0,0-5.05-3.43,11.64,11.64,0,0,0-.54-3.21,9,9,0,0,1-.56-1.28c-.23-.59-.59-.88-.63-1.31.2-.24,1.89-1.28,2-1.34.25-.25.07-.21.43-.36,1.37-.65,1.51-1.26,2.31-1.89a2.63,2.63,0,0,0,.45-.36,4.36,4.36,0,0,1,.43-.43,11.74,11.74,0,0,1,2.34-1c.56-.07.26-.09.65-.16a5.14,5.14,0,0,1,.78-.07l3.33,0c1.07.11,4.2.15,4.62.33.92.39,2.43,1.19,2.83,1.35s.23.09.52.34l1.14.51a8.49,8.49,0,0,1,2,1.33,6.34,6.34,0,0,1,1.53,1.8L150,9.84c.2.16,0-.11.18.2.43.81,1.13,1.78,1.6,2.61.22.4.45.63.63,1a6.62,6.62,0,0,0,.58,1.08,6.52,6.52,0,0,1,.67,1,6.68,6.68,0,0,1,.61,1.05,2,2,0,0,0,.27.61c.18.23.31.18.07.52Zm10.22,73.46A11.62,11.62,0,0,0,167,88l.36-1a8.4,8.4,0,0,0,0-3.53,5.18,5.18,0,0,1-.31-.94,6.77,6.77,0,0,1,1.48-2.11,11.33,11.33,0,0,0,1-1.33,4.5,4.5,0,0,0,1-3.41,4.63,4.63,0,0,0-.78-2c-.47-.6-.83-.29.85-2.51l1.15-1.24A6.5,6.5,0,0,0,173,68.64c.92-1.39,1.46-1.93,1.46-3.86A15.61,15.61,0,0,0,173,61.29a6.31,6.31,0,0,0-.87-1c-.32-.36-.74-.49-.9-1-.09-.29-.16-.63-.27-.94a8.56,8.56,0,0,0-1.37-2.43c-.18-.24-.32-.47-.52-.69a15.54,15.54,0,0,0-1.17-1.35c-1.68-1.39-1.28-1.35-.35-2.27a6,6,0,0,0,.78-.87,10.82,10.82,0,0,0,1.93-3.12,3.44,3.44,0,0,0,.38-1.28,11.34,11.34,0,0,0,.21-3.78c-.05-.27,0-.49,0-.76,0-.5-.2-.9-.2-1.46,0-.94.2-1.62.2-2.54,0-.22-.06-2.4,0-2.47.41-.2.66.07,1-.34a1.8,1.8,0,0,0,.27-1c0-1.06-1.17-2.16-1.84-2.68l-3.32-2.18c-.45-.22-1.13-.4-1.33-.85a11.08,11.08,0,0,0-1.64-2.67,5.65,5.65,0,0,1-.45-.61,28,28,0,0,0-2.11-2.29c-.51-.49-3.19-2.33-3.82-2.76-.22-.16-.45-.32-.67-.45a6.88,6.88,0,0,1-.72-.36c-.22-.2-.13-.61-.2-.92a16.08,16.08,0,0,0-2.18-4.34c-.13-.24-.25-.42-.38-.67l-1.66-2.72a14,14,0,0,0-1.37-2c-.16-.22-.27-.4-.43-.63A15.49,15.49,0,0,0,148,5.51a9.82,9.82,0,0,0-2.54-1.84L141,1.44a12.45,12.45,0,0,0-4-.38c-.67,0-1.23-.13-2-.13h-2.62a7.32,7.32,0,0,0-3,.69,8.75,8.75,0,0,0-1.53.86A10.12,10.12,0,0,0,126,4.21c-.43.4-1,.65-1.44,1a12.76,12.76,0,0,1-2.18,1.39c-.31,0-.45-.36-.6-.58A7.78,7.78,0,0,0,120,4.16a4.42,4.42,0,0,1-.67-.52A14.4,14.4,0,0,0,114.75,1,7.08,7.08,0,0,0,113.22.7l-.49-.09C111,.3,109.09.28,107.27.07a16.88,16.88,0,0,0-3.41,0c-.72.11-1.53,0-2.3.11-.35,0-.67.13-1,.13a8.5,8.5,0,0,0-4.63,1.35L93.57,3a4.29,4.29,0,0,0-.79.43,7,7,0,0,0-1.23,1.07,13,13,0,0,0-2.18,2.61,27.54,27.54,0,0,0-2.56,4A7.1,7.1,0,0,1,85.73,13a9,9,0,0,0-1.08,1.31c-.36.47-.76.72-1.12,1.21a16.46,16.46,0,0,0-1.64,1.95,7.63,7.63,0,0,1-1.23,1.76c-.52.44-1,1-1.46,1.52l-.61.61c-.4.4-.67.87-1.1,1.3a10.18,10.18,0,0,0-1,1.42l-.47.71c-.16.27-.25.52-.43.77l-1.88,2.83c-.16.25-.34.45-.5.72-.81,1.48-1.1,2.27-2.06,3.84-.77,1.26-1.31,2.65-2.07,3.93L67,40.66a7.44,7.44,0,0,1-.36.83c-.32.51-.54,1-.81,1.57l-1.64,3.17a6.86,6.86,0,0,1-.45.76c-.33.52-.51,1-.81,1.59-.15.3-.27.5-.42.77-.83,1.68-1.15,2.24-1.89,4l-.34.87a15.1,15.1,0,0,0-.78,1.62c-.16.56-.47,1.08-.68,1.66-.06.18-.11.29-.15.43a3.51,3.51,0,0,0-.12.49l-.83,2.77c-.11.33-.24.47-.36.83a42.92,42.92,0,0,0-1.12,4.17,3.62,3.62,0,0,1-.13.47c-.09.34,0,.7-.14,1.06,0,.14-.11.25-.16.45l-.15,1a8,8,0,0,1-.14,1.66,9.88,9.88,0,0,0-.13,1.06c0,.67-.29,1.28-.38,1.93a3.94,3.94,0,0,1-.14,1.06c-.11.36,0,.69-.13,1a2.22,2.22,0,0,0-.14,1.08c0,1-.72,3.3-.74,4a8.45,8.45,0,0,1-.11,1.07,5,5,0,0,1-.16,1.06,10.73,10.73,0,0,0-.09,2l-.16,1c-.06.36,0,.87-.06,1.14a7.3,7.3,0,0,0-.16,2.18,5.57,5.57,0,0,1-.09,1.1,3,3,0,0,0-.18,1c0,.36-.18.61-.2,1a5.74,5.74,0,0,1-.14,1.66c-.11.43-.13,1.06-.27,1.53A4.57,4.57,0,0,0,52.16,97c0,.43-.09.59-.09,1l.22,3.23a4.34,4.34,0,0,1,.18.94,3.28,3.28,0,0,0,.18.88,17.09,17.09,0,0,0,.61,2.72,19.12,19.12,0,0,0,.85,2.4,12.55,12.55,0,0,1,.63,1.55,3.56,3.56,0,0,0,.29.83c.14.27.25.41.38.7a9.64,9.64,0,0,0,1.53,2.24,12.52,12.52,0,0,0,1.19,1.55c.74.74,1.41,1.42,2.2,2.14a3.85,3.85,0,0,0,.76.38,6.87,6.87,0,0,1,.63.43c.65.44,1.42.8,2.07,1.25a19.11,19.11,0,0,0,2.2,1,8.7,8.7,0,0,0,1.46.74,2.9,2.9,0,0,1,.81.34,6.08,6.08,0,0,0,1.41.79c.27.11.54.15.81.24l1.57.61c.88.29,1.71.43,2.54.79a4.23,4.23,0,0,0,.9.15c1.17.27,2.16,1,3.37,1,.76,0,3.23.63,3.73.67a5.62,5.62,0,0,1,.58,0c.11,0,.27.09.41.12a6.07,6.07,0,0,0,1,.06c.32,0,.52.18.88.21l1,.06a3.25,3.25,0,0,1,.94.18c.68.14,1.49-.06,2.16,0a4.44,4.44,0,0,0,.88.18c.71,0,1.48,0,2.2,0a11.6,11.6,0,0,1,1.93.2h7.72c.43,0,.59-.2,1.19-.2a8,8,0,0,0,1.22-.18c.45-.07.94,0,1.37,0a2.84,2.84,0,0,0,.49-.15c1-.25,2.29.09,3.19-.23a10.48,10.48,0,0,1,2.65-.09h8.17a6,6,0,0,0,1.19-.2c1-.07,4.14,0,5.46,0a21.51,21.51,0,0,0,3.33-.72,7.38,7.38,0,0,0,1.1-.29c.81-.47,2.56-.94,2.89-1.17a2,2,0,0,1,.52-.22,4.68,4.68,0,0,1,.45-.2c2.13-1.08,2.63-3.15,3.17-3.28m-39.8-59c.56.34.56,1.13,0,1.26a5.41,5.41,0,0,1-1,0c-.36,0-.7.06-1.06.06a20.74,20.74,0,0,0-3.7.54,6.08,6.08,0,0,0-3.78,2.61c-.22.38-.56,1.1-1.19.87-1.26-.45.88-2.67,1.44-3.1.2-.15.4-.33.58-.47a9.14,9.14,0,0,1,3.93-1.41,8.39,8.39,0,0,1,.88-.18,21.25,21.25,0,0,1,3.93-.14Zm53.5-7.25a13,13,0,0,0,2.94-.18c.42-.11,1.23-.47,1.39.2.09.41,0,.61-.27.74a2.35,2.35,0,0,1-.7.32,18.29,18.29,0,0,1-5.07.09c0,.09.67.6,1,1l.94,1.19a33.83,33.83,0,0,1,2.9,3.41,2.3,2.3,0,0,1,.24.5c.81,1.66-.42,1.52-.74,1.25s-.69-1.23-1.07-1.73c-.12-.15-.18-.18-.32-.33-.45-.56,0-.18-.63-.77l-1.05-1.07c-1.15-1.24-1.19-1.82-2.74-2.9-.72-.5-.3-.27-.86-.54a15.34,15.34,0,0,0-1.73-1.08,9,9,0,0,1-1.88-1c-.74-.61-.07-1.51.94-1a44.23,44.23,0,0,0,4.2,1.44c.2,0,.4,0,.58.09A10,10,0,0,0,152.37,53.48Z"/></g></g></svg>