<svg xmlns="http://www.w3.org/2000/svg" xmlns:xlink="http://www.w3.org/1999/xlink" width="159.45" height="48.94" viewBox="0 0 159.45 48.94"><defs><style>.cls-1{isolation:isolate;}.cls-2{fill:url(#Áåçûìÿííûé_ãðàäèåíò_349);}.cls-3{fill:url(#Áåçûìÿííûé_ãðàäèåíò_353);}.cls-4{fill:url(#Áåçûìÿííûé_ãðàäèåíò_352);}.cls-5{fill:url(#Áåçûìÿííûé_ãðàäèåíò_347);}.cls-6{fill:url(#Áåçûìÿííûé_ãðàäèåíò_352-2);}.cls-7{fill:url(#Áåçûìÿííûé_ãðàäèåíò_354);}.cls-34,.cls-35,.cls-36,.cls-42,.cls-45,.cls-46,.cls-47,.cls-50,.cls-60,.cls-64,.cls-72,.cls-73,.cls-79,.cls-8,.cls-80,.cls-82,.cls-83,.cls-84,.cls-85,.cls-86,.cls-87{mix-blend-mode:multiply;}.cls-8{opacity:0.53;fill:url(#Áåçûìÿííûé_ãðàäèåíò_342);}.cls-9{fill:url(#Áåçûìÿííûé_ãðàäèåíò_354-2);}.cls-10{fill:url(#Áåçûìÿííûé_ãðàäèåíò_352-3);}.cls-11{fill:url(#Áåçûìÿííûé_ãðàäèåíò_352-4);}.cls-12{fill:url(#Áåçûìÿííûé_ãðàäèåíò_353-2);}.cls-13{fill:url(#Áåçûìÿííûé_ãðàäèåíò_352-5);}.cls-14{fill:url(#Áåçûìÿííûé_ãðàäèåíò_352-6);}.cls-15{fill:url(#Áåçûìÿííûé_ãðàäèåíò_349-2);}.cls-16{fill:url(#Áåçûìÿííûé_ãðàäèåíò_347-2);}.cls-17{fill:url(#Áåçûìÿííûé_ãðàäèåíò_347-3);}.cls-18{fill:url(#Áåçûìÿííûé_ãðàäèåíò_347-4);}.cls-19{fill:url(#Áåçûìÿííûé_ãðàäèåíò_347-5);}.cls-20{fill:url(#Áåçûìÿííûé_ãðàäèåíò_347-6);}.cls-21{fill:url(#Áåçûìÿííûé_ãðàäèåíò_347-7);}.cls-22{fill:url(#Áåçûìÿííûé_ãðàäèåíò_347-8);}.cls-23{fill:url(#Áåçûìÿííûé_ãðàäèåíò_347-9);}.cls-24{fill:url(#Áåçûìÿííûé_ãðàäèåíò_349-3);}.cls-25{fill:url(#Áåçûìÿííûé_ãðàäèåíò_349-4);}.cls-26{fill:url(#Áåçûìÿííûé_ãðàäèåíò_349-5);}.cls-27{fill:url(#Áåçûìÿííûé_ãðàäèåíò_349-6);}.cls-28{fill:url(#Áåçûìÿííûé_ãðàäèåíò_349-7);}.cls-29{fill:url(#Áåçûìÿííûé_ãðàäèåíò_349-8);}.cls-30{fill:url(#Áåçûìÿííûé_ãðàäèåíò_349-9);}.cls-31{fill:url(#Áåçûìÿííûé_ãðàäèåíò_349-10);}.cls-32{fill:url(#Áåçûìÿííûé_ãðàäèåíò_352-7);}.cls-33{fill:url(#Áåçûìÿííûé_ãðàäèåíò_352-8);}.cls-34{opacity:0.36;fill:url(#Áåçûìÿííûé_ãðàäèåíò_342-2);}.cls-35{opacity:0.23;fill:url(#Áåçûìÿííûé_ãðàäèåíò_342-3);}.cls-36,.cls-42,.cls-60,.cls-64{opacity:0.58;}.cls-36{fill:url(#Áåçûìÿííûé_ãðàäèåíò_342-4);}.cls-37{fill:url(#Áåçûìÿííûé_ãðàäèåíò_348);}.cls-38{fill:url(#Áåçûìÿííûé_ãðàäèåíò_349-11);}.cls-39{fill:url(#Áåçûìÿííûé_ãðàäèåíò_349-12);}.cls-40{fill:url(#Áåçûìÿííûé_ãðàäèåíò_353-3);}.cls-41{fill:url(#Áåçûìÿííûé_ãðàäèåíò_348-2);}.cls-42{fill:url(#Áåçûìÿííûé_ãðàäèåíò_342-5);}.cls-43{fill:url(#Áåçûìÿííûé_ãðàäèåíò_348-3);}.cls-44,.cls-59,.cls-61,.cls-62,.cls-63,.cls-69,.cls-70,.cls-74,.cls-76,.cls-77{mix-blend-mode:color-dodge;}.cls-44,.cls-50,.cls-61,.cls-62,.cls-63,.cls-69,.cls-70,.cls-74,.cls-76,.cls-77{opacity:0.64;}.cls-44{fill:url(#Áåçûìÿííûé_ãðàäèåíò_4);}.cls-45,.cls-46,.cls-72,.cls-73,.cls-79,.cls-80,.cls-87{opacity:0.76;}.cls-45{fill:url(#Áåçûìÿííûé_ãðàäèåíò_342-6);}.cls-46{fill:url(#Áåçûìÿííûé_ãðàäèåíò_342-7);}.cls-47,.cls-82,.cls-83,.cls-84,.cls-85,.cls-86{opacity:0.41;}.cls-47{fill:url(#Áåçûìÿííûé_ãðàäèåíò_342-8);}.cls-48{fill:url(#Áåçûìÿííûé_ãðàäèåíò_352-9);}.cls-49{fill:url(#Áåçûìÿííûé_ãðàäèåíò_352-10);}.cls-50{fill:url(#Áåçûìÿííûé_ãðàäèåíò_342-9);}.cls-51{fill:url(#Áåçûìÿííûé_ãðàäèåíò_348-4);}.cls-52{fill:url(#Áåçûìÿííûé_ãðàäèåíò_348-5);}.cls-53{fill:url(#Áåçûìÿííûé_ãðàäèåíò_351);}.cls-54{fill:#ecffdd;}.cls-55{fill:url(#Áåçûìÿííûé_ãðàäèåíò_350);}.cls-56{fill:url(#Áåçûìÿííûé_ãðàäèåíò_349-13);}.cls-57{fill:url(#Áåçûìÿííûé_ãðàäèåíò_348-6);}.cls-58{fill:url(#Áåçûìÿííûé_ãðàäèåíò_348-7);}.cls-59{opacity:0.86;fill:url(#Áåçûìÿííûé_ãðàäèåíò_4-2);}.cls-60{fill:url(#Áåçûìÿííûé_ãðàäèåíò_342-10);}.cls-61{fill:url(#Áåçûìÿííûé_ãðàäèåíò_4-3);}.cls-62{fill:url(#Áåçûìÿííûé_ãðàäèåíò_4-4);}.cls-63{fill:url(#Áåçûìÿííûé_ãðàäèåíò_4-5);}.cls-64{fill:url(#Áåçûìÿííûé_ãðàäèåíò_342-11);}.cls-65{fill:url(#Áåçûìÿííûé_ãðàäèåíò_342-12);}.cls-66{fill:#ebfeff;}.cls-67{fill:url(#Áåçûìÿííûé_ãðàäèåíò_345);}.cls-68{fill:url(#Áåçûìÿííûé_ãðàäèåíò_345-2);}.cls-69{fill:url(#Áåçûìÿííûé_ãðàäèåíò_4-6);}.cls-70{fill:url(#Áåçûìÿííûé_ãðàäèåíò_4-7);}.cls-71{fill:url(#Áåçûìÿííûé_ãðàäèåíò_347-10);}.cls-72{fill:url(#Áåçûìÿííûé_ãðàäèåíò_342-13);}.cls-73{fill:url(#Áåçûìÿííûé_ãðàäèåíò_342-14);}.cls-74{fill:url(#Áåçûìÿííûé_ãðàäèåíò_4-8);}.cls-75{fill:url(#Áåçûìÿííûé_ãðàäèåíò_345-3);}.cls-76{fill:url(#Áåçûìÿííûé_ãðàäèåíò_344);}.cls-77{fill:url(#Áåçûìÿííûé_ãðàäèåíò_344-2);}.cls-78{fill:url(#Áåçûìÿííûé_ãðàäèåíò_343);}.cls-79{fill:url(#Áåçûìÿííûé_ãðàäèåíò_342-15);}.cls-80{fill:url(#Áåçûìÿííûé_ãðàäèåíò_342-16);}.cls-81{fill:url(#Áåçûìÿííûé_ãðàäèåíò_342-17);}.cls-82{fill:url(#Áåçûìÿííûé_ãðàäèåíò_342-18);}.cls-83{fill:url(#Áåçûìÿííûé_ãðàäèåíò_342-19);}.cls-84{fill:url(#Áåçûìÿííûé_ãðàäèåíò_342-20);}.cls-85{fill:url(#Áåçûìÿííûé_ãðàäèåíò_342-21);}.cls-86{fill:url(#Áåçûìÿííûé_ãðàäèåíò_342-22);}.cls-87{fill:url(#Áåçûìÿííûé_ãðàäèåíò_342-23);}.cls-88{fill:url(#Áåçûìÿííûé_ãðàäèåíò_342-24);}</style><linearGradient id="Áåçûìÿííûé_ãðàäèåíò_349" x1="82.14" y1="48.62" x2="88.07" y2="48.62" gradientTransform="matrix(-1, 0.06, 0.06, 1, 204.56, -50.79)" gradientUnits="userSpaceOnUse"><stop offset="0" stop-color="#3d2245"/><stop offset="1" stop-color="#604155"/></linearGradient><linearGradient id="Áåçûìÿííûé_ãðàäèåíò_353" x1="80.44" y1="47.94" x2="88.31" y2="47.94" gradientTransform="matrix(-1, 0.06, 0.06, 1, 204.56, -50.79)" gradientUnits="userSpaceOnUse"><stop offset="0" stop-color="#e6e5ff"/><stop offset="1" stop-color="#d9d8e7"/></linearGradient><linearGradient id="Áåçûìÿííûé_ãðàäèåíò_352" x1="67.48" y1="72.7" x2="209.45" y2="72.7" gradientTransform="matrix(-1, 0.06, 0.06, 1, 204.56, -50.79)" gradientUnits="userSpaceOnUse"><stop offset="0" stop-color="#ebdcff"/><stop offset="1" stop-color="#a7a3ba"/></linearGradient><linearGradient id="Áåçûìÿííûé_ãðàäèåíò_347" x1="68.23" y1="65.99" x2="208.69" y2="65.99" gradientTransform="matrix(-1, 0.06, 0.06, 1, 204.56, -50.79)" gradientUnits="userSpaceOnUse"><stop offset="0" stop-color="#fff"/><stop offset="1" stop-color="#bdddf0"/></linearGradient><linearGradient id="Áåçûìÿííûé_ãðàäèåíò_352-2" x1="105.54" y1="85.3" x2="168.96" y2="85.3" xlink:href="#Áåçûìÿííûé_ãðàäèåíò_352"/><linearGradient id="Áåçûìÿííûé_ãðàäèåíò_354" x1="118.03" y1="80.39" x2="168.11" y2="80.39" gradientTransform="matrix(-1, 0.03, 0.03, 0.93, 213.49, -37.27)" gradientUnits="userSpaceOnUse"><stop offset="0" stop-color="#8e7484"/><stop offset="1" stop-color="#533c56"/></linearGradient><linearGradient id="Áåçûìÿííûé_ãðàäèåíò_342" x1="87.85" y1="80.99" x2="176.85" y2="80.99" gradientTransform="matrix(-1, 0.06, 0.06, 1, 204.56, -50.79)" gradientUnits="userSpaceOnUse"><stop offset="0" stop-color="#a394b3"/><stop offset="1" stop-color="#8e7484"/></linearGradient><linearGradient id="Áåçûìÿííûé_ãðàäèåíò_354-2" x1="61.11" y1="89.46" x2="162.35" y2="89.46" gradientTransform="matrix(-1, 0.06, 0.06, 1, 204.56, -50.79)" xlink:href="#Áåçûìÿííûé_ãðàäèåíò_354"/><linearGradient id="Áåçûìÿííûé_ãðàäèåíò_352-3" x1="61.11" y1="87.73" x2="161.67" y2="87.73" xlink:href="#Áåçûìÿííûé_ãðàäèåíò_352"/><linearGradient id="Áåçûìÿííûé_ãðàäèåíò_352-4" x1="56.46" y1="90.71" x2="70.69" y2="90.71" xlink:href="#Áåçûìÿííûé_ãðàäèåíò_352"/><linearGradient id="Áåçûìÿííûé_ãðàäèåíò_353-2" x1="60.46" y1="60.09" x2="97.38" y2="60.09" xlink:href="#Áåçûìÿííûé_ãðàäèåíò_353"/><linearGradient id="Áåçûìÿííûé_ãðàäèåíò_352-5" x1="59.58" y1="60.09" x2="95.78" y2="60.09" xlink:href="#Áåçûìÿííûé_ãðàäèåíò_352"/><linearGradient id="Áåçûìÿííûé_ãðàäèåíò_352-6" x1="178.49" y1="66" x2="202.46" y2="66" xlink:href="#Áåçûìÿííûé_ãðàäèåíò_352"/><linearGradient id="Áåçûìÿííûé_ãðàäèåíò_349-2" x1="179.23" y1="65.77" x2="201.41" y2="65.77" xlink:href="#Áåçûìÿííûé_ãðàäèåíò_349"/><linearGradient id="Áåçûìÿííûé_ãðàäèåíò_347-2" x1="117.62" y1="75.51" x2="120.77" y2="75.51" xlink:href="#Áåçûìÿííûé_ãðàäèåíò_347"/><linearGradient id="Áåçûìÿííûé_ãðàäèåíò_347-3" x1="123.55" y1="75.1" x2="126.7" y2="75.1" xlink:href="#Áåçûìÿííûé_ãðàäèåíò_347"/><linearGradient id="Áåçûìÿííûé_ãðàäèåíò_347-4" x1="129.48" y1="74.68" x2="132.63" y2="74.68" xlink:href="#Áåçûìÿííûé_ãðàäèåíò_347"/><linearGradient id="Áåçûìÿííûé_ãðàäèåíò_347-5" x1="135.4" y1="74.26" x2="138.56" y2="74.26" xlink:href="#Áåçûìÿííûé_ãðàäèåíò_347"/><linearGradient id="Áåçûìÿííûé_ãðàäèåíò_347-6" x1="141.33" y1="73.85" x2="144.49" y2="73.85" xlink:href="#Áåçûìÿííûé_ãðàäèåíò_347"/><linearGradient id="Áåçûìÿííûé_ãðàäèåíò_347-7" x1="147.26" y1="73.43" x2="150.42" y2="73.43" xlink:href="#Áåçûìÿííûé_ãðàäèåíò_347"/><linearGradient id="Áåçûìÿííûé_ãðàäèåíò_347-8" x1="153.19" y1="73.02" x2="156.35" y2="73.02" xlink:href="#Áåçûìÿííûé_ãðàäèåíò_347"/><linearGradient id="Áåçûìÿííûé_ãðàäèåíò_347-9" x1="159.12" y1="72.6" x2="162.28" y2="72.6" xlink:href="#Áåçûìÿííûé_ãðàäèåíò_347"/><linearGradient id="Áåçûìÿííûé_ãðàäèåíò_349-3" x1="119.5" y1="77.9" x2="119.5" y2="73.08" xlink:href="#Áåçûìÿííûé_ãðàäèåíò_349"/><linearGradient id="Áåçûìÿííûé_ãðàäèåíò_349-4" x1="125.43" y1="77.48" x2="125.43" y2="72.67" xlink:href="#Áåçûìÿííûé_ãðàäèåíò_349"/><linearGradient id="Áåçûìÿííûé_ãðàäèåíò_349-5" x1="131.36" y1="77.07" x2="131.36" y2="72.25" xlink:href="#Áåçûìÿííûé_ãðàäèåíò_349"/><linearGradient id="Áåçûìÿííûé_ãðàäèåíò_349-6" x1="137.28" y1="76.65" x2="137.28" y2="71.84" xlink:href="#Áåçûìÿííûé_ãðàäèåíò_349"/><linearGradient id="Áåçûìÿííûé_ãðàäèåíò_349-7" x1="143.21" y1="76.24" x2="143.21" y2="71.42" xlink:href="#Áåçûìÿííûé_ãðàäèåíò_349"/><linearGradient id="Áåçûìÿííûé_ãðàäèåíò_349-8" x1="149.14" y1="75.82" x2="149.14" y2="71.01" xlink:href="#Áåçûìÿííûé_ãðàäèåíò_349"/><linearGradient id="Áåçûìÿííûé_ãðàäèåíò_349-9" x1="155.07" y1="75.4" x2="155.07" y2="70.59" xlink:href="#Áåçûìÿííûé_ãðàäèåíò_349"/><linearGradient id="Áåçûìÿííûé_ãðàäèåíò_349-10" x1="161" y1="74.99" x2="161" y2="70.17" xlink:href="#Áåçûìÿííûé_ãðàäèåíò_349"/><linearGradient id="Áåçûìÿííûé_ãðàäèåíò_352-7" x1="183.44" y1="67.85" x2="185.94" y2="67.85" xlink:href="#Áåçûìÿííûé_ãðàäèåíò_352"/><linearGradient id="Áåçûìÿííûé_ãðàäèåíò_352-8" x1="191.23" y1="64.85" x2="199.05" y2="64.85" xlink:href="#Áåçûìÿííûé_ãðàäèåíò_352"/><linearGradient id="Áåçûìÿííûé_ãðàäèåíò_342-2" x1="63.4" y1="61.98" x2="87.81" y2="61.98" xlink:href="#Áåçûìÿííûé_ãðàäèåíò_342"/><linearGradient id="Áåçûìÿííûé_ãðàäèåíò_342-3" x1="63.5" y1="58.69" x2="78.92" y2="58.69" xlink:href="#Áåçûìÿííûé_ãðàäèåíò_342"/><linearGradient id="Áåçûìÿííûé_ãðàäèåíò_342-4" x1="63.5" y1="56.16" x2="78.92" y2="56.16" xlink:href="#Áåçûìÿííûé_ãðàäèåíò_342"/><linearGradient id="Áåçûìÿííûé_ãðàäèåíò_348" x1="76.8" y1="56.68" x2="96.22" y2="56.68" gradientTransform="matrix(-1, 0.06, 0.06, 1, 204.56, -50.79)" gradientUnits="userSpaceOnUse"><stop offset="0" stop-color="#e6e5ff"/><stop offset="1" stop-color="#fff"/></linearGradient><linearGradient id="Áåçûìÿííûé_ãðàäèåíò_349-11" x1="49.39" y1="-16.42" x2="65.11" y2="-16.42" gradientTransform="matrix(-0.99, 0.17, 0.17, 0.99, 194.55, 10.07)" xlink:href="#Áåçûìÿííûé_ãðàäèåíò_349"/><linearGradient id="Áåçûìÿííûé_ãðàäèåíò_349-12" x1="48.5" y1="52.27" x2="79.29" y2="52.27" xlink:href="#Áåçûìÿííûé_ãðàäèåíò_349"/><linearGradient id="Áåçûìÿííûé_ãðàäèåíò_353-3" x1="48.5" y1="51.45" x2="79.71" y2="51.45" xlink:href="#Áåçûìÿííûé_ãðàäèåíò_353"/><linearGradient id="Áåçûìÿííûé_ãðàäèåíò_348-2" x1="53.54" y1="51.55" x2="78.63" y2="51.55" xlink:href="#Áåçûìÿííûé_ãðàäèåíò_348"/><linearGradient id="Áåçûìÿííûé_ãðàäèåíò_342-5" x1="63.5" y1="63.46" x2="73.23" y2="63.46" xlink:href="#Áåçûìÿííûé_ãðàäèåíò_342"/><linearGradient id="Áåçûìÿííûé_ãðàäèåíò_348-3" x1="82.55" y1="47.82" x2="87.56" y2="47.82" xlink:href="#Áåçûìÿííûé_ãðàäèåíò_348"/><linearGradient id="Áåçûìÿííûé_ãðàäèåíò_4" x1="81.35" y1="58.74" x2="97.16" y2="58.74" gradientTransform="matrix(-1, 0.06, 0.06, 1, 204.56, -50.79)" gradientUnits="userSpaceOnUse"><stop offset="0"/><stop offset="1" stop-color="#b0c9ff"/></linearGradient><linearGradient id="Áåçûìÿííûé_ãðàäèåíò_342-6" x1="82.02" y1="80.07" x2="109.39" y2="80.07" xlink:href="#Áåçûìÿííûé_ãðàäèåíò_342"/><linearGradient id="Áåçûìÿííûé_ãðàäèåíò_342-7" x1="84.99" y1="79.34" x2="112.43" y2="79.34" xlink:href="#Áåçûìÿííûé_ãðàäèåíò_342"/><linearGradient id="Áåçûìÿííûé_ãðàäèåíò_342-8" x1="67.52" y1="72.98" x2="209.45" y2="72.98" xlink:href="#Áåçûìÿííûé_ãðàäèåíò_342"/><linearGradient id="Áåçûìÿííûé_ãðàäèåíò_352-9" x1="88.22" y1="75.75" x2="112.52" y2="75.75" xlink:href="#Áåçûìÿííûé_ãðàäèåíò_352"/><linearGradient id="Áåçûìÿííûé_ãðàäèåíò_352-10" x1="112.38" y1="104.61" x2="123.31" y2="104.61" gradientTransform="matrix(-1, 0, 0, 1, 217.66, -73.92)" xlink:href="#Áåçûìÿííûé_ãðàäèåíò_352"/><linearGradient id="Áåçûìÿííûé_ãðàäèåíò_342-9" x1="96.42" y1="108.84" x2="119.35" y2="108.84" gradientTransform="matrix(-1, 0, 0, 1, 217.16, -74.48)" xlink:href="#Áåçûìÿííûé_ãðàäèåíò_342"/><linearGradient id="Áåçûìÿííûé_ãðàäèåíò_348-4" x1="107.04" y1="77.29" x2="107.04" y2="67.84" xlink:href="#Áåçûìÿííûé_ãðàäèåíò_348"/><linearGradient id="Áåçûìÿííûé_ãðàäèåíò_348-5" x1="106.09" y1="78.95" x2="106.09" y2="77.37" xlink:href="#Áåçûìÿííûé_ãðàäèåíò_348"/><linearGradient id="Áåçûìÿííûé_ãðàäèåíò_351" x1="115" y1="104.29" x2="123.12" y2="104.29" gradientTransform="matrix(-1, 0, 0, 1, 217.66, -73.91)" gradientUnits="userSpaceOnUse"><stop offset="0" stop-color="#ebdcff"/><stop offset="1" stop-color="#b6b9ef"/></linearGradient><linearGradient id="Áåçûìÿííûé_ãðàäèåíò_350" x1="110.71" y1="79.81" x2="110.71" y2="69.33" gradientTransform="matrix(-1, 0.06, 0.06, 1, 204.56, -50.79)" gradientUnits="userSpaceOnUse"><stop offset="0" stop-color="#533c56"/><stop offset="1" stop-color="#8e7484"/></linearGradient><linearGradient id="Áåçûìÿííûé_ãðàäèåíò_349-13" x1="107.57" y1="74.87" x2="112.24" y2="74.87" xlink:href="#Áåçûìÿííûé_ãðàäèåíò_349"/><linearGradient id="Áåçûìÿííûé_ãðàäèåíò_348-6" x1="113.19" y1="76.96" x2="113.19" y2="68.43" xlink:href="#Áåçûìÿííûé_ãðàäèåíò_348"/><linearGradient id="Áåçûìÿííûé_ãðàäèåíò_348-7" x1="88.64" y1="70.99" x2="107.65" y2="70.99" xlink:href="#Áåçûìÿííûé_ãðàäèåíò_348"/><linearGradient id="Áåçûìÿííûé_ãðàäèåíò_4-2" x1="89.12" y1="82.35" x2="109.23" y2="82.35" xlink:href="#Áåçûìÿííûé_ãðàäèåíò_4"/><linearGradient id="Áåçûìÿííûé_ãðàäèåíò_342-10" x1="107.57" y1="77.07" x2="113.27" y2="77.07" xlink:href="#Áåçûìÿííûé_ãðàäèåíò_342"/><linearGradient id="Áåçûìÿííûé_ãðàäèåíò_4-3" x1="103.85" y1="99.58" x2="117.84" y2="99.58" gradientTransform="matrix(-1, 0, 0, 1, 217.16, -74.48)" xlink:href="#Áåçûìÿííûé_ãðàäèåíò_4"/><linearGradient id="Áåçûìÿííûé_ãðàäèåíò_4-4" x1="96.53" y1="105.5" x2="112.7" y2="105.5" gradientTransform="matrix(-1, 0, 0, 1, 217.16, -74.48)" xlink:href="#Áåçûìÿííûé_ãðàäèåíò_4"/><linearGradient id="Áåçûìÿííûé_ãðàäèåíò_4-5" x1="100.5" y1="47.55" x2="167.77" y2="47.55" gradientTransform="matrix(-1, 0.1, 0.1, 1, 194.75, -40.97)" xlink:href="#Áåçûìÿííûé_ãðàäèåíò_4"/><linearGradient id="Áåçûìÿííûé_ãðàäèåíò_342-11" x1="112.48" y1="63.99" x2="133.34" y2="63.99" xlink:href="#Áåçûìÿííûé_ãðàäèåíò_342"/><linearGradient id="Áåçûìÿííûé_ãðàäèåíò_342-12" x1="134.5" y1="61.52" x2="134.51" y2="61.52" xlink:href="#Áåçûìÿííûé_ãðàäèåíò_342"/><linearGradient id="Áåçûìÿííûé_ãðàäèåíò_345" x1="159.98" y1="81.79" x2="167.4" y2="81.79" gradientTransform="matrix(-1, 0.06, 0.06, 1, 204.56, -50.79)" gradientUnits="userSpaceOnUse"><stop offset="0" stop-color="#e6e5ff"/><stop offset="1" stop-color="#e3ffed"/></linearGradient><linearGradient id="Áåçûìÿííûé_ãðàäèåíò_345-2" x1="149.12" y1="83.2" x2="178.34" y2="83.2" xlink:href="#Áåçûìÿííûé_ãðàäèåíò_345"/><linearGradient id="Áåçûìÿííûé_ãðàäèåíò_4-6" x1="162.35" y1="84.14" x2="203.41" y2="84.14" xlink:href="#Áåçûìÿííûé_ãðàäèåíò_4"/><linearGradient id="Áåçûìÿííûé_ãðàäèåíò_4-7" x1="203.41" y1="80.41" x2="203.48" y2="80.41" xlink:href="#Áåçûìÿííûé_ãðàäèåíò_4"/><linearGradient id="Áåçûìÿííûé_ãðàäèåíò_347-10" x1="114.07" y1="68.67" x2="208.69" y2="68.67" xlink:href="#Áåçûìÿííûé_ãðàäèåíò_347"/><linearGradient id="Áåçûìÿííûé_ãðàäèåíò_342-13" x1="96.38" y1="86.19" x2="123.13" y2="86.19" xlink:href="#Áåçûìÿííûé_ãðàäèåíò_342"/><linearGradient id="Áåçûìÿííûé_ãðàäèåíò_342-14" x1="69.06" y1="87.93" x2="161.59" y2="87.93" xlink:href="#Áåçûìÿííûé_ãðàäèåíò_342"/><linearGradient id="Áåçûìÿííûé_ãðàäèåíò_4-8" x1="68.2" y1="87.27" x2="157.43" y2="87.27" xlink:href="#Áåçûìÿííûé_ãðàäèåíò_4"/><linearGradient id="Áåçûìÿííûé_ãðàäèåíò_345-3" x1="119.72" y1="89.29" x2="144.03" y2="89.29" xlink:href="#Áåçûìÿííûé_ãðàäèåíò_345"/><linearGradient id="Áåçûìÿííûé_ãðàäèåíò_344" x1="184.49" y1="65.36" x2="185.77" y2="70.5" gradientTransform="matrix(-1, 0.06, 0.06, 1, 204.56, -50.79)" gradientUnits="userSpaceOnUse"><stop offset="0"/><stop offset="1" stop-color="#ccb381"/></linearGradient><linearGradient id="Áåçûìÿííûé_ãðàäèåíò_344-2" x1="189.5" y1="64.39" x2="190.72" y2="69.28" xlink:href="#Áåçûìÿííûé_ãðàäèåíò_344"/><linearGradient id="Áåçûìÿííûé_ãðàäèåíò_343" x1="112.07" y1="50.67" x2="124.91" y2="50.67" gradientTransform="matrix(-1, 0.1, 0.1, 1, 194.75, -40.97)" gradientUnits="userSpaceOnUse"><stop offset="0" stop-color="#e6e5ff"/><stop offset="1" stop-color="#cddbe0"/></linearGradient><linearGradient id="Áåçûìÿííûé_ãðàäèåíò_342-15" x1="152.38" y1="87.44" x2="167.83" y2="87.44" xlink:href="#Áåçûìÿííûé_ãðàäèåíò_342"/><linearGradient id="Áåçûìÿííûé_ãðàäèåíò_342-16" x1="162.35" y1="84.27" x2="176.16" y2="84.27" xlink:href="#Áåçûìÿííûé_ãðàäèåíò_342"/><linearGradient id="Áåçûìÿííûé_ãðàäèåíò_342-17" x1="176.9" y1="80.83" x2="209.21" y2="80.83" xlink:href="#Áåçûìÿííûé_ãðàäèåíò_342"/><linearGradient id="Áåçûìÿííûé_ãðàäèåíò_342-18" x1="151.33" y1="79.97" x2="209.45" y2="79.97" xlink:href="#Áåçûìÿííûé_ãðàäèåíò_342"/><linearGradient id="Áåçûìÿííûé_ãðàäèåíò_342-19" x1="170.13" y1="87.57" x2="170.2" y2="87.57" xlink:href="#Áåçûìÿííûé_ãðàäèåíò_342"/><linearGradient id="Áåçûìÿííûé_ãðàäèåíò_342-20" x1="171.71" y1="79.69" x2="209.45" y2="79.69" xlink:href="#Áåçûìÿííûé_ãðàäèåíò_342"/><linearGradient id="Áåçûìÿííûé_ãðàäèåíò_342-21" x1="67.48" y1="77.38" x2="92" y2="77.38" xlink:href="#Áåçûìÿííûé_ãðàäèåíò_342"/><linearGradient id="Áåçûìÿííûé_ãðàäèåíò_342-22" x1="67.48" y1="77.25" x2="80.98" y2="77.25" xlink:href="#Áåçûìÿííûé_ãðàäèåíò_342"/><linearGradient id="Áåçûìÿííûé_ãðàäèåíò_342-23" x1="103.76" y1="83.52" x2="134.96" y2="83.52" xlink:href="#Áåçûìÿííûé_ãðàäèåíò_342"/><linearGradient id="Áåçûìÿííûé_ãðàäèåíò_342-24" x1="56.75" y1="90.88" x2="69.06" y2="90.88" xlink:href="#Áåçûìÿííûé_ãðàäèåíò_342"/></defs><g class="cls-1"><g id="Layer_2" data-name="Layer 2"><g id="Layer_1-2" data-name="Layer 1"><path class="cls-2" d="M125.19,3.88S120,2.74,119.55,2l6,1.43Z"/><path class="cls-3" d="M127.13,1s-6.93-.47-7.77.47,6.09,1.94,6.09,1.94Z"/><path class="cls-4" d="M0,35.81a2.74,2.74,0,0,0,.88,1.84A28.55,28.55,0,0,0,6.3,41.79l0,0,.07,0c5,3,10.7,4.35,16.63,5.14,5.29.07,10.43.06,15.45,0h0L40,47h0c2.64,0,5.24-.11,7.82-.19h0q5.6-.18,11-.46a548.75,548.75,0,0,0,57.85-6.22l.19,0,.46-.08c.55-.1,1.11-.2,1.68-.32.84-.18,1.71-.39,2.62-.63h0a61.33,61.33,0,0,0,5.88-1.93c.66-.25,1.34-.52,2.05-.81h0c3.28-1.34,7.07-3.11,11.63-5.44h0c.87-.57.73-2.64-.18-2.9h0l-2.23-.38q-3.37-.57-6.69-1.1c-37.17-6-68.94-9-100.27-9.29-13.62,3.22-22,7.38-30.51,15.76l12.75,1.55a53.47,53.47,0,0,1-8.89-.09,36.25,36.25,0,0,1-4.6-.72h0a.08.08,0,0,1,0,0l-.05.07,0,.06A3.43,3.43,0,0,0,0,35.75Z"/><path class="cls-5" d="M.63,33.66S19.48,35.77,27.38,32C33.58,29.09,34.65,21.15,54,20c6.56-.4,18.63.38,31.74,1.59,2.51.23,5,.48,7.61.73,22.77,2.3,46.06,5.42,47.61,5.63-1.43-.25-21.48-3.6-44.73-6.57-6.79-.87-13.86-1.7-20.81-2.42h-.11l-.18,0-.56,0-.13,0h-.17l-.25,0h0C58.43,17.22,43.51,16.29,33.67,17l-1.78.16a45.09,45.09,0,0,0-15.28,4.58h0C8,26,1.7,31.8.63,33.66Z"/><path class="cls-6" d="M41.18,43.75A3.52,3.52,0,0,0,42.26,45h0c1.88,1.37,5.74,2.11,11.48,2.41,0,0,1.54,0,4.15.1h0c8.94.18,30.3.39,44.2-1.15,2.8-.31,3.31-5.12.85-5.95-11.26-2.8-49.91-3.25-57.38-1.14C43,40,40.29,41.9,41.18,43.75Z"/><path class="cls-7" d="M57.27,45.19c-5.61.38-8.6-.16-9.43-1.75-.71-1.36,1.43-2.78,3.47-3.32,5.9-1.57,36.39-1.31,45.28.72,1.93.61,1.36,1.54-.85,1.78C81.57,44.11,57.27,45.19,57.27,45.19Z"/><path class="cls-8" d="M94.54,30.4s-10.17,5.09-29.4,6.26-29.91,3-31.66,6.65,5,3.68,5,3.68l9.36-.22,58.38-5.11,12.82-2s4-3.93,2.14-8S94.54,30.4,94.54,30.4Z"/><path class="cls-9" d="M149.26,46.29S143.57,47,137.6,48c-9.54,1.56-92.22,2-89.89-4.79Z"/><path class="cls-10" d="M48.49,44.18c4.91,2.71,33.34,3.27,57.17,3.25h0c18.39,0,34-.38,34-.38l9.55-.76L92.69,40.2c-6.81-.34-20.42-.61-30.13-.35h0c-3.23.09-6,.23-8,.45a17,17,0,0,0-2.11.34,13.09,13.09,0,0,0-1.62.51c-1.68.66-2.24,1.44-2.4,2h0A1.46,1.46,0,0,0,48.49,44.18Z"/><polygon class="cls-11" points="149.26 46.29 153.55 40.18 150.13 40.39 139.71 47.05 149.26 46.29"/><path class="cls-12" d="M112.12,23.72c1.1,1,24.7,3.81,24.7,3.81l7-22.24,3.52-.86S130.3-1.26,127,.33a10.28,10.28,0,0,0-2.44,2.95h0l0,0c-3,4.47-7.82,12.92-12.92,18.68C111.66,22,111,22.74,112.12,23.72Z"/><path class="cls-13" d="M113.61,23.62c.39.36,3.63.95,7.61,1.57,6.55,1,15.11,2.11,16.33,2.27h.15L144.51,5.9l.21-.67,3.52-.85S131.18-1.31,127.92.28c-2,1-7.51,13.36-14.44,21.2A1.53,1.53,0,0,0,113.61,23.62Z"/><path class="cls-14" d="M28.46,31.08l2-4.95a34.77,34.77,0,0,1-13.85-4.36A89,89,0,0,0,6.53,28,57.19,57.19,0,0,0,28.46,31.08Z"/><path class="cls-15" d="M16.17,22S19,25.09,29.72,26.63l-1.5,3.75s-5.93,1.44-20.68-3.05C7.54,27.33,13.29,23,16.17,22Z"/><path class="cls-16" d="M88.66,32.75a1.51,1.51,0,0,0,1.2,1.49l.3,0a1.52,1.52,0,0,0,1.53-1.5l0-1.87a1.52,1.52,0,0,0-1.5-1.52H90.1l-.2,0a1.53,1.53,0,0,0-1.22,1.47Z"/><path class="cls-17" d="M82.72,32.69a1.52,1.52,0,0,0,1.2,1.5,1.45,1.45,0,0,0,.3,0,1.52,1.52,0,0,0,1.53-1.5V30.86a1.52,1.52,0,0,0-1.5-1.53h-.1l-.2,0a1.5,1.5,0,0,0-1.22,1.47Z"/><path class="cls-18" d="M76.78,32.64A1.5,1.5,0,0,0,78,34.13l.3,0a1.52,1.52,0,0,0,1.52-1.5l0-1.87a1.51,1.51,0,0,0-1.5-1.52h-.11l-.19,0a1.54,1.54,0,0,0-1.23,1.48Z"/><path class="cls-19" d="M70.83,32.58a1.52,1.52,0,0,0,3,0l0-1.86a1.53,1.53,0,0,0-1.5-1.53h-.11l-.2,0a1.51,1.51,0,0,0-1.22,1.47Z"/><path class="cls-20" d="M64.89,32.53A1.5,1.5,0,0,0,66.09,34a1.48,1.48,0,0,0,1.83-1.46V30.69a1.52,1.52,0,0,0-1.5-1.52h-.1a.58.58,0,0,0-.19,0,1.5,1.5,0,0,0-1.23,1.47Z"/><path class="cls-21" d="M59,32.47a1.51,1.51,0,1,0,3,0l0-1.86a1.52,1.52,0,0,0-1.5-1.53h-.1l-.2,0A1.52,1.52,0,0,0,59,30.61Z"/><path class="cls-22" d="M53,32.42a1.51,1.51,0,0,0,1.2,1.49,1,1,0,0,0,.3,0A1.53,1.53,0,0,0,56,32.45V30.59a1.51,1.51,0,0,0-1.49-1.53h-.11a1.25,1.25,0,0,0-.19,0A1.52,1.52,0,0,0,53,30.56Z"/><path class="cls-23" d="M47.06,32.37a1.52,1.52,0,0,0,1.19,1.49,1.55,1.55,0,0,0,.31,0,1.5,1.5,0,0,0,1.52-1.5l0-1.86A1.5,1.5,0,0,0,48.6,29a.17.17,0,0,0-.1,0l-.2,0a1.52,1.52,0,0,0-1.23,1.47Z"/><path class="cls-24" d="M88.66,32.75a1.23,1.23,0,1,0,2.42,0l0-1.86a1.24,1.24,0,1,0-2.42,0Z"/><path class="cls-25" d="M82.72,32.69a1.24,1.24,0,1,0,2.42,0l0-1.87a1.23,1.23,0,1,0-2.42,0Z"/><path class="cls-26" d="M76.78,32.64A1.5,1.5,0,0,0,78,34.13a1.52,1.52,0,0,0,1.22-1.47l0-1.86a1.24,1.24,0,1,0-2.43,0Z"/><path class="cls-27" d="M70.83,32.58a1.53,1.53,0,0,0,1.2,1.5,1.52,1.52,0,0,0,1.22-1.47l0-1.87a1.23,1.23,0,1,0-2.42,0Z"/><path class="cls-28" d="M64.89,32.53a1.23,1.23,0,1,0,2.42,0l0-1.86a1.23,1.23,0,1,0-2.42,0Z"/><path class="cls-29" d="M59,32.47A1.51,1.51,0,0,0,60.14,34a1.52,1.52,0,0,0,1.23-1.47V30.64a1.51,1.51,0,0,0-1.19-1.5A1.52,1.52,0,0,0,59,30.61Z"/><path class="cls-30" d="M53,32.42a1.51,1.51,0,0,0,1.2,1.49,1.5,1.5,0,0,0,1.22-1.47l0-1.86a1.51,1.51,0,0,0-1.19-1.49A1.52,1.52,0,0,0,53,30.56Z"/><path class="cls-31" d="M47.06,32.37a1.52,1.52,0,0,0,1.19,1.49,1.52,1.52,0,0,0,1.23-1.47l0-1.86A1.53,1.53,0,0,0,48.3,29a1.52,1.52,0,0,0-1.23,1.47Z"/><polygon class="cls-32" points="25.45 25.79 24.1 30.72 23.24 30.53 25.08 25.58 25.45 25.79"/><polygon class="cls-33" points="17.48 22.96 10.99 28.83 9.98 28.44 17.16 22.74 17.48 22.96"/><path class="cls-34" d="M121.22,25.19l16.33,2.27h.15L144.51,5.9l0,0L128,3.87a30.1,30.1,0,0,1,6.19,15C135,26.28,121.22,25.19,121.22,25.19Z"/><path class="cls-35" d="M140,20.33s-5.06-12.74-11.1-16.09l15.57,1.94Z"/><path class="cls-36" d="M141.59,15.14s.31-6.92-1.78-8.17-11-2.73-11-2.73l15.57,1.94Z"/><path class="cls-37" d="M130.72,0A4.2,4.2,0,0,0,127,2.37c-1.49,2.53-8,16.34-9.76,18.28S112.6,22,112.6,22s7.51-10.76,10.69-15.48S125.91-.31,130.72,0Z"/><path class="cls-38" d="M127.26,3.09c-.33-1.9,16.29-.73,16.14,1.14S127.67,5.49,127.26,3.09Z"/><path class="cls-39" d="M159.45,6.32a45.62,45.62,0,0,1-5.22.67c-2.54.16-24-2.31-25.77-3.14Z"/><path class="cls-40" d="M128.46,3.85l25.71,2.8,5.28-.33S146.79,4,141.6,3.17C135.88,2.3,125.72,1.79,128.46,3.85Z"/><path class="cls-41" d="M154.4,6.47c.66,0-23.08-4.41-25.21-3.51S154,6.5,154.4,6.47Z"/><path class="cls-42" d="M144.42,6.18l-6.72,21.3L136,27.24S144.79,10.63,142.48,6Z"/><path class="cls-43" d="M124.37,2.82l.7-1s-4.13-.79-4.94-.19S124.37,2.82,124.37,2.82Z"/><path class="cls-44" d="M111.66,22a4,4,0,0,0,.94,0c.67,0,8.9,2.53,11.77-.72,4.82-5.44,1.21-17.88,1.21-17.88,0-.36-.93-.14-1-.12h0l0,0C121.58,7.77,116.76,16.22,111.66,22Z"/><path class="cls-45" d="M100.38,38s9.2,2.5,16.35,2.06l.19,0,2.14-.4a56,56,0,0,0,8.51-2.57l.06-.06c1.09-1.23-7-7.8-7-7.8Z"/><path class="cls-46" d="M97.27,37s9.2,2.5,16.35,2.06l.19,0,2.14-.4A56,56,0,0,0,124.46,36l.06-.06c1.09-1.23-3.9-6.93-3.9-6.93Z"/><path class="cls-47" d="M0,35.81a2.5,2.5,0,0,0,.88,1.84s7.3,3.67,18.92,2.29l.52-.06c12.61-1.64,16.9-8.66,32.34-12.32s53.19,9.17,70.4,6.47c16.16-2.53,18-3.13,18.19-3.19h0a2,2,0,0,0-.18-2.9s-7.49,1.81-29.18,1.63-49.59-9.62-66.74-2.67c-10.23,4.14-21.27,7-31,7.58A47.59,47.59,0,0,1,.64,33.66h0a.08.08,0,0,1,0,0l-.05.07,0,.06A4.09,4.09,0,0,0,0,35.75Z"/><path class="cls-48" d="M97.17,36.73a7.6,7.6,0,0,0,3.4,1.66c5.27,1.46,14.65,1.42,19.07-2.13a3.45,3.45,0,0,0,.87-1.18,7.53,7.53,0,0,0,.11-6,3.44,3.44,0,0,0-.85-1.14,17.79,17.79,0,0,0-6.65-3.34A38.85,38.85,0,0,0,101.21,23c-.48,0-.94,0-1.4.08h0l-.63.06Z"/><ellipse class="cls-49" cx="99.81" cy="30.7" rx="5.46" ry="7.57" transform="translate(-0.15 0.48) rotate(-0.27)"/><path class="cls-50" d="M121.2,31.61s-1.26,1.93-8.23,2.76-11-.17-11-.17l-3.62,3s16.36,3.53,22.6-3.52A3.43,3.43,0,0,0,121.2,31.61Z"/><path class="cls-51" d="M104.55,32.74l-1.89-.26s1.43-6.57-3.16-8.9h1.3S105.34,25,104.55,32.74Z"/><polygon class="cls-52" points="104.49 33.22 104.25 34.41 102.35 33.83 102.57 32.94 104.49 33.22"/><ellipse class="cls-53" cx="98.59" cy="30.38" rx="4.06" ry="6.8" transform="translate(-0.14 0.47) rotate(-0.27)"/><path class="cls-54" d="M95.24,30.39A8.22,8.22,0,0,0,96,33.86,5,5,0,0,0,96.71,35a2.57,2.57,0,0,0,1.91,1h.14c1.78-.13,3.2-2.6,3.18-5.62a8.64,8.64,0,0,0-.06-1h0a6.55,6.55,0,0,0-1.56-3.76,2.44,2.44,0,0,0-1.75-.8C96.72,24.77,95.23,27.29,95.24,30.39Z"/><path class="cls-55" d="M96.15,33.63l.09.19a5.19,5.19,0,0,0,.59.88,2.43,2.43,0,0,0,1.61.91h.31c1.67-.12,3-2.42,3-5.25,0-.14,0-.29,0-.43s0-.36,0-.53h0a6,6,0,0,0-1.47-3.51l-.27-.25a2.19,2.19,0,0,0-1.36-.51c-1.73,0-3.12,2.37-3.11,5.26A7.66,7.66,0,0,0,96.15,33.63Z"/><path class="cls-56" d="M97.45,33.56a6.12,6.12,0,0,0,1,2h.31c1.67-.12,3-2.42,3-5.25q0-.49-.06-1h0a6,6,0,0,0-1.47-3.51l-.27-.25c-1.6.43-2.81,2.76-2.8,5.56A8.85,8.85,0,0,0,97.45,33.56Z"/><path class="cls-57" d="M97.39,24.53s-3.7,2.52-2.17,8.44h-.37s-1.65-5.36,2.27-8.67Z"/><path class="cls-58" d="M101.21,23a5.63,5.63,0,0,1,3.24,2.18c11.51-.06,16,3.67,16.17,3.81a3.56,3.56,0,0,0-.84-1.14C116.06,24.56,107.84,22.82,101.21,23Z"/><path class="cls-59" d="M100.57,38.39c5.27,1.46,14.65,1.42,19.07-2.13a3.45,3.45,0,0,0,.87-1.18c-1.78.83-7,4.62-18.65,2.77A5.71,5.71,0,0,1,100.57,38.39Z"/><path class="cls-60" d="M96.24,33.82a5.19,5.19,0,0,0,.59.88,2.43,2.43,0,0,0,1.61.91h.31c1.67-.12,3-2.42,3-5.25,0-.14,0-.29,0-.43a6.07,6.07,0,0,1-4.26,3.63A11.59,11.59,0,0,1,96.24,33.82Z"/><path class="cls-61" d="M99.77,23.13s3.84-.11,5.21,5.15c0,0,11.66-.24,8.14-3.73A38.85,38.85,0,0,0,101.21,23c-.48,0-.94,0-1.4.08h0Z"/><path class="cls-62" d="M121.05,30.27a31.51,31.51,0,0,0-15.77,1.42L105,33.22a21.31,21.31,0,0,1,9.12-2.49c5.79-.42,7,0,7,0Z"/><path class="cls-63" d="M40.12,20.86s9.49-2.43,30.07-1.09c5.83.37,10.74.71,14.8,1l3.24.23h0c7.66.54,11.4.83,11.71.85-.36,0-5.68-.75-13.32-1.62l-3.55-.4C66.73,18,42.86,15.86,31.89,17.16,31.89,17.16,40.43,17,40.12,20.86Z"/><path class="cls-64" d="M75.4,21.77c.54.05,12.3,1.22,18,.52a5.16,5.16,0,0,0,2.85-.9l0,0c-6.79-.87-13.86-1.7-20.81-2.42,3.43.37,12,1.33,12.77,2.05.32.28-.78.46-2.45.58C82.14,21.81,75.78,21.77,75.4,21.77Z"/><path class="cls-65" d="M74.05,18.79h0Z"/><path class="cls-66" d="M9.49,29.18l-3-1.12A42.83,42.83,0,0,0,1,33.13S5.56,29.42,9.49,29.18Z"/><path class="cls-67" d="M49.82,39.86a4.78,4.78,0,0,0-2.59,2.3l-4.76-.78a12.19,12.19,0,0,1,5-2.1Z"/><path class="cls-68" d="M60.51,37s-20.31.94-25.43,5.51,7.73,4.44,7.73,4.44S29.43,47.72,32,42.66C34.64,37.4,60.51,37,60.51,37Z"/><path class="cls-69" d="M6.42,41.86c5,3,10.7,4.35,16.63,5.14,8.62.11,16.87,0,24.81-.23l-3.66-.83s-14.58.43-22.22-.15A45.06,45.06,0,0,1,6.42,41.86Z"/><path class="cls-70" d="M6.35,41.82l.07,0Z"/><path class="cls-71" d="M95,27.25s-27.28-6.78-43.45-4.71c-13.46,1.72-18.35,7.89-29.44,10.2a69.57,69.57,0,0,1-21.52.92s8.24,2.15,20.9,0c11.37-2,20.26-9.45,33.81-10.28,11.74-.71,39.38,5,39.38,5Z"/><path class="cls-66" d="M23.15,33.41l-.61-.75A78.94,78.94,0,0,1,13.21,34l0,.51S20,34.36,23.15,33.41Z"/><path class="cls-66" d="M16.58,21.77l.83.47a33.71,33.71,0,0,1,10.67-3.91c6.44-1.29,9.39-.42,9.54-.37a10.82,10.82,0,0,0-3.95-1l-1.78.16a45.09,45.09,0,0,0-15.28,4.58h0Z"/><path class="cls-72" d="M113.69,42.46s-22.61,1.17-26.2.27,10-2,10-2Z"/><path class="cls-73" d="M48.4,43.19h0c3.09,1.25,32.43,3.55,43.58,3.63s48.19-.07,48.19-.07l1.11-.7s-16.8.08-48.47-.41c-31.34-.48-41.8-4.41-42-4.49C49.12,41.81,48.56,42.59,48.4,43.19Z"/><path class="cls-74" d="M142.1,45.52l-.82.53s-69.11-.68-88.86-5.41l3.68-.5S112.46,46.25,142.1,45.52Z"/><path class="cls-75" d="M90.6,47.35l-1.3-.58s-16.89-.47-23.17-1.41l1.2,1.34S87,47.32,90.6,47.35Z"/><polygon class="cls-76" points="29 26.52 22.3 30.45 18.82 30.02 26.01 25.98 29 26.52"/><polygon class="cls-77" points="23.76 25.82 17.11 29.72 14.01 29.07 20.77 25.28 23.76 25.82"/><path class="cls-66" d="M24.77,31.19l-.28-.6a46.53,46.53,0,0,1-6-.63l.42.86S22.8,31.22,24.77,31.19Z"/><path class="cls-66" d="M18,30.71l-.59-.93-2.34-.48.52,1S17.48,30.64,18,30.71Z"/><path class="cls-66" d="M18,23.27l-.21-.81-1.22-.72-.43.22A5.92,5.92,0,0,0,18,23.27Z"/><path class="cls-78" d="M75.41,21.77c1.46.26,12.9.54,12.82-.79h0c0-.28-.64-.54-1.61-.77l-3.55-.4c1,.22,1.74.49,1.9.79a.28.28,0,0,1,0,.15C84.74,21.8,75.78,21.77,75.41,21.77Z"/><path class="cls-79" d="M42.26,45h0c1.88,1.37,5.74,2.11,11.48,2.41,0,0,1.54,0,4.15.1a61.51,61.51,0,0,1-8.47-2A69,69,0,0,1,42.26,45Z"/><path class="cls-80" d="M47.86,46.77S35.09,47.41,34,44.88s6-4.81,6-4.81-6,2.59-4.79,4.63c1,1.57,8.65,1.1,8.65,1.1Z"/><path class="cls-81" d="M33.25,46.26s-1.83-.78-1.92-2.2c0,0-9.37,1.35-17.52-.21A28.65,28.65,0,0,1,.32,37S4.92,43,16.46,45,33.25,46.26,33.25,46.26Z"/><path class="cls-82" d="M0,35.81a2.5,2.5,0,0,0,.88,1.84A28.55,28.55,0,0,0,6.3,41.79l0,0,.07,0c5,3,10.7,4.35,16.63,5.14,5.29.07,10.43.06,15.45,0h0L40,47h0c2.64,0,5.24-.11,7.82-.19h0q5.6-.18,11-.46L48.49,44.18s-4.94.13-7.1-.08-3.83.46-6.2.6A5.83,5.83,0,0,1,31.68,44a22.91,22.91,0,0,1-11.88-4.1,20.73,20.73,0,0,1-5.46-5.44l-.21,0a53.47,53.47,0,0,1-8.89-.09,36.25,36.25,0,0,1-4.6-.72h0a.08.08,0,0,1,0,0l-.05.07,0,.06A3.43,3.43,0,0,0,0,35.75Z"/><path class="cls-83" d="M40,47h0Z"/><path class="cls-84" d="M0,35.81a2.5,2.5,0,0,0,.88,1.84A28.55,28.55,0,0,0,6.3,41.79l0,0,.07,0c5,3,10.7,4.35,16.63,5.14,5.29.07,10.43.06,15.45,0a15.87,15.87,0,0,1-5.28-1.17s-9.87.56-17.54-2.53A20.27,20.27,0,0,1,5.24,34.38a36.25,36.25,0,0,1-4.6-.72h0a.08.08,0,0,1,0,0l-.05.07,0,.06A3.43,3.43,0,0,0,0,35.75Z"/><path class="cls-85" d="M121.66,39h0a61.33,61.33,0,0,0,5.88-1.93,138.15,138.15,0,0,0,13.68-6.25h0c.87-.57.73-2.64-.18-2.9h0l-2.23-.38-1.15-.07L117,24.82s7,2.11,8.86,6.39S121.66,39,121.66,39Z"/><path class="cls-86" d="M129.62,36.28c3.28-1.34,7.07-3.11,11.63-5.44h0c.87-.57.73-2.64-.18-2.9h0c-.74-.13-1.71-.24-2.45-.34-2.59-.35-4.86-.61-7.07-1l-3.44-.48s6.3,1.6,5.33,4.91A10.48,10.48,0,0,1,129.62,36.28Z"/><path class="cls-87" d="M103.9,41.41s-4.32-3-29.13-3.4c0,0,23.75-1.52,31.47,3.65Z"/><polygon class="cls-88" points="141.33 46.92 151.05 40.71 153.27 40.58 149.26 46.29 141.33 46.92"/></g></g></g></svg>