<svg xmlns="http://www.w3.org/2000/svg" xmlns:xlink="http://www.w3.org/1999/xlink" width="568.34" height="441.28" viewBox="0 0 568.34 441.28"><defs><style>.cls-1{isolation:isolate;}.cls-2{opacity:0.36;}.cls-3{fill:url(#Áåçûìÿííûé_ãðàäèåíò_12);}.cls-4{fill:url(#Áåçûìÿííûé_ãðàäèåíò_6);}.cls-5{fill:#02bbfc;}.cls-26,.cls-43,.cls-44,.cls-45,.cls-46,.cls-48,.cls-6,.cls-74{mix-blend-mode:screen;}.cls-6{fill:url(#Áåçûìÿííûé_ãðàäèåíò_137);}.cls-7{fill:#ffd663;}.cls-8{fill:url(#Áåçûìÿííûé_ãðàäèåíò_178);}.cls-15,.cls-9{fill:#540d37;}.cls-14,.cls-75,.cls-9{mix-blend-mode:multiply;}.cls-9{opacity:0.2;}.cls-10{fill:url(#Áåçûìÿííûé_ãðàäèåíò_6-2);}.cls-11{fill:url(#Áåçûìÿííûé_ãðàäèåíò_178-2);}.cls-12{fill:url(#Áåçûìÿííûé_ãðàäèåíò_168);}.cls-13{fill:url(#Áåçûìÿííûé_ãðàäèåíò_8);}.cls-14{opacity:0.35;}.cls-16{fill:#02fffc;}.cls-17{fill:#028dfc;}.cls-18{fill:#ffc563;}.cls-19{fill:url(#Áåçûìÿííûé_ãðàäèåíò_273);}.cls-20{fill:#ffd686;}.cls-21{fill:url(#Áåçûìÿííûé_ãðàäèåíò_273-2);}.cls-22{fill:url(#Áåçûìÿííûé_ãðàäèåíò_8-2);}.cls-23{fill:url(#Áåçûìÿííûé_ãðàäèåíò_6-3);}.cls-24{fill:#f48629;}.cls-25{fill:#efbbfc;mix-blend-mode:soft-light;}.cls-25,.cls-43,.cls-44,.cls-45,.cls-46,.cls-75{opacity:0.5;}.cls-26{fill:url(#Áåçûìÿííûé_ãðàäèåíò_153);}.cls-27{fill:url(#Áåçûìÿííûé_ãðàäèåíò_11);}.cls-28{fill:url(#Áåçûìÿííûé_ãðàäèåíò_11-2);}.cls-29{fill:url(#Áåçûìÿííûé_ãðàäèåíò_11-3);}.cls-30{fill:url(#Áåçûìÿííûé_ãðàäèåíò_168-2);}.cls-31{fill:url(#Áåçûìÿííûé_ãðàäèåíò_168-3);}.cls-32{fill:url(#Áåçûìÿííûé_ãðàäèåíò_168-4);}.cls-33{fill:url(#Áåçûìÿííûé_ãðàäèåíò_168-5);}.cls-34{fill:url(#Áåçûìÿííûé_ãðàäèåíò_168-6);}.cls-35{fill:url(#Áåçûìÿííûé_ãðàäèåíò_168-7);}.cls-36{fill:url(#Áåçûìÿííûé_ãðàäèåíò_168-8);}.cls-37{fill:url(#Áåçûìÿííûé_ãðàäèåíò_168-9);}.cls-38{fill:url(#Áåçûìÿííûé_ãðàäèåíò_168-10);}.cls-39{fill:url(#Áåçûìÿííûé_ãðàäèåíò_168-11);}.cls-40{fill:url(#Áåçûìÿííûé_ãðàäèåíò_168-12);}.cls-41{fill:#ffba9f;}.cls-42{fill:#ffefc2;}.cls-43{fill:url(#Áåçûìÿííûé_ãðàäèåíò_13);}.cls-44{fill:url(#Áåçûìÿííûé_ãðàäèåíò_13-2);}.cls-45{fill:url(#Áåçûìÿííûé_ãðàäèåíò_13-3);}.cls-46{fill:url(#Áåçûìÿííûé_ãðàäèåíò_13-4);}.cls-47,.cls-56,.cls-57,.cls-58,.cls-80{mix-blend-mode:color-dodge;}.cls-47{fill:url(#Áåçûìÿííûé_ãðàäèåíò_125);}.cls-48{fill:url(#Áåçûìÿííûé_ãðàäèåíò_39);}.cls-49{fill:url(#Áåçûìÿííûé_ãðàäèåíò_8-3);}.cls-50{fill:url(#Áåçûìÿííûé_ãðàäèåíò_273-3);}.cls-51{fill:url(#Áåçûìÿííûé_ãðàäèåíò_19);}.cls-52{fill:url(#Áåçûìÿííûé_ãðàäèåíò_82);}.cls-53{fill:url(#Áåçûìÿííûé_ãðàäèåíò_10);}.cls-54{fill:url(#Áåçûìÿííûé_ãðàäèåíò_273-4);}.cls-55{fill:url(#Áåçûìÿííûé_ãðàäèåíò_273-5);}.cls-56{fill:url(#Áåçûìÿííûé_ãðàäèåíò_92);}.cls-57{fill:url(#Áåçûìÿííûé_ãðàäèåíò_125-2);}.cls-58{fill:url(#Áåçûìÿííûé_ãðàäèåíò_125-3);}.cls-59{fill:#f0eef5;}.cls-60{fill:#e5e2ee;}.cls-61{fill:#e1ddeb;}.cls-62{fill:url(#Áåçûìÿííûé_ãðàäèåíò_10-2);}.cls-63{fill:url(#Áåçûìÿííûé_ãðàäèåíò_10-3);}.cls-64{fill:url(#Áåçûìÿííûé_ãðàäèåíò_10-4);}.cls-65{fill:url(#Áåçûìÿííûé_ãðàäèåíò_10-5);}.cls-66{fill:url(#Áåçûìÿííûé_ãðàäèåíò_10-6);}.cls-67{fill:url(#Áåçûìÿííûé_ãðàäèåíò_6-4);}.cls-68{fill:url(#Áåçûìÿííûé_ãðàäèåíò_6-5);}.cls-69{fill:#ded8d7;}.cls-70{fill:url(#Áåçûìÿííûé_ãðàäèåíò_6-6);}.cls-71{fill:url(#Áåçûìÿííûé_ãðàäèåíò_273-6);}.cls-72{fill:url(#Áåçûìÿííûé_ãðàäèåíò_19-2);}.cls-73{fill:#c38eb6;}.cls-74{fill:url(#Áåçûìÿííûé_ãðàäèåíò_137-2);}.cls-76{fill:#b84f7f;}.cls-77{fill:url(#Áåçûìÿííûé_ãðàäèåíò_5);}.cls-78{fill:url(#Áåçûìÿííûé_ãðàäèåíò_42);}.cls-79{fill:url(#Áåçûìÿííûé_ãðàäèåíò_8-4);}.cls-80{opacity:0.61;fill:url(#Áåçûìÿííûé_ãðàäèåíò_221);}</style><linearGradient id="Áåçûìÿííûé_ãðàäèåíò_12" x1="76.3" y1="59.62" x2="76.3" y2="-163.11" gradientTransform="matrix(1, 0, 0, -1.36, 0, 87.56)" gradientUnits="userSpaceOnUse"><stop offset="0" stop-color="#d9485c"/><stop offset="1" stop-color="#e78d90"/></linearGradient><linearGradient id="Áåçûìÿííûé_ãðàäèåíò_6" x1="69.51" y1="60.09" x2="69.51" y2="-163.11" gradientTransform="matrix(1, 0, 0, -1.36, 0, 87.56)" gradientUnits="userSpaceOnUse"><stop offset="0" stop-color="#ff8f54"/><stop offset="1" stop-color="#ffcc65"/></linearGradient><linearGradient id="Áåçûìÿííûé_ãðàäèåíò_137" x1="50.95" y1="-77.1" x2="87.68" y2="-77.1" gradientTransform="matrix(1, 0, 0, -1.36, 0, 87.56)" gradientUnits="userSpaceOnUse"><stop offset="0"/><stop offset="0.13" stop-color="#040100"/><stop offset="0.26" stop-color="#100400"/><stop offset="0.38" stop-color="#230900"/><stop offset="0.51" stop-color="#3f1100"/><stop offset="0.63" stop-color="#621a00"/><stop offset="0.76" stop-color="#8e2600"/><stop offset="0.88" stop-color="#c13300"/><stop offset="1" stop-color="#fc4300"/><stop offset="1" stop-color="#fd4300"/></linearGradient><linearGradient id="Áåçûìÿííûé_ãðàäèåíò_178" x1="330.26" y1="-131.18" x2="330.26" y2="-208.54" gradientTransform="translate(17.05 549.39) scale(1 1.36)" gradientUnits="userSpaceOnUse"><stop offset="0" stop-color="#ca3946"/><stop offset="1" stop-color="#fe8957"/></linearGradient><linearGradient id="Áåçûìÿííûé_ãðàäèåíò_6-2" x1="335.77" y1="63.61" x2="335.77" y2="-141.13" gradientTransform="translate(677.57 87.56) rotate(180) scale(1 1.36)" xlink:href="#Áåçûìÿííûé_ãðàäèåíò_6"/><linearGradient id="Áåçûìÿííûé_ãðàäèåíò_178-2" x1="330.46" y1="63.61" x2="330.46" y2="-141.13" gradientTransform="translate(677.57 87.56) rotate(180) scale(1 1.36)" xlink:href="#Áåçûìÿííûé_ãðàäèåíò_178"/><linearGradient id="Áåçûìÿííûé_ãðàäèåíò_168" x1="119.01" y1="66.58" x2="119.01" y2="-84.99" gradientTransform="matrix(1, 0, 0, -1.36, 0, 87.56)" gradientUnits="userSpaceOnUse"><stop offset="0" stop-color="#d9485c"/><stop offset="1" stop-color="#fe8957"/></linearGradient><linearGradient id="Áåçûìÿííûé_ãðàäèåíò_8" x1="91.98" y1="69.29" x2="91.98" y2="-84.99" gradientTransform="matrix(1, 0, 0, -1.36, 0, 87.56)" gradientUnits="userSpaceOnUse"><stop offset="0" stop-color="#63163d"/><stop offset="1" stop-color="#95294d"/></linearGradient><linearGradient id="Áåçûìÿííûé_ãðàäèåíò_273" x1="418.4" y1="-99.49" x2="427.05" y2="-99.49" gradientTransform="matrix(1, 0, 0, -1.36, 0, 87.56)" gradientUnits="userSpaceOnUse"><stop offset="0" stop-color="#d9485c"/><stop offset="1" stop-color="#e76056"/></linearGradient><linearGradient id="Áåçûìÿííûé_ãðàäèåíò_273-2" x1="397.2" y1="70.88" x2="397.2" y2="-98.72" xlink:href="#Áåçûìÿííûé_ãðàäèåíò_273"/><linearGradient id="Áåçûìÿííûé_ãðàäèåíò_8-2" x1="426.47" y1="71.8" x2="426.47" y2="-98.72" xlink:href="#Áåçûìÿííûé_ãðàäèåíò_8"/><linearGradient id="Áåçûìÿííûé_ãðàäèåíò_6-3" x1="361.14" y1="71.8" x2="361.14" y2="-98.72" xlink:href="#Áåçûìÿííûé_ãðàäèåíò_6"/><linearGradient id="Áåçûìÿííûé_ãðàäèåíò_153" x1="346.69" y1="66.87" x2="346.69" y2="-65.88" gradientTransform="translate(734.95 87.56) rotate(180) scale(1 1.36)" gradientUnits="userSpaceOnUse"><stop offset="0"/><stop offset="0.1" stop-color="#100503"/><stop offset="0.29" stop-color="#3b130b"/><stop offset="0.56" stop-color="#7f2918"/><stop offset="0.89" stop-color="#dc4729"/><stop offset="1" stop-color="#fd522f"/></linearGradient><linearGradient id="Áåçûìÿííûé_ãðàäèåíò_11" x1="20.91" y1="69.08" x2="20.91" y2="-47.68" gradientTransform="matrix(1, 0, 0, -1.36, 0, 87.56)" gradientUnits="userSpaceOnUse"><stop offset="0.01" stop-color="#ffd88b"/><stop offset="0.63" stop-color="#ffa286"/><stop offset="1" stop-color="#fb787a"/></linearGradient><linearGradient id="Áåçûìÿííûé_ãðàäèåíò_11-2" x1="529.26" y1="69.08" x2="529.26" y2="-89.58" xlink:href="#Áåçûìÿííûé_ãðàäèåíò_11"/><linearGradient id="Áåçûìÿííûé_ãðàäèåíò_11-3" x1="552.72" y1="69.08" x2="552.72" y2="-47.68" xlink:href="#Áåçûìÿííûé_ãðàäèåíò_11"/><linearGradient id="Áåçûìÿííûé_ãðàäèåíò_168-2" x1="292.78" y1="67.9" x2="292.78" y2="-171.72" xlink:href="#Áåçûìÿííûé_ãðàäèåíò_168"/><linearGradient id="Áåçûìÿííûé_ãðàäèåíò_168-3" x1="301.56" y1="67.9" x2="301.56" y2="-102.26" xlink:href="#Áåçûìÿííûé_ãðàäèåíò_168"/><linearGradient id="Áåçûìÿííûé_ãðàäèåíò_168-4" x1="287.34" y1="67.9" x2="287.34" y2="-240.42" xlink:href="#Áåçûìÿííûé_ãðàäèåíò_168"/><linearGradient id="Áåçûìÿííûé_ãðàäèåíò_168-5" x1="287.97" y1="67.9" x2="287.97" y2="-240.42" xlink:href="#Áåçûìÿííûé_ãðàäèåíò_168"/><linearGradient id="Áåçûìÿííûé_ãðàäèåíò_168-6" x1="281.04" y1="67.9" x2="281.04" y2="-203.07" xlink:href="#Áåçûìÿííûé_ãðàäèåíò_168"/><linearGradient id="Áåçûìÿííûé_ãðàäèåíò_168-7" x1="277.2" y1="67.9" x2="277.2" y2="-131.53" xlink:href="#Áåçûìÿííûé_ãðàäèåíò_168"/><linearGradient id="Áåçûìÿííûé_ãðàäèåíò_168-8" x1="275.59" y1="67.9" x2="275.59" y2="-73.29" xlink:href="#Áåçûìÿííûé_ãðàäèåíò_168"/><linearGradient id="Áåçûìÿííûé_ãðàäèåíò_168-9" x1="272.84" y1="67.9" x2="272.84" y2="-24.76" xlink:href="#Áåçûìÿííûé_ãðàäèåíò_168"/><linearGradient id="Áåçûìÿííûé_ãðàäèåíò_168-10" x1="268.07" y1="67.9" x2="268.07" y2="17.59" xlink:href="#Áåçûìÿííûé_ãðàäèåíò_168"/><linearGradient id="Áåçûìÿííûé_ãðàäèåíò_168-11" x1="309.48" y1="67.9" x2="309.48" y2="-54.16" xlink:href="#Áåçûìÿííûé_ãðàäèåíò_168"/><linearGradient id="Áåçûìÿííûé_ãðàäèåíò_168-12" x1="318.83" y1="67.9" x2="318.83" y2="-5.67" xlink:href="#Áåçûìÿííûé_ãðàäèåíò_168"/><linearGradient id="Áåçûìÿííûé_ãðàäèåíò_13" x1="268.14" y1="42.75" x2="268.14" y2="21.57" gradientTransform="matrix(1, 0, 0, -1.36, 0, 87.56)" gradientUnits="userSpaceOnUse"><stop offset="0"/><stop offset="0.12" stop-color="#000104"/><stop offset="0.25" stop-color="#000511"/><stop offset="0.37" stop-color="#000c25"/><stop offset="0.5" stop-color="#001542"/><stop offset="0.63" stop-color="#002168"/><stop offset="0.76" stop-color="#003096"/><stop offset="0.89" stop-color="#0040cb"/><stop offset="1" stop-color="#0051ff"/></linearGradient><linearGradient id="Áåçûìÿííûé_ãðàäèåíò_13-2" x1="273.32" y1="0.25" x2="273.32" y2="-20.93" xlink:href="#Áåçûìÿííûé_ãðàäèåíò_13"/><linearGradient id="Áåçûìÿííûé_ãðàäèåíò_13-3" x1="311.01" y1="-30.07" x2="311.01" y2="-51.25" xlink:href="#Áåçûìÿííûé_ãðàäèåíò_13"/><linearGradient id="Áåçûìÿííûé_ãðàäèåíò_13-4" x1="302.98" y1="-78.61" x2="302.98" y2="-99.79" xlink:href="#Áåçûìÿííûé_ãðàäèåíò_13"/><radialGradient id="Áåçûìÿííûé_ãðàäèåíò_125" cx="97.86" cy="-104.1" r="2.2" gradientTransform="matrix(0.4, 0, 0, -2.72, 264.8, -91.52)" gradientUnits="userSpaceOnUse"><stop offset="0" stop-color="#3bcaff"/><stop offset="0.11" stop-color="#2fa1cb"/><stop offset="0.24" stop-color="#237796"/><stop offset="0.37" stop-color="#185268"/><stop offset="0.5" stop-color="#0f3542"/><stop offset="0.63" stop-color="#091e25"/><stop offset="0.75" stop-color="#040d11"/><stop offset="0.88" stop-color="#010304"/><stop offset="1"/></radialGradient><linearGradient id="Áåçûìÿííûé_ãðàäèåíò_39" x1="80.49" y1="-167.73" x2="80.49" y2="-283.3" gradientTransform="matrix(-1, 0, 0, 1.36, 372.11, 389.38)" gradientUnits="userSpaceOnUse"><stop offset="0"/><stop offset="0.12" stop-color="#040401"/><stop offset="0.25" stop-color="#110e05"/><stop offset="0.37" stop-color="#25200b"/><stop offset="0.5" stop-color="#423a14"/><stop offset="0.63" stop-color="#685a1f"/><stop offset="0.76" stop-color="#96822d"/><stop offset="0.89" stop-color="#cbb13d"/><stop offset="1" stop-color="#ffde4d"/></linearGradient><linearGradient id="Áåçûìÿííûé_ãðàäèåíò_8-3" x1="235.82" y1="68.63" x2="235.82" y2="-117.15" xlink:href="#Áåçûìÿííûé_ãðàäèåíò_8"/><linearGradient id="Áåçûìÿííûé_ãðàäèåíò_273-3" x1="165.46" y1="68.63" x2="165.46" y2="-149.63" xlink:href="#Áåçûìÿííûé_ãðàäèåíò_273"/><linearGradient id="Áåçûìÿííûé_ãðàäèåíò_19" x1="196.51" y1="68.63" x2="196.51" y2="-117.52" gradientTransform="matrix(1, 0, 0, -1.36, 0, 87.56)" gradientUnits="userSpaceOnUse"><stop offset="0" stop-color="#d03c51"/><stop offset="1" stop-color="#e55146"/></linearGradient><linearGradient id="Áåçûìÿííûé_ãðàäèåíò_82" x1="242.69" y1="68.63" x2="242.69" y2="-105.54" gradientTransform="matrix(1, 0, 0, -1.36, 0, 87.56)" gradientUnits="userSpaceOnUse"><stop offset="0" stop-color="#bcabc8"/><stop offset="1" stop-color="#cce5f2"/></linearGradient><linearGradient id="Áåçûìÿííûé_ãðàäèåíò_10" x1="242.17" y1="67.21" x2="242.17" y2="-105.54" gradientTransform="matrix(1, 0, 0, -1.36, 0, 87.56)" gradientUnits="userSpaceOnUse"><stop offset="0" stop-color="#d99daa"/><stop offset="1" stop-color="#c5c4d2"/></linearGradient><linearGradient id="Áåçûìÿííûé_ãðàäèåíò_273-4" x1="228.72" y1="67.61" x2="228.72" y2="-152.21" xlink:href="#Áåçûìÿííûé_ãðàäèåíò_273"/><linearGradient id="Áåçûìÿííûé_ãðàäèåíò_273-5" x1="203.36" y1="68.63" x2="203.36" y2="-152.21" xlink:href="#Áåçûìÿííûé_ãðàäèåíò_273"/><radialGradient id="Áåçûìÿííûé_ãðàäèåíò_92" cx="-221.46" cy="-101.18" r="4.53" gradientTransform="matrix(0.4, 0, 0, -2.74, 264.8, -89.99)" gradientUnits="userSpaceOnUse"><stop offset="0" stop-color="#f8ff2a"/><stop offset="0.11" stop-color="#c5cb21"/><stop offset="0.24" stop-color="#929619"/><stop offset="0.37" stop-color="#656811"/><stop offset="0.5" stop-color="#41420b"/><stop offset="0.63" stop-color="#242506"/><stop offset="0.75" stop-color="#101103"/><stop offset="0.88" stop-color="#040401"/><stop offset="1"/></radialGradient><radialGradient id="Áåçûìÿííûé_ãðàäèåíò_125-2" cx="-35.46" cy="-99.11" r="2.43" gradientTransform="matrix(3.08, 0, 0, -8.14, 290.25, -632.1)" xlink:href="#Áåçûìÿííûé_ãðàäèåíò_125"/><radialGradient id="Áåçûìÿííûé_ãðàäèåíò_125-3" cx="-38.73" cy="-83.08" r="2.43" gradientTransform="matrix(0.99, 0, 0, -5.09, 212.55, -331.7)" xlink:href="#Áåçûìÿííûé_ãðàäèåíò_125"/><linearGradient id="Áåçûìÿííûé_ãðàäèåíò_10-2" x1="240.19" y1="-7.42" x2="271.51" y2="-7.42" xlink:href="#Áåçûìÿííûé_ãðàäèåíò_10"/><linearGradient id="Áåçûìÿííûé_ãðàäèåíò_10-3" x1="242.56" y1="12.89" x2="268.89" y2="12.89" xlink:href="#Áåçûìÿííûé_ãðàäèåíò_10"/><linearGradient id="Áåçûìÿííûé_ãðàäèåíò_10-4" x1="243.25" y1="34.56" x2="274.01" y2="34.56" xlink:href="#Áåçûìÿííûé_ãðàäèåíò_10"/><linearGradient id="Áåçûìÿííûé_ãðàäèåíò_10-5" x1="232.43" y1="-42.75" x2="258.87" y2="-42.75" xlink:href="#Áåçûìÿííûé_ãðàäèåíò_10"/><linearGradient id="Áåçûìÿííûé_ãðàäèåíò_10-6" x1="236.9" y1="-25.6" x2="267.73" y2="-25.6" xlink:href="#Áåçûìÿííûé_ãðàäèåíò_10"/><linearGradient id="Áåçûìÿííûé_ãðàäèåíò_6-4" x1="462.35" y1="71.04" x2="462.35" y2="-152.17" xlink:href="#Áåçûìÿííûé_ãðàäèåíò_6"/><linearGradient id="Áåçûìÿííûé_ãðàäèåíò_6-5" x1="435.35" y1="71.04" x2="435.35" y2="-47.64" xlink:href="#Áåçûìÿííûé_ãðàäèåíò_6"/><linearGradient id="Áåçûìÿííûé_ãðàäèåíò_6-6" x1="451.03" y1="71.04" x2="451.03" y2="-133.85" xlink:href="#Áåçûìÿííûé_ãðàäèåíò_6"/><linearGradient id="Áåçûìÿííûé_ãðàäèåíò_273-6" x1="460.44" y1="71.04" x2="460.44" y2="-133.85" xlink:href="#Áåçûìÿííûé_ãðàäèåíò_273"/><linearGradient id="Áåçûìÿííûé_ãðàäèåíò_19-2" x1="496.55" y1="71.99" x2="496.55" y2="-152.17" xlink:href="#Áåçûìÿííûé_ãðàäèåíò_19"/><linearGradient id="Áåçûìÿííûé_ãðàäèåíò_137-2" x1="449.15" y1="48.13" x2="449.15" y2="-96.1" xlink:href="#Áåçûìÿííûé_ãðàäèåíò_137"/><linearGradient id="Áåçûìÿííûé_ãðàäèåíò_5" x1="42.39" y1="70" x2="42.39" y2="-74.85" gradientTransform="matrix(1, 0, 0, -1.36, 0, 87.56)" gradientUnits="userSpaceOnUse"><stop offset="0" stop-color="#d9485c"/><stop offset="1" stop-color="#e77f56"/></linearGradient><linearGradient id="Áåçûìÿííûé_ãðàäèåíò_42" x1="53.25" y1="-39.81" x2="53.25" y2="-74.85" gradientTransform="matrix(1, 0, 0, -1.36, 0, 87.56)" gradientUnits="userSpaceOnUse"><stop offset="0" stop-color="#ff8f54"/><stop offset="1" stop-color="#ffac4f"/></linearGradient><linearGradient id="Áåçûìÿííûé_ãðàäèåíò_8-4" x1="73.6" y1="70" x2="73.6" y2="-39.98" xlink:href="#Áåçûìÿííûé_ãðàäèåíò_8"/><radialGradient id="Áåçûìÿííûé_ãðàäèåíò_221" cx="228.48" cy="-111.07" r="5.22" gradientTransform="matrix(0.47, -16.77, -11.98, -0.62, -1074.93, 3890.87)" gradientUnits="userSpaceOnUse"><stop offset="0" stop-color="#ff7c60"/><stop offset="0.12" stop-color="#d1654f"/><stop offset="0.3" stop-color="#924737"/><stop offset="0.48" stop-color="#5e2e23"/><stop offset="0.64" stop-color="#351a14"/><stop offset="0.78" stop-color="#180c09"/><stop offset="0.91" stop-color="#060302"/><stop offset="1"/></radialGradient></defs><g class="cls-1"><g id="Layer_2" data-name="Layer 2"><g id="Layer_1-2" data-name="Layer 1"><g class="cls-2"><path class="cls-3" d="M94.29,6.7H89.64a52.9,52.9,0,0,0-8.9,0H78.86c-8.83.79-16.14-1.3-24.51.79,1,2.09,3.14,1,3.91,2.78a1,1,0,0,1,.32.73c.21,2.15.5,5.08.86,8.67a1,1,0,0,0,.21.6c1,1.85,4.11.81,5.16,1.85,0,2.09-4.18,1.05-4.61,2.72a.94.94,0,0,0-.18.7c.3,2.93.62,6.15,1,9.64l.08.81c-.43,1.81-2.53,2.86.25,4.18a1.65,1.65,0,0,1,.26.86l26.7,268.28,7.2-8.33V41.22c0-.58-.31-1.17-1.26-1.74C92,37.8,93,36.76,95.47,36.09V25.48a5.78,5.78,0,0,1,0-.72c-.38-1.59,2.75-.55,2.75-2.64,0-1-2.09-1-2.63-1.39a1.05,1.05,0,0,1-.15-.63V10.4a.83.83,0,0,0-.34-.69c-3.15-.13-2.1-2.22-.62-3C94.56,6.71,94.58,6.7,94.29,6.7Z"/><path class="cls-4" d="M87.9,6.7c-5.32-.25-11.6-.25-17.19,0H69.6C61.67,7.49,53.31,3.31,46,8.54a6.87,6.87,0,0,1,4.71,1.77.92.92,0,0,1,.25.74v8.77a.84.84,0,0,0,.24.61c0,1.69,2.12.65,3.16,1.69,1,2.09-3.13,1.05-3.29,2.94a1.58,1.58,0,0,0-.11.71V35.5a3.37,3.37,0,0,1-.88.82c-.94.44-3,.44-3,2.53,2.09,0,2.09,2.09,3.91,2.57V309.31H88.27V40.45a6.64,6.64,0,0,0-.28-.86,6.38,6.38,0,0,1,.21-3.36c0-.28,0-.55.07-.82V25.69a1.9,1.9,0,0,1,.09-.71c1.53-1.81,2.58-1.81,4.67-1.81-1-2.09-4.18,0-4.65-2.81a1.32,1.32,0,0,1-.11-.61V10.31a1.14,1.14,0,0,0-.15-.67c-1.36-1.1-1.36-2.15-.26-2.91Z"/><rect class="cls-5" x="50.95" y="289.51" width="22.04" height="2.31"/><rect class="cls-5" x="66.23" y="248.22" width="22.04" height="2.31"/><rect class="cls-5" x="82.33" y="271.33" width="5.94" height="2.31"/><rect class="cls-5" x="81.74" y="199.56" width="5.94" height="2.31"/><rect class="cls-5" x="50.95" y="223.34" width="5.94" height="2.31"/><polygon class="cls-6" points="51.18 302.83 50.95 166.32 57.3 166.61 57.3 81.91 66.89 81.91 66.89 212.89 73.14 212.89 73.14 273.7 87.68 273.46 87.68 302.83 51.18 302.83"/><polygon class="cls-7" points="335.32 265.89 352.63 265.89 338.66 371.06 335.32 358.88 335.32 265.89"/><rect class="cls-8" x="338.66" y="265.89" width="17.3" height="105.17" transform="translate(694.63 636.95) rotate(180)"/><polygon class="cls-9" points="355.86 368.81 355.96 321.37 353.02 321.47 353.02 292.03 348.57 292.03 348.57 337.55 345.68 337.55 345.68 358.69 338.94 358.6 338.94 368.81 355.86 368.81"/><path class="cls-10" d="M330,1.07c6.59.15,13.9.15,19.86,0h1.68c1.77.15,3.86.15,6,.15-1,0-1,0-1.21.85a1.05,1.05,0,0,0-.11.43q-.06.9-.18,2.34a3,3,0,0,1-.13.75c-1.51,2.95-5.69.86-6.73,2.95,2.09,0,4.18,0,6.28,1.73a2.55,2.55,0,0,1,.11.55c-.2,2.5-.43,5.43-.69,8.76a1,1,0,0,0,.13.71c1.49,1.83,2.53,1.83,4.62,1.83-1,2.09-4.18,1.05-4.82,2.72a1,1,0,0,0-.4.8q-.35,4.29-.72,9.17l-.07.89a42.27,42.27,0,0,0-3.4,3.15c2.09,0,2.09,1,3,2.38,0,.32-.05.63-.07,1-6.08,77.44-18.63,237.25-18.63,237.25l-5.23-7.66V40.8a2.29,2.29,0,0,0-.33-.48c-1.69.62-2.74-1.47-3.78-1.47,1-2.09,3.13-1.05,4.11-3.19v-9.4c0-.55,0-1.09,2-1.62,2.21-.43,5.35-.43,5.35-1.47,1-4.18-5.23,0-6.86-3.1a1.67,1.67,0,0,1-.53-1.43V11.11a2.4,2.4,0,0,0-.15-.57c-.83-2-4-1-5-3A8,8,0,0,0,329,5.71a1,1,0,0,0,.23-.77V2.1a1.07,1.07,0,0,1,.05-.37c0-.51,1.06-.51.66-.62Z"/><path class="cls-11" d="M335.58,1.07c4.13.15,9.36.15,13.81,0h1.92c4.08.15,7.22.15,11.4.15-1,0-1,0-1.16.85a1.21,1.21,0,0,0-.05.43V4.86a1.75,1.75,0,0,1-.12.76,4.87,4.87,0,0,1-3.9,1.87c1,2.09,3.14,1,3.93,2.85a1.37,1.37,0,0,1,.09.56v8.78c.16,2.44,4.34,1.4,3.3,3.49-1.05,1-2.09,1-3.3,2.59V35a1.49,1.49,0,0,1-.2.9c-.68,1.91-4.86-.18-3.82,3,1,2.09,3.14,0,3.71,1.65a2.37,2.37,0,0,1,.31.47V279.43H334.42v-238c-1-1.56-2-2.6-3.07-2.6,1-1.05,2.09-2.09,2.83-3a5,5,0,0,0,.24-.9V10.9a3,3,0,0,0-.18-.56c-.8-1.8-3.94-.76-5-2.85,2.09-1,4.18,0,5.06-1.87a2.07,2.07,0,0,0,.1-.76V2.5a2,2,0,0,1,0-.43c0-.85,0-.85,1-1Z"/><rect class="cls-5" x="345.51" y="261.22" width="15.99" height="2.13" transform="translate(707 524.56) rotate(180)"/><rect class="cls-5" x="334.42" y="223.23" width="15.99" height="2.13" transform="translate(684.83 448.6) rotate(180)"/><rect class="cls-5" x="339.32" y="307.84" width="15.99" height="2.13" transform="translate(694.63 617.81) rotate(180)"/><rect class="cls-5" x="334.42" y="244.5" width="4.31" height="2.13" transform="translate(673.15 491.13) rotate(180)"/><rect class="cls-5" x="334.84" y="178.47" width="4.31" height="2.13" transform="translate(674 359.07) rotate(180)"/><rect class="cls-5" x="340.26" y="339.58" width="4.31" height="2.13" transform="translate(684.83 681.3) rotate(180)"/><rect class="cls-5" x="357.18" y="200.35" width="4.31" height="2.13" transform="translate(718.68 402.83) rotate(180)"/><polygon class="cls-9" points="361.33 273.47 361.5 147.9 356.89 148.17 356.89 70.25 349.93 70.25 349.93 190.74 345.39 190.74 345.39 246.68 334.84 246.46 334.84 273.47 361.33 273.47"/><path class="cls-12" d="M141.45,5.48V1.93a.8.8,0,0,1,.33-.46C142.94.41,145.23.91,146,0H102.26l.18.17a4.23,4.23,0,0,0-3.89,2.25V5a.72.72,0,0,1-.18.57c-2.21,1.92-4.3.88-6.39,1.92,1,2.09,4.18,1,6.57,3.23v8.49a3.07,3.07,0,0,0,.08.85c.67,1,2.76,1,3.81,3.11a4.18,4.18,0,0,0-3.89,2.28v8.77c0,.68,0,1.37-1.52,2.07s-3.87,1.39-3.69,2.1,2.67,1.42,3.94,2.14a2.06,2.06,0,0,1,1.27,2.17V203.1h42.9V41.47c-1.38-3.67-4.52-3.67,0-6.32V25.38c.71-1.17,4.89-.12,3.84-3.26-1-1-3.13-1-3.84-2.15V10.61a2.11,2.11,0,0,0-.09-.7c-.25-1.37-1.29-2.42,0-3.85A1.92,1.92,0,0,0,141.45,5.48Z"/><path class="cls-13" d="M98.55,19.7V11.34a1.45,1.45,0,0,0-.15-.78C97.21,7.49,92,9.58,92,7.49c1-2.09,5.23,0,6.42-2a1.07,1.07,0,0,0,.15-.66V2.37A2.34,2.34,0,0,1,99,1.74c.17-1,1.47-1.35,2.41-1.74H90.74l.2.17c-2.09,1.05-3.14,2.09-5.28,2.06V4.86c0,.44-.2.89-1.22,1.36a27.56,27.56,0,0,0-2.91,1.27c0,2.09,2.09,3.14,4.13,3.18v8.45a4.05,4.05,0,0,0,.08.91,5.31,5.31,0,0,0,4.15,2.09c0,2.09-3.13,1.05-3.82,2.65a2.27,2.27,0,0,1-.41.49V35.58c-1,1.18-2,1.18-3.08,2.22-1,2.09,1,2.09,1.84,2.18.83.37,1.13.74,1.24,1.12V192.19L98.55,203.1v-160a2.75,2.75,0,0,0-.73-2.23c-.74-.74-3.31-1.47-4.28-2.19s1.1-1.45,3-2.16,2-1.42,2-2.13V25.3c.75-1.09,3.89-1.09,3.89-3.18C102.44,21.08,99.3,22.12,98.55,19.7Z"/><g class="cls-14"><path class="cls-15" d="M111.06,25.54V36.36c0,.7-.17,1.39-.14,2.1s.14,1.42.14,2.13V203.1h.48V39.49c0-.7,0-1.41,0-2.1V25.6c0-.31.19-.62.94-.93a1.58,1.58,0,0,1,.59-.38C112.18,24.38,111.36,24.62,111.06,25.54Z"/><path class="cls-15" d="M111.8,20.2a1.12,1.12,0,0,1-.26-.86V10.86a.92.92,0,0,0-.34-.7,3.71,3.71,0,0,0-2.81-1.06,4,4,0,0,1,2.67,1.76v8.46a1.29,1.29,0,0,0,.21.85c1.62.91,5.8.91,4.75,3a.85.85,0,0,1-.51.85c1.2,0,2.11-.24,1.56-1.9C116,21.08,113.93,21.08,111.8,20.2Z"/><path class="cls-15" d="M111.3,5.73a.68.68,0,0,0,.24-.56v-3a1.62,1.62,0,0,1,.3-.47,7.56,7.56,0,0,0,1.69-.62c-.68.26-1.49.39-2.19.62a1.54,1.54,0,0,0-.28.47v3a.7.7,0,0,1-.25.56c-1.06,1.76-3.15.72-4.19,1.76a1.35,1.35,0,0,0,.09.52C107.22,6.63,109.9,7.32,111.3,5.73Z"/></g><g class="cls-14"><path class="cls-15" d="M122.63,9.75a5.83,5.83,0,0,0-3.46-1.21C120.2,9.07,121.58,9.1,122.63,9.75Z"/><path class="cls-15" d="M124,5.54a1.3,1.3,0,0,0,.12-.57V2.42a1.37,1.37,0,0,1,.29-.95c0-1.3,1.06-1.3,2.11-1.3a1.36,1.36,0,0,0,0-.17h-.94a1.22,1.22,0,0,1-.07.17c-1,0-2.09,0-1.72,1.3a2.73,2.73,0,0,0-.12,1V5a3.63,3.63,0,0,1,0,.57,12.07,12.07,0,0,1-1.71,1C122.79,6.2,123.66,6,124,5.54Z"/><path class="cls-15" d="M125.94,20.93c-1.62-.58-1.86-1.16-1.86-1.72v-8.5c-.48-.3-.91-.6-1.32-.88a2.7,2.7,0,0,1,.83.88v8.5c0,.56.22,1.14,1.81,1.72s3.22,1.17,3.08,1.77-1.94,1.2-3.4,1.82-1.49,1.24-1.49,1.87v9.9c-1.29,1.51-1.29,3.6,0,4.24V203.1h.49V40.53c-1.78-.64-1.78-2.73,0-4.24v-9.9c0-.63,0-1.26,1.53-1.87s3.33-1.22,3.47-1.82S127.55,21.51,125.94,20.93Z"/></g><g class="cls-14"><path class="cls-15" d="M131.7,38.85a4.17,4.17,0,0,1,3.74,1.94,2.37,2.37,0,0,1,.2.54V203.1h.48V41.88a3.61,3.61,0,0,0-.55-1.09c.31-1.94-2.82-.9-2.82-3a1.27,1.27,0,0,1,0-.29A4,4,0,0,0,131.7,38.85Z"/><path class="cls-15" d="M136.12,19.46V11a1,1,0,0,0-.24-.71,1.52,1.52,0,0,0-1-.68,1.33,1.33,0,0,1,.52.68,1,1,0,0,1,.22.71v8.5a3.34,3.34,0,0,0,.37.86c.87.72,2.8,1.7,3.88,2.69a1.69,1.69,0,0,1,1.22.16,20.48,20.48,0,0,0-4.63-2.85A3.67,3.67,0,0,1,136.12,19.46Z"/><path class="cls-15" d="M135.64,35.52a3.81,3.81,0,0,1-1.52,1.15l.62-.11a5.31,5.31,0,0,0,1.38-1V25.73a5.25,5.25,0,0,0,2.12-1.57,5.9,5.9,0,0,0-2.6,1.57Z"/><path class="cls-15" d="M131.7,7.49c0,2.42,1.87,1.73,3.2,2.08C133.82,8.81,131.7,9.21,131.7,7.49Z"/><path class="cls-15" d="M136.12,5.22V2.67a7.31,7.31,0,0,1,0-.95c.77-.5,2.86-.5,2.86-1.55,0-.06,0-.11,0-.17h-.69a3.6,3.6,0,0,1-2.57,1.72,3,3,0,0,0-.1,1V5.22a1,1,0,0,1-.17.57,4.81,4.81,0,0,1-3.77,1.7C133.79,7.49,134.84,7.49,136.12,5.22Z"/></g><g class="cls-14"><rect class="cls-15" x="98.55" y="80.69" width="42.9" height="0.66"/></g><g class="cls-14"><rect class="cls-15" x="98.71" y="114.62" width="42.45" height="0.66"/></g><g class="cls-14"><rect class="cls-15" x="123.84" y="137.61" width="17.62" height="0.66"/></g><rect class="cls-9" x="98.55" y="133.28" width="12.53" height="69.82"/><rect class="cls-9" x="123.84" y="137.94" width="12.42" height="20.33"/><rect class="cls-9" x="98.71" y="82.15" width="37.17" height="32.8"/><rect class="cls-16" x="124.17" y="115.23" width="11.13" height="2.5"/><rect class="cls-5" x="130.25" y="115.23" width="5.05" height="2.5"/><rect class="cls-17" x="133.88" y="115.23" width="1.41" height="2.5"/><rect class="cls-16" x="124.15" y="193.83" width="11.13" height="2.5"/><rect class="cls-5" x="130.23" y="193.83" width="5.05" height="2.5"/><rect class="cls-17" x="133.87" y="193.83" width="1.41" height="2.5"/><rect class="cls-16" x="98.15" y="155.15" width="25.69" height="2.5"/><rect class="cls-5" x="112.19" y="155.15" width="11.65" height="2.5"/><rect class="cls-17" x="120.58" y="155.15" width="3.26" height="2.5"/><rect class="cls-16" x="109.85" y="81.25" width="25.69" height="2.5"/><rect class="cls-5" x="123.89" y="81.25" width="11.65" height="2.5"/><rect class="cls-17" x="132.28" y="81.25" width="3.26" height="2.5"/><rect class="cls-16" x="105.87" y="203.1" width="28.36" height="5.17"/><polygon class="cls-5" points="105.87 203.1 100.74 203.1 100.74 205.69 105.87 208.27 105.87 203.1"/><polygon class="cls-18" points="85.66 192.19 85.66 145.76 98.55 130.81 98.55 203.1 85.66 192.19"/><polygon class="cls-19" points="418.4 226.23 427.05 222.68 427.05 219.4 418.4 221.76 418.4 226.23"/><polygon class="cls-20" points="373.29 226.23 358.01 214.18 358.01 210.3 373.29 221.76 373.29 226.23"/><path class="cls-21" d="M422,5.16V2.58a1.1,1.1,0,0,1,.17-.67c1.2-1.74,2.25-1.74,4.34-1.74a1,1,0,0,0,0-.17h-52.1c-.36.48-2.18-.39-2,1.26-.3.21-.49.43-.76.65v3.2a.87.87,0,0,1-.27.68c-.26,1.7-3.4.66-3.4,1.7,0,2.09,3.14,1,3.34,2.7a.94.94,0,0,1,.33.78v9.18a2.32,2.32,0,0,0,.68.91c.88,0,1.92,1.06,3,2.11-1.05,0-2.09,1-3.39,1.6a4.89,4.89,0,0,0-.26,1v10a5.17,5.17,0,0,1-.75,2.11c-.35.71.15,1.43.45,2.15a5.41,5.41,0,0,1,.3,2.17V221.76H422V41.3c-1.76-1.41-3.85-1.41-2.33-4.31,1.8-.71,2.33-1.41,2.33-2.11v-9c-.72-1.64,2.42-1.64,3.46-3.73-1,0-3.13,0-3.19-1.88a5.13,5.13,0,0,1-.27-.9V11c-1.5-.32-1-2.61-2.06-3.31C421,7.64,420.46,5.36,422,5.16Z"/><path class="cls-22" d="M431.41,20.45a2.48,2.48,0,0,1-.31-.46V11a2,2,0,0,0-.62-1.58c-.88-.83-1.92-1.88.23-3a2,2,0,0,0,.39-1.43V2.25a1,1,0,0,1,.19-.69A3.48,3.48,0,0,0,434.11,0h-9c-.79.93-3,.52-3.68,2.08a2.1,2.1,0,0,0-.08.7v2a4.45,4.45,0,0,1-.14.69c0,2-3.13-.08-3.13,2s2.09,2.09,2.69,2.44a3.32,3.32,0,0,1,.58.79v8.42a5.43,5.43,0,0,0,.05.9c.86,0,1.9,1,2.95,2.08,1,2.09-2.09,2.09-2.65,2.6a3.64,3.64,0,0,0-.35.48V35.3c-2.23,1.46-4.32,1.46-2.69,4.29,1.95.72,2.69,1.45,2.69,2.19v180l9.72-4V41.3a1.86,1.86,0,0,0-.27-1.1c-3.32-1.35-.18-3.44.27-4.31V25.71a4,4,0,0,1,0-.49c.57-1,2.66-1,3.71-2C434.83,21.08,431.69,22.12,431.41,20.45Z"/><path class="cls-23" d="M372.06,20.06V10.68a5.12,5.12,0,0,0-4.13-2.14c0-2.09,3.14-1,4.08-3.12a3.3,3.3,0,0,0,.05-.7V2.08a2.4,2.4,0,0,1,.45-.69c.65-.17,1.69-.17,1.69-1.22V0H353.53a1.8,1.8,0,0,1-.89,2.11V5a.77.77,0,0,1-.34.72c-2.14-.31-3.18,1.78-5.27,1.78,1,2.09,3.13,2.09,5.25,2.84a.88.88,0,0,1,.36.82v8.78c.66,1.15,3.8,1.15,4.84,3.24-2.09,0-3.14,1-4.52,1.58a.87.87,0,0,0-.32.49V35.6c-.39,1.16-4.57,2.2-1,4.38a5.32,5.32,0,0,1,1,1.12V205.91l19.42,15.85V41.14A3.75,3.75,0,0,0,370.92,39c-.62-.71-.13-1.42.51-2.13a2.76,2.76,0,0,0,.63-2.1v-10a2.17,2.17,0,0,1,1.21-1c.93.41,2-.63,2-.63C375.25,21.08,372.11,22.12,372.06,20.06Z"/><rect class="cls-24" x="373.29" y="221.76" width="45.11" height="4.47"/><path class="cls-9" d="M421.46,20.35a2.75,2.75,0,0,1-.25-.59V11.32a4.27,4.27,0,0,0-.44-1.05c-.57-.69-1.62-1.73-2.66-1.73,1-1,1-1,2.26-2.23a5.87,5.87,0,0,0,.84-.94V2.69a2.61,2.61,0,0,1,.05-.48C422.1.55,423.64.94,424.75,0H395c-3.58.86-7.31.92-10.8,2.14l-.6.17-9.81,2.91-.6.18c-.37.1-.69.19-.92.24l-.36.09a5.72,5.72,0,0,1-4,1.76c0,2.09,3.14,1,4,2.81a.78.78,0,0,1,.19.56v9a5,5,0,0,0,.18.84c.88.43,1.92.43,3,1.47a12,12,0,0,1-2.57,2.09,1.71,1.71,0,0,0-.58.93c0,3,0,6.32,0,9.83a2.52,2.52,0,0,1-.81,2.14c-.78.71-.95,1.44-.16,2.18a2.82,2.82,0,0,1,1,2.22c0,42.68,0,108.33,0,108.33l30.55-.52V63.83H410V88h11.26V41.38c-.38-.88-2.63-1.75-3.74-2.62s1.15-1.75,2.45-2.62a2.64,2.64,0,0,0,1.29-2.62V25.81c0-.2.06-.41.11-.61-.08-2,2-1,3.06-2C424.38,21.08,422.29,21.08,421.46,20.35Z"/><g class="cls-14"><path class="cls-15" d="M363.16,24.05c-.64.32-1.06.65-1.71,1,0,3.39,0,7,0,10.7a3.48,3.48,0,0,1-.56.48,1,1,0,0,1,.24,0,4,4,0,0,0,.71-.53c0-3.73,0-7.31,0-10.7.63-.32,1.05-.65,1.68-1a.18.18,0,0,0,.07-.05A.66.66,0,0,1,363.16,24.05Z"/><path class="cls-15" d="M361.44,41.15c-.05,65.8-.14,172.14-.14,172.14h.39s.09-106.34.14-172.14a1.9,1.9,0,0,0-.46-.55,1.09,1.09,0,0,0-.49-.56,2.35,2.35,0,0,1,.16.56A1.79,1.79,0,0,1,361.44,41.15Z"/><path class="cls-15" d="M361.84,5.51c0-.23,0-.47,0-.7v-2a3.16,3.16,0,0,1,.25-.71c.53-.77,3.06,0,2.88-2.07-.15,1.23-2.45,1.35-3.29,2.07a2.68,2.68,0,0,0-.23.71v2a2.38,2.38,0,0,1-.07.7,5.84,5.84,0,0,1-1.6,1.41A3.21,3.21,0,0,0,361.84,5.51Z"/><path class="cls-15" d="M361.46,10.83v.81c0,2.41,0,5,0,7.73a3.88,3.88,0,0,0,.49.91,2.68,2.68,0,0,0,1,.52,1.76,1.76,0,0,1-.61-.52,3.49,3.49,0,0,1-.48-.91c0-2.73,0-5.32,0-7.73,0-.27,0-.54,0-.81-1-1.93-1.94-2.23-3.45-2.28C359.47,9.27,360.82,9.09,361.46,10.83Z"/><path class="cls-15" d="M363.59,24a4.19,4.19,0,0,0,1.21-.83c.77-1.54-.72-1.94-1.87-2.37C364.08,21.53,366.15,22.49,363.59,24Z"/></g><g class="cls-14"><path class="cls-15" d="M402.25,5.93a2.51,2.51,0,0,0,.54-.69V2.5a3.72,3.72,0,0,1-.39.21V5.37a4.05,4.05,0,0,1-.69.68c-1.37.4-2.42.4-2.42,1.44a1.32,1.32,0,0,0,.23.79C400.34,7.32,400.49,6.4,402.25,5.93Z"/><path class="cls-15" d="M402.4,41V221.76h.39V40.85a17.25,17.25,0,0,0-1.48-1.08c-1,.12-1-.92-2-.92a4.06,4.06,0,0,0,1.84,1.09A6.8,6.8,0,0,1,402.4,41Z"/><path class="cls-15" d="M402.58,25.19a1.57,1.57,0,0,1-.18.48v10c-1,1.07-4.15,1.07-3.11,3.16,1-1.05,2.09-2.09,3.5-3.33v-10a1.62,1.62,0,0,0,.26-.48,12.9,12.9,0,0,0,1-1.29C403.23,23.87,402.49,24,402.58,25.19Z"/><path class="cls-15" d="M402.79,11.1a2.85,2.85,0,0,0-.39-.78,3.11,3.11,0,0,1-.28-.23,1.17,1.17,0,0,1,0,.37,3.09,3.09,0,0,1,.29.78v8.38c0,1.54,1.2,2.13,2.12,2.6-.14-.72-.84-1.38-1.73-2.75Z"/></g><g class="cls-14"><path class="cls-15" d="M410,25.13c0,.32,0,.63,0,.95v8.84a3.34,3.34,0,0,1-.55,1,1.23,1.23,0,0,1,0,.48c.22-.17.37-.33.39-.48a3.41,3.41,0,0,0,.57-1V26.08a5.06,5.06,0,0,1,.06-.95,2.06,2.06,0,0,1,.4-.95A1.88,1.88,0,0,0,410,25.13Z"/><path class="cls-15" d="M406.61,38.85c0,1,1,1,2.24,1.31A4.13,4.13,0,0,1,410,41.23V221.87h.39V41.23a4.16,4.16,0,0,0-1.2-1.07c-2-1.32-1.63-2.23-.85-2.92C407.55,37.5,406.61,37.7,406.61,38.85Z"/><path class="cls-15" d="M410.41,2.81a2.14,2.14,0,0,1,.06-.62.93.93,0,0,1,.22-.49,1.8,1.8,0,0,0-.62.49,2.56,2.56,0,0,0-.05.62V5.23l-.12.11a2.33,2.33,0,0,1,.51-.11Z"/><path class="cls-15" d="M410,10.77v8.91a1.49,1.49,0,0,0,.24.88.81.81,0,0,1,.37,0,1.46,1.46,0,0,1-.22-.83V10.77c-.38-1.27-1.56-1.48-2.5-1.62A3.5,3.5,0,0,1,410,10.77Z"/></g><g class="cls-14"><path class="cls-15" d="M382.73,40.9V221.76h.39V40.9a4,4,0,0,0-.59-.54c-.17,0-.31-.08-.46-.12l.07.12A4,4,0,0,1,382.73,40.9Z"/><path class="cls-15" d="M385.69,0c0,.06,0,.11,0,.17-2.09,0-2.09,1.05-3,2.25V5a1.22,1.22,0,0,1-.14.66c-1.07,1.88-3.16.84-4.2,1.88,0,2.09,3.13,2.09,4.27,3.1a2.87,2.87,0,0,1,.07.77v8.27c0,.59,0,1.19,0,1.8a10.27,10.27,0,0,1,0,1.84,14.7,14.7,0,0,0-.08,1.88V35.59a1.72,1.72,0,0,1-.38.52,5.73,5.73,0,0,1-4,1.69c2.09,0,3.13-1,4.35-1.69a1.91,1.91,0,0,0,.38-.52V25.15a8,8,0,0,1,.2-1.88,4.23,4.23,0,0,0-.07-1.84,8.49,8.49,0,0,1-.13-1.8V11.36a3.34,3.34,0,0,0-.06-.77c-.49-2.05-2.58-1-3.63-2.05-1-2.09,3.14-1,3.55-2.93a1.22,1.22,0,0,0,.14-.66V2.42c.4-1.83,2.57-1.48,3.35-2.42Z"/></g><g class="cls-14"><polygon class="cls-15" points="352.63 141.42 352.51 141.93 372.04 150.1 421.38 150.1 421.38 149.57 372.07 149.57 352.63 141.42"/></g><g class="cls-14"><polygon class="cls-15" points="352.61 170.33 352.48 170.82 372.06 180.57 421.21 180.57 421.21 180.04 372.1 180.04 352.61 170.33"/></g><g class="cls-14"><rect class="cls-15" x="371.6" y="63.57" width="49.62" height="0.53"/></g><g class="cls-14"><polygon class="cls-15" points="431.05 84.38 421.17 87.74 421.26 88.26 431.15 84.89 431.05 84.38"/></g><rect class="cls-16" x="382.93" y="63.83" width="27.03" height="2.19"/><rect class="cls-5" x="397.7" y="63.83" width="12.26" height="2.19"/><rect class="cls-17" x="406.53" y="63.83" width="3.43" height="2.19"/><rect class="cls-16" x="372.38" y="149.84" width="35.86" height="2.19"/><rect class="cls-5" x="391.98" y="149.84" width="16.26" height="2.19"/><rect class="cls-17" x="403.69" y="149.84" width="4.55" height="2.19"/><rect class="cls-9" x="410.66" y="89" width="10.28" height="90.19"/><rect class="cls-16" x="392.91" y="181.29" width="14.39" height="2.19"/><rect class="cls-5" x="400.78" y="181.29" width="6.52" height="2.19"/><rect class="cls-17" x="405.48" y="181.29" width="1.83" height="2.19"/><rect class="cls-16" x="382.52" y="29.59" width="14.39" height="2.19"/><rect class="cls-5" x="390.39" y="29.59" width="6.52" height="2.19"/><rect class="cls-17" x="395.09" y="29.59" width="1.83" height="2.19"/><rect class="cls-17" x="398.73" y="29.59" width="4.32" height="2.19"/><rect class="cls-16" x="384.51" y="91.04" width="4.32" height="2.19"/><rect class="cls-16" x="414.42" y="149.84" width="2.16" height="2.19"/><rect class="cls-16" x="408.75" y="181.29" width="2.16" height="2.19"/><rect class="cls-16" x="372.64" y="181.29" width="10.28" height="2.19"/><polygon class="cls-16" points="353.7 142.15 353.7 143.63 361.56 147.34 361.56 145.45 353.7 142.15"/><path class="cls-16" d="M406.17,8.44c.44.1-.61.1-.61.1,4.18-4.19,9.41-1,14.64-2.09-4.18,3.13-9.41,2.09-13.12,2Z"/><path class="cls-17" d="M413.8,6.35c-2,1.14-6.15-2-7.19,2.19,2.09,1,4.18-1,6.26-1.85C413.47,6.49,413.8,6.35,413.8,6.35Z"/><polygon class="cls-16" points="421.38 211.37 404.89 211.37 404.89 209.48 421.38 209.48 426.24 207.32 426.24 208.94 421.38 211.37"/><polygon class="cls-5" points="421.38 211.37 421.38 209.48 426.24 207.32 426.24 208.94 421.38 211.37"/><rect class="cls-9" x="372.64" y="152.03" width="10.28" height="29.26"/><polygon class="cls-25" points="361.56 175.44 361.56 175.91 361.56 217.71 372.06 221.76 372.06 180.3 361.56 175.44"/><path class="cls-26" d="M424.38.17a1.15,1.15,0,0,0,.06-.17h-3c-1.61.92-4.47.48-4.92,1.85a3.55,3.55,0,0,0-.69.62l-2.17,2.46-.59.67c-1.23,1.89-3.32.85-5.41,1.89-2.09,2.09,2.09,2.09,1.14,2.92a2.27,2.27,0,0,1-.31.4l-8,9.12-.39.46c-.77.69-1.81,2.78-3.66,4.23a3.74,3.74,0,0,0-.49.48l-9.2,10.45a3.44,3.44,0,0,1-.51.49c-.5,2.81-8.86-1.37-4.22,4.86a5.48,5.48,0,0,1-.39.48l-20,22.76-9.12-4.56-.36,113.52,9.65,4,59.48-80s-.07-27.43-.14-53.63a3.49,3.49,0,0,0-.78-2.62c-.77-.87-3.3-1.73-3.16-2.6s2.65-1.72,3.92-2.58c0-.85,0-1.7,0-2.55,0-2.53,0-5,0-7.43a4,4,0,0,1,.13-.58c.09-2,2.18-.92,3.23-2,0-1.05-3.14-1.05-3-2.62A2.26,2.26,0,0,1,421,20c0-2.76,0-5.37,0-7.78,0-.32,0-.64,0-1-.78-.62-1.83-1.67-2.87-2.71,0-1,0-2.09,2.34-2.54a3,3,0,0,0,.52-.78c0-.77,0-1.5,0-2.17V2.31C421.24.17,423.33,1.22,424.38.17Z"/><path class="cls-27" d="M37.58,5.64V2.84a2.41,2.41,0,0,1,.07-.71,5.7,5.7,0,0,1,4.16-2L41.71,0H3.64V5.23C3.14,7.49,0,6.45,0,7.49,0,9.58,1.05,9.58,3.15,10.1c.2.15.32.29.49.44v9.19a1.67,1.67,0,0,0,0,.5c.49,1.89,2.58,1.89,3.63,1.89-1.05,2.09-3.14,2.09-3.68,3.28v9.89a3.86,3.86,0,0,1-.12.57C3.14,37.8,2.09,37.8,0,37.8c1.05,1.05,3.14,1.05,3.41,2.72a2.67,2.67,0,0,1,.23.59V152.38H37.58V41c-1-2.17-4.13-1.13-5.18-3.22,2.09,1.05,3.14-1,4.81-1.47a3.06,3.06,0,0,0,.37-.57V25.26a3.51,3.51,0,0,1,.4-.53,8.74,8.74,0,0,0,3.83-2.61C39.72,23.17,39.72,20,38,20.6a6.57,6.57,0,0,1-.44-.5V10.42a3.87,3.87,0,0,0-.06-.84c.11-1-.94-2.09,0-3.19A3.78,3.78,0,0,0,37.58,5.64Z"/><path class="cls-28" d="M547.21,21.15a2.47,2.47,0,0,0-.93-.45V11.14a1.45,1.45,0,0,0-.14-.76c-.51-1.84-2.6-1.84-3.65-1.84,1-2.09,3.14-2.09,3.74-3.07a2.76,2.76,0,0,0,0-.64V2.43a2.25,2.25,0,0,1,.25-.61A6.11,6.11,0,0,0,548.42,0h-30c0,.06,0,.11,0,.17-2.09,0-3.13,1.05-4.43,2.26V4.9a3.23,3.23,0,0,1-.2.65c-.59.9-2.69.9-3.73,3a3.25,3.25,0,0,1,3,1.2c.36.25.59.5.91.75v9a1.44,1.44,0,0,0,.22.9c1.08.67,2.12,1.71,4.21,1.71-1,2.09-4.18,0-4.24,2.95a1.92,1.92,0,0,0-.19.48v10c-.79,1.23-1.84,1.23-2.89,2.27-1,2.09,1,2.09,1.63,2A4,4,0,0,1,514,40.87V209.34h32.26V40.66c-.6-.36-1-.72-1.63-1.08-2.16-2.82,2-1.78,1.63-4.26v-10a1.37,1.37,0,0,0,.29-.48C546.67,24.21,549.81,23.17,547.21,21.15Z"/><path class="cls-29" d="M564.82,5.64a1.84,1.84,0,0,0,.1-.73V2.84a2.41,2.41,0,0,1,.07-.71c.41-1.6,2.57-1.2,3.35-2.13H544c-1.1,1.23-2.67,1.37-3.38,2.13a2.13,2.13,0,0,0-.08.71V4.91a2.28,2.28,0,0,1-.08.73c0,1.85-2.12.81-3.16,1.85-1,2.09,3.13,1,3.16,2.93a3.1,3.1,0,0,1,.08.86v8.77a5.32,5.32,0,0,0,.29.5,5.34,5.34,0,0,0,3.78,1.57,8.31,8.31,0,0,1-3.68,2.53,5.87,5.87,0,0,0-.39.52V35.66a3.28,3.28,0,0,1-.31.58c-.84.52-2.93.52-2.93,2.61,1,0,3.13,0,3.17,2.08,0,.2,0,.4.07.6V152.38h24.41V41.53c0-.2,0-.4,0-.6-.47-2.08-2.56-1-3.6-2.08-1-2.09,3.13-1.05,3.61-3.19V25.17c.11-.17.18-.35.31-.52.26-1.48,1.3-1.48,2.35-1.48,1-2.09-2.09-1.05-2.41-2.62a4.66,4.66,0,0,1-.25-.5V11.28a2.51,2.51,0,0,0-.1-.86c-.38-1.88-3.51-.84-3.51-2.93C562.35,7.49,564.44,7.49,564.82,5.64Z"/><path class="cls-30" d="M298.49,20.92c-.29-.25-.46-.5-.71-.75V10.64c.12-2.1-4.06-1.06-4.06-3.15,2.09,0,2.09-1,3.68-1.45a3.49,3.49,0,0,0,.38-.53V2.19a4.13,4.13,0,0,1,.31-.46c.71-.42,2.26-.51,2.77-1.73h-7.32c-.52,1.22-2.12,1.31-3.16,1.73a1.49,1.49,0,0,0-.21.93v2.9a.69.69,0,0,1-.21.53c-.42,2.45-3.56.36-3.56,2.45,2.09,0,2.09,1,3.73,1.55a3.23,3.23,0,0,1,0,.62v8.81a4.17,4.17,0,0,0,.2.75c1.26,1.85,3.35,2.9.06,4.69a3.63,3.63,0,0,0-.26.81v9.3a2,2,0,0,1-.14.9c-1.54,1.83-3.63,1.83-5.72,1.83,1.05,2.09,4.18,1.05,5.34,2.75a2.44,2.44,0,0,1,.52.47V321h7.61V39.54c0-.31-.06-.62-.09-.93a3.34,3.34,0,0,0,.09-1.83V25.64C299,24.21,300,24.21,301,23.17,302.08,21.08,299,23.17,298.49,20.92Z"/><path class="cls-7" d="M278.6,20.7a1,1,0,0,1-.34-.8c.06-3.21.11-6.16.16-8.81a3.8,3.8,0,0,0-.14-.67c-.24-1.88-3.38-.84-3.38-2.93,1.05,0,3.14,0,3.53-2a5.3,5.3,0,0,0,.1-.55c0-.91,0-1.76,0-2.54a1.13,1.13,0,0,1,.09-.51A8.26,8.26,0,0,0,280,0h-5c-.47.93-3.31.51-3.68,2a2.16,2.16,0,0,0-.2.51V5.63c-.4,1.86-3.53.82-2.49,2.91,0,1,1.05,1,2.28,1.39a1,1,0,0,1,.21.67v8.76c0,.26,0,.53,0,.8a4.22,4.22,0,0,0,3.76,2c-1,1.05-3.13,2.09-3.76,3.09,0,.29,0,.58,0,.88v9.15c-2.49,2.56-1.44,3.61,0,5.91v220l2.8,5.21s2.59-147.26,4-224.72a3.84,3.84,0,0,0-.41-1c.57-1.8-3.61-1.8-2.57-2.85a4,4,0,0,1,1.85-1.08,5.48,5.48,0,0,0,1.23-1c.06-3.51.12-6.85.18-10a2.2,2.2,0,0,1,.13-.87c.8-.69,1.84-1.73,2.89-2.78C281.18,21.08,280.13,21.08,278.6,20.7Z"/><path class="cls-7" d="M288,35.07a3,3,0,0,1-.09.89c-1.54,1.84-2.58,2.89-.09,4.59a1.74,1.74,0,0,1,.18.94V321h3.85V41.39a1.15,1.15,0,0,0-.66-.94c-1.68.49-2.73-.56-4.82-1.6,1.05-2.09,3.14-2.09,5.3-3a1.82,1.82,0,0,0,.18-.9V24.83a4.27,4.27,0,0,1,.24-.8,2.49,2.49,0,0,0,.37-1.74c-1.09,1-3,2-4.46,3.45Z"/><path class="cls-7" d="M291.88,5.51V2.19a4.38,4.38,0,0,1,.33-.46A3.89,3.89,0,0,0,295.09,0h-3.33a7.41,7.41,0,0,1-3.48,1.73,1.59,1.59,0,0,0-.25.93V5.05a1,1,0,0,1-.09.51c-.49,1.93-4.67.89-4.67,3,2.09,0,4.18,1,4.76,2.17v8.8c0,.5.44,1,1.7,1.5.79.06,1.75,1,2.72,1.09a4,4,0,0,0-.46-1.18c-.05-.25-.08-.5-.11-.75V10.64c-.25-2.1-4.43-1.06-4.43-3.15,2.09,0,2.09-1,4.11-1.45A2.49,2.49,0,0,0,291.88,5.51Z"/><path class="cls-7" d="M278.69,20.31a2,2,0,0,1-.1-.91c.12-3,.22-5.77.32-8.3a3.4,3.4,0,0,0-.16-.77c-.71-.75-3.85-2.84,0-4.28a3.51,3.51,0,0,0,.36-.65c0-1.07.08-2.06.11-3a5.63,5.63,0,0,1,.05-.59c.52-.38,1.94-.94,2.06-1.83H271.1c-1.11.93-2.64.5-3.41,2a4.14,4.14,0,0,0-.09.6v3c-.26.22-.44.44-.72.67-1.38.19-4.52.19-3.47,2.28s3.13,0,4,2.06a6.34,6.34,0,0,1,.14.78v8.41c1,1.29,2.08,2.33,4.17,2.33-1,2.09-3.14,1.05-4.17,3.36v9.83A4.08,4.08,0,0,1,267,36.4c-1.47,1.4-1.47,1.4-2.52,2.45,1.05,0,2.09,1,3.15,2V183.48l4.4,3.72s3.51-89.25,5.73-146a3.73,3.73,0,0,0-1-1.11c.3-1.21-.75-1.21-1.8-1.21,0-2.09,2.1-2.09,3.05-3.14,0-.36,0-.71,0-1.06.12-3.18.24-6.23.36-9.13a1.2,1.2,0,0,1,.08-.49c.66-.82,1.7-.82,2.75-1.86C282.22,21.08,280.13,21.08,278.69,20.31Z"/><path class="cls-31" d="M306.05,5.71a.84.84,0,0,0,.19-.6V2.37a5.12,5.12,0,0,1,.1-.54c-.08-1.66,2-.61,3.06-1.66a.47.47,0,0,0,0-.17h-8.51l.18.17c-2.09,0-2.09,1.05-3.23,2.2V5.15c-.95,2.34-3.05,1.3-4.09,3.39a5,5,0,0,1,3.87,1.79,3.14,3.14,0,0,1,.22.72v8.53a3.14,3.14,0,0,0,.37.85c-.28,1.69,3.9.65,2.86,2.74-1.05,1-2.09,1-3.23,2.61V36.41c0,.34,0,.68-.05,1a7,7,0,0,0,0,1c0,.34,0,.69.08,1V226.58h8.43V40.6c0-1.75-2.07-1.75-3.11-1.75,0-2.09,2.09-2.09,3-2.41a4.64,4.64,0,0,0,.11-.51V25.76c0-.31,0-.61,0-.92,4.17-1.67,0-2.72,0-4.42V11a1,1,0,0,0-.21-.72,5.36,5.36,0,0,0-3.95-1.77C302.08,6.45,305.22,7.49,306.05,5.71Z"/><path class="cls-7" d="M299.71,2.37a2.41,2.41,0,0,1,.21-.54C301,1.22,302.08.17,304.17.17l-.1-.17h-5.41c-.78.92-2.91.48-3.16,1.83,0,.18,0,.36-.05.54V5.11a3,3,0,0,1,0,.6c-.65.74-2.74.74-3.78,2.83a4.41,4.41,0,0,1,3.71,1.77,1.65,1.65,0,0,1,.11.72v7.7a7,7,0,0,0,.14,1.69,2.41,2.41,0,0,1,.46,3.52,2.8,2.8,0,0,0-.6,1.82V36.44c-.16.34-.25.68-.38,1-.31,1.39-.31,1.39.11,2.09.12.35.18.7.27,1.05v186h4.26v-186a11.49,11.49,0,0,0-1.12-1c-.69.39-.69-.65-.24-2.09a10.69,10.69,0,0,1,1.36-1V25.71a1.86,1.86,0,0,1,.37-.91c1-.59,3.05-.59,4.09-1.63a24.31,24.31,0,0,0-4.25-2.77,1.6,1.6,0,0,1-.21-.85V11c.28-2.49-2.85-1.45-2.85-3.54s3.13,0,2.63-1.78a2.91,2.91,0,0,0,.22-.6Z"/><path class="cls-7" d="M276.06,5.33c0-.25,0-.49,0-.73,0-.73.08-1.41.12-2.06a.91.91,0,0,1,.4-.71c.38-1.66,2.47-.61,3.51-1.66A1.22,1.22,0,0,0,280.2,0H267.55a.33.33,0,0,1,0,.17c-1,1.05-2.09,2.09-2.71,1.74a1.22,1.22,0,0,0-.16.71V5.49c-.27,2-2.36,1-3.4,2-1.05,2.09,3.13,1,3.4,3v9.2c0,.17.08.35.14.52a4.39,4.39,0,0,0,3.77,1.88c0,2.09-3.13,1.05-3.91,3.57V35.78c-1.31,1-2.36,2-3.4,2a22.28,22.28,0,0,0,3.4,3v78.3l4.41,2.14s2.63-44,4.78-79.95c0-.42,0-.83.07-1.24a6.26,6.26,0,0,1,.09-2.46,8.29,8.29,0,0,0,.13-1.21c.22-3.64.43-7.16.63-10.52l0-.56c1.09-2.1,2.14-2.1,4.23-2.1,0-2.09-2.09-2.09-3.36-2.26-.22-.18-.36-.35-.57-.53.2-3.34.38-6.45.55-9.28a1.39,1.39,0,0,0-.28-.88c-.53-.64-2.62-.64-3.66-1.68C270.72,6.45,274.9,7.49,276.06,5.33Z"/><path class="cls-7" d="M282.56,9.73v10.5a3.19,3.19,0,0,0,.57.7c.14,1.19,1.18,1.19,2.23,1.19,0,2.09-2.09,2.09-2.8,3.15V35.4c0,.55-.28,1.11-1.17,1.67-2.3,1.78-1.26,2.82.86,3.41a3.43,3.43,0,0,1,.31,1.74V399.89l3.5,14.51V40.9a3.89,3.89,0,0,0-.29-1.7,1.88,1.88,0,0,1,0-1.68,3.72,3.72,0,0,0,.31-1.65V25.08c1.39-.87,3.48-.87,2.43-3a7.34,7.34,0,0,0-1.71-1.3,1.39,1.39,0,0,1-.72-1.36V10.91a2.53,2.53,0,0,0-.25-.56c-.44-1.74-2.37-1.81-3.45-1.81a2.47,2.47,0,0,0,.19.65C282.56,9.37,282.56,9.55,282.56,9.73Z"/><path class="cls-7" d="M286.06,5.27V2.7a1.37,1.37,0,0,1,.18-.83c1.21-1.7,3.3-.65,4.34-1.7a.33.33,0,0,0,0-.17h-6.36a8.9,8.9,0,0,1-1.62,2.13V6.61a3.88,3.88,0,0,0-.22,1.74C283.42,6.46,285.38,6.41,286.06,5.27Z"/><path class="cls-32" d="M286.06,40.07V414.4h3.49V41.78c0-.28,0-.57,0-.86a8.14,8.14,0,0,0-4.41-2A2,2,0,0,0,286.06,40.07Z"/><path class="cls-33" d="M289.05,6.21a1.19,1.19,0,0,0,.5-.94V2.7a2,2,0,0,1,.12-.83,6.17,6.17,0,0,1,4.05-1.7,1,1,0,0,0,0-.17H290c.52,1.83-3.6.37-3.74,1.87a1.37,1.37,0,0,0-.18.83V5.27c-.7,1.18-2.79,1.18-3.84,3.27,1,0,3.14,0,3.59,1.81a2.14,2.14,0,0,1,.25.56v9.23c.34,2,3.48-.11,3.48,2s-4.18,0-3.48,3V36.7c-.24.38-.51.74-.71,1.11,1.37-.72,3.35-.46,4-1.93a1.29,1.29,0,0,0,.19-.82V25.81a3.51,3.51,0,0,1,.25-.73c-.26-1.91,2.87-.87,2.87-3,0-1-1-1-2.2-1.3a5.78,5.78,0,0,1-.92-.68V10.91a2.09,2.09,0,0,0-.05-.56c-1-.77-4.14.28-3.1-2.86C287.45,8.54,288.49,5.4,289.05,6.21Z"/><path class="cls-7" d="M284.22,6c0-1.17,0-2.25,0-3.24a1.84,1.84,0,0,1,.19-.88c-.14-1.67,1.95-.62,3-1.67a1.15,1.15,0,0,0,.06-.17h-7c-1.11.93-2.67.52-3.53,2a1.46,1.46,0,0,0-.2.9V5.26a1.67,1.67,0,0,1-.15.5,4.93,4.93,0,0,1-3.82,1.73c0,2.09,3.14,1,3.68,2.63a1.19,1.19,0,0,1,.29.6v9.16a4.35,4.35,0,0,0,0,.72c1.22.48,2.27.48,2.27,1.52,1,2.09-2.09,0-2,2.24a1.39,1.39,0,0,0-.3.78V34.9a2.58,2.58,0,0,1-.44,1.73c-1.44,1.17-2.48,2.22.1,3.56a3.46,3.46,0,0,1,.34,1.82V351.52l2.8,12.11S282.47,141,283.76,41.86a7.8,7.8,0,0,0-.13-1.8,4.71,4.71,0,0,1,.19-3.51l0-1.71q.06-5.1.12-9.65a4,4,0,0,1,.08-.77c.26-1.25,1.31-1.25,2.35-1.25-1-1.05-1-1.05-2.37-2.47,0-.24,0-.48,0-.72,0-3.57.09-6.81.13-9.67a2.19,2.19,0,0,0-.23-.58c-.67.9-.67-2.24-1.72-1.19a7.47,7.47,0,0,0,1.67-2.07A2.93,2.93,0,0,0,284.22,6Z"/><path class="cls-34" d="M287.17,0H280.6c-.28.92-1.32,1.46-1,1.84V5.47c-1.54,2-1.54,3.07,0,5.43v9c.55,1.13,2.64,1.13,3.69,2.17,1,2.09-3.14,1.05-3.59,3a2.1,2.1,0,0,0-.1.78v9.76C278,37.8,277,37.8,274.9,37.8,276,39.89,278,38.85,279.58,41V363.63h4.78V40.06c-.05-1.21-.05-2.26,0-3.51V25.19a2.53,2.53,0,0,1,.08-.77c-.13-1.25.92-1.25,2-1.25,0-1.05,0-2.09-2-2.47V10.31a2.1,2.1,0,0,0-.29-.58c-.8.9-.8-2.24-1.85-1.19A9.51,9.51,0,0,0,284,6.47a4.45,4.45,0,0,0,.4-.51V2.72a1.82,1.82,0,0,1,.17-.88C284.35.48,286.4.92,287.17,0Z"/><path class="cls-35" d="M281.73,20.68a3.68,3.68,0,0,1-.82-.8V10.42c-1.82-1.88-1.82-2.93,0-4.9V1.92a6.58,6.58,0,0,0,.2-1.92H277c0,.06,0,.11,0,.17,0,2.09-3.14,0-3.08,1.75V5a1.72,1.72,0,0,1-.06.55c-1.05,2-3.14.93-4.18,2,0,2.09,3.13,1,4.13,2.93a1.42,1.42,0,0,1,.11.67V19.9A4.94,4.94,0,0,0,278,22.12c-1,2.09-3.14,1.05-3.88,2.78a1.21,1.21,0,0,0-.24.87v11c-.06,1.08-.06,2.13,0,2.93,0,.33,0,.67,0,1V266.37h7V41.68c0-.67-.57-1.34-2.24-2s-2.48-1.32-1.33-2,2.81-1.3,3.19-1.94a3.48,3.48,0,0,0,.38-1.91V25.72c1.31-1.51,2.36-1.51,3.4-2.55S284.31,21.08,281.73,20.68Z"/><path class="cls-36" d="M281.21,21.23c-.61-.31-1-.62-1.67-.92V11.1a5,5,0,0,0-.16-.77c-.29-.75-3.43-2.84-.13-4.28a3.09,3.09,0,0,0,.29-.65V1.83c.37-.38,1.74-.94,1.85-1.83h-4.5a1.63,1.63,0,0,0,.11.17,7.67,7.67,0,0,0-4.74,1.66,2.36,2.36,0,0,0-.26.59v3a2.36,2.36,0,0,1-.3.65c-2,.4-2,1.44-3.07,2.49,2.09,0,2.09,1,3.23,1.79a5,5,0,0,1,.14.77v8.3a1.74,1.74,0,0,0,.17.91c-.4,1.81,2.73.77,2.73,2.86-2.09,0-2.09,1-2.75,1.86a2.3,2.3,0,0,0-.15.49V35.84c-1.28.92-1.28,3-.47,4.41A3.88,3.88,0,0,1,272,42.5V187.2h7.54V43a2.79,2.79,0,0,0-.74-2.26c-.73-.75-2.85-1.49-3.35-2.22s1.37-1.47,2.73-2.19a2,2,0,0,0,1.36-2.15V26a3.26,3.26,0,0,1,.47-1C281.18,24.21,284.31,23.17,281.21,21.23Z"/><path class="cls-37" d="M277.52,19.86V11.1a4.41,4.41,0,0,0-.31-.88c-1.26-.64-2.31-.64-3.35-1.68-1.05-3.14,3.14-1,3.66-3.21V2.54a2.16,2.16,0,0,1,.46-.71c0-1,1.29-1.43,2.21-1.83H272.8c0,.06,0,.11,0,.17-1,0-3.13,0-3.58,1.66a1.88,1.88,0,0,0-.1.71V5.33c-2.59,2.16-1.54,3.21-.21,4.89a1.44,1.44,0,0,1,.21.88v8.76c.55,1.22,3.68.17,3.68,3.31a3.81,3.81,0,0,0-3.68,2.1v9.87c-.5,1.62-2.59,2.66-3.63,3.71,1,0,2.09,0,2.38,1.17a4.74,4.74,0,0,1,1.25,1.24v79.95h8.39V40.3a6.27,6.27,0,0,1-1.48-.83c-1.14-.62-1.14-1.67.15-2.46a6.15,6.15,0,0,0,1.33-1.21V25.27a1.38,1.38,0,0,1,.59-1.11c1-1,1-2-.33-3.25A1.73,1.73,0,0,1,277.52,19.86Z"/><path class="cls-38" d="M274.65,20.47a4.38,4.38,0,0,1-.78-1.22v-8.6a5.41,5.41,0,0,0-4.19-2.11c1-1,3.13-1,4-2.95a2,2,0,0,0,.15-.93V2c.74-.56,2-1.26,3.09-2H265.69c-.12,1.24-2.39,1.35-3,2V4.66a1.93,1.93,0,0,1-.16.93c-.21,1.9-3.34.86-3.34,2.95s3.13,0,3.5,2.11v8.6a4.47,4.47,0,0,0,.57,1.22c.11.61,1.15,1.65,2.2,2.7,0,1-3.14,0-2.77,2.24V36.53a8.15,8.15,0,0,0-2.85.88c-2.74,2.48,1.44,1.44,1.09,2.61a13.82,13.82,0,0,0,1.76.86V63.64h11.14V40a9.5,9.5,0,0,1-.13-2.61,18.16,18.16,0,0,0,.13-2.66V25.41c1-1.2,4.17-1.2,3.13-3.29C277,21.08,276,21.08,274.65,20.47Z"/><path class="cls-7" d="M265.32,20.1c0-.21-.06-.42-.08-.62V10.65c.26-2.11-3.92-1.07-2.88-3.16,1.05-1,2.09-1,2.83-1.9a5.86,5.86,0,0,0,.05-.93V2.92a3.87,3.87,0,0,1,.32-.92,27.7,27.7,0,0,0,2.2-2h-5.24A13.26,13.26,0,0,1,260,2a3.59,3.59,0,0,0-.36.92V5.59a1.63,1.63,0,0,1-.67,1c-.76-.09-.76,1-1.8,1,1,1,2.09,1,2.47,3.16v8.21c0,.41,0,.82,0,1.24,2.71,2,1.67,3.07,0,5.07,0,.43,0,.86,0,1.29v9.46a5.33,5.33,0,0,1-.82,1.33c-.61.55-1.65,1.6.17,2.62a5.1,5.1,0,0,1,.65,1.3V63.64h5.63V42c0-.43,0-.86,0-1.3-1.81.22-2.86-.83-2.86-2.92a3.85,3.85,0,0,1,2.27-1.06,1.65,1.65,0,0,0,.61-1.35V25.81c0-.21,0-.42.08-.64.18-2,3.31-1,3.31-3.05C267.59,22.12,265.5,22.12,265.32,20.1Z"/><path class="cls-39" d="M316,21a8.25,8.25,0,0,1-1.22-1V10.39c0-.54,0-1.07,0-1.58a7.62,7.62,0,0,1,0-1.51c0-.49,0-1,0-1.43V2.07a1.31,1.31,0,0,1,.12-.61c.81-.24,1.86-.24,1.86-1.29,0-.05,0-.11,0-.17H309.3l.1.17a.67.67,0,0,0-.27-.17h-.4c-.84.28-1.75,2.09-3,1.46a7.33,7.33,0,0,0-.63.61V5.19a.86.86,0,0,1-.28.68c-.68.58-2.77.58-3.81,2.67a5.18,5.18,0,0,1,4,1.85,1.77,1.77,0,0,1,.13.81V20c-1,2.14,4.27,2.14,1.07,3.9a2.92,2.92,0,0,0-1.07,1V35.54a3.57,3.57,0,0,1,0,.56c.12,1.7-3,.66-3,2.75,1.05,0,3.14,0,3.05,1.8V161.19h9.61V41.44c0-.78,0-1.55,0-2.32s0-1.53,0-2.29V26a3.78,3.78,0,0,1,.54-1c-.66-1.8,3.53-1.8,2.48-2.85A4.48,4.48,0,0,0,316,21Z"/><path class="cls-7" d="M307.29,11.2a4.41,4.41,0,0,0-.05-.81c-1-.81-3.07-.81-4.11-1.85-1.05-2.09,3.13-1,3.8-2.67a.87.87,0,0,0,.36-.68V2.07a1.18,1.18,0,0,1,.19-.61c.69.63,1.49-1.18,2.31-1.46H306.1a1.29,1.29,0,0,0,.16.17,4.31,4.31,0,0,0-3.75,1.9,1.91,1.91,0,0,0-.07.63V5.23c0,.22,0,.45,0,.68-.34.54-3.47,2.63-.24,3.69a1.68,1.68,0,0,1,.26.8V20c.69,1,2.78,1,3.82,3.14-1,0-3.13,0-3.58,1.81a2,2,0,0,0-.24.51v8.58a2.15,2.15,0,0,1-1.29,2.24c-1.3.76-3.14,1.52-2.51,2.29s2.72,1.54,3.26,2.32a3.79,3.79,0,0,1,.54,2.36V161.19h4.85V40.77a2.64,2.64,0,0,0-.42-.58c-1.65-.3-2.7-.3-3.74-2.39,2.09,1.05,3.13-1,4.16-2.18V25.91a3.54,3.54,0,0,1,.1-1c4.1-1.72-.08-2.77-.1-4.91Z"/><path class="cls-40" d="M322.15,20.29a4.24,4.24,0,0,1-.62-1.1V11c-1.68-2.41-3.77-2.41-5.86-2.41,1.05-2.09,4.18-1,5.71-3a1.61,1.61,0,0,0,.15-.82v-3C321.7,1,322,.5,322.14,0H316a3.41,3.41,0,0,1-2.63,1.62,3.71,3.71,0,0,0-.27.77v3.1A5.75,5.75,0,0,0,312.64,9,4.11,4.11,0,0,1,313.1,11v8.3a1.91,1.91,0,0,0,.24,1.12,15.79,15.79,0,0,1,3.38,2.8c-1.05,0-2.1,1-3.42,1.81a2.5,2.5,0,0,0-.2,1.19V35c0,.43,0,.86-.05,1.3a5.37,5.37,0,0,0-.06,3.9,6.38,6.38,0,0,1,.11,1.31V95.26h8.43V41.35c-1.68-1.46-2.72-2.5-4.81-2.5a25.93,25.93,0,0,1,4.1-2.72,1.25,1.25,0,0,0,.71-1.29V26a3.69,3.69,0,0,1,.81-1.17l2.74-2.73C323,22.12,323,21.08,322.15,20.29Z"/><path class="cls-7" d="M313.1,19.25V11A4.11,4.11,0,0,0,312.64,9a5.75,5.75,0,0,1,.46-3.54V2.39a3.71,3.71,0,0,1,.27-.77A3.41,3.41,0,0,0,316,0h-3.08c-.06.71-1.09,1.33-2.86,1.62a2.81,2.81,0,0,0-.65.77V4.67a8.27,8.27,0,0,1-.14.82c-.92,1-3,2-4,3,2.09,0,3.13,1,4.19,2.41v8.24a4.77,4.77,0,0,0,.44,1.1c.59-.26,2.68.79,2.68,1.83s-2.09,2.09-2.55,2.73a4,4,0,0,0-.57,1.17v9.47a4.37,4.37,0,0,1-.54.64c.53,2.72-3.65.63-3.65,2.72,1,2.09,3.13,0,4.19,2.5V95.26h3.69V41.49a6.38,6.38,0,0,0-.11-1.31,5.37,5.37,0,0,1,.06-3.9c0-.44,0-.87.05-1.3V26.17a2.5,2.5,0,0,1,.2-1.19c1.32-.77,2.37-1.81,3.42-1.81a15.79,15.79,0,0,0-3.38-2.8A1.91,1.91,0,0,1,313.1,19.25Z"/><rect class="cls-41" x="265.24" y="58.23" width="8.63" height="5.41"/><rect class="cls-41" x="269.01" y="116.01" width="8.63" height="5.41"/><rect class="cls-41" x="313" y="89.86" width="8.63" height="5.41"/><rect class="cls-41" x="272.11" y="181.79" width="7.98" height="5.41"/><rect class="cls-41" x="273.87" y="262.41" width="7.08" height="3.96"/><rect class="cls-41" x="307.29" y="157.23" width="7.45" height="3.96"/><rect class="cls-41" x="279.44" y="359.7" width="4.92" height="3.96"/><rect class="cls-42" x="286.58" y="408.59" width="1.75" height="32.68"/><rect class="cls-41" x="286.06" y="395.69" width="3.54" height="18.72"/><rect class="cls-41" x="287.06" y="414.4" width="1.44" height="26.87"/><rect class="cls-42" x="259.61" y="58.23" width="5.63" height="5.41"/><polygon class="cls-42" points="269 121.42 264.72 119.06 264.72 113.74 269 116.01 269 121.42"/><polygon class="cls-42" points="272.11 187.19 267.6 183.48 267.6 177.8 272.11 181.79 272.11 187.19"/><polygon class="cls-42" points="273.87 266.37 271.12 261.16 271.12 257.02 273.87 262.41 273.87 266.37"/><polygon class="cls-42" points="279.58 363.63 276.78 351.52 276.78 347.58 279.44 359.7 279.58 363.63"/><polygon class="cls-42" points="286.06 414.4 282.56 399.89 282.56 384.67 286.06 395.69 286.06 414.4"/><rect class="cls-41" x="291.88" y="317.65" width="5.9" height="3.36"/><rect class="cls-41" x="299.71" y="223.22" width="6.53" height="3.36"/><path class="cls-43" d="M273.92,29.44h-8.68V35c0,.37,0,.74,0,1.13-.78.64-1.82,1.68-2.87,2.73,1.05,0,1.05,1,2,1a1.51,1.51,0,0,1,.87,1.31V58.23h8.68V41.15c0-.88-.05-1.75-.1-2.6s.1-1.66.1-2.43Z"/><rect class="cls-44" x="268.98" y="87.22" width="8.68" height="28.79"/><rect class="cls-45" x="307.29" y="128.44" width="7.42" height="28.79"/><rect class="cls-46" x="299.71" y="194.43" width="6.53" height="28.79"/><path class="cls-16" d="M321.31,36c-.41-.32-1.46-.32-1.64,0H313.1s0,.14,0,.35c-.55-.67-.55,2.47-1.59,1.42,3.13,1.05,6.27-1,9.06-1.42A6.53,6.53,0,0,0,321.31,36Z"/><path class="cls-5" d="M309.29,31.67h-2v3.94a2.51,2.51,0,0,1-.24.6,9.81,9.81,0,0,1-5,1.59c3.14,0,6.27,0,7.21-2.81V31.67Z"/><rect class="cls-5" x="299.83" y="178.4" width="6.41" height="2.72"/><rect class="cls-17" x="304.24" y="178.4" width="2" height="2.72"/><path class="cls-5" d="M288.06,31.67h-2V35a6.25,6.25,0,0,1-.26,2.28c-.44.53-.44.53-1.49.53,1.05,0,3.14,0,3.42-1.59a2.56,2.56,0,0,0,.33-.6Z"/><path class="cls-5" d="M279.35,36c-2.35-.32-3.4,1.77-5.49,1.77A10.88,10.88,0,0,0,279,36.19Z"/><path class="cls-16" d="M295.69,31.67h-3.91V35c-2.24,1.77-4.33,2.81-6.42,2.81,3.13-1,7.31,1.05,10.07-.53.1-.31.16-.67.26-1.06Z"/><path class="cls-16" d="M273.92,36H270.8a3.56,3.56,0,0,0-2.58,0h-3a.83.83,0,0,1-.24.35c-.55.38-1.59.38-2.64,1.42,4.18-1,8.36,1.05,11.48-.63A9.37,9.37,0,0,0,273.92,36Z"/><path class="cls-5" d="M265.24,36h-.95a7.72,7.72,0,0,0-3.82,0h-.86v.35c-.27.22-.46.5-.77.79.39.63-.66.63-1.7.63,3.13,1.05,5.22-1,7.86-1.42A.83.83,0,0,0,265.24,36Z"/><rect class="cls-16" x="272.11" y="165.96" width="17.79" height="2.88"/><rect class="cls-5" x="281.83" y="165.96" width="8.06" height="2.88"/><rect class="cls-17" x="287.64" y="165.96" width="2.26" height="2.88"/><rect class="cls-16" x="286.06" y="291.02" width="11.18" height="2.88"/><rect class="cls-5" x="292.17" y="291.02" width="5.07" height="2.88"/><rect class="cls-17" x="295.82" y="291.02" width="1.42" height="2.88"/><rect class="cls-16" x="291.68" y="165.96" width="2.67" height="2.88"/><rect class="cls-16" x="279.67" y="331.27" width="2.67" height="2.88"/><path class="cls-25" d="M309.29,128.38s0-48.81.08-87.33a4.28,4.28,0,0,0-.6-.61c-1.46-.55-2.51-2.64-4.6-1.59,1.05-2.09,4.18-1.05,5.2-3.28V35c0-3,0-5.88,0-8.67a6,6,0,0,1,.28-1.09c.78-1,1.83-1,2.87-2s-1-2.09-2.21-2.22a5.45,5.45,0,0,1-.94-1c0-3.06,0-5.93,0-8.55a4.44,4.44,0,0,0-.06-.89c-1-1.94-4.11-.9-5.16-3a8.6,8.6,0,0,0,5.17-1.91,3.12,3.12,0,0,0,.06-.74V2.13a8.23,8.23,0,0,1,.82-.68A8.43,8.43,0,0,0,312.44,0h-31A7.87,7.87,0,0,0,281,1.48,3.44,3.44,0,0,0,281,2V5.51a2.23,2.23,0,0,0-.2,4.1,3.84,3.84,0,0,1,.2,1.5v9a11.27,11.27,0,0,0,1.28.89c1,.09,2,1.13,3.08,2.18a4.16,4.16,0,0,0-3.57,1.53,3.38,3.38,0,0,0-.79,1V35.75c-.85.71-2.71,1.42-3.6,2.14s.51,1.45,2.05,2.18S281,41.53,281,42.28V198.76h3.36l1.7,1.78v20.72h3.49l2.33,7.1v41.69h4.64l-.22-46.83h8.83v-62l9.61-4,0-28.79Z"/><rect class="cls-9" x="286.06" y="234.88" width="3.49" height="52.04"/><rect class="cls-9" x="280.82" y="72.41" width="3.49" height="52.04"/><path class="cls-47" d="M305.13,191.93c0-3.31-.4-6-.89-6s-.88,2.68-.88,6,.39,6,.88,6S305.13,195.24,305.13,191.93Z"/><path class="cls-48" d="M259.57,161.35h62.08V42a1.91,1.91,0,0,0-.23-1.11c-.52-2-5.75.09-4.7-3.05,1-1,4.18,0,4.93-2.34V25.58c1.34-2.41,4.47-1.37,4.47-2.41s-3.13-2.09-4.1-3a3.85,3.85,0,0,1-.37-.84V10.83c-1.8-1.25-3.89-.2-4.93-2.29-1.05-4.19,4.18-1,4.93-3.19V4.24H259.57V6c-.34,1.53-1.39,1.53-2.43,1.53,0,1,0,2.09,2.1,2.14a1.08,1.08,0,0,1,.33.59v9.84a1.36,1.36,0,0,0,.26.85c1.49,1.21,1.49,2.26-.05,3.58a1.77,1.77,0,0,0-.21.94v11c-.36.35-.6.71-.93,1.07-.46,1.38-.46,2.42.27,2.18a3.82,3.82,0,0,1,.66,1.11Z"/><path class="cls-49" d="M280.05,19.81c-.27-3.13-.55-6-.83-8.57l-.06-.54C279.09,8.54,276,9.58,276,7.49a3.32,3.32,0,0,0,2.56-2.06,6,6,0,0,0-.07-.85c-.06-.55-.13-1.07-.2-1.57,0-.28-.07-.54-.1-.8.95,0,2-2,3-2a1.63,1.63,0,0,1-.11-.17h-47a9.06,9.06,0,0,1-1.31,2,3.25,3.25,0,0,0,0,.7c0,.7,0,1.4,0,2.1,0,.23,0,.46,0,.7-1.69,1-3.78,1-4.82,3.06,2.09,0,3.13,1,4.78,2.49,0,.23,0,.46,0,.69,0,2.56-.07,5.11-.12,7.63a2.3,2.3,0,0,0,0,.69c1.57,2.08,4.71,1,5.75,3.13-2.09,0-4.18,0-5.46,1.66-.4.23-.49.46-.49.68-.1,3.46-.21,6.88-.35,10.27a3.76,3.76,0,0,0-1,.68c-1.08-.75-2.13,2.39-3.17,1.34,0,2.09,2.09,2.09,3.09,2.25a1.73,1.73,0,0,0,.86.44c-4.57,99.63-25.88,166.76-44.5,206.34l29.27-5c61.13-49.61,67.18-145.32,64.79-201.52A4.45,4.45,0,0,1,280,40c-.89,1-1.94-2.17-3-1.12a20.91,20.91,0,0,1,4.15-3.39c0-.24,0-.49,0-.73-.17-3.16-.37-6.18-.58-9a1,1,0,0,1,.1-.68c.55-1.86,3.68-.82,3.68-2.91a5.44,5.44,0,0,1-3.9-1.69A.87.87,0,0,1,280.05,19.81Z"/><path class="cls-50" d="M176,19.64c0-3.13,0-6,0-8.62a2.71,2.71,0,0,0-.2-.67c-.2-1.81-3.33.28-3.33-1.81s3.13-1,3.55-3.06V4.92c0-.91,0-1.77,0-2.57a2.08,2.08,0,0,1,.17-1c.18-.46.45-.9.61-1.34H161.73c-.78.94-2.93.57-3.3,2.35v.53c0,.82,0,1.7,0,2.63v.57c-1.65.37.44,2.46-.6,3.5,0,0,1,0,.53.15a4.62,4.62,0,0,1,.09.65c0,2.79,0,5.9,0,9.3a1.6,1.6,0,0,0,.14.79c1.29.61,5.47,2.7.23,4.09a1,1,0,0,0-.35.85c0,3.05,0,6.29,0,9.7a1.12,1.12,0,0,1-.47.93c-1.3,1.76-7.57-.33-5.48,2.81,0,1,4.18,1,5.91,2a5.32,5.32,0,0,1,.06,1c.34,83.83,1,249.17,1,249.17h15.69s.44-165.43.65-249.25c0-.32,0-.65,0-1-.32-1.9-4.5-.86-3.45-3,1-1,2.09-1,3.47-1.83V35c0-3.4,0-6.64,0-9.7a4.74,4.74,0,0,1,.05-.84c.63-1.33,1.68-1.33,2.72-1.33L176,20.42C176,20.16,176,19.9,176,19.64Z"/><path class="cls-51" d="M234.28,20.45a.85.85,0,0,1-.2-.62c-.1-3.09-.22-6.19-.37-9.32-.36-.21-.56-.41-.86-.62-.8-.31-1.85-2.4-3.94-1.35,1.05-2.09,4.18,0,4.5-3.64l0-.62-.12-1.88a1,1,0,0,1,.15-.63c1.16-.65,1.48-1.22,1.39-1.77H161c0,.33,0,.65,0,.93V5.2a2.27,2.27,0,0,1-.36.6c-.64,1.69-2.73.65-3.78,2.74a3.33,3.33,0,0,1,3,1.14c.43.23.71.46,1.12.7v9.16a29.78,29.78,0,0,1,4.22,3.63c-1,1-2.09,1-3.18,1.59a1.74,1.74,0,0,0-1,1.82v8.55a4.14,4.14,0,0,1-.39,1c-1.66-.42-2.7.63-4.8,1.67a11.4,11.4,0,0,0,4.37,2.4,2,2,0,0,1,.82,1v199l28.38,7.07c20.69-43,44.21-116.23,45-206.5-.22-.21-.36-.41-.59-.61-.63.73-1.67-2.41-2.72-1.36,1.05-1.05,1.05-2.09,2.74-2.32a8.43,8.43,0,0,0,.59-.62q0-5.23-.11-10.54a.75.75,0,0,1,.2-.61c.76-.55,1.81-.55,2.86-1.59C237.28,21.08,234.14,22.12,234.28,20.45Z"/><path class="cls-52" d="M273.21,19.88l0-.5q-.26-4.29-.59-8.66a1.12,1.12,0,0,0-.16-.51c-.66-.63-2.75-.63-3.8-1.67-1-2.09,3.14-1,3.52-2.89a2.9,2.9,0,0,0,0-.51c-.07-.85-.15-1.71-.22-2.56a1.46,1.46,0,0,1,0-.51C272.61-.21,274.66.53,276,0H245.74c-.46.93-3.27.52-3.43,2.08a3.25,3.25,0,0,0,0,.54c.07.89.15,1.84.23,2.86a1.82,1.82,0,0,1,0,.52c0,1.49-1.08,1.49-2.13,1.49a2.93,2.93,0,0,0,2.27,2.43.92.92,0,0,1,.21.6c.16,2.64.31,5.58.43,8.8l0,.69c1.24,2.11,3.33,1.07,4.38,3.16-2.09,0-3.14,0-4.13,1.94a2.19,2.19,0,0,0-.08.76q.12,4.57.13,9.72a3.43,3.43,0,0,1-.61.79c-.54-.67-1.58,1.42-2.63,1.42,0,2.09,3.14,1.05,3.23,3.48,0,.28,0,.56,0,.84a562.17,562.17,0,0,1-4.48,64.69c-5.51,43.58-18.08,87.66-31.81,124.23l16.64-4.3c21.22-20.82,51.78-84.21,50-185.91,0-.33,0-.65,0-1a15.5,15.5,0,0,1-.07-3c0-.17,0-.33,0-.5q-.14-5.19-.39-10.51c0-.16,0-.33,0-.49,1.4-2.23,2.45-2.23,4.54-2.23C277,21.08,273.86,21.08,273.21,19.88Z"/><path class="cls-53" d="M277,23.17c0-2.09-2.1-2.09-3.19-2.4-.32-.2-.53-.4-.82-.6-.21-3-.45-6.3-.67-9.49a2.53,2.53,0,0,0-.3-.59,3.7,3.7,0,0,0-3.39-1.55c0-2.09,3.14-1,3.32-3l0-.53c0-.53-.08-1.05-.11-1.55,0-.19,0-.39,0-.58,0-2.38,3.28-1,4-2.86h-4.21c-.51,1.21-2.08,1.28-2.93,1.58a.77.77,0,0,0-.22.67c.07.9.14,1.8.2,2.7a1.52,1.52,0,0,1,0,.67c-1-.22-2.06.83-3.1,1.87,0,2.09,3.13,1,3.38,2.8a1.19,1.19,0,0,1,.18.67c.19,2.93.36,5.84.5,8.71a3,3,0,0,0,.08.66c1.08,1.79,3.17.75,4.22,2.84-2.09-1.05-3.14,1-4,1.76a2.83,2.83,0,0,0,0,.65q.19,5,.3,9.93a2.25,2.25,0,0,1-.41.65c0,1.64-2.12,1.64-3.17,1.64,1,1.05,2.09,3.14,3.67,3.52,0,.22,0,.43,0,.64,1.17,130.17-46.79,180-46.79,180l-13.68,3.82,0,.06-2.21,4.81-.17.36,16.64-4.3s52.59-51.6,50-186.32c0-.22,0-.43,0-.65a17.9,17.9,0,0,1-.12-2.62,4.87,4.87,0,0,0,0-.66c-.05-2-.11-4-.19-6,0,0-.12-1.75-.32-4.47a2.05,2.05,0,0,1,.09-.94C273.86,23.17,276,23.17,277,23.17Z"/><path class="cls-7" d="M161.73,0H154.8a2.66,2.66,0,0,1-1.37,1.88c0,.34,0,.68,0,1,0,.82,0,1.69,0,2.61a9.05,9.05,0,0,1-.72.57c-1.17.36-3.26.36-3.26,2.45,1.05,2.09,3.14,0,4,2.49v.67c0,2.43,0,5.08,0,7.94a2.77,2.77,0,0,0,.53.78c.63.66,2.72,1.7,3.77,2.75-2.1-1.05-3.14,1-4.27,2.17,0,.28,0,.57,0,.85,0,2.83,0,5.81,0,8.93A1.85,1.85,0,0,1,152.57,37c-2,1.84-1,2.88,1.1,3.87,0,.66,0,1.32,0,2,.5,82.58,1.47,242.33,1.47,242.33l4.43,5.78s-.66-165.34-1-249.17a5.32,5.32,0,0,0-.06-1c-1.73-3-7,2.21-5.91-3,0-1,3.13-1,5.48-1.76a1.12,1.12,0,0,0,.47-.93c0-3.41,0-6.65,0-9.7a1,1,0,0,1,.35-.85c1.06-.35,2.1-.35,2.1-1.39,1.05-2.09-1-2.09-2.33-2.7a1.6,1.6,0,0,1-.14-.79c0-3.4,0-6.51,0-9.3a4.62,4.62,0,0,0-.09-.65c-1.58-.15.51-2.24-.53-3.28,0,0,1,0,.6-.37V5.51c0-.93,0-1.81,0-2.63V2.35C158.8.57,161,.94,161.73,0Z"/><polygon class="cls-42" points="161.99 290.97 162.24 360.66 164.59 365.19 164.59 290.97 161.99 290.97"/><polygon class="cls-41" points="164.59 365.19 167.22 365.19 168.35 290.35 164.59 290.97 164.59 365.19"/><polygon class="cls-9" points="161.99 283.69 161.99 244.22 173.54 243.4 173.54 281.13 161.99 283.69"/><path class="cls-54" d="M284.58,20.8a3.23,3.23,0,0,1-.1-.61q-.39-4.85-.9-9.78l-.06-.61c-.25-1.26-.25-2.31-.41-3.68,0-.2,0-.41-.07-.61-.11-1-.24-2.06-.36-3.09a1.56,1.56,0,0,1,0-.61A1.61,1.61,0,0,0,283.2,0h-2a1,1,0,0,1,0,.17c0,1.05-3.14,0-3,2.14l.09.68c.07.63.16,1.3.24,2a1.6,1.6,0,0,1,0,.72A3.42,3.42,0,0,1,276,7.49c0,2.09,3.14,1,3.13,3.12q0,.44.09.9c.23,2.48.47,5.23.68,8.23a.87.87,0,0,0,.17.53c1.16.81,2.2,1.85,4.29,1.85,0,3.14-3.13,1.05-4.12,3.16,0,.19,0,.39,0,.58.15,2.79.27,5.75.37,8.86,0,.2,0,.41,0,.62C279.09,37.8,277,36.76,276,37.8c0,2.09,3.14,1.05,4.12,2.68a2.63,2.63,0,0,1,.67.66c.87,62.83-12.52,177.7-110.08,253.35h3.61S291.62,219.78,285.62,40.05q0-.3-.06-.6a5.24,5.24,0,0,1,0-2.37l0-.6q-.24-5.67-.64-11.47a1,1,0,0,1,.08-.6C287.45,22.12,287.45,21.08,284.58,20.8Z"/><path class="cls-7" d="M279.94,19.45c-.22-2.83-.45-5.44-.69-7.8l-.09-.92C279.09,8.54,277,9.58,276,8.54c-1.05-2.09,2.09-1,2.52-2.75a1.41,1.41,0,0,0,0-.73c-.08-.72-.17-1.4-.25-2q0-.36-.09-.69c-.14-2.17,3-1.12,3-2.17a1,1,0,0,0,0-.17h-3.3c-.51,1.21-2.09,1.3-3,1.7a.76.76,0,0,0-.19.62c.09.85.17,1.69.25,2.53a3.19,3.19,0,0,1,0,.62c-1.1,1-2.15,2-4.24,2,1,2.09,4.18,0,4.67,3a1.9,1.9,0,0,1,.12.62q.38,4.43.66,8.76c0,.21,0,.42,0,.62.79.6.79,1.64,2.88,1.64,0,2.09-3.14,1.05-2.63,2.68,0,.21,0,.41,0,.61q.28,5.32.43,10.53a1.8,1.8,0,0,1-.32.61c-1.71.21-1.71,1.25-1.71,2.3s1.05,1,1.85,1.35a2.16,2.16,0,0,1,.3.61c3.36,179-105.72,250-105.72,250l-.67,3.73C269.68,220.77,282.3,104,281,40.67a2.49,2.49,0,0,1-.82-.33c-2.1-.45-3.14-.45-3.14-2.54,1,0,2.09-2.09,2.83-1.37a2.69,2.69,0,0,1,1-.32c-.12-3.72-.29-7.23-.49-10.51a.9.9,0,0,1,.11-.59c.72-1.84,3.85-.8,3.85-2.89-2.09,0-3.13-1-4.33-2.14C280,19.8,280,19.62,279.94,19.45Z"/><path class="cls-55" d="M237.53,10.22c-.1-.2-.17-.39-.28-.59,0-1.09-2.07-2.14,0-3.54a3.86,3.86,0,0,0,.12-.59c0-1-.09-2-.14-3l0-.59c1-1.45,2.51-1,3.62-1.95h-6.7a8,8,0,0,1-1.25,1.75,1.48,1.48,0,0,0-.16.79c0,.72,0,1.48,0,2.29a4.59,4.59,0,0,1-.06.82,13.45,13.45,0,0,1-5.76,1.84c1.05,2.09,4.18,1,5.7,3.17,0,.16,0,.33,0,.49-.06,2.56-.15,5.38-.26,8.43a1.08,1.08,0,0,0,.1.58c.73,2,4.92-.13,4.92,3-1.05,2.09-4.19,1-5,1.8a.69.69,0,0,0-.29.62q-.19,4.52-.47,9.56a5.37,5.37,0,0,1-.15.67c-1.45,2-3.54.94-4.59,2,0,1.05,2.09,2.09,3.41,2.16a4.42,4.42,0,0,0,1,.35c-3.78,62.35-17.32,174.93-65.32,254.18h4.72s65.42-91.87,67.28-253.55a3.14,3.14,0,0,0-.38-.57c-1.33-.48-2.38-1.52-2.38-2.57,0-2.09,3.14,0,2.68-2a3.86,3.86,0,0,0,.12-.57Q238,23,237.53,10.22Z"/><path class="cls-7" d="M233.33,19.44q0-4.35-.05-8c0-.32,0-.63,0-.94-1.21-2-3.3-2-5.39-2,1-2.09,4.18-1,5.29-3.18,0-.26,0-.51,0-.76,0-.76,0-1.47-.07-2.15a1.09,1.09,0,0,1,.2-.74c.87-.49,1.91-.49,1.91-1.54a1.3,1.3,0,0,0,.08-.17H232l.1.17c-2.09,0-3.14,0-4.59,2a2.47,2.47,0,0,0,0,.61l.06,1.84c0,.21,0,.41,0,.62-.68,1.19-3.81,1.19-4.86,3.28,2.09,0,3.14,1,5,2.22,0,.2,0,.41,0,.61q.09,4.61.12,9.14v.61a14.43,14.43,0,0,1,0,3v.6q0,5.22-.07,10.34c0,.2,0,.4,0,.6-.87,2.13-5.05,1.09-4,3.18,1,1,3.13,0,3.35,1.61a2.31,2.31,0,0,1,.55.6c-3.66,160.18-61.65,244.27-61.65,244.27v9.16c52.83-89.14,64.81-193.94,67-253.18a1.31,1.31,0,0,0-.1-.67,5.09,5.09,0,0,0-3.9-1.79c1.05-2.09,3.14-1.05,4-2.81a1.19,1.19,0,0,0,.15-.65q.14-5.12.19-9.68a1.39,1.39,0,0,1,.09-.6c1.8-.9,3.9-.9,4.94-3-2.09,0-3.14-1-5-2.14Z"/><polygon class="cls-16" points="215.52 143.28 163.58 137.23 163.06 145.46 215 151.51 215.52 143.28"/><polygon class="cls-5" points="215.52 143.28 191.97 140.54 191.45 148.77 215 151.51 215.52 143.28"/><path class="cls-25" d="M200.57,208.22l-39.64-52.61V41.1A2.12,2.12,0,0,0,159.62,40c-.74-1.14-4.92.95-3.88-2.19,1-1,4.19,0,5.19-2.14V25.71c2.13-.45,4.22-1.5,4.22-3.59,0-1-2.09-1-3.45-1.74a1.66,1.66,0,0,1-.77-1.62v-8a1.83,1.83,0,0,0-.32-.55,5,5,0,0,0-3.82-1.71c4.18-4.19,10.45-3.14,16-2.81h2.48a14,14,0,0,1,3.5-.33c-1,2.09-3.14,3.14.34,5.07a3.64,3.64,0,0,1,.11,1.1v8.17c1.64,1.34,3.73,1.34,4.78,3.43-1.05,0-2.09,2.09-4,1.56a3,3,0,0,0-.75.61V35.66A21.14,21.14,0,0,1,183,36h5.52c-.36,1.76-4.54.72-3.5,2.81,1.05,1,3.14,1,3.94,1.65a.87.87,0,0,1,.34.79v61.92h18.05v36h10.5S206.93,199.29,200.57,208.22Z"/><polygon class="cls-17" points="215.52 143.28 208.94 142.52 208.42 150.74 215 151.51 215.52 143.28"/><polygon class="cls-16" points="217.98 58.84 165.85 57.51 165.79 61.64 217.92 62.97 217.98 58.84"/><polygon class="cls-5" points="217.98 58.84 194.34 58.24 194.28 62.37 217.92 62.97 217.98 58.84"/><polygon class="cls-5" points="196.13 95.25 190.17 95.1 190.11 99.23 196.07 99.38 196.13 95.25"/><polygon class="cls-5" points="172.7 14.06 166.74 13.91 166.68 18.04 172.64 18.19 172.7 14.06"/><polygon class="cls-5" points="195.38 200.18 172.01 195.3 172.08 199.49 195.43 204.36 195.38 200.18"/><polygon class="cls-17" points="217.98 58.84 211.37 58.67 211.31 62.8 217.92 62.97 217.98 58.84"/><g class="cls-14"><rect class="cls-15" x="160.93" y="12.6" width="66.74" height="0.79"/><rect class="cls-15" x="160.93" y="26.75" width="66.55" height="0.79"/><polygon class="cls-15" points="160.94 101.9 160.92 102.69 222.88 106.48 222.91 105.69 160.94 101.9"/><polygon class="cls-15" points="160.96 162.91 160.9 163.69 210.59 171.55 210.66 170.77 160.96 162.91"/><polygon class="cls-15" points="160.97 184.12 160.89 184.9 205.38 192.76 205.46 191.98 160.97 184.12"/><polygon class="cls-15" points="160.98 224.71 160.87 225.49 191.86 233.56 191.97 232.79 160.98 224.71"/><path class="cls-15" d="M188.52,26c-.05,2.93-.1,6-.15,9.27v.56a2,2,0,0,1,.58-.09c0-.17,0-.34,0-.51.06-3.57.11-7,.16-10.14.73-.31,1.23-.61,2-.92a.87.87,0,0,1,.19-.41l-.84.39C189,24.71,188.53,25.32,188.52,26Z"/><path class="cls-15" d="M188.27,41c0,.18,0,.36,0,.54-1,62.78-2.77,169.19-2.77,169.19l.57,0s1.75-106.53,2.78-169.29v-.54c-.66-1-2.55-1.05-3.64-2.81a1.35,1.35,0,0,0-.2.74C186.06,38.85,187.1,40.94,188.27,41Z"/><path class="cls-15" d="M189.44,5.31c0-.19,0-.38,0-.57,0-.74,0-1.44,0-2.08,0-.18,0-.35,0-.52a1.71,1.71,0,0,1,.66-.84c-.33.1-.7.19-1.09.33a.68.68,0,0,0-.15.49c0,.79,0,1.64,0,2.58v.56c-.6,1-2.17,1.17-3.28,2.44C187.3,8.14,188.27,6.34,189.44,5.31Z"/><path class="cls-15" d="M188.68,10.42a1.74,1.74,0,0,1,.08.72c0,2.33-.08,4.91-.12,7.71a1.7,1.7,0,0,0,.8,1.7,25.19,25.19,0,0,1,2.85,1.75c.3.32.14.64-.29,1a6,6,0,0,1,1.37-.1c0-2.09-2.09-2.09-3.27-2.6a3.25,3.25,0,0,1-.9-.86c.05-3.12.1-6,.14-8.55a2,2,0,0,0-.07-.72,3,3,0,0,0-2-1.35A4,4,0,0,1,188.68,10.42Z"/><rect class="cls-15" x="169.4" y="164.69" width="0.58" height="62.7"/><path class="cls-15" d="M172,42.09V103h.57V42.09c0-.86-.62-1.72-3-2.57a6.39,6.39,0,0,1-.95-.41,5.19,5.19,0,0,0,.82.41C171.52,40.37,172,41.23,172,42.09Z"/><path class="cls-15" d="M173.8,23.92a6.18,6.18,0,0,1-1.84.77v9.76c0,.83-.2,1.68-2.34,2.52a5.68,5.68,0,0,0-1.25.65,6.89,6.89,0,0,1,1.42-.65c2.42-.84,2.74-1.69,2.74-2.52V24.69a6,6,0,0,0,1.73-.74A.9.9,0,0,1,173.8,23.92Z"/><path class="cls-15" d="M172.53,11.2a6,6,0,0,0-.05-.95,3.51,3.51,0,0,1,0-4.45,4.57,4.57,0,0,0,.05-.82V3.42a1.55,1.55,0,0,1,.91-1.64c.94-.47,3.27-.55,3.4-1.78h-.36l.17.17c-1.05,1.05-3.14,1.05-3.82,1.61A1.57,1.57,0,0,0,172,3.42V5.8c-.26.28-.42.56-.66.84-3,.85.12,2.94.44,3.61a6.23,6.23,0,0,1,.22.95v8.23c-.24.72.43,1.12,1.25,1.53a2,2,0,0,1-.68-1.53Z"/></g><ellipse class="cls-56" cx="175.53" cy="187.36" rx="1.83" ry="12.42"/><ellipse class="cls-57" cx="181.04" cy="174.66" rx="7.49" ry="19.81"/><ellipse class="cls-58" cx="174.27" cy="91.1" rx="2.41" ry="12.38"/><polygon class="cls-59" points="213.12 214.96 230.51 212.76 236.9 210.14 214.25 211.63 213.12 214.96"/><polygon class="cls-59" points="219.31 196.04 240.72 195.15 246.18 192.37 220.62 191.7 219.31 196.04"/><polygon class="cls-59" points="225.43 174.94 249.58 174.94 255.54 169.9 227.07 168.7 225.43 174.94"/><polygon class="cls-59" points="231.35 150.94 257.14 151.13 262.99 145.49 232.59 145.34 231.35 150.94"/><polygon class="cls-60" points="235.84 128.59 262.56 129.32 267.73 123.33 236.9 122.35 235.84 128.59"/><polygon class="cls-60" points="239.48 104.19 266.77 103.34 271.51 98.17 240.19 98.17 239.48 104.19"/><polygon class="cls-61" points="242.04 78.35 269.27 76.89 273.58 70.79 242.56 70.89 242.04 78.35"/><polygon class="cls-61" points="243.52 48.62 270.29 47.04 274.01 41.15 243.64 41.15 243.52 48.62"/><polygon class="cls-61" points="243.31 19.1 269.53 19.1 272.76 12.99 243.03 12.99 243.31 19.1"/><polygon class="cls-62" points="271.51 98.17 240.19 98.17 240.29 97.12 271.51 98.17"/><polygon class="cls-63" points="242.56 70.89 268.89 70.89 242.67 69.17 242.56 70.89"/><path class="cls-64" d="M243.64,41.15H274l-9.3-.26h-.62a12.2,12.2,0,0,1-2.6-.07l-.66,0-4.67-.13-.68,0a11.1,11.1,0,0,1-4.94-.14H250l-3-.08-.85,0c-1.53-.49-1.53-.49-2.87-.07Z"/><polygon class="cls-65" points="232.43 146.03 258.87 145.47 232.59 145.34 232.43 146.03"/><polygon class="cls-66" points="236.9 122.35 267.73 123.33 237.06 121.39 236.9 122.35"/><polygon class="cls-7" points="159.58 49.67 227.3 50.81 227.48 45.46 158.6 45.46 159.58 49.67"/><polygon class="cls-7" points="158.91 123.15 219.67 128.59 218.83 133.61 159.58 128.47 158.91 123.15"/><polygon class="cls-7" points="197.28 217.95 159.58 208.22 160.93 205.31 198.81 213.59 197.28 217.95"/><path class="cls-7" d="M159.93,49l-.78,1.16,30.59,45.43L219.3,129.2l.82-1.1L194.25,84.71Zm55.56,73.78-25-28.32L164.41,55.67,193.49,85.9Z"/><path class="cls-7" d="M174.71,6a2.52,2.52,0,0,0-.4-.4l-3.75-3.32-.37-.37c-.7-1.4,1.26-1,2-1.89H169c.09.7.69,1.28-.95,1.43a1.42,1.42,0,0,0-.06.46c1.19,1,2.41,2.13,3.64,3.22l.46.4a4.11,4.11,0,0,0,.78,2C173.71,7.33,176,7.66,174.71,6Z"/><path class="cls-7" d="M223.07,40c-1.47-2.23-5.65-1.18-4.18-4.16a2.24,2.24,0,0,0-.36-.42l-9.91-10-.45-.45c-.16-.78.88-1.82,1.93-1.82A34,34,0,0,0,204,20.56a2.06,2.06,0,0,1-.6-.43l-8.61-8.68-.68-.7c-2.79-2.21-9.06-.12-10-5.29l-.51-.27-6.78-3.4c-.21-.1-.42-.21-.59-.31A1.81,1.81,0,0,0,177.56,0h-4.24a3.25,3.25,0,0,1,.58,1.77c0,.18.25.37.63.56l6.26,3.15.53.26c.56,3.84,5.78,2.8,9.32,4.68l.61.3,1.76.88L201.27,20c.15.16.3.31.46.46,1.05,2.76,7.32-.38,4.8,4.85l.49.5,9.55,9.66a2.28,2.28,0,0,1,.34.73c.51.61-2.63,1.65-.54,2.7a6.13,6.13,0,0,1,3,1.21,18.38,18.38,0,0,1-5.09-1.21c-2.09-1.05,2.09-2.09.57-2.74l-.45-.3L198.73,25.29a2.72,2.72,0,0,1-.34-.34c-1.88-2.83-5-2.83-6.62-4.4-.24-.12-.44-.24-.63-.35l-1.26-.84-9.63-8.52-.45-.4C178,9.71,176.26,9.6,174.49,9a18.58,18.58,0,0,0,3,1.42,2.71,2.71,0,0,1,.56.39l10.17,9a4.35,4.35,0,0,0,.42.33c1.6,1,5.78,1,6.59,4.61l.45.3,15.77,10.58a2.31,2.31,0,0,1,.43.35c.31,5,5.54,2.92,7.27,4.87l.51.29,7.56,5.07.6-1.33-4.11-4.15Zm-1.23.77a4,4,0,0,0-.61-.35l-.24-.06a2,2,0,0,0,.27-.08,2.51,2.51,0,0,1,.6.45l.16.16Z"/><path class="cls-7" d="M161.92,127.91l-1,.84,16.71,42.6L198.33,214l1-.77-16.66-47.87Zm32.87,76-16.14-33.31-13.19-33.64,16.26,29.35Z"/><path class="cls-67" d="M469.85,2.17c.52-2,2.61-2,3.66-2A1.63,1.63,0,0,1,473.4,0H456.11c-1.1.92-2.58.48-3.1,1.81a2.32,2.32,0,0,0-.43.62V6.07c-3.12,1.42,0,3.51,0,4.08v9.26a6.45,6.45,0,0,0,.21.84c-.19,1.87,1.9.83,2.95,1.87,1,2.09-3.14,1.05-3.16,3.37V35.82a4.52,4.52,0,0,1-.62,2c-.33.67,0,1.34.33,2a5,5,0,0,1,.29,2V272.15l17.12,22.29V40.25a10,10,0,0,1-1.27-1,3.7,3.7,0,0,1,.05-2,14.43,14.43,0,0,1,1.22-1V26.3a8.72,8.72,0,0,1,0-.89c1.68-.15,1.68-3.29,3.78-2.24,0-2.09-3.14-1.05-3.67-2.91a2,2,0,0,1-.14-.83V2.77A3.29,3.29,0,0,1,469.85,2.17Z"/><path class="cls-68" d="M442.84,6.28a1,1,0,0,0,.54-.8V3.2c0-.27,0-.54,0-.8.85-1.18,4-1.18,5-2.23a1,1,0,0,0,0-.17H429.59c0,.06,0,.11,0,.17,0,2.09-3.13,0-3.25,1.89a2.52,2.52,0,0,0-.09.82v2.3a2.9,2.9,0,0,1-.43.81c-1.45.46-2.5.46-2.5,1.5,0,2.09,1.05,2.09,1.78,1.9a9.59,9.59,0,0,1,1.15.89V20c.21,2.13,3.34,0,3.34,2.13,0,3.14-3.13,1.05-3.34,3.24V35.73a2.12,2.12,0,0,1-.36.6,4.37,4.37,0,0,1-3.61,1.47c0,3.14,3.13,0,3.25,2.17.27.2.45.4.72.61V144.22l17.12,8.1V41.39c-.19-2.54-2.28-2.54-3.32-2.54a19.58,19.58,0,0,1,2.5-2.22,5.28,5.28,0,0,1,.82-.58V25.36a2.11,2.11,0,0,1,.63-1.08c3.36-2.16.23-3.2-.63-4.2V10.52c0-.3-.2-.59-.77-.88-1.51-.06-3.6-1.1-2.55-2.15C441.1,7.49,442.15,7.49,442.84,6.28Z"/><polygon class="cls-69" points="452.58 272.15 452.58 247.5 469.7 270.28 469.7 294.44 452.58 272.15"/><path class="cls-70" d="M459.5,20.43a1.45,1.45,0,0,1-.2-.84V11c-1.47-2.5-3.56-2.5-5.66-2.5,1.05-2.09,4.19-1,5.55-3a4.62,4.62,0,0,0,.11-.63V3.11a1.25,1.25,0,0,1,.6-1.25C460.66,1.4,462,.73,463,0H447.27l.1.17c-2.09,0-4.18,0-5.19,2.38V5.1a.86.86,0,0,1-.2.66c-.88,1.73-4,.69-4,2.78s3.13,0,4.21,2.17v8.83a1.67,1.67,0,0,0,.16.86,5.73,5.73,0,0,0,4,1.72c-1.05,1.05-3.14,1.05-4,2.77a1.85,1.85,0,0,0-.16.92V36c-.13.16-.22.33-.36.5-.72.3-2.81.3-2.81,2.39,1.05,0,3.14,0,3,1.73a2.6,2.6,0,0,1,.14.53v208l17.12,20.46V41.08a1.09,1.09,0,0,0-.54-1c-.93-.17-2-1.21-3-2.26,1,0,2.09-1,3.53-1.76,0-.33,0-.66,0-1V25.66a1.58,1.58,0,0,1,.28-.9c.34-1.59,4.52-.55,4.52-2.64C462,22.12,461,22.12,459.5,20.43Z"/><path class="cls-71" d="M463,19.6V10.39c2.15-.81-2-2.9-.13-4A4.22,4.22,0,0,0,463,5.09V1.54A3.81,3.81,0,0,0,463.81,0H463c-1.06.73-2.35,1.4-3.11,1.86a1.25,1.25,0,0,0-.6,1.25V4.93a4.62,4.62,0,0,1-.11.63c-1.36,1.93-4.5.89-5.55,3,2.1,0,4.19,0,5.66,2.5v8.55a1.45,1.45,0,0,0,.2.84c.42,2.74,4.6.65,4.6,2.74-2.09,0-3.14,0-4.52,1.59a1.58,1.58,0,0,0-.28.9v9.39c0,.33,0,.66,0,1-1.44.72-2.49,1.76-3.53,1.76,1,1.05,2.09,2.09,3,2.26a1.09,1.09,0,0,1,.54,1V269.53l3.69-1.14V41.94a4.83,4.83,0,0,0-.3-1c-.68-1-3.82-1-2.77-3.11,0,0,1-1,1.59-.9.56-.33.93-.66,1.48-1V25.64a1.24,1.24,0,0,1,.32-.89,26,26,0,0,0,3.92-2.63,5.58,5.58,0,0,1-3.93-1.69A1,1,0,0,1,463,19.6Z"/><path class="cls-72" d="M521.78,5.17V2.74a3.64,3.64,0,0,1,.16-.63c.62-.8,3.17-.06,3-2.11h-51.7c-.78.93-3,.54-3.38,2.14a3.55,3.55,0,0,0-.17.64V19.93a4.13,4.13,0,0,0,3.84,2.19c0,2.09-3.14,1.05-3.71,3a3.83,3.83,0,0,0-.13.89V36.17a13.79,13.79,0,0,1-1,1c-1.42,1.71.67,2.75,1,4v1c0,87.15,0,252.35,0,252.35l52.08-.85V40.91a12.21,12.21,0,0,0-1.48-1c.24-1.06-.8-1.06-1.85-1.06,0-2.09,3.14-1.05,2.78-2.86a3.37,3.37,0,0,0,.55-1V25.82c-.19-1.61,1.9-1.61,2.94-2.65,0-1.05,0-2.09-2.34-2.52a3,3,0,0,1-.6-.83V11.31a2.92,2.92,0,0,0-.06-.72c-1.18-1-3.27-1-4.31-3.1a6.3,6.3,0,0,0,4.06-1.68A.77.77,0,0,0,521.78,5.17Z"/><path class="cls-9" d="M440.5,19.35V11c-2.53-.39-4.62-1.44-4.62-3.53,1-1,3.13-1,3.73-1.7a1.56,1.56,0,0,0,.89-1.6V2.68a2,2,0,0,1,.21-.81C441,.8,441.87.41,442.78,0H433c-1.37.93-3.61.5-4.49,2a1.22,1.22,0,0,0-.26.83V5.12a3.1,3.1,0,0,1-.69.82c-1.11.51-2.16.51-2.16,1.55,0,2.09,2.09,3.14,2.85,3.76v8.47c.06.17.1.35.16.53,1.17,1.87,3.26.83,4.31,1.87,0,2.09-2.09,2.09-3.88,2.48a2.91,2.91,0,0,0-.59.56v10a3.57,3.57,0,0,1-.19.61c-.57,1-2.66,2-4.75,2,1.05,2.09,4.18,1.05,4.64,2.93a2.72,2.72,0,0,1,.3.62v88l12.23,4.23V41.24c-1.49-2.39-3.58-1.35-4.62-3.44,2.09,0,2.09-1,4.25-1.47a2.17,2.17,0,0,0,.37-.6V25.24c.6-2.07,3.74-1,4.78-3.12-2.09,0-3.13-1-4.77-2.25C440.5,19.69,440.5,19.52,440.5,19.35Z"/><polygon class="cls-73" points="469.7 270.28 521.78 270.28 521.78 293.6 469.7 294.44 469.7 270.28"/><path class="cls-74" d="M442.18,195.32l17.12,22.89V62.51L450,40a2.45,2.45,0,0,0-.33-.58c.81-.55-2.33-1.6-1.18-2.9a2,2,0,0,0-.16-.57L444.1,25.58l-.34-.82c.48-.55,1.52-1.59,2.57-2.64-1.05,1.05-3.14,1.05-4,2.69a.71.71,0,0,0-.16.48V35.34a1.82,1.82,0,0,1-.12.79c.09,1.67-2,1.67-3.05,1.67,0,2.09,2.09,2.09,3.05,2.55a2.54,2.54,0,0,1,.12.9Z"/><g class="cls-14"><path class="cls-15" d="M475.9,3V4.19a1.83,1.83,0,0,1-.32,1.24,9.36,9.36,0,0,0-7.3,3.11c2.09,1,5.23,1,7.63,2.31,0,.48,0,1,0,1.46q0,3.27,0,6.93a3.82,3.82,0,0,0,.06.82c.65,1,2.74,1,3.79,3.11a4.11,4.11,0,0,0-3.74,2,2.68,2.68,0,0,0-.1.88c0,2.92,0,6,0,9.16a2.89,2.89,0,0,1-.5,1.93,1.52,1.52,0,0,0-.22,2,3.44,3.44,0,0,1,.73,2c.16,86.57.47,252.71.47,252.71H477s-.31-166.15-.47-252.71a5,5,0,0,0-.32-2,2.61,2.61,0,0,1,.08-2,5.53,5.53,0,0,0,.23-1.92c0-3.19,0-6.24,0-9.16a2.42,2.42,0,0,1,.11-.88c0-2,4.21.11,3.17-3-1-1-2.09-2.09-3.22-2.07a3.17,3.17,0,0,1-.07-.81c0-2.44,0-4.76,0-6.94,0-.49,0-1,0-1.46-1.92-1.26-5.06-1.26-7.15-2.3a9.11,9.11,0,0,1,6.85-3.11,2,2,0,0,0,.29-1.24V2.5a1,1,0,0,1-.56-.13Z"/><path class="cls-15" d="M483.77,25.41c0,.29,0,.59,0,.88v9.15c-.85,2.36-4,1.32-5,3.41,2.09-1.05,4.18-1.05,5.59-3.41V26.29c0-.29,0-.59,0-.88A4.34,4.34,0,0,1,486,23.68C485,24,483.87,24.25,483.77,25.41Z"/><path class="cls-15" d="M483.76,41.3V294.2h.56V41.3c0-.33-.19-.66-.95-1a6.4,6.4,0,0,0-4.64-1.46c1,0,3.14,1,4,1.46S483.76,41,483.76,41.3Z"/><path class="cls-15" d="M484.45,20.3a2,2,0,0,1-.13-.82V10.4c-.45-.24-.75-.47-1.2-.7-.21-1.16-1.25-1.16-2.3-1.16,0-2.09,3.14-1,3.14-2.83a2.21,2.21,0,0,0,.36-.62V2.14c.27-.2.46-.4.76-.6.81-.27,2.37-.33,2.88-1.54h-.73c-.38.5-2.34-.33-2.74,1.54a9.37,9.37,0,0,0-.73.6V5.09a2.08,2.08,0,0,1-.38.62c-.47,1.78-2.56.74-3.6,1.78-1,2.09,3.13,0,2.74,2.21.45.23.77.46,1.24.7v9.08a2,2,0,0,0,.13.82c.07,1.82,2.16.78,3.2,1.82.32.63.16,1-.22,1.21a4.9,4.9,0,0,1,1.27-.16C488.14,21.08,485,22.12,484.45,20.3Z"/><rect class="cls-15" x="470.14" y="62.13" width="51.65" height="0.76"/><path class="cls-15" d="M495.68,25.37V35.56l-.11.1a4.49,4.49,0,0,1,.67-.1V25.37c.26-2.2,2.35-1.16,3.4-2.2A4.47,4.47,0,0,0,495.68,25.37Z"/><path class="cls-15" d="M495.68,41.5V293.76h.56V41.5a.73.73,0,0,0-.48-.87A1.71,1.71,0,0,1,495.68,41.5Z"/><path class="cls-15" d="M496.33,20.2a2.61,2.61,0,0,1-.09-.83V10.86a.9.9,0,0,1-.56.09v8.42a2.16,2.16,0,0,0,.11.83c.71.88,2.8,1.92,3.85,3C500.68,21.08,496.5,22.12,496.33,20.2Z"/><path class="cls-15" d="M492.32,8.54A3.89,3.89,0,0,1,493.69,7a3.36,3.36,0,0,0-2.42,1.55,4.66,4.66,0,0,1,3.15,1.14C493.92,8.84,493.4,8,492.32,8.54Z"/><path class="cls-15" d="M496.24,5.36V2.88a4.72,4.72,0,0,1,0-.65c.23-2.06,2.32-1,3.37-2.06A1.15,1.15,0,0,0,499.7,0h-1c-.45.94-3.2.55-3,2.23,0,.22,0,.43,0,.65V5.36a1.66,1.66,0,0,1-.2.64A2.4,2.4,0,0,0,496.24,5.36Z"/><path class="cls-15" d="M503.59,25a2,2,0,0,0-.14.89V36c-.71.33-1.17.65-1.85,1-.92-.17-2,.87-2,.87,0,.49.67.75,1.42,1.09-.32-.36-.17-.9,1.1-2,.68-.32,1.14-.64,1.84-1V25.84a2.12,2.12,0,0,1,.13-.89,6.13,6.13,0,0,1,1.76-1.33C504.92,23.86,503.71,24,503.59,25Z"/><path class="cls-15" d="M503.07,40.87a4.62,4.62,0,0,1,.38,1V293.76H504V41.88a4.16,4.16,0,0,0-.38-1c.09-.84-.78-1.15-1.55-1.44A2.1,2.1,0,0,1,503.07,40.87Z"/><path class="cls-15" d="M504,19.83c0-.27,0-.55,0-.82V10.6c-2.27-2.06-3.32-3.11-.13-4.78a1.14,1.14,0,0,0,.13-.64V2.75a3.39,3.39,0,0,1,0-.64,1.32,1.32,0,0,1,.34-1.1,1.46,1.46,0,0,0-.93,1.1V5.18a1,1,0,0,1-.19.64,3.93,3.93,0,0,1-2.58,1.67c0,2.09,2.09,2.09,2.77,3.11V19c0,.27,0,.55,0,.82.36,2.29,2.45,1.25,3.49,2.29.32.64.15,1-.23,1.2a5.48,5.48,0,0,1,1.28-.15C508,21.08,504.86,22.12,504,19.83Z"/><rect class="cls-15" x="469.7" y="208.96" width="52.08" height="0.76"/><rect class="cls-15" x="469.7" y="221.64" width="52.08" height="0.76"/><rect class="cls-15" x="495.96" y="93.62" width="25.82" height="0.76"/><rect class="cls-15" x="495.96" y="248.51" width="25.82" height="0.76"/></g><g class="cls-75"><polygon class="cls-76" points="442.35 231.46 442.01 232.07 459.13 249.2 459.46 248.59 442.35 231.46"/><path class="cls-76" d="M447.18,25.16V35.62a3.84,3.84,0,0,1-.66,1c-3.33,2.23-.19,3.27.4,4.09a6.71,6.71,0,0,1,.26,1V255.38h.55V40.71c-1.4-.82-1.4-2.91-.5-4.09a3,3,0,0,0,.5-2V25.16a6.55,6.55,0,0,1,1-.9c.72-.05,1.77-.05,1.77-2.14a23.29,23.29,0,0,1-2.36,2.14A10.72,10.72,0,0,0,447.18,25.16Z"/><path class="cls-76" d="M447.73,5.11v-3A4.51,4.51,0,0,1,451.55.17c-2.09,0-3.13,0-4.34,1.92a4.22,4.22,0,0,0,0,.62v2.4c-.85,2.38-4,1.34-4,3.43s3.14,0,3.77,2a3.83,3.83,0,0,1,.22.73v8.65a3.57,3.57,0,0,0,.68.85c.56,1.36,1.6,1.36,2.65,1.36-1.05,0-2.09,0-2.11-1.36a3.77,3.77,0,0,1-.67-.85V11.26a3.76,3.76,0,0,0-.2-.73c-.16-2-5.38-.95-3.29-3C445.28,7.49,446.33,6.45,447.73,5.11Z"/><path class="cls-76" d="M457,20.17a4.74,4.74,0,0,1-.05-.84V11.52c0-.25,0-.49,0-.73-1.1-2-2.93-2.23-4.82-2.25,1.32,1.56,3.7.32,4.27,2.25v8.54a4,4,0,0,0,.06.84c.3,1.85,3.12,1,4.31,2.69a1.37,1.37,0,0,0,.19-.74C459.92,21.08,457.83,22.12,457,20.17Z"/><path class="cls-76" d="M451.55,38.85c1.05,1,3.14,1,4.52,1.86a1.27,1.27,0,0,1,.33,1V266.4H457V41.73c0-.69-.63-1.37-2.48-2s-2.75-1.34-1.44-2c.76-.38,1.68-.76,2.48-1.14C453.87,37.17,450.72,36.35,451.55,38.85Z"/><path class="cls-76" d="M456.4,25.41V35.7a1.19,1.19,0,0,1-.6.7,5.71,5.71,0,0,0,1.16-.7V25.41c.66-1.71,2.63-1.51,3.53-2.24C458.71,23.19,457.71,23.35,456.4,25.41Z"/><path class="cls-76" d="M457,5.36c0-.21,0-.42,0-.63V2.37a1,1,0,0,1,.15-.62c-.25-1.19,1.48-.89,2.34-1.57-1.1,0-2.71.2-3,1.57a1.88,1.88,0,0,0-.07.62v3A4.69,4.69,0,0,1,454.17,7,3.9,3.9,0,0,0,457,5.36Z"/><polygon class="cls-76" points="442.32 164.11 442.04 164.77 459.15 178.54 459.44 177.89 442.32 164.11"/><polygon class="cls-76" points="447.5 97.56 447.4 98.31 459.25 101.23 459.35 100.48 447.5 97.56"/></g><polygon class="cls-9" points="476.44 288.54 476.15 152.03 484.04 152.32 484.04 67.61 495.96 67.61 495.96 198.6 503.73 198.6 503.73 259.41 521.78 259.17 521.78 288.54 476.44 288.54"/><path class="cls-9" d="M521.78,19.27V10.85c-1.24-1.27-2.28-2.31-4.37-2.31,0-2.09,3.13-1,4-2.74a1.74,1.74,0,0,0,.37-.47V2.91c1.16-1,2.39-1.83,2.34-2.91H507.06c-.46.93-3.23.49-3.16,1.92a2.19,2.19,0,0,0-.17.49V5.6c-.13.16-.21.32-.34.48-1.66.37-1.66,1.41-2.71,2.46,1.05,0,2.09,2.09,2.85,1.55a3.7,3.7,0,0,1,.2.52V20a2.8,2.8,0,0,0,.38.59c1.8-.6,1.8,2.54,3.89,1.49-1.05,2.09-4.18,1.05-4.25,3.29,0,.2,0,.4,0,.61v9.45a9.5,9.5,0,0,0-1.24.87c-.76.42-1.81.42-1.81,1.46,0,2.09,2.09,3.14,3.05,3.81v52.9h18V40.31a6.76,6.76,0,0,1-2.18-.88c-2.19-1.63-1.15-1.63.49-2.61a10.06,10.06,0,0,1,1.69-.87V25.3c.85-1.09.85-2.13,2.94-2.13a11.71,11.71,0,0,1-2.31-2.72A4.69,4.69,0,0,1,521.78,19.27Z"/><rect class="cls-16" x="473.62" y="210.07" width="35.86" height="2.19"/><rect class="cls-5" x="493.23" y="210.07" width="16.26" height="2.19"/><rect class="cls-17" x="504.94" y="210.07" width="4.55" height="2.19"/><rect class="cls-16" x="478.88" y="249.18" width="35.86" height="3.41"/><rect class="cls-5" x="498.49" y="249.18" width="16.26" height="3.41"/><rect class="cls-17" x="510.2" y="249.18" width="4.55" height="3.41"/><rect class="cls-16" x="478.88" y="64.31" width="35.86" height="3.41"/><rect class="cls-5" x="498.49" y="64.31" width="16.26" height="3.41"/><rect class="cls-16" x="484.04" y="167.52" width="11.69" height="4.52"/><rect class="cls-5" x="490.43" y="167.52" width="5.3" height="4.52"/><path class="cls-16" d="M514.74,39.84c-4.65,0-8.83,0-13,0,1,0,1,1,2,1.12v3.34H515.4V41a2.86,2.86,0,0,0-.41-.84A3,3,0,0,0,514.74,39.84Z"/><path class="cls-5" d="M514.74,39.84c-2.56,0-3.61,0-5.7,0,0,0,1,1,1.06,1.12v3.34h5.3V41a2.86,2.86,0,0,0-.41-.84A3,3,0,0,0,514.74,39.84Z"/><rect class="cls-16" x="477.11" y="271.51" width="11.69" height="4.51"/><rect class="cls-5" x="483.5" y="271.51" width="5.3" height="4.51"/><polygon class="cls-16" points="440.5 110.15 428.27 107.59 428.27 111 440.5 113.56 440.5 110.15"/><polygon class="cls-16" points="433.78 72.29 428.27 71.65 428.27 75.06 433.78 75.7 433.78 72.29"/><path class="cls-17" d="M443.35,23.54c-2.25-.37-4.34-.37-5.36.68a3.62,3.62,0,0,0-1,.75v.34l3.53.41v-.34c-.43-1.17.61-1.17,1.95-1.5C442.94,23.67,443.35,23.54,443.35,23.54Z"/><rect class="cls-17" x="510.2" y="64.31" width="4.55" height="3.41"/><rect class="cls-16" x="515.67" y="210.07" width="2.16" height="2.19"/><rect class="cls-16" x="476.72" y="238.08" width="3.84" height="3.89"/><rect class="cls-16" x="482.96" y="115.62" width="2.16" height="2.19"/><rect class="cls-16" x="476.72" y="115.62" width="2.16" height="2.19"/><polygon class="cls-16" points="443.74 165.69 443.74 168.55 455.06 179.19 455.06 174.8 443.74 165.69"/><polygon class="cls-5" points="443.74 168.55 443.74 165.69 447.45 168.69 447.45 172.05 443.74 168.55"/><polygon class="cls-16" points="459.23 252.78 447.45 240.69 447.45 238.08 459.3 248.9 459.23 252.78"/><polygon class="cls-5" points="456.68 250.16 456.68 246.5 459.3 248.9 459.23 252.78 456.68 250.16"/><path class="cls-77" d="M60.35,20.08a2.19,2.19,0,0,1,0-.51V11a1.59,1.59,0,0,0-.18-.89c-.55-.52-1.6-.52-1.6-1.56s0-2.09,1.61-2.61a1.34,1.34,0,0,0,.17-.78V2.93a1.87,1.87,0,0,1,.11-.78C61.44.54,63,.94,64.14,0H25.85c-.79.94-3,.58-3.6,2.41V5.57a2.71,2.71,0,0,1-.09.68c-1.25,1.24-1.25,2.29,0,3.62.05.25.08.51.11.77v9.29c-.3,2.19,2.84,1.15,2.84,3.24,0,1-1.05,1-2.58,1.51a4.7,4.7,0,0,0-.26.49V35.42a1.13,1.13,0,0,1-.51,1.07c-4,1.31-.83,3.4.5,4.41,0,.37,0,.74,0,1.12V189.31s14.8-27.74,38.06-47.4V40.48a3.17,3.17,0,0,1-1.12-.61c-1.7,0,.39-1-.61-2.42.17-.13.33-.26,1.73-.4V25.37c1.36-2.2,5.54-1.16,4.5-3.25C63.76,21.08,61.67,21.08,60.35,20.08Z"/><path class="cls-78" d="M22.25,189.31l12.86-.11S79,176.13,84.25,141.68l-23.94.23S31.39,165.25,22.25,189.31Z"/><path class="cls-79" d="M84.85,20.72a2,2,0,0,0-.6-.51V11.12a3,3,0,0,0-.79-.9c.16-1.68-3-.64-3-2.73a6.19,6.19,0,0,1,3.76-2.26V3.72a1.89,1.89,0,0,1,.54-1.59C86.21,1.48,87.69.74,89.18,0H63.48c-.77.94-2.86.54-2.87,2.15a3.22,3.22,0,0,0-.3.78V5.15a1.34,1.34,0,0,1-.17.78c-1.61.52-1.61,1.56-1.61,2.61s1,1,1.6,1.56a1.59,1.59,0,0,1,.18.89v9.09c.16.17.28.34.47.52.89,1.52,3,.48,4,2.57-2.09,0-3.14,1-4.22,1.65a2.2,2.2,0,0,0-.28.55v9.15a2.51,2.51,0,0,1-1.23,2.39c-1.15.8-1.5,1.61-.38,2.42a3.15,3.15,0,0,1,1.61,2.45V141.91l23.94-.23V41.26a2.62,2.62,0,0,0-.43-.61c-1.24-.76-4.38-.76-4.38-2.85,1-1,3.14,0,4.57-2a3.75,3.75,0,0,0,.24-.6V25.49a1.63,1.63,0,0,0,.35-.55C85.71,24.21,88.85,22.12,84.85,20.72Z"/><g class="cls-14"><rect class="cls-15" x="25.84" y="181.45" width="27.41" height="0.28"/></g><g class="cls-14"><rect class="cls-15" x="29.95" y="174.63" width="33.41" height="0.28"/></g><g class="cls-14"><rect class="cls-15" x="35.11" y="167.73" width="35.73" height="0.28"/></g><g class="cls-14"><rect class="cls-15" x="40.6" y="161.07" width="35.88" height="0.28"/></g><g class="cls-14"><rect class="cls-15" x="47.03" y="153.51" width="33.56" height="0.28"/></g><g class="cls-14"><rect class="cls-15" x="55.09" y="146.3" width="28.16" height="0.28"/></g><g class="cls-14"><rect class="cls-15" x="23.64" y="185.84" width="20.31" height="0.28"/></g><g class="cls-14"><path class="cls-15" d="M25.6,25.05c0,.17,0,.33,0,.5,0,3,0,6.07-.05,9.31a1.34,1.34,0,0,1-.46,1.08h.22a1.34,1.34,0,0,0,.44-1.08c0-3.24,0-6.36.05-9.32l0-.5a1.34,1.34,0,0,1,.45-.86A1.44,1.44,0,0,0,25.6,25.05Z"/><path class="cls-15" d="M25.48,41.5c-.3,56.18-.75,142-.75,142h.2s.46-85.82.76-142c0-.38-.13-.75-1-1.13-.24-.07-.49-.12-.75-.18l.51.18C25.34,40.74,25.45,41.12,25.48,41.5Z"/><path class="cls-15" d="M19.86,37.8c1.82-.91,2.85-1.81,4.59-1.88C22.77,35.94,21.73,36.87,19.86,37.8Z"/><path class="cls-15" d="M23.94,40.19a12.89,12.89,0,0,1-4.08-2.39C20.76,39.59,22.42,39.85,23.94,40.19Z"/><path class="cls-15" d="M25.89,20.22a2.93,2.93,0,0,1-.08-.93c0-3.08,0-5.94,0-8.55A3.58,3.58,0,0,0,25,10a3.88,3.88,0,0,0-.6-.16,3.52,3.52,0,0,1,.39.16,3.64,3.64,0,0,1,.85.78c0,2.62,0,5.48,0,8.56a3.23,3.23,0,0,0,.09.92c.44,1.9,1.48,1.91,3.55,1.91C28.53,21.41,26.07,21.67,25.89,20.22Z"/><path class="cls-15" d="M25.62,5.56a2.8,2.8,0,0,0,.26-.67c0-.67,0-1.31,0-1.92,0-.22,0-.44,0-.65a1.72,1.72,0,0,1,.38-1,1.63,1.63,0,0,0-.59,1V3c0,.61,0,1.25,0,1.91a2.92,2.92,0,0,1-.27.68c-.1.6-.57.81-1.15.91C24.86,6.48,25.39,6.39,25.62,5.56Z"/></g><g class="cls-14"><path class="cls-15" d="M33.79,5.24c0-.23,0-.46,0-.69,0-.68,0-1.33,0-1.95a2.52,2.52,0,0,1,.09-.67c.59-.71,2.68-.71,3.73-1.76,0-.06,0-.11.07-.17H37c-1.1.93-2.61.5-3.26,1.93a1.9,1.9,0,0,0-.09.67c0,.62,0,1.27,0,1.95v.69a3,3,0,0,1-1,1.14A1.22,1.22,0,0,0,33.79,5.24Z"/><path class="cls-15" d="M33.26,41.12v.58c-.47,52.7-1.17,129.87-1.17,129.87h.21S33,94.4,33.46,41.7v-.58c-.74-.86-2-1.13-3-1.93A4.41,4.41,0,0,0,33.26,41.12Z"/><path class="cls-15" d="M33.4,25.24v.51c0,2.9-.06,5.95-.08,9.1,0,.19,0,.38,0,.56a4.49,4.49,0,0,1-4,2.39c2.09,0,3.13-1,4.25-2.39v-.55q0-4.74.08-9.11c0-.17,0-.34,0-.51a2.18,2.18,0,0,1,.74-1A2.4,2.4,0,0,0,33.4,25.24Z"/><path class="cls-15" d="M29.27,8.54a3.4,3.4,0,0,1,3.08,1.2,12.26,12.26,0,0,1,1.19.81c0,2.67,0,5.61-.08,8.77a3.48,3.48,0,0,0,.07,1,2.26,2.26,0,0,0,1.85,1.2,2.22,2.22,0,0,1-1.64-1.2,3.89,3.89,0,0,1-.08-1c0-3.16.06-6.09.08-8.77a11,11,0,0,0-1.18-.81c-.16-2.25-2.25-.16-2.25-2.25,0,0,0-.06,0-.09A2.5,2.5,0,0,0,29.27,8.54Z"/></g><g class="cls-14"><path class="cls-15" d="M38.67,37.8c-1,2.09,2.1,2.09,3.12,3.58,0,.21,0,.41,0,.62-.61,43.27-1.41,99.68-1.41,99.68h.21S41.37,85.28,42,42c0-.2,0-.41,0-.61-.18-2.54-2.27-2.54-3.32-2.54,1.44,0,.91-1.48,1.23-2.14C39.18,36.86,38.67,37.08,38.67,37.8Z"/><path class="cls-15" d="M41.85,5.83a2.75,2.75,0,0,0,.65-.76c0-.74,0-1.46,0-2.15a3.81,3.81,0,0,1,.07-.75C43.66.54,45.94.94,46.75,0h-.47c-1.35.94-3.51.54-3.88,2.17a2.62,2.62,0,0,0-.07.74q0,1,0,2.16a3.1,3.1,0,0,1-.65.76c-.79.55-3.35-.21-3.17,1.82C38.63,6.43,41,6.34,41.85,5.83Z"/><path class="cls-15" d="M38.67,8.54a6.39,6.39,0,0,0,3.51,2.2C40.77,9.56,40.74,8.54,38.67,8.54Z"/><path class="cls-15" d="M42.43,24.54a2.83,2.83,0,0,0-.42.54c0,3.45-.1,7.09-.15,10.86a4.74,4.74,0,0,0-.86.56l.17,0a5.39,5.39,0,0,1,.9-.6c0-3.77.1-7.4.15-10.86a2.26,2.26,0,0,1,.43-.54c1-.26,2.54-.33,3.11-1.43C44.86,23.36,42.73,22.85,42.43,24.54Z"/><path class="cls-15" d="M42.2,11.67c0,2.52-.07,5.24-.11,8.14a3.14,3.14,0,0,0,.12.51,1.53,1.53,0,0,0,.3.25,1.09,1.09,0,0,1-.1-.25,3.14,3.14,0,0,1-.12-.51c0-2.89.08-5.62.12-8.14,0-.3,0-.59,0-.89l-.24,0,0,0C42.21,11.07,42.21,11.37,42.2,11.67Z"/><path class="cls-15" d="M46,22.12c-.92-.91-2.64-1-3.48-1.55C43.08,22.1,45,22.12,46,22.12Z"/></g><g class="cls-14"><polygon class="cls-15" points="60.15 62.59 22.18 64.9 22.19 65.18 60.16 62.87 60.15 62.59"/></g><g class="cls-14"><path class="cls-15" d="M58.33,37.25C45,39.89,32.4,35.71,18.81,38.85c12.55-2.09,26.14,0,39.07-1.32Z"/></g><path class="cls-25" d="M24.83,183.5s.55-93.42.84-141.8v-.5C24,39.89,22,39.89,19.86,37.8a10.18,10.18,0,0,0,5.85-2.3v-.91c0-3.28,0-6.26.06-8.88a3,3,0,0,1,.07-.79c.29-1.75,2.38-.71,3.43-1.75,1-2.09-3.14-1.05-3.45-3.11,0-.2,0-.4,0-.59,0-3.9,0-6.09,0-6.09h7.77s0,2.17,0,5.8c0,.26,0,.53,0,.8a5,5,0,0,0,4.08,2.14c0,2.09-4.18,1.05-4.08,3a2.24,2.24,0,0,0,0,.52c0,2.93,0,6.26-.09,9.83a1.91,1.91,0,0,1-.34.57c-.67.72-2.76.72-3.8,2.81a4.62,4.62,0,0,1,3.81,1.84,2.31,2.31,0,0,1,.28.6c-.21,23.73-.49,54-.49,54l4.71-.15V70h5v31.19h4.09L47,153.65S32.15,170.11,24.83,183.5Z"/><rect class="cls-16" x="25.45" y="143.01" width="24.61" height="2.55"/><rect class="cls-16" x="41.55" y="84.39" width="11.01" height="2.55"/><path class="cls-16" d="M34.7,40c-4.39-.14-7.52-.14-11.7-.14,0,0,1,1,1.44,1.41v1.28h11V41.3a1.17,1.17,0,0,0-.27-.87A2.8,2.8,0,0,0,34.7,40Z"/><path class="cls-5" d="M38.9,145.56h0Z"/><rect class="cls-17" x="46.94" y="143.01" width="3.12" height="2.55"/><path class="cls-17" d="M35.54,40a23.57,23.57,0,0,0-3.14-.14s1.05,1,.72,1.41v1.28h3.12V41.3a1.42,1.42,0,0,0-.25-.87A1.76,1.76,0,0,0,35.54,40Z"/><path class="cls-80" d="M364.86,40.81a21.11,21.11,0,0,1-4.21,0l-.83,0c-32.3,2-58.68,38.35-60,84.34-1.34,48.36,25.58,89,60.14,90.78s63.66-36,65-84.35c1.32-47.58-24.72-87.7-58.47-90.67l-.84-.07Z"/></g></g></g></g></svg>