<svg xmlns="http://www.w3.org/2000/svg" width="330.73" height="451.77" viewBox="0 0 330.73 451.77"><defs><style>.cls-1,.cls-10,.cls-11,.cls-12,.cls-13,.cls-14,.cls-15,.cls-16,.cls-17,.cls-18,.cls-19,.cls-2,.cls-20,.cls-21,.cls-22,.cls-23,.cls-24,.cls-3,.cls-4,.cls-5,.cls-6,.cls-7,.cls-8,.cls-9{fill-rule:evenodd;}.cls-2,.cls-25{fill:#fff;}.cls-3{fill:#6f7071;}.cls-4{fill:#0089cb;}.cls-5{fill:#4b66a6;}.cls-6{fill:#ae5190;}.cls-7{fill:#f5d500;}.cls-8{fill:#1c3360;}.cls-9{fill:#f7e6c7;}.cls-10{fill:#f1d4a4;}.cls-11{fill:#e2ab71;}.cls-12{fill:#cbb16d;}.cls-13{fill:#006ba1;}.cls-14{fill:#57536b;}.cls-15{fill:#a97a2d;}.cls-16{fill:#7b541c;}.cls-17{fill:#cd9ec0;}.cls-18{fill:#900079;}.cls-19{fill:#e3ce8b;}.cls-20{fill:#969798;}.cls-21{fill:#ebecec;}.cls-22{fill:#80afdb;}.cls-23{fill:#867d73;}.cls-24{fill:#c9c1b4;}.cls-26{fill:none;}.cls-27{fill:#ffa409;}.cls-28{fill:#ff9300;}.cls-29{fill:#ff8300;}</style></defs><g id="Layer_2" data-name="Layer 2"><g id="Layer_1-2" data-name="Layer 1"><path class="cls-1" d="M167.73,416.45c-2.26,2.12-9.58,7.44-13.32,11.84-7.28,8.56-14.64,21.59-13.48,23.07,1.41,1.8,17.72-2.55,28.24-8.47,12.56-7.07,21.54-15.55,25.9-21.74,5.15-7.3,5.27-11,5.27-11a102.62,102.62,0,0,1-14.75,3.69c-6.34.89-15.89,1.19-15.89,1.19A9.56,9.56,0,0,0,167.73,416.45Z"/><path class="cls-1" d="M200,409.23s6.84,11.41,16.4,19.85c10.6,9.34,30.82,20.94,39.37,19,2.29-.52,5.71-11.82,3.5-18.42-3.41-10.13-14.59-19.94-14.59-19.94a66.16,66.16,0,0,1-25.5,3A125.92,125.92,0,0,1,200,409.23Z"/><path class="cls-1" d="M239.19,112.32c4.43,1.34,12.61,2.86,10.26,8.9a304.35,304.35,0,0,1,37.29,16.49c8.76,4.49,27.61,13.87,36.55,26.24,6,8.33,8.49,16.46,7,29.53s-9,34.35-24.07,46.44c2.43,22.89-.36,55.08-3.31,60.56s-21.65,14.11-21.65,14.11c-7.13,30.3-16.24,71.77-19.38,89.74-15.49,12.44-44.2,14.94-61.52,6.18-17.41,11.14-38.93,5.74-38.93,5.74s-36.07-52.89-44.92-87.82c-8.32-2.24-17.8-4.94-25.49-9.89,0,0-1-37.26,3.17-57.58-1.52-.72-5-2.79-6.5-3.76a72.55,72.55,0,0,1-3.42,15.28c0,8.93-4.23,11.63-4.23,11.63a8.68,8.68,0,0,1,2.72,2c-.09.62-3,2.27-4.88,2.62a16.31,16.31,0,0,0-3.57-3.43,37.13,37.13,0,0,0,2.15,3.61,8.77,8.77,0,0,1-1.94,1.14,27.72,27.72,0,0,1-2.73-4.29s.16,3.46.3,4.22c-1.09-.08-2-.16-2.36-.21a13.7,13.7,0,0,1-.15-4.65c-1.14.45-1.62,1.81-1.77,4.17-1.13.32-6.21-1.35-6.4-1.7a6.65,6.65,0,0,1,3.78-5c-1-1.81-.85-6.54,2.27-9.61a3.65,3.65,0,0,1-1.29-2.48c-.1-.78,1.18-6.32,3.38-10.59a80.83,80.83,0,0,1,3.83-14.36c-3.63-2.55-8.59-8.39-7.42-15.33-6.08-1-16.09-4-16.07-10.29,0-7.16,5.61-11.71,5.61-11.71h0c-1.33-2.72-.65-5.79,2.32-8.53a41.76,41.76,0,0,1,15.21-8.28C71.12,181,70,173.24,78.17,165.61S111.72,142.9,129,136.18c-1.46-2.67,9.43-12.71,17.5-18.41"/><path class="cls-2" d="M147.67,119.66c7.4,13.19,18.53,18,30.35,18.65a87.74,87.74,0,0,0-7.15,8.39,83.52,83.52,0,0,1-27.1-23.76A16.53,16.53,0,0,1,147.67,119.66Z"/><path class="cls-3" d="M155.31,228.82c-8.84-11.26-26.74-33.83-33.72-51a145,145,0,0,1,14.72-11.25c0-.56-.64-1.15-1.15-1.42h0l-3.64,2.39A120,120,0,0,0,133,146.13a82.82,82.82,0,0,0-1.24-11.08c-.55-2.3,9.61-10.47,10.62-10.69-.25,12.34,3,27.94,3.69,38.11s-.46,21,1.7,34.69A180.66,180.66,0,0,0,155.31,228.82Z"/><path class="cls-2" d="M177.67,143.37s6.91,9.2,12.7,13.28c-4.65,5.85-10.6,17.39-10.6,17.39s-2.57,1.23-5,2.17c.08.35.16,1.45,1,1.67h0l3.33-1.35s-13.95,31.94-20.46,52.81c-4.67-10.6-7.23-23.45-8.65-33.43s-.39-27-2.14-38.64-3.2-19.88-2.89-28.34c6.59,7.77,21.17,18.64,26.57,21.65A59.21,59.21,0,0,1,177.67,143.37Z"/><path class="cls-3" d="M241,155.13a54.64,54.64,0,0,0-8,.55,4.5,4.5,0,0,0,.06,2.62c7.59-.61,14.77-.72,21.28,2.24-9.09,17.89-31.6,48.41-40.5,59.81a191.82,191.82,0,0,1-20,21.39c7.86-17,18.59-43.34,25.93-63s10.69-34.69,13.7-51a57,57,0,0,0,4.16-12.52c3.44.57,8.93,2.07,9.62,3.76S243.48,144,241,155.13Z"/><path class="cls-2" d="M234.43,117.36c-2.47,6.77-7.65,15.12-12.1,21.63a73.67,73.67,0,0,1-14.2-6.29c2.4-1.59,4.51-3.4,5.25-5.6C224.88,126.67,234.43,117.36,234.43,117.36Z"/><path class="cls-4" d="M111.37,267.17c0,.7.26,1.69,2.74,1.63-.47,1.05,1.07,1.69,3,1.53-.18,1,.59,1.81,2.84,1.77.11,1,1.54,2.12,3.84,1.6,0,1.76,3.52,2,6.59,1.12.18,2.16,2.82,2.18,4.71,1.24-.95.88-.18,1.26,0,1.48-.75.49-1.09,1.08-.88,1.72-.37.22-1.49,1-1.11,1.69"/><path class="cls-5" d="M114.12,263.09c6.52-.1,15.8-2.27,16.57-8.59-5.56-20.42-9.12-55.24-15.33-62S90,176.77,75.19,190c-1.15-4.45-2.69-13.63,2-20.48,3-4.4,29.53-22.36,52.58-30.82,2.47,10.15-.77,29.72-.77,29.72s-7.51,4.55-10.92,8.7c8.16,19.19,24.67,40.79,33.38,51.61s22.53,31.57,22.94,35.1-4.54,49.83-7.16,69.3c-22.86,1.16-57.61-10.34-72.69-16.25-2.32-15.47,1.27-45.36,1.74-55.2h0a55.47,55.47,0,0,0,10.3,2.06Z"/><path class="cls-5" d="M327.12,188c-2.13,30.7-21.37,47.61-21.37,47.61-1.53-18.47-13.32-53.75-23.5-70.87a6.42,6.42,0,0,0-4.14,4.12c8.74,10.12,21,43.67,23.43,67.27s-.1,57.57-3.66,63.26-47.58,26.8-79,31.59c-27.11,4.14-45.73,2.67-45.73,2.67s3.07-66.76,5.66-71.75C191.28,247.81,208.64,231.83,220,218s16.52-23,22-31.14,12.11-18.45,15.92-26.63c-3.72-4.54-14.4-5-14.4-5,3.86-13.76,5.65-31.57,5.65-31.57h0a368.59,368.59,0,0,1,47.39,22.75C308.64,153.41,328.71,165.14,327.12,188Z"/><path class="cls-6" d="M192.48,154c-5.6-3.63-9.71-9.42-12.68-14.2,16.28-.39,25.17-5.07,25.17-5.07A156,156,0,0,1,192.48,154Z"/><path class="cls-2" d="M193,235.83c-4.53-11.37-.44-25,.85-36.24s2-22.38,1.08-30.73a53.83,53.83,0,0,1,8.51-3.35,6,6,0,0,0,4.3,2.55,6.86,6.86,0,0,0,6.85-2.83,5.77,5.77,0,0,0-1.19-7.6c-2.47-2-6.15-1.46-8.35,0a6.12,6.12,0,0,0-2.29,6.18,53.35,53.35,0,0,0-7.91,2.95s-.44-7-1.13-10.49c1.74-1.86,13.67-21,13.67-21A96.69,96.69,0,0,0,223.57,142a80.6,80.6,0,0,0,7.2-12.71c-5.94,34.58-21.13,64.87-25.63,76.55S193,235.83,193,235.83Z"/><path class="cls-6" d="M187.38,170.4a1.83,1.83,0,0,0,.3,2h0l5.26-2.36c2.53,23.44-8.86,58.45-1.57,69.39-3.61,9-14.7,19.61-14.7,19.61-3.69-9.54-12-16.32-15.67-25.74,3-12.93,8.58-25.77,13.72-39.9s11.4-26.64,17-35.09a31.7,31.7,0,0,1,1,9.42C192,168.15,187.38,170.4,187.38,170.4Z"/><path class="cls-7" d="M209.93,165.6c-2.3.55-4.46-.34-5.15-1.91a3.88,3.88,0,0,1,1.76-5.05c2.25-1,4.94-.38,5.86,1.84A3.67,3.67,0,0,1,209.93,165.6Z"/><path class="cls-8" d="M117.26,213.7c-2.48-5.19-6.5-7.86-8.83-13.52a18.24,18.24,0,0,0-14.32-10.76,41.64,41.64,0,0,0-17.38,1.31c8-6.54,22.6-6.25,32.09-.74C117.61,195.1,117.31,205.42,117.26,213.7Z"/><path class="cls-9" d="M73.45,230c0,2.83.87,6.61,2,8.24a25.25,25.25,0,0,0,7.23-3.37C81.41,230.78,78.16,225.9,73.45,230Z"/><path class="cls-10" d="M105.78,201c-3.15-7-7.37-10.18-19.51-9.76a46.91,46.91,0,0,0-24.37,7.5c-4.85,3-5.33,7.29-3.64,9.56-2.85,2.89-7.85,7.66-5.44,13.42,1.19,2.86,6.69,5.16,11.54,6.12a24.19,24.19,0,0,0,7.25.63c-1.78-4.62-7.16-10-8.9-14.25s.36-8.86,5.56-11.83,9.77-4.71,11.35-2.81c-6.45,1.88-14.27,7-15.09,11.24s7.51,13,8.54,16.06a12.38,12.38,0,0,1,.37,1.51c1.82-1.35,4.06-2.08,6.17-.68,2.42,1.6,3.74,4.37,4.55,7a.39.39,0,0,1,0,.28.44.44,0,0,1-.17.6,49.4,49.4,0,0,1-7.41,3.81c2.28,1.07,8,.73,10.06-1.58,2.22-2.48,3.12-7.25,1.53-11.83-2.23-6.41-8.07-9.46-7-14.21.66-3,3.42-4.46,5.5-3.06,4.19,2.83,18.88,4.2,19.17,5.75s-9,12.22-13.93,15.26a14.38,14.38,0,0,1-2.32,8.53c.43,3.26,8.08,6,12.81,1.91,4-3.42,7.38-10,12.58-16.9S108.93,208,105.78,201Z"/><path class="cls-11" d="M103.48,215.47c.11,1.29-8.18,9.4-12.17,11.89-.72-3.09-2.35-5.33-4.75-8.43s-4.74-6.18-2.89-8.07,3.81.67,6.26,1.26C94.17,213.14,103.37,214.19,103.48,215.47Z"/><path class="cls-8" d="M128.15,255.35c-2.06,4.47-8.28,5.51-16.65,5.66s-17.08-2-22-6.15a100.56,100.56,0,0,0,2.36-11.55c2.44,1.8,9.23,2.8,13.47-2.87s12.1-15.25,13-19.06.84-11.56.84-11.56c2.64,13.82,6.12,31.27,9,45.53Z"/><path class="cls-12" d="M85.57,257.75a17.58,17.58,0,0,0-10.67-8.93c.67-2.37,1.2-5,3.46-6.4,4.61,1.1,8.62,8.12,8.62,8.12Z"/><path class="cls-12" d="M87.9,243.27c.86,1.81-.28,5.26-.28,5.26s-2.72-5.1-6.49-7C83,241,86.13,239.53,87.9,243.27Z"/><path class="cls-12" d="M83.6,268.21s-6.21-7.53-11.82-8.79A60.87,60.87,0,0,1,74.14,251a19.08,19.08,0,0,1,11,9.49C84.88,263,83.6,268.21,83.6,268.21Z"/><path class="cls-12" d="M82.34,270.47c-4.18,3-13.32,1.87-13.94.23s1.56-6.1,2.72-9.16C80.1,265.11,82.34,270.47,82.34,270.47Z"/><path class="cls-12" d="M82.59,272.93s-1.18,7.38-3.2,9c-3.06,1.4-9.2,1.18-11.49.32-2.44-2.35-.39-7.07,1.42-8.63,4.32,1.15,8.91,1.49,13.27-.7Z"/><path class="cls-13" d="M196.72,275.08a8.37,8.37,0,0,1-9.15,1c-2.37-1.22-3.63-3.71-3.41-6.92.25-3.62,3.51-6.35,7.53-6.84a6.75,6.75,0,0,1,7,4.13C199.58,269,199,273.16,196.72,275.08Z"/><path class="cls-13" d="M196.56,294.25a8.23,8.23,0,0,1-8.76,6.84c-4.08-.21-7.53-5-6.15-9.95s6.7-6,10-5.14S197.05,290.72,196.56,294.25Z"/><path class="cls-1" d="M195,273.51a8.37,8.37,0,0,1-9.15,1c-2.37-1.23-3.64-3.71-3.41-6.92.25-3.62,3.51-6.35,7.52-6.84a6.75,6.75,0,0,1,7,4.13C197.82,267.41,197.22,271.59,195,273.51Z"/><path class="cls-14" d="M194.11,271.66a6.46,6.46,0,0,1-6.89,1.54c-2.46-.86-3.49-4.58-2.74-6.91s3.61-3.76,5.5-3.92,4.35.82,5.11,2.66A7.09,7.09,0,0,1,194.11,271.66Z"/><path class="cls-1" d="M194.8,292.68a8.23,8.23,0,0,1-8.76,6.84c-4.08-.21-7.53-5-6.15-9.95s6.7-6,10-5.15S195.29,289.15,194.8,292.68Z"/><path class="cls-14" d="M190,296.93a5.8,5.8,0,0,1-6.71-.78c-1.24-1.25-2.47-4.87-1.28-7,1.86-3.31,7.76-4.81,10.17-1C194.12,291.28,192.54,295.24,190,296.93Z"/><path class="cls-5" d="M184.93,337.78c2,18.6,9.78,57.83,13.71,69.66-8,6.84-24.22,7.74-34.32,6.11-11.92-18.08-34.66-55.51-43.9-84C139.4,335.86,163.83,338.17,184.93,337.78Z"/><path class="cls-5" d="M257.46,402.57c-17.44,10.94-41.86,10.85-55.22,4.74-4.82-14.5-9.77-48.34-11.86-69.57,46.46,1,86.52-21.43,86.52-21.43S261.69,376.35,257.46,402.57Z"/><path class="cls-15" d="M164.84,436.43a21.56,21.56,0,0,1,5.29,2.61q1.94-1.12,3.91-2.38a45.93,45.93,0,0,0-20.1-3.34q-.39.49-.75,1A34.26,34.26,0,0,1,164.84,436.43Z"/><path class="cls-15" d="M164.52,437.06a33.53,33.53,0,0,0-11.87-2c-5.07,6.86-8.38,13.12-7.69,13.67s11.43-1.84,24.49-9.27A19.74,19.74,0,0,0,164.52,437.06Z"/><path class="cls-16" d="M181.6,416.75c-1.54,1-3.11,2-4.59,3a6.72,6.72,0,0,1,3.71,2.82,1.11,1.11,0,1,1-1,.42,5.78,5.78,0,0,0-3.73-2.47,21.12,21.12,0,0,0-2.89,2.69,4.18,4.18,0,0,1,2.75,2.57,1.12,1.12,0,1,1-1.07.22,3.13,3.13,0,0,0-2.36-1.94,13.5,13.5,0,0,0-1.13,1.76c-.39.74-1.61.2-1.22-.54.27-.5.57-1,.88-1.44a8,8,0,0,0-2.94.41,1.08,1.08,0,0,1-1,1,1.11,1.11,0,1,1-.19-2.21,1.05,1.05,0,0,1,.86.26,8.66,8.66,0,0,1,4-.4,19.5,19.5,0,0,1,2.56-2.58,13,13,0,0,0-3,.25,1.06,1.06,0,0,1-1,.92,1.11,1.11,0,1,1,.72-1.9,13.73,13.73,0,0,1,4.42-.19c1-.75,2-1.46,3-2.15a70.13,70.13,0,0,1-8.5.75,85.52,85.52,0,0,0-14,12.75,46.23,46.23,0,0,1,20.14,4.37l.37-.25c15.79-10.58,20-22.73,20-22.73A81.66,81.66,0,0,1,181.6,416.75Z"/><path class="cls-15" d="M245.82,429.56a50.2,50.2,0,0,1,10.9.3,18.44,18.44,0,0,0-1.18-3c-10-1.25-20.37.57-29,6.31.6.42,1.23.84,1.87,1.26C233.45,431.28,240,430,245.82,429.56Z"/><path class="cls-15" d="M245.24,430.31c-5.48.58-11.41,1.67-16.15,4.54,9.06,5.82,21.11,11.47,25,11,2.33-.29,4.8-7.52,2.81-15.28A47.05,47.05,0,0,0,245.24,430.31Z"/><path class="cls-16" d="M244.16,412.34a52.64,52.64,0,0,1-11.49,1.85c.37.36.72.74,1.06,1.13,2.69-.42,4.86-.79,7.18.08a1.18,1.18,0,0,1,.92-.5,1.2,1.2,0,1,1,.21,2.39,1.16,1.16,0,0,1-1.32-1.05,11.19,11.19,0,0,0-6.14,0,20.38,20.38,0,0,1,1.44,2.36,16.5,16.5,0,0,1,7.87.09,1.37,1.37,0,0,1,.86-.37A1.34,1.34,0,1,1,245,421a1.3,1.3,0,0,1-1.46-1.1,14.64,14.64,0,0,0-6.93-.14,14.19,14.19,0,0,1,1,3c.16.78-1.16.89-1.32.11a12.39,12.39,0,0,0-.93-2.75,16.63,16.63,0,0,0-4.7,2.28,1.3,1.3,0,0,1-1.24,1.51,1.34,1.34,0,1,1-.23-2.66,1.54,1.54,0,0,1,.73.12,17.79,17.79,0,0,1,4.85-2.38,17.63,17.63,0,0,0-1.57-2.3,19.6,19.6,0,0,0-4.89,1.67,1.28,1.28,0,0,1-1.25,1.22,1.34,1.34,0,1,1-.23-2.66,1.35,1.35,0,0,1,1,.29,22,22,0,0,1,4.46-1.58,16.91,16.91,0,0,0-1.38-1.31c-2.24.13-4.76.19-7.57.16-14-.17-19.12-3-19.12-3s11.11,13.23,20,20l.83.62c8.7-6,19.21-8.09,29.51-7.07C250.75,418.48,244.16,412.34,244.16,412.34Z"/><path class="cls-1" d="M100.69,239.12a9.56,9.56,0,0,0,3.89-5.42c-1.45-1.95-6.35-4.16-8.72-4.5a12.55,12.55,0,0,0-3.32,4.62,4.35,4.35,0,0,0,1.21,5A6.93,6.93,0,0,0,100.69,239.12Z"/><path class="cls-9" d="M95.82,230.79a10.65,10.65,0,0,1,4,1.08,40,40,0,0,1,3.56,2.07s-2,6.83-8.14,4.4C90.19,236.36,95.82,230.79,95.82,230.79Z"/><path class="cls-17" d="M185.48,141.15a7.22,7.22,0,0,1,5.37,5,7.68,7.68,0,0,1-.17,4.67,24.6,24.6,0,0,1-4.92-4.77C184,143.53,182.76,140.71,185.48,141.15Z"/><path class="cls-17" d="M176.83,193.34c1.75-4.33,4.21-10.2,6.58-13.73s2.89,8.93-.92,18.83-11,23-13.51,25.22S171.71,206,176.83,193.34Z"/><path class="cls-18" d="M187.65,140.16a66.23,66.23,0,0,0,9.86-1.91c4.41-1.3,5.74-2.22,5.74-2.22s-1.44,4.65-7.56,5.7S187.65,140.16,187.65,140.16Z"/><path class="cls-19" d="M70.19,269.75c-.37-.57,1.48-5.84,2-6.41s2.78,1.09,3.11,1.72,0,4.92-.82,5.26S70.84,270.76,70.19,269.75Z"/><path class="cls-19" d="M73.9,258.67s1.3-6.23,1.86-6.28a7.53,7.53,0,0,1,3.56,2.09c.64.88-1.12,6.61-2.17,5.9A31.57,31.57,0,0,0,73.9,258.67Z"/><path class="cls-19" d="M69.81,275.24c.37-.63,3,.41,3.55.23s-.53,5.36-1,5.94a3.92,3.92,0,0,1-3.8.19C67.48,280.89,69.57,275.66,69.81,275.24Z"/><path class="cls-20" d="M129.33,185.84c-1.11.23-5-7.08-3.8-8.05.6-.5,5-4.15,8.2-6.42s8.67-5.92,9.37-6S141,172.33,137,177.88C134.07,181.85,130.44,185.62,129.33,185.84Z"/><path class="cls-20" d="M230.72,160.14c1-.17,8.66-1,13.82-.12a23.57,23.57,0,0,1,6.24,2s-2.63,5.54-3.57,6.15S227.52,160.68,230.72,160.14Z"/><path class="cls-21" d="M145.8,131.22a133.51,133.51,0,0,0,16.25,14.06c2.84,2,9.76,6.87,9.76,6.87s1.73-2.61,2.91-4.14a32.31,32.31,0,0,1,2.86-3.14s2.74,3.45,5.38,6.3a78.32,78.32,0,0,0,6,5.68l-3,4.25s-4.4-4.85-6.34-7.15a37.93,37.93,0,0,1-3.22-4.44s-1.82,2.9-3.35,5.65c-1.33,2.39-2.33,4.71-3,4.24-1.52-1-7.89-6.21-12.6-10.32S146.86,139,146.59,137.77A46.75,46.75,0,0,1,145.8,131.22Z"/><path class="cls-21" d="M203.51,143.22l4.43-6.68a76.17,76.17,0,0,0,7.47,3.26c4.05,1.5,8.77,3.15,8.77,3.15l4.81-8.47s-1.13,5.69-2.47,10.32-1.89,5.91-1.89,5.91Z"/><path class="cls-21" d="M213.89,127.59a27.3,27.3,0,0,0,10.29-2.52,31.53,31.53,0,0,0,8.94-5.89s-.87,4.85-9.17,8.54A11.18,11.18,0,0,1,213.89,127.59Z"/><path class="cls-8" d="M122.5,331.54s10.2,3.64,30.63,6.23a175.26,175.26,0,0,0,30.4,1s.79,3.87,1.31,8c.5,3.92,1.21,8.47,1.21,8.47a118,118,0,0,1-32.35-.72c-16.33-2.92-25.34-8.79-25.34-8.79a53.2,53.2,0,0,1-3.33-7C123.28,334.31,122.5,331.54,122.5,331.54Z"/><path class="cls-8" d="M192,339s16.86,1,41.15-4.89a200.52,200.52,0,0,0,42.09-15.42s-2.74,10.91-4.42,18.09-3.38,12.76-3.38,12.76a153,153,0,0,1-41.85,10.26c-20.52,1.76-31.3-1.61-31.3-1.61s-1.24-7-1.59-11.08Z"/><path class="cls-22" d="M85.41,165.64c3.18-2.52,16.16-10.71,24.42-15.11s16.48-7,17.49-6.74-8.52,10.64-23,18.47S78.79,170.86,85.41,165.64Z"/><path class="cls-22" d="M260.91,131a97.49,97.49,0,0,1,23.61,11.95c7.31,5.2-7.75,10.37-19.46,2.06C256.11,138.64,254.66,129,260.91,131Z"/><path class="cls-22" d="M323.59,179.58c1.59,5.42,1,12.14-.14,16.71S312,199.8,309,187.44,318.87,163.48,323.59,179.58Z"/><path class="cls-8" d="M298.62,200.78a166.79,166.79,0,0,1,5.34,18.6c1.66,7.3,2.53,14.41,2.53,14.41a72.48,72.48,0,0,0,9.39-12.64c3.49-6.39.86-12.26-5.51-17.18S298.62,200.78,298.62,200.78Z"/><path class="cls-8" d="M200,241.55s13.33-13.24,22-23.67,16.51-23,20.46-28.81,7.94,9.4-15.53,34.34C207.57,244,194.29,247.33,200,241.55Z"/><path class="cls-8" d="M141,217.13c2.52,3.89,13.95,17.29,18,23.54s13.73,20,14.19,22.77-8.71-.36-17.64-13.67S133.27,205.25,141,217.13Z"/><path class="cls-23" d="M62.85,295.15s-17.63,5.31-25.59-6.39c-7.83-11.51,1.49-24.39,7.31-35.48,6.44-12.26,3.15-28.11-6.45-39S22.43,190,23.23,179c1.26-17.26,15.4-36.51,15.4-36.51s-29.18,3.4-36.55,29.3c-5.62,19.78,1,33.9,9.39,46.26,5.11,7.57,16.85,20.34,13.88,33.68-2.57,11.59-13.71,31.57.4,47C43,317.68,62.85,295.15,62.85,295.15Z"/><path class="cls-24" d="M35.58,144.67s-26.71,4.24-32.36,30c-4.65,21.18,4.57,34.47,11.22,44.13S28.59,238,27.65,248.33c-.59,6.52-5,15.4-6.57,25.19-1,6.67-.48,14.39,2.65,19.6,5.28,8.82,12.35,12.05,18.8,11.82s15.24-7.06,15.24-7.06-19.57,2.26-24.42-13.26c-3.12-10,2-19.15,6.76-26.8s8.78-18.35,3.08-31.93S30,211.35,24.42,195.52s-2.34-23.47.81-32.05S35.58,144.67,35.58,144.67Z"/><path class="cls-8" d="M72.13,230.39a32.33,32.33,0,0,0,1.27,6.81,6.34,6.34,0,0,0,3.18,4,7.81,7.81,0,0,0-1.33,1.36,6.8,6.8,0,0,0-.91,1.53,13.83,13.83,0,0,1-5.5-6,12.7,12.7,0,0,1-1.21-7.71s1.26.17,2.16.23A12.31,12.31,0,0,0,72.13,230.39Z"/><g id="Group_938" data-name="Group 938"><g id="Group_931" data-name="Group 931"><path id="Path_8575" data-name="Path 8575" d="M223.3,73a7.51,7.51,0,0,1-2,2.42c-2.92,2.54-8.3,5.14-13.87,6.63-3.17.86-6.38,1.23-7.39.84-.66-.26-.77-.5-.62-1.33.33-1.73,1.71-3.71,3.95-5.65,1.14-1,5.81-4.4,8-5.86C215,67.6,218,66.1,220,65.63a4.76,4.76,0,0,1,1.69-.14c.42.12,1,1.28,1.28,2.7A36.16,36.16,0,0,1,223.3,73Z"/><path id="Path_8576" data-name="Path 8576" d="M170.86,85a2.37,2.37,0,0,1-1.52.81,27.87,27.87,0,0,1-4.44.27A46.48,46.48,0,0,1,151,83.29a17,17,0,0,1-4.94-2.73l-.68-.6-.14-.86a22.81,22.81,0,0,1-.31-4.67,6,6,0,0,1,.52-2c.16-.24.16-.24,1-.31a9.78,9.78,0,0,1,3.23.3,62.12,62.12,0,0,1,12.43,4.93c4.36,2.12,6,3.21,7.35,4.77C170.36,83.07,171,84.49,170.86,85Z"/><path id="Path_8577" data-name="Path 8577" d="M205.45,113.58c0,.07-.17,1.18-.4,2.48s-.41,2.38-.4,2.42a4.43,4.43,0,0,1-.72.09l-.73.06-.79,2.43c-.42,1.33-.82,2.56-.87,2.75l-.11.33-.54-.73-.54-.73-.53-6.23-.18,0c-.37.13-3.07.72-4.25.94a62,62,0,0,1-14.83,1c-.5,0-1-.06-1.5,0,0,0,.13,1.46.32,3.24l.34,3.18-.33.61c-.18.34-.36.62-.35.65s-.32-.27-.93-1.26a15,15,0,0,1-1.55-3.32l-.22-.64-.69.11L175,121l-.26-.82c-.12-.45-.3-1.15-.37-1.51l-.13-.72-.63-.47-.79-.56a.51.51,0,0,1-.2-.37l0-.25,2.82-.22,2.82-.22.11.28.12.29,1,0,3.79-.21L186,116l.61-1.2.65-1.19.94-.08-.22-2.34-.22-2.34-1.29-.43c-4.13-1.42-6.65-3.23-7.74-5.58-.22-.48-.24-.66-.47-2.91s-.23-2.43-.12-2.94a3.3,3.3,0,0,1,2.12-2.5c.37-.14,1.39-.23,6.7-.68l6.27-.52.73.28a4,4,0,0,1,1.8,1.18,3.78,3.78,0,0,1,.93,2.6,20.79,20.79,0,0,1,0,4.36,9.45,9.45,0,0,1-1.09,2.7,12,12,0,0,1-4.74,4l-.52.25.22,2.36.23,2.36h1l.76.95.74,1,3-.26c1.66-.14,3.13-.24,3.27-.23s.27,0,.46-.4l.24-.43,2.59-.22A8.78,8.78,0,0,1,205.45,113.58Z"/><path id="Path_8578" data-name="Path 8578" d="M194.11,121.06c-.41.29-.69.43-.76.39l-.77-.48-.65-.45-.57.73c-1.25,1.6-1.29,1.68-1.69,1.73-.63.12-.77,0-1.64-1.06-.45-.54-.81-1-.81-1s-.29,0-.64,0l-.63,0-.24.64-.24.63-.53-.11a10.3,10.3,0,0,1-1.23-.38l-.71-.27-.11-1.28,6-.5,6-.49.08.61C195,120.44,195.05,120.42,194.11,121.06Z"/></g><path id="Path_8579" data-name="Path 8579" class="cls-25" d="M126.72,97.9c-1.06.15-2,.31-2.84.48m121.86-10.1a48.26,48.26,0,0,0-32,13.88s-6.43-20.77-28.06-18.91S157.86,107,157.86,107c-10.87-9.86-23.69-10-31.14-9m120.16-9.64-1.14,0M123.88,98.38l-1.18.26c0,.14,0,.29,0,.43a19.59,19.59,0,0,0,1,6.83c2.24,6.28,8.05,12.9,16.8,19.14,14.33,10.21,33.14,16.86,46.94,16.63,14.39-.26,34.78-10.43,47.79-23.84a70.53,70.53,0,0,0,5.69-6.77,34.44,34.44,0,0,0,2.94-4.7s0,0,.08-.1.12-.12.08-.16,0-.09.08-.12.11-.08.08-.12,0-.09.08-.12a.1.1,0,0,0,.06-.13h0a.07.07,0,0,1,0-.1s.09-.08.08-.12,0-.12.08-.12a.1.1,0,0,0,.08-.1,2.65,2.65,0,0,1,.25-.54c.29-.55,1.44-3.07,1.58-3.49a31,31,0,0,0,1.79-8.3,26.92,26.92,0,0,0-.19-4.08,3.86,3.86,0,0,1-.09-.49c-.33,0-.7,0-1.1,0m-52.77,32.8c-.41.29-.69.43-.76.39l-.77-.48-.65-.45-.57.73c-1.25,1.6-1.29,1.68-1.69,1.73-.63.12-.77,0-1.64-1.06-.45-.54-.81-1-.81-1s-.29,0-.64,0l-.63,0-.24.64-.24.63-.53-.11a10.3,10.3,0,0,1-1.23-.38l-.71-.27-.11-1.28,6-.5,6-.49.08.61C195,120.44,195.05,120.42,194.11,121.06ZM205,116c-.23,1.31-.41,2.37-.41,2.42a3.53,3.53,0,0,1-.72.08l-.72.06-.77,2.45c-.43,1.33-.82,2.57-.87,2.76l-.11.32-.54-.72-.54-.73-.53-6.23-.18,0c-.37.13-3.07.72-4.25.94a62,62,0,0,1-14.83,1c-.5,0-1-.06-1.5,0,0,0,.13,1.46.32,3.24l.34,3.18-.33.61c-.18.34-.36.62-.35.65s-.32-.27-.93-1.26a15,15,0,0,1-1.55-3.32l-.22-.64-.69.11L175,121l-.26-.82c-.12-.45-.3-1.15-.37-1.51l-.13-.72-.63-.47-.79-.56a.51.51,0,0,1-.2-.37l0-.25,2.82-.22,2.82-.22.11.28.12.29,1,0,3.79-.21L186,116l.61-1.2.65-1.19.94-.08-.22-2.34-.22-2.34-1.29-.43c-4.13-1.42-6.65-3.23-7.74-5.58-.22-.48-.24-.66-.47-2.91s-.23-2.43-.12-2.94a3.3,3.3,0,0,1,2.12-2.5c.37-.14,1.39-.23,6.7-.68l6.27-.52.73.28a4,4,0,0,1,1.8,1.18,3.78,3.78,0,0,1,.93,2.6,20.79,20.79,0,0,1,0,4.36,9.45,9.45,0,0,1-1.09,2.7,12,12,0,0,1-4.74,4l-.52.25.22,2.36.23,2.36h1l.76.95.74,1,3-.26c1.66-.14,3.13-.24,3.27-.23s.27,0,.46-.4l.24-.43,2.59-.22a11.42,11.42,0,0,1,2.6-.14A16.62,16.62,0,0,0,205,116Z"/><path id="Path_8580" data-name="Path 8580" class="cls-26" d="M122.66,98.64c-.75.17-1.49.38-2.22.62"/><path id="Path_8581" data-name="Path 8581" class="cls-26" d="M250,88.39a18.65,18.65,0,0,0-2-.12"/><path id="Path_8582" data-name="Path 8582" class="cls-27" d="M247.69,86.47c-.13-1-.34-2.42-.47-3.11a66.17,66.17,0,0,0-10.89-26.71,7.6,7.6,0,0,1-.57-.9,1.63,1.63,0,0,1-.11-.17h0c.52-2.16,2.63-11.17,4-21.38,1.92-13.87,2.51-29.94-3.89-34.2,0,0-10.43.12-23.14,14.92A92.45,92.45,0,0,0,203.45,28l-1-.24A70.56,70.56,0,0,0,185,25.89c-1.76,0-8.32.58-10.45.9a60.6,60.6,0,0,0-16.76,4.82l-.61.28A91.94,91.94,0,0,0,145.48,20.7C129.87,8.25,119.19,10,119.19,10c-5.93,5.47-2.34,21.91,2.15,35.69,3,9.12,6.32,17.07,7.55,19.93-.06.16-.13.35-.21.52a81.83,81.83,0,0,0-6,32.53c5.8-1.35,21.92-3.71,35.16,8.31,0,0,6.21-21.84,27.83-23.7s28.06,18.91,28.06,18.91A48.22,48.22,0,0,1,248,88.27C247.9,87.82,247.8,87.14,247.69,86.47ZM132.43,56.73s-10.23-20.34-9.1-32.55h0A11.6,11.6,0,0,1,125,18.84s9.65.13,26.51,15.93a44.19,44.19,0,0,0-6.47,5l-.05,0a54.38,54.38,0,0,0-12.55,16.91ZM170.86,85a2.37,2.37,0,0,1-1.52.81,27.87,27.87,0,0,1-4.44.27A46.48,46.48,0,0,1,151,83.29a17,17,0,0,1-4.94-2.73l-.68-.6-.14-.86a22.81,22.81,0,0,1-.31-4.67,6,6,0,0,1,.52-2c.16-.24.16-.24,1-.31a9.78,9.78,0,0,1,3.23.3,62.12,62.12,0,0,1,12.43,4.93c4.36,2.12,6,3.21,7.35,4.77C170.36,83.07,171,84.49,170.86,85ZM223.3,73a7.51,7.51,0,0,1-2,2.42c-2.92,2.54-8.3,5.14-13.87,6.63-3.17.86-6.38,1.23-7.39.84-.66-.26-.77-.5-.62-1.33.33-1.73,1.71-3.71,3.95-5.65,1.14-1,5.81-4.4,8-5.86C215,67.6,218,66.1,220,65.63a4.76,4.76,0,0,1,1.69-.14c.42.12,1,1.28,1.28,2.7A36.16,36.16,0,0,1,223.3,73Zm-7.13-39.26,0,0a43,43,0,0,0-7-3.87c13.42-18.39,22.55-20.13,22.55-20.13a12.4,12.4,0,0,1,2.47,5h0c3.12,11.86-3.2,33.64-3.2,33.64A53.77,53.77,0,0,0,216.17,33.69Z"/><path id="Path_8583" data-name="Path 8583" class="cls-26" d="M203.42,28c0,.05-.06.11-.1.17"/><path id="Path_8584" data-name="Path 8584" class="cls-26" d="M235.63,55.56c-.09.32-.12.48-.12.48"/><g id="Group_934" data-name="Group 934"><g id="Group_933" data-name="Group 933"><g id="Group_932" data-name="Group 932"><path id="Path_8585" data-name="Path 8585" class="cls-28" d="M234.16,14.65c-1.77-.07-10.09.6-18,19l0,0a42.71,42.71,0,0,0-7-3.87c13.42-18.39,22.55-20.13,22.55-20.13A11.92,11.92,0,0,1,234.16,14.65Z"/></g><path id="Path_8586" data-name="Path 8586" class="cls-29" d="M231,48.29a53.7,53.7,0,0,0-14.8-14.6c7.91-18.44,16.2-19.11,18-19h0C237.29,26.53,231,48.29,231,48.29Z"/><path id="Path_8587" data-name="Path 8587" class="cls-29" d="M234.51,14.69l-.35,0Z"/></g></g><path id="Path_8588" data-name="Path 8588" class="cls-26" d="M157.88,32.77c-.25-.3-.52-.59-.78-.89"/><path id="Path_8589" data-name="Path 8589" class="cls-26" d="M128.91,65.59c.31.74.5,1.12.5,1.12"/><g id="Group_937" data-name="Group 937"><g id="Group_936" data-name="Group 936"><g id="Group_935" data-name="Group 935"><path id="Path_8590" data-name="Path 8590" class="cls-28" d="M151.49,34.74a44.2,44.2,0,0,0-6.46,5l-.05,0c-11.27-16.82-19.84-16-21.67-15.63A11.72,11.72,0,0,1,125,18.82S134.61,18.94,151.49,34.74Z"/></g><path id="Path_8591" data-name="Path 8591" class="cls-29" d="M145,39.79a54.12,54.12,0,0,0-12.57,16.94s-10.23-20.34-9.1-32.58h0C125.14,23.77,133.74,23,145,39.79Z"/><path id="Path_8592" data-name="Path 8592" class="cls-29" d="M123.33,24.15l-.35.1Z"/></g></g><path id="Path_8593" data-name="Path 8593" class="cls-25" d="M209.17,61.93S202,63,202.43,57.29s6-6.87,7.59-6.78,8.1,1.8,7.38,6.62S215,61.2,214.14,61.5A36.55,36.55,0,0,1,209.17,61.93Z"/><path id="Path_8594" data-name="Path 8594" class="cls-25" d="M156,66.49s-7.17,1.07-6.75-4.64,6-6.87,7.59-6.78,8.1,1.8,7.37,6.62-2.37,4.07-3.25,4.37A36.43,36.43,0,0,1,156,66.49Z"/></g></g></g></svg>