<svg xmlns="http://www.w3.org/2000/svg" xmlns:xlink="http://www.w3.org/1999/xlink" width="1720" height="270.82" viewBox="0 0 1720 270.82"><defs><style>.cls-1{isolation:isolate;}.cls-2{fill:url(#Áåçûìÿííûé_ãðàäèåíò_119);}.cls-3{fill:url(#Áåçûìÿííûé_ãðàäèåíò_8);}.cls-4{fill:#fff;mix-blend-mode:soft-light;}.cls-4,.cls-5{opacity:0.3;}.cls-5{mix-blend-mode:color-dodge;}.cls-6{fill:#00ffe7;}</style><linearGradient id="Áåçûìÿííûé_ãðàäèåíò_119" x1="859.99" y1="270.82" x2="859.99" y2="5.93" gradientUnits="userSpaceOnUse"><stop offset="0" stop-color="#0062c0"/><stop offset="0.43" stop-color="#2fe4cc"/><stop offset="0.92" stop-color="#ffffd6"/></linearGradient><linearGradient id="Áåçûìÿííûé_ãðàäèåíò_8" y1="6.69" x2="1719.97" y2="6.69" gradientUnits="userSpaceOnUse"><stop offset="0" stop-color="#63163d"/><stop offset="1" stop-color="#95294d"/></linearGradient></defs><g class="cls-1"><g id="Layer_2" data-name="Layer 2"><g id="Layer_1-2" data-name="Layer 1"><rect class="cls-2" y="5.93" width="1719.97" height="264.89"/><polygon class="cls-3" points="1719.97 0 1719.97 13.38 0 12.47 0 1.39 1719.97 0"/><polygon class="cls-4" points="0.06 56.35 1720 42.85 1720 57.12 0.03 71.52 0.06 56.35"/><polygon class="cls-4" points="0.06 26.74 1720 31.07 1720 28.94 0.06 17.5 0.06 26.74"/><polygon class="cls-4" points="1720 3.63 0.06 3.63 0.06 7.48 1720 4.37 1720 3.63"/><g class="cls-5"><path class="cls-6" d="M423.57,57.42c0,.41-62.57.75-139.75.75s-139.74-.34-139.74-.75,62.56-.76,139.74-.76S423.57,57,423.57,57.42Z"/><ellipse class="cls-6" cx="665.11" cy="118.15" rx="139.75" ry="0.75"/><path class="cls-6" d="M520.35,97.32c0,.55-14.91,1-33.3,1s-33.31-.45-33.31-1,14.91-1,33.31-1S520.35,96.76,520.35,97.32Z"/><path class="cls-6" d="M169.63,37.25c0,.55-14.91,1-33.3,1s-33.3-.45-33.3-1,14.91-1,33.3-1S169.63,36.69,169.63,37.25Z"/><path class="cls-6" d="M912.64,103.78c0,.62-40.11,1.13-89.58,1.13s-89.58-.51-89.58-1.13,40.1-1.13,89.58-1.13S912.64,103.16,912.64,103.78Z"/><path class="cls-6" d="M1346.87,96.31c0,.63-40.1,1.13-89.58,1.13s-89.58-.5-89.58-1.13,40.11-1.13,89.58-1.13S1346.87,95.69,1346.87,96.31Z"/><path class="cls-6" d="M747.63,36.24c0,.63-40.11,1.13-89.58,1.13s-89.58-.5-89.58-1.13,40.1-1.13,89.58-1.13S747.63,35.62,747.63,36.24Z"/><path class="cls-6" d="M242.42,136.91c0,.62-40.11,1.13-89.58,1.13s-89.58-.51-89.58-1.13,40.11-1.13,89.58-1.13S242.42,136.28,242.42,136.91Z"/><path class="cls-6" d="M968.54,124.29c0,.62-7.22,1.13-16.13,1.13s-16.12-.51-16.12-1.13,7.22-1.13,16.12-1.13S968.54,123.67,968.54,124.29Z"/><path class="cls-6" d="M1164.94,90.4c0,.62-7.22,1.12-16.13,1.12s-16.12-.5-16.12-1.12,7.22-1.13,16.12-1.13S1164.94,89.77,1164.94,90.4Z"/><path class="cls-6" d="M94.7,65.23c0,.63-7.22,1.13-16.13,1.13s-16.12-.5-16.12-1.13,7.22-1.13,16.12-1.13S94.7,64.61,94.7,65.23Z"/><path class="cls-6" d="M1363,102.08c0,.63-7.22,1.13-16.13,1.13s-16.12-.5-16.12-1.13S1338,101,1346.87,101,1363,101.46,1363,102.08Z"/><path class="cls-6" d="M1446.9,57.42c0,.62-7.22,1.13-16.13,1.13s-16.12-.51-16.12-1.13,7.22-1.13,16.12-1.13S1446.9,56.79,1446.9,57.42Z"/><path class="cls-6" d="M1628.21,130.36c0,.62-7.22,1.13-16.13,1.13S1596,131,1596,130.36s7.22-1.13,16.12-1.13S1628.21,129.73,1628.21,130.36Z"/><path class="cls-6" d="M1681.25,107.35c0,.63-7.22,1.13-16.12,1.13S1649,108,1649,107.35s7.22-1.13,16.13-1.13S1681.25,106.73,1681.25,107.35Z"/></g></g></g></g></svg>