<svg id="Layer_1" data-name="Layer 1" xmlns="http://www.w3.org/2000/svg" viewBox="0 0 800 800"><defs><style>.cls-1{fill-rule:evenodd;}</style></defs><path class="cls-1" d="M179.21,267.53a88.32,88.32,0,0,1,88.32-88.32H532.47a88.32,88.32,0,0,1,88.32,88.32V532.47a88.32,88.32,0,0,1-88.32,88.32H267.53a88.32,88.32,0,0,1-88.32-88.32Zm88.32-44.16a44.16,44.16,0,0,0-44.16,44.16V532.47a44.16,44.16,0,0,0,44.16,44.16H532.47a44.16,44.16,0,0,0,44.16-44.16V267.53a44.16,44.16,0,0,0-44.16-44.16ZM400,333.76A66.24,66.24,0,1,0,466.24,400,66.24,66.24,0,0,0,400,333.76ZM289.6,400A110.4,110.4,0,1,1,400,510.4,110.4,110.4,0,0,1,289.6,400Zm231.84-88.32a33.12,33.12,0,1,0-33.12-33.12A33.11,33.11,0,0,0,521.44,311.68Z"/></svg>