<svg xmlns="http://www.w3.org/2000/svg" viewBox="0 0 748.98 748.98"><defs><style>.cls-1{fill:#fff;}.cls-1,.cls-2{fill-rule:evenodd;}</style></defs><g id="Layer_2" data-name="Layer 2"><g id="Layer_1-2" data-name="Layer 1"><path class="cls-1" d="M748.92,558.92c0,4.1-.13,13-.38,19.86-.59,16.8-1.93,38.5-3.94,48.38C741.57,642,737,656,731,667.69a144.22,144.22,0,0,1-63.54,63.48c-11.73,6-25.83,10.55-40.77,13.56-9.79,2-31.32,3.28-48,3.88-6.87.25-15.77.37-19.85.37l-368.8-.06c-4.1,0-13-.12-19.86-.37-16.8-.6-38.5-1.93-48.38-3.95C107,741.57,93,737,81.28,731A144.27,144.27,0,0,1,17.81,667.5c-6-11.73-10.55-25.83-13.57-40.77-2-9.78-3.28-31.32-3.87-48C.12,571.84,0,562.94,0,558.86l.05-368.8c0-4.1.13-13,.38-19.86.6-16.81,1.93-38.5,4-48.38C7.41,107,12,93,17.94,81.28A144.27,144.27,0,0,1,81.48,17.81c11.73-6,25.83-10.55,40.77-13.57,9.78-2,31.32-3.28,48-3.87C177.15.12,186,0,190.12,0L558.91.06c4.11,0,13,.12,19.86.36,16.82.61,38.5,1.94,48.39,4C642,7.41,656,12,667.7,17.94a144.27,144.27,0,0,1,63.47,63.54c6,11.73,10.55,25.83,13.56,40.77,2,9.78,3.28,31.31,3.88,48,.25,6.88.37,15.78.37,19.86Z"/><path class="cls-2" d="M410.29,320.45q-12.69,8.43-25.22,17.1c-15.65,10.82-31.41,22.15-47.48,32.59-14.7,9.55-28.51,20.37-43.18,29.95-15.81,10.34-35.29,21.25-54.77,15.49-27.58-8.15-49.12-11.55-69.35-19.5s-13-21.68,2.17-28.9,182.77-79.47,182.77-79.47L460,244.37q13.65-5.33,27.26-10.71c6.12-2.42,12.12-5.14,18.56-6.6,7.28-1.66,16-2.44,22.55,1.82,9.43,6.09,9.42,19.36,8.22,29.21-2.34,19.21-5.22,38.36-8.06,57.5q-5.65,38-11.62,75.88-5.25,33.66-10.61,67.3c-2.57,16.18-3.79,32.87-7.23,48.87-1.55,7.24-3.92,14.53-8.05,20.74-17.28,26-49.66,2.81-67.38-10.22-14.6-10.72-76.46-50.74-91.79-61.47-5.47-3.83-9.75-10.53-9.69-17.31.09-9.33,6.72-16.4,13.16-22.37,7.92-7.34,16.09-14.39,23.95-21.8l35.37-33.37L425,333.21a200.91,200.91,0,0,0,15.85-16.64c1.49-1.78,2.52-3.19,2.69-5.52a5.31,5.31,0,0,0-1.47-4.47c-4.65-4.37-10.42,0-14.59,2.65Q418.82,314.78,410.29,320.45Z"/></g></g></svg>