<svg xmlns="http://www.w3.org/2000/svg" viewBox="0 0 748.98 748.98"><defs><style>.cls-1{fill:#fff;fill-rule:evenodd;}</style></defs><g id="Layer_2" data-name="Layer 2"><g id="Layer_1-2" data-name="Layer 1"><path class="cls-1" d="M748.92,558.92c0,4.1-.13,13-.38,19.86-.59,16.8-1.93,38.5-3.94,48.38C741.57,642,737,656,731,667.69a144.22,144.22,0,0,1-63.54,63.48c-11.73,6-25.83,10.55-40.77,13.56-9.79,2-31.32,3.28-48,3.88-6.87.25-15.77.37-19.85.37l-368.8-.06c-4.1,0-13-.12-19.86-.37-16.8-.6-38.5-1.93-48.38-3.95C107,741.57,93,737,81.28,731A144.27,144.27,0,0,1,17.81,667.5c-6-11.73-10.55-25.83-13.57-40.77-2-9.78-3.28-31.32-3.87-48C.12,571.84,0,562.94,0,558.86l.05-368.8c0-4.1.13-13,.38-19.86.6-16.81,1.93-38.5,4-48.38C7.41,107,12,93,17.94,81.28A144.27,144.27,0,0,1,81.48,17.81c11.73-6,25.83-10.55,40.77-13.57,9.78-2,31.32-3.28,48-3.87C177.15.12,186,0,190.12,0L558.91.06c4.11,0,13,.12,19.86.36,16.82.61,38.5,1.94,48.39,4C642,7.41,656,12,667.7,17.94a144.27,144.27,0,0,1,63.47,63.54c6,11.73,10.55,25.83,13.56,40.77,2,9.78,3.28,31.31,3.88,48,.25,6.88.37,15.78.37,19.86Z"/><path d="M407.43,361.92,394.1,342.6,306.82,216.06H211.91L341,404.93l13.3,19.47,85.76,125.46h97ZM368.5,407.71l-13.29-19.46L252,237.2h43.77l84.19,122.05,13.34,19.35L496.81,528.72H451.22Z"/><polygon points="355.21 388.25 368.5 407.71 354.31 424.4 247.64 549.86 217.54 549.86 341 404.93 355.21 388.25"/><polygon points="531.44 216.06 407.43 361.92 393.26 378.6 379.92 359.25 394.1 342.6 501.89 216.06 531.44 216.06"/></g></g></svg>