<svg xmlns="http://www.w3.org/2000/svg" xmlns:xlink="http://www.w3.org/1999/xlink" width="297mm" height="102.64mm" viewBox="0 0 841.89 290.94"><defs><style>.cls-1{fill:none;}.cls-2{fill:#1bc9fd;}.cls-3{clip-path:url(#clip-path);}.cls-4{fill:#47e4fd;}.cls-5{fill:#fbb52d;}.cls-6{fill:#fdde7b;}.cls-7{fill:#fd9513;}.cls-8{fill:#703e3c;opacity:0.3;}.cls-9{fill:#fff;}.cls-10{fill:#09a6f0;}.cls-11{fill:#017bd7;}.cls-12{fill:#ac1360;}.cls-13{fill:#e52752;}.cls-14{fill:#e3e5fd;}.cls-15{fill:#fa9fdf;}.cls-16{fill:#f36cc1;}.cls-17{fill:#fdc9f9;}.cls-18{fill:#fd7b20;}.cls-19{fill:#e9533c;}.cls-20{fill:#fda93b;}.cls-21{fill:#fbe6ae;}.cls-22{fill:#bcce3e;}.cls-23{fill:#7ba935;}.cls-24{fill:#cadf54;}.cls-25{fill:#f3ffa8;}.cls-26{fill:#96ffff;}.cls-27{fill:#fd6a67;}.cls-28{fill:#fdb69e;}</style><clipPath id="clip-path"><rect class="cls-1" x="-8.5" y="-8.5" width="858.9" height="612.28"/></clipPath></defs><g id="PRINT_1" data-name="PRINT 1"><rect class="cls-2" x="-8.5" y="-8.5" width="858.9" height="612.28"/><g class="cls-3"><path class="cls-4" d="M884.71,164.31,857.39,161c-5.3-.65-10.88-.65-14.61-4.95-2.13-2.46-3.67-4.73-6.66-6.23-11.85-6-28.23-3.31-40.88-2.43-10,.69-21.56,1.76-30.89-2.53-3.53-1.63-6.68-4.5-6.09-8.71a18.47,18.47,0,0,1,1.55-4.56c6.2-1.87,12.6-.39,18.92-1.46,3.58-.6,9.28-2.3,6.94-6.92-.81-1.61-3.95-2.89-4.47-4.16-1.47-3.6,6.63-3.85,8.55-4.08,7.8-.94,15.67-1,23.49-1.7,5.8-.56,14.15-.94,19.11-4.28,3.53-2.37,1.65-5.58-1.23-7.57a21.11,21.11,0,0,0-3.58-1.89c-1.21-.52-3.63-.76-4.62-1.47-1.89-.23-1.18-.75,2.14-1.59l3.9-.35,5.85-.52,25.35-2.29c2.36-.21-.59-4.06-2.25-3.91l-25.35,2.28c-3.36.3-14.74-.8-15.12,4.49-.4,5.51,7.45,5,10.39,6.75,2.47,1.45,2.13,1.43.26,2.86-1.4,1.07-4.3,1.4-6,1.81a83.52,83.52,0,0,1-12.89,1.92c-7.82.65-15.7.71-23.49,1.77-3.24.44-9.83,1-9.06,5.78a7,7,0,0,0,2.74,4c.84.71,3.15,1.54,2.3,3.13s-5.71,2.14-7.08,2.28c-4.6.49-9.15,0-13.65.49a7.23,7.23,0,0,0-.07-.79c-.74-4.69-5.8-7.23-9.94-8.26a34.58,34.58,0,0,0-7.65-.8c-6-.15-10.92-.84-15.25-5.34-4.81-5-8.15-9.55-15.06-11.64A24.05,24.05,0,0,0,706.33,99a40,40,0,0,0,2.46-3.85,32.07,32.07,0,0,1,15.6-13.42c14.51-6.25,30.8-4.54,45.81-8.85,6.77-1.94,13-4.64,15.14-11.86,1.07-3.62,1.19-7.5,3-10.89,2-3.86,5.7-6.16,9.68-7.67,8.35-3.17,17.6-4.48,26.28-6.47l29.46-6.74c2.75-.64-1.37-3.05-3.05-2.66-16.52,3.78-33.13,7.29-49.57,11.37-5.36,1.33-11.18,3.16-15.12,7.28-4.32,4.52-3.88,10.59-6,16.09-3.22,8.46-16,10-23.82,11.1-7.37,1-14.82,1.47-22.12,2.89-11.8,2.29-23.61,7.27-29.84,18.11-2,3.48-3.68,6.81-7.49,8.59-4.47,2.09-9.8,2.12-14.63,2.19-6.86.09-13.91-.32-20.58,1.62-5.29,1.53-10.72,4.56-13.8,9.27a15.77,15.77,0,0,0-2.44,6.59c-.22,1.66.11,3.58-.78,5.09-1.54,2.64-5.22,2.37-8,2.13-17.89-1.5-35.73-3.65-53.48-6.31-1.87-.28-4.46-.23-6.2-1-3.44-1.45-4.23-3.45-4.25-6.76,0-2.89.34-5.76-.92-8.48-1.75-3.8-5.57-6-9.43-7.26-5.94-1.86-11.78-1.16-17.8-.26-5.12.76-11,1.83-15.59-1.24-3.66-2.47-5.33-6.83-6.8-10.82-2.25-6.14-4.46-11.84-9.19-16.56a33.81,33.81,0,0,0-17.6-9.08c-3-.57-3.57,2.15-.58,2.72a27.2,27.2,0,0,1,18.46,13c3.29,5.61,4.17,12.37,7.82,17.8,7.84,11.64,21.27,6.59,32.69,6.15,3.63-.15,8,.35,10.9,2.68,3.41,2.68,3.12,6.44,3.15,10.35,0,5.19,1.78,8.64,7,10.15,7.35,2.13,15.6,2.51,23.18,3.51q13.27,1.76,26.59,3.11,6.4.66,12.83,1.21c2.74.23,5.9.69,8.56-.34,5.85-2.28,3.5-9.52,6.16-14.08,8.69-14.92,29.75-8.33,43.57-11.34a16.57,16.57,0,0,0,8.92-4.79l.12,0c3.55-2.1,9.27,1,12,3.38,2.5,2.09,4.35,4.9,6.59,7.24a20.44,20.44,0,0,0,13.51,6.38c6.31.62,17.75-1,19.17,7.65a8.28,8.28,0,0,1,0,2.22h0c-3.3.86-6.57,1.12-9.91,1.72a4.53,4.53,0,0,0-2.75,1.08c-1.35,1.41-.38,2-2.53,2.54-1.8.45-3.43.37-5.14,1.29a5.85,5.85,0,0,0-2.7,2.4c-.56,1.27.43,2.05.2,3-.72,2.93-5.19,3.47-7.55,4.29-1.24.42-2.94,1.45-4.22,1.51-2.54.12-2.6,2.69-.61,3.7,16.71,8.54,15.5,32.15-.78,40.27a1.68,1.68,0,0,0-.44,2.71c5.37,4.7,16.16,16.54,6.87,22.8-3.23,2.18-7.66,3-11.39,3.95a139.83,139.83,0,0,1-15.87,3c-17.8,2.35-35.87,2.39-53.52,5.88-14.59,2.88-31.3,8.44-39.13,22.23a20.64,20.64,0,0,0-1.76,17.27c2.5,7.1,10.21,13.86,9.73,21.78C614,296.49,606,300.32,604,307c-2,7,1,14.21-.31,21.23-1.74,9.11-14.3,11.53-21.65,14.53-9.18,3.75-18.45,7.35-27.57,11.26-10.54,4.51,6.07,18.64,9.15,22.84,1.36,1.86,2.62,4.07,2,6.46-1.19,4.55-7.35,5.14-11.17,5.77a242.2,242.2,0,0,1-31.11,3.06c-10.94.38-23.38,1.21-34-2-9.42-2.88-16.58-10.56-25.65-14.38a62.11,62.11,0,0,0-50.8,1.47c-1.46.71-1,2.3,0,3.1l11.73,9.19c3.25,2.55,12.49,7.7,7.33,12.38-2.87,2.6-7.4,2.79-11,2.9-5.15.15-10.31.14-15.47,0a365.67,365.67,0,0,1-61.74-6.4q-7.12-1.35-14.19-3a39.41,39.41,0,0,1-4-.86,4.11,4.11,0,0,0-.76-.74,8.28,8.28,0,0,1-.93-4.14c.29-1.55,1.29-2.5,1.25-4.2-.15-6.28-8.54-8-13.13-9.51a211.52,211.52,0,0,1-26.11-10.79c-3.94-1.95-10.73-4.29-10.16-9.72.33-3.07,2-5.64,1.38-8.85-2.23-10.85-18.29-9.12-24.54-16.6,8.45-3.83,8.12-16.42,1.77-22.54-10.42-10.05-26.53-6-38.36-12.71L231,283c1.3-1,0-2.6-1-3.06-15.13-6.76-30.37-13.56-44.23-22.73-11.26-7.45-20.76-17.73-32.89-23.82A37.14,37.14,0,0,0,136,229.2c-1.48,0-3.45.4-4.89,0-4.21-1.27-3-4.33-3.34-7.21a9.06,9.06,0,0,0-2.44-5.58c-3.8-3.89-10.9-4.58-15.85-5.87l-15-3.89a150.7,150.7,0,0,0,17.7-2.6c3.32-.79,7.14-1.81,9.62-4.34,2.79-2.86,3-6.7,3.77-10.4,5.1-23.47,32.24-29.85,52.25-34a2.29,2.29,0,0,0,1-.46l.29,0c8.19,1.22,9.42,9.22,15,13.71a22.69,22.69,0,0,0,11.1,4.48c5.2.7,10.42-.32,15.49-1.4,8.24-1.75,16.45-3.6,24.68-5.41,6.34-1.39,14-1.92,20-4.54,5.3-2.32,4.45-6.93,2.17-11.26-2.52-4.77-6.47-9.63-4.32-15.33,2-5.27,7.63-8.54,12.62-10.5,8.89-3.5,21.87-3.41,27.17-12.84,2.64-4.7.37-10.79,3.7-15.12a10.76,10.76,0,0,1,2.14-2.07h.72a4.11,4.11,0,0,0,2.81-1.93c4.64-1.82,10.44-2,14.75-2.25,12.86-.67,25-.22,34-10.71a39.64,39.64,0,0,1,9.5-8.59c3.3-2,6.88-3.53,10.06-5.73C385.94,61.8,390,56.59,389,50c-.17-1.15-4.75-2.27-4.63-1.42,2.12,14.23-17,17.61-24.61,25.55-4.32,4.48-7.53,9.15-13.57,11.4C340.39,87.74,334,87.81,327.92,88c-5.54.2-14.63.09-20.89,3-7.69.21-15.66,1.37-21.62,6.54a29.42,29.42,0,0,0-4.63,5.56c-3,4.26-8.06,4.94-12.93,5.44a103.84,103.84,0,0,1-21.94-.35c-5.83-.63-11.5-.95-17.24.53s-11.21,4.38-16.8,6.59a53.65,53.65,0,0,1-20.21,3.91c-3.31,0-8.67.08-11.67-1.59-4.74-2.65-.61-8.11,2-10.59.46-.44,1.31-1.41.81-2.12-3.21-4.62-8.51-6-13.72-7.21-3.08-.71-6.32-1.27-9.17-2.71-4-2-4.91-5-6.31-9.08C151,78.5,142.89,73.63,136.73,69.33a154.41,154.41,0,0,0-24.92-14c-1.67-.75-5.43,2.44-3.65,3.24a152.91,152.91,0,0,1,24.92,14c3.41,2.38,6.8,4.87,10,7.58,4.23,3.63,5.26,6.36,7.16,11.47,4.43,11.9,20.74,6.7,27.81,15.31-2.68,2.8-5.59,6.71-4.56,10.51,1.43,5.22,9.47,5.13,13.67,5.33a57.42,57.42,0,0,0,21.25-3c7.12-2.43,13.74-6.5,21.15-8,8.26-1.68,16.87.73,25.2.87,6.86.11,14.72,0,21.28-2.22s8-9,13.61-12.46c3.71-2.3,8.22-3,12.7-3.28a10,10,0,0,0-1.9,4.29c-1,5.1-.13,9.7-4.1,13.76-3.64,3.72-9,5.44-13.9,6.79-8.37,2.31-20.25,4.41-23.79,13.79-1.65,4.37.2,8.38,2.33,12.18,2.55,4.57,7.06,11,.12,14.14-2.59,1.19-5.81,1.44-8.58,2l-11.39,2.5-22.77,5c-7.18,1.56-16.49,4.31-22.2-1.91-3.42-3.71-5.21-8.46-9.61-11.28a22.79,22.79,0,0,0-7.31-2.95,3,3,0,0,0-3.25-1.78l-4.27.9c-6.86-.16-14,1-20,1.68-15.74,1.67-32.79,4.54-48-1.25,3.31-3.25,7.84-9.07,4.39-13.52-3.06-4-9.93-4.33-14.31-5.2L42.2,123.66c-4.09-.8-12.46-1.27-13.83-6.18-1-3.73,1.27-7-1.32-10.35-2.24-2.94-6.53-4.24-10-5-7.24-1.53-14.82-2-22.16-2.9l-26.7-3.36c-2.23-.28,2,2,3,2.16C-14.21,99.9.43,101.62,15,103.58c2.6.35,6.31.77,8.06,3.11,1.16,1.54.48,4.14.5,5.88,0,2.2,0,4.07,1.4,5.94,2.14,2.82,6.17,4.22,9.44,5.12,13.91,3.84,28.61,5.77,42.76,8.56,7.39,1.46,15.12,2.4,22.37,4.43,2.39.66,5,1.26,5,4.28a9.07,9.07,0,0,1-1,3.65,21.29,21.29,0,0,1-5.12,6.68c-.34.33,1.4,1.24,1.48,1.27,11.55,5,23.67,6.16,36.16,5.39,6.45-.4,12.87-1.2,19.29-1.88l1.53-.17c-10.81,3.32-21,8.25-28.46,17.11a37.63,37.63,0,0,0-5.87,9.28c-1.78,4.13-1.54,10-4.06,13.6-2.73,3.84-9.31,4.48-13.66,5.17s-8.71,1.07-13.07,1.58c-2.75.33-5.52.7-8.27,1.2l-.18-.05a2,2,0,0,0-2.2.52,46.21,46.21,0,0,0-12.16,4.23c-7.85,4.17-12.47,12.13-21.53,14.21-15.8,3.61-32.28-4.32-48,1.21-9.87,3.48-17.49,10.88-27.71,13.91-10.7,3.19-22,3.67-33.07,4.17-3.25.14-2.38,4.4.62,4.27,19-.85,36.5-2.83,52.76-13.3,8.47-5.45,16.49-7.27,26.5-6.67,8,.49,16,1.9,24,1.42a31.4,31.4,0,0,0,19.75-8c3.49-3.13,6.64-6.28,10.94-8.32A44.9,44.9,0,0,1,84.49,208L107,213.86c3.79,1,8.83,1.53,12.29,3.4,4.14,2.24,3.1,5.32,3.77,9.11.85,4.8,5,6.6,9.47,6.79,7.64.34,13.7.87,20.5,4.84,12.21,7.13,22.17,17.56,34.25,25s24.83,13.27,37.68,19l-14.66,11.52c-1,.8-.36,2.18.46,2.78,9.15,6.65,20.36,5.62,30.75,8.71,5.41,1.61,11.25,4.79,12.45,10.79.92,4.57-.77,10.25-5.79,11.32a1.78,1.78,0,0,0-1.32,2.49c2.8,5.16,8.17,7.54,13.41,9.57,6,2.33,13.54,4.11,11.49,12.1-.88,3.45-1.78,6.21.29,9.4s5.51,4.75,8.67,6.38a213.66,213.66,0,0,0,31.1,13c2.08.68,4.72,1.22,6.52,2.53,2.88,2.1,1,4.54.11,7.17a6.21,6.21,0,0,0-.16,3.74c-5.83.67-11.77,2.34-14.85,7.73a10.65,10.65,0,0,0-1.13,8.61c1.38,4.11,6.1,6,4,11-3.08,7.27-13.39,7.66-16.71,15.14a15.09,15.09,0,0,0,1.74,14.86c-7,3-14.66.52-21.89-1.08-6.6-1.46-13.16-2.36-19.67-.06-1.11.4-.95,1.86-.28,2.56,9.07,9.4,22.94,6.65,32.78,14.16,2.72,2.07,5,4.94,5.12,8.52s-2.13,6.65-2.24,10.16c-.15,4.8,3.12,8.59,6.08,12,4.89,5.65,7.77,11.7,2,18.12-5.17,5.73-12.43,7.13-19.76,7.83-6.69.63-14.13.73-20.19,4.05a8.45,8.45,0,0,0-4.05,4.1c-1.36,3.54.64,6.57-3.24,9-3.41,2.15-8.22,3-12.06,4q-6,1.6-12.1,2.76a180.84,180.84,0,0,1-24.64,2.93c-4.69.25-10.34.64-14.06,3.92a8,8,0,0,0-2.74,5.06c-.49,4.17,1.12,7.53-3.21,10.26-6,3.76-14.15,4.83-21,5.79s-14,1.36-21.08,1.65c-4.41.19-8.84.33-13.27.56a2.54,2.54,0,0,0-2.56-1c-5.55,1.35-10.25-1.73-15.24-3.66A39.27,39.27,0,0,0,89.59,570c-10.1,0-20.33,2.43-30.28,0,.19-1.76,1.82-3.87,2.06-5.39a6.64,6.64,0,0,0-.66-4.11c-1.42-2.84-4.64-4.46-7.53-5.38-5-1.56-10.47-1.67-15.6-2.31l-9.49-1.18c-3.37-.42-8.47.16-8.16-5,.12-2.06,1.37-3.69,1-5.92A9.79,9.79,0,0,0,19,536.52c-2.12-2.78-5.43-4.56-8.62-5.79-10.66-4.13-23.29-5.34-34.6-6.22-3.25-.26-2.31,4.06.43,4.27a170.73,170.73,0,0,1,28.42,4.5c3.45.87,7.5,1.84,10,4.55,3.54,3.8-.49,6.71.15,10.81.73,4.72,5.93,6.14,9.94,6.77,8.82,1.38,18.45,1.14,27.05,3.54,2.08.59,4.72,1.37,4.9,4.13.09,1.45-1.55,3.2-1.93,4.6-.5,1.8-.54,3.78.94,5.2,1.82,1.72,5.9,1.92,8.24,2.19a60.87,60.87,0,0,0,10.63.14c8.44-.46,17.21-2.14,25.52.19a69.63,69.63,0,0,1,7.6,2.91,99.34,99.34,0,0,0-14,2.74c-6.21,1.73-13.72,4.09-18.6,8.49s-2.41,9.76,1.58,13.8c3.18,3.21,6.57,6.25,9.85,9.37l5.75,5.46a17.33,17.33,0,0,1,2.15,2c.94,1.29,2.38,4.1,1.56,5.77-.58,1.18-4.32,2.09-5.44,2.53l-6.07,2.42-13.88,5.52c-2.57,1,1,4.34,3.07,3.52,7.67-3.05,15.62-5.76,23.12-9.21,4.43-2,6.38-5.6,3.25-9.93-2.26-3.13-5.66-5.7-8.45-8.35-3.35-3.18-6.72-6.35-10.06-9.55-1.31-1.26-3.4-2.91-4.06-4.69-1.23-3.32,1-5.56,3.57-7.15a54,54,0,0,1,10-4.7c27.67-10.12,58.77-1.36,86.27-12.27,5.54-2.19,8.37-5.34,8-11.35-.62-8.88,9.4-8.77,15.9-9.15a177,177,0,0,0,25.54-3.39c7.13-1.49,15.51-2.94,22-6.3a8.46,8.46,0,0,0,4.53-4.65c1.34-4-.41-6.94,4.23-9.24,7.26-3.59,16.26-2.62,24.05-4,10-1.73,23.63-10.42,19-22.43-2.23-5.77-9-9.36-10.4-15.36-.93-4,1.73-7.53,2-11.41a12.8,12.8,0,0,0-1.91-7.4c-3.05-5.07-8.73-8.3-14.2-10.14-6.81-2.3-14.8-2.49-20.69-6.81,13.53-2.91,27.65,8.54,40.81,1a1.56,1.56,0,0,0,.28-2.55c-5.06-5.37-3.91-13.44,1.89-17.71,4.75-3.49,11-5.26,13-11.47s-4.48-8.37-4.63-13.91c-.22-7.9,8.3-10,15-10.67,3.52,1.87,8.21,2.33,12,3.16q9,1.95,18,3.45a374.47,374.47,0,0,0,69,4.93c5.92-.13,17.69-1.22,17.95-9.39.12-3.76-2.8-6.3-5.47-8.45-4.84-3.9-9.76-7.69-14.66-11.5a55.7,55.7,0,0,1,51.94,4.5c7.32,4.79,13.75,9.5,22.56,11.06s18,1.44,26.86,1.24a1.91,1.91,0,0,0,1.16.87c3.13.2,6.26.45,9.38.81s7.23.25,9.93,1.65c7.09,3.66-5.86,10.17-9,11.26-.46.15-.14,1.21,0,1.45,4,10.67,11.59,18.52,20.78,25,5.22,3.66,10.73,6.87,16.14,10.24,2.59,1.61,5.18,3.25,7.68,5,2.92,2,3.95,2.52,5.1,6,1.22,3.76.36,5.44-2.48,8.24-6.92,6.81-28.39,7.58-24,22.24,1.53,5.08,5.59,6.49,8.84,10.07,6.19,6.82-9.09,13.83-14,16.44-13.5,7.25-28.26,12-41.38,19.95-4.89,3-8.71,6.7-7.25,12.85a18.4,18.4,0,0,0,8.36,11.16c6.53,4,15,5.45,22.26,7.37,8.41,2.22,16.9,4,25.39,5.85,3.71.81,7.51,1.71,10.83,3.61,3,1.73,5.37,4.4,8.4,6.12,6.74,3.84,16.42,2.68,23.9,2.88q30.51.79,61-.84c10.16-.55,20.3-1.37,30.43-2.25,3.56-.3,9.44-1.19,12.6,1.07,3.83,2.74,1.8,9-2.8,8.75-1.24-.07.72,4.21,2,4.41,22.12,3.45,44.56,6.09,66.44,10.88a150.13,150.13,0,0,1,30.35,10.14c7.71,3.51,16.57,7.33,24.61,2.72,1.1-.63-1.38-5-2.5-4.33-9.3,5.32-19.45-.9-28.1-4.69a143.15,143.15,0,0,0-28.15-8.63c-19-4-38.28-6.54-57.46-9.41a9.45,9.45,0,0,0,.7-4.47,12,12,0,0,0-5.86-9.2c-6.29-3.65-14.87-1.52-21.67-.95q-13.74,1.14-27.51,1.79-28,1.34-56.09.59c-8.92-.23-19.19,1-26.47-5-5.51-4.51-11.29-6.48-18.21-7.92-8.61-1.81-17.19-3.74-25.69-6-4.2-1.13-8.45-2.25-12.58-3.61-2.16-.7-4.63-1.35-6.5-2.65-1-.7-5-6.24-5.09-7.59-.08-1.66,1.15-3.37,2.17-4.52,4.76-5.39,13.41-8.52,19.81-11.45,7.35-3.38,14.85-6.42,22.11-10,8-3.94,27-11.75,18.74-23.23a20.45,20.45,0,0,0-4.44-4.22c-1.76-1.34-2.74-2-3.79-4-1.44-2.77-.4-5,1.42-7.41,4.87-6.37,13.67-6.32,19.88-10.74,4.81-3.42,7.4-9.11,4.85-14.69s-8.73-9.06-13.71-12.28c-12.82-8.28-29.76-15.71-36-30.61,6.72-2.47,13.91-7.69,9.25-15.57a9.15,9.15,0,0,0-5.11-4.2c4.81-.45,9.62-1,14.4-1.76,5.91-.9,14.53-1.47,17.22-7.94,4.17-10.05-11-16.19-13.45-24.36-.26-.87-.81-2.61-.23-3.41.84-1.15,5-2,6.41-2.53L578,349l14.23-5.81c3.79-1.55,8-2.85,11.3-5.41,5.52-4.33,5.65-10.91,5.15-17.35-.31-3.93-.95-8.05.09-11.93,1.13-4.26,4.57-7,7.16-10.36,4.4-5.67,3.76-10.81,1.56-15.85a33,33,0,0,0,9.79,3.85c9.88,2.46,19.8,4.77,29.71,7.12-2.05,3.13-.59,7.59,2.21,10.49a20.7,20.7,0,0,0,6.9,4.52c2.95,1.27,7.76,2.08,8.71,5.84a4.41,4.41,0,0,1-2.36,5.28c-1.65.75,1.81,3.29,2.48,3.52,9,3.07,18.38,3.4,27.83,3.53q15.3.21,30.61.38c9.08.11,17.6.15,26.13,3.61,5.81,2.35,11.88,3.4,13.32-4.23,1-5.11,1.69-7.36,7.3-8.44A56,56,0,0,1,794,317c8.45.51,16.71,2.56,24.82,4.87,16.34,4.66,32.65,10.59,49.89,9.69,2-.11-1.16-3.71-2.55-3.64-17.53.92-34-5.31-50.6-9.95-7.88-2.2-15.93-4.12-24.11-4.61a62.17,62.17,0,0,0-9.84.15c-3.17.31-8,.42-10.45,2.82-2.27,2.22-1.79,5.55-2.56,8.37-1.67,6.11-7.4,3.64-11.58,1.91-7.77-3.21-16-3.31-24.27-3.41l-28.7-.35c-8.7-.11-17.43-.05-25.88-2,1.59-2.68.52-6.6-1.55-9.14a18.43,18.43,0,0,0-7.43-5c-1.8-.76-4-1.26-5.64-2.31-4.27-2.76-4.85-7.71-.6-9.85,1.57-.78-1.71-3.33-2.48-3.52l-23.24-5.55c-5.79-1.39-19-2.32-22-8.56a4,4,0,0,0-1.22-1.22c-3.24-5.59-6.54-11.31-5.18-17.75,4-18.77,28.59-24.63,44.5-27.1,21.13-3.28,42.8-2.56,63.63-7.81,6.78-1.71,16.39-3.77,17.81-12,1.25-7.23-4.47-14.29-9.62-19.12,16.31-9.92,16.26-32.39,1.59-43.31,1.64-.62,3.26-1.35,4.74-1.83,2.78-.9,7.37-2.38,6.94-6.13,0-.11-.65-2.13-.71-1.84.33-1.58,3.58-1.31,4.72-1.51,1.43-.26,2.69-.14,3.79-1.29,1.46-1.52.76-2.12,3.36-2.57,1.73-.31,3.42-.59,5.11-.92-1.2,3.18-2.34,6.24.66,9.53,3.44,3.77,9.35,5.06,14.13,6A89.06,89.06,0,0,0,789,149.14c7.81-.28,15.59-1.17,23.4-1.36,9.37-.23,18.89-.15,25.07,7.68,4.25,5.38,10.15,5.69,16.56,6.47l29.27,3.6C885.16,165.76,888.15,164.73,884.71,164.31Z"/></g><rect class="cls-5" x="-6.88" y="33.55" width="857.27" height="17.17"/><rect class="cls-6" x="-6.88" y="-1.5" width="857.27" height="35.05"/><rect class="cls-7" x="-6.88" y="50.72" width="857.27" height="32.11"/><rect class="cls-5" x="71.08" y="50.72" width="4.59" height="32.11"/><rect class="cls-5" x="158.17" y="50.72" width="4.59" height="32.11"/><rect class="cls-5" x="245.27" y="50.72" width="4.59" height="32.11"/><rect class="cls-5" x="332.37" y="50.72" width="4.59" height="32.11"/><rect class="cls-5" x="419.46" y="50.72" width="4.59" height="32.11"/><rect class="cls-5" x="506.56" y="50.72" width="4.59" height="32.11"/><rect class="cls-5" x="593.66" y="50.72" width="4.59" height="32.11"/><rect class="cls-5" x="680.75" y="50.72" width="4.59" height="32.11"/><rect class="cls-5" x="767.85" y="50.72" width="4.59" height="32.11"/><rect class="cls-5" x="420.73" y="-353.32" width="2.06" height="857.27" transform="translate(497.07 -346.44) rotate(90)"/><rect class="cls-8" x="-6.88" y="50.72" width="857.27" height="12.54"/><rect class="cls-6" x="32.78" y="33.55" width="5.09" height="17.17"/><rect class="cls-6" x="129.39" y="33.55" width="5.09" height="17.17"/><rect class="cls-6" x="226" y="33.55" width="5.09" height="17.17"/><rect class="cls-6" x="322.6" y="33.55" width="5.09" height="17.17"/><rect class="cls-6" x="419.21" y="33.55" width="5.09" height="17.17"/><rect class="cls-6" x="515.82" y="33.55" width="5.09" height="17.17"/><rect class="cls-6" x="612.43" y="33.55" width="5.09" height="17.17"/><rect class="cls-6" x="709.04" y="33.55" width="5.09" height="17.17"/><rect class="cls-6" x="805.65" y="33.55" width="5.09" height="17.17"/><polygon class="cls-9" points="37.87 33.55 32.78 33.55 97.51 -1.5 101.75 -1.5 37.87 33.55"/><polygon class="cls-9" points="134.47 33.55 129.39 33.55 178.04 -1.5 182.28 -1.5 134.47 33.55"/><polygon class="cls-9" points="231.08 33.55 226 33.55 258.57 -1.5 262.81 -1.5 231.08 33.55"/><polygon class="cls-9" points="327.69 33.55 322.61 33.55 339.11 -1.5 343.35 -1.5 327.69 33.55"/><polygon class="cls-9" points="424.3 33.55 419.21 33.55 419.64 -1.5 423.88 -1.5 424.3 33.55"/><polygon class="cls-9" points="520.91 33.55 515.82 33.55 500.17 -1.5 504.41 -1.5 520.91 33.55"/><polygon class="cls-9" points="617.52 33.55 612.43 33.55 580.7 -1.5 584.94 -1.5 617.52 33.55"/><polygon class="cls-9" points="714.13 33.55 709.04 33.55 661.23 -1.5 665.47 -1.5 714.13 33.55"/><polygon class="cls-9" points="810.74 33.55 805.65 33.55 741.76 -1.5 746.01 -1.5 810.74 33.55"/><rect class="cls-9" x="-6.88" y="12.28" width="857.27" height="1.49"/><ellipse class="cls-10" cx="788.61" cy="226.51" rx="71.85" ry="31.09"/><ellipse class="cls-11" cx="788.61" cy="224.74" rx="64.55" ry="27.93"/><path class="cls-12" d="M818.5,198.17a26.72,26.72,0,0,0-8.06-2.92,97.54,97.54,0,0,0-40.44-.57,27.69,27.69,0,0,0-8.85,3c-2.59,1.56-4.55,4-4.5,6.6a5.82,5.82,0,0,0,5.5,5.5,101.92,101.92,0,0,1,53.33,0c3-1,7.32-3.13,7.25-5.53S820.86,199.62,818.5,198.17Z"/><path class="cls-13" d="M856.82,208.44c-2.25-17-31.83-30.47-68-30.47s-65.77,13.47-68,30.49c-.09.68-.13,8.43-.13,9.12,0,18,30.5,32.56,68.13,32.56S857,235.56,857,217.58C857,216.88,856.91,209.13,856.82,208.44Zm-41.34,1.32a86.55,86.55,0,0,1-53.33,0,5.82,5.82,0,0,1-5.5-5.5c0-2.61,1.91-5,4.5-6.6a27.69,27.69,0,0,1,8.85-3,97.54,97.54,0,0,1,40.44.57,26.72,26.72,0,0,1,8.06,2.92c2.36,1.45,4.17,3.66,4.23,6.06S818.5,208.76,815.48,209.76Z"/><path class="cls-14" d="M821.42,200.76a15.07,15.07,0,0,0-2.48,1.23c-2.79,1.77-4.54,4.72-4.32,7.53.29.08.58.15.86.24a18.21,18.21,0,0,0,5.8-3,3.39,3.39,0,0,0,1.45-2.52A6.09,6.09,0,0,0,821.42,200.76Z"/><path class="cls-14" d="M758.62,202a12.47,12.47,0,0,0-1.19-.66,5.8,5.8,0,0,0-.78,2.93,5.3,5.3,0,0,0,.55,2.2,5.83,5.83,0,0,0,4.95,3.3l.79-.22C763.18,206.73,761.42,203.77,758.62,202Z"/><path class="cls-14" d="M770.21,207.87a94.47,94.47,0,0,1,9.75-1.29,25.15,25.15,0,0,0,2.34-13.52,97.16,97.16,0,0,0-12.3,1.62c-.72.15-1.44.3-2.16.47A13.72,13.72,0,0,1,770.21,207.87Z"/><path class="cls-14" d="M797.61,206.57q5.05.42,9.74,1.28a13.74,13.74,0,0,1,2.4-12.74,95.77,95.77,0,0,0-14.49-2.06A25.06,25.06,0,0,0,797.61,206.57Z"/><path class="cls-9" d="M795.54,191.44c-.12.53-.2,1.07-.28,1.61a95.77,95.77,0,0,1,14.49,2.06,17.36,17.36,0,0,1,2-2.23c4.49-4.24,11.36-6.61,18.24-6.88a34.2,34.2,0,0,1,3.79.06,105.44,105.44,0,0,0-27.41-7C801.13,181.84,796.62,186.73,795.54,191.44Z"/><path class="cls-9" d="M747.59,186c6.89.27,13.75,2.64,18.24,6.88a17.11,17.11,0,0,1,2,2.27c.72-.17,1.44-.32,2.16-.47a97.16,97.16,0,0,1,12.3-1.62c-.07-.54-.16-1.09-.28-1.62-1.08-4.7-5.58-9.6-10.79-12.38a106.39,106.39,0,0,0-27.35,7A35.29,35.29,0,0,1,747.59,186Z"/><path class="cls-9" d="M809.93,231.41c-.38-7.61-2.81-14.75-6.32-18.64a91.8,91.8,0,0,1-29.65,0c-3.51,3.89-5.94,11-6.33,18.65a44.28,44.28,0,0,0,.19,6.72,112.94,112.94,0,0,0,41.89.32A43.47,43.47,0,0,0,809.93,231.41Z"/><path class="cls-14" d="M787.36,240.23a113.75,113.75,0,0,1-19.54-2.1,38.24,38.24,0,0,0,2.66,10.81,140.72,140.72,0,0,0,36.6,0,37.93,37.93,0,0,0,2.63-10.5A114.29,114.29,0,0,1,787.36,240.23Z"/><path class="cls-14" d="M834.39,241.78c10.43-4.48,17.94-10.49,21-17.28a18,18,0,0,0,0-5.68,94.31,94.31,0,0,1-16.11,10A21.17,21.17,0,0,1,834.39,241.78Z"/><path class="cls-9" d="M832.3,199.65a23.51,23.51,0,0,0-10.88,1.11,6.09,6.09,0,0,1,1.31,3.47,3.39,3.39,0,0,1-1.45,2.52c8.18,2.75,14.71,8.65,17.07,15.58a18.93,18.93,0,0,1,1,6.48,94.31,94.31,0,0,0,16.11-10A19.67,19.67,0,0,0,851,209C846.71,204,839.76,200.5,832.3,199.65Z"/><path class="cls-9" d="M757.2,206.46a5.3,5.3,0,0,1-.55-2.2,5.8,5.8,0,0,1,.78-2.93,22.17,22.17,0,0,0-12.17-1.68c-7.46.85-14.4,4.34-18.65,9.39a19.92,19.92,0,0,0-4.32,8.79,98.67,98.67,0,0,0,16,10.14,18.58,18.58,0,0,1,1-5.64C741.66,215.14,748.59,209.07,757.2,206.46Z"/><path class="cls-14" d="M722.11,224.26c3,6.87,10.53,13,21,17.48a21.08,21.08,0,0,1-4.9-13.77,98.67,98.67,0,0,1-16-10.14A18.28,18.28,0,0,0,722.11,224.26Z"/><path class="cls-10" d="M328.48,100.58c0,4-11,7.22-24.53,7.22s-24.53-3.23-24.53-7.22,11-7.23,24.53-7.23S328.48,96.59,328.48,100.58Z"/><path class="cls-11" d="M324.61,100.17c0,3.36-9.25,6.08-20.66,6.08s-20.66-2.72-20.66-6.08,9.25-6.09,20.66-6.09S324.61,96.81,324.61,100.17Z"/><circle class="cls-15" cx="303.95" cy="72.94" r="29.71" transform="translate(-4.06 126.17) rotate(-23.3)"/><path class="cls-16" d="M324.45,51.44a29.71,29.71,0,0,1-47.82,33.18,29.71,29.71,0,1,0,47.82-33.18Z"/><path class="cls-17" d="M283.1,62.34a16.54,16.54,0,0,0-2.77,7.16,8.83,8.83,0,0,0,2.3,7.13c2.43,2.38,6.18,2.68,9.56,2.42a40.23,40.23,0,0,0,14.57-4,23.2,23.2,0,0,0,9.55-7.94c4.67-7.38,1.33-14.81-6.29-18-5.76-2.42-13.19,1.18-18,4.34A30.09,30.09,0,0,0,283.1,62.34Z"/><path class="cls-9" d="M297.53,48.27a10.13,10.13,0,0,0-4.68,4.62A5.42,5.42,0,0,0,293.91,59c1.53,1.35,3.76,1.47,5.8,1.4a17.09,17.09,0,0,0,7.81-1.75c2.35-1.33,4.19-3.84,4-6.53a4.8,4.8,0,0,0-2.9-4.27A12.27,12.27,0,0,0,303,46.74,13.24,13.24,0,0,0,297.53,48.27Z"/><path class="cls-9" d="M281.15,62.26a3.72,3.72,0,0,0,.08,3.51,3.29,3.29,0,0,0,3.1,1.35,4.91,4.91,0,0,0,3.05-1.69A5.28,5.28,0,0,0,288.8,62a3.83,3.83,0,0,0-1.63-3.23C284.46,57,282.12,60.06,281.15,62.26Z"/><path class="cls-10" d="M59.2,143.36c0,3.14-8.62,5.68-19.26,5.68s-19.27-2.54-19.27-5.68,8.63-5.67,19.27-5.67S59.2,140.23,59.2,143.36Z"/><path class="cls-11" d="M56.16,143c0,2.64-7.26,4.78-16.22,4.78S23.72,145.68,23.72,143s7.26-4.78,16.22-4.78S56.16,140.4,56.16,143Z"/><circle class="cls-18" cx="39.94" cy="121.98" r="23.85" transform="translate(-74.55 63.97) rotate(-45)"/><path class="cls-19" d="M56.39,104.72A23.85,23.85,0,0,1,18,131.36a23.85,23.85,0,1,0,38.38-26.64Z"/><path class="cls-20" d="M23.2,113.47A13.36,13.36,0,0,0,21,119.22a7.08,7.08,0,0,0,1.85,5.72c1.94,1.91,5,2.15,7.67,1.94a31.86,31.86,0,0,0,11.7-3.22,18.6,18.6,0,0,0,7.66-6.37c3.75-5.92,1.07-11.89-5-14.45-4.63-2-10.59,1-14.47,3.48A24.1,24.1,0,0,0,23.2,113.47Z"/><path class="cls-21" d="M34.79,102.17A8.17,8.17,0,0,0,31,105.89a4.34,4.34,0,0,0,.85,4.91c1.23,1.09,3,1.18,4.65,1.13a13.63,13.63,0,0,0,6.28-1.41A5.92,5.92,0,0,0,46,105.28a3.86,3.86,0,0,0-2.32-3.42,9.67,9.67,0,0,0-4.52-.91A10.79,10.79,0,0,0,34.79,102.17Z"/><path class="cls-21" d="M21.64,113.41a3,3,0,0,0,.06,2.81,2.66,2.66,0,0,0,2.49,1.09A4,4,0,0,0,26.64,116a4.25,4.25,0,0,0,1.14-2.73,3.05,3.05,0,0,0-1.31-2.59C24.3,109.21,22.42,111.64,21.64,113.41Z"/><path class="cls-10" d="M665.41,274.49c0,3-8.29,5.45-18.5,5.45s-18.5-2.44-18.5-5.45,8.28-5.45,18.5-5.45S665.41,271.48,665.41,274.49Z"/><path class="cls-11" d="M662.49,274.18c0,2.53-7,4.59-15.58,4.59s-15.58-2.06-15.58-4.59,7-4.59,15.58-4.59S662.49,271.64,662.49,274.18Z"/><circle class="cls-22" cx="646.91" cy="258.99" r="18.8"/><path class="cls-23" d="M659.88,245.39a18.8,18.8,0,0,1-30.26,21,18.8,18.8,0,1,0,30.26-21Z"/><path class="cls-24" d="M633.71,252.29a10.42,10.42,0,0,0-1.75,4.53,5.58,5.58,0,0,0,1.46,4.51c1.53,1.5,3.91,1.7,6.05,1.53a25.42,25.42,0,0,0,9.22-2.54,14.64,14.64,0,0,0,6-5c3-4.67.84-9.37-4-11.4-3.65-1.53-8.35.75-11.41,2.74A19.07,19.07,0,0,0,633.71,252.29Z"/><path class="cls-25" d="M642.84,243.38a6.42,6.42,0,0,0-3,2.93,3.42,3.42,0,0,0,.67,3.87,5.18,5.18,0,0,0,3.67.89,10.75,10.75,0,0,0,4.95-1.11,4.66,4.66,0,0,0,2.54-4.13,3,3,0,0,0-1.83-2.7,7.7,7.7,0,0,0-3.57-.72A8.57,8.57,0,0,0,642.84,243.38Z"/><path class="cls-25" d="M632.48,252.24a2.36,2.36,0,0,0,0,2.22,2.09,2.09,0,0,0,2,.85,3.1,3.1,0,0,0,1.93-1.07,3.36,3.36,0,0,0,.9-2.16,2.42,2.42,0,0,0-1-2C634.57,248.93,633.1,250.84,632.48,252.24Z"/><path class="cls-26" d="M548.57,137c-5,0-10.44.23-14,3.7a1.65,1.65,0,0,0-.59,1.05c0,.52.44.93.85,1.26l5.1,4.09L533.61,150a3.14,3.14,0,0,0-1.83,1.52,2.65,2.65,0,0,0,.66,2.38c2.89,3.78,8.26,4.38,13,4.6q10.11.47,20.23.52c5.25,0,10.69-.06,15.42-2.32a3.09,3.09,0,0,0,1.58-1.3c.71-1.43-.79-3-2.23-3.68-8.12-4.06-18.15-.38-26.84-3-1.5-.45-3.25-2-2.32-3.25a2.63,2.63,0,0,1,1.39-.8,57.61,57.61,0,0,1,12.83-2.38c2.54-.2,5.53.37,3.77-2.54C566.15,134.63,553.21,137,548.57,137Z"/><path class="cls-26" d="M438.78,85.21a2.66,2.66,0,0,0-2,1.08c-.5.94.24,2.07,1.07,2.73,2.13,1.68,5,2.08,7.67,2.37a184.67,184.67,0,0,0,28.8.79c2-.11,4.64-.8,4.74-2.82A3.33,3.33,0,0,0,477.9,87c-3-3.14-8-3.11-12.39-2.86C456.72,84.62,447.42,83.65,438.78,85.21Z"/><path class="cls-26" d="M277.6,115.42a6.31,6.31,0,0,1,3.09.89,2.28,2.28,0,0,1,.87,2.84,3.42,3.42,0,0,1-1.89,1.24l-7.52,2.74a2.63,2.63,0,0,0-1.69,1.22c-.47,1.17.84,2.25,2,2.73,6.89,2.82,14.83,1.07,22,2.9a9.68,9.68,0,0,1,5,2.65,4.58,4.58,0,0,1,.75,5.29c-1.09,1.74-3.4,2.17-5.43,2.43-17.29,2.24-34.83,4.14-52.12,1.92a12.47,12.47,0,0,1-5.48-1.65c-1.6-1.08-2.7-3.12-2.09-5a5.42,5.42,0,0,1,2.9-2.88c6.79-3.42,15.85-.49,22-5-.93-2.45-4-3.27-6.63-3.17s-5.33.76-7.8-.1-4.43-4.18-2.4-6.28c1.74-1.78,7.86-1.88,10.19-2.24A96.58,96.58,0,0,1,277.6,115.42Z"/><path class="cls-26" d="M218,86.2c3.69-.06,7.75,0,10.52,2.45a2,2,0,0,1,.84,1.52c-.05.76-.8,1.25-1.51,1.53-4.56,1.83-10-.2-14.51,1.78-2.58,1.14-4.5,3.46-7.1,4.54-2.38,1-5.06.82-7.63.63l-11.06-.78a8.27,8.27,0,0,1-4.29-1.11c-6.71-4.77,3.62-10.49,8-10.42C200.11,86.49,209,86.36,218,86.2Z"/><path class="cls-26" d="M24.84,158.42c2.95-.17,6.05-.32,8.71,1s4.59,4.56,3.38,7.26c-.88,2-3.11,3-5.24,3.25s-4.3-.06-6.45,0c-3.09.13-6.08,1.11-9.15,1.47-5,.57-13.43-2.89-9.84-9.34C9,157.13,20.22,158.7,24.84,158.42Z"/><g class="cls-3"><ellipse class="cls-10" cx="0.25" cy="292.92" rx="21.69" ry="6.39"/><ellipse class="cls-11" cx="0.25" cy="292.55" rx="18.26" ry="5.38"/><circle class="cls-13" cx="0.25" cy="269.38" r="25.5" transform="translate(-251.94 174.71) rotate(-69.37)"/><path class="cls-12" d="M17.84,250.93a25.41,25.41,0,0,1,2.06,10,25.5,25.5,0,0,1-25.5,25.5,25.4,25.4,0,0,1-17.59-7,25.5,25.5,0,0,0,48.94-10A25.41,25.41,0,0,0,17.84,250.93Z"/><path class="cls-27" d="M-17.64,260.29A14.14,14.14,0,0,0-20,266.43a7.56,7.56,0,0,0,2,6.12c2.08,2,5.3,2.3,8.2,2.07a34.32,34.32,0,0,0,12.51-3.44,19.86,19.86,0,0,0,8.19-6.81c4-6.33,1.14-12.71-5.4-15.46-4.94-2.07-11.32,1-15.47,3.72A25.8,25.8,0,0,0-17.64,260.29Z"/><path class="cls-28" d="M-5.26,248.21a8.67,8.67,0,0,0-4,4,4.65,4.65,0,0,0,.92,5.26c1.31,1.16,3.22,1.26,5,1.2a14.5,14.5,0,0,0,6.71-1.5,6.32,6.32,0,0,0,3.45-5.6,4.11,4.11,0,0,0-2.49-3.66,10.57,10.57,0,0,0-4.83-1A11.43,11.43,0,0,0-5.26,248.21Z"/><ellipse class="cls-10" cx="52.84" cy="266.53" rx="91.45" ry="39.56"/><ellipse class="cls-11" cx="52.84" cy="264.28" rx="82.16" ry="35.55"/><path class="cls-12" d="M90.88,230.46a34.08,34.08,0,0,0-10.27-3.71A124.33,124.33,0,0,0,29.14,226c-4,.8-8,1.82-11.27,3.8s-5.78,5.07-5.72,8.39a7.39,7.39,0,0,0,7,7,123.77,123.77,0,0,1,33.94-4.51A123.77,123.77,0,0,1,87,245.21c3.84-1.26,9.31-4,9.23-7S93.88,232.31,90.88,230.46Z"/><path class="cls-13" d="M139.64,243.54c-2.85-21.65-40.51-38.79-86.55-38.79s-83.71,17.15-86.55,38.81c-.12.86-.18,10.73-.18,11.61,0,22.89,38.83,41.44,86.73,41.44s86.73-18.55,86.73-41.44C139.82,254.28,139.76,244.41,139.64,243.54ZM87,245.21a103,103,0,0,1-33.94,5.36,103,103,0,0,1-33.94-5.36,7.39,7.39,0,0,1-7-7c-.06-3.32,2.44-6.41,5.72-8.39s7.3-3,11.27-3.8a124.33,124.33,0,0,1,51.47.73,34.08,34.08,0,0,1,10.27,3.71c3,1.85,5.3,4.66,5.38,7.71S90.87,244,87,245.21Z"/><path class="cls-7" d="M94.59,233.77a18.11,18.11,0,0,0-3.15,1.56c-3.56,2.25-5.79,6-5.51,9.58l1.1.3a23.13,23.13,0,0,0,7.39-3.83,4.38,4.38,0,0,0,1.84-3.21A7.75,7.75,0,0,0,94.59,233.77Z"/><path class="cls-7" d="M14.66,235.33a15.94,15.94,0,0,0-1.52-.84,7.41,7.41,0,0,0-1,3.72,6.67,6.67,0,0,0,.71,2.8,7.41,7.41,0,0,0,6.29,4.2l1-.28C20.46,241.36,18.23,237.59,14.66,235.33Z"/><path class="cls-7" d="M29.41,242.81a124.38,124.38,0,0,1,12.41-1.65,32,32,0,0,0,3-17.2A124,124,0,0,0,29.14,226c-.91.19-1.83.38-2.74.6C30,231.45,31.29,237.41,29.41,242.81Z"/><path class="cls-7" d="M64.28,241.16a124.25,124.25,0,0,1,12.4,1.63c-1.88-5.41-.56-11.39,3.06-16.23a123.32,123.32,0,0,0-18.44-2.62A31.93,31.93,0,0,0,64.28,241.16Z"/><path class="cls-5" d="M61.66,221.9a20.25,20.25,0,0,0-.36,2,123.32,123.32,0,0,1,18.44,2.62,22.3,22.3,0,0,1,2.52-2.83c5.72-5.39,14.45-8.42,23.22-8.75a45.56,45.56,0,0,1,4.82.07,134.6,134.6,0,0,0-34.9-8.91C68.76,209.67,63,215.91,61.66,221.9Z"/><path class="cls-5" d="M.62,215c8.77.33,17.5,3.36,23.22,8.75a22.44,22.44,0,0,1,2.56,2.89c.91-.22,1.83-.41,2.74-.6A124,124,0,0,1,44.8,224a20.64,20.64,0,0,0-.36-2.06c-1.37-6-7.1-12.22-13.73-15.76A135.39,135.39,0,0,0-4.11,215,46.65,46.65,0,0,1,.62,215Z"/><path class="cls-5" d="M80,272.77c-.49-9.69-3.58-18.77-8-23.72a115.18,115.18,0,0,1-18.83,1.52A113.81,113.81,0,0,1,34.19,249c-4.47,4.95-7.57,14-8.06,23.74a56.67,56.67,0,0,0,.24,8.55,143.7,143.7,0,0,0,53.32.42A57,57,0,0,0,80,272.77Z"/><path class="cls-7" d="M51.24,284a145.25,145.25,0,0,1-24.87-2.68,48.35,48.35,0,0,0,3.39,13.77,179.7,179.7,0,0,0,46.57,0,47.83,47.83,0,0,0,3.36-13.36A145.36,145.36,0,0,1,51.24,284Z"/><path class="cls-7" d="M111.1,286c13.27-5.71,22.83-13.35,26.75-22a23.07,23.07,0,0,0,.05-7.23,121.07,121.07,0,0,1-20.51,12.71A27,27,0,0,1,111.1,286Z"/><path class="cls-5" d="M108.44,232.35a29.69,29.69,0,0,0-13.85,1.42,7.75,7.75,0,0,1,1.67,4.4,4.38,4.38,0,0,1-1.84,3.21c10.41,3.51,18.72,11,21.71,19.84a23.73,23.73,0,0,1,1.26,8.24,121.07,121.07,0,0,0,20.51-12.71,25.11,25.11,0,0,0-5.72-12.45C126.78,237.88,117.94,233.43,108.44,232.35Z"/><path class="cls-5" d="M12.86,241a6.67,6.67,0,0,1-.71-2.8,7.41,7.41,0,0,1,1-3.72c-4.5-2.25-10.19-2.75-15.48-2.14-9.5,1.08-18.34,5.53-23.74,12a25.22,25.22,0,0,0-5.49,11.18,124,124,0,0,0,20.29,12.91A23.6,23.6,0,0,1-10,261.22C-6.93,252.06,1.9,244.33,12.86,241Z"/><circle class="cls-18" cx="847.5" cy="313.26" r="29.6" transform="translate(345.63 1064.6) rotate(-76.54)"/><path class="cls-20" d="M826.73,302.71a16.41,16.41,0,0,0-2.76,7.13,8.8,8.8,0,0,0,2.29,7.1c2.42,2.37,6.16,2.67,9.53,2.41a39.89,39.89,0,0,0,14.51-4,23,23,0,0,0,9.51-7.91c4.66-7.35,1.33-14.76-6.26-17.95-5.74-2.41-13.14,1.18-18,4.32A29.8,29.8,0,0,0,826.73,302.71Z"/><path class="cls-21" d="M841.1,288.68a10.15,10.15,0,0,0-4.66,4.61,5.37,5.37,0,0,0,1.06,6.1c1.52,1.35,3.75,1.47,5.78,1.4a17,17,0,0,0,7.78-1.74c2.34-1.32,4.18-3.83,4-6.51a4.76,4.76,0,0,0-2.88-4.25,12.22,12.22,0,0,0-5.61-1.13A13.33,13.33,0,0,0,841.1,288.68Z"/></g></g></svg>