<svg xmlns="http://www.w3.org/2000/svg" width="291.01" height="215.46" viewBox="0 0 291.01 215.46"><defs><style>.cls-1{fill:#09a6f0;}.cls-2{fill:#017bd7;}.cls-3{fill:#9d79da;}.cls-18,.cls-4{fill:#fff;}.cls-5{fill:#7957bb;}.cls-6{fill:#0eb0fd;}.cls-7{fill:#acaae2;opacity:0.5;}.cls-8{fill:#e3e5fd;}.cls-11,.cls-16,.cls-9{fill:#39933c;}.cls-11,.cls-9{stroke:#000;stroke-miterlimit:10;}.cls-10,.cls-17{fill:#166815;}.cls-11{stroke-width:0.75px;}.cls-12{fill:#a4bd47;}.cls-13{fill:#fdd691;}.cls-14{fill:#fbb52d;}.cls-15{fill:#422b39;}.cls-16,.cls-17,.cls-18,.cls-19{fill-rule:evenodd;}.cls-19{fill:#000100;}</style></defs><g id="Layer_2" data-name="Layer 2"><g id="PRINT_1" data-name="PRINT 1"><ellipse class="cls-1" cx="131.15" cy="182.87" rx="84.96" ry="16.77"/><path class="cls-2" d="M197.69,181.28c0,6.41-29.16,11.6-65.13,11.6s-65.14-5.19-65.14-11.6,29.17-11.6,65.14-11.6S197.69,174.87,197.69,181.28Z"/><ellipse class="cls-1" cx="242.79" cy="175.59" rx="48.21" ry="13.74"/><ellipse class="cls-2" cx="242.79" cy="174.8" rx="40.6" ry="11.57"/><circle class="cls-3" cx="240.3" cy="134.14" r="49.51" transform="translate(59.31 341.46) rotate(-78.05)"/><path class="cls-4" d="M234.81,95.12a5.28,5.28,0,0,1,.79,2c16.59-1.49,35.1,8,46.65,25.63a62.53,62.53,0,0,1,7.39,15.58A49.54,49.54,0,0,0,258.32,88a72.45,72.45,0,0,0-25.53,5.27A5.57,5.57,0,0,1,234.81,95.12Z"/><path class="cls-4" d="M224.45,181.05a61.91,61.91,0,0,1-11.34-13c-11.55-17.62-12.87-38.38-4.88-53a5.28,5.28,0,0,1-1.53-1.52,5.5,5.5,0,0,1-.86-2.58,72.44,72.44,0,0,0-15,21.3,49.51,49.51,0,0,0,33.63,48.79Z"/><path class="cls-4" d="M233.38,104.81a28.33,28.33,0,0,1-17.22,11.28c1.27,10.25,7.14,24.65,16.6,39.09,7.23,11,15.26,20.11,22.62,26.14a49.76,49.76,0,0,0,22.15-14.52c-2.59-9.15-7.72-20.15-14.94-31.17C253.13,121.19,242.27,110.06,233.38,104.81Z"/><path class="cls-5" d="M232.79,93.29c-3.83-2.07-10.74-.88-17.11,3.3s-10.22,10-9.84,14.37a5.5,5.5,0,0,0,.86,2.58,5.28,5.28,0,0,0,1.53,1.52c1.89,1.27,4.72,1.6,7.93,1a28.33,28.33,0,0,0,17.22-11.28c1.8-2.72,2.63-5.44,2.22-7.69a5.28,5.28,0,0,0-.79-2A5.57,5.57,0,0,0,232.79,93.29Z"/><path class="cls-3" d="M195.66,112.7a49.85,49.85,0,0,0-4.84,19.56,72.44,72.44,0,0,1,15-21.3,9.81,9.81,0,0,1,1.11-5A43.36,43.36,0,0,0,195.66,112.7Z"/><path class="cls-3" d="M222,88.13A49.45,49.45,0,0,0,205.4,99a23.17,23.17,0,0,1,6.37.62,29,29,0,0,1,3.91-3A28.75,28.75,0,0,1,220,94.22,22.86,22.86,0,0,1,222,88.13Z"/><path class="cls-4" d="M205.4,99a49.18,49.18,0,0,0-9.74,13.68A43.36,43.36,0,0,1,207,105.92a21.45,21.45,0,0,1,4.82-6.28A23.17,23.17,0,0,0,205.4,99Z"/><path class="cls-4" d="M238.45,84.66A49,49,0,0,0,222,88.13a22.86,22.86,0,0,0-2,6.09,21.45,21.45,0,0,1,7.68-1.91A43.18,43.18,0,0,1,238.45,84.66Z"/><path class="cls-3" d="M238.45,84.66a43.18,43.18,0,0,0-10.73,7.65,10,10,0,0,1,5.07,1A72.45,72.45,0,0,1,258.32,88,49.7,49.7,0,0,0,238.45,84.66Z"/><path class="cls-4" d="M287.28,149.75c-.18.52-.35,1-.54,1.55C286.93,150.79,287.1,150.27,287.28,149.75Z"/><path class="cls-4" d="M269.52,174.11c.15-.1.29-.22.44-.33h0C269.81,173.89,269.67,174,269.52,174.11Z"/><path class="cls-4" d="M286.48,152c-.2.51-.39,1-.61,1.53C286.09,153,286.28,152.48,286.48,152Z"/><path class="cls-4" d="M275.25,169.22l-.06.06c.31-.3.61-.63.91-.94l-.72.75A1.59,1.59,0,0,1,275.25,169.22Z"/><path class="cls-4" d="M285.57,154.17c-.22.5-.44,1-.67,1.48C285.13,155.16,285.35,154.67,285.57,154.17Z"/><path class="cls-4" d="M272.35,171.87c-.28.24-.55.48-.84.71C271.8,172.35,272.07,172.11,272.35,171.87Z"/><path class="cls-4" d="M279.37,164.55c-.3.38-.59.77-.9,1.14C278.78,165.32,279.07,164.93,279.37,164.55Z"/><path class="cls-4" d="M274.29,170.13c-.29.28-.58.57-.89.84C273.71,170.7,274,170.41,274.29,170.13Z"/><path class="cls-4" d="M282.18,160.54c-.27.44-.54.88-.83,1.3C281.64,161.42,281.91,161,282.18,160.54Z"/><path class="cls-4" d="M280.83,162.58c-.28.41-.57.82-.87,1.22C280.26,163.4,280.55,163,280.83,162.58Z"/><path class="cls-4" d="M284.55,156.34c-.24.48-.48,1-.73,1.43C284.07,157.3,284.31,156.82,284.55,156.34Z"/><path class="cls-4" d="M283.43,158.46c-.26.46-.52.92-.79,1.37C282.91,159.38,283.17,158.92,283.43,158.46Z"/><path class="cls-4" d="M276.88,167.52c.16-.17.31-.35.46-.52l0,0Z"/><path class="cls-4" d="M277.53,166.78l.27-.31-.27.31Z"/><path class="cls-6" d="M214.27,176.27l-1.19-.76Z"/><path class="cls-6" d="M210.51,173.7c-.43-.32-.86-.66-1.28-1C209.65,173,210.08,173.38,210.51,173.7Z"/><path class="cls-6" d="M224.45,181.05l0,0-.6-.2Z"/><path class="cls-6" d="M220.93,179.71l-1.62-.72Z"/><path class="cls-6" d="M218.91,178.81c-.66-.32-1.32-.65-2-1C217.59,178.16,218.25,178.49,218.91,178.81Z"/><path class="cls-6" d="M216.34,177.48l-1.34-.77Z"/><path class="cls-6" d="M212.35,175c-.39-.26-.78-.54-1.16-.82C211.57,174.48,212,174.76,212.35,175Z"/><path class="cls-6" d="M203.18,166.91l-1-1.12Z"/><path class="cls-6" d="M204.81,168.67c-.35-.36-.7-.73-1-1.1C204.11,167.94,204.46,168.31,204.81,168.67Z"/><path class="cls-6" d="M208.73,172.31c-.58-.48-1.15-1-1.71-1.49C207.58,171.33,208.15,171.83,208.73,172.31Z"/><path class="cls-6" d="M206.67,170.49c-.44-.41-.87-.82-1.3-1.25C205.8,169.67,206.23,170.08,206.67,170.49Z"/><path class="cls-6" d="M223,180.53c-.44-.16-.89-.34-1.33-.52C222.11,180.19,222.56,180.37,223,180.53Z"/><path class="cls-6" d="M262,178.65l-.71.34Z"/><path class="cls-6" d="M255.38,181.32l.26-.1-.27.09Z"/><path class="cls-6" d="M270,173.78l.67-.52-.4.31Z"/><path class="cls-6" d="M264.81,177.16l-.76.41Z"/><path class="cls-6" d="M277.53,166.8v0c-.06.08-.13.15-.19.22Z"/><path class="cls-6" d="M273,171.29l-.57.49Z"/><path class="cls-6" d="M275.38,169.09a1.59,1.59,0,0,1-.13.13A1.59,1.59,0,0,0,275.38,169.09Z"/><path class="cls-6" d="M277.31,167l0,0c.06-.07.13-.14.19-.22h0Z"/><path class="cls-6" d="M270,173.78h0l.27-.21Z"/><path class="cls-7" d="M278.47,165.69c-.22.27-.45.52-.67.78C278,166.21,278.25,166,278.47,165.69Z"/><path class="cls-7" d="M275.19,169.28c-.29.29-.6.57-.9.85C274.59,169.85,274.9,169.57,275.19,169.28Z"/><path class="cls-7" d="M276.88,167.52c-.25.28-.52.55-.78.82C276.36,168.07,276.63,167.8,276.88,167.52Z"/><path class="cls-7" d="M269.52,174.11c-.68.5-1.37,1-2.08,1.45C268.15,175.09,268.84,174.61,269.52,174.11Z"/><path class="cls-7" d="M284.9,155.65c-.11.23-.23.46-.35.69C284.67,156.11,284.79,155.88,284.9,155.65Z"/><path class="cls-7" d="M285.87,153.5c-.09.22-.2.44-.3.67C285.67,153.94,285.78,153.72,285.87,153.5Z"/><path class="cls-7" d="M287.51,149.06c-.08.23-.16.46-.23.69C287.35,149.52,287.43,149.29,287.51,149.06Z"/><path class="cls-7" d="M280,163.8l-.59.75Z"/><path class="cls-7" d="M272.35,171.87l.11-.09h0Z"/><path class="cls-7" d="M286.74,151.3c-.08.22-.17.44-.26.67C286.57,151.74,286.66,151.52,286.74,151.3Z"/><path class="cls-7" d="M270.63,173.26c.29-.22.59-.44.88-.68-.28.23-.58.45-.87.67Z"/><path class="cls-7" d="M281.35,161.84l-.52.74Z"/><path class="cls-7" d="M282.64,159.83l-.46.71Z"/><path class="cls-7" d="M283.82,157.77l-.39.69Z"/><path class="cls-7" d="M273,171.29l.37-.32c-.11.11-.24.2-.35.3Z"/><path class="cls-4" d="M209.23,172.7l-.5-.39Z"/><path class="cls-7" d="M209.23,172.7l-.5-.39Z"/><path class="cls-4" d="M270.64,173.25c.29-.22.59-.44.87-.67s.56-.47.84-.71l.1-.09C271.86,172.28,271.26,172.77,270.64,173.25Z"/><path class="cls-7" d="M270.64,173.25c.29-.22.59-.44.87-.67s.56-.47.84-.71l.1-.09C271.86,172.28,271.26,172.77,270.64,173.25Z"/><path class="cls-4" d="M205.37,169.24c-.19-.18-.38-.38-.56-.57Z"/><path class="cls-7" d="M205.37,169.24c-.19-.18-.38-.38-.56-.57Z"/><path class="cls-5" d="M274.91,159.08c1,2.67,1.93,5.25,2.62,7.7l.27-.31c.22-.26.45-.51.67-.78s.6-.76.9-1.14l.59-.75c.3-.4.59-.81.87-1.22l.52-.74c.29-.42.56-.86.83-1.3l.46-.71c.27-.45.53-.91.79-1.37l.39-.69c.25-.47.49-1,.73-1.43.12-.23.24-.46.35-.69.23-.49.45-1,.67-1.48.1-.23.21-.45.3-.67.22-.51.41-1,.61-1.53.09-.23.18-.45.26-.67.19-.51.36-1,.54-1.55.07-.23.15-.46.23-.69.16-.51.31-1,.45-1.56.07-.23.14-.47.2-.71.14-.52.26-1,.38-1.57,0-.2.1-.4.14-.6A62.6,62.6,0,0,1,274.91,159.08Z"/><path class="cls-4" d="M207,170.82c-.12-.1-.23-.22-.35-.33C206.79,170.6,206.9,170.72,207,170.82Z"/><path class="cls-7" d="M207,170.82c-.12-.1-.23-.22-.35-.33C206.79,170.6,206.9,170.72,207,170.82Z"/><path class="cls-4" d="M275.38,169.09l.72-.75c.26-.27.53-.54.78-.82l.43-.48C276.68,167.74,276,168.42,275.38,169.09Z"/><path class="cls-7" d="M275.38,169.09l.72-.75c.26-.27.53-.54.78-.82l.43-.48C276.68,167.74,276,168.42,275.38,169.09Z"/><path class="cls-4" d="M273.05,171.27c.11-.1.24-.19.35-.3.31-.27.6-.56.89-.84s.61-.56.9-.85l.06-.06C274.54,169.93,273.81,170.61,273.05,171.27Z"/><path class="cls-7" d="M273.05,171.27c.11-.1.24-.19.35-.3.31-.27.6-.56.89-.84s.61-.56.9-.85l.06-.06C274.54,169.93,273.81,170.61,273.05,171.27Z"/><path class="cls-4" d="M223.82,180.83l-.82-.3Z"/><path class="cls-7" d="M223.82,180.83l-.82-.3Z"/><path class="cls-4" d="M203.77,167.57l-.59-.66Z"/><path class="cls-7" d="M203.77,167.57l-.59-.66Z"/><path class="cls-4" d="M267.44,175.56c-.87.56-1.75,1.09-2.63,1.6C265.69,176.65,266.57,176.12,267.44,175.56Z"/><path class="cls-7" d="M267.44,175.56c-.87.56-1.75,1.09-2.63,1.6C265.69,176.65,266.57,176.12,267.44,175.56Z"/><path class="cls-4" d="M219.31,179l-.4-.18Z"/><path class="cls-7" d="M219.31,179l-.4-.18Z"/><path class="cls-4" d="M264.05,177.57q-1,.57-2.07,1.08Q263,178.14,264.05,177.57Z"/><path class="cls-7" d="M264.05,177.57q-1,.57-2.07,1.08Q263,178.14,264.05,177.57Z"/><path class="cls-4" d="M221.67,180l-.74-.3Z"/><path class="cls-7" d="M221.67,180l-.74-.3Z"/><path class="cls-4" d="M267.44,175.56c.71-.47,1.4-.95,2.08-1.45.15-.1.29-.22.43-.33C269.14,174.39,268.3,175,267.44,175.56Z"/><path class="cls-7" d="M267.44,175.56c.71-.47,1.4-.95,2.08-1.45.15-.1.29-.22.43-.33C269.14,174.39,268.3,175,267.44,175.56Z"/><path class="cls-4" d="M261.27,179a47.39,47.39,0,0,1-5.63,2.23A47.39,47.39,0,0,0,261.27,179Z"/><path class="cls-7" d="M261.27,179a47.39,47.39,0,0,1-5.63,2.23A47.39,47.39,0,0,0,261.27,179Z"/><path class="cls-4" d="M245,171.26a61.3,61.3,0,0,1-33.7-6.09c.56,1,1.15,1.94,1.78,2.89a61.92,61.92,0,0,0,11.31,13,49.6,49.6,0,0,0,31,.28A94.32,94.32,0,0,1,245,171.26Z"/><path class="cls-5" d="M245,171.26a61.3,61.3,0,0,1-33.7-6.09c.56,1,1.15,1.94,1.78,2.89a61.92,61.92,0,0,0,11.31,13,49.6,49.6,0,0,0,31,.28A94.32,94.32,0,0,1,245,171.26Z"/><path class="cls-4" d="M215,176.71c-.25-.14-.49-.29-.73-.44C214.51,176.42,214.75,176.57,215,176.71Z"/><path class="cls-7" d="M215,176.71c-.25-.14-.49-.29-.73-.44C214.51,176.42,214.75,176.57,215,176.71Z"/><path class="cls-4" d="M213.08,175.51l-.73-.49Z"/><path class="cls-7" d="M213.08,175.51l-.73-.49Z"/><path class="cls-4" d="M216.94,177.81l-.6-.33Z"/><path class="cls-7" d="M216.94,177.81l-.6-.33Z"/><path class="cls-4" d="M211.19,174.2l-.68-.5Z"/><path class="cls-7" d="M211.19,174.2l-.68-.5Z"/><path class="cls-6" d="M213.11,168.06c-.63-.95-1.22-1.92-1.78-2.89a61.59,61.59,0,0,1-16.75-12l.27.64c.17.4.34.79.53,1.18,0,0,0,.07,0,.11.15.31.31.62.46.94s.3.6.46.9l.19.37c.19.36.39.71.59,1.07l.29.53c.09.14.17.29.26.44.39.66.79,1.32,1.22,2s.88,1.31,1.35,2c.14.2.3.4.45.6.32.43.64.85,1,1.27l.55.68,1,1.12.59.66c.34.37.69.74,1,1.1.18.19.37.39.56.57.43.43.86.84,1.3,1.25.12.11.23.23.35.33.56.51,1.13,1,1.71,1.49l.5.39c.42.34.85.68,1.28,1l.68.5c.38.28.77.56,1.16.82l.73.49,1.19.76c.24.15.48.3.73.44l1.34.77.6.33c.65.35,1.31.68,2,1l.4.18,1.62.72.74.3c.44.18.89.36,1.33.52l.82.3.6.2A61.92,61.92,0,0,1,213.11,168.06Z"/><path class="cls-8" d="M213.11,168.06c-.63-.95-1.22-1.92-1.78-2.89a61.59,61.59,0,0,1-16.75-12l.27.64c.17.4.34.79.53,1.18,0,0,0,.07,0,.11.15.31.31.62.46.94s.3.6.46.9l.19.37c.19.36.39.71.59,1.07l.29.53c.09.14.17.29.26.44.39.66.79,1.32,1.22,2s.88,1.31,1.35,2c.14.2.3.4.45.6.32.43.64.85,1,1.27l.55.68,1,1.12.59.66c.34.37.69.74,1,1.1.18.19.37.39.56.57.43.43.86.84,1.3,1.25.12.11.23.23.35.33.56.51,1.13,1,1.71,1.49l.5.39c.42.34.85.68,1.28,1l.68.5c.38.28.77.56,1.16.82l.73.49,1.19.76c.24.15.48.3.73.44l1.34.77.6.33c.65.35,1.31.68,2,1l.4.18,1.62.72.74.3c.44.18.89.36,1.33.52l.82.3.6.2A61.92,61.92,0,0,1,213.11,168.06Z"/><path class="cls-6" d="M272.45,171.78h0l.57-.49,0,0Z"/><path class="cls-7" d="M272.45,171.78h0l.57-.49,0,0Z"/><path class="cls-6" d="M270.23,173.57l.4-.31h0Z"/><path class="cls-7" d="M270.23,173.57l.4-.31h0Z"/><path class="cls-6" d="M270.23,173.57l.41-.32c.62-.48,1.22-1,1.81-1.47l.6-.51c.76-.66,1.49-1.34,2.2-2.05a1.59,1.59,0,0,0,.13-.13c.66-.67,1.3-1.35,1.93-2.05l.22-.26c-.69-2.45-1.58-5-2.62-7.7a61,61,0,0,1-29.4,12.13l-.48,0a94.32,94.32,0,0,0,10.34,10.05l.27-.09a47.39,47.39,0,0,0,5.63-2.23l.71-.34q1-.51,2.07-1.08l.76-.41c.88-.51,1.76-1,2.63-1.6s1.7-1.17,2.51-1.78Z"/><path class="cls-8" d="M270.23,173.57l.41-.32c.62-.48,1.22-1,1.81-1.47l.6-.51c.76-.66,1.49-1.34,2.2-2.05a1.59,1.59,0,0,0,.13-.13c.66-.67,1.3-1.35,1.93-2.05l.22-.26c-.69-2.45-1.58-5-2.62-7.7a61,61,0,0,1-29.4,12.13l-.48,0a94.32,94.32,0,0,0,10.34,10.05l.27-.09a47.39,47.39,0,0,0,5.63-2.23l.71-.34q1-.51,2.07-1.08l.76-.41c.88-.51,1.76-1,2.63-1.6s1.7-1.17,2.51-1.78Z"/><path class="cls-9" d="M255.61,147.16l-55.44,12.9c-.38,5.32-1.37,11.24-3.64,16.06,1.07.84,2.8,1.9,3.87,2.74a6.08,6.08,0,0,1,7.41-.81,32.52,32.52,0,0,1-3.82,4.13,8.93,8.93,0,0,1-4.59,2.08,5.42,5.42,0,0,1-4.62-1.68c-1,.83-2.15,1.53-3.44,1.17a4.31,4.31,0,0,1-2.84-2.63,2.65,2.65,0,0,1-3.21.34,6,6,0,0,1-2.08-2.54,8.53,8.53,0,0,1-6-6.9c-.39-3.3,1.12-6.52,2.81-9.39.79-1.33,2.2-3.34,3.79-5.5A36.81,36.81,0,0,1,202,144l41.66-13.54-47.07-17.34L170,183l-1.94.72A116.11,116.11,0,0,1,84.84,183l12.51-64.45-31,37.7a20.34,20.34,0,0,1-35-6.42l-19-56.38H28.34L51.28,136,76.05,97.4a33.74,33.74,0,0,1,28.42-15.53h26.68V67l28.44-7.16V80.85h28.64a51.18,51.18,0,0,1,27.86,8.24l44.62,29C272.59,125.75,269.4,143.94,255.61,147.16Z"/><polygon class="cls-10" points="97.36 118.51 100.53 102.19 77.01 143.28 97.36 118.51"/><polygon class="cls-10" points="51.28 136 57.34 147.24 55.16 129.95 51.28 136"/><path class="cls-11" d="M37.93,70l-.16,0V61.52l8.53-1.65h0A10.34,10.34,0,0,1,37.93,70Z"/><circle class="cls-12" cx="9.85" cy="34.85" r="9.85" transform="translate(-26.33 36.39) rotate(-76.66)"/><path class="cls-13" d="M16.69,34.85A6.85,6.85,0,1,1,9.85,28,6.85,6.85,0,0,1,16.69,34.85Z"/><path class="cls-4" d="M29,41.53l-2.65-.47,2.37-13.22a8.08,8.08,0,0,1,4-5.6l13.58-7.77,1.34,2.34L34,24.59a5.39,5.39,0,0,0-2.64,3.73Z"/><rect class="cls-4" x="9.85" y="34.85" width="27.79" height="58.57"/><rect class="cls-14" x="12.55" y="48.91" width="22.39" height="38.93"/><path class="cls-11" d="M25.17,81,10,91a13,13,0,0,1-4.1-7.82L3.78,68.09a13,13,0,0,1,5.91-12.8l5.65-3.6a9.18,9.18,0,0,1,3.9-1.9,2.87,2.87,0,0,1,3.33,1.79A2.82,2.82,0,0,1,21.83,54a9.47,9.47,0,0,1-2.07,1.64A46.62,46.62,0,0,0,9.58,64.85l9.88-4.67a9.59,9.59,0,0,1,5.11-1.34c1.77.22,3.49,1.89,3.06,3.62s-2.43,2.37-4.1,2.9A30.32,30.32,0,0,0,11.29,72.8l12-4.54a7.73,7.73,0,0,1,3.31-.73A2.37,2.37,0,0,1,27.92,72a9.06,9.06,0,0,1-2.61,1.18A38.21,38.21,0,0,0,12.6,80.56l11-3.47c1.05-.33,2.28-.64,3.19,0a1.89,1.89,0,0,1,.71,2.08C27.22,79.89,26.31,80.39,25.17,81Z"/><path class="cls-15" d="M136.44,78.84a13.92,13.92,0,0,1-5.29-1.18V67l25.95-6.53a20,20,0,0,1-20.66,18.42Z"/><polygon class="cls-10" points="184.34 108.65 184.34 145.28 196.57 113.15 184.34 108.65"/><path class="cls-10" d="M171.43,132.57H102c3.15-2.45,7.56-2.83,11.52-2.42s8,1.33,11.9.81a16.59,16.59,0,0,0,9.88-5.08c1.75,2.56,5.62,4,8.69,4.46a32.42,32.42,0,0,0,9.27-.31,54.28,54.28,0,0,1,9.08-.76A18.75,18.75,0,0,1,171.43,132.57Z"/><path class="cls-10" d="M243.64,130.49l6.33-2.06c-8.05-7-20.95-3.33-20.95-3.33Z"/><path class="cls-1" d="M191.92,199.93a15.36,15.36,0,0,0-4.6.48,4,4,0,0,0-2.9,3.28,3.77,3.77,0,0,0,2.31,3.39,9.22,9.22,0,0,0,4.27.64,35.92,35.92,0,0,0,14-3.32c1.64-.76,3.37-1.84,3.76-3.6.83-3.72-3-4.23-5.42-3.4A37.78,37.78,0,0,1,191.92,199.93Z"/><path class="cls-1" d="M176.48,208.76a9,9,0,0,1-6,5.47,26.66,26.66,0,0,1-8.31,1l-29.59.26c-5.69.05-11.67,0-16.63-2.76a7.64,7.64,0,0,1-3.1-2.83,3.8,3.8,0,0,1,.1-4c1.51-2,4.55-1.31,6.94-.66,12.42,3.37,25.59,1.09,38.25-1.2C162.72,203.14,180,197.61,176.48,208.76Z"/><path class="cls-1" d="M100.88,206.84a4.53,4.53,0,0,1-2.95,4.35,10.79,10.79,0,0,1-5.56.39,7.19,7.19,0,0,1-3.88-1.42c-3.16-2.81,0-7,3.34-7.48C94.88,202.22,100.47,203,100.88,206.84Z"/><path class="cls-1" d="M60.41,197.53a7.81,7.81,0,0,1,3,1.36,3.45,3.45,0,0,1,1,3.47,2.82,2.82,0,0,1-1.84,1.76,4.83,4.83,0,0,1-2.33,0,20.52,20.52,0,0,1-10.66-5.61A9.07,9.07,0,0,1,47,194.65c-.33-1.09-.53-3.86.71-4.44,1.06-.49,2.81,1.87,3.6,2.49A27.58,27.58,0,0,0,60.41,197.53Z"/><path class="cls-16" d="M110.61,93.52c.42.11.81,1.72,2.48,2.56a1.53,1.53,0,0,0,.35.16,1.44,1.44,0,0,1,.4.18c.26.15,1.63.54,2.27.91a4.32,4.32,0,0,0,.86.23,17.13,17.13,0,0,0,2.59.56c1,0,3.44-.07,4.27,0a6.35,6.35,0,0,0,.93.16h6.39a7.81,7.81,0,0,1,2.07.07c.7.24,1.7,0,2.49.17a2.23,2.23,0,0,0,.39.13c.33,0,.72,0,1.07,0a5.19,5.19,0,0,0,1,.14c.47,0,.61.16.93.16h6a8.88,8.88,0,0,1,1.51-.16c.56,0,1.16,0,1.72,0a2.57,2.57,0,0,0,.68-.14c.53-.08,1.16.07,1.69,0s.07-.11.74-.14l.79,0c.28,0,.42-.14.68-.16a3.69,3.69,0,0,0,.77,0,2,2,0,0,1,.32-.09c.16,0,.3,0,.46,0,.38,0,2.3-.53,2.91-.53a10.49,10.49,0,0,0,2.63-.73,3.82,3.82,0,0,0,.71-.13c.65-.26,1.31-.37,2-.61l1.23-.48a5.79,5.79,0,0,0,.63-.19,5.42,5.42,0,0,0,1.11-.61,2,2,0,0,1,.63-.27,9.41,9.41,0,0,0,1.14-.58,13.42,13.42,0,0,0,1.72-.79c.51-.35,1.11-.63,1.61-1,.18-.12.3-.21.5-.33s.4-.13.59-.3c.62-.56,1.13-1.09,1.72-1.67a8.62,8.62,0,0,0,.93-1.21,6.92,6.92,0,0,0,1.2-1.76c.1-.22.19-.31.3-.54a3.32,3.32,0,0,0,.22-.65,9.92,9.92,0,0,1,.5-1.21,16.91,16.91,0,0,0,.66-1.88,13.5,13.5,0,0,0,.48-2.12,3.19,3.19,0,0,0,.14-.69,2.63,2.63,0,0,1,.14-.73l.17-2.53a7.86,7.86,0,0,0-.1-.78,4,4,0,0,0,0-.87c-.11-.37-.13-.86-.22-1.2a4.67,4.67,0,0,1-.1-1.3c0-.31-.14-.49-.16-.77a1.92,1.92,0,0,0-.14-.81,4.68,4.68,0,0,1-.07-.86,5.83,5.83,0,0,0-.12-1.7c0-.21,0-.6-.05-.89l-.13-.81a7.8,7.8,0,0,0-.07-1.6,3.84,3.84,0,0,1-.12-.82,3.3,3.3,0,0,1-.09-.85c0-.54-.58-2.33-.58-3.1a1.86,1.86,0,0,0-.1-.85c-.09-.28,0-.54-.11-.82a3.1,3.1,0,0,1-.1-.83c-.07-.51-.27-1-.3-1.51a7.35,7.35,0,0,0-.11-.82,7.87,7.87,0,0,1-.1-1.3l-.13-.81a2.86,2.86,0,0,0-.12-.35c-.09-.28,0-.56-.1-.82l-.11-.37a32.8,32.8,0,0,0-.88-3.27,5.53,5.53,0,0,0-.28-.65l-.65-2.16a1.62,1.62,0,0,0-.09-.38c0-.11-.07-.2-.12-.34-.16-.45-.4-.84-.52-1.3s-.43-.79-.62-1.26l-.26-.68c-.58-1.39-.83-1.85-1.48-3.15a5.6,5.6,0,0,0-.33-.59,10.44,10.44,0,0,0-.63-1.25,6.21,6.21,0,0,1-.35-.6l-1.27-2.47a11.83,11.83,0,0,0-.63-1.23c-.14-.23-.16-.44-.28-.65l-1.65-3c-.6-1-1-2.08-1.62-3.07-.75-1.23-1-1.86-1.61-3a5.58,5.58,0,0,0-.39-.56L159.89,20c-.14-.21-.2-.41-.34-.6l-.36-.56a7.57,7.57,0,0,0-.78-1.11c-.33-.31-.52-.68-.86-1l-.47-.47c-.4-.4-.74-.84-1.14-1.19a5.88,5.88,0,0,1-1-1.37,12.82,12.82,0,0,0-1.28-1.53c-.28-.39-.6-.58-.88-.95a9.3,9.3,0,0,0-.84-1,5.57,5.57,0,0,1-.84-1.49,20.32,20.32,0,0,0-2-3.11,10.38,10.38,0,0,0-1.71-2,6.28,6.28,0,0,0-1-.84,5.08,5.08,0,0,0-.62-.34l-1.8-1a6.55,6.55,0,0,0-3.62-1c-.32,0-.56-.09-.83-.11-.59,0-1.21,0-1.79-.09a13.91,13.91,0,0,0-2.66,0c-1.43.16-2.87.17-4.27.42a2.66,2.66,0,0,1-.39.07,5.26,5.26,0,0,0-1.19.26,11.3,11.3,0,0,0-3.58,2c-.19.16-.32.24-.53.4a7.49,7.49,0,0,0-1.39,1.48c-.1.17-.21.45-.47.45a9.67,9.67,0,0,1-1.7-1.09c-.35-.29-.79-.47-1.13-.8A7.87,7.87,0,0,0,119,1.94a5.66,5.66,0,0,0-1.2-.67,5.41,5.41,0,0,0-2.3-.55h-2.07c-.59,0-1,.11-1.56.11a9.38,9.38,0,0,0-3.14.3l-3.43,1.68a7.79,7.79,0,0,0-2,1.44,11.85,11.85,0,0,0-1.51,1.88l-.33.49a10.23,10.23,0,0,0-1.07,1.53l-1.3,2.12a5.84,5.84,0,0,0-.3.53,11.73,11.73,0,0,0-1.7,3.39c-.06.24,0,.56-.16.72a5.83,5.83,0,0,1-.56.28c-.18.1-.35.23-.53.35-.49.33-2.58,1.77-3,2.16a18.41,18.41,0,0,0-1.65,1.79,4.47,4.47,0,0,1-.36.47,9.62,9.62,0,0,0-1.28,2.09c-.17.35-.7.51-1,.67L86,24.42c-.55.41-1.44,1.27-1.44,2.09a1.53,1.53,0,0,0,.21.78c.26.33.46.12.77.26,0,.05,0,1.75,0,1.93,0,.72.16,1.25.16,2a8.7,8.7,0,0,1-.16,1.14c0,.21,0,.39,0,.6a9.34,9.34,0,0,0,.16,2.95,2.59,2.59,0,0,0,.3,1,7.84,7.84,0,0,0,1.51,2.44,8.22,8.22,0,0,0,.62.69c.72.72,1,.68-.29,1.77a13.45,13.45,0,0,0-.91,1.05,6.55,6.55,0,0,0-.4.55,7.67,7.67,0,0,0-1.07,1.89c-.09.25-.13.49-.21.74s-.46.49-.71.75a7,7,0,0,0-.68.83,11.27,11.27,0,0,0-1.18,2.72,4.33,4.33,0,0,0,1.14,3,5.59,5.59,0,0,0,.93.95l.9,1c1.32,1.74,1,1.5.67,2a3.4,3.4,0,0,0,.19,4.23,11.38,11.38,0,0,0,.79,1,5.41,5.41,0,0,1,1.16,1.65,4.84,4.84,0,0,1-.25.73,6.58,6.58,0,0,0,0,2.76l.28.81a8.55,8.55,0,0,0,1.74,2.68"/><path class="cls-17" d="M102.45,60.55h1.19c.34,0,.67-.07.88-.07a16.3,16.3,0,0,1,1.86.11,14.47,14.47,0,0,0,3.48-.16l2.24-.25a10.15,10.15,0,0,0,2.25-.24c.32-.09.75-.11,1.09-.18.67-.12,1.35-.37,2-.49.44-.09.58-.14,1-.25l2.13-.36c.77-.06,1.59-.09,2.31-.16a20.57,20.57,0,0,1,2.6,0l2-.23c.23,0,.39-.12.6-.17a9.7,9.7,0,0,1,1.3-.19c.37-.06.86-.16,1.28-.25a1.9,1.9,0,0,0,.54-.19c.21-.07.41-.11.6-.18s.32-.14.53-.21.33-.17.52-.24c.41-.15.72-.22,1.16-.36l1.67-.61a9,9,0,0,1,1.7-.58,20,20,0,0,0,2.39-.63c1.21-.39,2.74-2,3.32-2a.37.37,0,0,1,.42.37c0,.69-2.74,2.44-3.46,2.58l-3.53,1c-.3.13-.77.37-1.09.48a22.68,22.68,0,0,0-2.28.74,10.75,10.75,0,0,1-2.28.79c-.4.05-.86.21-1.21.28a4.4,4.4,0,0,0-1.28.23,21.33,21.33,0,0,1-2.65.4c-1.69,0-3.23-.07-4.92.09a10.55,10.55,0,0,0-1.07.19,5.47,5.47,0,0,0-1.11.19l-3.1.76a30.41,30.41,0,0,1-3.43.44c-.45,0-.66.1-1.1.12a9.43,9.43,0,0,0-1.21.09c-3.16.45-5.53,0-8.57.26a34.74,34.74,0,0,1-4,0c-.86,0-1.62-.2-2.49-.18a13.29,13.29,0,0,1-2.64-.19c-.24-.07-.33-.06-.54-.14a5.12,5.12,0,0,1-1.39-.74l-.72-.69a6.51,6.51,0,0,0-1.12-1,1.08,1.08,0,0,1-.44-.28,4,4,0,0,0-.39-.3c-.38-.33-.42-.54-.68.07s-.51.32-.35,1.69A3.3,3.3,0,0,0,87,61.15l.18.19c.12.12.09,0,.19.18l.42.63a3.16,3.16,0,0,0,.37.32c.21.19.12.15.28.4A7.09,7.09,0,0,0,89.6,64.4l.44.28c.28.19.49.4.77.58s.56.31.86.49a7.23,7.23,0,0,0,1,.37,6.69,6.69,0,0,0,3.62.28l2.95-.14c.61,0,1.15.14,1.77.16,2.49.08,4.95.35,7.44.31l1.51,0c.51,0,.84-.11,1.35-.12,1.93-.13,3.88-.07,5.83-.11a5.34,5.34,0,0,0,1.25-.23,4.76,4.76,0,0,1,1.17-.33,11.91,11.91,0,0,1,1.27-.25c.45,0,.93,0,1.37-.07a9.72,9.72,0,0,1,1.28-.23,6.16,6.16,0,0,0,1.28-.17,15.16,15.16,0,0,0,2.42-.55l1.07-.43a9.36,9.36,0,0,0,1-.51c.55-.32,1.92-.81,2.5-1.2l1.49-.73c.32-.13.79-.27,1.09-.43l1.95-1c.15-.09.35-.14.51-.23s.35-.16.52-.25c.62-.33,2.32-1.53,2.78-1.68a2.85,2.85,0,0,0,1.08-.42,8.51,8.51,0,0,1,1-.53l.72-.39a1.27,1.27,0,0,1,.21-.14,2.85,2.85,0,0,0,.93-.58,13.42,13.42,0,0,1,1.74-1.28,2.77,2.77,0,0,0,1-1.14c.37-.88.39-.53.2-1.81a2.32,2.32,0,0,0-.51-1c-.51-.7-2.8.23-3.64.3a1.41,1.41,0,0,0-.56.16L140,52l-.63.14a9.75,9.75,0,0,0-1.12.35,9.76,9.76,0,0,1-1.09.42,21.12,21.12,0,0,1-2.37.6,9.7,9.7,0,0,0-1.26.24c-.39.09-.92.09-1.34.16-.24,0-.31.11-.58.16s-.44,0-.67.07c-.43,0-.75.19-1.24.26s-.7.25-1.16.3l-2.42.55c-.37.1-2.13.33-2.53.49a2.56,2.56,0,0,1-.58.15l-.67.11c-.86.11-1.74.28-2.65.33l-2.61.39c-.85.16-1.81.11-2.64.33a14.66,14.66,0,0,1-3.47.14c-.46,0-.86.06-1.3.07s-.79.14-1.25.14a33.42,33.42,0,0,0-3.74.27c-.42,0-.75,0-1.19.07-.81,0-1.55.19-2.34.19H99.94c-.86,0-2.44-.21-3.64-.21a13,13,0,0,1-1.4,0L91.65,57l-.91-.37a7.42,7.42,0,0,1-1.91-1.42c-.18-.16-.16-.07-.36-.31-.36-.49-1.33-1.72-1.66-2.25a14.86,14.86,0,0,1-1.3-2.7,12.65,12.65,0,0,1-.41-1.58l-.1-.51a.07.07,0,0,0,0,0c-.21,0-.35.39-.47.58a4.38,4.38,0,0,0-.37.67c-.28.77-.48.7-.63,1.46a3.88,3.88,0,0,0,1.21,2.91l.24.28c.16.21.13.11.28.25l.53.52c.69.65,1.21,1.74,1.86,2.3.21.18.32.34.53.53a7.26,7.26,0,0,0,.61.49l.32.19.86.71c.21.17.31.35.51.52s.37.32.54.49a2.39,2.39,0,0,0,.69.36,4.35,4.35,0,0,0,.8.24c1.44.25,4.18.11,5.94.39A25.33,25.33,0,0,0,102.45,60.55Z"/><path class="cls-16" d="M98.18,14c-.19-.26-.09-.22,0-.4a1.57,1.57,0,0,0,.22-.47,4.44,4.44,0,0,1,.47-.83,4.4,4.4,0,0,1,.53-.77,6.21,6.21,0,0,0,.45-.84c.14-.32.32-.5.49-.81.37-.65.92-1.41,1.25-2,.12-.24,0,0,.14-.16L103,6A5.25,5.25,0,0,1,104.2,4.6a7,7,0,0,1,1.57-1l.89-.41c.23-.19,0-.1.4-.26s1.5-.75,2.22-1c.33-.14,2.77-.18,3.61-.27h2.6a3.31,3.31,0,0,1,.62.05c.29,0,.07.07.5.12a9.27,9.27,0,0,1,1.83.76,2.57,2.57,0,0,1,.33.33,2.48,2.48,0,0,0,.36.28c.63.49.73,1,1.8,1.48.28.12.14.08.34.28,0,0,1.37.86,1.52,1,0,.33-.31.56-.49,1a6.15,6.15,0,0,1-.44,1,9.21,9.21,0,0,0-.42,2.51,18.61,18.61,0,0,0-4,2.69c-.37.36-1.79-.25-2.28-.34a1.24,1.24,0,0,1-.39-.09,1,1,0,0,0-.31-.15c-.25-.07-.51-.2-.69-.25L112.26,12c-.56,0-1.12-.18-1.61-.25-.3,0-.62,0-.93-.05s-.55-.09-.83-.09c-.63,0-1.19.05-1.83.07a17.76,17.76,0,0,0-4.84.79c-.6.14-.51.19-1.46.4-.66.16-.19,0-.68.25a6.93,6.93,0,0,0-.67.28l-.61.32c-.16.09-.2,0-.35.12s0,.14-.27.19Zm52,37.59c1-.33-.68-2.07-1.1-2.42-.16-.11-.3-.25-.46-.37a7.14,7.14,0,0,0-3.07-1.11c-.25,0-.35-.1-.68-.14a17.33,17.33,0,0,0-3.09-.1c-.44.26-.46.87,0,1a8,8,0,0,0,.82,0c.28,0,.53.06.83.06a14.38,14.38,0,0,1,2.9.42,4.74,4.74,0,0,1,2.94,2c.18.3.44.86.93.69ZM143.65,45a9,9,0,0,1,2.81.5c.4.22.86.53,1.19.09.25-.65-.21-.8-.59-1a4.73,4.73,0,0,0-1.29-.38,14.05,14.05,0,0,0-1.47-.2c-.72,0-1.49-.23-1.44.49,0,.36,0,.39.79.5ZM99.9,41.8a9.09,9.09,0,0,1-2.33-.17c-.34-.09-1-.37-1.09.16a.45.45,0,0,0,.21.57,2,2,0,0,0,.54.25,13.53,13.53,0,0,0,4,.07c0,.07-.53.47-.77.79l-.74.93a26.72,26.72,0,0,0-2.26,2.67,2.87,2.87,0,0,0-.2.39c-.63,1.28.34,1.17.58,1s.55-1,.85-1.35c.08-.13.14-.13.24-.27.34-.45,0-.14.49-.59l.83-.85a10.77,10.77,0,0,1,2.14-2.26c.54-.39.23-.21.67-.42a14.14,14.14,0,0,1,1.35-.84,6,6,0,0,0,1.47-.76c.58-.49,0-1.18-.73-.74a31.12,31.12,0,0,1-3.29,1.13c-.15,0-.3,0-.45.07a5.33,5.33,0,0,1-1.48.24Zm11.5,51.4.53.78c.82,1.16.45.82,1.4,1.28.2.1.35.09.51.17s.19.18.46.21c.54.09.28.09,1,.36a7.62,7.62,0,0,1,1,.36,3.55,3.55,0,0,0,.94.34c.32.09.79.16,1.09.26.92.33,4,.19,5.2.19.74,0,.67.18,1.09.18.82,0,8.18-.09,8.69.07a6.53,6.53,0,0,0,1.88.09c.56,0,.64.19,1.14.21a11.3,11.3,0,0,1,2.4.24,57.06,57.06,0,0,0,6.53,0c.84-.38,2.34,0,3.16-.17a13.45,13.45,0,0,1,1.9-.11,10,10,0,0,1,1.16-.19,3.53,3.53,0,0,0,.65,0c.26,0,.31-.12.54-.14s.46,0,.67,0,.26-.12.52-.16.41,0,.64,0A1.81,1.81,0,0,1,155,97c.36,0,.28.06.56-.08s.3-.07.58-.11.29-.12.52-.14.42,0,.63,0a9.71,9.71,0,0,0,2-.65c.41-.16.85-.14,1.11-.25s.72-.15,1.07-.28a19.84,19.84,0,0,0,1.93-.72c.18-.07.35-.07.53-.14,1-.35,1.28-.75,1.79-.91l.49-.17a10.82,10.82,0,0,1,1.83-.85,4.89,4.89,0,0,0,.86-.49l1.65-1A5.22,5.22,0,0,0,172,90.08a8.49,8.49,0,0,0,.66-.69c.21-.26.39-.38.62-.68a8.14,8.14,0,0,1,.56-.79,7.88,7.88,0,0,0,.6-.75l.7-1.34a7.1,7.1,0,0,1,.53-1.46,1.48,1.48,0,0,0,.19-.47,1.14,1.14,0,0,1,.21-.4c0-.09.19-.86.28-1.07a8.31,8.31,0,0,0,.44-1.55,3,3,0,0,1,0-.61c.07-.28.14-.16.14-.55l.23-1.81c.35-.73,0-1.63-.07-2.3s.12,0-.14-1c0-.23,0-.4,0-.63s-.11-.32-.14-.55a7.35,7.35,0,0,0-.09-1.21,1.71,1.71,0,0,1-.07-.61c0-.42-.07-.26-.14-.53a24.85,24.85,0,0,0-.16-2.54c-.11-.35,0-.78-.12-1.18-.18-.79,0-1.68-.21-2.49-.06-.23,0-.41-.06-.63s-.08-.81-.14-1.22l-.35-1.61c-.1-.63-.17-.16-.17-1.19,0-.5-.16-.78-.16-1.2s-.05-.23-.14-.52a7.86,7.86,0,0,0-.28-1.69c-.13-.37,0-.84-.11-1.21-.05-.21-.1-.32-.14-.55a9.2,9.2,0,0,0-.14-1.21c-.05-.24,0-.37-.05-.58a3.94,3.94,0,0,1-.16-.51c0-.21,0-.42-.07-.61a5,5,0,0,0-.09-.58c-.07-.24-.1-.1-.16-.51a8.53,8.53,0,0,0-.31-1,11.16,11.16,0,0,0-.44-1.53,4.78,4.78,0,0,1-.53-1.46,3.45,3.45,0,0,0-.31-1,2.46,2.46,0,0,1-.13-.57c0-.08-.14-.31-.17-.43l-.6-1.44a14.43,14.43,0,0,1-.63-1.41c-.14-.42-.32-.4-.4-.89a4,4,0,0,0-.43-.93L169,38.5a12.29,12.29,0,0,1-.65-1.31,9.87,9.87,0,0,1-.74-1.3,5,5,0,0,0-.44-.9,2.94,2.94,0,0,1-.47-.84c-.2-.7-.64-1.16-.88-1.83L165.17,31c-.16-.21-.07-.23-.17-.44s-.39-.56-.53-.82a17.66,17.66,0,0,1-1-1.71,12.29,12.29,0,0,0-.86-1.79,2.75,2.75,0,0,1-.26-.4,4,4,0,0,0-.23-.39c-.18-.29-.27-.59-.44-.91s-.16-.16-.26-.42l-.71-1.28c-.3-.48-.86-1.16-1.09-1.63a4.81,4.81,0,0,0-.52-.78,6.58,6.58,0,0,1-.49-.86,4.41,4.41,0,0,1-.53-.75,2.38,2.38,0,0,0-.56-.79c-.44-.44-.3-.44-.55-.76a1.52,1.52,0,0,0-.35-.31l-.33-.34a5.49,5.49,0,0,1-.65-.7c-.58-.81,0-.16-.65-.68a4.72,4.72,0,0,1-.54-.76,5.06,5.06,0,0,0-.57-.79l-1.24-1.4A8.75,8.75,0,0,1,150.86,10c-.14-.3-.31-.55-.47-.88a7.75,7.75,0,0,1-.44-.86,15.54,15.54,0,0,0-1.65-2.4,8.18,8.18,0,0,1-.51-.79,5,5,0,0,0-.65-.71c-1.35-1.44-1.37-1-2.33-1.66-.63-.44-1.18-.62-1.7-.95a1.94,1.94,0,0,0-.94-.42A16.65,16.65,0,0,0,138.65.9a22.12,22.12,0,0,0-5.08.09c-.77.14-1.65.12-2.42.24a9.7,9.7,0,0,0-3.91,1.44A17.24,17.24,0,0,0,125,4.45l-.58.72a11.07,11.07,0,0,0-1,1.72,7.43,7.43,0,0,0-.81,1.84c-.12.77-.49,1.44,0,1.42a9.14,9.14,0,0,0,1.82-.21,56.64,56.64,0,0,1,6.2-.47l2.53.14a20.4,20.4,0,0,1,5.42,1.28,5.22,5.22,0,0,1,.83.47c.7.42,1,.85,1.49,1.16a4.85,4.85,0,0,0,.4.28c.35.21.58.62,1,1,.61.47,1.49.75,1.39,1.33-.07.42-.62.41-.93.19a6.61,6.61,0,0,1-.78-.52,17.1,17.1,0,0,0-1.42-1.23,3.83,3.83,0,0,1-.73-.62l-.76-.54a5,5,0,0,0-1.32-.7l-1-.33a12.9,12.9,0,0,0-2.73-.58c-.42,0-.77-.14-1.19-.16a19.74,19.74,0,0,0-2.54-.13c-1.9.15-3.78.16-5.68.39-.26,0-.08.12-.47.18s-.86,0-1.25.07a1.74,1.74,0,0,0-1.07.28,11.34,11.34,0,0,0-1.7.95l-1.6,1.1c-.56.39-1.47,1.46-2,2-.23.21-.45.44-.68.67a9.82,9.82,0,0,0-1.13,1.52L114,18.7c-.32.77-.56.81-.7,1.32a3.69,3.69,0,0,1-.51.84l-.46.84c-.23.48-.77,1.44-.47,1.95.26,0,.63-.53.8-.72l.83-.74a3.94,3.94,0,0,1,2.19-.93c.41,0,1.08,0,1.44-.1,1-.19.62,0,1.37,0a26.45,26.45,0,0,0,3.08.05,24.83,24.83,0,0,1,3-.12c.18,0,.42.09.63.1a17.48,17.48,0,0,0,2.29,0c.93,0,2,.12,3,.15a16.69,16.69,0,0,0,3,0,18.38,18.38,0,0,1,3.06,0,3,3,0,0,0,.58.19,8.67,8.67,0,0,1,1.81.53,5.28,5.28,0,0,1,2.14,1,20.6,20.6,0,0,1,1.61,1.51l1.53,1.6a3.88,3.88,0,0,0,.33.44,3,3,0,0,1,1,1.31,2.28,2.28,0,0,1-.21,2.39c-.51.72-1.63.34-2.34.12a3.88,3.88,0,0,1-.86.53c-.26.12-.68.25-1,.39a19.07,19.07,0,0,1-1.83.88,15.57,15.57,0,0,0-3.82,1.58,4.94,4.94,0,0,0-.71.65c-.24.22-.49.38-.73.61l-.69.67-2.39,1a2.66,2.66,0,0,1-.45.23,6.81,6.81,0,0,1-1,.35,22.19,22.19,0,0,0-3.14.91l-.46.21a4.26,4.26,0,0,1-.54.14,5.46,5.46,0,0,1-1.11.25c-.74.14-1.56.35-2.3.42-.3,0-.33.07-.56.1l-1.84.18a11.62,11.62,0,0,1-2.57,0,6.73,6.73,0,0,1-1.73-.28l-2.44-.93c-.53-.25-1.15,0-1.67-.35-.25-.14-.21-.21-.39-.32a1,1,0,0,0-.75,1.09c0,.31,0,.24.19.4a7.93,7.93,0,0,0,2.25,1.51c.28.14.56.27.86.39a4.92,4.92,0,0,0,1,.3,8,8,0,0,0,1.2,0,17,17,0,0,1,2.3-.2c.8.06,1.59,0,2.4,0s1.37-.26,2.25-.29c.4,0,.74-.08,1.14-.09a30.93,30.93,0,0,0,4.48-.46,11.41,11.41,0,0,0,3.17-.56,12.21,12.21,0,0,0,2.53-1.16,2.56,2.56,0,0,0,.7-.54c.14-.14.16-.16.3-.32s1.9-1.76,2.3-2.07,1.05-1.09,1.58-.81a.51.51,0,0,1,.23.69,1.63,1.63,0,0,1-.58.42,6.46,6.46,0,0,0-1.09.93c-.74.63-1.39,1.19-2.09,1.91a3.43,3.43,0,0,1-.86.7,4.8,4.8,0,0,1-1.63.86c-.54.13-1,.41-1.49.53-.27,0-.55.14-.79.21a4,4,0,0,1-.9.11l-1.77.26c-.77.12-2.9.3-3.72.33-.63,0-1.23,0-1.85.14a7.57,7.57,0,0,1-.86.18,5.74,5.74,0,0,1-.93.07c-.59,0-1.24.05-1.91.05a10.57,10.57,0,0,0-2,.07c-.35.07-1.65.11-1.72.14,0,.2.42.51.62.7l.63.67a6.45,6.45,0,0,1,.58.72,4.44,4.44,0,0,0,1.09.88c.24.16.45.42.7.6a4.09,4.09,0,0,0,.75.54c.41.16.76.44,1.3.61s.55.25,1,.36a5.43,5.43,0,0,1,1,.31,4.41,4.41,0,0,0,1,.3c.32.07.21.11.46.21s.33.09.47.16.23.12.48.21l.91.37.23.09a4.17,4.17,0,0,0,1.21.38c.35,0,.9.06,1.26.06.23.47.29.5,0,1a6.73,6.73,0,0,1-2-.16c-1.13-.37-2-.79-3.13-1.24a8.8,8.8,0,0,0-.86-.25c-.28-.09-.49-.19-.79-.3s-.58-.14-.87-.23l-1.55-.65a6.85,6.85,0,0,1-1.93-1.35c-.11-.09-.19-.12-.33-.23a7.85,7.85,0,0,1-1.39-1.31c-.18-.2-.3-.41-.49-.6-.39-.42-.72-.67-1.09-1.11l-.81-.86c-.75-.7-1.47-.73-2.37-1.42-.47-.35-1.42-.88-1.68-1.59a2.8,2.8,0,0,1,.05-1.46c0-.21.09-.2.19-.34a2.56,2.56,0,0,1,.56-.52c.14-.11.67-.28.72-.39s0-.45.16-.72c.37-.61.53-1.38.86-2.05l.35-.9c.2-.4.32-.79.49-1.19l.64-1.07c.24-.32.54-.53.82-.84a3.54,3.54,0,0,1,.46-.37l.45-.37A9,9,0,0,1,117,27.9c.21-.09.29-.18.54-.28a11.5,11.5,0,0,0,1.7-.79c.11-.07.18-.07.28-.14.3-.14,1.67-1.18,2.25-1.49a2.4,2.4,0,0,0,.25-.18,7.89,7.89,0,0,1,1.4-.68,3.71,3.71,0,0,1,.56-.29c.21-.05.46-.08.67-.15a5.4,5.4,0,0,1,1.46-.28l1.45-.14c.58,0,1.09.05,1.62.05l1.53.1c.4,0,1.05.14,1.44.21s1,.09,1.52.16.95.16,1.41.25a6.73,6.73,0,0,1,1.35.31c.4.14.91.28,1.33.39l1.81.7a8.72,8.72,0,0,1,1.48,1,8.41,8.41,0,0,1,1.54,1.79c.56.74.81,1.37,2,1.28a2.07,2.07,0,0,0,0-1.47c-.23-.53-.81-.93-1.23-1.48s-.92-.93-1.3-1.35-.6-.6-.92-.9a4.66,4.66,0,0,0-.93-.82,12.54,12.54,0,0,0-2.54-1c-.23-.07-.51-.09-.77-.16l-.67-.21a19.66,19.66,0,0,0-3.41.07h-1.77a15.84,15.84,0,0,1-1.61-.18c-1.44-.16-2.94,0-4.39-.05a14.22,14.22,0,0,0-3.41,1l-1.26.49a8,8,0,0,0-3.37,2,17.42,17.42,0,0,1-2.76,2.6A15.52,15.52,0,0,0,112.47,30l-.45.44a14.47,14.47,0,0,0-1.36,1.35A10.57,10.57,0,0,0,110,33a2,2,0,0,0-.28.59,13.7,13.7,0,0,0-.28,1.48,1.93,1.93,0,0,1,0,.42c-.07.26,0,.17-.16.28a.64.64,0,0,1-.54,0c-.37-.25-.18-1-.13-1.42a5.07,5.07,0,0,1,.58-1.9l.28-.54a3.64,3.64,0,0,1,.36-.49A5.9,5.9,0,0,1,111,30.13l.79-.81c.6-.56,1-1.07,1.65-1.61.28-.25.63-.5.93-.72s.26-.25.44-.39a2.38,2.38,0,0,0,.4-.44,21,21,0,0,1,1.64-1.63c.21-.19.24-.16.47-.35a5.23,5.23,0,0,1,1.56-.88c.42-.16.79-.33,1.2-.47.22-.09,1-.32,1.1-.51-.17-.32-1-.11-1.4-.09-.53,0-1.06,0-1.57-.05a10,10,0,0,0-2.93.26,7,7,0,0,0-2.49,2,9.14,9.14,0,0,1-1,.9l-.74.86c-1.1,1.26-1.38,1.07-1.82,2.95h0c-.19.81,0,2.51-.21,3s-.74.63-.93.19a5.86,5.86,0,0,1,0-1.53c0-.42,0-1.09.1-1.51a11.59,11.59,0,0,1,.49-1.95,9.32,9.32,0,0,1,1.48-1.75c.26-.28.47-.6.75-.86s0-.69,0-1.16a3.38,3.38,0,0,1,.19-1.34c.25-.49.46-1.14.75-1.63a6.07,6.07,0,0,0,.62-1c.17-.37.47-.79.6-1l.91-1.47a1.74,1.74,0,0,1,.14-.27c.07-.1.09-.07.16-.19A14.18,14.18,0,0,1,116,14.52c.11-.1.3-.26.3-.42a3.73,3.73,0,0,1-.91-.23,11.13,11.13,0,0,1-1.74-.56,18.75,18.75,0,0,0-2.9-.53,14.23,14.23,0,0,0-2.07-.21,20.83,20.83,0,0,0-6.93,1.06c-.32.1-.64.1-.93.21s-.2.12-.39.19a13.23,13.23,0,0,0-2.65,1.35,10.1,10.1,0,0,1-1.13.6L95,17.16c-.25.15-.35.33-.65.49a1.17,1.17,0,0,0-.33.24l-.34.23a12.49,12.49,0,0,0-1.17,1.12,7,7,0,0,0-.65.81A12,12,0,0,0,91,21.18c-.14.22-.39.42-.25.72.26,0,1.25-.14,1.58-.18a26.94,26.94,0,0,1,4.93.14,18.08,18.08,0,0,1,2.72.42,7.63,7.63,0,0,1,1.5.69c.24.17.33.07.47.42a.52.52,0,0,1-.16.63c-.4.21-1.12-.37-1.51-.51-.22-.09-.28-.09-.49-.19-1-.46-4.72-.65-6-.65-.6,0-3.3.26-3.65.35a7.21,7.21,0,0,0-2.6,1.4c-.35.27-2.07,1.21-2.11,1.81.32,0,.34-.14.51-.35a4.91,4.91,0,0,1,1.58-1.05,7.49,7.49,0,0,1,2.93-.63,3.23,3.23,0,0,0,.74-.11L92.88,24c.35,0,.49-.07.77-.08a22.56,22.56,0,0,1,3.39,0,10.56,10.56,0,0,1,3.63.77,12.66,12.66,0,0,1,1.71.89,10.2,10.2,0,0,1,1.05.72c.33.32.65.51.95.81s.56.6.86.91.21,1-.35.92c-.34,0-.76-.56-1-.83a6.06,6.06,0,0,0-.7-.65c-.11-.1-.14-.08-.25-.17l-1-.74A10,10,0,0,0,98.2,25a33,33,0,0,0-6.72.06,5,5,0,0,1-.74.12,6,6,0,0,0-3.44.95c-1.07.59-.69.59-1,1.66a9.39,9.39,0,0,0,0,2.48c.34,0,.3-.32.5-.54s.08,0,.22-.3a17.92,17.92,0,0,1,1.22-1.76c.08-.1.12-.12.22-.24A1.55,1.55,0,0,1,89,27a8.85,8.85,0,0,1,1.45-.52l1.78-.25A22.57,22.57,0,0,1,96,26.16l1.76.21a3,3,0,0,1,1.52.51,31,31,0,0,1,3,2c.16.15.3.34.48.51a5.76,5.76,0,0,1,.89,1.13,11.32,11.32,0,0,0,1.67,1.82l.21.27c.16.17.12.08.25.28s.43.54.61.84a4.63,4.63,0,0,1,1.12,2.91,1.41,1.41,0,0,1-.24.78c-.37.68-1.44.68-2.07.91a18.06,18.06,0,0,1-5.41.58c-.67,0-1.19.09-1.81.14-.46,0-3.49.07-3.9,0s-1.12-.2-1.72-.27a9.64,9.64,0,0,1-1.65-.33,7.28,7.28,0,0,1-2.23-1.26A8.83,8.83,0,0,1,87.26,36a5.91,5.91,0,0,0-.47-.51,1.77,1.77,0,0,1-.21-.32c-.2-.28-.23-.1-.25-.09-.12.22.07.74.09,1a5.2,5.2,0,0,0,.65,1.7,3.79,3.79,0,0,0,.6.84l.37.53a5,5,0,0,0,.54.6c1.47,1.4,2.56,1.24,4.49,1.16.79-.06,1,.45.71.8s-.2.14-.44.16a10.2,10.2,0,0,1-1.11,0c-.4,0-.67.07-1.09,0a7.91,7.91,0,0,0-1-.11c0,.21.06.2.18.3a4.32,4.32,0,0,1,.42.51,3.82,3.82,0,0,0,2.6.7,7,7,0,0,1,.91,0,.5.5,0,0,1,0,1A8.72,8.72,0,0,1,90.86,44a4.11,4.11,0,0,1-1-.82c-.11-.13-.11-.14-.21-.27a3.71,3.71,0,0,1-.58-.82c-.25,0-.3.1-.41.24-.29.39-1.1,1.13-1.26,1.41-.23.44-.4.46-.58.72s-.07.23-.19.42a5.23,5.23,0,0,0-.39,4.3L87,51c.12.32,0,.21.23.44s.09.25.19.42c.3.51.74,1,1.09,1.51a6.27,6.27,0,0,0,.88,1.09,8,8,0,0,0,1,.86c1.72,1.09,2,.7,2.93,1l1.62.33q.32,0,.63,0c.42,0,.86,0,1.28,0l2.46.14a22.41,22.41,0,0,0,4.93-.23,20.11,20.11,0,0,1,2.51-.12l2.36-.24c1.61-.21,3.45.08,5-.21s3.15-.3,4.59-.67c.31-.09.89,0,1.24-.11s.78-.08,1.14-.16.76-.07,1.16-.14.74-.15,1.07-.22c1.48-.3,4-.78,5.38-1.18.33-.09.73-.14,1.08-.21a9.14,9.14,0,0,1,1.09-.21c.42,0,.7-.19,1.09-.23l2.25-.35c.7-.16,1.38-.35,2.07-.53.89-.24,1.21-.47,2-.68.57-.16,3.58-1.13,4-1.18s.7-.19,1-.26a8.81,8.81,0,0,1,2.28-.35,1.77,1.77,0,0,1,1.07.21,2.92,2.92,0,0,1,1.11,1.49c.05.18.14,1,.18,1.18a2.77,2.77,0,0,1-.62,2c-.07.09-.09.14-.14.21-.58.79-2.11,1.55-2.72,2.18a10.6,10.6,0,0,1-2.07,1.21c-.19.07-.19.14-.39.23l-.86.44a9.14,9.14,0,0,0-1.81.84c-.26.16-.56.33-.8.49a9.27,9.27,0,0,1-1.65.95,4.48,4.48,0,0,0-.88.42,11.27,11.27,0,0,1-1.34.63,1.83,1.83,0,0,1-.42.21,17.79,17.79,0,0,0-2.68,1.27c-.65.35-1.16.51-1.79.8-.16.07-.27.18-.43.25a14,14,0,0,1-3.3,1.23l-3.4.54c-.77.23-2.34.09-3.46.49l-1,.34a15.64,15.64,0,0,1-3.77.16c-.88,0-1.72.07-2.54.08a9.14,9.14,0,0,0-1.2.09,9.57,9.57,0,0,1-1.21.09c-.84,0-1.74,0-2.58,0-1.72,0-3.3-.21-5-.25-.82,0-1.65-.12-2.44-.17-1.49-.13-3.44.19-5,.15A4.81,4.81,0,0,1,92.3,67a6.46,6.46,0,0,1-1.42-.56c-.18-.1-.23-.16-.39-.24a6.22,6.22,0,0,1-.77-.53c-.14-.12-.25-.18-.39-.3s-.15-.19-.4-.21a5.4,5.4,0,0,0-.09,2.21,8.42,8.42,0,0,0,.65,1.74,6.68,6.68,0,0,0,1,1.41l.26.35.28.28c.56.58.46.82,1.13.19m6.93-1.12a5.84,5.84,0,0,1,1.26.56c.18.14.25.24.48.4a14.18,14.18,0,0,1,1.61,1.09c.35.32.67.48,1,.83.47.52.94.8,1.38,1.31l1,.88c.18.14.33.25.49.39a6.47,6.47,0,0,0,1.06.75A6.74,6.74,0,0,1,109,77.48c.2.26.07.38.46.38.19-.4.19-.33.61-.74a2.79,2.79,0,0,1,.92-.43,4,4,0,0,1,4,1.08,2.31,2.31,0,0,1,.89,1.78,2.88,2.88,0,0,1-.51,2.1,9.76,9.76,0,0,1-.49.86,5.78,5.78,0,0,1-.63.67,9.9,9.9,0,0,0-1.9,2.11c-.21.31-.26.58-.47.84a10.84,10.84,0,0,0-1.07,1.63M118,28.65a3.16,3.16,0,0,1,1-.45c.16-.09.37-.16.51-.23l.48-.26a4.29,4.29,0,0,0,.47-.32l2.21-1.47a10.26,10.26,0,0,1,3.23-1.2,18.86,18.86,0,0,1,3.5-.12l2.63.3c.19,0,.46,0,.69.05a20.48,20.48,0,0,1,3.68.68c.42.13,2.48.81,2.76,1a9.36,9.36,0,0,1,1.28.89l.56.58a6.45,6.45,0,0,1,.79,1c.42.53.6.63.23.84l-1,.44c-.26,0-.4-.14-.56-.23a4.14,4.14,0,0,0-.51-.21,22.54,22.54,0,0,0-3.79-.63,23.1,23.1,0,0,0-2.7-.26c-.88,0-1.76-.21-2.71-.21l-8.16.14-3.18-.2c-.26,0-.51-.07-.73-.08s-.41.12-.62-.06Zm-22,.64c-.37,0-.75.07-1.16.07s-.72.08-1.08.1a5.72,5.72,0,0,0-2.41.67c-.47.26-.84.54-1.12.7-.56.32-1.11.49-1.67.79a13.84,13.84,0,0,0-1.69.76c-.54.49-.42-.21-.31-.53s.16-.12.56-.63c.14-.18.19-.2.3-.34L88.65,29a2.4,2.4,0,0,1,.25-.37c.31-.44.08-.44,1-.86a12.19,12.19,0,0,1,3.07-.56,19.8,19.8,0,0,1,4.55.12,3.94,3.94,0,0,1,2.14.92l.39.24a2.78,2.78,0,0,0,.37.26c.17.11.26.06.28.25S96.53,29.23,96,29.29Z"/><path class="cls-18" d="M121.6,38.24c0-.28,0-.07-.12-.25a7.06,7.06,0,0,1-1.37-3.72c-.23-4,1-3.68,1.17-4.33-1.17,0-2.21-.18-3.42-.18-.28,0-.49-.05-.82-.05s-.58.05-.88.07c-.7,0-.55,0-1.25.54a6.25,6.25,0,0,0-1.6,2l-1.54,3.88c-.49,1.21.46.94.67,1a7.45,7.45,0,0,1,1.38.44c.39.12.85.37,1.29.53a14.07,14.07,0,0,0,4.93.37Z"/><path class="cls-18" d="M93.51,37.85c-.05-.21-.33-.47-.49-.72s-.26-.56-.4-.84a5.33,5.33,0,0,1,.08-4.18l.85-1.35c.12-.14.07,0,.14-.19-.32-.21-1.65.38-1.93.52s-.55.34-.81.5a27.88,27.88,0,0,1-2.58,1.26c-.65.25-1.69.4-1.39,1.16.09.23.46.46.62.63a9.7,9.7,0,0,0,1.93,2,7.1,7.1,0,0,0,1.72.86A9.72,9.72,0,0,0,93.51,37.85Z"/><path class="cls-18" d="M132.26,30.06c.07.3.15.12.61.72a6.35,6.35,0,0,1,1.23,2.16c.05.17,0,.4.14.54h.09c.23-.07.33-.49,1-.81l1.39-.59c.51-.21.95-.28,1.47-.51l1.06-.42c.22-.07.24,0,.29-.2a20.19,20.19,0,0,0-3.52-.58l-3.6-.35h-.06C132.26,30,132.34,30,132.26,30.06Z"/><path class="cls-18" d="M123.78,32.08c-.41.17-.69.07-1.09.59a1.81,1.81,0,0,0,.77,2.3,2.71,2.71,0,0,0,1.49.21,1.46,1.46,0,0,0,.11-2.82C124.8,32.22,124.13,31.92,123.78,32.08Z"/><path class="cls-18" d="M104.06,37.54a4.15,4.15,0,0,0,1.13-.28c1.58-.39,1.35-.25,1.21-1.44a9.53,9.53,0,0,0-1.69-2.64,15.51,15.51,0,0,0-1.42-1.4c0,.14.14.35.23.53a5.35,5.35,0,0,1,.21.68,4.08,4.08,0,0,1,.42,1.37,8.66,8.66,0,0,1,.19,1.6C104.29,36.52,104.05,37.19,104.06,37.54Z"/><path class="cls-18" d="M95.85,32.85c-.39.14-.93-.11-1.41.53a1.08,1.08,0,0,0-.12.56,1.46,1.46,0,0,0,.21,1.12,1,1,0,0,0,.9.46c.45,0,1,.07,1.31-.62C97.23,33.75,96.43,32.64,95.85,32.85Z"/><path class="cls-18" d="M129.69,30.76c-.4.16-.77.42-.63,1a1,1,0,0,0,1.11.58.76.76,0,0,0,.54-.94.79.79,0,0,0-.35-.48A.66.66,0,0,0,129.69,30.76Z"/><path class="cls-18" d="M129.06,33.68c-.84.35-.19,1.93.76,1.38S129.82,33.38,129.06,33.68Z"/><path class="cls-18" d="M100.5,31.62a.79.79,0,0,0,.28,1.56.72.72,0,0,0,.49-.94C101.18,31.9,100.87,31.52,100.5,31.62Z"/><path class="cls-18" d="M100,35.06a.7.7,0,0,0-.16.95.67.67,0,0,0,1.16-.68.38.38,0,0,0-.34-.3A1.31,1.31,0,0,0,100,35.06Z"/><path class="cls-19" d="M147.65,45.61c-.35.44-.79.11-1.19-.09a9,9,0,0,0-2.81-.5c-.79-.11-.77-.14-.79-.5-.05-.72.72-.52,1.44-.49.51,0,1,.14,1.47.2a4.53,4.53,0,0,1,1.29.38c.36.21.84.37.59,1Zm-21.91,14c-1.68,0-3.23-.07-4.93.07a10.55,10.55,0,0,0-1.07.19,6.25,6.25,0,0,0-1.11.2l-3.1.75a26.4,26.4,0,0,1-3.43.44c-.45,0-.66.09-1.1.12s-.83,0-1.21.09c-3.15.46-5.53,0-8.57.26a32.51,32.51,0,0,1-4,0c-.86,0-1.6-.18-2.49-.18a11.9,11.9,0,0,1-2.64-.19,4.75,4.75,0,0,1-.54-.14,5.29,5.29,0,0,1-1.39-.74l-.72-.68a5.79,5.79,0,0,0-1.12-1,1.28,1.28,0,0,1-.44-.28c-.14-.1-.26-.19-.39-.3-.38-.33-.42-.56-.68.07s-.51.32-.35,1.69A3.23,3.23,0,0,0,87,61.13l.18.19c.12.13.09,0,.19.18l.42.63c.12.16.21.18.37.32s.12.16.28.4a6.86,6.86,0,0,0,1.18,1.53c.12.09.3.19.44.28s.49.4.77.58.56.32.86.49a4.4,4.4,0,0,0,1,.37,6.41,6.41,0,0,0,3.62.28l2.95-.14c.63,0,1.15.14,1.77.16,2.49.1,5,.35,7.44.31l1.51,0a11.88,11.88,0,0,0,1.35-.12c1.93-.12,3.9-.07,5.83-.11a4,4,0,0,0,1.25-.23,5.05,5.05,0,0,1,1.17-.33,9.93,9.93,0,0,1,1.27-.24c.45,0,.93,0,1.37-.07a9.72,9.72,0,0,1,1.28-.23,11,11,0,0,0,1.28-.18,14.13,14.13,0,0,0,2.42-.54c.35-.16.72-.28,1.07-.44a10.42,10.42,0,0,0,1-.51c.55-.3,1.94-.81,2.5-1.19l1.49-.74c.32-.12.79-.27,1.09-.42l1.95-1c.15-.09.35-.14.51-.23l.52-.25c.62-.33,2.3-1.54,2.78-1.68a2.85,2.85,0,0,0,1.08-.42,8.51,8.51,0,0,1,1-.53l.72-.38a.87.87,0,0,1,.21-.15,3.48,3.48,0,0,0,.93-.57,10.88,10.88,0,0,1,1.74-1.29,2.91,2.91,0,0,0,1-1.14c.37-.89.39-.52.2-1.81a2.32,2.32,0,0,0-.51-1c-.51-.72-2.81.21-3.64.3a1.51,1.51,0,0,0-.56.16L140,52a4.13,4.13,0,0,0-.63.14c-.33.11-.84.23-1.12.35a8.13,8.13,0,0,1-1.09.42,21.12,21.12,0,0,1-2.37.6,8.26,8.26,0,0,0-1.26.25c-.39.08-.92.08-1.34.15-.26.06-.31.11-.58.16s-.44,0-.67.07c-.45.05-.77.19-1.24.27s-.7.24-1.16.29l-2.42.55c-.37.12-2.13.35-2.53.49a2.53,2.53,0,0,1-.58.16l-.67.1c-.87.11-1.75.28-2.65.34l-2.61.38c-.85.18-1.81.11-2.64.34a15.18,15.18,0,0,1-3.47.14c-.46,0-.86,0-1.3.07s-.79.14-1.25.14c-1.26,0-2.46.12-3.74.26-.42.05-.75.05-1.19.07-.81,0-1.55.19-2.34.19H99.94c-.86,0-2.44-.21-3.64-.21a13,13,0,0,1-1.4,0L91.65,57l-.91-.37a8,8,0,0,1-1.91-1.42c-.18-.16-.16-.08-.36-.32-.38-.51-1.35-1.74-1.66-2.25a18.56,18.56,0,0,1-1.3-2.7,12.65,12.65,0,0,1-.41-1.58l-.1-.51a.06.06,0,0,0,0,0c-.21.06-.35.39-.47.58a3.41,3.41,0,0,0-.37.67c-.28.79-.49.72-.63,1.46a3.88,3.88,0,0,0,1.21,2.91l.24.28c.18.21.13.11.28.25l.53.53c.69.64,1.21,1.73,1.86,2.3.21.19.33.33.53.52a4.68,4.68,0,0,0,.61.49l.32.2.86.7c.19.17.31.35.51.53s.37.31.54.49a3,3,0,0,0,.69.35,4.06,4.06,0,0,0,.8.24c1.44.25,4.16.11,5.94.39a23.67,23.67,0,0,0,4-.16h1.19c.33,0,.67-.07.88-.07a16.57,16.57,0,0,1,1.86.11,14.43,14.43,0,0,0,3.47-.16l2.25-.25a10.78,10.78,0,0,0,2.25-.24,9.18,9.18,0,0,1,1.09-.18c.66-.12,1.35-.37,2-.49a7,7,0,0,0,1-.25l2.12-.36c.78-.06,1.58-.07,2.32-.16a25.12,25.12,0,0,1,2.6,0l2-.23c.23,0,.37-.12.6-.17s.93-.14,1.29-.19l1.29-.25c.22,0,.37-.14.54-.19s.4-.11.6-.18.31-.14.52-.21.34-.17.53-.24c.4-.16.72-.22,1.16-.36l1.67-.61a9,9,0,0,1,1.7-.58,20,20,0,0,0,2.39-.63c1.21-.39,2.74-2,3.32-2,.26,0,.42.13.42.37,0,.69-2.74,2.44-3.46,2.58l-3.53,1c-.3.13-.77.37-1.09.48a22.68,22.68,0,0,0-2.28.74,10.75,10.75,0,0,1-2.28.79c-.41.05-.86.21-1.21.28a3.93,3.93,0,0,0-1.29.23,17.74,17.74,0,0,1-2.65.4ZM100,35.06c-.3.14-.32.67-.18.95a.67.67,0,0,0,1.16-.68.38.38,0,0,0-.34-.3,1.24,1.24,0,0,0-.64,0Zm29-1.38c-.82.35-.17,1.93.76,1.38s0-1.68-.76-1.38Zm-33.21-.83c-.39.16-.93-.11-1.41.51a.78.78,0,0,0-.12.56c0,.47,0,.84.21,1.12a1,1,0,0,0,.9.46c.45,0,1,.07,1.31-.61.49-1.14-.31-2.25-.89-2Zm27.93-.77c-.41.16-.69.05-1.09.58a1.82,1.82,0,0,0,.77,2.3,2.8,2.8,0,0,0,1.49.21,1.46,1.46,0,0,0,.11-2.83c-.26-.12-1-.4-1.28-.26Zm-23.28-.46a.79.79,0,0,0,.28,1.55.73.73,0,0,0,.49-1c-.09-.3-.4-.7-.77-.6Zm4.69,5.64c1.58-.39,1.35-.25,1.19-1.43a9.33,9.33,0,0,0-1.69-2.63,13.31,13.31,0,0,0-1.42-1.4c0,.14.14.35.23.52a3.63,3.63,0,0,1,.21.69,3.2,3.2,0,0,1,.42,1.37,9.45,9.45,0,0,1,.2,1.59c0,.55-.28,1.22-.27,1.57a5,5,0,0,0,1.13-.28Zm24.5-6.5c-.4.16-.75.42-.63,1a1,1,0,0,0,1.11.58.78.78,0,0,0,.54-1,.79.79,0,0,0-.35-.48.65.65,0,0,0-.67-.12ZM93.51,37.85c0-.21-.33-.45-.49-.68s-.26-.56-.4-.84a5.33,5.33,0,0,1,.08-4.18l.85-1.35c.12-.14.07,0,.14-.2-.34-.21-1.65.39-1.93.53s-.55.33-.81.49a25.69,25.69,0,0,1-2.58,1.27c-.65.24-1.69.38-1.39,1.15.09.23.46.44.62.64a9.66,9.66,0,0,0,1.93,2,6.44,6.44,0,0,0,1.72.86,13.28,13.28,0,0,0,2.26.35Zm39.36-7.07a6.56,6.56,0,0,1,1.21,2.14,2.13,2.13,0,0,0,.14.54h.09c.23-.07.32-.47,1.05-.8.48-.23.86-.39,1.39-.6s.95-.28,1.48-.51l1.05-.42c.23-.07.26,0,.3-.19a17.94,17.94,0,0,0-3.53-.58l-3.6-.35h0c-.13,0-.06,0-.14,0,.07.3.15.1.61.72Zm-12.81,7.71,1.56-.25c-.05-.26,0-.05-.12-.25a6.74,6.74,0,0,1-1.37-3.72c-.23-4,1-3.68,1.17-4.33-1.19,0-2.23-.18-3.42-.18-.28,0-.49-.05-.83-.05s-.56.05-.87.07c-.71,0-.55,0-1.25.54a6.12,6.12,0,0,0-1.6,2l-1.54,3.88c-.49,1.21.47.94.66,1a6.12,6.12,0,0,1,1.39.44c.39.11.83.37,1.28.53a14.14,14.14,0,0,0,4.94.37ZM100.66,29c-.11.07-4.13.19-4.71.25-.37,0-.75.07-1.16.07s-.72.08-1.08.1a5.72,5.72,0,0,0-2.41.67c-.47.26-.84.54-1.12.7-.56.32-1.11.49-1.67.79a13.84,13.84,0,0,0-1.69.76c-.54.49-.42-.21-.31-.53s.16-.12.56-.63c.14-.18.19-.2.3-.34L88.65,29a2.4,2.4,0,0,1,.25-.37c.31-.44.08-.44,1-.86a12.19,12.19,0,0,1,3.07-.56,19.8,19.8,0,0,1,4.55.12,3.94,3.94,0,0,1,2.14.92l.39.24a2.78,2.78,0,0,0,.37.26c.17.11.26.06.28.25ZM118,28.65a3.16,3.16,0,0,1,1-.45c.16-.09.37-.16.51-.23l.48-.26a4.29,4.29,0,0,0,.47-.32l2.21-1.47a10.26,10.26,0,0,1,3.23-1.2,18.86,18.86,0,0,1,3.5-.12l2.63.3c.19,0,.46,0,.69.05a20.48,20.48,0,0,1,3.68.68c.42.13,2.48.81,2.76,1a9.36,9.36,0,0,1,1.28.89l.56.58a6.45,6.45,0,0,1,.79,1c.42.53.6.63.23.84l-1,.44c-.26,0-.4-.14-.56-.23a4.14,4.14,0,0,0-.51-.21,22.54,22.54,0,0,0-3.79-.63,23.1,23.1,0,0,0-2.7-.26c-.88,0-1.76-.21-2.71-.21l-8.16.14-3.18-.2c-.26,0-.51-.07-.73-.08s-.41.12-.62-.06Zm-6.53,64.62.53.78c.82,1.16.45.82,1.4,1.28.2.1.35.09.51.17s.19.18.46.21c.54.09.28.09.95.36a7.62,7.62,0,0,1,1,.36,3.55,3.55,0,0,0,.94.34c.32.09.79.16,1.09.26.92.33,4,.19,5.2.19.74,0,.67.18,1.09.18.82,0,8.18-.09,8.69.07a6.53,6.53,0,0,0,1.88.09c.56,0,.65.19,1.14.21a11.3,11.3,0,0,1,2.4.24,54.86,54.86,0,0,0,6.53,0c.84-.38,2.34,0,3.16-.17a13.45,13.45,0,0,1,1.9-.11,10,10,0,0,1,1.16-.19,3.53,3.53,0,0,0,.65,0c.26,0,.31-.12.54-.14s.46,0,.67,0,.26-.12.52-.16.41,0,.64,0a1.81,1.81,0,0,1,.51-.13c.36,0,.28.06.56-.08s.3-.07.58-.11.29-.12.52-.14.42,0,.63,0a9.71,9.71,0,0,0,2-.65c.41-.16.85-.14,1.11-.24s.72-.16,1.07-.29a19.84,19.84,0,0,0,1.93-.72c.18-.07.35-.07.53-.14,1-.35,1.28-.75,1.79-.91l.49-.17a10.82,10.82,0,0,1,1.83-.85,4.89,4.89,0,0,0,.86-.49l1.65-1a5.22,5.22,0,0,0,1.51-1.14c.26-.28.44-.4.66-.68s.39-.39.62-.69A8.14,8.14,0,0,1,174,88a7.88,7.88,0,0,0,.6-.75l.7-1.34a7.1,7.1,0,0,1,.53-1.46A1.48,1.48,0,0,0,176,84a1.14,1.14,0,0,1,.21-.4c0-.09.19-.86.28-1.07A8.31,8.31,0,0,0,176.9,81a3,3,0,0,1,0-.61c.07-.28.14-.16.14-.55l.23-1.81c.35-.73,0-1.63-.07-2.3s.12,0-.14-1.05c-.05-.23,0-.4-.05-.63s-.11-.32-.14-.55a7.35,7.35,0,0,0-.09-1.21,1.71,1.71,0,0,1-.07-.61c0-.42-.07-.26-.14-.53a24.85,24.85,0,0,0-.16-2.54c-.11-.35,0-.78-.12-1.18-.18-.79,0-1.68-.21-2.49-.06-.23,0-.41-.06-.63s-.08-.81-.14-1.22l-.35-1.61c-.1-.63-.17-.16-.17-1.19,0-.5-.16-.78-.16-1.2s-.05-.23-.14-.52a7.86,7.86,0,0,0-.28-1.69c-.13-.37,0-.84-.11-1.21-.05-.21-.1-.32-.14-.55a9.2,9.2,0,0,0-.14-1.21c-.05-.24,0-.37-.05-.58a4.27,4.27,0,0,1-.16-.5c0-.22,0-.43-.07-.62a5,5,0,0,0-.09-.58c-.07-.24-.1-.1-.16-.51a8.53,8.53,0,0,0-.31-1,9.91,9.91,0,0,0-.44-1.53,4.78,4.78,0,0,1-.53-1.46,3.45,3.45,0,0,0-.31-1,2.46,2.46,0,0,1-.13-.57c0-.08-.14-.31-.17-.43l-.6-1.44a14.43,14.43,0,0,1-.63-1.41c-.14-.42-.32-.4-.4-.89a3.6,3.6,0,0,0-.43-.93l-.87-1.78a12.29,12.29,0,0,1-.65-1.31,9.87,9.87,0,0,1-.74-1.3,5,5,0,0,0-.44-.9,2.94,2.94,0,0,1-.47-.84c-.2-.7-.63-1.16-.88-1.83L165.24,31c-.16-.21-.07-.23-.17-.44s-.39-.56-.53-.82c-.25-.42-.82-1.28-1-1.7a11.93,11.93,0,0,0-.86-1.8,2.75,2.75,0,0,1-.26-.4,4,4,0,0,0-.23-.39c-.18-.29-.27-.59-.44-.91s-.16-.16-.26-.42l-.71-1.28c-.3-.48-.86-1.16-1.09-1.63a4.81,4.81,0,0,0-.52-.78,6.58,6.58,0,0,1-.49-.86,4.41,4.41,0,0,1-.53-.75,2.49,2.49,0,0,0-.56-.79c-.44-.44-.3-.44-.55-.76a1.52,1.52,0,0,0-.35-.31l-.33-.34a5.49,5.49,0,0,1-.65-.7c-.58-.81,0-.16-.65-.68a4.72,4.72,0,0,1-.54-.76,5.06,5.06,0,0,0-.57-.79l-1.24-1.4a8.75,8.75,0,0,1-1.78-2.23c-.14-.3-.31-.55-.47-.88a7.75,7.75,0,0,1-.44-.86A15.54,15.54,0,0,0,148.37,6a8.18,8.18,0,0,1-.51-.79,5,5,0,0,0-.65-.71c-1.35-1.44-1.37-1-2.33-1.66-.63-.44-1.18-.62-1.7-.95a2,2,0,0,0-.93-.42A16.82,16.82,0,0,0,138.72,1a22.12,22.12,0,0,0-5.08.09c-.77.14-1.65.12-2.42.24a9.7,9.7,0,0,0-3.91,1.44,18,18,0,0,0-2.23,1.78l-.58.72a11.07,11.07,0,0,0-1,1.72,7.43,7.43,0,0,0-.81,1.84c-.12.77-.49,1.44,0,1.42a9.14,9.14,0,0,0,1.82-.21,56.64,56.64,0,0,1,6.2-.47l2.53.14A20.4,20.4,0,0,1,138.68,11a5.22,5.22,0,0,1,.83.47c.7.42,1,.85,1.49,1.16a4.85,4.85,0,0,0,.4.28c.35.21.58.62,1,1,.62.47,1.49.75,1.39,1.33-.07.42-.62.41-.93.2a8.23,8.23,0,0,1-.78-.53,17.1,17.1,0,0,0-1.42-1.23A4.2,4.2,0,0,1,140,13c-.23-.18-.51-.37-.76-.55a5,5,0,0,0-1.32-.7l-1-.33a12.9,12.9,0,0,0-2.73-.58c-.42,0-.77-.14-1.19-.16a18.07,18.07,0,0,0-2.54-.12c-1.9.14-3.78.15-5.67.38-.27,0-.09.12-.48.18s-.86.05-1.25.07a1.74,1.74,0,0,0-1.07.28,11.34,11.34,0,0,0-1.7.95l-1.6,1.1c-.56.39-1.47,1.46-2,2-.23.21-.45.44-.68.67a9.82,9.82,0,0,0-1.13,1.52l-.75,1.11c-.32.77-.56.81-.7,1.32a3.69,3.69,0,0,1-.51.84l-.46.84c-.23.48-.77,1.44-.47,1.95.26,0,.63-.53.81-.72l.82-.74a3.94,3.94,0,0,1,2.19-.93c.41,0,1.08,0,1.44-.1,1-.19.62,0,1.37,0a26.45,26.45,0,0,0,3.08.05,24.83,24.83,0,0,1,3-.12c.18,0,.42.09.63.1a17.48,17.48,0,0,0,2.29,0c.93,0,2,.12,3,.15a16.79,16.79,0,0,0,3,0,18.26,18.26,0,0,1,3,0,3,3,0,0,0,.58.19,8.67,8.67,0,0,1,1.81.53,5.28,5.28,0,0,1,2.14,1,19,19,0,0,1,1.61,1.51l1.53,1.6a3.88,3.88,0,0,0,.33.44,2.89,2.89,0,0,1,1,1.31,2.28,2.28,0,0,1-.21,2.39c-.51.72-1.63.34-2.33.13a4.74,4.74,0,0,1-.87.52c-.26.12-.68.25-1,.39a19.07,19.07,0,0,1-1.83.88,15.57,15.57,0,0,0-3.82,1.58,4.94,4.94,0,0,0-.71.65c-.24.22-.49.38-.73.61l-.69.67-2.38,1a3.27,3.27,0,0,1-.46.23,6.44,6.44,0,0,1-1,.35,22.58,22.58,0,0,0-3.14.91l-.46.21a4.26,4.26,0,0,1-.54.14,5.46,5.46,0,0,1-1.11.25c-.74.14-1.56.35-2.3.42-.3,0-.33.07-.56.1l-1.84.18a11.62,11.62,0,0,1-2.57,0,6.73,6.73,0,0,1-1.73-.28l-2.44-.93c-.53-.25-1.15,0-1.67-.35-.25-.14-.21-.21-.39-.32a1,1,0,0,0-.75,1.09c0,.31,0,.24.19.4a7.93,7.93,0,0,0,2.25,1.51c.28.14.56.27.86.39a4.92,4.92,0,0,0,1,.3,8,8,0,0,0,1.2,0,17,17,0,0,1,2.3-.2c.8.06,1.59,0,2.4,0s1.37-.26,2.25-.29c.4,0,.74-.07,1.14-.09a30.93,30.93,0,0,0,4.48-.46,11.41,11.41,0,0,0,3.17-.56,12.21,12.21,0,0,0,2.53-1.16,2.56,2.56,0,0,0,.7-.54c.14-.14.16-.16.3-.32s1.9-1.75,2.3-2.07,1.05-1.09,1.58-.81a.51.51,0,0,1,.23.69,1.63,1.63,0,0,1-.58.42,6.46,6.46,0,0,0-1.09.93c-.74.63-1.38,1.19-2.09,1.91a3.43,3.43,0,0,1-.86.7,4.8,4.8,0,0,1-1.63.86c-.54.13-1,.41-1.49.53-.27,0-.55.14-.79.21a4,4,0,0,1-.9.11l-1.77.26c-.77.12-2.9.3-3.72.33-.63,0-1.23,0-1.85.14a7.57,7.57,0,0,1-.86.18,5.74,5.74,0,0,1-.93.07c-.59,0-1.24.05-1.91.05a10.57,10.57,0,0,0-2,.07c-.35.07-1.65.11-1.72.14,0,.2.42.51.62.71l.63.66a6.45,6.45,0,0,1,.58.72,4.44,4.44,0,0,0,1.09.88c.24.16.45.42.7.6a4.09,4.09,0,0,0,.75.54c.41.16.76.44,1.3.62s.55.24,1,.35a5.43,5.43,0,0,1,1,.31,4.41,4.41,0,0,0,1,.3c.32.07.21.11.46.21s.33.09.47.16.23.12.48.21l.91.37.23.09a4.17,4.17,0,0,0,1.21.38c.35,0,.9.06,1.26.06.23.47.29.5,0,1a6.76,6.76,0,0,1-2-.16c-1.13-.37-2-.79-3.13-1.24a8.8,8.8,0,0,0-.86-.25c-.28-.09-.49-.19-.79-.3s-.58-.14-.87-.23l-1.55-.65a6.85,6.85,0,0,1-1.93-1.35c-.11-.09-.19-.12-.33-.23a7.85,7.85,0,0,1-1.39-1.31c-.18-.2-.3-.41-.49-.6-.39-.42-.72-.67-1.09-1.1l-.81-.87c-.75-.7-1.47-.73-2.37-1.42-.47-.35-1.42-.87-1.68-1.59a2.8,2.8,0,0,1,0-1.46c0-.21.09-.19.19-.34a2.56,2.56,0,0,1,.56-.52c.14-.11.67-.28.72-.39s0-.45.16-.72c.37-.61.53-1.38.86-2.05L112,33c.2-.4.32-.79.49-1.19l.64-1.07c.24-.32.54-.53.82-.84a3.54,3.54,0,0,1,.46-.37l.45-.37A9,9,0,0,1,117.11,28c.21-.09.29-.18.54-.28a11.5,11.5,0,0,0,1.7-.79c.11-.07.18-.07.28-.14.3-.14,1.67-1.18,2.25-1.49a2.4,2.4,0,0,0,.25-.18,7.89,7.89,0,0,1,1.4-.68,2.93,2.93,0,0,1,.56-.28c.21-.06.46-.09.67-.16a5.4,5.4,0,0,1,1.46-.28l1.45-.14c.58,0,1.09.05,1.62.05l1.53.1c.4,0,1.05.14,1.44.21s1,.09,1.52.16.95.16,1.41.25a6.58,6.58,0,0,1,1.35.31c.4.14.91.29,1.33.39l1.81.7a8.72,8.72,0,0,1,1.48,1,8.41,8.41,0,0,1,1.54,1.79c.56.74.81,1.37,2,1.28a2.07,2.07,0,0,0,0-1.47c-.23-.53-.81-.93-1.23-1.48s-.92-.93-1.3-1.35-.6-.6-.92-.9a4.66,4.66,0,0,0-.93-.82,12.54,12.54,0,0,0-2.54-1c-.23-.07-.51-.09-.77-.16l-.67-.21a19.66,19.66,0,0,0-3.41.07h-1.77a15.84,15.84,0,0,1-1.61-.18c-1.44-.16-2.94,0-4.39-.05a14.22,14.22,0,0,0-3.41,1l-1.26.49a8,8,0,0,0-3.37,2,17.42,17.42,0,0,1-2.76,2.6,15.52,15.52,0,0,0-1.81,1.72l-.45.44a14.47,14.47,0,0,0-1.36,1.35,10.57,10.57,0,0,0-.65,1.13,2,2,0,0,0-.28.59,13.7,13.7,0,0,0-.28,1.48,1.86,1.86,0,0,1,0,.42c-.07.26,0,.17-.16.28a.64.64,0,0,1-.54,0c-.37-.25-.18-1-.13-1.42a5.07,5.07,0,0,1,.58-1.9l.28-.54a3.64,3.64,0,0,1,.36-.49,5.9,5.9,0,0,1,1.19-1.25l.79-.81c.6-.56,1-1.07,1.65-1.61.28-.25.63-.49.93-.72s.26-.25.44-.39a2.1,2.1,0,0,0,.4-.44,21,21,0,0,1,1.64-1.63c.21-.19.24-.16.47-.35a5.23,5.23,0,0,1,1.56-.88c.42-.16.79-.33,1.2-.47.22-.09,1-.32,1.1-.51-.17-.32-1-.11-1.4-.09-.53,0-1.06,0-1.57-.05a10,10,0,0,0-2.93.26,7,7,0,0,0-2.49,2,9.14,9.14,0,0,1-1,.9l-.74.86c-1.1,1.26-1.38,1.07-1.82,2.95-.18.81,0,2.49-.14,3.07s-.74.63-.93.19a6.25,6.25,0,0,1,0-1.52c0-.42,0-1.09.1-1.51a11.35,11.35,0,0,1,.49-1.95,9.08,9.08,0,0,1,1.48-1.76c.26-.28.47-.59.75-.86s0-.68,0-1.16a3.33,3.33,0,0,1,.19-1.33c.25-.49.46-1.14.75-1.63a7,7,0,0,0,.62-1c.17-.37.47-.79.6-1l.91-1.48a2.26,2.26,0,0,1,.14-.26c.07-.11.09-.07.16-.19a13.71,13.71,0,0,1,1.84-2.16c.11-.11.3-.27.3-.42a4.25,4.25,0,0,1-.91-.23,12.3,12.3,0,0,1-1.74-.56,17.63,17.63,0,0,0-2.9-.53,13,13,0,0,0-2.07-.21,21.08,21.08,0,0,0-6.93,1.05c-.32.11-.64.11-.93.21s-.2.13-.39.2a12.26,12.26,0,0,0-2.65,1.35c-.32.24-.77.38-1.12.59l-1.69,1.18a7.33,7.33,0,0,1-.65.49,1.4,1.4,0,0,0-.33.25l-.34.23a12.49,12.49,0,0,0-1.17,1.12,5.62,5.62,0,0,0-.65.81,11.86,11.86,0,0,0-.86,1.12c-.14.23-.39.42-.25.72.26,0,1.25-.14,1.58-.17a26.94,26.94,0,0,1,4.93.14,17.18,17.18,0,0,1,2.73.42,8.45,8.45,0,0,1,1.49.68c.24.18.33.07.47.42a.54.54,0,0,1-.16.64c-.4.21-1.12-.37-1.51-.51a4.19,4.19,0,0,1-.49-.2c-1-.45-4.72-.65-6-.65-.6,0-3.3.27-3.65.35a7.23,7.23,0,0,0-2.6,1.41c-.35.26-2.07,1.21-2.11,1.81.32,0,.34-.14.51-.35a4.78,4.78,0,0,1,1.58-1.06,7.87,7.87,0,0,1,2.93-.63,3.36,3.36,0,0,0,.74-.1L93,24.09a7.13,7.13,0,0,0,.77-.09,25.56,25.56,0,0,1,3.39,0,10.67,10.67,0,0,1,3.64.77,13.27,13.27,0,0,1,1.7.9,10.2,10.2,0,0,1,1,.72c.33.32.65.51,1,.81s.56.59.86.91.21,1-.35.91c-.34,0-.76-.56-1-.82a5.29,5.29,0,0,0-.7-.65c-.11-.11-.14-.09-.25-.18l-1-.73a10,10,0,0,0-3.77-1.53,33,33,0,0,0-6.72.05,4,4,0,0,1-.74.12,6.19,6.19,0,0,0-3.44.95c-1.07.6-.69.6-1,1.67a8.89,8.89,0,0,0,0,2.47c.33,0,.29-.31.49-.54s.08,0,.22-.3a17.8,17.8,0,0,1,1.22-1.75c.08-.11.12-.13.22-.25a1.76,1.76,0,0,1,.57-.42,8.86,8.86,0,0,1,1.45-.53l1.78-.24a21.55,21.55,0,0,1,3.77-.07l1.76.21a3,3,0,0,1,1.52.51,29.25,29.25,0,0,1,3,2c.16.14.3.33.48.51a5.42,5.42,0,0,1,.89,1.12,11,11,0,0,0,1.67,1.83c.09.1.14.17.21.26s.12.09.25.28.44.55.61.85a4.6,4.6,0,0,1,1.12,2.91,1.38,1.38,0,0,1-.24.77c-.37.69-1.44.69-2.07.91a18.06,18.06,0,0,1-5.41.58c-.67,0-1.19.09-1.81.14-.45,0-3.49.07-3.9,0s-1.12-.19-1.72-.26a9.84,9.84,0,0,1-1.65-.33,7.31,7.31,0,0,1-2.23-1.27,7.85,7.85,0,0,1-1.21-1.23,5.8,5.8,0,0,0-.47-.51c-.11-.1-.12-.19-.21-.31-.19-.28-.23-.11-.25-.09-.12.21.07.74.09,1a5.25,5.25,0,0,0,.65,1.71,3.79,3.79,0,0,0,.6.84l.37.52a5,5,0,0,0,.54.6c1.47,1.41,2.56,1.25,4.49,1.16.79-.05,1,.46.71.81-.16.19-.2.14-.44.16-.39,0-.71,0-1.11,0s-.67.07-1.09,0a7.8,7.8,0,0,0-1-.1c0,.21.06.19.18.3a3.64,3.64,0,0,1,.42.51,3.88,3.88,0,0,0,2.6.7c.23,0,.72-.05.91,0a.5.5,0,0,1,0,1A8.72,8.72,0,0,1,91,44.07a4.38,4.38,0,0,1-1-.83c-.11-.12-.11-.14-.21-.26a3.73,3.73,0,0,1-.58-.83c-.25,0-.3.11-.41.25-.29.39-1.1,1.12-1.26,1.4-.23.44-.4.46-.58.72s-.07.23-.19.43a5.23,5.23,0,0,0-.39,4.3l.79,1.86c.13.31,0,.21.23.44s.09.24.19.42c.3.51.74,1,1.09,1.51a7.12,7.12,0,0,0,.88,1.09,8.92,8.92,0,0,0,1,.86c1.72,1.08,2,.7,2.93,1l1.62.34.63,0c.42,0,.86,0,1.28,0l2.46.14a23,23,0,0,0,4.93-.23,18.37,18.37,0,0,1,2.51-.12l2.36-.25c1.61-.21,3.46.09,5-.21s3.14-.3,4.58-.67c.31-.08.89,0,1.24-.1s.78-.09,1.14-.16.76-.07,1.16-.14.74-.16,1.07-.23c1.48-.3,4-.77,5.38-1.17.33-.09.73-.15,1.08-.22s.65-.15,1.09-.21.7-.19,1.09-.22l2.25-.36c.7-.15,1.38-.35,2.07-.52.89-.25,1.21-.48,2-.69.58-.15,3.58-1.12,4-1.17s.7-.2,1-.27a9.75,9.75,0,0,1,2.28-.35,1.77,1.77,0,0,1,1.07.21,3,3,0,0,1,1.11,1.5c.05.17.14,1,.18,1.17a2.8,2.8,0,0,1-.62,2,1.91,1.91,0,0,0-.14.21c-.58.79-2.11,1.54-2.72,2.17a9.86,9.86,0,0,1-2.07,1.21c-.19.07-.19.14-.39.23l-.86.44a9.14,9.14,0,0,0-1.81.84l-.8.5a9.25,9.25,0,0,1-1.65.94,4.48,4.48,0,0,0-.88.42,11.6,11.6,0,0,1-1.34.64,2.35,2.35,0,0,1-.42.21,17.25,17.25,0,0,0-2.68,1.26c-.65.35-1.16.51-1.79.81-.16.07-.27.17-.42.24a13.82,13.82,0,0,1-3.31,1.23l-3.4.55c-.77.23-2.34.09-3.46.49l-1,.33a15.75,15.75,0,0,1-3.78.16c-.88,0-1.72.07-2.54.09a7.69,7.69,0,0,0-1.2.09,9.58,9.58,0,0,1-1.21.08c-.84.06-1.74,0-2.58,0-1.72,0-3.3-.21-5-.24-.82,0-1.65-.13-2.44-.18-1.49-.12-3.44.19-5,.16a4.81,4.81,0,0,1-2.25-.37A6.46,6.46,0,0,1,91,66.54c-.18-.11-.23-.16-.39-.25a6.13,6.13,0,0,1-.77-.52c-.14-.13-.24-.18-.39-.3s-.15-.2-.4-.21A5.57,5.57,0,0,0,89,67.47a8.42,8.42,0,0,0,.65,1.74,6.88,6.88,0,0,0,1,1.4l.26.35.28.28m7-57.23c-.19-.26-.09-.22,0-.4a1.57,1.57,0,0,0,.22-.47,4.44,4.44,0,0,1,.47-.83,4.4,4.4,0,0,1,.53-.77,6.21,6.21,0,0,0,.45-.84c.14-.32.32-.5.49-.81.37-.65.92-1.41,1.25-2,.12-.24,0,0,.14-.16L103,6A5.25,5.25,0,0,1,104.2,4.6a7,7,0,0,1,1.57-1l.89-.41c.23-.19,0-.1.4-.26s1.5-.75,2.22-1c.33-.14,2.77-.18,3.61-.27h2.6a3.31,3.31,0,0,1,.62.05c.29,0,.07.07.5.12a9.27,9.27,0,0,1,1.83.76,2.57,2.57,0,0,1,.33.33,2.48,2.48,0,0,0,.36.28c.63.49.73,1,1.8,1.48.28.12.14.08.34.28,0,0,1.37.86,1.52,1,0,.33-.31.56-.49,1a6.15,6.15,0,0,1-.44,1,9.21,9.21,0,0,0-.42,2.51,18.61,18.61,0,0,0-4,2.69c-.37.36-1.79-.25-2.28-.34a1.24,1.24,0,0,1-.39-.09,1,1,0,0,0-.31-.15c-.25-.07-.51-.2-.69-.25L112.26,12c-.56,0-1.12-.18-1.61-.25-.3,0-.62,0-.93-.05s-.55-.09-.83-.09c-.63,0-1.19.05-1.83.07a17.76,17.76,0,0,0-4.84.79c-.6.14-.51.19-1.46.4-.66.16-.19,0-.68.25a6.93,6.93,0,0,0-.67.28l-.61.32c-.16.09-.2,0-.35.12s0,.14-.27.19Zm12.43,79.55c.42.1.81,1.72,2.48,2.56a3.73,3.73,0,0,1,.35.16,1.46,1.46,0,0,1,.4.17c.26.18,1.63.55,2.27.91a4.32,4.32,0,0,0,.86.23,16.87,16.87,0,0,0,2.59.56c1,0,3.46-.05,4.27,0a4.66,4.66,0,0,0,.93.16h6.39a8.26,8.26,0,0,1,2.07.07c.7.25,1.72,0,2.49.18a3.59,3.59,0,0,0,.39.12c.33,0,.72,0,1.07,0a5.88,5.88,0,0,0,1,.14c.47,0,.6.16.93.16h6a8.88,8.88,0,0,1,1.51-.16c.56,0,1.16,0,1.72,0a3.16,3.16,0,0,0,.68-.14c.53-.09,1.16.07,1.69,0a2.84,2.84,0,0,1,.74-.14l.79,0c.28,0,.44-.14.68-.16a4.67,4.67,0,0,0,.77,0c.11,0,.23-.07.32-.09s.3,0,.46,0c.38,0,2.31-.52,2.91-.52a10.76,10.76,0,0,0,2.63-.74,3.77,3.77,0,0,0,.71-.12c.65-.28,1.29-.39,2-.62l1.23-.47c.21-.07.42-.11.63-.19a5,5,0,0,0,1.11-.62,2,2,0,0,1,.63-.26,7.19,7.19,0,0,0,1.14-.58,15.93,15.93,0,0,0,1.72-.79c.51-.35,1.11-.63,1.61-1,.18-.13.29-.21.5-.34a2.51,2.51,0,0,0,.59-.3c.62-.56,1.14-1.08,1.72-1.66a9.51,9.51,0,0,0,.93-1.21,7.45,7.45,0,0,0,1.2-1.76c.1-.23.19-.33.3-.54a3.11,3.11,0,0,0,.22-.65,9.44,9.44,0,0,1,.5-1.22,14.88,14.88,0,0,0,.66-1.87,13.61,13.61,0,0,0,.48-2.13,3,3,0,0,0,.14-.68,3,3,0,0,1,.14-.74l.17-2.53c0-.35-.08-.47-.07-.81a3.12,3.12,0,0,0,0-.87c-.1-.37-.12-.86-.21-1.2a4.67,4.67,0,0,1-.11-1.3c0-.29-.14-.49-.15-.77a2.54,2.54,0,0,0-.14-.81,3.94,3.94,0,0,1-.07-.86,5.82,5.82,0,0,0-.13-1.7c0-.21,0-.61-.05-.89l-.12-.81a8.58,8.58,0,0,0-.07-1.6,4.26,4.26,0,0,1-.13-.82,6.1,6.1,0,0,1-.08-.85c0-.52-.58-2.31-.58-3.1a1.81,1.81,0,0,0-.11-.85c-.09-.28,0-.54-.1-.82a2.73,2.73,0,0,1-.11-.83c-.07-.51-.26-1-.3-1.51a5.92,5.92,0,0,0-.1-.82,6.06,6.06,0,0,1-.11-1.3l-.12-.81c0-.16-.09-.24-.12-.35-.09-.28,0-.56-.11-.82a2.93,2.93,0,0,1-.1-.37,33,33,0,0,0-.88-3.27c-.09-.28-.2-.38-.28-.65l-.65-2.16a3.54,3.54,0,0,0-.09-.38L173,45c-.16-.45-.41-.86-.53-1.3a11.26,11.26,0,0,0-.61-1.26l-.27-.68c-.58-1.39-.82-1.83-1.47-3.15-.13-.21-.21-.37-.34-.59a10.44,10.44,0,0,0-.63-1.25,6.21,6.21,0,0,1-.35-.6l-1.28-2.47c-.21-.42-.39-.83-.63-1.23a4.55,4.55,0,0,1-.28-.65l-1.65-3c-.6-1-1-2.08-1.62-3.07-.75-1.23-1-1.84-1.61-3-.13-.21-.27-.37-.39-.56L159.91,20c-.14-.2-.22-.39-.34-.6l-.37-.56a8.37,8.37,0,0,0-.77-1.11c-.33-.33-.54-.7-.86-1l-.47-.47c-.41-.4-.74-.84-1.14-1.19a5.6,5.6,0,0,1-1-1.37,13.84,13.84,0,0,0-1.28-1.53c-.28-.39-.6-.58-.88-.95a6.8,6.8,0,0,0-.84-1,5.31,5.31,0,0,1-.84-1.49,22,22,0,0,0-2-3.11,9.9,9.9,0,0,0-1.7-2,5.12,5.12,0,0,0-1-.84,3.38,3.38,0,0,0-.62-.34l-1.81-1a6.65,6.65,0,0,0-3.61-1c-.3,0-.55-.09-.83-.11-.59,0-1.23,0-1.79-.09a14,14,0,0,0-2.67,0c-1.42.16-2.88.17-4.26.42l-.39.07a5.14,5.14,0,0,0-1.19.26,11.2,11.2,0,0,0-3.58,2,4.32,4.32,0,0,1-.53.4,6.09,6.09,0,0,0-1.39,1.48c-.12.17-.23.45-.47.45a9.67,9.67,0,0,1-1.7-1.09c-.36-.29-.79-.49-1.13-.8a7.66,7.66,0,0,0-1.46-1.35,5.72,5.72,0,0,0-1.19-.67,5.65,5.65,0,0,0-2.32-.55h-2.05c-.6,0-1,.11-1.56.11a9.38,9.38,0,0,0-3.14.3l-3.5,1.74a7.4,7.4,0,0,0-2,1.44,11.34,11.34,0,0,0-1.51,1.87c-.12.18-.21.32-.34.5a10.92,10.92,0,0,0-1.07,1.52l-1.3,2.13c-.1.19-.19.33-.29.52a12.72,12.72,0,0,0-1.71,3.39c0,.25,0,.56-.15.72a6.09,6.09,0,0,1-.57.28l-.52.35c-.49.34-2.58,1.78-3,2.16s-1.38,1.42-1.65,1.79a4.21,4.21,0,0,1-.35.48,8.75,8.75,0,0,0-1.28,2.09c-.16.35-.68.49-1,.66L86,24.48c-.53.4-1.44,1.26-1.44,2.09a1.37,1.37,0,0,0,.21.77c.26.31.45.1.77.26.05,0,0,1.76,0,1.93,0,.72.16,1.25.16,2,0,.43-.13.75-.16,1.14a5.82,5.82,0,0,1,0,.59,8.78,8.78,0,0,0,.16,3,2.7,2.7,0,0,0,.3,1,8.28,8.28,0,0,0,1.51,2.44,5.1,5.1,0,0,0,.61.69c.72.72,1,.68-.28,1.77a13.45,13.45,0,0,0-.91,1c-.16.18-.26.36-.4.55a6.58,6.58,0,0,0-1.08,1.89c-.08.25-.14.51-.21.74s-.45.48-.7.76a4.49,4.49,0,0,0-.68.82,12.11,12.11,0,0,0-1.18,2.72,4.38,4.38,0,0,0,1.14,3,4.93,4.93,0,0,0,.93,1l.9,1c1.31,1.73,1,1.49.66,2a3.65,3.65,0,0,0-.61,1.56,3.52,3.52,0,0,0,.81,2.67,9.17,9.17,0,0,0,.79,1,5.19,5.19,0,0,1,1.16,1.65,3.79,3.79,0,0,1-.25.74,6.54,6.54,0,0,0,0,2.75l.28.81a8.87,8.87,0,0,0,1.73,2.69m51.53-24a17.09,17.09,0,0,1,3.07.11,6.39,6.39,0,0,1,.69.14,7,7,0,0,1,3.07,1.11c.14.1.3.24.45.36.44.34,2.11,2.08,1.13,2.43-.49.17-.76-.39-.93-.69a4.69,4.69,0,0,0-2.95-2,15.13,15.13,0,0,0-2.9-.43c-.28,0-.54,0-.82,0a4.75,4.75,0,0,1-.83,0c-.42-.11-.42-.72,0-1Zm-40.31-5.88c.14,0,.3,0,.46-.07a34.24,34.24,0,0,0,3.28-1.12c.79-.44,1.32.26.74.74a7.1,7.1,0,0,1-1.48.75,15.85,15.85,0,0,0-1.35.84c-.44.21-.1,0-.66.42-1.22.85-1.25,1.3-2.15,2.27l-.82.84c-.48.46-.14.16-.49.6a3,3,0,0,0-.25.26c-.3.39-.63,1.18-.84,1.35s-1.21.32-.58-1a2,2,0,0,1,.19-.39,25.22,25.22,0,0,1,2.27-2.66l.73-.93c.25-.32.76-.72.78-.79a14.64,14.64,0,0,1-4-.07,2.11,2.11,0,0,1-.55-.25c-.19-.11-.28-.26-.21-.58.13-.53.76-.25,1.09-.16a9.72,9.72,0,0,0,2.3.14A7.43,7.43,0,0,0,101.41,41.59Z"/></g></g></svg>