<svg xmlns="http://www.w3.org/2000/svg" width="265.39" height="238.68" viewBox="0 0 265.39 238.68"><defs><style>.cls-1{fill:#09a6f0;}.cls-2{fill:#017bd7;}.cls-3,.cls-9{fill:#00a9d6;}.cls-3{stroke:#000;stroke-miterlimit:10;}.cls-4{fill:#007492;}.cls-5{fill:#fff;}.cls-6{fill:#ac1360;}.cls-7{fill:#e52752;}.cls-8{fill:#05080a;}.cls-10{fill:#dd308e;}.cls-11{fill:#fbfbfb;}.cls-12{fill:#fcfcfc;}.cls-13{fill:#800950;}.cls-14{fill:#00acd9;}.cls-15{fill:#de3390;}.cls-16{fill:#010101;}.cls-17{fill:#020202;}.cls-18{fill:#e03090;}.cls-19{fill:#040a0c;}.cls-20{fill:#007998;}.cls-21{fill:#5b0838;}.cls-22{fill:#06090d;}.cls-23{fill:#007898;}.cls-24{fill:#007796;}.cls-25{fill:#007797;}.cls-26{fill:#f6f6f6;}.cls-27{fill:#eb74b1;}.cls-28{fill:#f7f7f7;}.cls-29{fill:#007594;}.cls-30{fill:#034f63;}.cls-31{fill:#016580;}.cls-32{fill:#86265d;}.cls-33{fill:#007c9e;}.cls-34{fill:#008db3;}.cls-35{fill:#230d1d;}.cls-36{fill:#026d8b;}.cls-37{fill:#03637d;}.cls-38{fill:#44a1bf;}.cls-39{fill:#ac266f;}.cls-40{fill:#87235a;}.cls-41{fill:#8d225e;}.cls-42{fill:#46a5c3;}.cls-43{fill:#44082b;}.cls-44{fill:#992666;}.cls-45{fill:#214c5a;}.cls-46{fill:#025a72;}.cls-47{fill:#7e2458;}.cls-48{fill:#043f4f;}.cls-49{fill:#044455;}.cls-50{fill:#a5266b;}.cls-51{fill:#295f71;}.cls-52{fill:#b8b8b9;}.cls-53{fill:#053542;}.cls-54{fill:#103743;}.cls-55{fill:#1a3943;}.cls-56{fill:#04495c;}.cls-57{fill:#016986;}.cls-58{fill:#401731;}.cls-59{fill:#751e4f;}.cls-60{fill:#133640;}.cls-61{fill:#46a7c5;}.cls-62{fill:#1e3137;}.cls-63{fill:#0098c1;}.cls-64{fill:#022d38;}.cls-65{fill:#a8256c;}.cls-66{fill:#02556b;}.cls-67{fill:#04242d;}.cls-68{fill:#b8b8b8;}.cls-69{fill:#024b5e;}.cls-70{fill:#481634;}.cls-71{fill:#7d2054;}.cls-72{fill:#00607a;}.cls-73{fill:#017290;}.cls-74{fill:#0085a9;}.cls-75{fill:#042933;}.cls-76{fill:#214c59;}.cls-77{fill:#008ab0;}.cls-78{fill:#b7b7b7;}.cls-79{fill:#691d49;}.cls-80{fill:#460c2f;}.cls-81{fill:#4e5050;}.cls-82{fill:#3b1029;}.cls-83{fill:#515253;}.cls-84{fill:#00637d;}.cls-85{fill:#042028;}.cls-86{fill:#3c8ea8;}.cls-87{fill:#017595;}.cls-88{fill:#b4b4b4;}.cls-89{fill:#032e39;}.cls-90{fill:#3c8da6;}.cls-91{fill:#006079;}.cls-92{fill:#007999;}.cls-93{fill:#b5b5b5;}.cls-94{fill:#017493;}.cls-95{fill:#942260;}.cls-96{fill:#b42774;}.cls-97{fill:#00617b;}.cls-98{fill:#741e4e;}.cls-99{fill:#801f54;}.cls-100{fill:#031c24;}.cls-101{fill:#9f2467;}.cls-102{fill:#782253;}.cls-103{fill:#439fbb;}.cls-104{fill:#016782;}.cls-105{fill:#44a2bf;}.cls-106{fill:#2b0a1e;}.cls-107{fill:#0082a5;}.cls-108{fill:#033847;}.cls-109{fill:#b82977;}.cls-110{fill:#a12769;}.cls-111{fill:#007695;}.cls-112{fill:#033e4e;}.cls-113{fill:#023644;}.cls-114{fill:#007493;}.cls-115{fill:#01647e;}.cls-116{fill:#347a90;}.cls-117{fill:#3b0d2a;}.cls-118{fill:#3a89a2;}.cls-119{fill:#9d2265;}.cls-120{fill:#380d28;}.cls-121{fill:#3d90aa;}.cls-122{fill:#016c88;}.cls-123{fill:#0093ba;}.cls-124{fill:#9d2466;}.cls-125{fill:#033f4f;}.cls-126{fill:#0091b8;}.cls-127{fill:#9c9d9d;}.cls-128{fill:#007899;}.cls-129{fill:#429cb8;}.cls-130{fill:#521a3a;}.cls-131{fill:#043441;}.cls-132{fill:#008eb5;}.cls-133{fill:#3f0a2a;}.cls-134{fill:#02576f;}.cls-135{fill:#46a4c2;}.cls-136{fill:#771c4e;}.cls-137{fill:#03495b;}.cls-138{fill:#043341;}.cls-139{fill:#006985;}.cls-140{fill:#052f3c;}.cls-141{fill:#4c082f;}.cls-142{fill:#afb0b0;}.cls-143{fill:#006783;}.cls-144{fill:#90235e;}.cls-145{fill:#00566e;}.cls-146{fill:#016f8c;}.cls-147{fill:#3a8aa3;}.cls-148{fill:#9a9b9c;}.cls-149{fill:#2d5c6c;}.cls-150{fill:#041b22;}.cls-151{fill:#02617a;}.cls-152{fill:#033846;}.cls-153{fill:#092932;}.cls-154{fill:#376d7e;}.cls-155{fill:#39869f;}.cls-156{fill:#2b0a1f;}.cls-157{fill:#016985;}.cls-158{fill:#a6a7a8;}.cls-159{fill:#3d0b2a;}.cls-160{fill:#8b8d8d;}.cls-161{fill:#014c60;}.cls-162{fill:#032e3a;}.cls-163{fill:#007b9b;}.cls-164{fill:#7f2055;}.cls-165{fill:#007c9d;}.cls-166{fill:#932361;}.cls-167{fill:#044d61;}.cls-168{fill:#005c75;}.cls-169{fill:#034b5f;}.cls-170{fill:#235160;}.cls-171{fill:#05313d;}.cls-172{fill:#023f50;}.cls-173{fill:#007b9c;}.cls-174{fill:#14333c;}.cls-175{fill:#007d9e;}.cls-176{fill:#3c8ea7;}.cls-177{fill:#49072d;}.cls-178{fill:#9b9d9d;}.cls-179{fill:#006580;}.cls-180{fill:#007392;}.cls-181{fill:#032c37;}.cls-182{fill:#3f94af;}.cls-183{fill:#37829a;}.cls-184{fill:#350a24;}.cls-185{fill:#271b2d;}.cls-186{fill:#015970;}.cls-187{fill:#053c4b;}.cls-188{fill:#b52874;}.cls-189{fill:#a32469;}.cls-190{fill:#a0a0a1;}.cls-191{fill:#5b193e;}.cls-192{fill:#2b0a20;}.cls-193{fill:#adadad;}.cls-194{fill:#02485b;}.cls-195{fill:#781d50;}.cls-196{fill:#91215e;}.cls-197{fill:#00708e;}.cls-198{fill:#a0a1a2;}.cls-199{fill:#024355;}.cls-200{fill:#01495d;}.cls-201{fill:#016681;}.cls-202{fill:#006c8a;}.cls-203{fill:#244f5d;}.cls-204{fill:#285665;}.cls-205{fill:#1b3f4a;}.cls-206{fill:#016d8a;}.cls-207{fill:#0087ac;}.cls-208{fill:#016884;}.cls-209{fill:#0088ac;}.cls-210{fill:#024f64;}.cls-211{fill:#0f2229;}.cls-212{fill:#03485b;}.cls-213{fill:#006e8c;}.cls-214{fill:#7b2053;}.cls-215{fill:#041014;}.cls-216{fill:#1a3b45;}.cls-217{fill:#033240;}.cls-218{fill:#3b8ca6;}.cls-219{fill:#862259;}.cls-220{fill:#891f59;}.cls-221{fill:#023e4e;}.cls-222{fill:#006d8a;}.cls-223{fill:#023a4a;}.cls-224{fill:#b2b2b2;}.cls-225{fill:#471431;}.cls-226{fill:#255260;}.cls-227{fill:#034456;}.cls-228{fill:#347b91;}.cls-229{fill:#2e6d81;}.cls-230{fill:#871f58;}.cls-231{fill:#410a2b;}.cls-232{fill:#230919;}.cls-233{fill:#0080a2;}.cls-234{fill:#969797;}.cls-235{fill:#838585;}.cls-236{fill:#024659;}.cls-237{fill:#5d6061;}.cls-238{fill:#024d61;}.cls-239{fill:#585b5c;}.cls-240{fill:#245463;}.cls-241{fill:#016b87;}.cls-242{fill:#2d6273;}.cls-243{fill:#27091c;}.cls-244{fill:#0d262e;}.cls-245{fill:#812056;}</style></defs><g id="Layer_2" data-name="Layer 2"><g id="PRINT_1" data-name="PRINT 1"><ellipse class="cls-1" cx="128" cy="206.09" rx="84.96" ry="16.77"/><path class="cls-2" d="M194.54,204.51c0,6.4-29.16,11.6-65.13,11.6s-65.14-5.2-65.14-11.6,29.16-11.61,65.14-11.61S194.54,198.1,194.54,204.51Z"/><path class="cls-1" d="M188.77,223.15a15.69,15.69,0,0,0-4.6.49,4,4,0,0,0-2.9,3.27,3.8,3.8,0,0,0,2.31,3.4,9.22,9.22,0,0,0,4.27.63,35.92,35.92,0,0,0,14-3.32c1.63-.76,3.37-1.84,3.76-3.6.83-3.71-3-4.22-5.43-3.4A37.42,37.42,0,0,1,188.77,223.15Z"/><path class="cls-1" d="M173.32,232c-.83,2.67-3.31,4.58-6,5.47a27,27,0,0,1-8.32.95l-29.58.26c-5.69.05-11.68,0-16.63-2.76a7.66,7.66,0,0,1-3.1-2.84,3.78,3.78,0,0,1,.1-4c1.51-2,4.55-1.31,6.94-.66,12.42,3.36,25.59,1.09,38.25-1.21C159.57,226.36,176.82,220.83,173.32,232Z"/><path class="cls-1" d="M97.73,230.07a4.52,4.52,0,0,1-3,4.34,10.69,10.69,0,0,1-5.56.39,7.1,7.1,0,0,1-3.88-1.41c-3.16-2.82,0-7,3.34-7.49C91.72,225.44,97.32,226.23,97.73,230.07Z"/><path class="cls-1" d="M57.26,220.76a7.52,7.52,0,0,1,3,1.36,3.44,3.44,0,0,1,1,3.46,2.84,2.84,0,0,1-1.84,1.77,4.87,4.87,0,0,1-2.34,0,20.54,20.54,0,0,1-10.65-5.62,9,9,0,0,1-2.56-3.86c-.33-1.1-.53-3.87.71-4.44,1.06-.5,2.8,1.86,3.6,2.49A28,28,0,0,0,57.26,220.76Z"/><path class="cls-3" d="M252.46,170.38,197,183.28c-.38,5.32-1.37,11.24-3.64,16.06,1.07.84,2.8,1.9,3.87,2.74a6.08,6.08,0,0,1,7.41-.81,32.52,32.52,0,0,1-3.82,4.13,8.93,8.93,0,0,1-4.59,2.08,5.42,5.42,0,0,1-4.62-1.68c-1,.83-2.15,1.53-3.44,1.17a4.31,4.31,0,0,1-2.84-2.63,2.65,2.65,0,0,1-3.21.34,6,6,0,0,1-2.08-2.54,8.53,8.53,0,0,1-6-6.9c-.39-3.3,1.12-6.52,2.81-9.39.79-1.33,2.2-3.34,3.79-5.5a36.81,36.81,0,0,1,18.18-13.1l41.66-13.54-47.07-17.34-26.58,69.82-1.94.72a116.11,116.11,0,0,1-83.21-.72L94.2,141.74l-31,37.7a20.34,20.34,0,0,1-35-6.42l-19-56.38-2.45-2.4L24.3,102.37l.89,14.27,22.94,42.58,24.77-38.6a33.74,33.74,0,0,1,28.42-15.53H128V90.17L156.44,83v21.06h28.64a51.18,51.18,0,0,1,27.86,8.24l44.62,29C269.44,149,266.25,167.16,252.46,170.38Z"/><polygon class="cls-4" points="94.21 141.73 97.38 125.42 73.86 166.51 94.21 141.73"/><polygon class="cls-4" points="48.13 159.22 54.19 170.46 52.01 153.18 48.13 159.22"/><path class="cls-3" d="M34.78,93.25l-.16,0V84.75l8.53-1.66h0A10.36,10.36,0,0,1,34.78,93.25Z"/><path class="cls-5" d="M16.71,128.52l1.61-31.09-1.57-.08-1.61,31.09a5.68,5.68,0,0,1-3.43,4.91l-4.85,2.06a.65.65,0,0,0,.22,1.24l16.8.87a.64.64,0,0,0,.34-1.21l-4.61-2.55A5.64,5.64,0,0,1,16.71,128.52Z"/><path class="cls-5" d="M17,108.59h0A17.17,17.17,0,0,1,.7,90.56l.89-17.15,34.29,1.78L35,92.33A17.18,17.18,0,0,1,17,108.59Z"/><path class="cls-6" d="M3.76,91.77a11.55,11.55,0,0,0,2.61,1.9c2.81,1.35,6.2.47,9-1,1.88-1,3.65-2.21,5.51-3.21a14.26,14.26,0,0,0-6.78-1.84A15.3,15.3,0,0,0,3.76,91.77Z"/><path class="cls-7" d="M23.56,88.28a17.25,17.25,0,0,0-2.71,1.21c-1.86,1-3.63,2.22-5.51,3.21-2.77,1.44-6.16,2.32-9,1a11.55,11.55,0,0,1-2.61-1.9l-.23.07a14.33,14.33,0,0,0,28.63.35l.19-3.82A13.57,13.57,0,0,0,23.56,88.28Z"/><path class="cls-3" d="M6.83,114.24a13,13,0,0,1-4.11-7.82L.62,91.31a13.05,13.05,0,0,1,5.92-12.8l5.64-3.59A9.29,9.29,0,0,1,16.09,73a2.88,2.88,0,0,1,3.33,1.79,2.84,2.84,0,0,1-.74,2.45,9.71,9.71,0,0,1-2.07,1.64A45.9,45.9,0,0,0,6.43,88.08l9.88-4.68c1.61-.76,3.34-1.55,5.11-1.33s3.49,1.88,3.06,3.61-2.43,2.37-4.1,2.9A30.37,30.37,0,0,0,8.14,96l12-4.54a7.87,7.87,0,0,1,3.31-.72,2.67,2.67,0,0,1,2.5,1.95,2.7,2.7,0,0,1-1.17,2.47,9.06,9.06,0,0,1-2.61,1.18,38.21,38.21,0,0,0-12.71,7.43l11-3.47c1.05-.33,2.28-.64,3.19,0a1.88,1.88,0,0,1,.71,2.07C24.07,103.12,6.83,114.24,6.83,114.24Z"/><path class="cls-4" d="M133.29,102.06a13.92,13.92,0,0,1-5.29-1.18V90.17L154,83.64a20,20,0,0,1-20.66,18.42Z"/><polygon class="cls-4" points="181.19 131.87 181.19 168.5 193.42 136.38 181.19 131.87"/><path class="cls-4" d="M168.28,155.79H98.88c3.15-2.45,7.56-2.82,11.52-2.42s7.95,1.34,11.9.82a16.55,16.55,0,0,0,9.88-5.09c1.75,2.57,5.62,4,8.69,4.46a32.07,32.07,0,0,0,9.27-.31,54.28,54.28,0,0,1,9.08-.76A18.75,18.75,0,0,1,168.28,155.79Z"/><path class="cls-4" d="M240.49,153.71l6.33-2.06c-8-7-20.95-3.32-20.95-3.32Z"/><path class="cls-8" d="M116.21,0h1a3.47,3.47,0,0,1,.79.08l.48,0a8,8,0,0,1,2.5.6l.76.28a9.09,9.09,0,0,1,1.33.65v.13l.17.06a7.47,7.47,0,0,1,2.22,1.57.81.81,0,0,0,.1.09l.24.24v.13l.12,0c1,.31,2,2.21,2.49,3a2.08,2.08,0,0,1,.1.24,1.27,1.27,0,0,0,.23.41v.26h.13A10.35,10.35,0,0,1,130,10.23a2.71,2.71,0,0,0,.18.46,2.76,2.76,0,0,1,.16.51,3.63,3.63,0,0,0,.25.87,1.44,1.44,0,0,1,.13.4c0,.21.1.41.16.62a6.94,6.94,0,0,1,.23,1.08c0,.07,0,.13,0,.2.08.45.14.91.19,1.37a1.05,1.05,0,0,0,.09.37,21.61,21.61,0,0,1-.58,8.66l.19-.05.26-.08.24-.07a1.12,1.12,0,0,1,.42-.06v-.13c.66-.17,1.32-.33,2-.44.37-.06.73-.15,1.09-.24s1-.22,1.51-.29c.32,0,.65-.09,1-.15.72-.13,1.44-.24,2.16-.34l.7-.11,2.13-.29a1.7,1.7,0,0,0,.35-.06c.25,0,.51-.06.76-.08l.34,0,.53,0,.52,0h.17a1.11,1.11,0,0,0,.6-.18l.52-.06.15,0,.33,0,.88-.08.18,0c.41,0,.81-.09,1.22-.15.69-.1,1.39-.15,2.08-.2l.17,0,.48,0H152c.31,0,.61,0,.93,0v-.17a4.61,4.61,0,0,1,.38-1.66l.16-.45.09-.22c.1-.3.19-.59.28-.89a2,2,0,0,1,.26-.51c0-.1.08-.21.13-.31s.19-.38.29-.57a5.42,5.42,0,0,0,.43-.95h.13c0-.15.08-.3.13-.45h.13c0-.05,0-.09,0-.13a2.46,2.46,0,0,1,.25-.45,3.46,3.46,0,0,0,.27-.5,1.62,1.62,0,0,1,.62-.81l.13-.33a1.14,1.14,0,0,1,.52-.58.39.39,0,0,1,.06-.15,1.21,1.21,0,0,1,.31-.46l.14-.16.14-.15a2.62,2.62,0,0,0,.22-.25l.23-.27.13-.14a15,15,0,0,1,2-1.93l.34-.29a17,17,0,0,1,2-1.41l.15-.1a2.92,2.92,0,0,1,.68-.35,6.13,6.13,0,0,0,.73-.35,8.89,8.89,0,0,1,1.42-.6l.13,0a4.8,4.8,0,0,1,1.71-.32,2.38,2.38,0,0,0,.65-.1,5.86,5.86,0,0,1,1.51-.12h.14a18.5,18.5,0,0,1,2.78.22v.13l.25,0a1.89,1.89,0,0,1,.47.11v.13l.11,0a2.67,2.67,0,0,1,.93.37l.39.13v.13l.18.05c1.72.62,3.15,2.55,3.92,4.12.13.28.23.56.33.84a.88.88,0,0,0,.05.15,10.86,10.86,0,0,1,.63,3.7v.17a13.85,13.85,0,0,1-.35,3.08h-.13a1.65,1.65,0,0,1,0,.21,7.21,7.21,0,0,1-.83,2.15l-.26.51-.13.26H178a.77.77,0,0,1,0,.15,1.67,1.67,0,0,1-.17.44h-.13l-.2.59h-.13l0,.14a2,2,0,0,1-.24.57H177l0,.12a4,4,0,0,1-.35.79,7.35,7.35,0,0,0-.32.77l-.18.43a9.3,9.3,0,0,0-.62,2.65.77.77,0,0,1,0,.15,1.77,1.77,0,0,0,.38,1.5,2.2,2.2,0,0,1,.2.23.49.49,0,0,1,.16.46h.13l0,.15c.07.18.07.18.17.27a1.9,1.9,0,0,1,.45,1,.74.74,0,0,0,.34.5,5.81,5.81,0,0,0,.78.32,1.68,1.68,0,0,1,.48.4l.42.36.11.09.42.35a6.51,6.51,0,0,1,2,3.11.64.64,0,0,1,.06.18,4.11,4.11,0,0,1,.2,1.39v.22c0,.15,0,.3,0,.45a1,1,0,0,0,.21.78l.52.37.28.25.14.12a8.94,8.94,0,0,1,2.45,3.47c0,.08.06.16.08.24.09.25.16.49.24.74a.75.75,0,0,1,.05.16,4.11,4.11,0,0,1,.16,1.4v.21c0,1.33,0,1.33-.21,1.79-.09.21-.16.41-.23.61s-.22.61-.36.91H185a1,1,0,0,1,0,.16,2,2,0,0,1-.33.58.62.62,0,0,0-.15.28,1.5,1.5,0,0,1-.39.48l-.18.2-.1.11-.2.22a3.81,3.81,0,0,1-.6.54,1.1,1.1,0,0,0-.33.85,4.31,4.31,0,0,1-.48,1.47H182l0,.17a2.51,2.51,0,0,1-.79,1.15.51.51,0,0,0-.21.42c0,.16,0,.32,0,.48a8.39,8.39,0,0,1-.22,3.31h.2a4.61,4.61,0,0,1,1.94.59v.13l.25,0a1.09,1.09,0,0,1,.6.41l.35.3a2.8,2.8,0,0,1,1,1.92c.07,1.46.07,1.46-.33,2h-.13s0,.1-.05.15c-.38.87-1.77,1.53-2.6,1.88a4.93,4.93,0,0,1-.54.19l-.39.13-.26.09a2,2,0,0,0-.52.24,6,6,0,0,1-1.69.26,11.84,11.84,0,0,0,.59,1,5.16,5.16,0,0,1,.51,1.32l0,.11a4.73,4.73,0,0,1,0,.65v.47c0,.15,0,.31,0,.46a4.79,4.79,0,0,1-.35,2.22c0,.16-.06.32-.09.48a5.28,5.28,0,0,1-.23.89l-.13.06c-.05.11-.1.21-.14.32s-.13.31-.2.46a.69.69,0,0,1-.07.15l-.05.11h-.13s0,.09-.05.15a8.43,8.43,0,0,1-3.53,3.44h-.13l-.07.19-.39.07V82a8,8,0,0,1-.89.43,3.81,3.81,0,0,0-.45.23.76.76,0,0,1-.43.14c-.2,0-.2,0-.32.25a4.91,4.91,0,0,0-.26.63,5.64,5.64,0,0,1-.36.69,5,5,0,0,0-.28.63h-.13l0,.16a6.27,6.27,0,0,1-.48.88l-.12.18c-.3.49-.63.95-1,1.41a4.08,4.08,0,0,0-.25.33,16.35,16.35,0,0,1-1.63,1.9c-.1.1-.19.21-.28.32a5.12,5.12,0,0,1-.58.56c-.17.15-.34.3-.5.46-2.73,2.53-2.73,2.53-3.62,2.53,0,.07,0,.13-.07.2l-.39.06v.13l-.58.2v.13a7,7,0,0,1-1.3.59,3,3,0,0,0-.74.37,2.25,2.25,0,0,1-.87.33,5.37,5.37,0,0,0-1.05.34c-.22.08-.43.15-.65.21l-.3.1c-.21.08-.43.14-.65.2l-.14,0-.44.12c-.6.15-1.19.31-1.78.49a6.25,6.25,0,0,1-1.36.24c-.38,0-.76.09-1.14.15-1,.15-2.09.23-3.14.31-1.33.1-1.33.1-2.66.23a68.1,68.1,0,0,1-6.84.34h-.44a32.81,32.81,0,0,1-3.71-.2l-.84-.08-.24,0-.49,0-.66-.06H132a3.09,3.09,0,0,1-.59-.12,3.07,3.07,0,0,0-.74-.1,5.07,5.07,0,0,1-1.54-.3c-.31-.1-.62-.17-.94-.25v-.13l-.28-.06-.18,0L127.4,97a9.21,9.21,0,0,1-1.92-.57l-.36-.14c-.53-.2-1.05-.41-1.57-.65a6,6,0,0,0-.7-.27,4.29,4.29,0,0,1-.89-.43,4.94,4.94,0,0,0-1-.45l-.13-.12a1.19,1.19,0,0,0-.52-.28,18.63,18.63,0,0,1-4.83-3.25,1.68,1.68,0,0,1-.21-.18c-1-.86-2-1.78-3-2.73l-.17-.16c-.22-.22-.43-.43-.63-.67a1.33,1.33,0,0,0-.34-.33.74.74,0,0,1-.27-.31,4.43,4.43,0,0,0-.47-.6c-.62-.71-1.18-1.46-1.74-2.23a5.75,5.75,0,0,0-.44-.54,4.14,4.14,0,0,1-.48-.7,7.86,7.86,0,0,0-.68-1,.27.27,0,0,1-.07-.23h-.13l-.05-.13a5.69,5.69,0,0,0-.47-.83c-.2-.33-.2-.33-.2-.47h-.13a.94.94,0,0,1-.3-.48c0-.06,0-.1,0-.15s-.08-.28-.11-.42h-.13l-.12-.28a1,1,0,0,1-.07-.15,2,2,0,0,1-.13-.42h-.13l-.22-.43-.06-.12a11.33,11.33,0,0,1-.49-1.13c-.09-.23-.19-.44-.3-.66A8.38,8.38,0,0,1,103.4,74c0-.12,0-.12-.17-.17a4.52,4.52,0,0,1-.18-.47s0-.1,0-.14-.07-.21-.1-.31-.11-.31-.16-.46a17.53,17.53,0,0,1-.5-1.71,3.65,3.65,0,0,0-.22-.66,3.81,3.81,0,0,1-.25-1.11,2.51,2.51,0,0,0-.18-.59,5.16,5.16,0,0,1-.19-1,1.92,1.92,0,0,0,0-.22l-.06-.43c0-.15,0-.3-.07-.45a9.12,9.12,0,0,1-.12-1,3.64,3.64,0,0,0-.09-.73,23.71,23.71,0,0,1-.2-6.89v-.15c0-.87,0-.87.13-1l0-.42a23.09,23.09,0,0,1,.34-2.48c.09-.49.17-1,.23-1.47s.12-.78.2-1.17l.09-.43,0-.21c0-.19.08-.38.11-.57s0-.12,0-.18l.06-.31a5.31,5.31,0,0,1,.24-.89c0-.18.09-.35.13-.53s.11-.49.17-.73a14,14,0,0,0,.3-1.46.72.72,0,0,1,.09-.27,2.13,2.13,0,0,0,.16-.66,7.76,7.76,0,0,1,.31-1.24,6.33,6.33,0,0,0,.15-.78,13.06,13.06,0,0,1,.35-1.53c.16-.59.27-1.18.39-1.78s.13-.62.21-.91a5.91,5.91,0,0,0,.15-.84q.1-.69.24-1.38a14,14,0,0,0,.26-2.15V34c0-.29,0-.57,0-.86a2.62,2.62,0,0,1,0-.28,1.46,1.46,0,0,0-.33-1.24c-.1-.1-.2-.2-.31-.29-.36-.42-.69-.89-1-1.35l-.09-.11c-.19-.28-.19-.28-.19-.43l-.2-.06a2,2,0,0,1-.12-.25,4.63,4.63,0,0,0-.36-.7c-.21-.36-.39-.72-.58-1.09-.1-.21-.2-.41-.32-.61a2.86,2.86,0,0,1-.22-.47,4.76,4.76,0,0,0-.29-.65,9.16,9.16,0,0,1-.6-1.58l-.12-.4-.07-.26c0-.07,0-.15-.08-.23a1.27,1.27,0,0,1,0-.46h-.13a.51.51,0,0,0,0-.13c0-.06,0-.11,0-.17l0-.17a2.42,2.42,0,0,0-.1-.36,10.55,10.55,0,0,1-.33-1.58c0-.05,0-.11,0-.17a16.86,16.86,0,0,1,.17-6.6l.06-.06c0-.11,0-.21,0-.32a7.16,7.16,0,0,1,.32-1.16.76.76,0,0,1,.06-.2c0-.15.1-.32.16-.47h.13a.69.69,0,0,1,0-.13,5.72,5.72,0,0,1,.74-1.81,4,4,0,0,0,.3-.67,4,4,0,0,1,.47-.83l.1-.15c.31-.45.63-.88,1-1.3l.08-.1A15.11,15.11,0,0,1,106,3.62l.28-.21A10.46,10.46,0,0,1,108.56,2c.33-.15.64-.32,1-.48.72-.36.72-.36,1.14-.36V1l.6-.22.17-.07a6.33,6.33,0,0,1,1.06-.27A5.66,5.66,0,0,0,113,.33,11.67,11.67,0,0,1,116.21,0Z"/><path class="cls-9" d="M122.37,2.44a2.76,2.76,0,0,1,1.56.84l.3.24a12.89,12.89,0,0,1,2.83,3,.61.61,0,0,0,.07.1A25.09,25.09,0,0,1,128.4,8.9l.4.73a1.72,1.72,0,0,1,.21,1h.13l.1.35,0,.2a.72.72,0,0,1,.05.3h.13c0,.06,0,.12.05.17a1.55,1.55,0,0,0,.07.23c0,.07,0,.15.07.23a2.93,2.93,0,0,0,.14.37,16.53,16.53,0,0,1,.76,3.75l.06.39a32.34,32.34,0,0,1,0,8.34c-.33.13-.66.24-1,.34a7,7,0,0,0-1.93.83l-.06.2a5.67,5.67,0,0,0,1.08-.26,8.68,8.68,0,0,1,1.14-.3,2.24,2.24,0,0,0,.52-.16,2.2,2.2,0,0,1,.77-.15,1.81,1.81,0,0,0,.46-.17l.27,0a2.41,2.41,0,0,0,.78-.23,7.71,7.71,0,0,1,1.52-.39c.48-.08,1-.17,1.45-.27a10.7,10.7,0,0,1,1.79-.24,4.5,4.5,0,0,0,1-.19,5.69,5.69,0,0,1,1-.12,6.19,6.19,0,0,0,1.28-.19,8.58,8.58,0,0,1,1.22-.19c.3,0,.6-.08.91-.14s.77-.12,1.16-.16l.18,0,.16,0a.54.54,0,0,0,.27-.09l.27,0h.35c.61-.05,1.21-.12,1.81-.2.94-.13,1.88-.23,2.82-.32h.16l.3,0,.68-.07c.2,0,.4,0,.6,0h.38l.39,0h.16l.53-.05c.51,0,1,0,1.53-.05h1.58a25.16,25.16,0,0,1,7,.77,8.85,8.85,0,0,0,1,.2l.46.1v.13l.18,0a5.06,5.06,0,0,1,.94.27l.17.06.17.06.15.05a1.31,1.31,0,0,1,.4.26l.3.07a1.06,1.06,0,0,1,.42.12v.13l.13,0a4.62,4.62,0,0,1,1.28.53l.18.1.43.25v.13l.14.05a1.25,1.25,0,0,1,.37.21,1.3,1.3,0,0,0,.44.22,1.94,1.94,0,0,1,.55.43,4,4,0,0,0,.42.3,15.32,15.32,0,0,1,1.34,1.07l.11.1c.64.57.64.57.74.77l.06.11a2,2,0,0,0,.26.06,7.22,7.22,0,0,1,1,1.12c.16.19.31.38.48.57.91,1.1.91,1.1.91,1.51a7.17,7.17,0,0,1-1.3-.28l-.43-.13-.22-.06a12.81,12.81,0,0,0-3.8-.45H170a13.43,13.43,0,0,0-2.69.29l-.51.1a14.06,14.06,0,0,0-1.55.39l-.39.12A19.73,19.73,0,0,0,162.23,33l-.29.13-.3.13-.16.08c-.28.12-.55.25-.82.39l-.15.07-.27.14a1.14,1.14,0,0,1-.62.17v.13l-.21.09a3.86,3.86,0,0,0-.41.2,1.81,1.81,0,0,1-.37.19,4.07,4.07,0,0,0-.7.4,7.07,7.07,0,0,1-.84.49l.24-.08.75-.24a13.21,13.21,0,0,0,2.18-.87,7.5,7.5,0,0,1,.93-.37l.18-.06a1.68,1.68,0,0,1,.67-.13l.06-.2a.91.91,0,0,1,.28-.1l.17-.06.19-.06.38-.12.18-.06c.22-.07.42-.15.63-.24a4.48,4.48,0,0,1,.94-.24.69.69,0,0,0,.31-.09,14.45,14.45,0,0,1,3.46-.76l.41-.06a9.26,9.26,0,0,1,1.29,0h.14a10.3,10.3,0,0,1,2.77.27l.69.13a5.19,5.19,0,0,1,1.05.25v.13l.14,0a2.74,2.74,0,0,1,1.16.44,8.16,8.16,0,0,0,.8.36,2.35,2.35,0,0,1,.57.29v.13l.13,0a2.81,2.81,0,0,1,.69.47l.13.11a7.46,7.46,0,0,1,2.76,4.78v.52a3.86,3.86,0,0,1-.56-.32,10.81,10.81,0,0,0-2.63-1.37V38l-.15-.06a1.32,1.32,0,0,1-.31-.14,1.4,1.4,0,0,0-.4-.11,9.35,9.35,0,0,1-1.56-.47V37l-.21,0-1-.13-.19,0-.18,0-.16,0c-.13,0-.13,0-.19-.09l-.35-.06-.21,0-.24,0a1.81,1.81,0,0,0-.23,0l-.67-.1-.29-.05a17.92,17.92,0,0,0-2.53-.17h-.17a20.9,20.9,0,0,0-3.06.22l-.21,0a17.38,17.38,0,0,0-4,1,.63.63,0,0,1-.35.06l-.06.19-.29.09a2.89,2.89,0,0,0-.91.46,1.6,1.6,0,0,1-.45.19,8.35,8.35,0,0,0-3,2.24l-.19.17a1.65,1.65,0,0,0-.28.5c-.1.11-.21.22-.32.32a3,3,0,0,0-.47.79c-.07.16-.16.31-.24.46a6.55,6.55,0,0,0-.36,4.77,8.6,8.6,0,0,0,.35,1,1.42,1.42,0,0,1,.07.22,1.54,1.54,0,0,0,.17.38c.09.18.09.18.09.31h.13c.08.11.14.24.21.35a6.92,6.92,0,0,0,.77,1.09c.07.07.12.15.19.22a12.78,12.78,0,0,0,2.6,2.32.91.91,0,0,1,.16.11,5.1,5.1,0,0,0,.89.48l.33.19v.13l.22,0a1.78,1.78,0,0,1,.59.28,5.47,5.47,0,0,0,1.17.49l.45.15.23.07c.27.1.54.2.81.32a12.85,12.85,0,0,0,1.93.54l.27,0,.65.14.14,0a18,18,0,0,0,3.74.26h.25a21.31,21.31,0,0,0,4.07-.35l.13,0a9.21,9.21,0,0,0,1.28-.32l.57-.17,1.12-.33.15-.05a3.13,3.13,0,0,0,.79-.41l.36-.13a2.82,2.82,0,0,0,.75-.39,1.06,1.06,0,0,1,.58-.13V54.5l.39-.13a2.7,2.7,0,0,1-.71,1.82c-1,.78-1,.78-1.24.78v.13l-.14.07-.84.39-.26.13-.15.08a6.49,6.49,0,0,1-1.35.45c-.18,0-.18,0-.26.12l-.26,0-.15,0-.17,0-.32.05-.14,0a.54.54,0,0,0-.26.09l-.38.06-.24,0-1.08.14-.43.06a31,31,0,0,1-4.31.1h-.26a23.08,23.08,0,0,1-4.83-.56l-.4-.06a.85.85,0,0,1-.37-.09,1.14,1.14,0,0,0-.41-.12l-.16,0-.17,0a10.23,10.23,0,0,1-1.89-.39c-.36-.12-.74-.22-1.11-.31l-.16,0-.14,0a.76.76,0,0,1-.32-.16.81.81,0,0,0-.27,0h-.25l.59.25.17.07a8.07,8.07,0,0,0,.94.33l.33.11c.43.16.87.3,1.31.43l.12,0c.59.19,1.18.36,1.78.52l.46.13a4.25,4.25,0,0,0,.87.13c.41,0,.82.08,1.23.15s.61.1.92.14l.16,0a23,23,0,0,0,3.21.14h.74a22.51,22.51,0,0,0,3.48-.21l.44-.06a9,9,0,0,0,1.23-.26l.29-.06a9.1,9.1,0,0,0,2-.63l.54-.22a3.49,3.49,0,0,0,1.29-.72h.13c0,.34,0,.68,0,1v.34a8.72,8.72,0,0,1-.14,2c-.14.14-.43.11-.61.13l-.34,0-.65.06a7.34,7.34,0,0,0-2.08.43,3.69,3.69,0,0,1-.75.15,3.76,3.76,0,0,0-.66.17,7.25,7.25,0,0,1-1.29.28l-.23,0a16.61,16.61,0,0,1-1.72.14c-.35,0-.69,0-1,.07-1,.07-2.09.09-3.14.09H165q-3.74,0-7.48-.07h-.18l-2.24-.05-.47,0c-1.42,0-2.82-.08-4.24-.15l-1.89-.06h-1.19c-.75,0-1.48-.07-2.22-.14-.26,0-.53,0-.8-.06s-.64,0-1-.07-.5,0-.76-.05c-.55,0-1.08-.06-1.61-.12-.77-.07-1.54-.11-2.31-.13s-1.75-.08-2.63-.17c-.52-.05-1-.09-1.56-.11-.33,0-.65,0-1-.08-1-.09-1.92-.12-2.88-.15l-.74,0h-.45l-1-.05c-.73,0-1.47,0-2.21,0h-3.71c-.69,0-1.38,0-2.07.07l-.17,0a4.5,4.5,0,0,0-1,.19l-.38.07-.21,0-.21,0a19.85,19.85,0,0,0-3,.75l-.21.07a.93.93,0,0,0-.32.13.48.48,0,0,1-.32.06v.13l-.09,0a5.62,5.62,0,0,0-1.83,1.34,1.59,1.59,0,0,1-.13.13,1.93,1.93,0,0,0-.54.84,1.86,1.86,0,0,1-.1.2,1.67,1.67,0,0,1-.08.2l-.09.2a5.08,5.08,0,0,0,.13,3.24l.13.19.09.43a1.69,1.69,0,0,0,.5,1.2l.11.29a5.39,5.39,0,0,0,.38.76c.49.81.49.81.49,1.23h.12c.2.08.26.2.37.39a18,18,0,0,0,1.85,2.4.48.48,0,0,1,.09.11,18.48,18.48,0,0,0,2.6,2.48l.37.28a12.49,12.49,0,0,0,2.25,1.48c.2.1.4.22.59.34a11.15,11.15,0,0,0,1.07.59v.13l.52.13v.13l.22,0a2.33,2.33,0,0,1,.65.28,3.84,3.84,0,0,0,1.09.39V82l.16,0a1.54,1.54,0,0,1,.45.17,6.82,6.82,0,0,0,1.17.43c.86.28.86.28,1.23.43a4.27,4.27,0,0,0,.86.26,3.69,3.69,0,0,1,.69.19v.13l.21,0a3.19,3.19,0,0,1,1,.21l.19.05a5,5,0,0,1,.65.22,1.7,1.7,0,0,0,.43.11l.15,0,.16,0,.31,0,.15,0c.69.12.69.12.79.22l.45.07.14,0,.44.07.57.08.15,0,1,.16a49.82,49.82,0,0,0,5.31.58h.42l.39.05a23.49,23.49,0,0,0,3.14.11h2.58c2.18,0,4.37,0,6.55-.14l.49,0,.31,0H156a9.76,9.76,0,0,0,1.07-.13c.41,0,.83-.07,1.25-.09l.52,0h.23c.17,0,.17,0,.24-.08l.54-.07.17,0c.32,0,.63,0,1-.06a43,43,0,0,0,7.87-1.23l.22,0,.18,0a1.31,1.31,0,0,1,.36,0v-.13l.19,0a5.73,5.73,0,0,0,1.42-.32.56.56,0,0,1,.28,0,10.46,10.46,0,0,1-2.26,3.67l-.28.36c-.49.61-1,1.2-1.57,1.77a1.36,1.36,0,0,0-.12.12,13,13,0,0,1-1.33,1.24c-.18.14-.36.29-.53.45l-1,.79a1,1,0,0,1-.15.1c-.27.19-.55.38-.84.55-.13.07-.13.07-.17.27a1.19,1.19,0,0,1-.32.14l-.17.07a.6.6,0,0,1-.28,0c0,.07-.05.13-.07.2a1.22,1.22,0,0,1-.28.13l-.15.07a3.17,3.17,0,0,1-.41.12v.13l-.78.41-.22.11-.64.34-.18.09a4.51,4.51,0,0,1-1,.39,15.44,15.44,0,0,0-1.77.62,11.38,11.38,0,0,1-1.24.43l-.2.06c-.41.12-.81.23-1.22.31l-.46.14a7.13,7.13,0,0,1-1,.24l-.18,0a8.66,8.66,0,0,1-1.14.14,2.35,2.35,0,0,0-.68.22c-.33.05-.66.08-1,.1h-.16l-.51,0-.36,0-1,0-1.52.09-.53,0c-.49,0-1,.06-1.47.11-1.91.17-3.84.16-5.74.16h-.52a30.42,30.42,0,0,1-3.93-.19c-.25,0-.5,0-.76-.06a8,8,0,0,1-1.18-.17c-.31-.07-.62-.11-.93-.15a6.26,6.26,0,0,1-1.14-.25,3.43,3.43,0,0,0-.56-.08,2.37,2.37,0,0,1-1.22-.64l-.42-.33-1.14-.88a3.92,3.92,0,0,0-.32-.25l-1.14-.91-.34-.28-1.17-1-.57-.48c-.17-.14-.33-.3-.5-.47l-.16-.13a5.25,5.25,0,0,1-.49-.46l-.43-.4-.54-.51v-.19l-.14,0a1.69,1.69,0,0,1-.74-.63,1.94,1.94,0,0,0-.5-.53,2.14,2.14,0,0,1-.58-.69v-.13l-.2-.06-.19-.21-.12-.14-.15-.17c-.05-.07-.11-.13-.17-.2-.41-.47-.81-1-1.21-1.44a5.17,5.17,0,0,0-.49-.56,2.63,2.63,0,0,1-.36-.45c0-.06-.07-.1-.1-.15a.34.34,0,0,1-.08-.26.43.43,0,0,0-.12,0c-.14-.08-.14-.08-.2-.23a2,2,0,0,0-.31-.53,2.31,2.31,0,0,1-.14-.19l-.13-.18c-.33-.43-.33-.43-.33-.58l-.19-.07-.15-.34a1.2,1.2,0,0,0-.31-.37l-.06-.26a1.14,1.14,0,0,0-.11-.11,3.57,3.57,0,0,1-.46-.64l-.08-.13a1.06,1.06,0,0,1-.19-.62h-.13c-.09-.15-.18-.29-.26-.44l-.08-.13a1,1,0,0,1-.18-.6h-.13c-.14-.27-.28-.54-.41-.81l-.14-.28c-.06-.13-.13-.26-.2-.39l-.06-.13a6.77,6.77,0,0,1-.36-.88,7.18,7.18,0,0,0-.38-.79,4.63,4.63,0,0,1-.39-.95,1,1,0,0,0-.15-.35.48.48,0,0,1-.06-.32l-.19-.06a2.06,2.06,0,0,1-.15-.36L110,73s0-.08,0-.12-.12-.32-.19-.48c-.26-.68-.48-1.38-.71-2.08l-.35-1a29.42,29.42,0,0,1-.82-2.88l-.14-.55a16.7,16.7,0,0,1-.46-2.32,1.47,1.47,0,0,0-.13-.44,5.67,5.67,0,0,1-.27-1.35l0-.27c0-.19,0-.39-.08-.58l-.09-.65c-.12-.88-.22-1.76-.29-2.64a1.64,1.64,0,0,0,0-.22c-.09-1.25-.12-2.5-.12-3.75v-.4a38,38,0,0,1,.3-5.11l0-.31c.1-.77.22-1.54.34-2.31,0,0,0-.1,0-.15a4.55,4.55,0,0,1,.27-1.21,4.75,4.75,0,0,0,.22-.92c.15-.8.37-1.59.6-2.38,0-.06,0-.12,0-.18s.1-.35.15-.52a1,1,0,0,0,0-.16c.08-.3.18-.59.28-.88l.21-.67c0-.1.07-.19.1-.29s.09-.3.14-.45.09-.29.14-.44,0-.08,0-.13c.15-.47.32-.92.51-1.37s.28-.74.41-1.12.16-.46.25-.69.18-.47.26-.71l.05-.14a3.23,3.23,0,0,0,.34-1.82,1.09,1.09,0,0,0-.19-.26l.17,0a7.33,7.33,0,0,0,1.13-.24c.54-.17,1.07-.32,1.63-.45a4.63,4.63,0,0,0,.74-.26l.49-.2c.63-.23,1.25-.47,1.85-.75l.66-.27a7.53,7.53,0,0,0,.8-.41c.2-.1.41-.18.61-.26a7.33,7.33,0,0,0,.8-.38c.29-.15.29-.15.43-.15v-.13l.34-.16.2-.09a2.49,2.49,0,0,1,.44-.14V27l.29-.13.16-.07a.51.51,0,0,1,.28-.06v-.13l.11-.07a20.16,20.16,0,0,0,2.88-1.76c-.35.11-.7.21-1,.33v.13a6.43,6.43,0,0,1-1.63.72v.13l-1.2.6-.41.2-.58.29-.19.09c-.31.16-.62.3-.94.44l-.25.12a4.85,4.85,0,0,1-.82.33,2.87,2.87,0,0,0-.49.26l-.36.14a1.21,1.21,0,0,0-.75.38,3.3,3.3,0,0,1-1,.35,4.26,4.26,0,0,0-.85.29c-1.54.65-3.94,1.33-5.59.72l-.36-.19-.18-.08A2.78,2.78,0,0,1,107,28.7a5.65,5.65,0,0,1,.07-2.35h.13l0-.25a2.45,2.45,0,0,1,.38-.84,1.16,1.16,0,0,0,.18-.37,5.71,5.71,0,0,1,1.08-1.45c.12-.14.24-.27.36-.42a10.89,10.89,0,0,1,1.38-1.25l.12-.1a3.18,3.18,0,0,1,.77-.47,2.3,2.3,0,0,0,.38-.32l.35-.24.19-.12a1.59,1.59,0,0,1,.43-.16l.09-.09a1.23,1.23,0,0,1,.56-.24V19.9l.13,0c.34-.16.68-.32,1-.5a5.63,5.63,0,0,1,.94-.42,4.09,4.09,0,0,0,.46-.25,8.65,8.65,0,0,1,1.39-.53,4.06,4.06,0,0,0,.77-.33,1.53,1.53,0,0,1,.38-.12,2.31,2.31,0,0,0,.7-.31,3.17,3.17,0,0,1,.42-.19,1.07,1.07,0,0,0,.4-.19,1.44,1.44,0,0,1,.58-.17,2.48,2.48,0,0,0,1-.46,3.85,3.85,0,0,1,.86-.37,1.23,1.23,0,0,0,.37-.2h.26v-.13l.42-.25a1.39,1.39,0,0,0,.56-.46h.13a1.83,1.83,0,0,0-.28-1.51l-.27-.43-.11-.15a12.59,12.59,0,0,0-2.6-2.8.42.42,0,0,1-.11-.41,2,2,0,0,1,.25-.62,12.32,12.32,0,0,0,1.1-3.85,1.66,1.66,0,0,0,0-.22,6.83,6.83,0,0,0,.06-.78V4.05c0-.15,0-.31,0-.47V3.25A7.38,7.38,0,0,1,122.37,2.44Z"/><path class="cls-4" d="M116.31.85h.14a9,9,0,0,1,2.92.35l.45.07.23,0,.17,0v.13l.11,0,.15,0,.15,0a4.8,4.8,0,0,1,.63.24l.23.1,1.14.49-.26.07a1.15,1.15,0,0,0,0,.18,15,15,0,0,1-.27,3.66l0,.14c-.07.28-.15.56-.23.84a1.89,1.89,0,0,0-.06.18l-.2.62-.06.19A5.79,5.79,0,0,1,121,9.38a.76.76,0,0,0-.08.49,2.75,2.75,0,0,0,.49.53,13.79,13.79,0,0,1,2.12,2.27.94.94,0,0,0,.09.12c.09.13.18.26.26.39l.08.11a1.92,1.92,0,0,1,.38,1.49,2.53,2.53,0,0,1-1.08.88h-.13v.13c-.21.1-.43.18-.65.26a4,4,0,0,0-1,.5,2.36,2.36,0,0,1-1,.36,2.32,2.32,0,0,0-.66.3,6.19,6.19,0,0,1-.58.28l-.26.13a2,2,0,0,1-.56.19,2.28,2.28,0,0,0-.67.26l-.49.19a16.1,16.1,0,0,0-1.76.76l-.41.19a5.1,5.1,0,0,0-.57.29,4.21,4.21,0,0,1-1,.39V20c-.44.2-.44.2-.59.2l-.06.19-.31.14a4.52,4.52,0,0,0-.49.25l-.16.1a.51.51,0,0,0-.23.23.88.88,0,0,1-.44.27,3.09,3.09,0,0,0-.66.48,1.66,1.66,0,0,0-.14.13,9,9,0,0,0-2.72,3.17l-.23.46a4.76,4.76,0,0,0-.28.71h-.13c0,.39,0,.78-.07,1.17v.14a2.5,2.5,0,0,0,.8,2,2.44,2.44,0,0,0,.67.42l.13.05a5.83,5.83,0,0,0,3.67,0l.21-.05.67-.17.21-.06a8.7,8.7,0,0,0,1.21-.43,4,4,0,0,1,.59-.17,2.85,2.85,0,0,0,.75-.29h.2l.06-.19.32-.13a3.69,3.69,0,0,0,.71-.3A7.27,7.27,0,0,1,118,28a4.52,4.52,0,0,0,.86-.41,3.12,3.12,0,0,1,.42-.18c.55-.22,1.07-.5,1.59-.76l.64-.33.15-.08c.34-.17.34-.17.49-.17V26a6.54,6.54,0,0,1,.89-.43,3.36,3.36,0,0,0,.43-.2.53.53,0,0,1,.31-.08v-.13a3.42,3.42,0,0,1,1.11-.39,4.18,4.18,0,0,1-1,.72l-.19.11-1.25.75-.16.09-.15.08-.13.08a.34.34,0,0,1-.23.05v.13a1.34,1.34,0,0,1-.72.26v.13a2.62,2.62,0,0,1-1,.39v.13l-.69.35-.19.09c-.33.17-.67.33-1,.47a3.07,3.07,0,0,0-.31.17,7.6,7.6,0,0,1-.73.31,3,3,0,0,0-.37.17c-.32.16-.66.28-1,.41l-.46.17a21.48,21.48,0,0,1-3.42,1.06c-.22,0-.22,0-.3.12l-.4.07-.21,0-.17,0,.1.08a.89.89,0,0,1,.12.68,4.63,4.63,0,0,1-.27,1,1.72,1.72,0,0,0-.07.21l-.4,1.11-.09.25a2.34,2.34,0,0,0-.09.24l-.06.14c-.1.29-.22.57-.33.84-.3.74-.54,1.51-.79,2.27-.12.38-.25.76-.37,1.14s-.23.7-.34,1.06a1.09,1.09,0,0,1,0,.17c0,.17-.1.36-.16.53a1,1,0,0,1,0,.18,24,24,0,0,0-.57,2.37,5.28,5.28,0,0,1-.22.87,14.11,14.11,0,0,0-.41,2.23c0,.16,0,.32-.07.47l-.16,1.12c0,.11,0,.22,0,.34a36.84,36.84,0,0,0-.26,4.93v.41a49.38,49.38,0,0,0,.55,7.39c0,.15,0,.3.07.46a9.27,9.27,0,0,0,.39,1.81,5.8,5.8,0,0,1,.16.81,13.25,13.25,0,0,0,.32,1.52c0,.18.1.38.14.57.22.9.47,1.79.76,2.68.1.3.19.6.27.91s.15.43.24.64.15.42.22.63c.14.43.3.86.47,1.28s.25.67.37,1c0,.13,0,.13.18.19a4.77,4.77,0,0,1,.22.52l.06.15c.1.24.19.48.28.72a3,3,0,0,0,.29.56l.19.46c.27.65.57,1.28.9,1.92,0,0,.05.1.08.16s0,.1.08.14a.43.43,0,0,1,0,.25h.13c0,.06,0,.12.08.19.11.25.24.49.37.72a.37.37,0,0,1,.07.26h.13c0,.06,0,.13.08.2a4.67,4.67,0,0,0,.46.81c.18.28.18.28.18.42l.19.07c0,.15.09.31.13.46l.2.06.13.33a.51.51,0,0,0,.21.27,3.83,3.83,0,0,1,.52.68,3.31,3.31,0,0,0,.44.6c0,.06,0,.1.05.15a.57.57,0,0,0,.24.34,1.61,1.61,0,0,1,.35.5,2.81,2.81,0,0,0,.4.45c.13.14.26.28.38.43a.63.63,0,0,1,.1.12q.31.36.6.72c.27.33.55.64.84,1a3,3,0,0,1,.59.74,3,3,0,0,0,.66.66l.29.28v.2l.1,0a1.58,1.58,0,0,1,.36.26.92.92,0,0,0,.32.22l.08.14a4.41,4.41,0,0,0,1.07,1c.17.14.32.29.48.45l.16.13a5.23,5.23,0,0,1,.49.45c.42.4.85.78,1.3,1.14l.47.39c.47.39.94.77,1.43,1.13l.63.49c.39.31.78.6,1.17.89l.13.09.11.09a2,2,0,0,1,.3.28,10,10,0,0,1-1.62-.38L127.1,96c-.46-.14-.9-.29-1.35-.46a7.62,7.62,0,0,0-.82-.22.74.74,0,0,1-.35-.17V95l-.13,0a5.08,5.08,0,0,1-.69-.23l-.14,0c-.38-.14-.76-.3-1.13-.48v-.13l-.14,0a2.44,2.44,0,0,1-.53-.21l-.19-.1-.21-.11-.39-.21-.19-.1-.47-.24c-.51-.25-.51-.25-.7-.46a2.4,2.4,0,0,0-.52-.33,6.24,6.24,0,0,1-.83-.49v-.13l-.14,0a1.42,1.42,0,0,1-.58-.34l-.23-.18-.11-.09c-.16-.12-.32-.24-.49-.35a16.53,16.53,0,0,1-1.64-1.37c-.15-.15-.31-.28-.47-.42-.59-.52-1.15-1.05-1.71-1.6l-.17-.17c-.28-.28-.55-.58-.81-.88l-.5-.54a8.07,8.07,0,0,1-.7-.83c-.08-.11-.17-.21-.26-.32a33.59,33.59,0,0,1-2.33-3.11.57.57,0,0,0-.08-.13,2.25,2.25,0,0,1-.28-.53l-.2-.06a2.64,2.64,0,0,1-.14-.29l-.06-.16a.58.58,0,0,1-.06-.34h-.13l-.17-.25-.09-.16-.11-.18-.1-.17c-.76-1.3-.76-1.3-.76-1.51h-.13a3.18,3.18,0,0,1-.39-.81,2.87,2.87,0,0,0-.2-.39,5.05,5.05,0,0,1-.33-.71c-.08-.22-.18-.43-.28-.64a.53.53,0,0,1,0-.25h-.13l0-.12a1,1,0,0,1,0-.16,1.42,1.42,0,0,0,0-.16,11,11,0,0,0-.44-1.13,21.55,21.55,0,0,1-.79-2.26.75.75,0,0,1,0-.16l-.14-.44a.7.7,0,0,0,0-.14,4,4,0,0,1-.17-.91h-.13c-.22-.86-.38-1.72-.52-2.6a2.93,2.93,0,0,1,0-.29c0-.27-.09-.53-.13-.79,0-.11,0-.21,0-.32a29.62,29.62,0,0,1-.32-5v-.17a40.45,40.45,0,0,1,.17-4.26,1.23,1.23,0,0,0,0-.19c.08-.72.2-1.42.34-2.12.07-.38.11-.74.15-1.11a13.25,13.25,0,0,1,.31-1.78c.08-.32.13-.64.18-1a5,5,0,0,1,.16-.55l.1-.41a1.17,1.17,0,0,1,0-.2c0-.19.07-.36.11-.54.07-.37.15-.73.23-1.09a1.42,1.42,0,0,1,0-.2c.07-.33.14-.65.23-1s.12-.54.17-.81c.09-.52.21-1,.34-1.54s.28-1.16.38-1.75c0-.27.11-.54.18-.8a1,1,0,0,0,0-.15c0-.2.1-.4.15-.6a31.65,31.65,0,0,0,.55-3.21l0-.24a22.18,22.18,0,0,0,.16-3V32.46a.57.57,0,0,1,.37.29,5.8,5.8,0,0,0,2.88,1.86v-.13l-.11,0a1.85,1.85,0,0,1-.44-.34c-.22-.21-.46-.41-.69-.59a14.41,14.41,0,0,1-1.07-1l-.18-.17a11.56,11.56,0,0,1-1.08-1.24.64.64,0,0,1-.1-.13c-1.53-1.94-1.53-1.94-1.53-2.28l-.2-.07a1.36,1.36,0,0,1-.13-.27c-.08-.18-.15-.36-.25-.54a.48.48,0,0,1-.08-.3h-.13l0-.11a6.23,6.23,0,0,0-.38-.78,4.93,4.93,0,0,1-.3-.66c-.07-.18-.15-.35-.23-.52a12.42,12.42,0,0,1-.87-2.6,3.56,3.56,0,0,0-.25-.61,1.38,1.38,0,0,1,0-.26,2.81,2.81,0,0,0-.16-.65c-.4-1.61-1-4.91-.2-6.45,0-.14,0-.27,0-.4a7.43,7.43,0,0,1,.6-2.53,2.32,2.32,0,0,0,.15-.59h.13a1.84,1.84,0,0,0,0-.25,4,4,0,0,1,.4-1l.1-.19a14.73,14.73,0,0,1,2.33-3.36,1.05,1.05,0,0,0,.22-.3,2.14,2.14,0,0,1,.41-.49l.17-.16.17-.16.16-.17.56-.53.1-.1a1.58,1.58,0,0,1,.62-.38,2.26,2.26,0,0,0,.29-.25,15.71,15.71,0,0,1,3-1.82l.31-.15a3.37,3.37,0,0,1,.87-.32,6.14,6.14,0,0,0,1-.3A11.05,11.05,0,0,1,114.24,1a1.9,1.9,0,0,1,.25,0A15.6,15.6,0,0,1,116.31.85Z"/><path class="cls-10" d="M124.92,61.75h.26c1.86,0,3.71.06,5.56.14H131c4.34.17,4.34.17,4.65.32.7.08,1.42.09,2.13.11h.65a4.68,4.68,0,0,1,.54.07l.4,0h.38c1.41,0,2.83.14,4.23.25v.13h.19c.88,0,1.76,0,2.65,0l.76,0,.49,0h.23c.35,0,.68,0,1,.06s.84.05,1.25.06h.13c1.61.05,3.21.05,4.81.06h2.2c1,0,2,0,3,.05,1.86,0,3.72,0,5.58,0h1a38.31,38.31,0,0,0,6.6-.3,5.69,5.69,0,0,1,.71-.07,12.3,12.3,0,0,0,3.26-.88,3.86,3.86,0,0,1,.74-.14l.15,0c.4,0,.8,0,1.2,0H180a3.27,3.27,0,0,1,.76.08l.44,0a2.78,2.78,0,0,1,1.06.24s.05.08.07.13l.64.22a1.15,1.15,0,0,1,.47.43l.35.3c.1.09.1.09.17.28l.19.2.14.25.06.13a2.07,2.07,0,0,1,0,1.49l-.1.21h-.13l0,.14A2.8,2.8,0,0,1,182.88,67h-.13v.13c-.41.18-.81.35-1.23.5l-.43.18a6.83,6.83,0,0,1-.8.27l-.28.08-.13,0a1.46,1.46,0,0,0-.28.11,3.16,3.16,0,0,1-.53.13l-.21,0-.22,0-.21,0a21.49,21.49,0,0,1-3.11.24h-1.71a38.66,38.66,0,0,1-4.3-.19l-1-.08h-.18l-.35,0c-1-.06-2-.13-2.94-.24q-.95-.09-1.89-.15c-.66,0-1.31-.09-2-.16s-1.17-.1-1.77-.12l-.6-.08a13.2,13.2,0,0,0-1.53-.15c-.84-.06-1.68-.12-2.51-.21s-1.82-.17-2.73-.24l-.23,0c-1.32-.1-1.32-.1-2.64-.14a9.91,9.91,0,0,1-1.21-.12,22.64,22.64,0,0,0-2.33-.2c-.84-.05-1.69-.1-2.53-.19-1.2-.13-2.4-.2-3.6-.26l-1.1-.07-.85,0L136,66c-.4,0-.8-.06-1.2-.07h-.24l-.76,0h-.14c-1.76-.06-3.52-.07-5.28-.07h-1.88a9.1,9.1,0,0,0-1.73.12A5.85,5.85,0,0,1,124,66a12.15,12.15,0,0,0-4,.81l-.2.07a3.59,3.59,0,0,0-.84.45l-.15,0a1.85,1.85,0,0,0-.58.46,1.14,1.14,0,0,1-.11.11,1.45,1.45,0,0,0-.4.62,1,1,0,0,0-.06.16c0,.06,0,.12-.07.17l-.07.16a2.27,2.27,0,0,0-.13.77V71h.13a4.29,4.29,0,0,1,.19.5l.06.15s0,.09,0,.13l0,.13a2.85,2.85,0,0,1,.11.39h.13a2.71,2.71,0,0,1,.24.35,2.88,2.88,0,0,0,.94,1.08s.06.1.08.15a5.58,5.58,0,0,0,2.46,1.87l.28.16a1,1,0,0,1,.13.09l.11.08v.13l.17,0a3.47,3.47,0,0,1,.55.26,6.33,6.33,0,0,0,1.15.54,2.56,2.56,0,0,1,.47.23,13.93,13.93,0,0,0,1.66.65l.55.2.36.12.16.06a8.27,8.27,0,0,0,1.47.43c.27,0,.54.09.8.15l.21,0,.44.15a10.16,10.16,0,0,0,1.2.33l.51.12.25.06c.47.12.94.24,1.41.38a9.65,9.65,0,0,0,1.67.32l.39,0q.66.08,1.32.12a10,10,0,0,1,1.24.15,21.2,21.2,0,0,0,2.38.3l.42,0h.22c.54,0,1.09.11,1.63.19a62.28,62.28,0,0,0,8.53.33h.54c1.14,0,2.27,0,3.4,0h.22a10,10,0,0,0,1.33-.13,6.35,6.35,0,0,1,.87,0c.65,0,1.29-.09,1.93-.17H160q.84-.1,1.65-.27a8.59,8.59,0,0,1,1-.14,19.53,19.53,0,0,0,2.64-.51l.49-.11a10.81,10.81,0,0,0,2-.58l.48-.17a15.07,15.07,0,0,0,1.68-.67c.28-.12.56-.23.84-.32a1,1,0,0,0,.33-.19c.12-.09.12-.09.38-.09v-.13l.33-.07v-.12c.07-.2.19-.26.37-.38a5.37,5.37,0,0,0,1.52-1.52l.18-.27H174a3.05,3.05,0,0,0,.29-.76.5.5,0,0,0,0-.13,5.15,5.15,0,0,0-.19-3.8,5.52,5.52,0,0,0-.44-.7.76.76,0,0,0-.08-.11,1.37,1.37,0,0,0-.41-.42v-.13h.24l.9,0h.39c.87,0,1.74,0,2.6-.12a.86.86,0,0,1,.63.11,5.74,5.74,0,0,1,1.25,3.61v.16c0,1.43,0,1.43-.28,1.94h-.13a1.55,1.55,0,0,1,0,.21,3,3,0,0,1-.38,1l-.1.24a3.17,3.17,0,0,1-.23.45,1.24,1.24,0,0,0-.19.48h-.13a.65.65,0,0,0,0,.13,3.17,3.17,0,0,1-.47.68l-.12.14a8.45,8.45,0,0,1-1.74,1.64,1.27,1.27,0,0,0-.43.4l-.13,0-.13,0-.06.2-.3.08-.17,0-.12,0v.13l-.43.21-.12.06c-.47.24-1,.44-1.47.64l-.17.07a22,22,0,0,1-2.33.78l-.22.06a8,8,0,0,1-1.19.2v.13a16.23,16.23,0,0,1-1.69.32,4.2,4.2,0,0,0-.85.2l-.6.1-.18,0c-.41.06-.82.09-1.24.11a5.58,5.58,0,0,0-.81.09c-.51.07-1,.11-1.54.15h-.39a1.39,1.39,0,0,0-.41.09,3,3,0,0,1-.67.11h-.51l-.5,0h-.23c-.2,0-.4,0-.6.08a20.85,20.85,0,0,1-2.09.07v.13a8.59,8.59,0,0,1-1,.08h-.58c-.55,0-1.1,0-1.65.06s-1.39.05-2.09.05h-1.67a80.61,80.61,0,0,1-11.09-.64l-.48-.06a1.56,1.56,0,0,1-.45-.1,5.25,5.25,0,0,0-.71-.14l-.13,0-.41-.06c-.59-.08-1.17-.19-1.76-.32-.42-.09-.85-.15-1.28-.21l-.21,0-.18,0a3.66,3.66,0,0,1-.5-.16l-.36-.1-.42-.1-.15,0a19.91,19.91,0,0,1-2-.62c-.12,0-.24-.09-.36-.12l-.67-.23-.67-.23v-.13l-.2,0a3.52,3.52,0,0,1-.78-.24v-.13l-.17,0a5.52,5.52,0,0,1-1.6-.59,2,2,0,0,0-.39-.18c-.32-.14-.62-.3-.93-.47l-.18-.1-.17-.09-.16-.09c-.11-.08-.11-.08-.18-.28h-.17a1.17,1.17,0,0,1-.54-.25V79.1l-.25-.07c-1.4-.47-2.69-1.83-3.75-2.82l-.38-.36-.28-.26-.14-.12a2.7,2.7,0,0,1-.61-.81,1.71,1.71,0,0,0-.22-.25,17.52,17.52,0,0,1-2.56-4c0-.11-.11-.21-.16-.32-.19-.35-.19-.35-.19-.56h-.13c0-.07,0-.13,0-.19a.5.5,0,0,0,0-.13c0-.09,0-.18-.08-.28s-.11-.46-.18-.7a4.19,4.19,0,0,1,0-2.73l0-.15a3.18,3.18,0,0,1,.79-1.09l.14-.14a4.68,4.68,0,0,1,1.37-.84l.36-.2a1.32,1.32,0,0,1,.56-.18,4.85,4.85,0,0,0,.75-.19,6.45,6.45,0,0,1,1-.25l.14,0a4.07,4.07,0,0,1,.61-.05v-.13a5,5,0,0,1,.86-.1,5.29,5.29,0,0,0,1-.13,7.3,7.3,0,0,1,.93-.08,1.15,1.15,0,0,0,.36,0,7.93,7.93,0,0,1,.84-.07h.21C123.31,61.76,124.12,61.75,124.92,61.75Z"/><path class="cls-11" d="M132.31,36.48h.49a13.51,13.51,0,0,1,3,.26l.91.13c1.76.21,1.76.21,2,.42l.32,0a4.21,4.21,0,0,1,1.24.41,2.27,2.27,0,0,0,.51.14,9.46,9.46,0,0,1,2.16.95l.13.07.14.07a1.8,1.8,0,0,0,.52.13v.13l.13.05a2.28,2.28,0,0,1,.74.43,3,3,0,0,0,.49.36,9.88,9.88,0,0,1,2.75,2.68l.11.18a5.92,5.92,0,0,1,.94,4.5,5.6,5.6,0,0,1-.21.66c0,.11-.06.22-.1.33a4.76,4.76,0,0,1-.29.65h-.13l0,.14a7.27,7.27,0,0,1-2.48,2.63l-.14.1-.14.1-.12.09a.59.59,0,0,1-.26.1l-.12,0-.06.19-.39.07v.13c-.6.3-1.22.55-1.85.79l-.27.1-.4.16-.24.09a3,3,0,0,1-1,.22v.13l-.2,0a11,11,0,0,0-1.29.29,6.43,6.43,0,0,1-1.37.23l-.64.07a20.43,20.43,0,0,1-2.35.11h-.18a21.84,21.84,0,0,1-2.56-.13l-.39,0a21,21,0,0,1-2.08-.36,9.47,9.47,0,0,0-1.3-.19,2.27,2.27,0,0,1-.67-.21,4.88,4.88,0,0,0-1-.32V53.5l-.24-.06a7.35,7.35,0,0,1-1.51-.54l-.17-.06a13.11,13.11,0,0,1-4.39-2.93v-.2l-.11,0a1.72,1.72,0,0,1-.45-.4l-.15-.17a3.32,3.32,0,0,1-.33-.5l-.12-.12a3.22,3.22,0,0,1-.6-1l0-.12a1.22,1.22,0,0,1-.14-.59h-.13a6.43,6.43,0,0,1,.39-4.3h.13c0-.05,0-.09,0-.15.25-1,1.46-2,2.26-2.59l.14-.11a.92.92,0,0,1,.28-.14.43.43,0,0,0,.28-.19,4.31,4.31,0,0,1,1.38-.79l.22-.14A3,3,0,0,1,124,38a1.92,1.92,0,0,0,.39-.17,6.48,6.48,0,0,1,1.14-.42l.33-.11a18.79,18.79,0,0,1,3.23-.62,2.88,2.88,0,0,0,.51-.1A12.2,12.2,0,0,1,132.31,36.48Z"/><path class="cls-12" d="M169.21,37.06h.21a17.17,17.17,0,0,1,2.68.19c.24,0,.48.06.73.09a11.31,11.31,0,0,1,1.39.26c.32.08.64.14,1,.2v.13l.13,0a9.58,9.58,0,0,1,1.4.36l.21.08.2.06.18.06a2.26,2.26,0,0,1,.42.26,4.63,4.63,0,0,0,.52.07V39l.33.06v.13l.58.22.14,0,.28.1a1.17,1.17,0,0,1,.56.35l.16.09a.81.81,0,0,1,.28.22,4.1,4.1,0,0,0,.58.45,7.17,7.17,0,0,1,1.13.93v.13h.11c.64.21,1.16,1.15,1.52,1.68l.09.13a6.73,6.73,0,0,1,1,4.78,7.11,7.11,0,0,1-.68,1.94h-.13l-.05.13a2.67,2.67,0,0,1-.67,1c-.09.11-.19.21-.28.31a7.62,7.62,0,0,1-1.49,1.35,4,4,0,0,0-.51.41l-.14.15H181v.13l-.59.13V54a3.88,3.88,0,0,1-1.23.52v.13l-.15,0-.2.07-.19.06-.58.21a11.74,11.74,0,0,1-1.19.37l-.22.06c-.65.17-1.3.31-2,.43l-.16,0a18.11,18.11,0,0,1-3.12.2H171c-3.26,0-3.26,0-4.27-.42l-.53-.08c-.44-.08-.87-.16-1.31-.28l-.16,0a5.69,5.69,0,0,1-.87-.32l-.4-.15-.22-.09-.47-.17-.22-.09-.21-.08a1,1,0,0,1-.37-.27l-.32-.12a10.44,10.44,0,0,1-3.46-2.36l-.18-.17a7.56,7.56,0,0,1-1.29-1.58c-.09-.16-.09-.16-.29-.27v-.26h-.13a7.38,7.38,0,0,1-.68-1.76c0-.12-.07-.24-.11-.36A5.67,5.67,0,0,1,155.4,46v-.14a5.9,5.9,0,0,1,.69-2.89h.13l0-.14A5,5,0,0,1,157.58,41l.11-.11a8.22,8.22,0,0,1,.88-.77l.14-.11a5.57,5.57,0,0,1,1.86-1v-.13l.16-.07.21-.08.21-.09a1.64,1.64,0,0,0,.35-.18,3,3,0,0,1,.56-.24l.23-.08.24-.08.23-.07.67-.22.17-.06a6.32,6.32,0,0,1,1.13-.24,6.93,6.93,0,0,0,.91-.16A15.38,15.38,0,0,1,169.21,37.06Z"/><path class="cls-13" d="M126.65,66.65a1.08,1.08,0,0,1,.78.21l.18.12a5.23,5.23,0,0,1,.49.45,28,28,0,0,0,2.8,2.18l.12.09a3.44,3.44,0,0,0,.66.34l.22.19a3.45,3.45,0,0,0,1.08.66l.14.07v.13l.14,0a2.69,2.69,0,0,1,.34.17,2.45,2.45,0,0,0,.56.23v.13l.23.07a8.9,8.9,0,0,1,1.4.65v.13l.18,0a1.3,1.3,0,0,1,.48.16v.14h.12a5.59,5.59,0,0,1,.78.28l.17.07,1.57.65,1.06.43.55.23a6.13,6.13,0,0,0,.6.22,3.66,3.66,0,0,1,.58.22,5.83,5.83,0,0,0,1.15.34,3,3,0,0,1,.77.29,3.37,3.37,0,0,0,.83.21c.23,0,.46.13.68.2a2.83,2.83,0,0,0,.58.11v.13l.85.06v.13H147l.16,0a1.32,1.32,0,0,1,.42.15,1.18,1.18,0,0,0,.28,0,1.7,1.7,0,0,1,.5.09,7.73,7.73,0,0,0,.81.16l.16,0,.5.07.18,0c.76.12,1.53.23,2.31.29l.3,0c.57.05,1.13.06,1.7.06h.49a8.7,8.7,0,0,0,1.69-.14l.43-.07.21,0,.44-.07a4,4,0,0,0,1.13-.3l.41-.1a3.7,3.7,0,0,0,.57-.16v-.13l.16,0,.22-.09.21-.08a1.1,1.1,0,0,0,.45-.43l.24-.11a3.54,3.54,0,0,0,1.3-1.22l.09-.11h.13c.05-.19.09-.38.13-.58h.13s0-.07,0-.11c.16-.48.16-.48.21-.6a3.35,3.35,0,0,0,.17-1.3c0-.07,0-.14,0-.21a3.13,3.13,0,0,0-.36-1.43c-.06-.11-.1-.23-.15-.34A2.88,2.88,0,0,0,162,69c-.12-.12-.12-.12-.12-.25a18.89,18.89,0,0,1,2.49.13l.66.07.16,0,1.25.1a1,1,0,0,1,.3,0,3.79,3.79,0,0,0,.67.06H168l1.1,0,1,0,.95,0h.36c.93,0,.93,0,1.26.27a2.64,2.64,0,0,1,.38.5l.22.32a2.59,2.59,0,0,1,.3.6,2.14,2.14,0,0,1,.13.19c0,.12.07.25.1.38a1.16,1.16,0,0,0,.1.32,3.72,3.72,0,0,1,.09,1.1,2.18,2.18,0,0,0,0,.25,3.61,3.61,0,0,1-.48,1.79h-.13s0,.09,0,.15a1,1,0,0,1-.38.5l-.17.18-.54.54-.18.18a2.14,2.14,0,0,1-1,.54v.13a9.57,9.57,0,0,1-1.25.6l-.23.08-.22.08a.71.71,0,0,0-.32.18,1.5,1.5,0,0,1-.54.22,5.05,5.05,0,0,0-.74.27,4,4,0,0,1-.83.26l-.73.2a15.32,15.32,0,0,1-1.72.41l-.4.1-.42,0a5.16,5.16,0,0,0-1.11.19,1,1,0,0,1-.35,0V80a1.08,1.08,0,0,0-.19,0l-.25,0-.26,0-.58.11a7.05,7.05,0,0,1-1,.11l-.19,0-.6,0-.79,0h-.2c-.35,0-.69.06-1,.1a41.15,41.15,0,0,1-5.44.15h-1c-2.14,0-4.25,0-6.38-.22h-.14l-1.74-.16-.45,0-1.64-.18V80h-.15a9.42,9.42,0,0,1-1.4-.1c-.3,0-.61-.07-.91-.11a8,8,0,0,1-1.08-.16,11,11,0,0,0-1.15-.16v-.13h-.22l-.3,0h-.15c-.37,0-.37,0-.44-.09l-.26,0-.16,0-.17,0-.17,0-.41-.07v-.13h-.2a9.69,9.69,0,0,1-1.61-.19l-.17,0a4.35,4.35,0,0,1-.76-.22,2.14,2.14,0,0,0-.35-.06,2.64,2.64,0,0,1-.82-.27V78l-.82-.17a5.82,5.82,0,0,1-1.22-.34c-.22-.1-.45-.18-.67-.26l-.14-.06-.69-.25a6.74,6.74,0,0,1-1.14-.48,6.58,6.58,0,0,0-.8-.31c-.19-.08-.19-.08-.32-.28l-.45-.19v-.13l-.72-.2v-.13l-.11-.05a8.64,8.64,0,0,1-1.39-.93l-.19-.15a10.37,10.37,0,0,1-1.34-1.31l-.19-.21a3.3,3.3,0,0,1-.57-.89.94.94,0,0,1-.06-.15,2.59,2.59,0,0,1-.3-2,3,3,0,0,1,1.16-1.42l.15-.06a1,1,0,0,0,.34-.19,5.36,5.36,0,0,1,1-.47l.24-.09a4.51,4.51,0,0,1,1.45-.29,6.47,6.47,0,0,0,.87-.11c.64-.1,1.28-.14,1.92-.18h.14A9.91,9.91,0,0,0,126.65,66.65Z"/><path class="cls-14" d="M169.34,6.21l.9,0h.29a6.39,6.39,0,0,1,2,.28l.26.08a4.05,4.05,0,0,1,.59.18s0,.09.07.13q.33.13.66.24c.36.13.36.13.46.3l.05.12a.68.68,0,0,0,.32,0c.32,0,.32,0,.48.15l.11.15c.24.25.49.48.75.71.73.68.73.68.81.92,0,0,.09.09.15.13,1.36,1.33,1.87,3.68,1.9,5.49a10.6,10.6,0,0,1-.22,2.52l0,.15a9.54,9.54,0,0,1-.62,1.87.5.5,0,0,1-.05.13,19.45,19.45,0,0,1-1.44,2.61,21.25,21.25,0,0,0-1.5,2.72,1.11,1.11,0,0,0-.07.16,4.74,4.74,0,0,0-.15.5c0,.25-.12.49-.19.74a7.4,7.4,0,0,0-.31,1.92,1.29,1.29,0,0,1-.47-.34L174,28l-.12-.13a9.77,9.77,0,0,0-1.07-1l-.54-.45a13.41,13.41,0,0,0-2.76-1.84v-.13l-.16-.05a4.52,4.52,0,0,1-.7-.34,8.46,8.46,0,0,0-1-.47,3.36,3.36,0,0,1-.43-.2,1.41,1.41,0,0,0-.43-.18v-.13l-.19,0c-.49-.12-1-.25-1.47-.4a27.42,27.42,0,0,0-3.72-.83l-.47-.09a10.93,10.93,0,0,0-1.28-.17h-.14c-1.89-.17-3.8-.14-5.69-.15a4,4,0,0,1,.17-1c0-.07.05-.13.07-.2a1.18,1.18,0,0,1,.07-.2,1.72,1.72,0,0,0,.07-.21,6.59,6.59,0,0,1,.4-.95c0-.09.06-.18.08-.27a8.88,8.88,0,0,1,.53-1.18l.06-.12A22.42,22.42,0,0,1,158.74,12c.13-.14.25-.28.37-.43.28-.31.57-.6.86-.9l.28-.28a13.28,13.28,0,0,1,1.26-1.12l.12-.1a10.13,10.13,0,0,1,2.17-1.39.54.54,0,0,0,.22-.17,3.35,3.35,0,0,1,1.4-.62,4.87,4.87,0,0,0,.53-.21A9.3,9.3,0,0,1,169.34,6.21Z"/><path class="cls-15" d="M128.3,66.65c3.63,0,7.26.07,10.9.24h.14l.92,0h.23c1.45.07,1.45.07,1.54.16l.35,0h.47l.26,0,1.57.09h.17l.86,0,.32,0h.15c.34,0,.34,0,.48.09a4.9,4.9,0,0,0,.54,0l.35,0h.19c1,.07,2,.14,3,.25,1.37.13,2.74.2,4.11.25.42,0,.83,0,1.25.08v.13h.63a4.88,4.88,0,0,1,.85.07c.37.06.74.09,1.11.12h.17l.69,0,.52,0h.15a2.05,2.05,0,0,1,1.53.88,5.45,5.45,0,0,1,.39.66l.15.23a2.88,2.88,0,0,1,.27,1.39v.17a2.64,2.64,0,0,1-.23,1.07c0,.07-.05.13-.07.2s-.05.11-.07.17l-.06.16-.06.13H162s0,.1,0,.14a3.68,3.68,0,0,1-1.05,1.24,3.19,3.19,0,0,0-.26.26.71.71,0,0,1-.52.18l-.06.2-.39.06c0,.07-.05.13-.07.2a6.14,6.14,0,0,1-1.84.56l-.27.06-.51.11-.38.08a4.42,4.42,0,0,1-1.08.12h-.94a16.85,16.85,0,0,1-3.82-.31c-.3-.07-.6-.11-.9-.15-.57-.09-1.14-.19-1.7-.32l-.18,0a5.05,5.05,0,0,1-1-.32l-.57-.13-.15,0-.61-.12q-.65-.14-1.29-.33l-.21-.05a9.65,9.65,0,0,1-1-.38l-.84-.28c-.66-.21-1.31-.44-2-.69v-.13l-.14,0a9.61,9.61,0,0,1-1.19-.36l-.13-.06a5.55,5.55,0,0,1-.56-.24,3.14,3.14,0,0,0-.58-.22,7.22,7.22,0,0,1-1.33-.6,5.59,5.59,0,0,0-.6-.3l-.19-.1-.4-.19-.18-.09-.17-.08c-.13-.08-.13-.08-.19-.28l-.25,0a1,1,0,0,1-.6-.24v-.13h-.13a2.73,2.73,0,0,1-.71-.34l-.13-.08-.33-.22v-.13l-.15-.05a3.56,3.56,0,0,1-.51-.27v-.13l-.18,0a1.75,1.75,0,0,1-.68-.41c-.2-.16-.4-.3-.61-.44-.42-.3-.82-.62-1.23-1-.23-.19-.47-.37-.71-.54C128.36,66.85,128.36,66.85,128.3,66.65Z"/><path class="cls-16" d="M137.49,40.22a5,5,0,0,0,.67.29,1.28,1.28,0,0,1,.56.42l.28.21a6.31,6.31,0,0,1,.76.7,2.11,2.11,0,0,0,.34.29,3.14,3.14,0,0,1,.84,1.28c0,.07.09.13.13.21a3.77,3.77,0,0,1,.46,1.81s0,.1,0,.15a5.28,5.28,0,0,1-.27,2.13l-.06.15c-.06.15-.13.29-.2.43a2.12,2.12,0,0,1-.11.21,7,7,0,0,1-2.46,2.59l-.11.07a2.39,2.39,0,0,1-.71.32v.13l-.45.07-.07.19a3.46,3.46,0,0,1-1.18.37c-.12,0-.12,0-.19.09a10.82,10.82,0,0,1-7.55-.78l-.39-.26-.22-.09a5.67,5.67,0,0,1-2.26-2.06v-.26l-.19-.07c-.09-.13-.18-.27-.26-.41a.54.54,0,0,0-.07-.13,5.9,5.9,0,0,1-.53-3.56h.13s0-.08,0-.12a4.58,4.58,0,0,1,1.09-2.42l.14-.17a8,8,0,0,1,.88-.87l.11-.09a2,2,0,0,1,.62-.37c.13-.08.26-.15.39-.24A10.15,10.15,0,0,1,137.49,40.22Z"/><path class="cls-17" d="M173.1,40.47l.31.09.8.24v.13l.15,0a1.67,1.67,0,0,1,.44.17v.2l.17,0a2.44,2.44,0,0,1,.67.42l.12.1a4.71,4.71,0,0,1,1.91,3,5.53,5.53,0,0,1-1.33,4.23,7.58,7.58,0,0,1-2.58,2h-.13v.13l-.16.07-.22.08-.22.09-.56.22a8.57,8.57,0,0,1-2.94.72h-.21a10.8,10.8,0,0,1-4.48-.6l-.2-.07-.45-.19v-.13l-.22,0c-.24-.08-.24-.08-.37-.27l-.26-.07-.06-.13-.19-.09a3.43,3.43,0,0,1-1.49-1.68.43.43,0,0,0,0-.11h-.19v-.2h-.13a5.61,5.61,0,0,1,0-3.79,6.37,6.37,0,0,1,.35-.63l.09-.23a6.42,6.42,0,0,1,2-2.18l.13-.11a2.23,2.23,0,0,1,.54-.31,3.28,3.28,0,0,0,.58-.32,5,5,0,0,1,1.54-.66l.52-.17A10.46,10.46,0,0,1,173.1,40.47Z"/><path class="cls-18" d="M114.36,8.08h.29a4,4,0,0,1,1.61.22,5.12,5.12,0,0,0,.78.15,1.62,1.62,0,0,1,.52.23c.21.13.43.23.64.34l.13.07c.22.11.44.2.67.29a2,2,0,0,1,.75.47,3.81,3.81,0,0,0,.5.4,13.87,13.87,0,0,1,1.16,1c.07.08.15.14.22.21a7,7,0,0,1,2.11,2.87c-.1.32-.33.42-.62.59s-.16.09-.29.09v.13l-.12,0a7.79,7.79,0,0,0-.76.39,3.36,3.36,0,0,1-.82.3,3.92,3.92,0,0,0-.81.36,1.69,1.69,0,0,1-.43.15v.13a3.37,3.37,0,0,1-.34.09l-.2,0-.44.12v.13l-.17,0a4,4,0,0,0-1.07.36,2.58,2.58,0,0,1-.46.18,8,8,0,0,0-1.07.49l-.68.31-.26.13c-.24.12-.48.22-.72.32a2.75,2.75,0,0,1-.3.14c-.22.1-.44.18-.67.26v.13a2.51,2.51,0,0,1-.57.28,2,2,0,0,0-1.06.69l-.33.15a2.88,2.88,0,0,0-.56.34l-.12.09A13.78,13.78,0,0,0,109.48,22l-.17.16-.15.15a.33.33,0,0,1-.31.09,1,1,0,0,1-.61-.55,8.36,8.36,0,0,1-.32-.83,4.35,4.35,0,0,0-.27-.58,3.82,3.82,0,0,1-.36-1.16c0-.13,0-.13-.09-.2,0-.45,0-.91-.06-1.36,0-.08,0-.15,0-.22-.09-2.86-.09-2.86.4-3.76,0-.15.08-.3.13-.45a5.81,5.81,0,0,1,.54-1.16,4.49,4.49,0,0,0,.21-.44,6.36,6.36,0,0,1,2-2.38l.15-.12a3.28,3.28,0,0,1,1-.47,3.49,3.49,0,0,0,.44-.2A5.1,5.1,0,0,1,114.36,8.08Z"/><path class="cls-19" d="M131.53,31.34h.63a23.54,23.54,0,0,1,2.65.15l.14,0,.87.11.24,0a10.56,10.56,0,0,1,1.93.43l.26.07.13,0,.13,0,.13,0,.33.08v.13l.14,0c.22,0,.43.1.65.16l.24.07a1.35,1.35,0,0,1,.47.26l.43.23.13.05a5.65,5.65,0,0,0,.67.29,9,9,0,0,1,4.57,4.18,6.5,6.5,0,0,1,.22.84c0,.19,0,.19.11.27s0,.21,0,.32a2.48,2.48,0,0,0,.14,1.48,6.39,6.39,0,0,0,.93.87,5.49,5.49,0,0,1,.86,1.11c0,.07.09.14.15.21a6.71,6.71,0,0,1,1,3.49v.21c0,1.17,0,1.17-.28,1.56a2.21,2.21,0,0,1-.05.25,4.17,4.17,0,0,1-.47,1.11h-.13a1.12,1.12,0,0,0-.05.13l-.21.46-.06.12a2,2,0,0,1-.41.47l-.18.2a7.76,7.76,0,0,1-2.23,1.88l-.06.2a1.32,1.32,0,0,1-.28.09,1.59,1.59,0,0,0-.84.6,14.06,14.06,0,0,1-3.18,2.72c-.16.1-.16.1-.2.3-.34.19-.34.19-.52.19V57l-.59.13v.13a14.5,14.5,0,0,1-1.76.78l-.79.33a5.24,5.24,0,0,1-.88.26,3.31,3.31,0,0,0-.7.2,5.37,5.37,0,0,1-.94.23c-.14,0-.14,0-.2.09l-.39.06-.24,0-.25,0-.25,0c-.4.06-.79.11-1.19.14a1.27,1.27,0,0,0-.39.09,4.23,4.23,0,0,1-1.12.08h-2.63a3.85,3.85,0,0,1-.58-.08l-.47,0a12.67,12.67,0,0,1-1.64-.21l-.35,0a8.28,8.28,0,0,1-1.37-.33c-.43-.13-.88-.26-1.32-.36a6.29,6.29,0,0,1-1.36-.59l-.43-.21-.51-.28a2,2,0,0,0-.39-.19,4.07,4.07,0,0,1-.7-.4l-.13-.08a8.47,8.47,0,0,1-2.14-1.9.91.91,0,0,1,0-.33,1,1,0,0,1,.48.23l.13.09.15.11c.38.28.77.54,1.18.79l.13.09c.19.11.39.23.6.33v.13l.14.06a5.4,5.4,0,0,1,.49.23,15.85,15.85,0,0,0,1.7.68l.47.18a13.46,13.46,0,0,0,3.19.81v.13a29.09,29.09,0,0,0,7.63,0,6.83,6.83,0,0,1,.78-.06,3.66,3.66,0,0,0,1.38-.32,7.11,7.11,0,0,1,1-.32l.16,0,.15,0c.13,0,.13,0,.25-.17l.41-.09a5.57,5.57,0,0,0,.79-.25.85.85,0,0,1,.36,0V56.9l.23-.1c.31-.13.61-.28.91-.43l.13-.06a2,2,0,0,0,.56-.38l.28-.19.17-.1.17-.11.33-.2.15-.1a1,1,0,0,0,.26-.21l.22-.05c.28-.09.29-.16.43-.41a4.38,4.38,0,0,1,.39-.26,7,7,0,0,0-1,.29,8.35,8.35,0,0,1-1.39.36l-.3.06-.83.17-.35.07a22.18,22.18,0,0,1-4.23.37h-.18a26,26,0,0,1-3.42-.25l-.19,0a20.09,20.09,0,0,1-2.55-.48l-.36-.09a6.22,6.22,0,0,1-1-.32l-.78-.3-.17,0-.77-.28a9.23,9.23,0,0,1-2.26-1.14,1.14,1.14,0,0,0-.33-.15,4.5,4.5,0,0,1-.79-.48l-.15-.1a5.88,5.88,0,0,1-1.6-1.36v-.13l-.11-.05A5.16,5.16,0,0,1,118,48.12V48l-.19-.07a3.18,3.18,0,0,1-.22-.68c-.07-.29-.16-.57-.24-.85a6.54,6.54,0,0,1,.39-4.07,3.24,3.24,0,0,0,.13-.33H118a.59.59,0,0,0,0-.14,3.93,3.93,0,0,1,1.19-1.64l.27-.29a6.82,6.82,0,0,1,2.07-1.55l.53-.29a16.16,16.16,0,0,1,6.44-2,1,1,0,0,0,.43-.1,4.26,4.26,0,0,1,.94-.13l.2,0c.86-.07,1.71-.06,2.56-.06h.53a7.35,7.35,0,0,1,3.05.28l.37.07.2,0,.22,0c.54.1,1.08.23,1.61.38a6.88,6.88,0,0,0,.79.15.86.86,0,0,1,.27.09v.13l.11,0a6.89,6.89,0,0,1,2.48.88,4.38,4.38,0,0,0,.54.23c.22.09.43.2.64.31v.13l.14.05a7.51,7.51,0,0,1,1.05.55l.13.07a8.31,8.31,0,0,1,.9.66A.62.62,0,0,0,146,40a4.75,4.75,0,0,0-1.1-2.74,1.34,1.34,0,0,1-.11-.14c-.12-.13-.23-.26-.35-.38l-.14-.16a8.52,8.52,0,0,0-1.12-1,2.07,2.07,0,0,1-.31-.27,1.42,1.42,0,0,0-.58-.31l-.19-.13v-.13l-.15-.05a11.45,11.45,0,0,1-1.38-.63,10.08,10.08,0,0,0-1.53-.59l-.27-.08c-.21-.07-.43-.15-.65-.21v-.13l-.2,0a3.88,3.88,0,0,1-1.18-.21,3.24,3.24,0,0,0-.88-.14,4.9,4.9,0,0,1-.65-.11,26.74,26.74,0,0,0-9.1.13l-.17,0a2.86,2.86,0,0,0-.58.13l-.31,0a7.65,7.65,0,0,0-1.18.2,14.7,14.7,0,0,1-1.76.3,5.73,5.73,0,0,0-.7.13,4.75,4.75,0,0,1-.84.14l-.16,0c-.33,0-.65,0-1,0a4.71,4.71,0,0,1,2-.75l.93-.25c.31-.08.62-.15.94-.21l.65-.15a18.1,18.1,0,0,1,1.78-.36l.72-.13c.47-.09.92-.17,1.39-.24l.21,0A18.18,18.18,0,0,1,131.53,31.34ZM129,36.73l-.54.08a11.22,11.22,0,0,0-4.3,1.19l-.38.12a3,3,0,0,0-.8.39,1.34,1.34,0,0,1-.37.16,2.21,2.21,0,0,0-1.12.76l-.33.13a7.77,7.77,0,0,0-2.47,2.6v.26h-.13a6.44,6.44,0,0,0-.39,4.3h.13a1.52,1.52,0,0,0,.26.8,2.17,2.17,0,0,1,.16.38,1.89,1.89,0,0,0,.48.77c.15.16.29.33.43.5a5.11,5.11,0,0,0,.48.55h.13l0,.12c.15.46.76.82,1.14,1.1l.17.12a20.77,20.77,0,0,0,2.33,1.47l.13.07c.3.15.59.26.9.38l.22.1a7.63,7.63,0,0,0,1.41.42v.13l.14,0a3.28,3.28,0,0,1,1.21.43,2,2,0,0,0,.65.12,15.22,15.22,0,0,1,1.89.32,11.7,11.7,0,0,0,1.32.21l.13,0,.46,0,.21,0c.64.06,1.29.06,1.94.06H135a17.76,17.76,0,0,0,2.19-.13l.65-.06a6.27,6.27,0,0,0,1.42-.28c.42-.12.85-.18,1.27-.26V54h.21a8.3,8.3,0,0,0,2.63-.95c.22-.11.45-.2.68-.29l.26-.11v-.13l.46-.13v-.13l.13-.05a7.27,7.27,0,0,0,3.19-3v-.13h.13a6,6,0,0,0,.59-4.12,7.37,7.37,0,0,0-2-3.31l-.18-.18a11.06,11.06,0,0,0-1.84-1.5l-.4-.31a1.37,1.37,0,0,0-.77-.42V39.1l-.23-.05a2.89,2.89,0,0,1-.77-.33l-.25-.14-.12-.08a10.45,10.45,0,0,0-2-.78,5.48,5.48,0,0,1-.89-.3,1.61,1.61,0,0,0-.48-.12,3.33,3.33,0,0,1-.64-.16,16.93,16.93,0,0,0-2.26-.39l-.56-.08-.34-.05-.16,0-.13,0a1,1,0,0,1-.26-.06,1.91,1.91,0,0,0-.48,0h-1.91A14.3,14.3,0,0,0,129,36.73Z"/><path class="cls-20" d="M169.34,6.21l.9,0h.29a6.39,6.39,0,0,1,2,.28l.26.08a4.05,4.05,0,0,1,.59.18s0,.09.07.13q.33.13.66.24c.36.13.36.13.46.3l.05.12a.68.68,0,0,0,.32,0c.31,0,.31,0,.5.17l.1.12a.53.53,0,0,1-.33-.06h-1.38a6.74,6.74,0,0,0-1.88.32l-.26.08a6.26,6.26,0,0,0-1.7.66,3.6,3.6,0,0,1-.49.23,6.22,6.22,0,0,0-1,.5l-.19.1a19.47,19.47,0,0,0-3.53,2.73l-.17.17a12,12,0,0,0-1.06,1.2c-.06.06-.11.14-.17.2a13,13,0,0,0-2.3,4c-.06.15-.12.3-.19.45-.17.37-.3.77-.44,1.17,0,.13-.08.25-.13.38a9,9,0,0,0-.36,1.45l.23,0,1.53.28v.07a2.77,2.77,0,0,1-.81-.06,11,11,0,0,0-1.3-.18h-.14c-1.89-.16-3.8-.13-5.69-.14a4,4,0,0,1,.17-1c0-.07.05-.13.07-.21s0-.13.07-.2a1,1,0,0,0,.07-.21,7.1,7.1,0,0,1,.4-.95c0-.08.06-.17.08-.26a8.33,8.33,0,0,1,.53-1.18l.06-.12A22.48,22.48,0,0,1,158.74,12c.13-.13.25-.28.37-.42.28-.31.57-.61.86-.91l.28-.28a16.79,16.79,0,0,1,1.26-1.12l.12-.09a10.18,10.18,0,0,1,2.17-1.4.41.41,0,0,0,.22-.17,3.46,3.46,0,0,1,1.4-.61c.18-.06.36-.14.53-.21A9.1,9.1,0,0,1,169.34,6.21Z"/><path class="cls-21" d="M126.65,66.65a1.08,1.08,0,0,1,.78.21l.18.12a5.23,5.23,0,0,1,.49.45,28,28,0,0,0,2.8,2.18l.12.09a3.44,3.44,0,0,0,.66.34l.22.19a3.45,3.45,0,0,0,1.08.66l.14.07v.13l.14,0a2.69,2.69,0,0,1,.34.17,2.45,2.45,0,0,0,.56.23v.13l.23.07a8.9,8.9,0,0,1,1.4.65v.13l.18,0a1.3,1.3,0,0,1,.48.16v.14h.12a5.59,5.59,0,0,1,.78.28l.17.07,1.57.65,1.06.43.55.23a6.13,6.13,0,0,0,.6.22,3.66,3.66,0,0,1,.58.22,5.83,5.83,0,0,0,1.15.34,3,3,0,0,1,.77.29,3.37,3.37,0,0,0,.83.21c.23,0,.46.13.68.2a2.83,2.83,0,0,0,.58.11v.13l.85.06v.13H147l.16,0a1.32,1.32,0,0,1,.42.15,1.18,1.18,0,0,0,.28,0,1.7,1.7,0,0,1,.5.09,7.73,7.73,0,0,0,.81.16l.16,0,.5.07.18,0c.76.12,1.53.23,2.31.29l.3,0c.57.05,1.13.06,1.7.06h.49a8,8,0,0,0,1.69-.14,2.52,2.52,0,0,1,.6-.07h.25a1,1,0,0,1-.53.2.76.76,0,0,0-.39.13,11.37,11.37,0,0,1-1.32.23l-.19,0a16.34,16.34,0,0,1-2.1.14h-1.29a30.06,30.06,0,0,1-3.15-.15l-.22,0a30.89,30.89,0,0,1-5.15-.93,6.41,6.41,0,0,0-.76-.16l-.28-.1c-.22-.08-.44-.14-.67-.2a5.87,5.87,0,0,1-.81-.26l-.94-.25a5.23,5.23,0,0,1-1-.35,1.36,1.36,0,0,0-.44-.11v-.14h-.11a6.44,6.44,0,0,1-1-.3l-.14-.06-.46-.19-.32-.12c-.72-.29-1.44-.58-2.14-.89l-.37-.16-.8-.36-.17-.07-1.14-.55-.41-.19-.92-.44-.68-.31-.35-.16-.19-.08-.33-.15a8,8,0,0,0-1.07-.38,4.53,4.53,0,0,1-.55-.23,10.05,10.05,0,0,0-4.81-.43v.13l-.8.22-.23.07-.22,0-.2.06-.44.12V71l-.45.13v.13c-.38.2-.38.2-.53.2v.13l-.39.26-.13.13c-.78-1.62-.78-1.62-.5-2.42a3.1,3.1,0,0,1,1.15-1.43l.16,0a1,1,0,0,0,.34-.19,4.79,4.79,0,0,1,1-.47l.24-.09a4.51,4.51,0,0,1,1.45-.29,6.47,6.47,0,0,0,.87-.11c.64-.1,1.28-.14,1.92-.18h.14Z"/><path class="cls-22" d="M113.6,7.38h.69a7.23,7.23,0,0,1,2.17.28l.21.06a10,10,0,0,1,2.57,1.11l.13.07a11.7,11.7,0,0,1,1.44,1L121,10a12.47,12.47,0,0,1,2.59,2.69l.09.12c.09.13.19.26.27.39l.08.12a1.92,1.92,0,0,1,.38,1.48,2.45,2.45,0,0,1-1.08.88h-.13v.13c-.21.1-.43.19-.65.27a3.81,3.81,0,0,0-1,.5,2.41,2.41,0,0,1-1,.36,2,2,0,0,0-.66.3,4,4,0,0,1-.59.27l-.25.14a2,2,0,0,1-.56.19,2.78,2.78,0,0,0-.68.25,4,4,0,0,1-.48.2,14.51,14.51,0,0,0-1.77.76,2.87,2.87,0,0,1-.4.18,6.19,6.19,0,0,0-.57.3,4.21,4.21,0,0,1-1,.39V20c-.45.19-.45.19-.59.19s0,.13-.07.2l-.31.13c-.17.08-.32.17-.48.26l-.16.1a.49.49,0,0,0-.24.23.82.82,0,0,1-.43.27,3.09,3.09,0,0,0-.66.48l-.15.12a9.15,9.15,0,0,0-2.72,3.18l-.22.46a4.41,4.41,0,0,0-.29.71h-.13L107,27.53s0,.09,0,.14a2.37,2.37,0,0,0,1.47,2.45l.13.06a5.87,5.87,0,0,0,3.68-.05l.21-.05.67-.17.21-.05a10.9,10.9,0,0,0,1.21-.43,2.41,2.41,0,0,1,.58-.17,2.91,2.91,0,0,0,.76-.29h.19c0-.07.05-.13.07-.2l.32-.12a4.45,4.45,0,0,0,.71-.3A7.27,7.27,0,0,1,118,28a4.52,4.52,0,0,0,.86-.41,3.12,3.12,0,0,1,.42-.18c.54-.22,1.06-.5,1.59-.77l.63-.32.15-.08c.34-.17.34-.17.49-.17V26a7,7,0,0,1,.9-.43l.43-.2c.18-.09.18-.09.31-.09v-.13a3.29,3.29,0,0,1,1.1-.39,4,4,0,0,1-1,.73l-.18.11-1.26.75a1.19,1.19,0,0,0-.15.09l-.15.08-.13.07a.39.39,0,0,1-.24.05v.14a1.49,1.49,0,0,1-.71.26v.13a2.69,2.69,0,0,1-1,.39v.13l-.69.34-.2.1c-.33.17-.66.33-1,.47l-.32.16a4.71,4.71,0,0,1-.73.31l-.36.17a7.66,7.66,0,0,1-1,.41l-.46.18a22.35,22.35,0,0,1-3.07,1l-.15,0a5.86,5.86,0,0,1-4.34-.31,3.35,3.35,0,0,1-1.17-1.36,1,1,0,0,1-.07-.15,4.54,4.54,0,0,1,.14-3.36,5.48,5.48,0,0,1,.31-.52,2,2,0,0,0,.18-.39,2.46,2.46,0,0,1,.4-.71l.09-.12a3.63,3.63,0,0,1,.71-.86h.13a3.63,3.63,0,0,0-.56-.73c-.09-.12-.09-.12-.09-.25h-.13a3.88,3.88,0,0,1-.48-1.08,2.92,2.92,0,0,0-.25-.54c-1.07-2.32-.64-5.57.19-7.88a4.74,4.74,0,0,1,.38-.7,2.26,2.26,0,0,0,.19-.42A6.92,6.92,0,0,1,111.17,8a1.82,1.82,0,0,1,.51-.13l.19,0,.14,0V7.72a5.82,5.82,0,0,1,1.17-.26C113.3,7.34,113.45,7.38,113.6,7.38Zm-1.37,1-.22.08-.6.29a1.66,1.66,0,0,1-.33.14,6,6,0,0,0-2.8,2.93l0,.11a4.52,4.52,0,0,1-.25.49,4.68,4.68,0,0,0-.5,1.35c0,.12,0,.12-.09.18a16,16,0,0,0-.26,3.72c0,.07,0,.13,0,.2s0,.39,0,.58v.17a1.07,1.07,0,0,0,.16.61l.06.32a3.3,3.3,0,0,0,.36,1c.15.32.28.66.41,1a1.51,1.51,0,0,0,.61.81,1,1,0,0,0,.71-.42,7.74,7.74,0,0,1,2.33-1.73,1.32,1.32,0,0,0,.36-.26,6.63,6.63,0,0,1,1.23-.66l.13-.06v-.13l.16-.05c.23-.08.44-.18.67-.28l.3-.13a6.91,6.91,0,0,0,.72-.36,5.7,5.7,0,0,1,.8-.35l.41-.2a4.71,4.71,0,0,1,.81-.32,3.29,3.29,0,0,0,.42-.21,4.4,4.4,0,0,1,1.11-.32v-.13l.11,0,.53-.15.19-.05.15,0v-.13l.11,0a.59.59,0,0,0,.29-.13,3.61,3.61,0,0,1,.64-.27,7.3,7.3,0,0,0,1.25-.55,4.3,4.3,0,0,1,.64-.26V15l.13,0a2.58,2.58,0,0,0,.72-.41.74.74,0,0,0-.08-.63A10.34,10.34,0,0,0,122,11.81l-.11-.11a11.35,11.35,0,0,0-2-1.72,1.53,1.53,0,0,1-.3-.25,3.19,3.19,0,0,0-1.07-.58,5.57,5.57,0,0,1-1-.53,2.64,2.64,0,0,0-1-.27,2.85,2.85,0,0,1-.55-.16,4.24,4.24,0,0,0-1.28-.11h-.43A5.15,5.15,0,0,0,112.23,8.39Z"/><path class="cls-21" d="M161.9,68.74a18.79,18.79,0,0,1,2.49.12l.66.07.17,0c.41,0,.82.07,1.24.1a1,1,0,0,1,.31,0,2.54,2.54,0,0,0,.67.06l.32,0h.18l1.11,0c.32,0,.65,0,1,0l.94,0h.36c.93,0,.93,0,1.26.27a3.27,3.27,0,0,1,.39.51l.22.31a3.06,3.06,0,0,1,.3.6,2.14,2.14,0,0,0,.13.19l.09.38a1.34,1.34,0,0,0,.1.33,2,2,0,0,1,.08.65v.25a2.18,2.18,0,0,1,0,.25V74h-.07v-.32l-.24,0a4.52,4.52,0,0,1-.71-.23,13.27,13.27,0,0,0-4-.88l-.29,0c-.4,0-.8-.05-1.2-.05h-1.8a3.72,3.72,0,0,0-1.09.15l-.21,0-.38.11a2.83,2.83,0,0,1-.58,0,2.1,2.1,0,0,0-.13.26h-.13l-.07.19a4,4,0,0,1,.1-.44,5.11,5.11,0,0,0,.06-1v-.22a2.92,2.92,0,0,0-.35-1.44c-.06-.11-.1-.23-.15-.34A3,3,0,0,0,162,69C161.9,68.87,161.9,68.87,161.9,68.74Z"/><path class="cls-23" d="M172.91,34.35l.45.09a7.82,7.82,0,0,1,1.88.56l.47.19a3.13,3.13,0,0,1,.72.39,1.74,1.74,0,0,0,.38.14v.13l.13,0a5.08,5.08,0,0,1,.75.44l.15.11a21.73,21.73,0,0,1,2,1.56,4.17,4.17,0,0,0,1.25.84c0-.23-.05-.47-.07-.71a2.75,2.75,0,0,1,.33,1.62,3.86,3.86,0,0,1-.56-.32,10.81,10.81,0,0,0-2.63-1.37v-.13l-.15-.06-.31-.13a1.15,1.15,0,0,0-.4-.12,9.35,9.35,0,0,1-1.56-.47V37l-.21,0-1-.13-.19,0-.18,0-.16,0c-.13,0-.13,0-.19-.09l-.35-.06-.21,0-.24,0a1.81,1.81,0,0,0-.23,0l-.67-.1-.29,0a17.92,17.92,0,0,0-2.53-.17h-.17a20.9,20.9,0,0,0-3.06.22l-.21,0a16.87,16.87,0,0,0-4,1,.63.63,0,0,1-.35.06l-.06.19-.29.09a2.77,2.77,0,0,0-.92.47,1.41,1.41,0,0,1-.49.16,4.36,4.36,0,0,1,.88-.65l.2-.13c.6-.39,1.23-.75,1.86-1.1l.32-.21h.26v-.13a.88.88,0,0,0,.2-.09c.6-.26.6-.26,1.19-.54a4,4,0,0,1,.75-.3,1.19,1.19,0,0,0,.31-.14,5,5,0,0,1,.82-.29l.17-.05c.78-.21,1.57-.39,2.36-.55l.14,0A7.43,7.43,0,0,1,172.91,34.35Z"/><path class="cls-24" d="M137.8,30.64l.35.1a8.34,8.34,0,0,1,1.65.72,1.18,1.18,0,0,0,.19.11,17.57,17.57,0,0,1,3.83,2.92c.05,0,.09.1.15.15a6,6,0,0,1,.87,1v.2l-.09-.09a10.73,10.73,0,0,0-3.56-2.39l-.68-.34a4.49,4.49,0,0,0-.95-.38,3.58,3.58,0,0,1-.58-.19v-.13a.53.53,0,0,1-.12,0l-.35-.07-.35-.07a6.56,6.56,0,0,1-.87-.23,7.92,7.92,0,0,0-1.1-.21l-.16,0-.34-.05-.51-.06a25.3,25.3,0,0,0-3.37-.2h-.22a20.42,20.42,0,0,0-3.22.22l-.4.06c-.79.11-1.57.23-2.34.41-.25.06-.5.1-.75.15a10.46,10.46,0,0,0-1.14.24l-.48.11c-.42.08-.83.19-1.23.3l-.45.13-.19.05-.51.11a2,2,0,0,1,.67-.46l.12-.06c.28-.14.55-.27.84-.39l.25-.12c.33-.14.65-.27,1-.39s.59-.22.88-.35l.58-.2.53-.18c1.78-.61,1.78-.61,2.43-.59V30.3A17.93,17.93,0,0,1,137.8,30.64Z"/><path class="cls-24" d="M173.88,28.94a5.47,5.47,0,0,1,.89.91l.48.58c.91,1.1.91,1.1.91,1.51a7.06,7.06,0,0,1-1.29-.28c-.15,0-.29-.09-.44-.12l-.21-.06a12.22,12.22,0,0,0-3.8-.45h-.37a14.39,14.39,0,0,0-2.7.29l-.5.1a14.28,14.28,0,0,0-1.56.4l-.38.11A20.44,20.44,0,0,0,162.23,33l-.28.12-.3.14-.16.07c-.28.12-.55.25-.83.39a.61.61,0,0,1-.14.07l-.27.15a1.22,1.22,0,0,1-.62.16v.13l-.21.09a2.18,2.18,0,0,0-.43.22c-.14.09-.14.09-.27.09.44-1,2.09-1.78,3-2.33l.35-.21.17-.12a.85.85,0,0,0,.15-.09c.12-.05.12-.05.38-.05v-.14a9.27,9.27,0,0,1,1.52-.65,3.87,3.87,0,0,0,.55-.25,14.6,14.6,0,0,1,3.82-1.24l.13,0a17.54,17.54,0,0,1,3.83-.31H174C173.93,29.12,173.91,29,173.88,28.94Z"/><path class="cls-25" d="M171.48,83.19a10.5,10.5,0,0,1-2.26,3.68c-.1.11-.19.23-.28.35A21.83,21.83,0,0,1,167.37,89l-.12.12a13,13,0,0,1-1.33,1.24c-.18.14-.36.29-.53.45l-1,.79-.15.1a9.33,9.33,0,0,1-.84.55c-.13.08-.13.08-.17.27a1.6,1.6,0,0,1-.32.15l-.17.06a.6.6,0,0,1-.28,0c0,.07-.05.13-.07.2a1.82,1.82,0,0,1-.28.14l-.15.06-.41.13v.13l-.78.4-.22.12-.43.22c-.13.07-.27.13-.4.21l-.17.09-.15.08a.51.51,0,0,1-.4,0l.16-.1a30.82,30.82,0,0,0,3-2.12l.19-.15c.34-.28.67-.56,1-.86.12-.09.12-.09.25-.09v-.13l.22-.2c.35-.29.66-.61,1-.93l.17-.18.17-.16.16-.16a1.06,1.06,0,0,0,.25-.33h.13l.06-.12a1.55,1.55,0,0,1,.26-.37l.11-.13a1.34,1.34,0,0,0,.11-.14,19.75,19.75,0,0,0,2.3-3.5l.1-.2c0-.06.07-.12.1-.19s.06-.11.08-.17a.37.37,0,0,0,.07-.26l-.48.09-.13,0a3.56,3.56,0,0,0-.56.15h-.52a1.55,1.55,0,0,1,.66-.24l.14,0,.28-.06.45-.1.28-.06.13,0a2.32,2.32,0,0,1,.52-.07v-.13l.19,0a5.73,5.73,0,0,0,1.42-.32A.58.58,0,0,1,171.48,83.19Z"/><path class="cls-26" d="M136.31,42.75l.14.08a1.84,1.84,0,0,1,.9,1.22,1.5,1.5,0,0,1-.26,1.11c-.41.39-.41.39-.65.39,0,.07-.05.13-.07.2a2.51,2.51,0,0,1-1.69.13v-.13l-.24,0a.83.83,0,0,1-.61-.37l-.12-.13a1.45,1.45,0,0,1-.48-1.2,1.66,1.66,0,0,1,.65-1.18A2.29,2.29,0,0,1,136.31,42.75Z"/><path class="cls-27" d="M161.25,72.45c.13.13.13.13.13.33a2.55,2.55,0,0,1-1.08,1.44c-.26.18-.53.34-.81.51l-.16.1a3,3,0,0,1-.65.23,2.1,2.1,0,0,1-.24.06,4.66,4.66,0,0,1-3.53-.44,2.57,2.57,0,0,1-.37-.28,2.21,2.21,0,0,1,.07-.46,1,1,0,0,1,.49-.1l.22,0,.24,0a19.92,19.92,0,0,0,3.05-.55l.24-.07a9.37,9.37,0,0,0,1.49-.52A1.68,1.68,0,0,1,161.25,72.45Z"/><path class="cls-28" d="M174.08,43.71l.33.21.22.14a1.35,1.35,0,0,1,.11,1,1.83,1.83,0,0,1-.91,1.06l-.39.18-.14.07a2.4,2.4,0,0,1-.75.08h-.16a3,3,0,0,1-1.1-.22l0-.15a.85.85,0,0,0,0-.17,2.26,2.26,0,0,0-.33-.13,1.26,1.26,0,0,1-.13-.85,1.9,1.9,0,0,1,.78-1l.46-.2.14-.07A2.79,2.79,0,0,1,174.08,43.71Z"/><path class="cls-29" d="M180.4,57.47v1.35a8.72,8.72,0,0,1-.14,2c-.1.09-.19.08-.33.09l-.16,0-.18,0c-.33,0-.64.07-1,.13h-.52v-.06l.71-.07v-.13h.52V59.23h-.13a4,4,0,0,1-.06-.91l-.52.07c.06-.13.06-.13.22-.19l.2-.06a2.56,2.56,0,0,0,1.11-.57C180.27,57.47,180.27,57.47,180.4,57.47Z"/><path class="cls-30" d="M148.29,62c.72,0,1.45,0,2.17,0,1.44.07,2.9.11,4.34.15l.46,0,2.28,0h.2c2.47.06,4.94.08,7.42.08H168c1,0,1.92,0,2.88-.1.5,0,1-.05,1.49-.05v.07a39.64,39.64,0,0,1-6.72.21H164.6c-2.72,0-5.44,0-8.16-.08h-.2l-2.26,0h-.64c-1.17,0-2.33-.06-3.5-.13h-.14c-.47,0-.93-.05-1.39-.12A.07.07,0,0,1,148.29,62Z"/><path class="cls-31" d="M130.31,96.68c.7.06,1.39.15,2.08.26s1.33.18,2,.23a6,6,0,0,1,.61.09l.76,0a1.42,1.42,0,0,1,.42.08h6.25v.06c-1.19.09-2.37.08-3.55.08h-.7a30.2,30.2,0,0,1-4-.19c-.25,0-.5,0-.76-.06a7.67,7.67,0,0,1-1.17-.17c-.37-.08-.75-.13-1.13-.18a2.65,2.65,0,0,1-.77-.2Z"/><path class="cls-32" d="M135.79,66.78c.66,0,1.32,0,2,0h.28l.59,0,.75,0,.59,0h.27c1.68.08,1.68.08,1.78.18l.34,0h.23l.25,0,.26,0,1.56.08h.18l.86,0h.47c.33,0,.33,0,.48.09l.36,0,.2,0h.15v.06h-.65a10.17,10.17,0,0,1-1.1-.08c-.69-.07-1.38-.12-2.07-.16l-.19,0c-1.1-.07-2.2-.13-3.3-.17h-.47A2.05,2.05,0,0,1,139,67c-.62-.08-1.26-.08-1.88-.1a9.74,9.74,0,0,1-1.38-.09A.15.15,0,0,0,135.79,66.78Z"/><path class="cls-33" d="M155.06,85.67c-.19.19-.32.15-.58.16H153.1a4.36,4.36,0,0,0-.52.05,9.1,9.1,0,0,1-.91,0h-4.78a5.86,5.86,0,0,1-.94-.08V85.8h.21l2.05,0h1c1.46,0,2.91,0,4.36-.09C154.11,85.67,154.59,85.66,155.06,85.67Z"/><path class="cls-34" d="M119.18,92.12a1.84,1.84,0,0,1,.81.35c.44.27.88.51,1.34.75l.17.09c.35.18.7.35,1.06.51V94a.47.47,0,0,1-.43,0l-.19-.1-.22-.11-.22-.12c-.14-.08-.28-.16-.43-.23l-.21-.11-.48-.25a2.28,2.28,0,0,1-.71-.48,1.76,1.76,0,0,0-.49-.29Z"/><path class="cls-35" d="M161.64,68.61a14,14,0,0,1,1.83.08l.31,0,2.55.23c1.28.12,2.57.22,3.85.31v.06c-.76,0-1.51,0-2.27-.06h-.15l-.4,0h-.24a1.78,1.78,0,0,1-.33,0,3.4,3.4,0,0,0-.64-.08l-.14,0-.47,0c-.64-.06-1.27-.11-1.91-.19a13.83,13.83,0,0,0-1.93,0A.7.7,0,0,0,161.64,68.61Z"/><path class="cls-29" d="M154.56,22.16h1.79a21.38,21.38,0,0,1,3.92.21v.07l-.83,0h-.68l-.57,0a13.09,13.09,0,0,0-1.4,0h-2.52a8.79,8.79,0,0,0-1.36.07l-.91.07-.26,0a17.23,17.23,0,0,1-1.76,0v-.06q1.07-.14,2.13-.18c.28,0,.56,0,.84-.05A14.44,14.44,0,0,1,154.56,22.16Z"/><path class="cls-36" d="M171.41,31.81h.18a7.2,7.2,0,0,1,1.9.32v.07l-.37,0h-.21a1.3,1.3,0,0,1-.31,0,2.35,2.35,0,0,0-.59,0h-4V32A16.58,16.58,0,0,1,171.41,31.81Z"/><path class="cls-37" d="M130.64,17.42h.07a17.92,17.92,0,0,1,.15,2.43V20a47.79,47.79,0,0,1-.28,4.94l-.25.1-.13.06c-.14,0-.14,0-.4,0l.65-.2a1.48,1.48,0,0,0,0-.21,2.64,2.64,0,0,0,0-.28c0-.05,0-.09,0-.14s0-.09,0-.14V24c0-.12,0-.24.05-.35,0-.27.06-.53.07-.8a.71.71,0,0,0,0-.15c0-.55,0-1.1,0-1.65v-2C130.65,18.52,130.64,18,130.64,17.42Z"/><path class="cls-38" d="M101.2,54a1,1,0,0,1,0,.52l0,.15,0,.16a12.82,12.82,0,0,0-.15,1.52c0,.19,0,.19-.08.25,0,.33,0,.65-.07,1a.86.86,0,0,0,0,.16c-.09,1.69-.06,3.37-.05,5.06h-.07c0-.55-.07-1.11-.07-1.67v-1.2a31.64,31.64,0,0,1,.28-4.56l0-.27a.59.59,0,0,1,0-.13c0-.12,0-.24,0-.36A2.51,2.51,0,0,1,101.2,54Z"/><path class="cls-39" d="M112.54,65.48h.06l0,.42c0,.07,0,.15,0,.23s0,.19-.08.25c-.28,1.92,1,4.23,2,5.77.05.1.11.19.17.29s0,.09-.07.13a23.14,23.14,0,0,1-1.22-2.17c0-.11-.11-.22-.17-.33-.18-.34-.18-.34-.18-.56h-.13c0-.06,0-.12,0-.19s0-.08,0-.12a2.86,2.86,0,0,0-.07-.28c-.06-.24-.12-.47-.19-.71A4.32,4.32,0,0,1,112.54,65.48Z"/><path class="cls-40" d="M150.18,76.29a2.59,2.59,0,0,1,.79.06,16.51,16.51,0,0,0,3.65.21h2.07c-.29.29-.82.21-1.2.21h-.94a16.55,16.55,0,0,1-3.85-.31,4.54,4.54,0,0,0-.51-.09A.15.15,0,0,1,150.18,76.29Z"/><path class="cls-41" d="M139.24,80.85c1.36.06,2.71.17,4.07.36.9.12,1.8.17,2.7.23v.06a21.09,21.09,0,0,1-4.49-.33,14.37,14.37,0,0,0-1.61-.14h-.45l-.16,0Z"/><path class="cls-42" d="M116.31,91.47a2,2,0,0,1,.69.41,23.4,23.4,0,0,0,2.5,1.64l.16.1a6.19,6.19,0,0,0,.89.45c.16.08.31.17.46.26v.13l.2.05a3.65,3.65,0,0,1,.64.28v.06a1.89,1.89,0,0,1-.89-.3l-.24-.15-.12-.07-.45-.24C116.68,92.21,116.68,92.21,116.31,91.47Z"/><path class="cls-43" d="M126.66,66.65a1,1,0,0,1,.79.26,1.22,1.22,0,0,1-.44-.06,4.09,4.09,0,0,0-1.26,0h-.13c-.82,0-1.64.15-2.45.24l-.18,0-.48.07-.15,0a2.13,2.13,0,0,0-.71.19l-.32.07-.17,0-.16,0-.32.07c.11-.22.37-.25.59-.33a4.47,4.47,0,0,1,1.36-.24c.29,0,.57-.06.87-.11.63-.1,1.27-.14,1.91-.18h.14Z"/><path class="cls-44" d="M129.34,61.9c1,0,1.94,0,2.92.06h.2c1,0,2,.1,3,.2v.06c-.88,0-1.75,0-2.62,0l-.77,0c-.92,0-1.82-.08-2.74-.19Z"/><path class="cls-45" d="M99.77,14h.07v.44a.57.57,0,0,1,0,.27,13.46,13.46,0,0,0-.13,2.84c0,.16,0,.32,0,.49,0,.39,0,.78,0,1.18h-.07A10.19,10.19,0,0,1,99.5,18V17A12.52,12.52,0,0,1,99.77,14Z"/><path class="cls-46" d="M161.64,85.08v.07h-.15c-1.24.12-1.24.12-2.47.29a16.76,16.76,0,0,1-2.65.15v-.06a18.22,18.22,0,0,1,1.94-.2l.52,0h.23c.17,0,.17,0,.24-.08l.55-.08H160C160.56,85.08,161.1,85.07,161.64,85.08Z"/><path class="cls-47" d="M137.54,62.35h.65a2.5,2.5,0,0,1,.55,0,3.77,3.77,0,0,0,.58,0h.37c1.42,0,2.83.13,4.24.24v.06h-1.29a8.78,8.78,0,0,1-1.7-.11,9.66,9.66,0,0,0-1.2-.07,16.16,16.16,0,0,1-2.2-.16Z"/><path class="cls-48" d="M132.14,59.36a1.19,1.19,0,0,1-.89.2h-3.09a4.93,4.93,0,0,1-.57-.07v-.07l1.46,0,.69,0h2.4Z"/><path class="cls-49" d="M131.72,35.71h1.35c2.3,0,2.3,0,3.24.27v.07a5,5,0,0,1-.94-.06,37,37,0,0,0-5.05-.14v-.06A8.16,8.16,0,0,1,131.72,35.71Z"/><path class="cls-50" d="M114.37,8.09h.43a3.58,3.58,0,0,1,1.45.22v.06h-.15a8.36,8.36,0,0,0-3.73.16.51.51,0,0,1-.42,0c.15-.05.31-.1.45-.16l.14,0,.13-.05.11,0A6.52,6.52,0,0,1,114.37,8.09Z"/><path class="cls-51" d="M100.81,63.13h.07l0,.14c0,.2,0,.41.08.6a1.49,1.49,0,0,0,0,.21l0,.2a1.37,1.37,0,0,0,0,.19,1.06,1.06,0,0,0,.09.36c0,.13,0,.27,0,.41a11.43,11.43,0,0,0,.28,1.86.79.79,0,0,1,0,.4,6.79,6.79,0,0,1-.33-1.66,2.7,2.7,0,0,0-.12-.63,5.31,5.31,0,0,1-.11-1.2v-.26Z"/><path class="cls-52" d="M141.52,53.76a1.3,1.3,0,0,1-.45.2l-.13,0a1.21,1.21,0,0,1-.39,0v.13l-.2,0a11,11,0,0,0-1.29.29,7.83,7.83,0,0,1-2.55.26v-.07h.17l.21,0h.22a.44.44,0,0,0,.31-.09l.4,0a6.58,6.58,0,0,0,1.38-.26l1.12-.29.25-.07.22-.06.21,0A3,3,0,0,1,141.52,53.76Z"/><path class="cls-53" d="M148.29,62c.81,0,1.62,0,2.42,0l.63,0,.41,0h.19q.59,0,1.17.09v.07c-1.09,0-2.17,0-3.25-.06h-.15c-.48,0-1-.06-1.42-.12Z"/><path class="cls-54" d="M169.59,6.07h.95a5.84,5.84,0,0,1,.93.08v.06h-.18c-1.22,0-2.45.07-3.66.12A4,4,0,0,1,169.59,6.07Z"/><path class="cls-55" d="M160.34,9l.13.06c-.66.71-1.33,1.41-2,2.09l-.2-.07A20.52,20.52,0,0,1,160.34,9Z"/><path class="cls-56" d="M138.52,61.44a18.82,18.82,0,0,1,2,.06l.24,0,.88.08c.3,0,.6.06.9.07a9.71,9.71,0,0,1,1.21.1v.06c-.61,0-1.22,0-1.84,0h-.21a7.24,7.24,0,0,1-1.14-.13,8.93,8.93,0,0,0-1.15-.1l-.25,0-.62,0A.15.15,0,0,1,138.52,61.44Z"/><path class="cls-57" d="M132.59,32.2v.06h-.19l-.74,0h-.31a9.63,9.63,0,0,0-1.61.13,10.79,10.79,0,0,1-1.26.08h-.28l-.68,0v-.06c.55-.09,1.1-.17,1.66-.21l.23,0C130.46,32.17,131.53,32.19,132.59,32.2Z"/><path class="cls-58" d="M176.1,62.55l-.44.12-.25.07a3.4,3.4,0,0,1-.77.16h-.16l-.17,0c-.39,0-.76.07-1.14.13a12.52,12.52,0,0,1-2.29.13v-.07H171c.95-.06,1.89-.16,2.83-.28a.44.44,0,0,1,.16,0,13.3,13.3,0,0,0,1.67-.32A.81.81,0,0,1,176.1,62.55Z"/><path class="cls-59" d="M168.15,83.26a16.23,16.23,0,0,1-1.69.32,4.2,4.2,0,0,0-.85.2c-.21,0-.43.07-.64.1l-.17,0a6.77,6.77,0,0,1-1,.07v-.07h.12l.52-.07.18,0,.18,0,.16,0c.16,0,.16,0,.34-.16a8.86,8.86,0,0,1,1.46-.21c.34,0,.67-.09,1-.16A.65.65,0,0,1,168.15,83.26Z"/><path class="cls-60" d="M171.48,6.21a5.67,5.67,0,0,1,3.24,1.08.7.7,0,0,1,.08.1l.11.11.08.08c-.36,0-.36,0-.51-.19a1.3,1.3,0,0,0-.61-.3,3.54,3.54,0,0,1-.44-.16c0-.07-.05-.13-.07-.2h-.11a8.62,8.62,0,0,1-1-.26c-.24-.07-.49-.12-.74-.17Z"/><path class="cls-61" d="M124.52,96l.1,0c.28.1.56.19.84.26a6.24,6.24,0,0,1,.86.3,5.87,5.87,0,0,0,1.29.35,4.5,4.5,0,0,1,.63.17,2.66,2.66,0,0,1-1.63-.26l-.2-.07-.4-.13-.5-.17-.67-.24-.18-.06-.14-.06Z"/><path class="cls-62" d="M172.06,5.5h.52v.13l.25,0a1.89,1.89,0,0,1,.47.11v.13a.2.2,0,0,1,.11,0,2.67,2.67,0,0,1,.93.37l.39.13v.13l.17,0a2.3,2.3,0,0,1,.61.35l-.13.06L175,6.78a8.84,8.84,0,0,0-1.2-.58l-.16-.06a8.68,8.68,0,0,0-1-.33,6.25,6.25,0,0,1-.6-.24Z"/><path class="cls-63" d="M122.69,94a2.11,2.11,0,0,1,.66.2l.19.09.2.09.38.18.17.07.49.21-.07.19a4.85,4.85,0,0,1-1-.33v-.13l-.16,0a7.91,7.91,0,0,1-.89-.41Z"/><path class="cls-64" d="M158.06,39.49l.13.07c-.41.45-.82.89-1.24,1.32l-.12.11-.27.26h-.13a.85.85,0,0,1,.31-.53l.16-.16.16-.15.16-.16C157.49,40,157.77,39.73,158.06,39.49Z"/><path class="cls-65" d="M114.31,63.62l.11,0-.09.07a10.37,10.37,0,0,0-1.25,1.14l-.35.35c.07-.63.78-1.12,1.24-1.5C114.16,63.59,114.16,63.59,114.31,63.62Z"/><path class="cls-66" d="M138.85,57.6l.26.06a2.08,2.08,0,0,1-1,.42,4.7,4.7,0,0,0-.74.28,4.25,4.25,0,0,1-1.56.41,1.53,1.53,0,0,1,.75-.32,6.1,6.1,0,0,0,1.14-.38c.28-.12.58-.23.87-.34A.39.39,0,0,0,138.85,57.6Z"/><path class="cls-67" d="M121.65,33.05l-.23.07-.29.09-.15,0a1,1,0,0,0-.44.19l.72.07v.06l-.59.07-.16,0a6.83,6.83,0,0,1-1,0A2.9,2.9,0,0,1,121.65,33.05Z"/><path class="cls-68" d="M158.45,40.28a.75.75,0,0,1,.13.06c-1.3,1.42-1.3,1.42-1.76,1.69A5.44,5.44,0,0,1,158.45,40.28Z"/><path class="cls-69" d="M171.87,36.3h.38a.72.72,0,0,1,.26,0,2.5,2.5,0,0,0,.54.07,5.83,5.83,0,0,1,1,.17l.33.06v.13l.52.07a1.27,1.27,0,0,1-.67,0l-.21,0c-.17,0-.17,0-.23-.11l-.37-.06-.22,0-.48-.06-.23,0-.2,0A1.17,1.17,0,0,1,171.87,36.3Z"/><path class="cls-70" d="M180,61.62h.15a7.77,7.77,0,0,1,1,.08v.13l.26.07h-.43a.73.73,0,0,1-.3,0,4.5,4.5,0,0,0-.82,0h-.17a8.88,8.88,0,0,0-1.15.07C178.85,61.55,179.52,61.62,180,61.62Z"/><path class="cls-71" d="M128.88,78.77a6.13,6.13,0,0,1,1.69.4c.27.1.57.17.85.25v.06a1.87,1.87,0,0,1-.91-.13l-.27-.06a3.94,3.94,0,0,1-.82-.27l-.54-.2Z"/><path class="cls-72" d="M114.55,62.29v.13l-.09,0a5.65,5.65,0,0,0-1.83,1.35l-.14.13a1.52,1.52,0,0,0-.48.7.39.39,0,0,1,0-.31,1.52,1.52,0,0,1,.47-.54,3.73,3.73,0,0,0,.45-.44C113.27,63,114,62.29,114.55,62.29Z"/><path class="cls-25" d="M134.73,58.05H135a2.52,2.52,0,0,1-1.21.3,6.51,6.51,0,0,0-1,.1,4.63,4.63,0,0,1-1.05.06v-.06l.21,0,.77-.1.33,0,.49-.07h.14A8.1,8.1,0,0,1,134.73,58.05Z"/><path class="cls-73" d="M128,83l.1,0c.41.12.83.24,1.24.33a4.81,4.81,0,0,1,.54.16v.13h.24a1.75,1.75,0,0,1,.67.14,1.06,1.06,0,0,1-.61,0l-.18,0a3.09,3.09,0,0,1-.51-.18c-.12,0-.25,0-.37-.09a4.91,4.91,0,0,1-1.06-.36A.38.38,0,0,0,128,83Z"/><path class="cls-74" d="M132.46,97a5.27,5.27,0,0,1,1,.06l.14,0,.94.12c.48.07,1,.1,1.46.13v.06h-1a6.11,6.11,0,0,1-1-.07V97.2h-.14a5.65,5.65,0,0,1-1.36-.13Z"/><path class="cls-75" d="M158.38,34.74l.13.06-.13.2.2.13-.21.08-.29.1-.14,0-.14.06-.14,0a2.71,2.71,0,0,0-.3.13.41.41,0,0,1-.34,0l.09-.06.45-.25.15-.09.15-.09L158,35A3.28,3.28,0,0,0,158.38,34.74Z"/><path class="cls-76" d="M128.23,97.2a3.59,3.59,0,0,1,1.17.15l.17,0c.39.1.76.21,1.14.33v.06a4,4,0,0,1-1.53-.27c-.31-.1-.62-.17-.94-.25A.13.13,0,0,1,128.23,97.2Z"/><path class="cls-77" d="M119.37,61h.26v.06l-.16,0-.59.1-.39.07-.24,0-.22,0c-.23.05-.45.11-.68.18s-.35,0-.52,0a.72.72,0,0,1,.48-.22l.21,0,.23,0,.22-.05A5.29,5.29,0,0,1,119.37,61Z"/><path class="cls-78" d="M118.14,43.4h.06a1.58,1.58,0,0,1-.06.72,3.39,3.39,0,0,0,0,.45.62.62,0,0,1,0,.13c0,.13,0,.27,0,.41s0,.19,0,.28l0,.68H118a4.31,4.31,0,0,1-.08-1v-.2A4.49,4.49,0,0,1,118.14,43.4Z"/><path class="cls-79" d="M163.72,84V84c-.71.12-1.42.22-2.14.29-.29,0-.57.06-.85.1h-.52v-.06a4.24,4.24,0,0,1,.94-.19h.13l.43,0,.42,0,.38,0A7.38,7.38,0,0,1,163.72,84Z"/><path class="cls-80" d="M162.16,80v.07l-.19,0c-.56.08-.56.08-1.12.19a4.51,4.51,0,0,1-1.1,0C160.23,79.85,161.53,80,162.16,80Z"/><path class="cls-81" d="M126.67,41l.13.07a13.53,13.53,0,0,1-1.37,1.36c0-.27.15-.38.33-.57l.09-.1A9.84,9.84,0,0,1,126.67,41Z"/><path class="cls-82" d="M118.79,67.37l.26.06-1.11,1.11-.06-.26a.76.76,0,0,1,.18-.23l.12-.12.13-.13a1.59,1.59,0,0,0,.13-.13l.12-.12.11-.11Z"/><path class="cls-83" d="M163.4,42.23l.13.06a9.37,9.37,0,0,1-1.43,1.44c0-.23,0-.24.17-.4l.11-.12.11-.12.11-.12A8,8,0,0,1,163.4,42.23Z"/><path class="cls-33" d="M110.19,22.1l.13.07-.5.54-.14.16a5.8,5.8,0,0,1-.73.67l-.13-.06A12.37,12.37,0,0,1,110,22.33Z"/><path class="cls-84" d="M160.6,93.87l-.43.25-.12.07c-.71.41-.71.41-1,.38l-.1,0C160.23,93.69,160.23,93.69,160.6,93.87Z"/><path class="cls-85" d="M124.84,24.77a6.38,6.38,0,0,1-1,.66v-.2h-.13V25.1C124.55,24.68,124.55,24.68,124.84,24.77Z"/><path class="cls-86" d="M103.68,74.79c.13.07.13.07.19.22s0,.12.07.19a3.19,3.19,0,0,0,.33.7,2.52,2.52,0,0,1,.14.33l.06.16a3.92,3.92,0,0,1,.13.49,1.17,1.17,0,0,1-.35-.52c-.09-.21-.18-.41-.28-.62a2.26,2.26,0,0,0-.11-.22,2,2,0,0,0-.1-.21A.94.94,0,0,1,103.68,74.79Z"/><path class="cls-87" d="M136.24,32.66a3.15,3.15,0,0,1,.67.12,8.33,8.33,0,0,0,.84.17,3.63,3.63,0,0,1,.45.1v.13l.45.06v.07l-.59-.07v-.13h-.2a4,4,0,0,1-1.62-.4Z"/><path class="cls-88" d="M120.68,39.88l.13.07-.45.48-.13.14-.13.13-.11.12-.23.24h-.19A3.57,3.57,0,0,1,120.68,39.88Z"/><path class="cls-89" d="M128.62,25.75l-.12.07a.91.91,0,0,1-.17.09l-.16.1a.4.4,0,0,0-.2.14h.52a1,1,0,0,1-.66.2h-.25a.78.78,0,0,1,.06-.26,2.31,2.31,0,0,1,.35-.21l.19-.11A.49.49,0,0,1,128.62,25.75Z"/><path class="cls-90" d="M132.2,98a19.47,19.47,0,0,1,2.54.2v.06h-1a1.09,1.09,0,0,1-.32-.07c-.22,0-.44,0-.66,0A1,1,0,0,1,132.2,98Z"/><path class="cls-91" d="M126.34,95.46l.13.05.16.06.17.07.21.08c.56.23.56.23.64.38a7,7,0,0,1-1.63-.52C126.21,95.44,126.21,95.44,126.34,95.46Z"/><path class="cls-92" d="M163.92,84.82c-.33.33-1,.27-1.43.27h-.65V85l.75-.1.21,0A8.42,8.42,0,0,1,163.92,84.82Z"/><path class="cls-93" d="M134,42.75l.13.07-.29.32-.16.18-.15.15h-.13a5.7,5.7,0,0,0-.06,1.17c-.16-.16-.15-.21-.15-.43a1.7,1.7,0,0,1,.54-1.26A2,2,0,0,1,134,42.75Z"/><path class="cls-94" d="M133.7,35.72a8.2,8.2,0,0,1,2.61.26V36a5.11,5.11,0,0,1-1.7-.19l-.47,0-.25,0-.2,0A.07.07,0,0,0,133.7,35.72Z"/><path class="cls-95" d="M170.11,78.57l.13.07a2.44,2.44,0,0,0-.26.06v.13c-1.06.57-1.06.57-1.46.5l-.11,0,.19-.08.26-.1.13,0c.34-.13.66-.28,1-.44Z"/><path class="cls-96" d="M121.46,66.33a7.68,7.68,0,0,1-.79.32c-.37.13-.74.26-1.11.42a.69.69,0,0,1-.32,0,2.58,2.58,0,0,1,1-.5l.17-.06A2.15,2.15,0,0,1,121.46,66.33Z"/><path class="cls-97" d="M161.51,37.67l-.2.08-.12.06-.36.14a3.53,3.53,0,0,0-.5.28,1.17,1.17,0,0,1-.58.22,2.63,2.63,0,0,1,1.5-.84A.32.32,0,0,1,161.51,37.67Z"/><path class="cls-98" d="M137.15,80.52a5.82,5.82,0,0,1,1.31.13l.2,0c.17,0,.34.06.51.09v.07l-1.56-.07-.07-.19h-.39Z"/><path class="cls-99" d="M112.54,65.48h.06l0,.42c0,.07,0,.15,0,.23s0,.19-.08.25,0,.22,0,.32v1.12h-.07A4.43,4.43,0,0,1,112.54,65.48Z"/><path class="cls-100" d="M109.8,8.88l.13.07a13.29,13.29,0,0,1-1.3,1.3c0-.19,0-.19.11-.32l.15-.15.16-.15.17-.17.17-.17Z"/><path class="cls-101" d="M168.41,79.42a3.3,3.3,0,0,1-.9.35l-.65.2a.72.72,0,0,1-.41,0l.2,0a9.15,9.15,0,0,0,.92-.34C168.21,79.31,168.21,79.31,168.41,79.42Z"/><path class="cls-102" d="M154.61,68a12.62,12.62,0,0,1,1.5.06v.13h1.1v.07a12.66,12.66,0,0,1-2.6-.2Z"/><path class="cls-103" d="M103.22,44.31a.89.89,0,0,1,0,.64s0,.09,0,.14a3.53,3.53,0,0,1-.22.72c0,.14,0,.27-.07.41l0,.21,0,.16h-.06a4.67,4.67,0,0,1,.18-1.44l.06-.22C103.15,44.39,103.15,44.39,103.22,44.31Z"/><path class="cls-104" d="M142.69,54.28l-.15.11a2.33,2.33,0,0,0-.5.54l-.33.06c0-.05.11-.09.16-.15a.55.55,0,0,0,.23-.37l-.39.07a.81.81,0,0,1,.42-.24l.15-.06A.73.73,0,0,1,142.69,54.28Z"/><path class="cls-105" d="M120.42,94.07a2,2,0,0,1,.58.26v.13l.2.05a4.11,4.11,0,0,1,.65.28v.06a2,2,0,0,1-.94-.32l-.12-.07C120.49,94.29,120.49,94.29,120.42,94.07Z"/><path class="cls-106" d="M122.43,67a3.54,3.54,0,0,1-1.43.46l-.32.06c.09-.19.26-.21.46-.28l.16,0,.16,0A2.31,2.31,0,0,1,122.43,67Z"/><path class="cls-107" d="M120,92.77l.15,0a.41.41,0,0,0,.37,0l.27.12.15.08.1.06-.06.26-.33-.13-.23-.09A1.08,1.08,0,0,1,120,92.77Z"/><path class="cls-108" d="M171.61,83.06a2.48,2.48,0,0,1-.33.92h-.13a3.89,3.89,0,0,1,.33-.79l-.19.08-.25.09-.12,0a.82.82,0,0,1-.61,0l.54-.2.16-.06.15,0,.13,0A.9.9,0,0,1,171.61,83.06Z"/><path class="cls-109" d="M132.45,79.67a5.34,5.34,0,0,1,1,.22c.22.07.45.12.68.18v.06a13.08,13.08,0,0,1-1.89-.32C132.33,79.68,132.33,79.68,132.45,79.67Z"/><path class="cls-110" d="M148.09,75.9a4.8,4.8,0,0,1,1.35.16l.2,0,.48.12v.06a4.73,4.73,0,0,1-1.3-.16l-.21,0L148.1,76S148.09,75.93,148.09,75.9Z"/><path class="cls-111" d="M169.91,31.87v.07a9.1,9.1,0,0,1-1.95.13V32A9.84,9.84,0,0,1,169.91,31.87Z"/><path class="cls-112" d="M153,96.54a7,7,0,0,1-2.09.33v-.06a4.13,4.13,0,0,1,1.05-.18,3.74,3.74,0,0,0,.65-.13A.86.86,0,0,1,153,96.54Z"/><path class="cls-113" d="M120.09,39.36l.13.07-.43.47-.12.13a4.27,4.27,0,0,1-.82.7,1.69,1.69,0,0,1,.39-.53l.15-.15.15-.15.16-.16C119.84,39.62,120,39.49,120.09,39.36Z"/><path class="cls-114" d="M145.68,38.45a1.87,1.87,0,0,1,.42,1.1c0,.13,0,.26,0,.4a.84.84,0,0,1-.53-.33l.4.13-.06-.33c0-.07,0-.13,0-.19a.89.89,0,0,0-.11-.36A.81.81,0,0,1,145.68,38.45Z"/><path class="cls-115" d="M173.88,32.2a5.27,5.27,0,0,1,1.11.26v.13l.15,0,.2,0,.19,0a1.74,1.74,0,0,1,.45.17c-.23.11-.46,0-.69-.08l-.17,0A4.38,4.38,0,0,1,173.88,32.2Z"/><path class="cls-116" d="M131.1,23.86a1.35,1.35,0,0,1,0,.72l.13,0,.17,0,.18,0a.89.89,0,0,1,.43,0l-.37.13-.21.08a1.35,1.35,0,0,1-.53.05l.06-.34,0-.2A2.45,2.45,0,0,1,131.1,23.86Z"/><path class="cls-117" d="M134,79.16h.52l.07.06.53.07.15,0,.36,0v.13H136v.06a4.2,4.2,0,0,1-1.17-.13l-.23,0-.62-.14Z"/><path class="cls-118" d="M100.81,63.13h.07a6.94,6.94,0,0,1,.1,1.2c0,.06,0,.11,0,.17v.15a.39.39,0,0,0,.08.25c0,.18,0,.34,0,.52a1.14,1.14,0,0,1-.21-.89c0-.07,0-.16,0-.24s0-.17,0-.26v-.26Z"/><path class="cls-119" d="M110.26,9.4l.13.07-.41.45-.12.13-.11.12-.11.12a.69.69,0,0,1-.36.16,3,3,0,0,1,.64-.75l.19-.16Z"/><path class="cls-120" d="M132.27,78.83l1,.07V79l.65.06v.07a4.39,4.39,0,0,1-1.14-.13l-.16,0-.39-.09Z"/><path class="cls-121" d="M104.59,76.88a1.66,1.66,0,0,1,.46.91h.13c.26.42.26.42.23.6l0,.11C104.59,77.16,104.59,77.16,104.59,76.88Z"/><path class="cls-122" d="M177.14,58.12a3.47,3.47,0,0,1-1.11.27l-.15,0-.37,0v-.13l.17,0,.22,0,.21,0c.17,0,.17,0,.24-.09A1.51,1.51,0,0,1,177.14,58.12Z"/><path class="cls-112" d="M158.06,57.08a1.78,1.78,0,0,1,1,.19l-.26.07v.13l-.28-.09-.16,0A1,1,0,0,1,158.06,57.08Z"/><path class="cls-123" d="M126.41,95.44a1.53,1.53,0,0,1,1.17.45c-.13.07-.13.07-.35,0l-.27-.11-.14-.06C126.49,95.59,126.49,95.59,126.41,95.44Z"/><path class="cls-124" d="M165.87,80.13a3.81,3.81,0,0,1-1.69.39v-.06l.12,0,.53-.13.18,0,.17-.05.17,0C165.69,80.08,165.69,80.08,165.87,80.13Z"/><path class="cls-71" d="M176.1,62.55l-.44.12-.25.07-.23.07-.14,0a1.79,1.79,0,0,1-.4,0h-.25a3.26,3.26,0,0,1,.85-.28l.16,0,.15,0,.14,0A.93.93,0,0,1,176.1,62.55Z"/><path class="cls-125" d="M116.64,61.64v.13l-.11,0a5.56,5.56,0,0,0-1.2.37.54.54,0,0,1-.45,0,1.85,1.85,0,0,1,.61-.26l.22-.07.21-.06.15-.05A1.79,1.79,0,0,1,116.64,61.64Z"/><path class="cls-126" d="M116.12,61.7a2.52,2.52,0,0,1-.84.32,2.65,2.65,0,0,0-.53.27h-.33a2.3,2.3,0,0,1,.81-.41l.15-.05A1.73,1.73,0,0,1,116.12,61.7Z"/><path class="cls-24" d="M141.71,54.6l-.55.2-.16.06a2.5,2.5,0,0,1-1,.13,1.06,1.06,0,0,1,.45-.19l.15,0,.15,0C141.56,54.56,141.56,54.56,141.71,54.6Z"/><path class="cls-121" d="M102.64,46.53l.13.06,0,.31a1,1,0,0,0,0,.17,2.42,2.42,0,0,1-.16.5c0,.12,0,.25-.07.38l0,.19,0,.15a1.1,1.1,0,0,1,0-.54s0-.1,0-.15l0-.16,0-.16C102.54,47,102.58,46.78,102.64,46.53Z"/><path class="cls-127" d="M136.11,39.62l.29,0h.16c.14,0,.14,0,.27.16l.33.06V40a.34.34,0,0,0,.14,0,1.43,1.43,0,0,1,.51.25l-.13.06-.28-.14a10.17,10.17,0,0,0-1.29-.51Z"/><path class="cls-128" d="M143.93,23.21v.07h-.46v.13a5.7,5.7,0,0,1-1.24.06,1.31,1.31,0,0,1,.67-.2l.13,0A6.78,6.78,0,0,1,143.93,23.21Z"/><path class="cls-129" d="M121.85,94.85a6,6,0,0,1,.58.26,2.25,2.25,0,0,0,.51.2,1.13,1.13,0,0,1,.48.26,2.75,2.75,0,0,1-1-.33l-.15-.08c-.13,0-.25-.12-.38-.18Z"/><path class="cls-130" d="M139.56,73.29l.28,0H140a.64.64,0,0,1,.34.16v.13a.53.53,0,0,1,.12,0,3.19,3.19,0,0,1,.8.23.52.52,0,0,1-.44,0l-.2-.09-.2-.09-.21-.09-.38-.15a.76.76,0,0,0-.16-.06l-.12,0A.15.15,0,0,0,139.56,73.29Z"/><path class="cls-131" d="M176.62,37.41a3.48,3.48,0,0,1,1.56.52c-.24.07-.24.07-.39,0V37.8l-.25,0a2.78,2.78,0,0,1-.92-.31Z"/><path class="cls-132" d="M123.74,94.66a1.8,1.8,0,0,1,1,.19c0,.07,0,.13-.07.2a4.85,4.85,0,0,1-1-.33Z"/><path class="cls-133" d="M159.69,76.55a6,6,0,0,1-1.76.52.8.8,0,0,1,.41-.23l.17,0,.17-.05.34-.1.15,0C159.49,76.49,159.49,76.49,159.69,76.55Z"/><path class="cls-134" d="M163.2,58.84a3.78,3.78,0,0,1,1.44.26v.06a3.57,3.57,0,0,1-1.44-.26Z"/><path class="cls-135" d="M183.46,52.65c0,.27-.14.37-.32.55a4,4,0,0,0-.46.56.85.85,0,0,1,0-.39,3.59,3.59,0,0,1,.39-.39l.11-.1A3.11,3.11,0,0,0,183.46,52.65Z"/><path class="cls-136" d="M114.42,63.66a6.71,6.71,0,0,1-.62.42,2.41,2.41,0,0,0-.48.42l-.13-.06C114.05,63.54,114.05,63.54,114.42,63.66Z"/><path class="cls-137" d="M123.87,58.84h.38a1,1,0,0,1,.4.15l.47.1.25,0,.19,0a2.86,2.86,0,0,1-1.69-.26Z"/><path class="cls-138" d="M137.74,32.07a4.81,4.81,0,0,1,1.24.26v.13a3.86,3.86,0,0,1-1.24-.33Z"/><path class="cls-139" d="M126.54,82.48c.48.14.95.29,1.43.45a1.06,1.06,0,0,1-.76-.05l-.13,0a.88.88,0,0,1-.54-.31Z"/><path class="cls-140" d="M175,36.89l.78.13v.13l.14,0,.18,0,.18,0a.47.47,0,0,1,.29.17A2.91,2.91,0,0,1,175,36.89Z"/><path class="cls-141" d="M119.44,68.08l.13.07c-.14.14-.27.28-.42.42l-.12.13-.11.11-.11.11c-.09.08-.09.08-.22.08A2.28,2.28,0,0,1,119.44,68.08Z"/><path class="cls-86" d="M101.46,52.58a1,1,0,0,1,0,.53l0,.15a.9.9,0,0,1,0,.16l0,.15c0,.13,0,.26-.07.38h-.06c0-.13,0-.27,0-.4v-.22a4.22,4.22,0,0,1,.07-.61h.13Z"/><path class="cls-142" d="M162.29,38.32a2.45,2.45,0,0,1-1.3.52C161.28,38.61,161.89,38.13,162.29,38.32Z"/><path class="cls-143" d="M122.37,32.72a4.77,4.77,0,0,1-.82.31l-.16,0c-.38.11-.38.11-.52,0A2.19,2.19,0,0,1,122.37,32.72Z"/><path class="cls-144" d="M131.88,83.26a3.49,3.49,0,0,1,1.43.26,1.67,1.67,0,0,1-.83,0l-.15,0-.39-.08Z"/><path class="cls-145" d="M167.76,31.16a2.62,2.62,0,0,1-.68.24l-.22.05a.79.79,0,0,1-.46,0A2.13,2.13,0,0,1,167.76,31.16Z"/><path class="cls-146" d="M163.86,23.08a4.62,4.62,0,0,1,.71.13v.13l.2,0a3.66,3.66,0,0,1,.65.17,1,1,0,0,1-.71-.05l-.24-.07a4.18,4.18,0,0,1-.61-.27Z"/><path class="cls-147" d="M158.06,96a.75.75,0,0,1-.46.13v.13a1.89,1.89,0,0,1-.78.13c.07-.13.07-.13.29-.22l.29-.09.14,0C157.92,95.89,157.92,95.89,158.06,96Z"/><path class="cls-148" d="M164.38,37.67a2.44,2.44,0,0,1-1.31.33,2,2,0,0,1,.62-.28l.22-.07A.69.69,0,0,1,164.38,37.67Z"/><path class="cls-99" d="M113.45,8.17a2.6,2.6,0,0,1-.68.23l-.22,0-.6.11A2,2,0,0,1,113.45,8.17Z"/><path class="cls-149" d="M166.46,5.76l-.23.08-.29.11-.15.06a1.11,1.11,0,0,0-.44.2H165c.09-.2.26-.21.47-.28l.16-.06.17,0,.15-.06.15,0A.68.68,0,0,1,166.46,5.76Z"/><path class="cls-150" d="M158.84,57.34a3,3,0,0,1,1,.13.77.77,0,0,1-.52,0l.06.19a2.81,2.81,0,0,1-.45-.13A1.46,1.46,0,0,0,158.84,57.34Z"/><path class="cls-151" d="M128.82,36a1.3,1.3,0,0,1-.58.17l-.17,0h-.18l-.19,0-.45,0a.65.65,0,0,1,.6-.24l.23,0Z"/><path class="cls-152" d="M120.29,33.44l-.07.06.46.07v.06l-1.18.07C120,33.31,120,33.31,120.29,33.44Z"/><path class="cls-153" d="M164,7.71a2.11,2.11,0,0,1-.6.34c-.22.09-.43.21-.64.31V8.23a4.66,4.66,0,0,1,.47-.3l.14-.09a.91.91,0,0,0,.13-.08l.12-.07A.46.46,0,0,1,164,7.71Z"/><path class="cls-154" d="M172.06,5.5h.52v.13l.39,0c.13,0,.13,0,.33.15a2.46,2.46,0,0,1-1.24-.26Z"/><path class="cls-155" d="M129.53,97.52a3,3,0,0,1,1.18.2v.06a2.78,2.78,0,0,1-1.11-.13Z"/><path class="cls-156" d="M141.45,74.73l.39.06v.13H142c.51,0,.51,0,.73.25a2.51,2.51,0,0,1-1.24-.39Z"/><path class="cls-157" d="M111.75,68.61c.22.15.24.33.28.58l0,.14a.66.66,0,0,0,0,.15c0,.12,0,.25,0,.36-.13-.06-.13-.06-.2-.26s0-.16-.07-.25,0-.16-.07-.24A1.45,1.45,0,0,1,111.75,68.61Z"/><path class="cls-158" d="M166.79,55.71c.88,0,.88,0,1.3.13v.07l-.51,0h-.14A1.13,1.13,0,0,1,166.79,55.71Z"/><path class="cls-92" d="M145.16,53v.14H145l-.05.11a1.53,1.53,0,0,1-.35.41l-.19-.06C144.84,53,144.84,53,145.16,53Z"/><path class="cls-159" d="M128.3,77.72a4.64,4.64,0,0,1,1.1.26.92.92,0,0,1-.59,0l-.17,0-.34-.1Z"/><path class="cls-33" d="M176.62,59.1a2.59,2.59,0,0,1-1.37.26v-.07A4.54,4.54,0,0,1,176.62,59.1Z"/><path class="cls-160" d="M127.32,53.82h.38a.69.69,0,0,1,.33.07V54h.32s.05.08.07.13A1.63,1.63,0,0,1,127.32,53.82Z"/><path class="cls-161" d="M104,44.25h.07a3.54,3.54,0,0,1-.2,1.24h-.06A3.25,3.25,0,0,1,104,44.25Z"/><path class="cls-162" d="M108.43,34.15l.23.16a.57.57,0,0,0,.13.08l.1.09v.13l-.39-.09-.21-.05-.18-.06-.06-.13h.39A.53.53,0,0,1,108.43,34.15Z"/><path class="cls-163" d="M116.34,18.61l.1,0-.41.24-.11.06c-.29.17-.29.17-.49.14l-.1-.05.41-.23.12-.07C116.15,18.59,116.15,18.59,116.34,18.61Z"/><path class="cls-164" d="M107.19,18.52a1.23,1.23,0,0,1,.28.87c0,.05,0,.11,0,.16s0,.27,0,.41a1.15,1.15,0,0,1-.2-.53.76.76,0,0,0-.13-.39Z"/><path class="cls-165" d="M153.76,96.28a1.7,1.7,0,0,1-.8.21l-.15,0-.36,0A2.13,2.13,0,0,1,153.76,96.28Z"/><path class="cls-166" d="M138.59,84.43h.63a2,2,0,0,1,.8.14v.07a6.24,6.24,0,0,1-1-.07.34.34,0,0,1-.14,0l-.32,0Z"/><path class="cls-167" d="M181.7,54.15a2.66,2.66,0,0,1,0,.28.76.76,0,0,1,0,.15.7.7,0,0,1-.16.35v-.52l-.32.06C181.5,54.15,181.5,54.15,181.7,54.15Z"/><path class="cls-168" d="M144,35c.44.08.65.39.91.72l-.06.13Z"/><path class="cls-169" d="M132.79,25a2.28,2.28,0,0,1-1.17.26,1.09,1.09,0,0,1,.58-.28l.17,0A1,1,0,0,1,132.79,25Z"/><path class="cls-170" d="M154,97.13a3.54,3.54,0,0,1-1.24.2,1.24,1.24,0,0,1,.58-.21l.21,0A1,1,0,0,1,154,97.13Z"/><path class="cls-171" d="M140.28,33.83a2.26,2.26,0,0,1,.74.26l.2.12a.8.8,0,0,1,.16.08.62.62,0,0,1-.26.07,2.3,2.3,0,0,1-.33-.19l-.17-.1A4.15,4.15,0,0,0,140.28,33.83Z"/><path class="cls-172" d="M102.9,49.26H103a1.83,1.83,0,0,1-.26,1.17A3,3,0,0,1,102.9,49.26Z"/><path class="cls-173" d="M120,33.7v.06l-1.11.13v-.13A1.91,1.91,0,0,1,120,33.7Z"/><path class="cls-174" d="M176.16,8.43a.73.73,0,0,1,.54.36,1.15,1.15,0,0,1,.14.17l.11.12s0,.08-.07.13l-.36-.35-.1-.11-.26-.26Z"/><path class="cls-118" d="M164.12,92.77l.13.06a3.37,3.37,0,0,1-.53.46l-.26-.07Z"/><path class="cls-175" d="M133.25,84.43l.28,0h.16c.14,0,.14,0,.21.09l.26,0,.26,0v.07a3.06,3.06,0,0,1-1.17-.13Z"/><path class="cls-176" d="M175.64,81l.13.06a3.8,3.8,0,0,1-.52.46l-.26-.06Z"/><path class="cls-177" d="M161.9,68.74h1.17v.06h-1c0,.11.08.22.13.33l-.33-.26Z"/><path class="cls-178" d="M165.35,55.38a2.64,2.64,0,0,1,1.11.2,1.12,1.12,0,0,1-.7,0l-.23,0-.18,0Z"/><path class="cls-179" d="M157.67,35.2c.13.06.13.06.19.19l-.31.14-.17.08a.39.39,0,0,1-.36,0l.32-.2.17-.11Z"/><path class="cls-180" d="M167.89,24.58a5.54,5.54,0,0,1,.91.46.44.44,0,0,1-.39,0v-.13h-.26v-.14h-.26Z"/><path class="cls-33" d="M115.23,19.13l.11,0-.35.21-.2.11a.52.52,0,0,1-.33.06l-.11-.05.35-.2.19-.11A.45.45,0,0,1,115.23,19.13Z"/><path class="cls-181" d="M111.45,8l.11,0-.35.2-.19.11a.43.43,0,0,1-.34.06l-.11-.05.35-.2.2-.11A.42.42,0,0,1,111.45,8Z"/><path class="cls-182" d="M131,97.78l.32,0h.18c.15,0,.15,0,.21.09l.27,0,.25,0V98a2.36,2.36,0,0,1-1.23-.2Z"/><path class="cls-183" d="M127.32,96.94a4.75,4.75,0,0,1,.91.19,1.1,1.1,0,0,1-.57,0l-.16,0-.12,0Z"/><path class="cls-184" d="M169.85,77.92a.85.85,0,0,1-.65.19v.13l-.33.07A.89.89,0,0,1,169.85,77.92Z"/><path class="cls-185" d="M161.64,68.61h.78v.13l-.71.06A1.46,1.46,0,0,0,161.64,68.61Z"/><path class="cls-186" d="M178.05,57.66l.13.07a2.15,2.15,0,0,1-1,.32.84.84,0,0,1,.59-.29A1.41,1.41,0,0,0,178.05,57.66Z"/><path class="cls-187" d="M176.16,31.81a1.43,1.43,0,0,1,.26.19v.2a1.54,1.54,0,0,1-.65-.26c.17-.08.22-.05.39,0Z"/><path class="cls-188" d="M136.57,84.11a4.52,4.52,0,0,1,1,.06v.13a2.68,2.68,0,0,1-1-.13Z"/><path class="cls-143" d="M121,79.81a4.08,4.08,0,0,1,.85.45c-.13.07-.13.07-.33,0s-.19-.08-.26-.21A.84.84,0,0,0,121,80Z"/><path class="cls-189" d="M112.54,65.48h.06c0,.14,0,.28,0,.42v.23a1.23,1.23,0,0,0,0,.19l-.14.06A2,2,0,0,1,112.54,65.48Z"/><path class="cls-190" d="M139,50.57a.52.52,0,0,1,.13.06,1.64,1.64,0,0,1-.45.46l-.26-.07Z"/><path class="cls-191" d="M114.36,18.85,114,19l-.2.11c-.17.09-.17.09-.3.09v-.13l.28-.17.16-.09A.43.43,0,0,1,114.36,18.85Z"/><path class="cls-192" d="M147.31,76.49l.39,0h.21l.18,0,.06.13h-.43A.71.71,0,0,1,147.31,76.49Z"/><path class="cls-193" d="M139.76,50c0,.26-.09.34-.26.52a1.63,1.63,0,0,1-.33.07A2.54,2.54,0,0,1,139.76,50Z"/><path class="cls-194" d="M159.88,94.27l-.31.16-.18.1a.47.47,0,0,1-.43,0C159.22,94.36,159.59,94.12,159.88,94.27Z"/><path class="cls-195" d="M170.24,78.64a2.44,2.44,0,0,0-.26.06v.13a.77.77,0,0,1-.59.13c.09-.18.2-.19.39-.27l.17-.07C170.11,78.57,170.11,78.57,170.24,78.64Z"/><path class="cls-196" d="M172.32,77.27l.13.06a.87.87,0,0,1-.65.39A3.17,3.17,0,0,1,172.32,77.27Z"/><path class="cls-197" d="M139,57.62l.11.05-.25.17a1.1,1.1,0,0,1-.14.09.28.28,0,0,1-.28,0l-.11,0,.24-.16.14-.1A.37.37,0,0,1,139,57.62Z"/><path class="cls-198" d="M118.14,43.4h.06a2,2,0,0,1-.13.91H118A1.89,1.89,0,0,1,118.14,43.4Z"/><path class="cls-199" d="M140.8,33.11a2.39,2.39,0,0,1,.85.33.48.48,0,0,1-.42,0,.51.51,0,0,0-.16-.09l-.15-.1-.12-.07Z"/><path class="cls-200" d="M124.84,24.77a.47.47,0,0,1-.35.23l-.18,0H124A.86.86,0,0,1,124.84,24.77Z"/><path class="cls-201" d="M134,24.77a.77.77,0,0,1-.67.21H133A1.77,1.77,0,0,1,134,24.77Z"/><path class="cls-202" d="M112.73,20.41v.13h-.19c0,.07-.05.13-.07.2-.2.13-.2.13-.34.1l-.12,0,.29-.19.16-.11C112.6,20.41,112.6,20.41,112.73,20.41Z"/><path class="cls-203" d="M162,7.71l.13.07a.93.93,0,0,1-.65.39A2.9,2.9,0,0,1,162,7.71Z"/><path class="cls-204" d="M162.81,7.26v.13h-.19l-.07.19c-.19.13-.19.13-.34.11l-.11,0,.28-.2.17-.11A.34.34,0,0,1,162.81,7.26Z"/><path class="cls-205" d="M110.32,1.26l-.28.17a.51.51,0,0,1-.16.09.4.4,0,0,1-.41,0l.28-.16.15-.1A.48.48,0,0,1,110.32,1.26Z"/><path class="cls-206" d="M124.78,94.92,125,95l-.06.13.26.07v.06c-.36,0-.36,0-.51-.1l-.08-.09Z"/><path class="cls-207" d="M118.53,91.73a1.1,1.1,0,0,1,.52.19c0,.07,0,.13-.07.2-.3-.1-.3-.1-.41-.27A.56.56,0,0,0,118.53,91.73Z"/><path class="cls-208" d="M130.77,83.85a4.72,4.72,0,0,1,1,.19,1.22,1.22,0,0,1-.78,0A.74.74,0,0,1,130.77,83.85Z"/><path class="cls-209" d="M174.47,27.58h.07v.84l-.26-.13.13-.06a1.23,1.23,0,0,0,0-.34c0-.05,0-.11,0-.18S174.47,27.63,174.47,27.58Z"/><path class="cls-210" d="M166.07,23c.51.06.51.06.65.13v.13l.2.07C166.28,23.17,166.28,23.17,166.07,23Z"/><path class="cls-211" d="M104.46,5l.19.07-.32.32-.2-.06Z"/><path class="cls-116" d="M159,95.63a1.16,1.16,0,0,1-.85.26c.07-.13.07-.13.21-.19l.18,0,.17-.05A.32.32,0,0,1,159,95.63Z"/><path class="cls-127" d="M172.78,51.54l.13.07a.54.54,0,0,1-.35.23h-.43A3.06,3.06,0,0,1,172.78,51.54Z"/><path class="cls-212" d="M155.06,43.47a.78.78,0,0,1,0,.6l-.06.18a.69.69,0,0,1,0,.13,1.35,1.35,0,0,1,0-.72A2.14,2.14,0,0,0,155.06,43.47Z"/><path class="cls-213" d="M120.87,16.83a1.09,1.09,0,0,1-.78.26A.66.66,0,0,1,120.87,16.83Z"/><path class="cls-180" d="M132.33,84.24c.31,0,.61.07.92.13v.06h-.55a.37.37,0,0,1-.29-.12Z"/><path class="cls-214" d="M136.31,71.86h.32V72h.13v.13l.26.07-.13.06-.3-.15a.83.83,0,0,0-.16-.09l-.12-.08Z"/><path class="cls-215" d="M123.87,25.23a1,1,0,0,1-.07.26.64.64,0,0,1-.26.13l-.06-.32C123.61,25.23,123.61,25.23,123.87,25.23Z"/><path class="cls-216" d="M131.23,97.78a2.68,2.68,0,0,1,1,.13V98a2.68,2.68,0,0,1-1-.13Z"/><path class="cls-217" d="M163.66,92l.13.06a2.57,2.57,0,0,1-.33.33l-.26-.07Z"/><path class="cls-218" d="M106.28,79.94a1.88,1.88,0,0,1,.39.65.43.43,0,0,1-.3-.22A.62.62,0,0,1,106.28,79.94Z"/><path class="cls-219" d="M139.56,73.29l.28,0,.16,0a.5.5,0,0,1,.34.23c-.56-.06-.56-.06-.78-.2Z"/><path class="cls-220" d="M114.16,63.59l.26.07L114,64l-.13-.06A3.31,3.31,0,0,1,114.16,63.59Z"/><path class="cls-221" d="M180.33,56.49l.13.07a2.42,2.42,0,0,1-.32.32l-.26-.06Z"/><path class="cls-222" d="M141.45,56.1l.13.07a2.42,2.42,0,0,1-.32.32l-.26-.06Z"/><path class="cls-223" d="M141.32,55.19l.13.06a3.31,3.31,0,0,1-.32.33l-.26-.07Z"/><path class="cls-161" d="M103.29,47.44h.06a2.5,2.5,0,0,1-.13,1h-.06A2.5,2.5,0,0,1,103.29,47.44Z"/><path class="cls-224" d="M123.64,38.21l.1,0c-.41.27-.41.27-.61.25l-.1,0C123.44,38.19,123.44,38.19,123.64,38.21Z"/><path class="cls-225" d="M116.54,17.76l.1,0c-.41.27-.41.27-.61.25l-.1,0C116.34,17.74,116.34,17.74,116.54,17.76Z"/><path class="cls-226" d="M161.32,8.17l.13.06c-.22.32-.22.32-.45.38h-.15C161,8.47,161.17,8.32,161.32,8.17Z"/><path class="cls-227" d="M119.7,1.26l.52.07v.13l.2.06c-.49,0-.49,0-.66-.16S119.73,1.3,119.7,1.26Z"/><path class="cls-228" d="M162.12,94.09l.11,0c-.45.26-.45.26-.59.26v-.13C161.91,94.06,161.91,94.06,162.12,94.09Z"/><path class="cls-229" d="M120.42,94.07a1,1,0,0,1,.58.33l-.25-.06-.15,0-.11,0A1.59,1.59,0,0,1,120.42,94.07Z"/><path class="cls-108" d="M162,93.11l.11,0c-.45.26-.45.26-.59.26v-.13C161.78,93.09,161.78,93.09,162,93.11Z"/><path class="cls-230" d="M120.09,78.24a1.63,1.63,0,0,1,.33.07,2.3,2.3,0,0,1,.19.33A1.55,1.55,0,0,1,120.09,78.24Z"/><path class="cls-231" d="M162.55,73.88a.62.62,0,0,1,.07.26,2.57,2.57,0,0,1-.33.33A.91.91,0,0,1,162.55,73.88Z"/><path class="cls-201" d="M113.06,71.67a.75.75,0,0,1,.32.58l-.32-.32Z"/><path class="cls-232" d="M119.89,67.76l.13.06a2,2,0,0,1-.32.26.83.83,0,0,1-.26-.06A1.36,1.36,0,0,1,119.89,67.76Z"/><path class="cls-233" d="M114.55,62.29v.13c-.43.2-.43.2-.65.13C114.33,62.29,114.33,62.29,114.55,62.29Z"/><path class="cls-234" d="M163.86,54.93l.28,0h.16c.15,0,.15,0,.28.23a4.52,4.52,0,0,1-.72-.2Z"/><path class="cls-235" d="M124.45,44a.93.93,0,0,1-.06.71h-.07C124.31,44.21,124.31,44.21,124.45,44Z"/><path class="cls-236" d="M118.4,41.25l.06.13a2,2,0,0,1-.19.39l-.2.07A2.29,2.29,0,0,1,118.4,41.25Z"/><path class="cls-237" d="M177.27,38.52a2.08,2.08,0,0,1,.72.26.5.5,0,0,1-.26.06,2.59,2.59,0,0,1-.46-.26Z"/><path class="cls-238" d="M160.29,38.15l.11,0-.25.14-.14.08-.13.05-.13-.07C160.11,38.12,160.11,38.12,160.29,38.15Z"/><path class="cls-239" d="M175.19,37.87c.49,0,.49,0,.65.09l.06.1-.24,0h-.14C175.38,38,175.38,38,175.19,37.87Z"/><path class="cls-208" d="M162.68,33.57a.64.64,0,0,1-.47.21l-.18,0c.06-.13.06-.13.28-.21S162.55,33.5,162.68,33.57Z"/><path class="cls-4" d="M108,24.45a.71.71,0,0,1,.07.26.9.9,0,0,1-.2.26h-.13A2.11,2.11,0,0,1,108,24.45Z"/><path class="cls-240" d="M157,12.53l.06.13a1.57,1.57,0,0,1-.19.33l-.2.06A1.11,1.11,0,0,1,157,12.53Z"/><path class="cls-241" d="M128.62,9.47a1.72,1.72,0,0,1,.26.33.83.83,0,0,1-.06.26l-.13-.07A4.34,4.34,0,0,1,128.62,9.47Z"/><path class="cls-33" d="M127.32,7.06a.74.74,0,0,1,.32.52c-.19-.06-.19-.06-.32-.26Z"/><path class="cls-242" d="M163.35,7l.11,0-.25.13-.14.08-.13,0-.13-.06C163.17,6.92,163.17,6.92,163.35,7Z"/><path class="cls-31" d="M151.68,96.68a.62.62,0,0,1-.39.2h-.4v-.06A2,2,0,0,1,151.68,96.68Z"/><path class="cls-165" d="M118.27,91.53l.39.13v.2a.47.47,0,0,1-.33-.07A1.22,1.22,0,0,1,118.27,91.53Z"/><path class="cls-243" d="M132.07,70.36a1.05,1.05,0,0,1,.59.33.91.91,0,0,1-.59-.26Z"/><path class="cls-244" d="M142.88,54.08v.13h-.13c0,.09-.08.17-.13.26l-.13-.06.13-.13-.13-.13C142.62,54.08,142.62,54.08,142.88,54.08Z"/><path class="cls-245" d="M116.7,8.43l.52.06s0,.09.07.13h-.46V8.49Z"/></g></g></svg>