<svg xmlns="http://www.w3.org/2000/svg" width="276.31" height="269.83" viewBox="0 0 276.31 269.83"><defs><style>.cls-1{fill:#09a6f0;}.cls-2{fill:#017bd7;}.cls-3{fill:#ac1360;}.cls-4{fill:#fd905b;}.cls-5{fill:#fff;}.cls-6{fill:#dc624f;}.cls-7{fill:#d5e9f8;}.cls-8{fill:#7957bb;}.cls-9{fill:#9d79da;}.cls-10{fill:#e52752;}.cls-11{fill:#e3e5fd;}.cls-12{fill:#fd6a67;}.cls-13{fill:#fbc232;}.cls-14{fill:#231f20;}.cls-15{fill:#a7dff8;}.cls-16{fill:#f7bad5;}</style></defs><g id="Layer_2" data-name="Layer 2"><g id="PRINT_1" data-name="PRINT 1"><ellipse class="cls-1" cx="148.47" cy="222.58" rx="127.84" ry="25.24"/><ellipse class="cls-2" cx="148.47" cy="218.28" rx="117.5" ry="20.93"/><path class="cls-1" d="M67.37,250.4a19.48,19.48,0,0,1,5.76.61c1.83.62,3.52,2.16,3.62,4.09a4.74,4.74,0,0,1-2.89,4.26,11.62,11.62,0,0,1-5.34.79A44.87,44.87,0,0,1,51,256c-2-1-4.21-2.3-4.7-4.5-1-4.65,3.8-5.29,6.79-4.25C57.84,248.87,62.32,250.24,67.37,250.4Z"/><path class="cls-1" d="M86.7,261.46c1,3.35,4.14,5.73,7.47,6.85s6.9,1.15,10.4,1.18l37,.33c7.12.06,14.61,0,20.82-3.45a9.6,9.6,0,0,0,3.88-3.56,4.73,4.73,0,0,0-.13-5c-1.89-2.46-5.7-1.64-8.69-.83-15.54,4.21-32,1.37-47.87-1.5C103.92,254.42,82.33,247.5,86.7,261.46Z"/><path class="cls-1" d="M181.31,259.05c-.25,2.34,1.54,4.53,3.7,5.44a13.4,13.4,0,0,0,7,.49,8.92,8.92,0,0,0,4.86-1.77c4-3.52.06-8.73-4.17-9.37C188.83,253.27,181.83,254.26,181.31,259.05Z"/><path class="cls-1" d="M244.1,245.36c-2.36.3-4.8.5-6.89,1.63s-3.74,3.48-3.21,5.79a5.31,5.31,0,0,0,3.41,3.55,13.07,13.07,0,0,0,5.06.6,51.75,51.75,0,0,0,24.77-7.14c2.65-1.55,5.23-3.43,6.75-6.1,1.05-1.83,2.34-6.61-.16-7.93-2.14-1.13-6.64,2.55-8.55,3.45A71.2,71.2,0,0,1,244.1,245.36Z"/><path class="cls-3" d="M148.53,166.67c40.7,0,73.69-5.23,73.69-18.6a11.41,11.41,0,0,0-1.16-5.09c-19.71-4.91-45-5.95-72.53-5.95s-53.07,1.5-72.82,6.77a10.58,10.58,0,0,0-.87,4.27C74.84,162.37,107.84,166.67,148.53,166.67Z"/><path class="cls-4" d="M115.73,116.11a48.77,48.77,0,0,1-1.28,23.27L111.6,133Z"/><path class="cls-5" d="M182.9,144.38l-2.5,2.44-1.31,22-51.41.31-6.86-15.44-4.16-9.36a95.33,95.33,0,0,1,13.18-22.94L117.27,89.27l2.3-.48,10.11-2.12.09-17.26,1.45.32,18.33,4,1.77,10.76.53,3.25,9.4,1.05,2.34.26,6.11.68A15.61,15.61,0,0,1,183.48,107l-1.66,15,2.58,3.45A14.41,14.41,0,0,1,182.9,144.38Z"/><path class="cls-6" d="M151.32,84.48c-10,.24-18.45-10.83-20.1-14.75l18.33,4Z"/><path class="cls-7" d="M114.45,139.38,111.6,133l4.13-16.85A48.77,48.77,0,0,1,114.45,139.38Z"/><path class="cls-7" d="M181.82,122l-5.28-7.06-6.22-12.43.78.58A26.86,26.86,0,0,1,181.82,122Z"/><path class="cls-7" d="M160.43,134.49l-.43-2.27a44.32,44.32,0,0,0-8.26-18.58l-2.31-3,4.15,3.4a19.49,19.49,0,0,1,7.1,16.2Z"/><polygon class="cls-8" points="163.6 89.05 176.54 114.9 174.11 114.9 161.25 88.78 163.6 89.05"/><polygon class="cls-8" points="133.59 122.08 130.39 122.79 129.84 121.4 117.27 89.27 119.57 88.79 132.84 120.29 133.59 122.08"/><path class="cls-9" d="M182.9,144.38l-2.5,2.44-19-5.18-2.27,1.59A57.74,57.74,0,0,1,126,153.7h-5.17l-4.16-9.36a95.33,95.33,0,0,1,13.18-22.94c.45-.57.91-1.13,1.38-1.69l1.62.58c5.2,1.91,21.46,8.18,27.58,14.2l13.34-20.3,1.05-1.6,1.73,2.31,5.28,7.06,2.58,3.45A14.41,14.41,0,0,1,182.9,144.38Z"/><path class="cls-7" d="M28.55,191.14l-15.31-5L2.52,187.69h0A3.45,3.45,0,0,0,6,191.14H10.4L0,194.78H0a12.63,12.63,0,0,0,7.31,3.45l12,1.4h0a16.68,16.68,0,0,0,13.65,4.77l2.43-.28Z"/><polygon class="cls-4" points="180.4 146.81 208.54 164.88 179.1 168.83 179.1 165.49 180.4 146.81"/><polygon class="cls-6" points="180.4 146.81 179.1 165.49 179.1 168.83 185.39 167.98 185.21 149.9 180.4 146.81"/><path class="cls-5" d="M221.06,143a11.41,11.41,0,0,1,1.16,5.09c0,13.37-33,18.6-73.69,18.6s-73.69-4.3-73.69-18.6a10.58,10.58,0,0,1,.87-4.27c-25.16,6.72-41.18,19.56-41.18,43.26,0,37.06,51,48.21,114,48.21s114-13.56,114-48.21C262.53,162,246.39,149.28,221.06,143Z"/><path class="cls-10" d="M52.28,187.89a53.57,53.57,0,0,1,23.19-36.58,8.58,8.58,0,0,1-.63-3.24,10.58,10.58,0,0,1,.87-4.27c-25.16,6.72-41.18,19.56-41.18,43.26,0,15.63,9.08,26.65,24.29,34.17A53.36,53.36,0,0,1,52.28,187.89Z"/><path class="cls-10" d="M152.5,166.66h-4A353.13,353.13,0,0,1,110,164.88,69.1,69.1,0,0,0,104.27,233a379.2,379.2,0,0,0,44.26,2.31h2.05A214.31,214.31,0,0,0,152.5,166.66Z"/><path class="cls-10" d="M244.79,181.34A52,52,0,0,0,221,152.22c-3.5,5.8-14.53,9.64-29.95,11.9a87.13,87.13,0,0,1,7.84,67.61c17.62-2.81,32.66-7.36,43.69-13.93A52,52,0,0,0,244.79,181.34Z"/><path class="cls-11" d="M56.88,173.82l-.41-.14a52.32,52.32,0,0,0-3.19,9.08c10.44,5.17,25.14,9.56,45.16,12.45a69.34,69.34,0,0,1,3.16-13.54C81.91,180.89,67.27,178,56.88,173.82Z"/><path class="cls-12" d="M50.39,176.25a4.42,4.42,0,0,0,1.9,6l1,.49a52.32,52.32,0,0,1,3.19-9.08A5.24,5.24,0,0,0,50.39,176.25Z"/><path class="cls-12" d="M109.87,196.64c7,.66,13.23-2.24,13.4-6.61s-6-8.09-13.15-8.15q-4.41,0-8.52-.21a69.34,69.34,0,0,0-3.16,13.54q5.32.78,11.17,1.4Z"/><path class="cls-12" d="M141.91,182.86,135,183a8,8,0,0,0,.12,16.08h.13l6.9-.11a8,8,0,0,0-.26-16.08Z"/><path class="cls-13" d="M36.44,198.65l-.18-.51Z"/><path class="cls-13" d="M35.15,193.86l-.09-.52Z"/><path class="cls-13" d="M35.46,195.32c0-.1-.05-.21-.07-.31C35.41,195.11,35.43,195.22,35.46,195.32Z"/><path class="cls-13" d="M35.94,197.13c0-.13-.08-.25-.11-.38C35.86,196.88,35.91,197,35.94,197.13Z"/><path class="cls-13" d="M37.53,201.37l-.21-.49Z"/><path class="cls-13" d="M37,200l-.21-.52Z"/><path class="cls-13" d="M41.6,208l-.35-.45Z"/><path class="cls-13" d="M40.72,206.83c-.12-.16-.23-.31-.33-.47C40.49,206.52,40.6,206.67,40.72,206.83Z"/><path class="cls-13" d="M43.51,210.25l-.16-.18Z"/><path class="cls-13" d="M38.16,202.67l-.19-.39Z"/><path class="cls-13" d="M39.87,205.59l-.28-.44Z"/><path class="cls-13" d="M39,204.15l-.14-.23Z"/><path class="cls-13" d="M42.53,209.14l-.33-.4Z"/><path class="cls-13" d="M34.59,189.17c0-.17,0-.34,0-.51C34.57,188.83,34.59,189,34.59,189.17Z"/><path class="cls-13" d="M34.72,190.81l-.06-.58Z"/><path class="cls-13" d="M34.91,192.36c0-.19-.06-.38-.08-.57C34.85,192,34.88,192.17,34.91,192.36Z"/><path class="cls-13" d="M213.12,229c-1.48.35-3,.68-4.51,1C210.14,229.63,211.64,229.3,213.12,229Z"/><path class="cls-13" d="M217.55,227.83c-1.42.38-2.86.75-4.33,1.1C214.69,228.58,216.13,228.21,217.55,227.83Z"/><path class="cls-13" d="M221.82,226.62c-1.36.41-2.75.8-4.16,1.18C219.07,227.42,220.46,227,221.82,226.62Z"/><path class="cls-13" d="M142.68,235.24l-2.42,0Z"/><path class="cls-13" d="M208.54,230c-1.55.32-3.11.63-4.7.92C205.43,230.6,207,230.29,208.54,230Z"/><path class="cls-13" d="M225.91,225.3c-1.29.44-2.62.87-4,1.28C223.29,226.17,224.62,225.74,225.91,225.3Z"/><path class="cls-13" d="M145.59,235.26h0Z"/><path class="cls-13" d="M242.61,217.8c-.65.39-1.32.77-2,1.15C241.29,218.57,242,218.19,242.61,217.8Z"/><path class="cls-13" d="M44.89,211.66l-.36-.35Z"/><path class="cls-13" d="M233.57,222.38c-1.17.5-2.37,1-3.6,1.46C231.2,223.37,232.4,222.88,233.57,222.38Z"/><path class="cls-13" d="M229.83,223.89c-1.23.47-2.49.93-3.78,1.37C227.34,224.82,228.6,224.36,229.83,223.89Z"/><path class="cls-13" d="M237.11,220.76c-1.1.53-2.23,1.05-3.39,1.55C234.88,221.81,236,221.29,237.11,220.76Z"/><path class="cls-13" d="M240.45,219c-1,.56-2.09,1.11-3.18,1.64C238.36,220.15,239.42,219.6,240.45,219Z"/><path class="cls-13" d="M48.44,214.78l-.46-.37Z"/><path class="cls-13" d="M51.37,216.92l-.39-.27Z"/><path class="cls-13" d="M49.7,215.74l-.38-.28Z"/><path class="cls-13" d="M47.23,213.79l-.47-.4Z"/><path class="cls-13" d="M139.78,235.19l-2.45-.05Z"/><path class="cls-13" d="M46.06,212.76c-.15-.13-.3-.26-.44-.4C45.76,212.5,45.91,212.63,46.06,212.76Z"/><path class="cls-13" d="M134.05,235.06l-2.76-.09Z"/><path class="cls-13" d="M136.9,235.14l-2.55-.07Z"/><path class="cls-13" d="M52.87,217.9l-.54-.35Z"/><path class="cls-13" d="M54.32,218.79l-.59-.36Z"/><path class="cls-13" d="M57.3,220.45l-.54-.29Z"/><path class="cls-13" d="M55.79,219.64l-.59-.34Z"/><path class="cls-11" d="M99.63,219.27c-14.4-2-28.74-5.18-41.75-11.59-1.72-.85-3.42-1.76-5.08-2.73a54.52,54.52,0,0,0,6,16.28c17.5,8.64,43.12,12.66,72.4,13.73-9.41-.34-18.44-1-26.95-2A70.55,70.55,0,0,1,99.63,219.27Z"/><path class="cls-11" d="M201.91,217.1a326.83,326.83,0,0,1-49.25,5.06q-.82,6.59-2.08,13.1c19.29-.09,37.41-1.47,53.23-4.37-1.6.3-3.23.57-4.88.84A84.93,84.93,0,0,0,201.91,217.1Z"/><path class="cls-11" d="M262.14,192.13a45.74,45.74,0,0,1-10.56,9.36q-2.46,1.59-5.06,2.92a52.38,52.38,0,0,1-3.9,13.39C253.51,211.31,260.49,202.84,262.14,192.13Z"/><path class="cls-9" d="M42.2,208.74c-.21-.24-.41-.49-.6-.74C41.79,208.25,42,208.5,42.2,208.74Z"/><path class="cls-9" d="M43.35,210.07c-.28-.3-.55-.61-.82-.93C42.8,209.46,43.07,209.77,43.35,210.07Z"/><path class="cls-9" d="M55.2,219.3l-.88-.51Z"/><path class="cls-9" d="M41.25,207.55l-.53-.72Z"/><path class="cls-9" d="M58.82,221.23h0l-1.52-.78Z"/><path class="cls-9" d="M34.66,190.19v0Z"/><path class="cls-9" d="M56.76,220.16l-1-.52Z"/><path class="cls-9" d="M40.39,206.36l-.52-.77Z"/><path class="cls-9" d="M49.32,215.46l-.88-.68Z"/><path class="cls-9" d="M52.33,217.55l-1-.63Z"/><path class="cls-9" d="M39.59,205.15c-.21-.33-.42-.66-.61-1C39.17,204.49,39.38,204.82,39.59,205.15Z"/><path class="cls-9" d="M48,214.41l-.75-.62Z"/><path class="cls-9" d="M51,216.65c-.44-.3-.86-.6-1.28-.91C50.12,216.05,50.54,216.35,51,216.65Z"/><path class="cls-9" d="M46.76,213.39l-.7-.63Z"/><path class="cls-9" d="M44.53,211.31c-.35-.35-.69-.7-1-1.06C43.84,210.61,44.18,211,44.53,211.31Z"/><path class="cls-9" d="M45.62,212.36l-.73-.7Z"/><path class="cls-9" d="M34.59,189.17c0,.34,0,.69.07,1h0C34.63,189.86,34.61,189.51,34.59,189.17Z"/><path class="cls-9" d="M53.73,218.43l-.86-.53Z"/><path class="cls-9" d="M35.83,196.75c-.14-.47-.26-.95-.37-1.43C35.57,195.8,35.69,196.28,35.83,196.75Z"/><path class="cls-9" d="M34.83,191.79c0-.33-.08-.65-.11-1C34.75,191.14,34.79,191.46,34.83,191.79Z"/><path class="cls-9" d="M34.57,188.66c0-.53,0-1.06,0-1.59C34.53,187.6,34.54,188.13,34.57,188.66Z"/><path class="cls-9" d="M35.06,193.34c-.05-.32-.11-.65-.15-1C35,192.69,35,193,35.06,193.34Z"/><path class="cls-9" d="M35.39,195c-.08-.38-.17-.76-.24-1.15C35.22,194.25,35.31,194.63,35.39,195Z"/><path class="cls-9" d="M38.84,203.92c-.23-.41-.46-.83-.68-1.25C38.38,203.09,38.61,203.51,38.84,203.92Z"/><path class="cls-9" d="M38,202.28c-.15-.3-.3-.6-.44-.91C37.67,201.68,37.82,202,38,202.28Z"/><path class="cls-9" d="M36.26,198.14c-.11-.33-.21-.67-.32-1C36.05,197.47,36.15,197.81,36.26,198.14Z"/><path class="cls-9" d="M36.75,199.52c-.11-.29-.21-.58-.31-.87C36.54,198.94,36.64,199.23,36.75,199.52Z"/><path class="cls-9" d="M37.32,200.88q-.2-.42-.36-.84Q37.13,200.46,37.32,200.88Z"/><path class="cls-3" d="M34.66,190.2v0l.06.58c0,.33.07.65.11,1s.05.38.08.57.1.66.15,1l.09.52c.07.39.16.77.24,1.15,0,.1,0,.21.07.31.11.48.23,1,.37,1.43,0,.13.08.25.11.38.11.34.21.68.32,1l.18.51c.1.29.2.58.31.87L37,200q.16.42.36.84l.21.49c.14.31.29.61.44.91l.19.39c.22.42.45.84.68,1.25l.14.23c.19.34.4.67.61,1l.28.44.52.77c.1.16.21.31.33.47l.53.72.35.45c.19.25.39.5.6.74l.33.4c.27.32.54.63.82.93l.16.18c.33.36.67.71,1,1.06l.36.35.73.7c.14.14.29.27.44.4l.7.63.47.4.75.62.46.37.88.68.38.28c.42.31.84.61,1.28.91l.39.27,1,.63.54.35.86.53.59.36.88.51.59.34,1,.52.54.29,1.52.78a54.52,54.52,0,0,1-6-16.28A72.74,72.74,0,0,1,34.66,190.2Z"/><path class="cls-9" d="M134.35,235.07h0Z"/><path class="cls-9" d="M131.29,235h0Z"/><path class="cls-9" d="M148.53,235.27h0Z"/><path class="cls-9" d="M144.05,235.25h0Z"/><path class="cls-9" d="M150.58,235.26Z"/><path class="cls-9" d="M140.26,235.2h0Z"/><path class="cls-9" d="M137.33,235.14h0Z"/><path class="cls-3" d="M103.17,219.74l-3.54-.47A70.55,70.55,0,0,0,104.27,233c8.51,1,17.54,1.66,27,2h.07l2.76.09h.3l2.55.07h.43l2.45.05h.48l2.42,0h7.9q1.24-6.51,2.08-13.1A326.21,326.21,0,0,1,103.17,219.74Z"/><polygon class="cls-9" points="242.62 217.8 242.62 217.8 242.61 217.8 242.62 217.8"/><path class="cls-9" d="M217.66,227.8l-.11,0Z"/><path class="cls-9" d="M213.22,228.93l-.1,0Z"/><path class="cls-9" d="M240.61,219l-.16.09Z"/><path class="cls-9" d="M233.72,222.31l-.15.07Z"/><path class="cls-9" d="M230,223.84l-.14,0Z"/><path class="cls-9" d="M237.27,220.68l-.16.08Z"/><path class="cls-9" d="M226.05,225.26l-.14,0Z"/><path class="cls-9" d="M221.94,226.58l-.12,0Z"/><path class="cls-9" d="M208.61,230l-.07,0Z"/><path class="cls-9" d="M203.84,230.89h0Z"/><path class="cls-3" d="M223.05,212.57q-10.49,2.61-21.14,4.53a84.93,84.93,0,0,1-3,14.63c1.65-.27,3.28-.54,4.88-.84h0c1.59-.29,3.15-.6,4.7-.92l.07,0c1.53-.32,3-.65,4.51-1l.1,0c1.47-.35,2.91-.72,4.33-1.1l.11,0c1.41-.38,2.8-.77,4.16-1.18l.12,0c1.35-.41,2.68-.84,4-1.28l.14,0c1.29-.44,2.55-.9,3.78-1.37l.14,0c1.23-.47,2.43-1,3.6-1.46l.15-.07c1.16-.5,2.29-1,3.39-1.55l.16-.08c1.09-.53,2.15-1.08,3.18-1.64l.16-.09c.68-.38,1.35-.76,2-1.15h0a52.38,52.38,0,0,0,3.9-13.39C239.17,208.19,231.1,210.56,223.05,212.57Z"/><path class="cls-5" d="M129.84,121.4a95.33,95.33,0,0,0-13.18,22.94l-2.21-5a48.77,48.77,0,0,0,1.28-23.27L111.6,133,99.26,174.33a25.53,25.53,0,0,1-16.1,16.82L38.3,206.72,35.44,206a17.58,17.58,0,0,1-12.27-10.66l-4-2.8a5.34,5.34,0,0,1-1.47-7.14l18,9.46,41.61-24.11L88,110a22.71,22.71,0,0,1,17.71-18.29l11.55-2.41Z"/><g id="Layer_2-2" data-name="Layer 2-2"><path class="cls-5" d="M175.53,47.28l.14.09S170.06,16,158.14,1.09A2.91,2.91,0,0,0,153.65,1c-2.76,3.3-7,11.86-10.76,25.86a49.49,49.49,0,0,0-8.25.05,50.66,50.66,0,0,0-8.14,1.37c-6.11-13.14-11.77-20.84-15-23.62a2.92,2.92,0,0,0-4.42.83c-9.17,16.7-9.28,48.61-9.28,48.61l.13-.11a26.57,26.57,0,0,0-.7,8.64c1.07,12.28,10.57,22.2,23.66,26.54A49.38,49.38,0,0,0,159,85.9c12.15-6.54,19.8-18,18.74-30.24a26.64,26.64,0,0,0-2.17-8.38Z"/><path class="cls-14" d="M87.44,80.65a1.19,1.19,0,0,1-1-.43,1.18,1.18,0,0,1,.17-1.66c10.3-8.43,18.05-7,18.38-7a1.18,1.18,0,0,1-.44,2.32c-.09,0-7.09-1.18-16.45,6.49a1.15,1.15,0,0,1-.65.26Z"/><path class="cls-14" d="M94.44,89.18a1.19,1.19,0,0,1-.66-.13,1.16,1.16,0,0,1-.49-1.58,24.06,24.06,0,0,1,13.88-11.38,1.18,1.18,0,0,1,.61,2.28,22,22,0,0,0-12.4,10.2,1.21,1.21,0,0,1-.94.61Z"/><path class="cls-14" d="M189.94,71.76a1,1,0,0,1-.67-.16C178.72,65.67,172,68,172,68.05a1.18,1.18,0,0,1-.84-2.21c.31-.11,7.71-2.82,19.31,3.71a1.19,1.19,0,0,1-.48,2.21Z"/><path class="cls-14" d="M184.52,81.37a1.2,1.2,0,0,1-1-.45,21.85,21.85,0,0,0-14-7.91,1.17,1.17,0,1,1,.2-2.34,23.91,23.91,0,0,1,15.64,8.81,1.17,1.17,0,0,1-.83,1.89Z"/><path class="cls-15" d="M127.12,56.83a11.16,11.16,0,0,1-22.26,1.71,10.91,10.91,0,0,1,.73-5l21.53,3.31Z"/><path class="cls-14" d="M123.43,56.26c0,.24.14.73.16,1a7.27,7.27,0,1,1-14.49,1.25,8.18,8.18,0,0,1,1-4.27Z"/><path class="cls-15" d="M146,55.2a11.17,11.17,0,1,0,20.64-7L146,55.2Z"/><path class="cls-14" d="M149.57,53.89c0,.25-.07.85,0,1.1A7.27,7.27,0,0,0,164,53.73a8,8,0,0,0-1.65-4l-12.78,4.21Z"/><path class="cls-14" d="M141.36,76.86a5.65,5.65,0,0,1-3.58-.94c-2.91,2.71-6.45,1.32-8,.11a1.15,1.15,0,0,1-.2-1.64,1.18,1.18,0,0,1,1.65-.21c.3.24,3.14,2.26,5.4-.43a1.21,1.21,0,0,1,.8-.42l.27,0a1.17,1.17,0,0,1,.86.27c2.69,2.27,5.14-.21,5.4-.5a1.16,1.16,0,0,1,1.66-.07,1.19,1.19,0,0,1,.08,1.66,7.1,7.1,0,0,1-4.33,2.19Z"/><ellipse class="cls-16" cx="137.3" cy="71.35" rx="3.43" ry="1.63" transform="translate(-5.65 12.14) rotate(-4.96)"/><path class="cls-16" d="M103,42.83s.07-20.68,6-31.51a1.88,1.88,0,0,1,2.86-.53c2.13,1.8,6.53,10,10.51,18.53,0,0-3.64,1.15-19.39,13.51Z"/><path class="cls-16" d="M169,37.1s-3.63-20.36-11.36-30a1.89,1.89,0,0,0-2.91,0c-1.79,2.14-4.92,11-7.34,20.08,0,0,5.89.32,21.61,10Z"/><path class="cls-7" d="M147.22,35.41c2.57-14.55-18.47-10.3-19.22-24.53.57,6,0,12.53,4.54,17C126,29.28,123.13,20.56,121,16.56c.1,7.8-.29,20,8.77,22.54"/><path class="cls-5" d="M148.94,35.26C151.72,17.2,128.72,23.19,128,9c.58,6,.25,11.83,4.77,16.35-6.59,1.36-9.81-6.59-12-10.6.11,7.8,5.7,21.64,18,23.62"/></g></g></g></svg>