<svg xmlns="http://www.w3.org/2000/svg" width="122.88" height="167.44" viewBox="0 0 122.88 167.44"><defs><style>.cls-1{fill:#fff;}.cls-2{fill:#e3e5fd;}.cls-3{fill:#bdbaef;}</style></defs><g id="Layer_2" data-name="Layer 2"><g id="PRINT_1" data-name="PRINT 1"><path class="cls-1" d="M11.79,41.21a68.78,68.78,0,0,1,5.89-27.94,2.28,2.28,0,0,1,2.74-1.41,2.29,2.29,0,0,1,1.95,2.4V51.07H34.15V14.26A14,14,0,0,0,22.86.33a13.94,13.94,0,0,0-16,8.18A80.44,80.44,0,0,0,0,41.21V165.74c0,.93,2.65,1.7,5.92,1.7s5.92-.77,5.92-1.7v-121h-.05Z"/><path class="cls-2" d="M11.79,41.21a68.78,68.78,0,0,1,5.89-27.94,2.28,2.28,0,0,1,2.74-1.41,2.29,2.29,0,0,1,1.95,2.4v2.22c.2-.49.39-1,.61-1.49a2.27,2.27,0,0,1,2.75-1.4A2.27,2.27,0,0,1,27.67,16V51.07h6.48V14.26A13.9,13.9,0,0,0,27,1.85,13.92,13.92,0,0,0,12.2,10.23C7.62,20.6,7.6,31.47,7.6,42.81v65.07a.17.17,0,0,0,0,.07v9.29A29.24,29.24,0,0,1,0,136.9v28.84c0,.93,2.65,1.7,5.92,1.7s5.92-.77,5.92-1.7v-121h-.05Z"/><path class="cls-1" d="M109.15,11.86a2.29,2.29,0,0,1,1.95,2.4V50.31h11.78V14.26A14.23,14.23,0,0,0,95.63,8.51a80.44,80.44,0,0,0-6.9,32.7v96.41c0,1.19,2.64,2.15,5.89,2.15s5.9-1,5.9-2.15V41.21a68.78,68.78,0,0,1,5.89-27.94A2.28,2.28,0,0,1,109.15,11.86Z"/><path class="cls-2" d="M96.33,107.88V108A.17.17,0,0,1,96.33,107.88Z"/><path class="cls-2" d="M100.52,41.21a68.78,68.78,0,0,1,5.89-27.94,2.45,2.45,0,0,1,4.69,1v2.22c.2-.49.39-1,.61-1.49a2.45,2.45,0,0,1,4.69,1V50.31h6.48V14.26a13.9,13.9,0,0,0-7.2-12.41,13.91,13.91,0,0,0-14.75,8.38C96.35,20.6,96.4,31.62,96.4,43v1.76L96.34,98.6v18.64a29.24,29.24,0,0,1-7.61,19.66v28.84c0,.93,2.65,1.7,5.92,1.7s5.92-.77,5.92-1.7v-121h0Z"/><path class="cls-1" d="M88.73,143H10.23c-.71,0-1.29,2-1.29,4.51s.58,4.52,1.29,4.52h78.5Z"/><path class="cls-3" d="M10.23,152.06h78.5V148.8H9C9.15,150.68,9.64,152.06,10.23,152.06Z"/><path class="cls-2" d="M9,146.58q0,.46,0,1c0,.44,0,.86.05,1.26H88.73v-2.22Z"/><path class="cls-1" d="M88.73,106.08H10.23c-.71,0-1.29,2-1.29,4.51s.58,4.51,1.29,4.51h78.5Z"/><path class="cls-3" d="M10.23,115.1h78.5v-3.26H9C9.15,113.72,9.64,115.1,10.23,115.1Z"/><path class="cls-2" d="M9,109.63q0,.47,0,1c0,.44,0,.85.05,1.25H88.73v-2.21Z"/></g></g></svg>