<svg xmlns="http://www.w3.org/2000/svg" width="844.68" height="844.38" viewBox="0 0 844.68 844.38"><defs><style>.cls-1{fill:#d9ac58;}</style></defs><g id="Layer_2" data-name="Layer 2"><g id="Layer_1-2" data-name="Layer 1"><g id="Layer_2-2" data-name="Layer 2"><g id="BACKGROUND"><path class="cls-1" d="M429.57,415.5c-.31-.26-.61-.53-.92-.81,59.81-75.87,113-157.88-27-414.69h42.54C557.75,269.56,496.66,346,429.57,415.5Z"/><path class="cls-1" d="M430.68,416.93l-.76-1C503,352.84,568.85,280,482.09,6.83c15.83,5.31,31.29,10.72,46.38,16.09C580.46,292.1,510.42,362.56,430.68,416.93Z"/><path class="cls-1" d="M431.5,418.54l-.58-1.08c41.54-24.7,82.08-51.4,108-107.2C565.09,255,576.63,170.62,566.23,42.68c14.84,10.14,28.94,20,42.41,29.33-6.36,118.19-26.87,199.51-58.78,251.06C518.27,375.47,475.27,398.08,431.5,418.54Z"/><path class="cls-1" d="M432,420.28l-.36-1.18C477,402.39,521.7,383.45,557.7,334.39c36.3-47.91,64-125.95,82.69-234.67,11.79,12.48,22.8,24,33.34,34.47C642.64,231.92,607.1,305.56,566,348.91,525.18,393.68,478.79,408.14,432,420.28Z"/><path class="cls-1" d="M432.19,422.07a10.13,10.13,0,0,0-.14-1.22c47.64-8.15,95.06-18.66,139.52-59.54C616.18,322,657.84,252.37,697.5,162.44a361.48,361.48,0,0,0,24.74,31.5C673.78,277.44,625.34,342.31,577,376.8,528.66,412.94,480.4,418.7,432.19,422.07Z"/><path class="cls-1" d="M432.05,423.87c0-.41.05-.81.08-1.22,48.32.72,96.86-.92,148.06-32.93C631.25,359.31,685,298.53,740.43,217.78a160.43,160.43,0,0,0,20.36,25.73c-64.34,80.46-124.07,136.42-178,162.08C528.53,432.66,480.05,429.42,432.05,423.87Z"/><path class="cls-1" d="M431.57,425.62c.1-.4.21-.8.31-1.19,47.36,9.6,95.34,17,151.74-5.78Q667.73,386.25,777,263.56a155.11,155.11,0,0,0,19.11,23.86C711.6,371.3,641.67,417.8,583.36,434.53,524.73,452.1,477.72,439.91,431.57,425.62Z"/><path class="cls-1" d="M430.78,427.24l.53-1.11c44.76,18.17,90.52,34.34,150.6,21.35,59.81-12.44,134-54.05,229.2-138.67a327.24,327.24,0,0,0,16.15,28.93C609.24,505.54,515.13,474.09,430.78,427.24Z"/><path class="cls-1" d="M429.71,428.69l.72-1c80.77,52.88,169.11,95.74,407.11-62.05q3.32,19,7.14,38.19C587.07,542.42,505.32,488.82,429.71,428.69Z"/><path class="cls-1" d="M428.39,429.93l.89-.85c70.25,66.28,147.06,126.62,415.39,10.17q-3.75,22.88-7.73,45.31C563.8,569.39,491.12,503.32,428.39,429.93Z"/><path class="cls-1" d="M426.87,430.9l1-.67c55.32,79,125.8,148.62,395.64,93-7.87,15.67-15.68,30.77-23.28,45.34-127.45,9.42-211.67-2.63-266.77-29.13C477.86,513.2,451.36,472.53,426.87,430.9Z"/><path class="cls-1" d="M425.19,431.57l1.14-.47c20.9,43.54,43.91,86.27,96.63,117.26,51.91,31.31,133.54,50.88,252.81,55.57-11.65,13.51-22.71,26.2-33,38.28Q580.67,613,509.23,558.06C460.39,521.78,441.67,477,425.19,431.57Z"/><path class="cls-1" d="M423.42,431.93l1.2-.26c12.6,46.63,27.5,92.83,72.68,133.15C541.09,605.41,615.16,640.13,714,670c-12.49,10.08-23.79,19.55-33.78,28.77-89.51-40.17-158.92-82.21-198-127C441.6,527.06,431.32,479.58,423.42,431.93Z"/><path class="cls-1" d="M421.61,432h1.23c3.85,48.15,10.07,96.31,46.67,144.23,34.95,47.94,100.28,95.66,184.29,143.22a224.78,224.78,0,0,0-28.58,22c-80.72-56-141.22-110-171.44-161.26C422,528.81,420.64,480.25,421.61,432Z"/><path class="cls-1" d="M419.83,431.65l1.22.19c-5.07,48-7.84,96.51,19.7,150.4,26.13,53.64,82.56,112.71,162.92,176a142.22,142.22,0,0,0-24,19.63q-123-110.16-154.84-194.45C402.33,526.9,410,478.94,419.83,431.65Z"/><path class="cls-1" d="M418.14,431l1.16.41c-13.84,46.29-25.57,93.38-7.48,151.76,17.22,58,64.26,127.37,147.94,210.52A203.83,203.83,0,0,0,534.28,812C449.54,715.94,408.2,641.5,396,581.57,383.29,521.37,399.73,475.68,418.14,431Z"/><path class="cls-1" d="M416.59,430.09l1.06.62c-46.17,84.72-76.14,179.37,92.55,394.63-11.08,3.84-22.13,8.07-33.25,12.67C319.74,598.68,363.31,510.64,416.59,430.09Z"/><path class="cls-1" d="M415.24,428.89l.93.81c-59.42,76.18-112.11,158.48,29,414.24l-42.31.44C287.78,575.42,348.55,498.81,415.24,428.89Z"/><path class="cls-1" d="M414.13,427.47l.76,1C342.18,492,276.57,564.91,365.09,838c-15.8-5.15-31.26-10.39-46.36-15.61C264.85,552.81,334.73,482.35,414.13,427.47Z"/><path class="cls-1" d="M413.3,425.86c.19.36.38.73.58,1.09-84.44,46.63-157.32,116.05-133,376-14.9-10-29.06-19.76-42.6-29,5.49-118.75,25.54-200.22,57.16-252C326.75,469.39,369.63,446.56,413.3,425.86Z"/><path class="cls-1" d="M412.78,424.13l.36,1.18c-45.25,16.95-89.87,36.11-125.6,85.35C251.47,558.79,224.29,637,206.31,746.31c-11.89-12.44-23-24-33.62-34.43,30.48-98.27,65.61-172.12,106.47-215.69C319.75,451.21,366.06,436.52,412.78,424.13Z"/><path class="cls-1" d="M412.58,422.34l.15,1.22c-47.59,8.41-95,19.15-139.2,60.24-44.4,39.52-85.67,109.39-124.82,199.75a369.2,369.2,0,0,0-24.94-31.64c48-83.75,96.09-148.84,144.25-183.57C316.17,432,364.39,426,412.58,422.34Z"/><path class="cls-1" d="M412.72,420.54c0,.41-.05.82-.08,1.22-48.32-.46-96.85,1.43-147.88,33.67-50.89,30.64-104.28,91.63-159.27,172.48A162.62,162.62,0,0,0,85.07,602c63.83-80.4,123.23-136.59,177-162.48C316.19,412.26,364.68,415.25,412.72,420.54Z"/><path class="cls-1" d="M413.18,418.79l-.3,1.19c-47.4-9.34-95.43-16.47-151.69,6.53Q177.3,459.26,68.85,581.92a153.25,153.25,0,0,0-19.14-23.81c83.82-83.76,153.46-130.51,211.65-147.49C319.88,392.8,367,404.75,413.18,418.79Z"/><path class="cls-1" d="M414,417.16c-.17.37-.34.75-.52,1.12-44.86-17.92-90.7-33.87-150.69-20.61C203,410.36,129.17,452.26,34.64,536.84a315.62,315.62,0,0,0-16.31-28.69C235,340,329.4,370.69,414,417.16Z"/><path class="cls-1" d="M415,415.7c-.23.34-.47.67-.71,1-81-52.49-169.69-94.7-406.44,63.77Q4.37,461.61.34,442.57C257,302.82,339.11,356,415,415.7Z"/><path class="cls-1" d="M416.34,414.46l-.88.86c-70.63-65.9-147.7-125.9-415.46-8q3.5-22.8,7.23-45.17C280.31,275.6,353.17,341.45,416.34,414.46Z"/><path class="cls-1" d="M417.86,413.48l-1,.68C361,335.48,290.43,266.05,20.25,323.53Q31.88,300,43.11,278.09C302.21,255.75,371.74,328.82,417.86,413.48Z"/><path class="cls-1" d="M419.53,412.8l-1.13.48c-21.14-43.43-44.38-86-97.3-116.75-52.12-31-133.92-50.14-253.75-54C78.93,229,89.93,216.18,100.14,204c108.69,18.75,186.71,46.4,234.64,82.75C383.84,322.77,402.8,367.48,419.53,412.8Z"/><path class="cls-1" d="M421.3,412.43l-1.2.27c-12.86-46.56-28-92.69-73.43-132.77-44-40.36-118.36-74.67-217.72-104,12.5-10.18,23.82-19.73,33.84-29,89.94,39.68,159.61,81.35,198.92,126C402.6,317.4,413.13,364.82,421.3,412.43Z"/><path class="cls-1" d="M423.11,412.4h-1.23c-4.12-48.13-10.6-96.26-47.47-144-35.22-47.76-100.82-95.13-185.11-142.25A228.76,228.76,0,0,0,218,104c80.83,55.47,141.66,109.22,172.1,160.3C422.16,315.54,423.81,364.09,423.11,412.4Z"/><path class="cls-1" d="M424.89,412.7l-1.22-.19c4.81-48.07,7.3-96.56-20.53-150.32C376.75,208.69,320,149.93,239.68,87.09a141.24,141.24,0,0,0,24-19.68Q386.53,176.72,419,260.91C441.85,317.33,434.48,365.35,424.89,412.7Z"/><path class="cls-1" d="M426.59,413.31l-1.16-.4c13.58-46.36,25-93.54,6.64-151.82-17.51-57.95-64.88-127-148.49-209.53a198.92,198.92,0,0,0,25.31-18.35c84.79,95.33,126.5,169.54,139,229.41C460.92,322.76,444.75,368.54,426.59,413.31Z"/><path class="cls-1" d="M428.14,414.23l-1.06-.61c45.78-84.93,74.89-180-94.31-393.94q16.5-5.89,33-12.95C523.88,245,481,333.43,428.14,414.23Z"/></g></g></g></g></svg>