<svg xmlns="http://www.w3.org/2000/svg" viewBox="0 0 185.22 16.97"><defs><style>.cls-1{fill:#251f25;}</style></defs><g id="Layer_2" data-name="Layer 2"><g id="Layer_1-2" data-name="Layer 1"><g id="Layer_2-2" data-name="Layer 2"><g id="Layer_1-2-2" data-name="Layer 1-2"><path class="cls-1" d="M3,12.49c10.13.14,19.94,2.2,29.79,3.45a96.25,96.25,0,0,0,20.07.84c6.9-.54,13.55-1.84,20.33-2.71,13.78-1.8,28.15-.79,42,.33,3.33.27,6.63.58,9.93,1s6.84.85,10.3,1.11a69.56,69.56,0,0,0,10,.15,82.38,82.38,0,0,0,10-1.52c9.63-1.87,19.65-3.89,29.8-4V0H0V12.5C1,12.49,2,12.48,3,12.49Z"/></g></g></g></g></svg>