<svg xmlns="http://www.w3.org/2000/svg" xmlns:xlink="http://www.w3.org/1999/xlink" width="191.9" height="210.39" viewBox="0 0 191.9 210.39"><defs><style>.cls-1{isolation:isolate;}.cls-2{fill:url(#linear-gradient);}.cls-12,.cls-13,.cls-15,.cls-3,.cls-8{fill:#bc6182;}.cls-12,.cls-15,.cls-18,.cls-20,.cls-23,.cls-3,.cls-37,.cls-40,.cls-8{mix-blend-mode:multiply;}.cls-3{opacity:0.75;}.cls-4{fill:url(#linear-gradient-2);}.cls-5{fill:url(#linear-gradient-3);}.cls-6{fill:url(#linear-gradient-4);}.cls-7{fill:url(#linear-gradient-5);}.cls-8{opacity:0.55;}.cls-9{fill:url(#linear-gradient-6);}.cls-10{fill:url(#linear-gradient-7);}.cls-11{fill:url(#linear-gradient-8);}.cls-12,.cls-23{opacity:0.15;}.cls-14{fill:url(#linear-gradient-9);}.cls-15,.cls-20,.cls-40{opacity:0.25;}.cls-16{fill:#ffcfa4;}.cls-17{fill:url(#linear-gradient-10);}.cls-18,.cls-20,.cls-23{fill:#cc0631;}.cls-18{opacity:0.2;}.cls-19{fill:url(#linear-gradient-11);}.cls-21{fill:#fff5cc;}.cls-22{fill:url(#linear-gradient-12);}.cls-24{fill:url(#linear-gradient-13);}.cls-25{fill:url(#linear-gradient-14);}.cls-26{fill:url(#linear-gradient-15);}.cls-27{fill:url(#linear-gradient-16);}.cls-28{fill:url(#linear-gradient-17);}.cls-29{fill:url(#linear-gradient-18);}.cls-30{fill:url(#linear-gradient-19);}.cls-31{fill:url(#linear-gradient-20);}.cls-32{fill:url(#linear-gradient-21);}.cls-33{fill:url(#linear-gradient-22);}.cls-34{fill:url(#linear-gradient-23);}.cls-35{fill:url(#linear-gradient-24);}.cls-36{fill:url(#linear-gradient-25);}.cls-37{fill:#771d62;opacity:0.35;}.cls-38{fill:url(#linear-gradient-26);}.cls-39{fill:#fcc924;opacity:0.3;}.cls-39,.cls-43,.cls-45,.cls-46{mix-blend-mode:screen;}.cls-40{fill:#c64d10;}.cls-41{fill:#751a36;}.cls-42{fill:url(#linear-gradient-27);}.cls-43{fill:#fcb144;}.cls-44{fill:#f4f2d9;}.cls-45{fill:#3eedff;}.cls-46{fill:#fccd47;}.cls-47{fill:url(#linear-gradient-28);}.cls-48{fill:url(#linear-gradient-29);}.cls-49{fill:url(#linear-gradient-30);}.cls-50{fill:url(#linear-gradient-31);}.cls-51{fill:url(#linear-gradient-32);}</style><linearGradient id="linear-gradient" x1="-40.6" y1="-152.53" x2="-21.34" y2="-152.53" gradientTransform="translate(321.67 145.46) rotate(-90)" gradientUnits="userSpaceOnUse"><stop offset="0" stop-color="#ffa274"/><stop offset="1" stop-color="#ffc488"/></linearGradient><linearGradient id="linear-gradient-2" x1="-33.42" y1="-156.47" x2="-21.34" y2="-156.47" gradientTransform="translate(321.67 145.46) rotate(-90)" gradientUnits="userSpaceOnUse"><stop offset="0" stop-color="#e3794d"/><stop offset="0.32" stop-color="#ffa274"/><stop offset="0.63" stop-color="#ffc488"/><stop offset="1" stop-color="#ffa274"/></linearGradient><linearGradient id="linear-gradient-3" x1="-40.6" y1="170.17" x2="-21.34" y2="170.17" gradientTransform="matrix(0, -1, -1, 0, 192.93, 145.46)" xlink:href="#linear-gradient"/><linearGradient id="linear-gradient-4" x1="-33.42" y1="166.02" x2="-21.34" y2="166.02" gradientTransform="matrix(0, -1, -1, 0, 192.93, 145.46)" xlink:href="#linear-gradient-2"/><linearGradient id="linear-gradient-5" x1="250.15" y1="-152.53" x2="269.41" y2="-152.53" gradientTransform="matrix(0, 1, 1, 0, 321.67, -238.24)" xlink:href="#linear-gradient"/><linearGradient id="linear-gradient-6" x1="257.33" y1="-155.83" x2="269.41" y2="-155.83" gradientTransform="matrix(0, 1, 1, 0, 321.67, -238.24)" gradientUnits="userSpaceOnUse"><stop offset="0" stop-color="#ffa274"/><stop offset="0.37" stop-color="#ffc488"/><stop offset="0.68" stop-color="#ffa274"/><stop offset="1" stop-color="#e3794d"/></linearGradient><linearGradient id="linear-gradient-7" x1="250.15" y1="170.17" x2="269.41" y2="170.17" gradientTransform="translate(192.93 -238.24) rotate(90)" xlink:href="#linear-gradient"/><linearGradient id="linear-gradient-8" x1="257.33" y1="166.7" x2="269.41" y2="166.7" gradientTransform="translate(192.93 -238.24) rotate(90)" xlink:href="#linear-gradient-6"/><linearGradient id="linear-gradient-9" x1="95.95" y1="186.06" x2="95.95" y2="11.91" gradientTransform="matrix(1, 0, 0, 1, 0, 0)" xlink:href="#linear-gradient-2"/><linearGradient id="linear-gradient-10" x1="23.26" y1="35.63" x2="22.17" y2="16.32" gradientUnits="userSpaceOnUse"><stop offset="0" stop-color="#b83d00"/><stop offset="0.25" stop-color="#e3770f"/><stop offset="0.25" stop-color="#e4790f"/><stop offset="0.56" stop-color="#fee34d"/><stop offset="0.62" stop-color="#fbd545"/><stop offset="0.75" stop-color="#f1af2f"/><stop offset="0.91" stop-color="#e4790f"/></linearGradient><linearGradient id="linear-gradient-11" x1="-415.91" y1="6.29" x2="-413.24" y2="-15.09" gradientTransform="matrix(0.51, -0.03, 0.06, 1, 229.47, 16.34)" gradientUnits="userSpaceOnUse"><stop offset="0" stop-color="#cf4b0b"/><stop offset="0.99" stop-color="#e8b321"/></linearGradient><linearGradient id="linear-gradient-12" x1="91.67" y1="887.15" x2="102.9" y2="888.21" gradientTransform="matrix(0.11, -0.99, -0.92, -0.11, 815.45, 214.49)" xlink:href="#linear-gradient-10"/><linearGradient id="linear-gradient-13" x1="213.8" y1="1423.07" x2="204.1" y2="1422.78" gradientTransform="matrix(0.01, 0.98, -0.47, 0.07, 661.33, -284.11)" xlink:href="#linear-gradient-11"/><linearGradient id="linear-gradient-14" x1="169.18" y1="34.95" x2="169.62" y2="15.64" xlink:href="#linear-gradient-10"/><linearGradient id="linear-gradient-15" x1="1789.77" y1="77.46" x2="1792.44" y2="56.08" gradientTransform="matrix(-0.51, -0.03, -0.06, 1, 1084.56, 16.34)" xlink:href="#linear-gradient-11"/><linearGradient id="linear-gradient-16" x1="219.92" y1="-317.01" x2="231.15" y2="-315.96" gradientTransform="matrix(-0.11, -0.99, 0.92, -0.11, 498.58, 214.49)" xlink:href="#linear-gradient-10"/><linearGradient id="linear-gradient-17" x1="393.08" y1="-980.62" x2="383.39" y2="-980.91" gradientTransform="matrix(-0.01, 0.98, 0.47, 0.07, 652.71, -284.11)" xlink:href="#linear-gradient-11"/><linearGradient id="linear-gradient-18" x1="22.41" y1="185.95" x2="22.41" y2="162.57" xlink:href="#linear-gradient-10"/><linearGradient id="linear-gradient-19" x1="-434.68" y1="156.26" x2="-432" y2="134.88" xlink:href="#linear-gradient-11"/><linearGradient id="linear-gradient-20" x1="-57.62" y1="868.6" x2="-46.39" y2="869.65" gradientTransform="matrix(0.11, -0.99, -0.92, -0.11, 815.45, 214.49)" xlink:href="#linear-gradient-10"/><linearGradient id="linear-gradient-21" x1="366.57" y1="1427.63" x2="356.88" y2="1427.34" gradientTransform="matrix(0.01, 0.98, -0.47, 0.07, 661.33, -284.11)" xlink:href="#linear-gradient-11"/><linearGradient id="linear-gradient-22" x1="169.29" y1="184.95" x2="169.62" y2="163.39" xlink:href="#linear-gradient-10"/><linearGradient id="linear-gradient-23" x1="1771" y1="227.42" x2="1773.68" y2="206.04" gradientTransform="matrix(-0.51, -0.03, -0.06, 1, 1084.56, 16.34)" xlink:href="#linear-gradient-11"/><linearGradient id="linear-gradient-24" x1="70.62" y1="-335.57" x2="81.85" y2="-334.51" gradientTransform="matrix(-0.11, -0.99, 0.92, -0.11, 498.58, 214.49)" xlink:href="#linear-gradient-10"/><linearGradient id="linear-gradient-25" x1="545.86" y1="-976.06" x2="536.17" y2="-976.35" gradientTransform="matrix(-0.01, 0.98, 0.47, 0.07, 652.71, -284.11)" xlink:href="#linear-gradient-11"/><linearGradient id="linear-gradient-26" x1="127.83" y1="210.39" x2="127.83" y2="161.73" gradientUnits="userSpaceOnUse"><stop offset="0" stop-color="#ffa631"/><stop offset="0.12" stop-color="#ffac31"/><stop offset="0.28" stop-color="#ffbd31"/><stop offset="0.46" stop-color="#ffd831"/><stop offset="0.52" stop-color="#ffe431"/><stop offset="0.62" stop-color="#ffce31"/><stop offset="0.76" stop-color="#ffb831"/><stop offset="0.88" stop-color="#ffab31"/><stop offset="1" stop-color="#ffa631"/></linearGradient><linearGradient id="linear-gradient-27" x1="126.48" y1="177.6" x2="126.48" y2="148.6" gradientUnits="userSpaceOnUse"><stop offset="0.11" stop-color="#df0e35"/><stop offset="0.74" stop-color="#f83b3b"/></linearGradient><linearGradient id="linear-gradient-28" x1="61.51" y1="30.68" x2="52.33" y2="46.57" xlink:href="#linear-gradient-27"/><linearGradient id="linear-gradient-29" x1="77.9" y1="27.94" x2="65.59" y2="49.28" xlink:href="#linear-gradient-27"/><linearGradient id="linear-gradient-30" x1="96.25" y1="29.93" x2="85.59" y2="48.4" xlink:href="#linear-gradient-27"/><linearGradient id="linear-gradient-31" x1="116.65" y1="28.66" x2="105.17" y2="48.55" xlink:href="#linear-gradient-27"/><linearGradient id="linear-gradient-32" x1="135.66" y1="27.4" x2="122.8" y2="49.69" xlink:href="#linear-gradient-27"/></defs><g class="cls-1"><g id="Layer_2" data-name="Layer 2"><g id="Layer_1-2" data-name="Layer 1"><path class="cls-2" d="M171.86,170.8a13,13,0,0,1,2.81-.74,5.66,5.66,0,0,0-2.81-3.26s-5.65.08-7.3,0-2.8,18,0,18.39l5.6.87c3.1-1.07,5.25-7.27,5.25-12.4a19.62,19.62,0,0,0-.35-2.2A28.13,28.13,0,0,1,171.86,170.8Z"/><path class="cls-3" d="M171.86,170.8a13,13,0,0,1,2.81-.74,5.66,5.66,0,0,0-2.81-3.26s-5.65.08-7.3,0-2.8,18,0,18.39l5.6.87c3.1-1.07,5.25-7.27,5.25-12.4a19.62,19.62,0,0,0-.35-2.2A28.13,28.13,0,0,1,171.86,170.8Z"/><path class="cls-4" d="M170.71,178.87c-1.1.16-2.4-1.24-2.4-5.54.4-4.21,1.75-5.63,3.55-6.53H160.13c-1.9,0-2.35,12.07,0,12.07Z"/><path class="cls-5" d="M27.34,166.8c-1.65.08-7.3,0-7.3,0-1.57,1-3,1.82-3.55,6.86a21.89,21.89,0,0,0,1.22,7c1,0,5.66,1,5.66,1l-5,.58c.89,1.88,2,3.3,3.39,3.77l5.6-.87C30.15,184.82,29,166.72,27.34,166.8Z"/><path class="cls-3" d="M27.34,166.8c-1.65.08-7.3,0-7.3,0-1.57,1-3,1.82-3.55,6.86a21.89,21.89,0,0,0,1.22,7c1,0,5.66,1,5.66,1l-5,.58c.89,1.88,2,3.3,3.39,3.77l5.6-.87C30.15,184.82,29,166.72,27.34,166.8Z"/><path class="cls-6" d="M32.18,166.8H20a5.28,5.28,0,0,1,2.59,2.57,19,19,0,0,1,4.81.91,14.63,14.63,0,0,1-4.29.49,14.38,14.38,0,0,1,.44,2.56c0,3.91-1.07,5.42-2.09,5.54H32.18C34.53,178.87,34.08,166.8,32.18,166.8Z"/><path class="cls-7" d="M173.85,17l-.37-.08-.23,0h-.08a4.44,4.44,0,0,1-1.75-.48.7.7,0,0,1-.25-.95,1.69,1.69,0,0,1,1.46-.89H173a5.81,5.81,0,0,0-2.79-2.65l-5.6.87c-2.8.37-1.65,18.47,0,18.39s7.3,0,7.3,0c1.58-1,3-1.82,3.55-6.86a21.92,21.92,0,0,0-1.26-7.18A1.34,1.34,0,0,0,173.85,17Z"/><path class="cls-8" d="M173.85,17l-.37-.08-.23,0h-.08a4.44,4.44,0,0,1-1.75-.48.7.7,0,0,1-.25-.95,1.69,1.69,0,0,1,1.46-.89H173a5.81,5.81,0,0,0-2.79-2.65l-5.6.87c-2.8.37-1.65,18.47,0,18.39s7.3,0,7.3,0c1.58-1,3-1.82,3.55-6.86a21.92,21.92,0,0,0-1.26-7.18A1.34,1.34,0,0,0,173.85,17Z"/><path class="cls-9" d="M170.71,19.1c-1.1-.16-2.4,1.24-2.4,5.54.4,4.22,1.75,5.63,3.55,6.53H161.41c-1.9,0-2.35-12.07,0-12.07Z"/><path class="cls-10" d="M27.34,12.78l-5.6-.87a4.45,4.45,0,0,0-1.67,1.15,9.81,9.81,0,0,1,2.7,1.75l-4.27.58a21,21,0,0,0-2,8.92c.55,5,2,5.86,3.55,6.86,0,0,5.65-.08,7.3,0S30.15,13.15,27.34,12.78Z"/><path class="cls-8" d="M27.34,12.78l-5.6-.87a4.45,4.45,0,0,0-1.67,1.15,9.81,9.81,0,0,1,2.7,1.75l-4.27.58a21,21,0,0,0-2,8.92c.55,5,2,5.86,3.55,6.86,0,0,5.65-.08,7.3,0S30.15,13.15,27.34,12.78Z"/><path class="cls-11" d="M21.19,19.1c1.1-.16,2.4,1.24,2.4,5.54-.4,4.22-1.75,5.63-3.55,6.53H30.83c1.9,0,2.35-12.07,0-12.07Z"/><path class="cls-12" d="M17.76,17.13H28.25l.63-.3c-.23-2.28-.71-3.94-1.54-4l-5.6-.87a4.45,4.45,0,0,0-1.67,1.15,9.81,9.81,0,0,1,2.7,1.75l-4.27.58A16.24,16.24,0,0,0,17.76,17.13Z"/><path class="cls-12" d="M169.6,29.21h0A3.38,3.38,0,0,1,166,27a11.72,11.72,0,0,1,1.28-7.85h-5.82c-2.35,0-1.9,12.07,0,12.07h10.45A5.34,5.34,0,0,1,169.6,29.21Z"/><path class="cls-13" d="M170.71,178.87h0Z"/><path class="cls-12" d="M160.13,178.87h10.28c-.81-.1-1.66-1.07-2-3.43-1.88,0-4.43-.51-5.58-8.64h-2.73C158.23,166.8,157.78,178.87,160.13,178.87Z"/><path class="cls-12" d="M23.46,175.44h0c-.31,2.35-1.15,3.33-2,3.43H31.8l2-5.22c0-3.26-.56-6.85-1.6-6.85H29.54C28.39,175,25.35,175.44,23.46,175.44Z"/><path class="cls-12" d="M174.15,17.13a1.34,1.34,0,0,0-.3-.12l-.37-.08-.23,0h-.08a4.44,4.44,0,0,1-1.75-.48.7.7,0,0,1-.25-.95,1.69,1.69,0,0,1,1.46-.89H173a5.81,5.81,0,0,0-2.79-2.65l-5.6.87c-.86.11-1.35,1.92-1.56,4.35Z"/><path class="cls-12" d="M30.83,19.1H24.7C26,21,26.47,24.25,25.89,27.44c-.54,1.93-2.09,1.77-3.41,1.77l-.19,0A5.4,5.4,0,0,1,20,31.17H30.83C32.73,31.17,33.18,19.1,30.83,19.1Z"/><path class="cls-14" d="M157.39,132.5c-4-5.1-3.65-10.9-.68-16.35-.18-7.07-.22-14.33-.12-21.49-4.82.13-4.37-2,0-2.33,0-1.22,0-2.43.07-3.63-14,.41-12.76-2.53.07-2.65.29-10.25.84-20.27,1.66-29.45a8.23,8.23,0,0,0-2.8-1.81c-1.18-2.21,2.23-4.11,3.54-5.55,2.27-20.58,6-35.61,11-37.33-32.82,2-115.59,2-148.42,0C26.42,13.52,30,26.73,32.28,45.22l2,.83c2.09.54,6,2.89,1.11,2.69-3.77,9.85-.2,19-.44,30,3.49.55,10.53,2.1,10.53,2.1a101.93,101.93,0,0,1-10.5.61c.3,8.46.43,17.16.34,25.69,5.17.31,5.16,2.36,0,2.31,0,1.39,0,2.79-.06,4.17,23.86-.16,18.37-.38-.1,4.15-.37,13.36-1.25,26.1-2.64,36.9,6.45-.38,3.87,1.64-.37,2.78-2.24,15.78-5.67,26.87-10.4,28.64,37-1.82,111.41-1.82,148.42,0C163.22,183.46,159.06,160.73,157.39,132.5Z"/><path class="cls-13" d="M170.41,19.1h.3A1.5,1.5,0,0,0,170.41,19.1Z"/><path class="cls-15" d="M21.19,19.1h.31A1.6,1.6,0,0,0,21.19,19.1Z"/><path class="cls-13" d="M170.71,178.87h0Z"/><path class="cls-16" d="M172,25a6.8,6.8,0,0,0,.35-2.93c-.06-1.27-.11-2.14-1.46-2.52-1.66,0-2.09,1.81-2.28,3.27-.16,1.28,0,4.75,1.25,6.47,1,1.07,1.41,1.6,2,1.91a6.75,6.75,0,0,1-2.33-1.64,11.36,11.36,0,0,1-1.3-7.08c.52-2.9,1.36-3.42,2.48-3.36,1.33.19,1.95,1.46,1.95,2.95C172.66,23.86,172.4,24.52,172,25Z"/><path class="cls-16" d="M19.94,25s-.38-.57-.38-2.93c.06-1.27.27-2.18,1.63-2.57,1.3.17,1.8,1.56,2,3a10.91,10.91,0,0,1-1,7A7.14,7.14,0,0,1,20,31.17a6.75,6.75,0,0,0,2.33-1.64,11.36,11.36,0,0,0,1.3-7.08c-.52-2.9-1.36-3.42-2.48-3.36-1.33.19-1.94,1.46-1.94,2.95C19.24,23.86,19.51,24.52,19.94,25Z"/><path class="cls-16" d="M172,173s.51.58.51,2.93a2.59,2.59,0,0,1-1.76,2.49c-1.65,0-1.86-1.55-2-3a10.68,10.68,0,0,1,1.18-6.75,8.59,8.59,0,0,1,2-1.86,6.75,6.75,0,0,0-2.33,1.64,11.36,11.36,0,0,0-1.3,7.08c.52,2.9,1.36,3.42,2.48,3.36a2.77,2.77,0,0,0,1.95-2.95C172.66,174.11,172.4,173.45,172,173Z"/><path class="cls-16" d="M22.37,168.44A6.75,6.75,0,0,0,20,166.8c.63.32.88.67,1.91,1.74a2.56,2.56,0,0,1,.52.83l.44.13c0-.06,4.67.8,4.61.78-.89-.39-4.73-1.13-4.75-1.18A3.5,3.5,0,0,0,22.37,168.44Z"/><path class="cls-16" d="M23.34,170.83a17,17,0,0,0,4.1-.55c-1.38.23-4.47.43-4.47.43a16.4,16.4,0,0,1,.24,4.72c-.19,1.46-.4,2.94-2.06,2.94a2.5,2.5,0,0,1-1.72-2.44c0-2.35.51-2.93.51-2.93-.43.45-.7,1.11-.69,2.93a2.77,2.77,0,0,0,1.94,2.95c1.12.06,2-.46,2.48-3.36A13.43,13.43,0,0,0,23.34,170.83Z"/><path class="cls-12" d="M143,158c-2.36.1-4.66,0-7,.09-2.2.08-4.4.14-6.6.16-4.54.06-9.08,0-13.62.1s-9.25.13-13.84.6a123.92,123.92,0,0,1-13.63.26c-5.16,0-10.32-.13-15.49-.24a.26.26,0,0,0,0,.51c4.55.2,9.09.33,13.63.42s9.1-.06,13.63.22c2.35.14,4.66.42,7,.43s4.55,0,6.82,0c4.54,0,9.09-.34,13.62-.66,2.55-.17,5.09-.35,7.64-.5s5.2-.52,7.84-.7C143.43,158.61,143.44,158,143,158Z"/><path class="cls-12" d="M144.12,158.58c-.05,0-.05.09,0,.09A0,0,0,1,0,144.12,158.58Z"/><path class="cls-12" d="M98.34,166.94a58.26,58.26,0,0,0-9.52-.71q-4.81-.06-9.65,0c-6.51.05-13,.35-19.51.67a.22.22,0,0,0,0,.43c6.43-.16,12.87-.08,19.3,0q4.73.06,9.45.23a81.08,81.08,0,0,0,9.86-.05C98.55,167.45,98.67,167,98.34,166.94Z"/><path class="cls-12" d="M123.54,118.57a63.79,63.79,0,0,0-6.62-.57c-.32,0-.31.47,0,.49a60.32,60.32,0,0,0,6.58.37C123.65,118.85,123.71,118.6,123.54,118.57Z"/><path class="cls-12" d="M137.46,24.33a2.69,2.69,0,0,0-1.35-.14,2.82,2.82,0,0,0-1.26.53.13.13,0,0,0,.07.24l.62.05.27,0a1.26,1.26,0,0,0,.39,0l.53-.06a2.49,2.49,0,0,0,.66-.13.28.28,0,0,0,.2-.23A.27.27,0,0,0,137.46,24.33Z"/><path class="cls-12" d="M58.35,24.77a25.1,25.1,0,0,0-5.6-.62,47,47,0,0,0-5.81.28c-.3,0-.3.5,0,.47a47.15,47.15,0,0,1,5.7-.21l2.8.07c1,0,1.92.17,2.89.2A.1.1,0,0,0,58.35,24.77Z"/><path class="cls-12" d="M157.39,132.5c-4-5.1-3.65-10.9-.68-16.35-.18-7.07-.23-14.33-.12-21.49-4.82.13-4.37-2,0-2.33,0-1.22,0-2.43.07-3.63-14,.41-12.76-2.53.07-2.65q.18-6.26.49-12.34a1.16,1.16,0,0,0,0-.64c.3-5.69.67-11.22,1.14-16.47a8.23,8.23,0,0,0-2.8-1.81c-1.18-2.21,2.23-4.11,3.54-5.55.41-3.78,1.69-12.35,1.65-12.36,2.28-14,5.42-23.62,9.35-25-32.82,2-115.59,2-148.42,0C26.42,13.52,30,26.73,32.28,45.22l2,.83c2.09.54,6,2.89,1.11,2.69-3.77,9.85-.2,19-.44,30,3.49.55,10.53,2.1,10.53,2.1a101.93,101.93,0,0,1-10.5.61c.3,8.46.42,17.16.34,25.69,5.17.31,5.16,2.36,0,2.31,0,1.39,0,2.79-.06,4.17,23.86-.16,18.37-.38-.1,4.15-.37,13.36-1.25,26.1-2.64,36.9,6.45-.38,3.87,1.64-.37,2.78-2.24,15.78-5.67,26.87-10.4,28.64,37-1.82,111.41-1.82,148.42,0C163.22,183.46,159.06,160.73,157.39,132.5Zm-6.85-77.35-.22,0c0-.06,0-.11,0-.17l.2.06ZM33.16,172.55l-.08-.09a.38.38,0,0,0,0-.1A1.46,1.46,0,0,0,33.16,172.55Zm119.05,9.79a1.83,1.83,0,0,0-.53-.61,2.86,2.86,0,0,0-1.7-.36,3.42,3.42,0,0,1-1.86-.64,10.42,10.42,0,0,0-3.28-1.76c-1.14-.2-1.91.38-2.84.91-.69.38-1.22,0-1.92.17s-.89.65-1.3,1a5.67,5.67,0,0,1-1.71,1.09,11.14,11.14,0,0,1-2.07.4.42.42,0,0,0-.25.12H96c-17.9,0-33.75.06-48.11.06-5.29,0-8.83-.5-11.12-1.6a16.09,16.09,0,0,0-.85-1.85,3.4,3.4,0,0,1-.37-2,7.56,7.56,0,0,0,.35-2.21,3.12,3.12,0,0,0-.84-1.55A5.69,5.69,0,0,1,34,171.58a14.52,14.52,0,0,1-.47-2.27c.44-2.78,1.1-6,1.75-9.84,0-.15.05-.31.07-.46,3.51-1.56,18.51-3.87,18.51-3.87s-7.41-1-12.81-1.89a5.64,5.64,0,0,1-4.64-6.2V147a2.57,2.57,0,0,1,2.52-2.28c1.76,0,3.53.05,5.25.1,1.28,0,2.56.08,3.84.13s2.82,0,4.22.1c.36,0,.34-.51,0-.55-1.4-.14-2.78-.34-4.19-.42s-2.69-.14-4-.17-2.58,0-3.88,0a3,3,0,0,1-3-3.36c.16-1.47.31-3,.46-4.5a1.57,1.57,0,0,0,.7-.33,2,2,0,0,0,.53-2,2.19,2.19,0,0,0-.58-1,3.3,3.3,0,0,0-.3-.22h0v-.11a3.12,3.12,0,0,1,3.17-2.83h0c1.68,0,3.35,0,5,0s3.36,0,5,0l2.91-.05a9.87,9.87,0,0,0,1.71-.21,4.18,4.18,0,0,1,.8-.14c.1,0,.1-.16,0-.16-.92,0-1.77-.23-2.71-.22H51.16q-2.52,0-5-.09c-1.68-.06-3.35-.22-5-.33h0a2.8,2.8,0,0,1-2.6-3c.08-1.14.14-2.26.2-3.36A3.25,3.25,0,0,1,40.88,119c5.18-1.74,17.13-6,17.13-6s-17.1-1.74-19.42-1.65c4-1.31,6.23-4.3-.57-5.4,0-4.52.09-12.61.12-18.89a4.43,4.43,0,0,1,4-4.38c5.07-.55,18.22-1.86,18.22-1.86-.17,0-16-3-20.61-4.3a2.35,2.35,0,0,1-1.71-2v0c-.11-.87-.36-2.94-.61-5.14a3.6,3.6,0,0,0,.39-.47.77.77,0,0,0,.58-.51,4.45,4.45,0,0,0,.57-.22,1.46,1.46,0,0,0,.87-.93c.29-.92-.18-1.78-.35-2.67a2.47,2.47,0,0,0-.51-1.24,5.11,5.11,0,0,0-1.26-.78,3.17,3.17,0,0,1-1-1,57.19,57.19,0,0,1,0-6.13,5.79,5.79,0,0,1,4.69-5.32c4.29-.84,10-1.62,10-1.62s-8.19-2.45-13.08-4c-2-.62-3.82-2.29-3.75-4.36a53.26,53.26,0,0,0-.63-8.06l.5,0c.61,0,1.21,0,1.81.07l1.73.13.87,0a5.74,5.74,0,0,0,.93-.08.14.14,0,0,0,0-.27,3.92,3.92,0,0,0-.88-.28c-.3-.06-.59-.11-.89-.14l-1.74-.19-1.73-.18-.78-.07c-.1-.73-.21-1.46-.33-2.21.35,0,.7,0,1.06,0,.81,0,1.63.1,2.45.14,1.84.11,3.68.32,5.52.47a64.77,64.77,0,0,0,10.87.33c.17,0,.24-.29,0-.32-3.45-.62-7-.69-10.5-1-1.86-.15-3.73-.28-5.59-.53-.87-.12-1.75-.24-2.62-.4-.52-.1-1-.25-1.5-.39-.56-3.38-1.2-6.69-1.71-9.22a2.44,2.44,0,0,1,1.16-1,4.74,4.74,0,0,0,.57-.15,1.86,1.86,0,0,1,.41,0,.54.54,0,0,0,.64-.36,1,1,0,0,1,.08-.25l.14-.11a1.94,1.94,0,0,0,.27-.41,1,1,0,0,1,.66-.2.51.51,0,0,0,.51-.52.76.76,0,0,0,0-.15c.24-.09.49-.17.73-.24.56-.17,1.12-.29,1.68-.46.3-.08.58-.16.88-.22s.56-.22.86-.28a.24.24,0,0,0,.09,0c14,.26,39.82.69,54.68.69,21.08,0,68.1-.88,68.1-.88a116.59,116.59,0,0,0-2.94,11.72,7.24,7.24,0,0,0-1.86.3,7.67,7.67,0,0,1-1.86.14c-.6,0-1.21,0-1.82,0-1.26,0-2.52,0-3.78,0a18.33,18.33,0,0,0-3.7.25c-.23.05-.25.45,0,.49a23,23,0,0,0,3.42,0c1.26,0,2.53-.06,3.78,0a14.52,14.52,0,0,1,3.73.31c.32.1.59.26.92.33a5.31,5.31,0,0,0,.79.09c-.34,1.85-.68,3.84-1,5.93a38.21,38.21,0,0,1-7,.63c-3.37,0-6.73-.33-10.09-.52-2-.12-4.08-.11-6.12-.09a64.26,64.26,0,0,0-8.21.17c-.25,0-.19.46.06.44a61.35,61.35,0,0,1,8.24-.22c2.76.21,5.5.6,8.26.83s5.37.41,8.06.46c2.2,0,4.38.13,6.57,0-.1.72-.18,1.47-.26,2.22h0c-.56,0-1.13,0-1.68,0a.1.1,0,0,0,0,.19,15.72,15.72,0,0,0,1.64.41h0c-.21,2-.38,4.16-.49,6.33a7,7,0,0,1-4.21,6.09,95,95,0,0,1-9.41,3.21s2.59.53,5.49,1.41a3.46,3.46,0,0,1,0,.91.51.51,0,0,0,.49.64,29,29,0,0,0,3.73,0A5.73,5.73,0,0,1,155,57.59a6.32,6.32,0,0,1,.48,1.1c.11.33.19.66.29,1a2.22,2.22,0,0,0,.47.93,4.86,4.86,0,0,1,0,1c-.13,1.75-.31,3.83-.51,6.06-.25,2.71-.8,8.47-1,10.53-.07.69-.13,1.38-.19,2.06a4.34,4.34,0,0,1-3.22,3.81,163.6,163.6,0,0,1-19.66,3.46s17.68,3,21.14,3.51c0,.21-6.23,3.73-6.23,3.73s1.64.38,3.6,1a5.59,5.59,0,0,1,3.95,5.37c0,2.41,0,5,0,7.49a.6.6,0,0,0-.19-.06.77.77,0,0,0-.37,0,1.06,1.06,0,0,0-.41.24,2.56,2.56,0,0,0-.2.26.22.22,0,0,0-.05.08,1.38,1.38,0,0,0-.15.4.07.07,0,0,0,0,0,1.06,1.06,0,0,0-.09.25,2.25,2.25,0,0,0,0,.93.55.55,0,0,0,.24.34.58.58,0,0,0,.25.12l.13,0,0,0a1.67,1.67,0,0,0,.35.24,1.83,1.83,0,0,0,.47.15c0,1.11,0,2.19.05,3.22a17.73,17.73,0,0,0-1.16,1.54,5.47,5.47,0,0,1-4.36,2.49c-.58,0-1.16,0-1.74,0-2.46-.12-4.93-.21-7.39-.27s-4.78.08-7.19.08-4.93,0-7.4.06c-.12,0-.12.19,0,.2,2.4.08,4.8.15,7.2.25s4.78.39,7.18.51,4.66.25,7,.4h.14a4.46,4.46,0,0,1,4.13,4.29,12.92,12.92,0,0,0,4.43,9.2c.71,11.42,1.11,20.31,1.72,27.09-.38.05-.76.12-1.09.14a59.59,59.59,0,0,0-6.68.41,25.51,25.51,0,0,1-3.81,0,.2.2,0,0,0,0,.39c1.33.09,2.66-.13,4,0,2.11.19,4.26.24,6.39.41h0a1.68,1.68,0,0,1,1.49,1.52C158.44,176.46,160.18,181.11,152.21,182.34Z"/><path class="cls-12" d="M151.14,60.3l.05,0h0a1.34,1.34,0,0,0,.17.59.8.8,0,0,0,.5.38l.22,0a.78.78,0,0,0,.42-.11h0a.31.31,0,0,0,.1,0l.18-.13a1.77,1.77,0,0,0,.16-.22l0,0a1.89,1.89,0,0,0,.11-.25.43.43,0,0,1,0-.05,2.89,2.89,0,0,0,0-.29.24.24,0,0,0,0-.12,2,2,0,0,0,0-.34.14.14,0,0,0,0-.06c0-.08-.07-.18-.11-.26l0,0a1.84,1.84,0,0,0-.17-.22s0,0,0,0-.15-.12-.22-.18l-.06,0-.13-.05-.14-.06h-.06l-.27,0h0a.69.69,0,0,0-.35.08.81.81,0,0,0-.49.49.62.62,0,0,0-.08.35l0,.25A1.14,1.14,0,0,0,151.14,60.3Z"/><path class="cls-12" d="M146.54,57.78a.74.74,0,0,0,0-1.47A.74.74,0,0,0,146.54,57.78Z"/><path class="cls-12" d="M40.9,54.52a.51.51,0,0,0-.25-.16.6.6,0,0,0-.3-.07l-.21,0a.66.66,0,0,0-.34.2l-.13.16a.76.76,0,0,0-.1.39l0,.21a.58.58,0,0,0,.13.26h0a.46.46,0,0,0,.13.21.78.78,0,0,0,.48.2l.18,0a.66.66,0,0,0,.29-.17l.11-.13s0-.06,0-.08a.67.67,0,0,0,.11-.18.68.68,0,0,0,0-.6A.51.51,0,0,0,40.9,54.52Z"/><path class="cls-12" d="M44.52,64.09a.63.63,0,0,0-.55.31.72.72,0,0,0-.08.32A.69.69,0,0,0,44,65l.05.08,0,0v0a.69.69,0,0,0,.19.19.6.6,0,0,0,.27.07.37.37,0,0,0,.2,0l.06,0a.5.5,0,0,0,.15-.14l0,0v0l0,0,.05-.08a.59.59,0,0,0,.09-.32.62.62,0,0,0-.09-.32A.63.63,0,0,0,44.52,64.09Z"/><path class="cls-12" d="M39.77,15.9a.41.41,0,0,0-.18-.19.48.48,0,0,0-.22-.12l-.25,0h-.53a.58.58,0,0,0-.26.06.49.49,0,0,0-.21.14A.4.4,0,0,0,38,16a.39.39,0,0,0-.06.26c0,.06,0,.12,0,.18a.59.59,0,0,0,.18.29.65.65,0,0,0,.47.2h.53l.25,0,.16-.07a.47.47,0,0,0,.19-.18.29.29,0,0,0,.08-.14.58.58,0,0,0,.06-.26,1.1,1.1,0,0,1,0-.18Z"/><path class="cls-12" d="M147.8,176.69a1.66,1.66,0,0,0-.15-.39,1.69,1.69,0,0,0-.56-.6,1.56,1.56,0,0,0-.37-.17,1,1,0,0,0-.62,0l-.2.08a.77.77,0,0,0-.23.21.5.5,0,0,0-.1.19.55.55,0,0,0-.07.31.81.81,0,0,0,.11.41.5.5,0,0,0,.18.2,1.53,1.53,0,0,0,0,.37,1.34,1.34,0,0,0,.07.18.61.61,0,0,0,.05.12c0,.07.09.12.13.18a1.11,1.11,0,0,0,.32.25,1.28,1.28,0,0,0,.27.11l.25,0,.2,0,.18-.07h0a1.3,1.3,0,0,0,.41-.4,1.53,1.53,0,0,0,.16-.59V177A1.67,1.67,0,0,0,147.8,176.69Z"/><path class="cls-12" d="M149.91,109.6s0,0,0,0l.19.07a.88.88,0,0,0,.2,0h0l.17,0h0a.89.89,0,0,0,.35-.21.67.67,0,0,0,.18-.3.77.77,0,0,0,0-.37l-.07-.17a.64.64,0,0,0-.25-.24.44.44,0,0,0-.25-.08.53.53,0,0,0-.28,0,.65.65,0,0,0-.22.11.76.76,0,0,0-.26.15.71.71,0,0,0-.16.28.62.62,0,0,0,0,.33.67.67,0,0,0,.16.27A1,1,0,0,0,149.91,109.6Z"/><path class="cls-12" d="M44.41,132.38a.63.63,0,0,0-.33-.09.58.58,0,0,0-.26.06.49.49,0,0,0-.21.14.66.66,0,0,0-.17.29.69.69,0,0,0,0,.35l0,.21.06.15a.49.49,0,0,0,.17.18.29.29,0,0,0,.13.08.43.43,0,0,0,.25.05l.17,0,.15-.06a.52.52,0,0,0,.17-.16.53.53,0,0,0,.12-.22l0-.21a.69.69,0,0,0,0-.35.66.66,0,0,0-.17-.29Z"/><path class="cls-12" d="M42.11,135.7s0,0,0,0a1.84,1.84,0,0,0-.17-.22l0,0-.19-.15-.22-.09-.24,0a.81.81,0,0,0-.16,0,.76.76,0,0,0-.16,0l-.22.09,0,0-.19.14,0,0-.13.16-.08.19a1.49,1.49,0,0,1,0,.21.56.56,0,0,0,.06.31.47.47,0,0,0,.06.09.43.43,0,0,0,0,.11v.07a1.43,1.43,0,0,0,0,.22.14.14,0,0,0,0,.07,1.21,1.21,0,0,0,.09.2l0,.06h0a1.1,1.1,0,0,0,.09.14.55.55,0,0,0,.1.11l.14.11s0,0,0,0a.34.34,0,0,0,.17.11.64.64,0,0,0,.31.07h0l.22,0a.87.87,0,0,0,.27-.14l.08-.07.12-.16,0-.06,0-.06a2,2,0,0,0,.11-.26,2.35,2.35,0,0,0,0-.37.76.76,0,0,0,0-.15c0-.12,0-.25-.06-.37A1.56,1.56,0,0,0,42.11,135.7Z"/><path class="cls-17" d="M24.29,36.11c1.48-.09,2.38-5,2-11S24.4,14.39,22.92,14.48H18.44l1.37,21.63Z"/><path class="cls-18" d="M19.81,36.11h4.48c1.05-.07,1.81-2.57,2-6.16-.09,1.32-4.17,1.82-4.48,0l-2.24,2.7Z"/><path class="cls-19" d="M21.81,25.13c.38,6-.52,10.89-2,11s-3-4.67-3.36-10.64.51-10.9,2-11S21.43,19.15,21.81,25.13Z"/><path class="cls-20" d="M18.22,34.4A12.82,12.82,0,0,0,20,27.11L16.85,29.2A21.69,21.69,0,0,0,18.22,34.4Z"/><path class="cls-21" d="M19.13,14.78c1.14,1.12,2.7,4.2,2.64,9.8C21.37,20.48,20.84,17.54,19.13,14.78Z"/><path class="cls-22" d="M20.14,25.55c0-3.14-.83-4.9-1.38-4.93-2.84,0-4.19,1.78-8.36,1.63s-5.08-1.1-8.27-1.88c-1.22-.3-1.81.81-2,4.75,0,4.15.78,5,1.68,4.77C5,29,6,28.34,10.2,28.35s5.4,1.87,8.23,2C19.25,30.31,20.14,28.36,20.14,25.55Z"/><path class="cls-21" d="M16.16,23.74c-.23-.1-5.92-.58-7.93-.69C7.1,23,5.87,23,6,23.73c.3.67,1.47.81,2.56.72C10.47,24.29,16,23.83,16.16,23.74Z"/><path class="cls-23" d="M6.71,27.44C5.16,27.5,3.3,27.1,2.79,26L1.16,29.39l-.06.39a.82.82,0,0,0,.71.11C5,29,6,28.34,10.2,28.35s5.39,2,8.23,2c.7,0,1.82-1.13,1.71-5.73-1,1.64-3,2.67-6,2.53C11.8,27,9,27.35,6.71,27.44Z"/><path class="cls-24" d="M1.3,29.89c-.79,0-1.37-2.18-1.29-4.81s.76-4.76,1.55-4.74,1.37,2.18,1.3,4.81S2.09,29.91,1.3,29.89Z"/><path class="cls-21" d="M2.11,20.74c.91,1.94.92,4,.47,6.87C3.27,25.59,3.45,22.68,2.11,20.74Z"/><path class="cls-25" d="M167.61,36.11c-1.48-.09-2.37-5-2-11s1.89-10.74,3.37-10.65h4.47l-1.37,21.63Z"/><path class="cls-18" d="M172.09,36.11h-4.48c-1.05-.07-1.8-2.57-2-6.16.08,1.32,4.17,1.82,4.47,0l2.24,2.7Z"/><path class="cls-26" d="M170.1,25.13c-.38,6,.51,10.89,2,11s3-4.67,3.37-10.64-.52-10.9-2-11S170.48,19.15,170.1,25.13Z"/><path class="cls-20" d="M173.68,34.4c-1.49-2.22-1.77-4.68-1.81-7.29l3.18,2.09A21.69,21.69,0,0,1,173.68,34.4Z"/><path class="cls-21" d="M172.78,14.78c-1.14,1.12-2.71,4.2-2.64,9.8C170.54,20.48,171.06,17.54,172.78,14.78Z"/><path class="cls-27" d="M171.77,25.55c0-3.14.83-4.9,1.38-4.93,2.83,0,4.18,1.78,8.35,1.63s5.08-1.1,8.27-1.88c1.22-.3,1.81.81,2,4.75,0,4.15-.78,5-1.68,4.77-3.19-.85-4.21-1.55-8.38-1.54s-5.4,1.87-8.24,2C172.66,30.31,171.77,28.36,171.77,25.55Z"/><path class="cls-21" d="M175.75,23.74c.22-.1,5.92-.58,7.93-.69,1.12-.06,2.35,0,2.26.68-.3.67-1.48.81-2.56.72C181.44,24.29,175.94,23.83,175.75,23.74Z"/><path class="cls-23" d="M185.19,27.44c1.55.06,3.42-.34,3.92-1.46l1.64,3.41.06.39a.83.83,0,0,1-.72.11c-3.19-.85-4.21-1.55-8.38-1.54s-5.4,2-8.24,2c-.69,0-1.81-1.13-1.7-5.73,1,1.64,2.95,2.67,6,2.53C180.11,27,182.87,27.35,185.19,27.44Z"/><path class="cls-28" d="M190.6,29.89c.79,0,1.37-2.18,1.3-4.81s-.77-4.76-1.56-4.74-1.36,2.18-1.29,4.81S189.82,29.91,190.6,29.89Z"/><path class="cls-21" d="M189.8,20.74c-.91,1.94-.92,4-.48,6.87C188.63,25.59,188.46,22.68,189.8,20.74Z"/><path class="cls-29" d="M24.29,186.38c1.48-.09,2.38-5,2-11s-1.89-10.74-3.37-10.65H18.44l1.37,21.63Z"/><path class="cls-18" d="M19.81,186.38h4.48c1.05-.07,1.81-2.57,2-6.16-.09,1.32-4.17,1.82-4.48,0l-2.24,2.7Z"/><path class="cls-30" d="M21.81,175.4c.38,6-.52,10.89-2,11s-3-4.67-3.36-10.64.51-10.89,2-11S21.43,169.42,21.81,175.4Z"/><path class="cls-20" d="M18.22,184.67A12.82,12.82,0,0,0,20,177.38l-3.19,2.09A21.56,21.56,0,0,0,18.22,184.67Z"/><path class="cls-21" d="M19.13,165.05c1.14,1.12,2.7,4.2,2.64,9.8C21.37,170.75,20.84,167.81,19.13,165.05Z"/><path class="cls-31" d="M20.14,175.82c0-3.14-.83-4.9-1.38-4.93-2.84,0-4.19,1.79-8.36,1.63s-5.08-1.1-8.27-1.88c-1.22-.3-1.81.81-2,4.75,0,4.15.78,5,1.68,4.77,3.2-.85,4.21-1.55,8.39-1.54s5.4,1.87,8.23,2C19.25,180.58,20.14,178.63,20.14,175.82Z"/><path class="cls-21" d="M16.16,174c-.23-.1-5.92-.58-7.93-.69-1.13-.06-2.36,0-2.26.68.3.67,1.47.81,2.56.72C10.47,174.56,16,174.11,16.16,174Z"/><path class="cls-23" d="M6.71,177.71c-1.55.06-3.41-.34-3.92-1.46l-1.63,3.41-.06.39a.82.82,0,0,0,.71.11c3.2-.85,4.21-1.55,8.39-1.54s5.39,2,8.23,2c.7,0,1.82-1.12,1.71-5.73-1,1.64-3,2.67-6,2.53C11.8,177.28,9,177.62,6.71,177.71Z"/><path class="cls-32" d="M1.3,180.16c-.79,0-1.37-2.18-1.29-4.81s.76-4.76,1.55-4.74,1.37,2.18,1.3,4.82S2.09,180.18,1.3,180.16Z"/><path class="cls-21" d="M2.11,171c.91,1.94.92,4,.47,6.88C3.27,175.86,3.45,173,2.11,171Z"/><path class="cls-33" d="M167.61,186.38c-1.48-.09-2.37-5-2-11s1.89-10.74,3.37-10.65h4.47l-1.37,21.63Z"/><path class="cls-18" d="M172.09,186.38h-4.48c-1.05-.07-1.8-2.57-2-6.16.08,1.32,4.17,1.82,4.47,0l2.24,2.7Z"/><path class="cls-34" d="M170.1,175.4c-.38,6,.51,10.89,2,11s3-4.67,3.37-10.64-.52-10.89-2-11S170.48,169.42,170.1,175.4Z"/><path class="cls-20" d="M173.68,184.67c-1.49-2.22-1.77-4.68-1.81-7.29l3.18,2.09A21.56,21.56,0,0,1,173.68,184.67Z"/><path class="cls-21" d="M172.78,165.05c-1.14,1.12-2.71,4.2-2.64,9.8C170.54,170.75,171.06,167.81,172.78,165.05Z"/><path class="cls-35" d="M171.77,175.82c0-3.14.83-4.9,1.38-4.93,2.83,0,4.18,1.79,8.35,1.63s5.08-1.1,8.27-1.88c1.22-.3,1.81.81,2,4.75,0,4.15-.78,5-1.68,4.77-3.19-.85-4.21-1.55-8.38-1.54s-5.4,1.87-8.24,2C172.66,180.58,171.77,178.63,171.77,175.82Z"/><path class="cls-21" d="M175.75,174c.22-.1,5.92-.58,7.93-.69,1.12-.06,2.35,0,2.26.68-.3.67-1.48.81-2.56.72C181.44,174.56,175.94,174.11,175.75,174Z"/><path class="cls-23" d="M185.19,177.71c1.55.06,3.42-.34,3.92-1.46l1.64,3.41.06.39a.83.83,0,0,1-.72.11c-3.19-.85-4.21-1.55-8.38-1.54s-5.4,2-8.24,2c-.69,0-1.81-1.12-1.7-5.73,1,1.64,2.95,2.67,6,2.53C180.11,177.28,182.87,177.62,185.19,177.71Z"/><path class="cls-36" d="M190.6,180.16c.79,0,1.37-2.18,1.3-4.81s-.77-4.76-1.56-4.74-1.36,2.18-1.29,4.82S189.82,180.18,190.6,180.16Z"/><path class="cls-21" d="M189.8,171c-.91,1.94-.92,4-.48,6.88C188.63,175.86,188.46,173,189.8,171Z"/><path class="cls-37" d="M144,171a18,18,0,0,0-.31-13.31,16.33,16.33,0,0,0-9.49-9.07,16,16,0,0,0-5.56-1,17.95,17.95,0,0,0-11.08,31.64c0,1.95.07,3.91.08,5.88,3.76,0,22.09-.07,24.53,0,0-3.53,0-7,0-10.52A18.46,18.46,0,0,0,144,171Z"/><path class="cls-38" d="M114.44,162.33c1.55,7.54,1.22,39.85.45,47.38,3.86-3.18,11.53-10.91,12.83-13.71,2.66,4.73,10.32,11.88,13.51,14.39-1-9.27-1.58-42.2-.52-48.66C132.79,163.67,125.35,164.18,114.44,162.33Z"/><path class="cls-39" d="M140.71,161.73c-7.92,1.94-15.36,2.45-26.27.6,1.55,7.54,1.22,39.85.45,47.38,3.86-3.19,11.53-10.91,12.83-13.71,2.66,4.73,10.32,11.88,13.51,14.39C140.26,201.12,139.65,168.19,140.71,161.73Zm-2.36,41.05c-4.1-3.34-7.59-6.37-10.78-12.53a32.6,32.6,0,0,1-9.69,12.17c0-8.51.75-28.45,0-35.64a82,82,0,0,0,9,.36,67.58,67.58,0,0,0,10.49-.81C136.86,173.6,138.15,193.83,138.35,202.78Z"/><path class="cls-40" d="M127.72,196c2.66,4.73,10.32,11.88,13.51,14.39-.38-3.66-.83-9.84-.84-16.47-8.28,2.12-19.36,1.87-24.89-.67a145.22,145.22,0,0,1-.61,16.46C118.75,206.52,126.42,198.8,127.72,196Z"/><path class="cls-37" d="M140.18,172.3c0-2.64.1-5,.2-6.89.09-1.58.19-2.85.33-3.68h0a56.69,56.69,0,0,1-13.61,1.75,72.94,72.94,0,0,1-12.66-1.15h0a52.82,52.82,0,0,1,.68,6.53c.14,2.36.24,5.09.31,8,0,.11,0,.22,0,.33a16.09,16.09,0,0,0,12.18,5.53,17.18,17.18,0,0,0,12.53-5.58v-1.41C140.16,174.56,140.17,173.4,140.18,172.3Z"/><path class="cls-41" d="M127.08,180.81a16.19,16.19,0,0,1-5.51-1c-8.66-3.17-13-13.11-9.7-22.17A17.48,17.48,0,0,1,128.06,146a16,16,0,0,1,5.51,1,16.25,16.25,0,0,1,9.4,9,17.83,17.83,0,0,1,.3,13.19A17.47,17.47,0,0,1,127.08,180.81Z"/><path class="cls-42" d="M126,178.68a15.27,15.27,0,0,1-5.18-.91c-8.12-3-12.21-12.31-9.1-20.82a16.41,16.41,0,0,1,15.2-11,15,15,0,0,1,5.17.92,15.26,15.26,0,0,1,8.83,8.43,16.75,16.75,0,0,1,.28,12.38A16.39,16.39,0,0,1,126,178.68Z"/><path class="cls-43" d="M136.6,155.84c.72,2.49,1.16,6.22.18,8.91-2.34,6.41-9.36,9.89-15.39,7.68-2.66-1-5-3.89-6.26-6.26a11.38,11.38,0,0,0,7,7.65c6,2.2,12.83-1.21,15.17-7.62A12.64,12.64,0,0,0,136.6,155.84Z"/><path class="cls-41" d="M116.64,160.47c2.35-6.41,9.14-9.82,15.18-7.62a11.18,11.18,0,0,1,5.33,4.14,11.31,11.31,0,0,0-6.56-6.4c-6-2.2-12.83,1.21-15.17,7.62a12.58,12.58,0,0,0,1.36,11.47A12.8,12.8,0,0,1,116.64,160.47Z"/><path class="cls-44" d="M133.06,172.34c.17.32-.43,1-1.33,1.42s-1.77.58-1.93.26.43-1,1.33-1.42S132.9,172,133.06,172.34Z"/><path class="cls-45" d="M115.13,174c6.11,6,24.12,6.78,27-9.66C142.08,178.29,124.45,183.59,115.13,174Z"/><polygon class="cls-46" points="44.77 0 46.49 10.08 50.72 12.03 46.49 13.99 44.77 24.07 43.05 13.99 38.82 12.03 43.05 10.08 44.77 0"/><circle class="cls-46" cx="61.56" cy="4.61" r="2.32"/><path class="cls-46" d="M37,19.38a1.64,1.64,0,1,1-1.64-1.65A1.65,1.65,0,0,1,37,19.38Z"/><polygon class="cls-46" points="158.17 159.84 159.93 178.59 168.43 180.58 159.93 182.58 158.17 201.33 156.42 182.58 147.92 180.58 156.42 178.59 158.17 159.84"/><circle class="cls-46" cx="170.07" cy="197.2" r="1.64"/><path class="cls-47" d="M58.85,48H55a.58.58,0,0,1-.45-.18.61.61,0,0,1-.17-.43V29.86a.62.62,0,0,1,.17-.44.58.58,0,0,1,.45-.18h3.85a.6.6,0,0,1,.44.18.62.62,0,0,1,.17.44V47.39a.61.61,0,0,1-.17.43A.6.6,0,0,1,58.85,48Z"/><path class="cls-48" d="M80.56,29.83V47.39A.61.61,0,0,1,80,48H76.16a1.13,1.13,0,0,1-.54-.15,1.49,1.49,0,0,1-.44-.36L68.5,38.07c-.11-.14-.21-.19-.32-.17S68,38,68,38.2v9.19a.58.58,0,0,1-.18.43.6.6,0,0,1-.44.18H63.55a.6.6,0,0,1-.44-.18.58.58,0,0,1-.18-.43V29.83a.6.6,0,0,1,.18-.44.58.58,0,0,1,.43-.18h3.85a1.45,1.45,0,0,1,1,.49L75,39.12c.11.14.21.2.32.18s.17-.11.17-.28V29.83a.61.61,0,0,1,.62-.62H80a.58.58,0,0,1,.43.18A.6.6,0,0,1,80.56,29.83Z"/><path class="cls-49" d="M84.46,47.39V29.83a.61.61,0,0,1,.62-.62h7a9.34,9.34,0,0,1,6.6,2.37,8.3,8.3,0,0,1,2.1,3.05,11.39,11.39,0,0,1,0,8,8.37,8.37,0,0,1-2.1,3.07,8.65,8.65,0,0,1-2.94,1.74,10.89,10.89,0,0,1-3.66.59h-7a.6.6,0,0,1-.44-.18A.58.58,0,0,1,84.46,47.39Zm5.7-4.11h1.92a6.52,6.52,0,0,0,1.49-.18A3.41,3.41,0,0,0,95,42.42,3.56,3.56,0,0,0,96,41a5.93,5.93,0,0,0,.4-2.38,5.91,5.91,0,0,0-.4-2.37,3.39,3.39,0,0,0-2.41-2.09A6.37,6.37,0,0,0,92.08,34H90.16a.6.6,0,0,0-.44.18.58.58,0,0,0-.18.43v8.06a.61.61,0,0,0,.62.62Z"/><path class="cls-50" d="M108.84,34.55v1.08a.61.61,0,0,0,.62.62h7a.61.61,0,0,1,.61.61V40.4a.59.59,0,0,1-.18.44.58.58,0,0,1-.43.18h-7a.61.61,0,0,0-.62.62v1a.61.61,0,0,0,.62.62h8a.6.6,0,0,1,.44.18.58.58,0,0,1,.18.43v3.55a.58.58,0,0,1-.18.43.6.6,0,0,1-.44.18H104.38a.6.6,0,0,1-.44-.18.58.58,0,0,1-.18-.43V29.83a.61.61,0,0,1,.62-.62h13.06a.61.61,0,0,1,.62.62v3.49a.61.61,0,0,1-.62.62h-8a.6.6,0,0,0-.44.18A.58.58,0,0,0,108.84,34.55Z"/><path class="cls-51" d="M126,38.22,119.55,30a.48.48,0,0,1-.08-.46.32.32,0,0,1,.33-.26h4.93a1.16,1.16,0,0,1,.54.15,1.63,1.63,0,0,1,.44.36l3.2,4.7a.46.46,0,0,0,.36.21.44.44,0,0,0,.36-.21c.55-.77,1.09-1.56,1.63-2.37s1.07-1.6,1.58-2.35a1.22,1.22,0,0,1,.44-.35,1.27,1.27,0,0,1,.54-.14h4.9a.33.33,0,0,1,.36.26.58.58,0,0,1-.1.46l-6.4,8.26a.88.88,0,0,0,0,1l6.27,8.06a.48.48,0,0,1,.06.47.34.34,0,0,1-.35.27h-4.87a1.16,1.16,0,0,1-.54-.15,1.63,1.63,0,0,1-.44-.36L129.63,43a.44.44,0,0,0-.36-.21.46.46,0,0,0-.36.21l-3.08,4.49a1.44,1.44,0,0,1-.43.36,1.16,1.16,0,0,1-.54.15H120a.32.32,0,0,1-.33-.27.49.49,0,0,1,.08-.47L126,39.2a.88.88,0,0,0,0-1Z"/></g></g></g></svg>